<?xml version="1.0" encoding="UTF-8" standalone="no"?>
<!-- Generator: Adobe Illustrator 18.0.0, SVG Export Plug-In . SVG Version: 6.00 Build 0)  -->

<svg
   xmlns:dc="http://purl.org/dc/elements/1.1/"
   xmlns:cc="http://creativecommons.org/ns#"
   xmlns:rdf="http://www.w3.org/1999/02/22-rdf-syntax-ns#"
   xmlns:svg="http://www.w3.org/2000/svg"
   xmlns="http://www.w3.org/2000/svg"
   xmlns:sodipodi="http://sodipodi.sourceforge.net/DTD/sodipodi-0.dtd"
   xmlns:inkscape="http://www.inkscape.org/namespaces/inkscape"
   version="1.1"
   id="Ebene_1"
   x="0px"
   y="0px"
   viewBox="0 0 647.23947 634.95103"
   enable-background="new 0 0 590 595"
   xml:space="preserve"
   inkscape:version="0.91 r13725"
   sodipodi:docname="euro_xiangqi_js.svg"
   width="18.266537cm"
   height="17.919729cm"><metadata
     id="metadata223"><rdf:RDF><cc:Work
         rdf:about=""><dc:format>image/svg+xml</dc:format><dc:type
           rdf:resource="http://purl.org/dc/dcmitype/StillImage" /><dc:date>2015-05-20</dc:date><dc:creator><cc:Agent><dc:title>Jasmin Scharrer (original artwork, http://jasminscharrer.com/), Sebastian Pipping (post-processing, https://blog.hartwork.org/)</dc:title></cc:Agent></dc:creator><dc:subject><rdf:Bag><rdf:li>Chinese chess</rdf:li><rdf:li>Xiangqi</rdf:li><rdf:li>chess</rdf:li><rdf:li>board game</rdf:li><rdf:li>game</rdf:li></rdf:Bag></dc:subject><cc:license
           rdf:resource="http://creativecommons.org/licenses/by/4.0/" /><dc:title></dc:title></cc:Work></rdf:RDF></metadata><defs
     id="defs221" /><sodipodi:namedview
     pagecolor="#ffffff"
     bordercolor="#666666"
     borderopacity="1"
     objecttolerance="10"
     gridtolerance="10"
     guidetolerance="10"
     inkscape:pageopacity="0"
     inkscape:pageshadow="2"
     inkscape:window-width="1920"
     inkscape:window-height="1023"
     id="namedview219"
     showgrid="false"
     inkscape:zoom="1.3071874"
     inkscape:cx="323.61974"
     inkscape:cy="317.47552"
     inkscape:window-x="0"
     inkscape:window-y="0"
     inkscape:window-maximized="1"
     inkscape:current-layer="Ebene_1"
     inkscape:snap-bbox="false"
     fit-margin-top="0"
     fit-margin-left="0"
     fit-margin-right="0"
     fit-margin-bottom="0"
     units="cm"
     showguides="true" /><g
     id="red_horse"
     transform="translate(-14.218329,-7.5544189)"><circle
       r="73.805771"
       cy="83.08519"
       cx="89.749069"
       id="circle4372"
       style="color:#000000;display:inline;overflow:visible;visibility:visible;opacity:1;fill:#ffffff;fill-opacity:1;fill-rule:nonzero;stroke:#000000;stroke-width:3.45000005;stroke-linecap:round;stroke-linejoin:miter;stroke-miterlimit:10;stroke-dasharray:none;stroke-dashoffset:0;stroke-opacity:1;marker:none;enable-background:accumulate" /><g
       transform="translate(-2.3937922,-30.364035)"
       id="g75"><path
         style="stroke:#000000;stroke-width:3;stroke-miterlimit:10"
         inkscape:connector-curvature="0"
         id="path77"
         d="m 112.6,82.3 -3,-18.5 -6.5,14.5 c 0,0 -32,2.5 -36.5,38 l -0.2,0.2 -2.3,40.1 45.9,0 0,-8.9 c 0,0 -15.2,-19.3 -15.2,-35.8 0,0 4.5,7.5 14.7,7.3 0,0 4.7,15.9 18.5,10 6.7,-2.8 7,-8.5 7,-8.5 L 112.6,82.3 Z"
         stroke-miterlimit="10" /><path
         style="fill:#ffffff;stroke:#000000;stroke-width:3;stroke-miterlimit:10"
         inkscape:connector-curvature="0"
         id="path79"
         d="m 86.4,68.2 -5.5,1.6 4.3,14.8 c 1.8,-1.1 3.5,-1.9 5.2,-2.7 l -4,-13.7 z"
         stroke-miterlimit="10" /><path
         style="fill:#ffffff;stroke:#000000;stroke-width:3;stroke-miterlimit:10"
         inkscape:connector-curvature="0"
         id="path81"
         d="m 73.7,73.8 -4.7,3.3 9.2,13.4 c 1.4,-1.4 2.9,-2.6 4.4,-3.7 l -8.9,-13 z"
         stroke-miterlimit="10" /><path
         style="fill:#ffffff;stroke:#000000;stroke-width:3;stroke-miterlimit:10"
         inkscape:connector-curvature="0"
         id="path83"
         d="m 63.8,82.7 -4,4.2 12.3,11.6 c 1,-1.7 2.2,-3.3 3.3,-4.8 l -11.6,-11 z"
         stroke-miterlimit="10" /><path
         style="fill:#ffffff;stroke:#000000;stroke-width:3;stroke-miterlimit:10"
         inkscape:connector-curvature="0"
         id="path85"
         d="m 55.2,93.7 -2.7,5.1 15.8,8.5 c 0.6,-1.9 1.3,-3.7 2.1,-5.4 L 55.2,93.7 Z"
         stroke-miterlimit="10" /><path
         style="fill:#ffffff;stroke:#000000;stroke-width:3;stroke-miterlimit:10"
         inkscape:connector-curvature="0"
         id="path87"
         d="m 50.6,108.3 -0.7,5.7 16.6,2.1 c 0.3,-2 0.7,-3.9 1.1,-5.7 l -17,-2.1 z"
         stroke-miterlimit="10" /><polygon
         style="fill:#ffffff;stroke:#000000;stroke-width:3;stroke-miterlimit:10"
         id="polygon89"
         points="49.1,120.6 49.1,126.3 65.6,126.3 66.2,120.6 "
         stroke-miterlimit="10" /><polygon
         style="fill:#ffffff;stroke:#000000;stroke-width:3;stroke-miterlimit:10"
         id="polygon91"
         points="48.8,131.6 48.8,137.3 64.2,137.3 64.8,131.6 "
         stroke-miterlimit="10" /><polygon
         style="fill:#ffffff;stroke:#000000;stroke-width:3;stroke-miterlimit:10"
         id="polygon93"
         points="49.1,142.4 49.1,148.1 64.4,148.1 65,142.4 "
         stroke-miterlimit="10" /><path
         style="fill:#ffffff;stroke:#ffffff;stroke-width:0.5;stroke-miterlimit:10"
         inkscape:connector-curvature="0"
         id="path95"
         d="m 129.4,116.5 c 0,0 0,0 0,0 -1.1,0.6 -1.3,2.2 -0.5,3.6 0.8,1.4 2.3,2 3.3,1.4 0.1,-0.1 0.2,-0.2 0.3,-0.2 l -3.1,-4.8 z"
         stroke-miterlimit="10" /><circle
         style="fill:#ffffff;stroke:#000000;stroke-width:1.5;stroke-miterlimit:10"
         id="circle97"
         r="3.8"
         cy="96.099998"
         cx="111.3"
         stroke-miterlimit="10" /></g></g><g
     id="black_horse"
     transform="translate(11.38108,-7.5544189)"><circle
       style="color:#000000;display:inline;overflow:visible;visibility:visible;opacity:1;fill:#000000;fill-opacity:1;fill-rule:nonzero;stroke:#000000;stroke-width:3.45000005;stroke-linecap:round;stroke-linejoin:miter;stroke-miterlimit:10;stroke-dasharray:none;stroke-dashoffset:0;stroke-opacity:1;marker:none;enable-background:accumulate"
       id="circle4364"
       cx="229.54231"
       cy="83.08519"
       r="73.805771" /><g
       transform="translate(-0.26573963,-6.4568462)"
       id="g4681"><g
         id="g109"
         transform="translate(5.942307,-25.3648)"><path
           inkscape:connector-curvature="0"
           id="path111"
           d="m 218.9,66.4 -8.4,2.4 5.1,17.4 -10,-14.5 -7.2,5 11.1,16.1 1.3,-1.2 c 1.3,-1.3 2.8,-2.5 4.3,-3.6 l 1.2,-0.9 -0.2,-0.3 1.5,-0.9 c 1.6,-1 3.3,-1.8 5,-2.6 l 1.2,-0.5 -4.9,-16.4 z" /><path
           inkscape:connector-curvature="0"
           id="path113"
           d="m 189.2,86.9 14.7,14 1,-1.6 c 0.9,-1.6 2,-3.1 3.2,-4.6 l 0.9,-1.1 -13.7,-13 -6.1,6.3 z" /><path
           inkscape:connector-curvature="0"
           id="path115"
           d="m 181.9,99.4 17.9,9.7 -19.1,-2.5 -1.1,8.7 19.6,2.5 0.2,-1.5 c 0.3,-1.9 0.7,-3.8 1.1,-5.5 l 0.4,-1.6 -0.2,0 0.4,-1.4 c 0.6,-1.8 1.3,-3.5 2,-5.2 l 0.6,-1.3 -17.8,-9.6 -4,7.7 z" /><polygon
           id="polygon117"
           points="179,119.1 179,127.8 198.4,127.8 199.3,119.1 " /><polygon
           id="polygon119"
           points="179.3,130.1 179.3,138.8 197.5,138.8 198.4,130.1 " /><polygon
           id="polygon121"
           points="179,140.9 179,149.6 197.2,149.6 198.1,140.9 " /></g><g
         transform="translate(5.942307,-25.3648)"
         id="g4639"
         style="stroke:#ffffff;stroke-width:1.5;stroke-miterlimit:4;stroke-dasharray:none;stroke-opacity:1"><path
           d="m 218.9,66.4 -8.4,2.4 5.1,17.4 -10,-14.5 -7.2,5 11.1,16.1 1.3,-1.2 c 1.3,-1.3 2.8,-2.5 4.3,-3.6 l 1.2,-0.9 -0.2,-0.3 1.5,-0.9 c 1.6,-1 3.3,-1.8 5,-2.6 l 1.2,-0.5 -4.9,-16.4 z"
           id="path4641"
           inkscape:connector-curvature="0"
           style="stroke:#ffffff;stroke-width:1.5;stroke-miterlimit:4;stroke-dasharray:none;stroke-opacity:1" /><path
           d="m 189.2,86.9 14.7,14 1,-1.6 c 0.9,-1.6 2,-3.1 3.2,-4.6 l 0.9,-1.1 -13.7,-13 -6.1,6.3 z"
           id="path4643"
           inkscape:connector-curvature="0"
           style="stroke:#ffffff;stroke-width:1.5;stroke-miterlimit:4;stroke-dasharray:none;stroke-opacity:1" /><path
           d="m 181.9,99.4 17.9,9.7 -19.1,-2.5 -1.1,8.7 19.6,2.5 0.2,-1.5 c 0.3,-1.9 0.7,-3.8 1.1,-5.5 l 0.4,-1.6 -0.2,0 0.4,-1.4 c 0.6,-1.8 1.3,-3.5 2,-5.2 l 0.6,-1.3 -17.8,-9.6 -4,7.7 z"
           id="path4645"
           inkscape:connector-curvature="0"
           style="stroke:#ffffff;stroke-width:1.5;stroke-miterlimit:4;stroke-dasharray:none;stroke-opacity:1" /><polygon
           points="179,119.1 179,127.8 198.4,127.8 199.3,119.1 "
           id="polygon4647"
           style="stroke:#ffffff;stroke-width:1.5;stroke-miterlimit:4;stroke-dasharray:none;stroke-opacity:1" /><polygon
           points="179.3,130.1 179.3,138.8 197.5,138.8 198.4,130.1 "
           id="polygon4649"
           style="stroke:#ffffff;stroke-width:1.5;stroke-miterlimit:4;stroke-dasharray:none;stroke-opacity:1" /><polygon
           points="179,140.9 179,149.6 197.2,149.6 198.1,140.9 "
           id="polygon4651"
           style="stroke:#ffffff;stroke-width:1.5;stroke-miterlimit:4;stroke-dasharray:none;stroke-opacity:1" /></g><path
         d="m 250.04231,56.9352 -3,-18.5 -6.5,14.5 c 0,0 -32,2.5 -36.5,38 l -0.2,0.2 -2.3,40.1 45.9,0 0,-8.9 c 0,0 -15.3,-19.3 -15.3,-35.8 0,0 4.5,7.5 14.8,7.3 0,0 4.7,15.9 18.5,10 6.7,-2.8 7,-8.5 7,-8.5 l -22.4,-38.4 z"
         id="path105"
         inkscape:connector-curvature="0"
         style="fill:#ffffff" /><path
         style="fill:#000000"
         d="m 249.04231,132.8352 -49,0 2.4,-42.1 0.2,-0.3 c 4.3,-32.6 31.6,-38.1 36.9,-38.8 l 8.2,-18.3 3.8,23.2 22.6,38.7 0,0.5 c 0,0.3 -0.5,6.6 -7.9,9.8 -2.2,0.9 -4.4,1.4 -6.4,1.4 0,0 0,0 0,0 -8.6,0 -12.6,-8.3 -13.7,-11.3 -5.6,-0.1 -9.4,-2.4 -11.9,-4.5 2.2,14.7 14.5,30.4 14.6,30.5 l 0.3,0.4 0,10.8 z m -45.9,-3 42.8,0 0,-6.8 c -2.3,-3 -15.3,-20.6 -15.3,-36.3 l 0,-5.4 2.8,4.6 c 0.2,0.3 4.3,6.7 13.4,6.5 l 1.1,0 0.3,1.1 c 0,0.1 3.2,10.2 11.2,10.2 0,0 0,0 0,0 1.6,0 3.4,-0.4 5.2,-1.2 4.8,-2 5.8,-5.6 6,-6.8 l -22.4,-38.3 -1.9,-13.8 -4.8,10.7 -0.9,0.1 c -1.3,0.1 -30.8,2.9 -35.1,36.7 l 0,0.4 -0.1,0.2 -2.3,38.1 z"
         id="path107"
         inkscape:connector-curvature="0" /><path
         style="fill:#ffffff;stroke:#000000;stroke-width:2;stroke-miterlimit:4;stroke-dasharray:none;stroke-opacity:1"
         inkscape:connector-curvature="0"
         id="path4677"
         d="m 250.042,56.9352 -3,-18.5 -6.5,14.5 c 0,0 -32,2.5 -36.5,38 l -0.2,0.2 -2.3,40.1 45.9,0 0,-8.9 c 0,0 -15.3,-19.3 -15.3,-35.8 0,0 4.5,7.5 14.8,7.3 0,0 4.7,15.9 18.5,10 6.7,-2.8 7,-8.5 7,-8.5 l -22.4,-38.4 z" /><path
         inkscape:connector-curvature="0"
         id="path123"
         d="m 266.74231,91.1352 c -0.74957,0.39932 -1.06904,1.3214 -0.9742,2.1307 0.13043,1.3488 1.05895,2.6594 2.39169,3.03607 0.50195,0.12673 1.06932,0.0704 1.49773,-0.23595 0.35642,-0.1227 -0.0893,-0.48047 -0.17153,-0.68241 -0.91455,-1.41614 -1.82926,-2.83223 -2.74369,-4.24841 z"
         style="fill:#000000;stroke:#000000;stroke-width:1;stroke-miterlimit:10;stroke-dasharray:none" /><circle
         id="circle125"
         r="3.8"
         cy="70.735199"
         cx="248.74231" /></g></g><g
     id="red_cannon"
     transform="translate(36.98058,-7.5544189)"><circle
       r="73.805771"
       cy="83.08519"
       cx="369.33548"
       id="circle4384"
       style="color:#000000;display:inline;overflow:visible;visibility:visible;opacity:1;fill:#ffffff;fill-opacity:1;fill-rule:nonzero;stroke:#000000;stroke-width:3.45000005;stroke-linecap:round;stroke-linejoin:miter;stroke-miterlimit:10;stroke-dasharray:none;stroke-dashoffset:0;stroke-opacity:1;marker:none;enable-background:accumulate" /><g
       transform="translate(13.776133,-38.85179)"
       id="g45"><path
         style="stroke:#000000;stroke-width:3;stroke-miterlimit:10"
         inkscape:connector-curvature="0"
         id="path47"
         d="m 406.2606,90.309103 -97.4,4.6 c 0,0 -9.6,7.499997 -7.1,24.999997 0,0.1 0,0.2 0,0.4 0,0.1 0,0.2 0,0.4 2.3,17.5 13.6,22.2 13.6,22.2 l 94.8,-24.3 -1.4,-14.1 -2.5,-14.199997 z"
         stroke-miterlimit="10" /><path
         style="fill:#ffffff;stroke:#000000;stroke-width:3;stroke-miterlimit:10"
         inkscape:connector-curvature="0"
         id="path49"
         d="m 363.3606,147.2091 c -7.1,-0.1 -8,-8.7 -8,-14.4 0,0 2.6,-15.9 -10.2,-17 l 0,-1.7 c 0,0 0,1.7 -0.1,1.7 -0.6,0 -1.1,-1.8 -1.7,-1.8 l 0,1.8 c -12.7,1.1 -10.2,17 -10.2,17 -0.1,5.7 -0.7,14.3 -8,14.4 l -17.2,0 0,10.3 72.5,-0.1 0,-10.2 -17.1,0 z"
         stroke-miterlimit="10" /><circle
         style="stroke:#000000;stroke-width:3;stroke-miterlimit:10"
         id="circle51"
         r="3.7"
         cy="126.8091"
         cx="344.16058"
         stroke-miterlimit="10" /><circle
         style="stroke:#000000;stroke-width:3;stroke-miterlimit:10"
         id="circle53"
         r="3.7"
         cy="120.5091"
         cx="300.16058"
         stroke-miterlimit="10" /></g></g><g
     id="black_cannon"
     transform="translate(62.579759,-7.5544189)"><circle
       r="73.805771"
       cy="83.08519"
       cx="509.12891"
       id="circle4362"
       style="color:#000000;display:inline;overflow:visible;visibility:visible;opacity:1;fill:#000000;fill-opacity:1;fill-rule:nonzero;stroke:#000000;stroke-width:3.45000005;stroke-linecap:round;stroke-linejoin:miter;stroke-miterlimit:10;stroke-dasharray:none;stroke-dashoffset:0;stroke-opacity:1;marker:none;enable-background:accumulate" /><g
       id="g5060"><path
         style="fill:#ffffff;stroke:#000000;stroke-width:3;stroke-miterlimit:10"
         inkscape:connector-curvature="0"
         id="path59"
         d="m 562.63086,65.048379 -2.4,-14.1 -97.4,4.6 c 0,0 -8.5,6.7 -7.4,22.1 -0.4,-0.1 -0.8,-0.2 -1.2,-0.2 -2,0 -3.7,1.6 -3.7,3.7 0,2 1.6,3.7 3.7,3.7 0.8,0 1.5,-0.3 2.1,-0.7 3.1,15.2 13.1,19.400001 13.1,19.400001 l 94.8,-24.300001 -1.6,-14.2 z"
         stroke-miterlimit="10" /><path
         style="stroke:#000000;stroke-width:3;stroke-miterlimit:10"
         inkscape:connector-curvature="0"
         id="path61"
         d="m 517.33086,107.84838 c -7.1,-0.1 -8,-8.700001 -8,-14.400001 0,0 2.6,-15.9 -10.2,-17 0,0 0,0 -0.1,0 -0.6,0 -1.7,0.1 -1.7,0.1 -12.7,1.1 -10.2,17 -10.2,17 -0.1,5.7 -0.7,14.300001 -8,14.400001 l -17.2,0 0,10.2 72.5,-0.1 0,-10.2 -17.1,0 z"
         stroke-miterlimit="10" /><path
         style="color:#000000;font-style:normal;font-variant:normal;font-weight:normal;font-stretch:normal;font-size:medium;line-height:normal;font-family:sans-serif;text-indent:0;text-align:start;text-decoration:none;text-decoration-line:none;text-decoration-style:solid;text-decoration-color:#000000;letter-spacing:normal;word-spacing:normal;text-transform:none;direction:ltr;block-progression:tb;writing-mode:lr-tb;baseline-shift:baseline;text-anchor:start;white-space:normal;clip-rule:nonzero;display:inline;overflow:visible;visibility:visible;opacity:1;isolation:auto;mix-blend-mode:normal;color-interpolation:sRGB;color-interpolation-filters:linearRGB;solid-color:#000000;solid-opacity:1;fill:none;fill-opacity:1;fill-rule:nonzero;stroke:#ffffff;stroke-width:2;stroke-linecap:butt;stroke-linejoin:miter;stroke-miterlimit:10;stroke-dasharray:none;stroke-dashoffset:0;stroke-opacity:1;color-rendering:auto;image-rendering:auto;shape-rendering:auto;text-rendering:auto;enable-background:accumulate"
         d="m 498.96456,74.913218 c -0.76423,0 -1.82331,0.1048 -1.83008,0.10547 -3.48871,0.30217 -6.12117,1.68472 -7.91406,3.58594 -1.79288,1.90122 -2.75719,4.24771 -3.2793,6.47852 -0.99777,4.26323 -0.43258,8.076267 -0.3789,8.425777 -0.0499,2.80693 -0.25456,6.242454 -1.20313,8.779315 -0.47541,1.27146 -1.11746,2.29176 -1.94336,2.98437 -0.8259,0.69261 -1.8422,1.11966 -3.37304,1.14063 l -18.67774,0 0,13.20117 75.5,-0.10352 0,-13.19726 -18.58007,0 c -1.47272,-0.0208 -2.47053,-0.44336 -3.30079,-1.14063 -0.83025,-0.69727 -1.49135,-1.72786 -1.98437,-3.00195 -0.98496,-2.545401 -1.23578,-5.978575 -1.23633,-8.748065 0.055,-0.34385 0.64854,-4.165347 -0.33789,-8.435547 -0.51574,-2.23261 -1.47807,-4.58213 -3.27734,-6.48437 -1.79928,-1.90224 -4.44363,-3.28222 -7.95508,-3.58399 l -0.0645,-0.006 -0.16406,0 z"
         id="path5004"
         inkscape:connector-curvature="0"
         sodipodi:nodetypes="ccsscssccccccsscsscccc" /><circle
         style="fill:#ffffff;stroke:#ffffff;stroke-miterlimit:10"
         id="circle63"
         r="3.7"
         cy="87.44838"
         cx="498.13083"
         stroke-miterlimit="10" /></g></g><g
     id="red_elephant"
     transform="translate(-14.218329,9.7251513)"><circle
       style="color:#000000;display:inline;overflow:visible;visibility:visible;opacity:1;fill:#ffffff;fill-opacity:1;fill-rule:nonzero;stroke:#000000;stroke-width:3.45000005;stroke-linecap:round;stroke-linejoin:miter;stroke-miterlimit:10;stroke-dasharray:none;stroke-dashoffset:0;stroke-opacity:1;marker:none;enable-background:accumulate"
       id="circle4374"
       cx="89.749069"
       cy="227.10213"
       r="73.805771" /><g
       transform="translate(176.19837,-2.3590429)"
       id="g4525"><path
         stroke-miterlimit="10"
         d="m -60.464451,270.11117 c -11.4,-3.2 -20.1,-20.6 -21.7,-25.9 -0.4,-1.2 -0.6,-1.4 -0.7,-2.3 -3.9,-2.1 -7,0.8 -8.5,2.3 -0.3,0.3 -1.7,2.8 -1.6,2.7 1.7,3.7 5.6,13.3 13.1,19.8 6.2,5.4 14.1,7.7 18.3,7.7 2,0 3.6,-0.2 3.6,-0.2 l 8.4,-2.2 c 0,0 -7,-0.9 -10.9,-1.9 z"
         id="path4491"
         inkscape:connector-curvature="0"
         style="fill:#ffffff;fill-opacity:1;stroke:#000000;stroke-width:2;stroke-miterlimit:10;stroke-opacity:1" /><path
         sodipodi:nodetypes="ccccsccsccsccscscccccccccccccccccscc"
         stroke-miterlimit="10"
         d="m -35.864451,233.21117 c -3.2,-7.2 -9,-16.9 -9,-16.9 l -5.6,12.1 c 0.4,0.8 1.3,2.5 2.9,5.6 7.1,13.7 -0.2,19.5 -3.8,19.5 -8.7,0 -10.2,-11.6 -10.6,-12.7 -0.1,-0.8 -0.6,-4.3 -1.1,-8.7 0,0 -1.2,-7.9 -1.2,-13.1 0,-7.1 -2,-15.3 -2,-15.7 l -0.1,-0.3 c -6.3,-14.9 -16.1,-18 -23.2,-18 -9.6,0 -18.199999,5.6 -20.799999,8.4 l -0.1,0.1 c -0.9,-0.4 -2.2,-0.8 -3.4,-0.8 -7.3,0 -13.1,2.4 -17.5,7 -8.5,9 -8,23.2 -8,23.7 l 0,31 45.899999,17.1 0,-20.2 0,-1.1 0,0 c 0,0 -0.3,-3.6 1.1,-5.7 0.1,-0.1 0.1,-0.2 0.1,-0.2 l 0,0 c 0.1,-0.2 0.3,-0.4 0.5,-0.5 1.9,-1.7 10.1,-5 14.1,-1.4 l 0,0 0,0 c 0.4,0.4 0.81881,0.7396 1,1.2 l -0.1,0 0.1,0.1 c 0,0 1.5,3.7 2.6,5.6 2.9,5.5 4.2,8.2 7.3,11.2 3.2,3 8.7,5.3 14.9,5.3 6,0 12.1,-4.4 15.4,-10.4 3.5,-6.3 4.1,-14.2 0.6,-22.2 z"
         id="path4493"
         inkscape:connector-curvature="0"
         style="fill:#000000;fill-opacity:1;stroke:#000000;stroke-width:3;stroke-miterlimit:10;stroke-dasharray:none;stroke-opacity:1" /><circle
         style="fill:#ffffff;fill-opacity:1;stroke:#000000;stroke-width:1.5;stroke-miterlimit:10;stroke-dasharray:none;stroke-opacity:1"
         id="circle4495"
         r="3.8"
         cy="220.01117"
         cx="-78.164444"
         stroke-miterlimit="10" /></g></g><g
     id="black_elephant"
     transform="translate(11.38108,9.7251513)"><circle
       r="73.805771"
       cy="227.10213"
       cx="229.54231"
       id="circle4366"
       style="color:#000000;display:inline;overflow:visible;visibility:visible;opacity:1;fill:#000000;fill-opacity:1;fill-rule:nonzero;stroke:#000000;stroke-width:3.45000005;stroke-linecap:round;stroke-linejoin:miter;stroke-miterlimit:10;stroke-dasharray:none;stroke-dashoffset:0;stroke-opacity:1;marker:none;enable-background:accumulate" /><g
       id="g3484"><path
         style="fill:#000000;fill-opacity:1;stroke:#000000;stroke-width:2;stroke-miterlimit:10;stroke-opacity:1"
         inkscape:connector-curvature="0"
         id="path25"
         d="m 255.52716,267.75213 c -11.4,-3.2 -20.1,-20.6 -21.7,-25.9 -0.4,-1.2 -0.6,-1.4 -0.7,-2.3 -3.9,-2.1 -7,0.8 -8.5,2.3 -0.3,0.3 -1.7,2.8 -1.6,2.7 1.7,3.7 5.6,13.3 13.1,19.8 6.2,5.4 14.1,7.7 18.3,7.7 2,0 3.6,-0.2 3.6,-0.2 l 8.4,-2.2 c 0,0 -7,-0.9 -10.9,-1.9 z"
         stroke-miterlimit="10" /><path
         style="fill:#ffffff;fill-opacity:1;stroke:#ffffff;stroke-width:0.5;stroke-miterlimit:10;stroke-dasharray:none;stroke-opacity:1"
         inkscape:connector-curvature="0"
         id="path19"
         d="m 280.12716,230.85213 c -3.2,-7.2 -9,-16.9 -9,-16.9 l -5.6,12.1 c 0.4,0.8 1.3,2.5 2.9,5.6 7.1,13.7 -0.2,19.5 -3.8,19.5 -8.7,0 -10.2,-11.6 -10.6,-12.7 -0.1,-0.8 -0.6,-4.3 -1.1,-8.7 0,0 -1.2,-7.9 -1.2,-13.1 0,-7.1 -2,-15.3 -2,-15.7 l -0.1,-0.3 c -6.3,-14.9 -16.1,-18 -23.2,-18 -9.6,0 -18.2,5.6 -20.8,8.4 l -0.1,0.1 c -0.9,-0.4 -2.2,-0.8 -3.4,-0.8 -7.3,0 -13.1,2.4 -17.5,7 -8.5,9 -8,23.2 -8,23.7 l 0,31 45.9,17.1 0,-20.2 0,-1.1 0,0 c 0,0 -0.3,-3.6 1.1,-5.7 0.1,-0.1 0.1,-0.2 0.1,-0.2 l 0,0 c 0.1,-0.2 0.3,-0.4 0.5,-0.5 1.9,-1.7 10.1,-5 14.1,-1.4 l 0,0 0,0 c 0.4,0.4 0.81881,0.7396 1,1.2 -0.52253,-0.96998 0,0.055 0,0.1 0,0 1.5,3.7 2.6,5.6 2.9,5.5 4.2,8.2 7.3,11.2 3.2,3 8.7,5.3 14.9,5.3 6,0 12.1,-4.4 15.4,-10.4 3.5,-6.3 4.1,-14.2 0.6,-22.2 z"
         stroke-miterlimit="10"
         sodipodi:nodetypes="ccccsccsccsccscsccccccccccccccccscc" /><circle
         stroke-miterlimit="10"
         cx="237.82716"
         cy="217.65213"
         r="3.8"
         id="circle31"
         style="fill:#000000;fill-opacity:1;stroke:none;stroke-width:2;stroke-miterlimit:10" /><path
         stroke-miterlimit="10"
         d="m 255.40043,267.75213 c -11.4,-3.2 -20.1,-20.6 -21.7,-25.9 -1.98988,-5.54377 -0.751,-8.56862 -3.73861,-6.37514 -2.05625,1.50968 -7.27616,0.26022 -8.75625,4.72771 -0.12881,0.40424 -0.0526,0.89912 1.69486,4.34743 1.7,3.7 5.6,13.3 13.1,19.8 6.2,5.4 14.1,7.7 18.3,7.7 2,0 3.6,-0.2 3.6,-0.2 l 8.4,-2.2 c 0,0 -7,-0.9 -10.9,-1.9 z"
         id="path4551"
         inkscape:connector-curvature="0"
         style="fill:none;fill-opacity:1;stroke:#ffffff;stroke-width:2;stroke-miterlimit:10;stroke-opacity:1"
         sodipodi:nodetypes="ccscccsccc" /></g></g><g
     id="red_king"
     transform="translate(61.050709,27.131416)"><circle
       style="color:#000000;display:inline;overflow:visible;visibility:visible;opacity:1;fill:#ffffff;fill-opacity:1;fill-rule:nonzero;stroke:#000000;stroke-width:3.45000005;stroke-linecap:round;stroke-linejoin:miter;stroke-miterlimit:10;stroke-dasharray:none;stroke-dashoffset:0;stroke-opacity:1;marker:none;enable-background:accumulate"
       id="circle4382"
       cx="345.26535"
       cy="209.69586"
       r="73.805771" /><g
       transform="translate(-24.112603,-26.763732)"
       id="g4452"><path
         style="fill:#ffffff;stroke:#000000;stroke-width:3;stroke-miterlimit:10"
         inkscape:connector-curvature="0"
         id="path189"
         d="m 363.70732,211.82538 5.8,5.8 5.1,-5.9 c 0,0 0,0 0,0 l 0,-9.3 6.2,0 0,-10.7 -6.2,0 0,-7.5 -5.5,0 -0.1,0 -5.5,0 0,7.5 -6.2,0 0,10.7 6.2,0 0,9.4 z"
         stroke-miterlimit="10" /><polygon
         style="fill:#ffffff;stroke:#000000;stroke-width:3;stroke-miterlimit:10"
         id="polygon191"
         points="308.2,264.1 313.3,264.1 374.4,264.1 379.5,264.1 379.5,274.8 343.9,274.8 343.8,274.8 308.2,274.8 "
         stroke-miterlimit="10"
         transform="translate(25.607323,7.4253866)" /><path
         style="stroke:#000000;stroke-width:3.22609353;stroke-miterlimit:10"
         inkscape:connector-curvature="0"
         id="path193"
         d="m 404.91525,271.42143 6.72937,-13.15645 c 0.58011,-1.09638 1.16024,-2.29243 1.74035,-3.38879 l 0.81217,-1.79406 c 0.46409,-0.99671 0.81216,-2.09308 1.16024,-3.08978 6.96141,-20.03369 0.11602,-39.46937 -15.1991,-43.45616 -8.00563,-2.09308 -16.82343,0.49834 -24.36496,6.17955 l -5.9172,5.88052 -6.8454,-5.88052 c -7.54153,-5.68121 -16.35933,-8.27263 -24.36496,-6.17955 -15.43113,3.98679 -22.27653,23.42247 -15.19909,43.45616 0.34807,1.09638 0.81216,2.09307 1.16024,3.08978 l 0.81216,1.79406 c 0.58012,1.19604 1.16024,2.29241 1.74036,3.38879 l 6.72936,13.15645 71.00646,0 z"
         stroke-miterlimit="10" /><path
         style="stroke:#ffffff;stroke-width:3.22609353;stroke-miterlimit:10"
         inkscape:connector-curvature="0"
         id="path195"
         d="m 396.90961,274.21219 5.22108,-10.16635 c 0.46409,-0.89703 0.92818,-1.79406 1.39228,-2.69109 l 0.58011,-1.39539 c 0.34808,-0.79736 0.69614,-1.59472 0.92819,-2.39208 5.45312,-15.44887 0.11602,-30.49905 -11.83441,-33.58883 -6.14925,-1.59472 -12.99464,0.39868 -18.79583,4.78417 l -4.64094,4.58483 -5.33707,-4.58483 c -5.80119,-4.38549 -12.64659,-6.37889 -18.79584,-4.78417 -11.95044,3.08978 -17.17149,18.13996 -11.83441,33.58883 0.23205,0.79736 0.58012,1.59472 0.92819,2.39208 l 0.58012,1.39539 c 0.46409,0.89703 0.92818,1.79406 1.39228,2.69109 l 5.22107,10.16635 54.99518,0 z"
         stroke-miterlimit="10" /><rect
         id="rect197"
         height="5.2999492"
         width="5.2999492"
         transform="matrix(0.70710678,-0.70710678,0.70710678,0.70710678,0,0)"
         y="444.45612"
         x="53.240402" /><rect
         id="rect199"
         height="5.2999492"
         width="5.2999492"
         transform="matrix(0.70710678,-0.70710678,0.70710678,0.70710678,0,0)"
         y="454.19199"
         x="62.907513" /><rect
         id="rect201"
         height="5.2999492"
         width="5.2999492"
         transform="matrix(0.70710678,-0.70710678,0.70710678,0.70710678,0,0)"
         y="463.93259"
         x="72.67099" /></g></g><g
     id="black_king"
     transform="translate(86.649919,27.131416)"><circle
       r="73.805771"
       cy="209.69586"
       cx="485.05875"
       id="path4358"
       style="color:#000000;display:inline;overflow:visible;visibility:visible;opacity:1;fill:#000000;fill-opacity:1;fill-rule:nonzero;stroke:#000000;stroke-width:3.45000005;stroke-linecap:round;stroke-linejoin:miter;stroke-miterlimit:10;stroke-dasharray:none;stroke-dashoffset:0;stroke-opacity:1;marker:none;enable-background:accumulate" /><g
       transform="translate(-24.070133,-16.154256)"
       id="g4807"><path
         style="stroke:#ffffff;stroke-width:3;stroke-miterlimit:10;stroke-dasharray:none;stroke-opacity:1"
         d="m 501.96226,172.10212 0,7.5 -6.73687,0 0,13.69922 6.73687,0 0,24.3096 c 6.99797,0 7.23674,0.0202 14.09961,0.0202 l 0,-24.32981 6.38039,0 0,-13.69922 -6.48,0 0,-7.5 z"
         id="path7"
         inkscape:connector-curvature="0"
         sodipodi:nodetypes="ccccccccccccc" /><g
         id="g203"
         transform="translate(36.95825,0.73587757)"><path
           stroke-miterlimit="10"
           d="m 507.77382,260.07597 6.73049,-13.1564 c 0.58021,-1.09637 1.16042,-2.29241 1.74063,-3.38878 l 0.81231,-1.79406 c 0.46416,-0.99669 0.81229,-2.09306 1.16043,-3.08975 6.96256,-20.03362 0.11604,-39.46923 -15.20162,-43.45601 -8.00695,-2.09307 -16.82621,0.49835 -24.36899,6.17952 l -5.91819,5.88052 -6.84653,-5.88052 c -7.54279,-5.68117 -16.36204,-8.27259 -24.369,-6.17952 -15.4337,3.98678 -22.28023,23.42239 -15.20161,43.45601 0.34813,1.09636 0.8123,2.09306 1.16043,3.08975 l 0.81229,1.79406 c 0.58022,1.19604 1.16044,2.29241 1.74065,3.38878 l 6.73048,13.1564 71.01823,0 z"
           id="path205"
           inkscape:connector-curvature="0"
           style="fill:#ffffff;stroke:#000000;stroke-width:3.2263546;stroke-miterlimit:10" /><path
           stroke-miterlimit="10"
           d="m 499.76686,262.86672 5.22193,-10.16631 c 0.46417,-0.89703 0.92834,-1.79405 1.39251,-2.69109 l 0.58021,-1.39537 c 0.34814,-0.79736 0.69627,-1.59471 0.92835,-2.39207 5.45402,-15.44881 0.11604,-30.49895 -11.83637,-33.5887 -6.15027,-1.59472 -12.9968,0.39868 -18.79894,4.78414 l -4.64172,4.58481 -5.33797,-4.58481 c -5.80214,-4.38546 -12.64867,-6.37886 -18.79893,-4.78414 -11.95242,3.08975 -17.17435,18.13989 -11.83638,33.5887 0.23209,0.79736 0.58021,1.59471 0.92835,2.39207 l 0.58021,1.39537 c 0.46417,0.89704 0.92834,1.79406 1.39252,2.69109 l 5.22193,10.16631 55.0043,0 z"
           id="path207"
           inkscape:connector-curvature="0"
           style="fill:#ffffff;stroke:#000000;stroke-width:3.2263546;stroke-miterlimit:10" /><polygon
           stroke-miterlimit="10"
           points="436.6,264.1 441.7,264.1 502.8,264.1 508,264.1 508,274.8 472.3,274.8 472.2,274.8 436.6,274.8 "
           id="polygon211"
           style="fill:#ffffff;stroke:#000000;stroke-width:3;stroke-miterlimit:10"
           transform="translate(0,-3.9199524)" /><rect
           x="133.94241"
           y="509.12762"
           transform="matrix(0.70710678,-0.70710678,0.70710678,0.70710678,0,0)"
           width="5.2999492"
           height="5.2999492"
           id="rect213" /><rect
           x="143.61272"
           y="518.85803"
           transform="matrix(0.70710678,-0.70710678,0.70710678,0.70710678,0,0)"
           width="5.2999492"
           height="5.2999492"
           id="rect215" /><rect
           x="153.37994"
           y="528.59393"
           transform="matrix(0.70710678,-0.70710678,0.70710678,0.70710678,0,0)"
           width="5.2999492"
           height="5.2999492"
           id="rect217" /></g></g></g><g
     id="red_advisor"
     transform="translate(9.8518086,44.410979)"><circle
       r="73.805771"
       cy="353.71283"
       cx="65.678932"
       id="circle4376"
       style="color:#000000;display:inline;overflow:visible;visibility:visible;opacity:1;fill:#ffffff;fill-opacity:1;fill-rule:nonzero;stroke:#000000;stroke-width:3.45000005;stroke-linecap:round;stroke-linejoin:miter;stroke-miterlimit:10;stroke-dasharray:none;stroke-dashoffset:0;stroke-opacity:1;marker:none;enable-background:accumulate" /><g
       transform="translate(-24.563339,5.2473634)"
       id="g65"><path
         sodipodi:nodetypes="ccccccccc"
         style="stroke:#000000;stroke-width:3;stroke-miterlimit:10"
         inkscape:connector-curvature="0"
         id="path67"
         d="m 123.6,302.3 c -11.9,3.3 -22.5,4.9 -34.1,4.9 -11.25335,-0.10988 -23.450962,-2.17116 -32.6,-4.7 -2.4,20.3 -4.4,40.4 -4.1,60.6 0,0 7.7,21 37.1,39.9 0,0 0.1,0.2 0.2,0.1 0.2,0.1 0.5,-0.3 0.5,-0.3 29.4,-19 37.1,-39.9 37.1,-39.9 0.2,-20.2 -1.7,-40.3 -4.1,-60.6 z"
         stroke-miterlimit="10" /><g
         id="g69"><line
           style="fill:none;stroke:#ffffff;stroke-width:3;stroke-miterlimit:10"
           id="line71"
           y2="364"
           x2="108.3"
           y1="327.70001"
           x1="72.099998"
           stroke-miterlimit="10" /><line
           style="fill:none;stroke:#ffffff;stroke-width:3;stroke-miterlimit:10"
           id="line73"
           y2="364"
           x2="72.099998"
           y1="327.70001"
           x1="108.3"
           stroke-miterlimit="10" /></g></g></g><g
     id="black_advisor"
     transform="translate(35.451224,44.410979)"><circle
       style="color:#000000;display:inline;overflow:visible;visibility:visible;opacity:1;fill:#000000;fill-opacity:1;fill-rule:nonzero;stroke:#000000;stroke-width:3.45000005;stroke-linecap:round;stroke-linejoin:miter;stroke-miterlimit:10;stroke-dasharray:none;stroke-dashoffset:0;stroke-opacity:1;marker:none;enable-background:accumulate"
       id="circle4368"
       cx="205.47217"
       cy="353.71283"
       r="73.805771" /><g
       transform="translate(-17.270095,4.7473634)"
       id="g137"><path
         sodipodi:nodetypes="ccccccccc"
         style="fill:#ffffff;stroke:#000000;stroke-width:3;stroke-miterlimit:10"
         inkscape:connector-curvature="0"
         id="path139"
         d="m 256.1,302.8 c -11.9,3.3 -22.5,4.9 -34.1,4.9 -11.25335,-0.10988 -23.45096,-2.17116 -32.6,-4.7 -2.4,20.3 -4.4,40.4 -4.1,60.6 0,0 7.7,21 37.1,39.9 0,0 0.1,0.2 0.2,0.1 0.2,0.1 0.5,-0.3 0.5,-0.3 29.4,-19 37.1,-39.9 37.1,-39.9 0.2,-20.2 -1.7,-40.3 -4.1,-60.6 z"
         stroke-miterlimit="10" /><g
         id="g141"><line
           style="fill:none;stroke:#000000;stroke-width:3;stroke-miterlimit:10"
           id="line143"
           y2="364.5"
           x2="240.8"
           y1="328.20001"
           x1="204.60001"
           stroke-miterlimit="10" /><line
           style="fill:none;stroke:#000000;stroke-width:3;stroke-miterlimit:10"
           id="line145"
           y2="364.5"
           x2="204.60001"
           y1="328.20001"
           x1="240.8"
           stroke-miterlimit="10" /></g></g></g><g
     id="red_pawn"
     transform="translate(36.98058,27.004729)"><circle
       r="73.805771"
       cy="371.11908"
       cx="369.33548"
       id="circle4380"
       style="color:#000000;display:inline;overflow:visible;visibility:visible;opacity:1;fill:#ffffff;fill-opacity:1;fill-rule:nonzero;stroke:#000000;stroke-width:3.45000005;stroke-linecap:round;stroke-linejoin:miter;stroke-miterlimit:10;stroke-dasharray:none;stroke-dashoffset:0;stroke-opacity:1;marker:none;enable-background:accumulate" /><g
       id="g4313"><path
         stroke-miterlimit="10"
         d="m 403.12882,388.91908 -0.2,-0.1 -23.9,-35.5 c 4.9,-3.2 8.1,-8.7 8.1,-14.9 0,-9.6 -7.6,-17.5 -17.2,-17.8 l -0.9,0 c -9.6,0.3 -17.2,8.2 -17.2,17.8 0,6.3 3.2,11.7 8.1,14.9 l -24,35.5 -0.2,0.1 c -1.9,3.1 -4.4,7.3 -4.5,11.5 0,4 1.5,13.5 9.6,17.9 1.4,1.3 5,2.5 9,3.3 l 39,0 c 4,-0.8 7.6,-2 9,-3.3 8.2,-4.4 9.7,-13.9 9.6,-17.9 0.1,-4.2 -2.4,-8.3 -4.3,-11.5 z"
         id="path155"
         inkscape:connector-curvature="0"
         style="stroke:#ffffff;stroke-width:3;stroke-miterlimit:10;stroke-opacity:1" /><path
         style="opacity:1;fill:#ffffff;stroke:none"
         d="m 356.11914,352.17773 c 0.5,0.5 1.20898,1.14688 1.70898,1.54688 l -0.71289,1.07227 24.69532,0 -0.68946,-1.08985 c 0.5,-0.4 1.20899,-1.0293 1.70899,-1.5293 l -26.71094,0 z"
         id="path161"
         inkscape:connector-curvature="0" /></g></g><g
     id="black_pawn"
     transform="translate(62.579759,27.004729)"><circle
       style="color:#000000;display:inline;overflow:visible;visibility:visible;opacity:1;fill:#000000;fill-opacity:1;fill-rule:nonzero;stroke:#000000;stroke-width:3.45000005;stroke-linecap:round;stroke-linejoin:miter;stroke-miterlimit:10;stroke-dasharray:none;stroke-dashoffset:0;stroke-opacity:1;marker:none;enable-background:accumulate"
       id="circle4360"
       cx="509.12891"
       cy="371.11908"
       r="73.805771" /><g
       transform="translate(-115.41568,-36.91865)"
       id="g4830"><path
         stroke-miterlimit="10"
         d="m 658.34232,425.83773 -0.2,-0.1 -23.9,-35.5 c 4.9,-3.2 8.1,-8.7 8.1,-14.9 0,-9.6 -7.6,-17.5 -17.2,-17.8 l -0.9,0 c -9.6,0.3 -17.2,8.2 -17.2,17.8 0,6.3 3.2,11.7 8.1,14.9 l -24,35.5 -0.2,0.1 c -1.9,3.1 -4.4,7.3 -4.5,11.5 0,4 1.5,13.5 9.6,17.9 1.4,1.3 5,2.5 9,3.3 l 39,0 c 4,-0.8 7.6,-2 9,-3.3 8.1,-4.4 9.7,-13.9 9.6,-17.9 0.1,-4.2 -2.3,-8.3 -4.3,-11.5 z"
         id="path151"
         inkscape:connector-curvature="0"
         style="fill:#ffffff;stroke:#000000;stroke-width:3;stroke-miterlimit:10" /><line
         stroke-miterlimit="10"
         x1="613.74231"
         y1="390.23776"
         x2="635.0423"
         y2="390.23776"
         id="line153"
         style="fill:none;stroke:#000000;stroke-width:3;stroke-miterlimit:10" /></g></g><g
     id="red_chariot"
     transform="translate(-14.218329,44.284291)"><circle
       style="color:#000000;display:inline;overflow:visible;visibility:visible;opacity:1;fill:#ffffff;fill-opacity:1;fill-rule:nonzero;stroke:#000000;stroke-width:3.45000005;stroke-linecap:round;stroke-linejoin:miter;stroke-miterlimit:10;stroke-dasharray:none;stroke-dashoffset:0;stroke-opacity:1;marker:none;enable-background:accumulate"
       id="circle4378"
       cx="89.749069"
       cy="515.13599"
       r="73.805771" /><g
       id="g3578"><polygon
         style="stroke:#000000;stroke-width:3;stroke-miterlimit:10"
         id="polygon175"
         points="97.6,441 86.7,441 86.7,449.1 81.5,449.1 81.5,449.1 76.7,449.1 76.7,441 65.7,441 65.7,449.1 56.8,449.1 56.8,441 46.1,441 46.1,461.8 46.1,461.8 53.2,475.9 53.2,523.7 46.1,523.7 46.1,533.5 81.9,533.5 81.9,533.5 117.3,533.5 117.3,523.7 110.2,523.7 110.2,475.9 117.3,461.7 117.3,461.7 117.3,441 106.6,441 106.6,449.1 97.6,449.1 "
         stroke-miterlimit="10"
         transform="translate(8.1490657,27.885986)" /><polygon
         style="fill:#ffffff;stroke:none"
         id="polygon179"
         points="118.8,460.3 44.6,460.3 44.6,462.1 45.1,463.3 118.2,463.3 118.8,462.1 "
         transform="translate(8.1490657,27.885986)" /><path
         transform="translate(8.1490657,27.885986)"
         style="fill:#ffffff;stroke:none"
         d="M 51.692188,476.24687 51.7,477.4 l 60,0 0.004,-1.15312 0.92734,-1.84688 -61.86875,0 z"
         id="polygon177"
         inkscape:connector-curvature="0"
         sodipodi:nodetypes="ccccccc" /><polygon
         style="fill:#ffffff;stroke:none"
         id="polygon185"
         points="44.6,522.2 44.6,525.2 118.8,525.2 118.8,522.2 51.7,522.2 51.7,522.2 "
         transform="translate(8.1490657,27.885986)" /><g
         id="edgekiller"
         style="fill:#ffffff;stroke:none"><path
           style="fill:#ffffff;stroke:none"
           d="m 131.02897,488.18599 -85.239731,0 0.260006,3 84.379725,0 c 0.6,-3 0,0 0.6,-3 z"
           id="polygon3556"
           inkscape:connector-curvature="0"
           sodipodi:nodetypes="ccccc" /><path
           style="fill:#ffffff;stroke:none"
           d="m 45.149138,549.84099 0,3.245 86.269182,0 0.73074,-3.245 c -28.99998,0 -57.99995,0 -86.999922,0 z"
           id="polygon3558"
           inkscape:connector-curvature="0"
           sodipodi:nodetypes="ccccc" /><path
           sodipodi:nodetypes="ccccc"
           inkscape:connector-curvature="0"
           id="path3569"
           d="m 43.060215,477.4 77.399565,0 c 0.81134,-3 0,0 0.81134,-3 l -78.668327,0 c 0.457422,3 0,0 0.457422,3 z"
           style="fill:#ffffff;stroke:none"
           transform="translate(8.1490657,27.885986)" /></g></g></g><g
     id="black_chariot"
     transform="translate(11.38108,44.284291)"><circle
       r="73.805771"
       cy="515.13599"
       cx="229.54231"
       id="circle4370"
       style="color:#000000;display:inline;overflow:visible;visibility:visible;opacity:1;fill:#000000;fill-opacity:1;fill-rule:nonzero;stroke:#000000;stroke-width:3.45000005;stroke-linecap:round;stroke-linejoin:miter;stroke-miterlimit:10;stroke-dasharray:none;stroke-dashoffset:0;stroke-opacity:1;marker:none;enable-background:accumulate" /><g
       transform="translate(10.792313,27.585986)"
       id="g163"><polygon
         style="fill:#ffffff;stroke:#000000;stroke-width:3;stroke-miterlimit:10"
         id="polygon165"
         points="202.8,441.4 202.8,449.4 193.8,449.4 193.8,441.4 183.1,441.4 183.1,462.1 183.1,462.1 190.2,476.2 190.2,524 183.1,524 183.1,533.8 218.9,533.8 218.9,533.8 254.4,533.8 254.4,524 247.3,524 247.3,476.2 253.8,463.2 254.4,462.1 254.4,441.3 243.7,441.3 243.7,449.4 234.7,449.4 234.7,441.3 223.7,441.3 223.7,449.4 218.5,449.4 218.5,449.4 213.7,449.4 213.7,441.4 "
         stroke-miterlimit="10" /><line
         style="fill:none;stroke:#000000;stroke-width:3;stroke-miterlimit:10"
         id="line167"
         y2="476.20001"
         x2="247.10001"
         y1="476.20001"
         x1="190.3"
         stroke-miterlimit="10" /><line
         style="fill:none;stroke:#000000;stroke-width:3;stroke-miterlimit:10"
         id="line169"
         y2="462.10001"
         x2="253.8"
         y1="462.10001"
         x1="182.5"
         stroke-miterlimit="10" /><line
         style="fill:none;stroke:#000000;stroke-width:3;stroke-miterlimit:10"
         id="line171"
         y2="524"
         x2="247.39999"
         y1="524"
         x1="190.10001"
         stroke-miterlimit="10" /></g></g></svg>