<?xml version="1.0" encoding="UTF-8" standalone="no"?>
<!-- Generator: Adobe Illustrator 18.0.0, SVG Export Plug-In . SVG Version: 6.00 Build 0)  -->

<svg
   xmlns:dc="http://purl.org/dc/elements/1.1/"
   xmlns:cc="http://creativecommons.org/ns#"
   xmlns:rdf="http://www.w3.org/1999/02/22-rdf-syntax-ns#"
   xmlns:svg="http://www.w3.org/2000/svg"
   xmlns="http://www.w3.org/2000/svg"
   xmlns:sodipodi="http://sodipodi.sourceforge.net/DTD/sodipodi-0.dtd"
   xmlns:inkscape="http://www.inkscape.org/namespaces/inkscape"
   version="1.1"
   id="Ebene_1"
   x="0px"
   y="0px"
   viewBox="0 0 131.35786 131.35786"
   enable-background="new 0 0 590 595"
   xml:space="preserve"
   inkscape:version="0.91 r13725"
   sodipodi:docname="black_king.svg"
   width="3.7072108cm"
   height="3.7072108cm"><metadata
     id="metadata223"><rdf:RDF><cc:Work
         rdf:about=""><dc:format>image/svg+xml</dc:format><dc:type
           rdf:resource="http://purl.org/dc/dcmitype/StillImage" /><dc:date>2015-05-20</dc:date><dc:creator><cc:Agent><dc:title>Jasmin Scharrer (original artwork, http://jasminscharrer.com/), Sebastian Pipping (post-processing, https://blog.hartwork.org/)</dc:title></cc:Agent></dc:creator><dc:subject><rdf:Bag><rdf:li>Chinese chess</rdf:li><rdf:li>Xiangqi</rdf:li><rdf:li>chess</rdf:li><rdf:li>board game</rdf:li><rdf:li>game</rdf:li></rdf:Bag></dc:subject><cc:license
           rdf:resource="http://creativecommons.org/licenses/by/4.0/" /><dc:title></dc:title></cc:Work></rdf:RDF></metadata><defs
     id="defs221" /><sodipodi:namedview
     pagecolor="#ffffff"
     bordercolor="#666666"
     borderopacity="1"
     objecttolerance="10"
     gridtolerance="10"
     guidetolerance="10"
     inkscape:pageopacity="0"
     inkscape:pageshadow="2"
     inkscape:window-width="1920"
     inkscape:window-height="1023"
     id="namedview219"
     showgrid="false"
     inkscape:zoom="6.3186168"
     inkscape:cx="65.678931"
     inkscape:cy="65.678931"
     inkscape:window-x="0"
     inkscape:window-y="0"
     inkscape:window-maximized="1"
     inkscape:current-layer="Ebene_1"
     inkscape:snap-bbox="false"
     fit-margin-top="0"
     fit-margin-left="0"
     fit-margin-right="0"
     fit-margin-bottom="0"
     units="cm"
     showguides="true" /><g
     id="black_king"
     transform="translate(-419.37984,-144.01693)"><circle
       r="64.178932"
       cy="209.69586"
       cx="485.05875"
       id="path4358"
       style="color:#000000;display:inline;overflow:visible;visibility:visible;opacity:1;fill:#000000;fill-opacity:1;fill-rule:nonzero;stroke:#000000;stroke-width:3;stroke-linecap:round;stroke-linejoin:miter;stroke-miterlimit:10;stroke-dasharray:none;stroke-dashoffset:0;stroke-opacity:1;marker:none;enable-background:accumulate" /><g
       transform="translate(-24.070133,-16.154256)"
       id="g4807"><path
         style="stroke:#ffffff;stroke-width:3;stroke-miterlimit:10;stroke-dasharray:none;stroke-opacity:1"
         d="m 501.96226,176.02208 0,7.5 -6.73687,0 0,13.69922 6.73687,0 0,24.3096 c 6.99797,0 7.23674,0.0202 14.09961,0.0202 l 0,-24.32981 6.38039,0 0,-13.69922 -6.48,0 0,-7.5 z"
         id="path7"
         inkscape:connector-curvature="0"
         sodipodi:nodetypes="ccccccccccccc" /><g
         id="g203"
         transform="translate(36.95825,0.73587757)"><path
           stroke-miterlimit="10"
           d="m 502.8,264.1 5.8,-13.2 c 0.5,-1.1 1,-2.3 1.5,-3.4 l 0.7,-1.8 c 0.4,-1 0.7,-2.1 1,-3.1 6,-20.1 0.1,-39.6 -13.1,-43.6 -6.9,-2.1 -14.5,0.5 -21,6.2 l -5.1,5.9 -5.9,-5.9 c -6.5,-5.7 -14.1,-8.3 -21,-6.2 -13.3,4 -19.2,23.5 -13.1,43.6 0.3,1.1 0.7,2.1 1,3.1 l 0.7,1.8 c 0.5,1.2 1,2.3 1.5,3.4 l 5.8,13.2 61.2,0 z"
           id="path205"
           inkscape:connector-curvature="0"
           style="fill:#ffffff;stroke:#000000;stroke-width:3;stroke-miterlimit:10" /><path
           stroke-miterlimit="10"
           d="m 495.9,266.9 4.5,-10.2 c 0.4,-0.9 0.8,-1.8 1.2,-2.7 l 0.5,-1.4 c 0.3,-0.8 0.6,-1.6 0.8,-2.4 4.7,-15.5 0.1,-30.6 -10.2,-33.7 -5.3,-1.6 -11.2,0.4 -16.2,4.8 l -4,4.6 -4.6,-4.6 c -5,-4.4 -10.9,-6.4 -16.2,-4.8 -10.3,3.1 -14.8,18.2 -10.2,33.7 0.2,0.8 0.5,1.6 0.8,2.4 l 0.5,1.4 c 0.4,0.9 0.8,1.8 1.2,2.7 l 4.5,10.2 47.4,0 z"
           id="path207"
           inkscape:connector-curvature="0"
           style="fill:#ffffff;stroke:#000000;stroke-width:3;stroke-miterlimit:10" /><polygon
           stroke-miterlimit="10"
           points="508,264.1 508,274.8 472.3,274.8 472.2,274.8 436.6,274.8 436.6,264.1 441.7,264.1 502.8,264.1 "
           id="polygon211"
           style="fill:#ffffff;stroke:#000000;stroke-width:3;stroke-miterlimit:10" /><rect
           x="455.79999"
           y="266.60001"
           transform="matrix(0.7071,-0.7071,0.7071,0.7071,-56.0898,402.9993)"
           width="5.3000002"
           height="5.3000002"
           id="rect213" /><rect
           x="469.5"
           y="266.60001"
           transform="matrix(0.7071,-0.7071,0.7071,0.7071,-52.0587,412.7291)"
           width="5.3000002"
           height="5.3000002"
           id="rect215" /><rect
           x="483.29999"
           y="266.60001"
           transform="matrix(0.7071,-0.7071,0.7071,0.7071,-48.0259,422.4649)"
           width="5.3000002"
           height="5.3000002"
           id="rect217" /></g></g></g></svg>