<?xml version="1.0" encoding="UTF-8" standalone="no"?>
<!-- Generator: Adobe Illustrator 18.0.0, SVG Export Plug-In . SVG Version: 6.00 Build 0)  -->

<svg
   xmlns:dc="http://purl.org/dc/elements/1.1/"
   xmlns:cc="http://creativecommons.org/ns#"
   xmlns:rdf="http://www.w3.org/1999/02/22-rdf-syntax-ns#"
   xmlns:svg="http://www.w3.org/2000/svg"
   xmlns="http://www.w3.org/2000/svg"
   xmlns:sodipodi="http://sodipodi.sourceforge.net/DTD/sodipodi-0.dtd"
   xmlns:inkscape="http://www.inkscape.org/namespaces/inkscape"
   version="1.1"
   id="Ebene_1"
   x="0px"
   y="0px"
   viewBox="0 0 131.35786 131.35786"
   enable-background="new 0 0 590 595"
   xml:space="preserve"
   inkscape:version="0.91 r13725"
   sodipodi:docname="black_king.svg"
   width="3.7072108cm"
   height="3.7072108cm"><metadata
     id="metadata223"><rdf:RDF><cc:Work
         rdf:about=""><dc:format>image/svg+xml</dc:format><dc:type
           rdf:resource="http://purl.org/dc/dcmitype/StillImage" /><dc:date>2015-05-20</dc:date><dc:creator><cc:Agent><dc:title>Jasmin Scharrer (original artwork, http://jasminscharrer.com/), Sebastian Pipping (post-processing, https://blog.hartwork.org/)</dc:title></cc:Agent></dc:creator><dc:subject><rdf:Bag><rdf:li>Chinese chess</rdf:li><rdf:li>Xiangqi</rdf:li><rdf:li>chess</rdf:li><rdf:li>board game</rdf:li><rdf:li>game</rdf:li></rdf:Bag></dc:subject><cc:license
           rdf:resource="http://creativecommons.org/licenses/by/4.0/" /><dc:title></dc:title></cc:Work></rdf:RDF></metadata><defs
     id="defs221" /><sodipodi:namedview
     pagecolor="#ffffff"
     bordercolor="#666666"
     borderopacity="1"
     objecttolerance="10"
     gridtolerance="10"
     guidetolerance="10"
     inkscape:pageopacity="0"
     inkscape:pageshadow="2"
     inkscape:window-width="1920"
     inkscape:window-height="1023"
     id="namedview219"
     showgrid="false"
     inkscape:zoom="6.3186168"
     inkscape:cx="65.678931"
     inkscape:cy="65.678931"
     inkscape:window-x="0"
     inkscape:window-y="0"
     inkscape:window-maximized="1"
     inkscape:current-layer="Ebene_1"
     inkscape:snap-bbox="false"
     fit-margin-top="0"
     fit-margin-left="0"
     fit-margin-right="0"
     fit-margin-bottom="0"
     units="cm"
     showguides="true" /><g
     id="red_king"
     transform="translate(-279.58645,-144.01693)"><circle
       style="color:#000000;display:inline;overflow:visible;visibility:visible;opacity:1;fill:#ffffff;fill-opacity:1;fill-rule:nonzero;stroke:#000000;stroke-width:3;stroke-linecap:round;stroke-linejoin:miter;stroke-miterlimit:10;stroke-dasharray:none;stroke-dashoffset:0;stroke-opacity:1;marker:none;enable-background:accumulate"
       id="circle4382"
       cx="345.26535"
       cy="209.69586"
       r="64.178932" /><g
       transform="translate(-24.112603,-26.763732)"
       id="g4452"><path
         style="fill:#ffffff;stroke:#000000;stroke-width:3;stroke-miterlimit:10"
         inkscape:connector-curvature="0"
         id="path189"
         d="m 363.70732,215.74534 5.8,5.8 5.1,-5.9 c 0,0 0,0 0,0 l 0,-9.3 6.2,0 0,-10.7 -6.2,0 0,-7.5 -5.5,0 -0.1,0 -5.5,0 0,7.5 -6.2,0 0,10.7 6.2,0 0,9.4 z"
         stroke-miterlimit="10" /><polygon
         style="fill:#ffffff;stroke:#000000;stroke-width:3;stroke-miterlimit:10"
         id="polygon191"
         points="379.5,274.8 343.9,274.8 343.8,274.8 308.2,274.8 308.2,264.1 313.3,264.1 374.4,264.1 379.5,264.1 "
         stroke-miterlimit="10"
         transform="translate(25.607323,11.345339)" /><path
         style="stroke:#000000;stroke-width:3;stroke-miterlimit:10"
         inkscape:connector-curvature="0"
         id="path193"
         d="m 400.00732,275.44534 5.8,-13.2 c 0.5,-1.1 1,-2.3 1.5,-3.4 l 0.7,-1.8 c 0.4,-1 0.7,-2.1 1,-3.1 6,-20.1 0.1,-39.6 -13.1,-43.6 -6.9,-2.1 -14.5,0.5 -21,6.2 l -5.1,5.9 -5.9,-5.9 c -6.5,-5.7 -14.1,-8.3 -21,-6.2 -13.3,4 -19.2,23.5 -13.1,43.6 0.3,1.1 0.7,2.1 1,3.1 l 0.7,1.8 c 0.5,1.2 1,2.3 1.5,3.4 l 5.8,13.2 61.2,0 z"
         stroke-miterlimit="10" /><path
         style="stroke:#ffffff;stroke-width:3;stroke-miterlimit:10"
         inkscape:connector-curvature="0"
         id="path195"
         d="m 393.10732,278.24534 4.5,-10.2 c 0.4,-0.9 0.8,-1.8 1.2,-2.7 l 0.5,-1.4 c 0.3,-0.8 0.6,-1.6 0.8,-2.4 4.7,-15.5 0.1,-30.6 -10.2,-33.7 -5.3,-1.6 -11.2,0.4 -16.2,4.8 l -4,4.6 -4.6,-4.6 c -5,-4.4 -10.9,-6.4 -16.2,-4.8 -10.3,3.1 -14.8,18.2 -10.2,33.7 0.2,0.8 0.5,1.6 0.8,2.4 l 0.5,1.4 c 0.4,0.9 0.8,1.8 1.2,2.7 l 4.5,10.2 47.4,0 z"
         stroke-miterlimit="10" /><rect
         id="rect197"
         height="5.2999492"
         width="5.2999492"
         transform="matrix(0.70710678,-0.70710678,0.70710678,0.70710678,0,0)"
         y="447.228"
         x="50.468582" /><rect
         id="rect199"
         height="5.2999492"
         width="5.2999492"
         transform="matrix(0.70710678,-0.70710678,0.70710678,0.70710678,0,0)"
         y="456.96387"
         x="60.135693" /><rect
         id="rect201"
         height="5.2999492"
         width="5.2999492"
         transform="matrix(0.70710678,-0.70710678,0.70710678,0.70710678,0,0)"
         y="466.70447"
         x="69.89917" /></g></g></svg>