<?xml version='1.0' encoding='ASCII' standalone='yes'?>
<svg xmlns="http://www.w3.org/2000/svg" version="1.1" width="509" viewbox="0 0 509 562" height="562">
  <g>
    <path d="M42.5 42.5 L42.5 519.5" stroke="black" stroke-width="1"/>
    <path d="M95.5 42.5 L95.5 254.5" stroke="black" stroke-width="1"/>
    <path d="M95.5 307.5 L95.5 519.5" stroke="black" stroke-width="1"/>
    <path d="M148.5 42.5 L148.5 254.5" stroke="black" stroke-width="1"/>
    <path d="M148.5 307.5 L148.5 519.5" stroke="black" stroke-width="1"/>
    <path d="M201.5 42.5 L201.5 254.5" stroke="black" stroke-width="1"/>
    <path d="M201.5 307.5 L201.5 519.5" stroke="black" stroke-width="1"/>
    <path d="M254.5 42.5 L254.5 254.5" stroke="black" stroke-width="1"/>
    <path d="M254.5 307.5 L254.5 519.5" stroke="black" stroke-width="1"/>
    <path d="M307.5 42.5 L307.5 254.5" stroke="black" stroke-width="1"/>
    <path d="M307.5 307.5 L307.5 519.5" stroke="black" stroke-width="1"/>
    <path d="M360.5 42.5 L360.5 254.5" stroke="black" stroke-width="1"/>
    <path d="M360.5 307.5 L360.5 519.5" stroke="black" stroke-width="1"/>
    <path d="M413.5 42.5 L413.5 254.5" stroke="black" stroke-width="1"/>
    <path d="M413.5 307.5 L413.5 519.5" stroke="black" stroke-width="1"/>
    <path d="M466.5 42.5 L466.5 519.5" stroke="black" stroke-width="1"/>
    <path d="M42.5 42.5 L466.5 42.5" stroke="black" stroke-width="1"/>
    <path d="M42.5 95.5 L466.5 95.5" stroke="black" stroke-width="1"/>
    <path d="M42.5 148.5 L466.5 148.5" stroke="black" stroke-width="1"/>
    <path d="M42.5 201.5 L466.5 201.5" stroke="black" stroke-width="1"/>
    <path d="M42.5 254.5 L466.5 254.5" stroke="black" stroke-width="1"/>
    <path d="M42.5 307.5 L466.5 307.5" stroke="black" stroke-width="1"/>
    <path d="M42.5 360.5 L466.5 360.5" stroke="black" stroke-width="1"/>
    <path d="M42.5 413.5 L466.5 413.5" stroke="black" stroke-width="1"/>
    <path d="M42.5 466.5 L466.5 466.5" stroke="black" stroke-width="1"/>
    <path d="M42.5 519.5 L466.5 519.5" stroke="black" stroke-width="1"/>
    <path d="M201.5 42.5 L307.5 148.5" stroke="black" stroke-width="1"/>
    <path d="M201.5 148.5 L307.5 42.5" stroke="black" stroke-width="1"/>
    <path d="M201.5 413.5 L307.5 519.5" stroke="black" stroke-width="1"/>
    <path d="M201.5 519.5 L307.5 413.5" stroke="black" stroke-width="1"/>
    <path d="M100.5 144.0 L100.5 134.0" stroke="black" stroke-width="1"/>
    <path d="M100.0 143.5 L110.0 143.5" stroke="black" stroke-width="1"/>
    <path d="M100.5 153.0 L100.5 163.0" stroke="black" stroke-width="1"/>
    <path d="M100.0 153.5 L110.0 153.5" stroke="black" stroke-width="1"/>
    <path d="M90.5 153.0 L90.5 163.0" stroke="black" stroke-width="1"/>
    <path d="M91.0 153.5 L81.0 153.5" stroke="black" stroke-width="1"/>
    <path d="M90.5 144.0 L90.5 134.0" stroke="black" stroke-width="1"/>
    <path d="M91.0 143.5 L81.0 143.5" stroke="black" stroke-width="1"/>
    <path d="M418.5 144.0 L418.5 134.0" stroke="black" stroke-width="1"/>
    <path d="M418.0 143.5 L428.0 143.5" stroke="black" stroke-width="1"/>
    <path d="M418.5 153.0 L418.5 163.0" stroke="black" stroke-width="1"/>
    <path d="M418.0 153.5 L428.0 153.5" stroke="black" stroke-width="1"/>
    <path d="M408.5 153.0 L408.5 163.0" stroke="black" stroke-width="1"/>
    <path d="M409.0 153.5 L399.0 153.5" stroke="black" stroke-width="1"/>
    <path d="M408.5 144.0 L408.5 134.0" stroke="black" stroke-width="1"/>
    <path d="M409.0 143.5 L399.0 143.5" stroke="black" stroke-width="1"/>
    <path d="M47.5 197.0 L47.5 187.0" stroke="black" stroke-width="1"/>
    <path d="M47.0 196.5 L57.0 196.5" stroke="black" stroke-width="1"/>
    <path d="M47.5 206.0 L47.5 216.0" stroke="black" stroke-width="1"/>
    <path d="M47.0 206.5 L57.0 206.5" stroke="black" stroke-width="1"/>
    <path d="M153.5 197.0 L153.5 187.0" stroke="black" stroke-width="1"/>
    <path d="M153.0 196.5 L163.0 196.5" stroke="black" stroke-width="1"/>
    <path d="M153.5 206.0 L153.5 216.0" stroke="black" stroke-width="1"/>
    <path d="M153.0 206.5 L163.0 206.5" stroke="black" stroke-width="1"/>
    <path d="M143.5 206.0 L143.5 216.0" stroke="black" stroke-width="1"/>
    <path d="M144.0 206.5 L134.0 206.5" stroke="black" stroke-width="1"/>
    <path d="M143.5 197.0 L143.5 187.0" stroke="black" stroke-width="1"/>
    <path d="M144.0 196.5 L134.0 196.5" stroke="black" stroke-width="1"/>
    <path d="M259.5 197.0 L259.5 187.0" stroke="black" stroke-width="1"/>
    <path d="M259.0 196.5 L269.0 196.5" stroke="black" stroke-width="1"/>
    <path d="M259.5 206.0 L259.5 216.0" stroke="black" stroke-width="1"/>
    <path d="M259.0 206.5 L269.0 206.5" stroke="black" stroke-width="1"/>
    <path d="M249.5 206.0 L249.5 216.0" stroke="black" stroke-width="1"/>
    <path d="M250.0 206.5 L240.0 206.5" stroke="black" stroke-width="1"/>
    <path d="M249.5 197.0 L249.5 187.0" stroke="black" stroke-width="1"/>
    <path d="M250.0 196.5 L240.0 196.5" stroke="black" stroke-width="1"/>
    <path d="M365.5 197.0 L365.5 187.0" stroke="black" stroke-width="1"/>
    <path d="M365.0 196.5 L375.0 196.5" stroke="black" stroke-width="1"/>
    <path d="M365.5 206.0 L365.5 216.0" stroke="black" stroke-width="1"/>
    <path d="M365.0 206.5 L375.0 206.5" stroke="black" stroke-width="1"/>
    <path d="M355.5 206.0 L355.5 216.0" stroke="black" stroke-width="1"/>
    <path d="M356.0 206.5 L346.0 206.5" stroke="black" stroke-width="1"/>
    <path d="M355.5 197.0 L355.5 187.0" stroke="black" stroke-width="1"/>
    <path d="M356.0 196.5 L346.0 196.5" stroke="black" stroke-width="1"/>
    <path d="M461.5 206.0 L461.5 216.0" stroke="black" stroke-width="1"/>
    <path d="M462.0 206.5 L452.0 206.5" stroke="black" stroke-width="1"/>
    <path d="M461.5 197.0 L461.5 187.0" stroke="black" stroke-width="1"/>
    <path d="M462.0 196.5 L452.0 196.5" stroke="black" stroke-width="1"/>
    <path d="M47.5 356.0 L47.5 346.0" stroke="black" stroke-width="1"/>
    <path d="M47.0 355.5 L57.0 355.5" stroke="black" stroke-width="1"/>
    <path d="M47.5 365.0 L47.5 375.0" stroke="black" stroke-width="1"/>
    <path d="M47.0 365.5 L57.0 365.5" stroke="black" stroke-width="1"/>
    <path d="M153.5 356.0 L153.5 346.0" stroke="black" stroke-width="1"/>
    <path d="M153.0 355.5 L163.0 355.5" stroke="black" stroke-width="1"/>
    <path d="M153.5 365.0 L153.5 375.0" stroke="black" stroke-width="1"/>
    <path d="M153.0 365.5 L163.0 365.5" stroke="black" stroke-width="1"/>
    <path d="M143.5 365.0 L143.5 375.0" stroke="black" stroke-width="1"/>
    <path d="M144.0 365.5 L134.0 365.5" stroke="black" stroke-width="1"/>
    <path d="M143.5 356.0 L143.5 346.0" stroke="black" stroke-width="1"/>
    <path d="M144.0 355.5 L134.0 355.5" stroke="black" stroke-width="1"/>
    <path d="M259.5 356.0 L259.5 346.0" stroke="black" stroke-width="1"/>
    <path d="M259.0 355.5 L269.0 355.5" stroke="black" stroke-width="1"/>
    <path d="M259.5 365.0 L259.5 375.0" stroke="black" stroke-width="1"/>
    <path d="M259.0 365.5 L269.0 365.5" stroke="black" stroke-width="1"/>
    <path d="M249.5 365.0 L249.5 375.0" stroke="black" stroke-width="1"/>
    <path d="M250.0 365.5 L240.0 365.5" stroke="black" stroke-width="1"/>
    <path d="M249.5 356.0 L249.5 346.0" stroke="black" stroke-width="1"/>
    <path d="M250.0 355.5 L240.0 355.5" stroke="black" stroke-width="1"/>
    <path d="M365.5 356.0 L365.5 346.0" stroke="black" stroke-width="1"/>
    <path d="M365.0 355.5 L375.0 355.5" stroke="black" stroke-width="1"/>
    <path d="M365.5 365.0 L365.5 375.0" stroke="black" stroke-width="1"/>
    <path d="M365.0 365.5 L375.0 365.5" stroke="black" stroke-width="1"/>
    <path d="M355.5 365.0 L355.5 375.0" stroke="black" stroke-width="1"/>
    <path d="M356.0 365.5 L346.0 365.5" stroke="black" stroke-width="1"/>
    <path d="M355.5 356.0 L355.5 346.0" stroke="black" stroke-width="1"/>
    <path d="M356.0 355.5 L346.0 355.5" stroke="black" stroke-width="1"/>
    <path d="M461.5 365.0 L461.5 375.0" stroke="black" stroke-width="1"/>
    <path d="M462.0 365.5 L452.0 365.5" stroke="black" stroke-width="1"/>
    <path d="M461.5 356.0 L461.5 346.0" stroke="black" stroke-width="1"/>
    <path d="M462.0 355.5 L452.0 355.5" stroke="black" stroke-width="1"/>
    <path d="M100.5 409.0 L100.5 399.0" stroke="black" stroke-width="1"/>
    <path d="M100.0 408.5 L110.0 408.5" stroke="black" stroke-width="1"/>
    <path d="M100.5 418.0 L100.5 428.0" stroke="black" stroke-width="1"/>
    <path d="M100.0 418.5 L110.0 418.5" stroke="black" stroke-width="1"/>
    <path d="M90.5 418.0 L90.5 428.0" stroke="black" stroke-width="1"/>
    <path d="M91.0 418.5 L81.0 418.5" stroke="black" stroke-width="1"/>
    <path d="M90.5 409.0 L90.5 399.0" stroke="black" stroke-width="1"/>
    <path d="M91.0 408.5 L81.0 408.5" stroke="black" stroke-width="1"/>
    <path d="M418.5 409.0 L418.5 399.0" stroke="black" stroke-width="1"/>
    <path d="M418.0 408.5 L428.0 408.5" stroke="black" stroke-width="1"/>
    <path d="M418.5 418.0 L418.5 428.0" stroke="black" stroke-width="1"/>
    <path d="M418.0 418.5 L428.0 418.5" stroke="black" stroke-width="1"/>
    <path d="M408.5 418.0 L408.5 428.0" stroke="black" stroke-width="1"/>
    <path d="M409.0 418.5 L399.0 418.5" stroke="black" stroke-width="1"/>
    <path d="M408.5 409.0 L408.5 399.0" stroke="black" stroke-width="1"/>
    <path d="M409.0 408.5 L399.0 408.5" stroke="black" stroke-width="1"/>
    <path d="M1.0 0 L1.0 562" stroke="black" stroke-width="2"/>
    <path d="M508.0 0 L508.0 562" stroke="black" stroke-width="2"/>
    <path d="M0 1.0 L509 1.0" stroke="black" stroke-width="2"/>
    <path d="M0 561.0 L509 561.0" stroke="black" stroke-width="2"/>
  </g>
</svg>
