<?xml version="1.0" encoding="UTF-8" standalone="no"?>
<svg
   xmlns:dc="http://purl.org/dc/elements/1.1/"
   xmlns:cc="http://creativecommons.org/ns#"
   xmlns:rdf="http://www.w3.org/1999/02/22-rdf-syntax-ns#"
   xmlns:svg="http://www.w3.org/2000/svg"
   xmlns="http://www.w3.org/2000/svg"
   xmlns:sodipodi="http://sodipodi.sourceforge.net/DTD/sodipodi-0.dtd"
   xmlns:inkscape="http://www.inkscape.org/namespaces/inkscape"
   version="1.1"
   width="509"
   viewbox="0 0 509 562"
   height="562"
   id="svg2"
   inkscape:version="0.48.5 r10040"
   sodipodi:docname="board.svg">
  <metadata
     id="metadata270">
    <rdf:RDF>
      <cc:Work
         rdf:about="">
        <dc:format>image/svg+xml</dc:format>
        <dc:type
           rdf:resource="http://purl.org/dc/dcmitype/StillImage" />
      </cc:Work>
    </rdf:RDF>
  </metadata>
  <defs
     id="defs268" />
  <sodipodi:namedview
     pagecolor="#ffffff"
     bordercolor="#666666"
     borderopacity="1"
     objecttolerance="10"
     gridtolerance="10"
     guidetolerance="10"
     inkscape:pageopacity="0"
     inkscape:pageshadow="2"
     inkscape:window-width="1920"
     inkscape:window-height="1024"
     id="namedview266"
     showgrid="false"
     inkscape:zoom="0.41992883"
     inkscape:cx="259.26271"
     inkscape:cy="281"
     inkscape:window-x="0"
     inkscape:window-y="0"
     inkscape:window-maximized="1"
     inkscape:current-layer="svg2" />
  <rect
     style="color:#000000;fill:#ffffff;fill-opacity:1;fill-rule:nonzero;stroke:none;stroke-width:10;marker:none;visibility:visible;display:inline;overflow:visible;enable-background:accumulate"
     id="rect3247"
     width="509"
     height="562"
     x="0"
     y="0" />
  <g
     id="g4">
    <path
       d="M42.5 42.5 L42.5 519.5"
       stroke="black"
       stroke-width="1"
       id="path6" />
    <path
       d="M95.5 42.5 L95.5 254.5"
       stroke="black"
       stroke-width="1"
       id="path8" />
    <path
       d="M95.5 307.5 L95.5 519.5"
       stroke="black"
       stroke-width="1"
       id="path10" />
    <path
       d="M148.5 42.5 L148.5 254.5"
       stroke="black"
       stroke-width="1"
       id="path12" />
    <path
       d="M148.5 307.5 L148.5 519.5"
       stroke="black"
       stroke-width="1"
       id="path14" />
    <path
       d="M201.5 42.5 L201.5 254.5"
       stroke="black"
       stroke-width="1"
       id="path16" />
    <path
       d="M201.5 307.5 L201.5 519.5"
       stroke="black"
       stroke-width="1"
       id="path18" />
    <path
       d="M254.5 42.5 L254.5 254.5"
       stroke="black"
       stroke-width="1"
       id="path20" />
    <path
       d="M254.5 307.5 L254.5 519.5"
       stroke="black"
       stroke-width="1"
       id="path22" />
    <path
       d="M307.5 42.5 L307.5 254.5"
       stroke="black"
       stroke-width="1"
       id="path24" />
    <path
       d="M307.5 307.5 L307.5 519.5"
       stroke="black"
       stroke-width="1"
       id="path26" />
    <path
       d="M360.5 42.5 L360.5 254.5"
       stroke="black"
       stroke-width="1"
       id="path28" />
    <path
       d="M360.5 307.5 L360.5 519.5"
       stroke="black"
       stroke-width="1"
       id="path30" />
    <path
       d="M413.5 42.5 L413.5 254.5"
       stroke="black"
       stroke-width="1"
       id="path32" />
    <path
       d="M413.5 307.5 L413.5 519.5"
       stroke="black"
       stroke-width="1"
       id="path34" />
    <path
       d="M466.5 42.5 L466.5 519.5"
       stroke="black"
       stroke-width="1"
       id="path36" />
    <path
       d="M42.5 42.5 L466.5 42.5"
       stroke="black"
       stroke-width="1"
       id="path38" />
    <path
       d="M42.5 95.5 L466.5 95.5"
       stroke="black"
       stroke-width="1"
       id="path40" />
    <path
       d="M42.5 148.5 L466.5 148.5"
       stroke="black"
       stroke-width="1"
       id="path42" />
    <path
       d="M42.5 201.5 L466.5 201.5"
       stroke="black"
       stroke-width="1"
       id="path44" />
    <path
       d="M42.5 254.5 L466.5 254.5"
       stroke="black"
       stroke-width="1"
       id="path46" />
    <path
       d="M42.5 307.5 L466.5 307.5"
       stroke="black"
       stroke-width="1"
       id="path48" />
    <path
       d="M42.5 360.5 L466.5 360.5"
       stroke="black"
       stroke-width="1"
       id="path50" />
    <path
       d="M42.5 413.5 L466.5 413.5"
       stroke="black"
       stroke-width="1"
       id="path52" />
    <path
       d="M42.5 466.5 L466.5 466.5"
       stroke="black"
       stroke-width="1"
       id="path54" />
    <path
       d="M42.5 519.5 L466.5 519.5"
       stroke="black"
       stroke-width="1"
       id="path56" />
    <path
       d="M201.5 42.5 L307.5 148.5"
       stroke="black"
       stroke-width="1"
       id="path58" />
    <path
       d="M201.5 148.5 L307.5 42.5"
       stroke="black"
       stroke-width="1"
       id="path60" />
    <path
       d="M201.5 413.5 L307.5 519.5"
       stroke="black"
       stroke-width="1"
       id="path62" />
    <path
       d="M201.5 519.5 L307.5 413.5"
       stroke="black"
       stroke-width="1"
       id="path64" />
    <path
       d="M100.5 144.0 L100.5 134.0"
       stroke="black"
       stroke-width="1"
       id="path66" />
    <path
       d="M100.0 143.5 L110.0 143.5"
       stroke="black"
       stroke-width="1"
       id="path68" />
    <path
       d="M100.5 153.0 L100.5 163.0"
       stroke="black"
       stroke-width="1"
       id="path70" />
    <path
       d="M100.0 153.5 L110.0 153.5"
       stroke="black"
       stroke-width="1"
       id="path72" />
    <path
       d="M90.5 153.0 L90.5 163.0"
       stroke="black"
       stroke-width="1"
       id="path74" />
    <path
       d="M91.0 153.5 L81.0 153.5"
       stroke="black"
       stroke-width="1"
       id="path76" />
    <path
       d="M90.5 144.0 L90.5 134.0"
       stroke="black"
       stroke-width="1"
       id="path78" />
    <path
       d="M91.0 143.5 L81.0 143.5"
       stroke="black"
       stroke-width="1"
       id="path80" />
    <path
       d="M418.5 144.0 L418.5 134.0"
       stroke="black"
       stroke-width="1"
       id="path82" />
    <path
       d="M418.0 143.5 L428.0 143.5"
       stroke="black"
       stroke-width="1"
       id="path84" />
    <path
       d="M418.5 153.0 L418.5 163.0"
       stroke="black"
       stroke-width="1"
       id="path86" />
    <path
       d="M418.0 153.5 L428.0 153.5"
       stroke="black"
       stroke-width="1"
       id="path88" />
    <path
       d="M408.5 153.0 L408.5 163.0"
       stroke="black"
       stroke-width="1"
       id="path90" />
    <path
       d="M409.0 153.5 L399.0 153.5"
       stroke="black"
       stroke-width="1"
       id="path92" />
    <path
       d="M408.5 144.0 L408.5 134.0"
       stroke="black"
       stroke-width="1"
       id="path94" />
    <path
       d="M409.0 143.5 L399.0 143.5"
       stroke="black"
       stroke-width="1"
       id="path96" />
    <path
       d="M47.5 197.0 L47.5 187.0"
       stroke="black"
       stroke-width="1"
       id="path98" />
    <path
       d="M47.0 196.5 L57.0 196.5"
       stroke="black"
       stroke-width="1"
       id="path100" />
    <path
       d="M47.5 206.0 L47.5 216.0"
       stroke="black"
       stroke-width="1"
       id="path102" />
    <path
       d="M47.0 206.5 L57.0 206.5"
       stroke="black"
       stroke-width="1"
       id="path104" />
    <path
       d="M153.5 197.0 L153.5 187.0"
       stroke="black"
       stroke-width="1"
       id="path106" />
    <path
       d="M153.0 196.5 L163.0 196.5"
       stroke="black"
       stroke-width="1"
       id="path108" />
    <path
       d="M153.5 206.0 L153.5 216.0"
       stroke="black"
       stroke-width="1"
       id="path110" />
    <path
       d="M153.0 206.5 L163.0 206.5"
       stroke="black"
       stroke-width="1"
       id="path112" />
    <path
       d="M143.5 206.0 L143.5 216.0"
       stroke="black"
       stroke-width="1"
       id="path114" />
    <path
       d="M144.0 206.5 L134.0 206.5"
       stroke="black"
       stroke-width="1"
       id="path116" />
    <path
       d="M143.5 197.0 L143.5 187.0"
       stroke="black"
       stroke-width="1"
       id="path118" />
    <path
       d="M144.0 196.5 L134.0 196.5"
       stroke="black"
       stroke-width="1"
       id="path120" />
    <path
       d="M259.5 197.0 L259.5 187.0"
       stroke="black"
       stroke-width="1"
       id="path122" />
    <path
       d="M259.0 196.5 L269.0 196.5"
       stroke="black"
       stroke-width="1"
       id="path124" />
    <path
       d="M259.5 206.0 L259.5 216.0"
       stroke="black"
       stroke-width="1"
       id="path126" />
    <path
       d="M259.0 206.5 L269.0 206.5"
       stroke="black"
       stroke-width="1"
       id="path128" />
    <path
       d="M249.5 206.0 L249.5 216.0"
       stroke="black"
       stroke-width="1"
       id="path130" />
    <path
       d="M250.0 206.5 L240.0 206.5"
       stroke="black"
       stroke-width="1"
       id="path132" />
    <path
       d="M249.5 197.0 L249.5 187.0"
       stroke="black"
       stroke-width="1"
       id="path134" />
    <path
       d="M250.0 196.5 L240.0 196.5"
       stroke="black"
       stroke-width="1"
       id="path136" />
    <path
       d="M365.5 197.0 L365.5 187.0"
       stroke="black"
       stroke-width="1"
       id="path138" />
    <path
       d="M365.0 196.5 L375.0 196.5"
       stroke="black"
       stroke-width="1"
       id="path140" />
    <path
       d="M365.5 206.0 L365.5 216.0"
       stroke="black"
       stroke-width="1"
       id="path142" />
    <path
       d="M365.0 206.5 L375.0 206.5"
       stroke="black"
       stroke-width="1"
       id="path144" />
    <path
       d="M355.5 206.0 L355.5 216.0"
       stroke="black"
       stroke-width="1"
       id="path146" />
    <path
       d="M356.0 206.5 L346.0 206.5"
       stroke="black"
       stroke-width="1"
       id="path148" />
    <path
       d="M355.5 197.0 L355.5 187.0"
       stroke="black"
       stroke-width="1"
       id="path150" />
    <path
       d="M356.0 196.5 L346.0 196.5"
       stroke="black"
       stroke-width="1"
       id="path152" />
    <path
       d="M461.5 206.0 L461.5 216.0"
       stroke="black"
       stroke-width="1"
       id="path154" />
    <path
       d="M462.0 206.5 L452.0 206.5"
       stroke="black"
       stroke-width="1"
       id="path156" />
    <path
       d="M461.5 197.0 L461.5 187.0"
       stroke="black"
       stroke-width="1"
       id="path158" />
    <path
       d="M462.0 196.5 L452.0 196.5"
       stroke="black"
       stroke-width="1"
       id="path160" />
    <path
       d="M47.5 356.0 L47.5 346.0"
       stroke="black"
       stroke-width="1"
       id="path162" />
    <path
       d="M47.0 355.5 L57.0 355.5"
       stroke="black"
       stroke-width="1"
       id="path164" />
    <path
       d="M47.5 365.0 L47.5 375.0"
       stroke="black"
       stroke-width="1"
       id="path166" />
    <path
       d="M47.0 365.5 L57.0 365.5"
       stroke="black"
       stroke-width="1"
       id="path168" />
    <path
       d="M153.5 356.0 L153.5 346.0"
       stroke="black"
       stroke-width="1"
       id="path170" />
    <path
       d="M153.0 355.5 L163.0 355.5"
       stroke="black"
       stroke-width="1"
       id="path172" />
    <path
       d="M153.5 365.0 L153.5 375.0"
       stroke="black"
       stroke-width="1"
       id="path174" />
    <path
       d="M153.0 365.5 L163.0 365.5"
       stroke="black"
       stroke-width="1"
       id="path176" />
    <path
       d="M143.5 365.0 L143.5 375.0"
       stroke="black"
       stroke-width="1"
       id="path178" />
    <path
       d="M144.0 365.5 L134.0 365.5"
       stroke="black"
       stroke-width="1"
       id="path180" />
    <path
       d="M143.5 356.0 L143.5 346.0"
       stroke="black"
       stroke-width="1"
       id="path182" />
    <path
       d="M144.0 355.5 L134.0 355.5"
       stroke="black"
       stroke-width="1"
       id="path184" />
    <path
       d="M259.5 356.0 L259.5 346.0"
       stroke="black"
       stroke-width="1"
       id="path186" />
    <path
       d="M259.0 355.5 L269.0 355.5"
       stroke="black"
       stroke-width="1"
       id="path188" />
    <path
       d="M259.5 365.0 L259.5 375.0"
       stroke="black"
       stroke-width="1"
       id="path190" />
    <path
       d="M259.0 365.5 L269.0 365.5"
       stroke="black"
       stroke-width="1"
       id="path192" />
    <path
       d="M249.5 365.0 L249.5 375.0"
       stroke="black"
       stroke-width="1"
       id="path194" />
    <path
       d="M250.0 365.5 L240.0 365.5"
       stroke="black"
       stroke-width="1"
       id="path196" />
    <path
       d="M249.5 356.0 L249.5 346.0"
       stroke="black"
       stroke-width="1"
       id="path198" />
    <path
       d="M250.0 355.5 L240.0 355.5"
       stroke="black"
       stroke-width="1"
       id="path200" />
    <path
       d="M365.5 356.0 L365.5 346.0"
       stroke="black"
       stroke-width="1"
       id="path202" />
    <path
       d="M365.0 355.5 L375.0 355.5"
       stroke="black"
       stroke-width="1"
       id="path204" />
    <path
       d="M365.5 365.0 L365.5 375.0"
       stroke="black"
       stroke-width="1"
       id="path206" />
    <path
       d="M365.0 365.5 L375.0 365.5"
       stroke="black"
       stroke-width="1"
       id="path208" />
    <path
       d="M355.5 365.0 L355.5 375.0"
       stroke="black"
       stroke-width="1"
       id="path210" />
    <path
       d="M356.0 365.5 L346.0 365.5"
       stroke="black"
       stroke-width="1"
       id="path212" />
    <path
       d="M355.5 356.0 L355.5 346.0"
       stroke="black"
       stroke-width="1"
       id="path214" />
    <path
       d="M356.0 355.5 L346.0 355.5"
       stroke="black"
       stroke-width="1"
       id="path216" />
    <path
       d="M461.5 365.0 L461.5 375.0"
       stroke="black"
       stroke-width="1"
       id="path218" />
    <path
       d="M462.0 365.5 L452.0 365.5"
       stroke="black"
       stroke-width="1"
       id="path220" />
    <path
       d="M461.5 356.0 L461.5 346.0"
       stroke="black"
       stroke-width="1"
       id="path222" />
    <path
       d="M462.0 355.5 L452.0 355.5"
       stroke="black"
       stroke-width="1"
       id="path224" />
    <path
       d="M100.5 409.0 L100.5 399.0"
       stroke="black"
       stroke-width="1"
       id="path226" />
    <path
       d="M100.0 408.5 L110.0 408.5"
       stroke="black"
       stroke-width="1"
       id="path228" />
    <path
       d="M100.5 418.0 L100.5 428.0"
       stroke="black"
       stroke-width="1"
       id="path230" />
    <path
       d="M100.0 418.5 L110.0 418.5"
       stroke="black"
       stroke-width="1"
       id="path232" />
    <path
       d="M90.5 418.0 L90.5 428.0"
       stroke="black"
       stroke-width="1"
       id="path234" />
    <path
       d="M91.0 418.5 L81.0 418.5"
       stroke="black"
       stroke-width="1"
       id="path236" />
    <path
       d="M90.5 409.0 L90.5 399.0"
       stroke="black"
       stroke-width="1"
       id="path238" />
    <path
       d="M91.0 408.5 L81.0 408.5"
       stroke="black"
       stroke-width="1"
       id="path240" />
    <path
       d="M418.5 409.0 L418.5 399.0"
       stroke="black"
       stroke-width="1"
       id="path242" />
    <path
       d="M418.0 408.5 L428.0 408.5"
       stroke="black"
       stroke-width="1"
       id="path244" />
    <path
       d="M418.5 418.0 L418.5 428.0"
       stroke="black"
       stroke-width="1"
       id="path246" />
    <path
       d="M418.0 418.5 L428.0 418.5"
       stroke="black"
       stroke-width="1"
       id="path248" />
    <path
       d="M408.5 418.0 L408.5 428.0"
       stroke="black"
       stroke-width="1"
       id="path250" />
    <path
       d="M409.0 418.5 L399.0 418.5"
       stroke="black"
       stroke-width="1"
       id="path252" />
    <path
       d="M408.5 409.0 L408.5 399.0"
       stroke="black"
       stroke-width="1"
       id="path254" />
    <path
       d="M409.0 408.5 L399.0 408.5"
       stroke="black"
       stroke-width="1"
       id="path256" />
    <path
       d="M1.0 0 L1.0 562"
       stroke="black"
       stroke-width="2"
       id="path258" />
    <path
       d="M508.0 0 L508.0 562"
       stroke="black"
       stroke-width="2"
       id="path260" />
    <path
       d="M0 1.0 L509 1.0"
       stroke="black"
       stroke-width="2"
       id="path262" />
    <path
       d="M0 561.0 L509 561.0"
       stroke="black"
       stroke-width="2"
       id="path264" />
  </g>
</svg>
