<?xml version="1.0" encoding="UTF-8" standalone="no"?>
<!-- Created with Inkscape (http://www.inkscape.org/) -->

<svg
   xmlns:dc="http://purl.org/dc/elements/1.1/"
   xmlns:cc="http://creativecommons.org/ns#"
   xmlns:rdf="http://www.w3.org/1999/02/22-rdf-syntax-ns#"
   xmlns:svg="http://www.w3.org/2000/svg"
   xmlns="http://www.w3.org/2000/svg"
   xmlns:sodipodi="http://sodipodi.sourceforge.net/DTD/sodipodi-0.dtd"
   xmlns:inkscape="http://www.inkscape.org/namespaces/inkscape"
   version="1.1"
   width="408.44269"
   height="410.21936"
   id="svg2"
   xml:space="preserve"
   inkscape:version="0.48.4 r9939"
   sodipodi:docname="red_cannon.svg"><sodipodi:namedview
     pagecolor="#ffffff"
     bordercolor="#666666"
     borderopacity="1"
     objecttolerance="10"
     gridtolerance="10"
     guidetolerance="10"
     inkscape:pageopacity="0"
     inkscape:pageshadow="2"
     inkscape:window-width="1920"
     inkscape:window-height="1024"
     id="namedview9"
     showgrid="false"
     inkscape:zoom="0.84426751"
     inkscape:cx="245.07098"
     inkscape:cy="147.38364"
     inkscape:window-x="0"
     inkscape:window-y="0"
     inkscape:window-maximized="1"
     inkscape:current-layer="svg2"
     fit-margin-top="0"
     fit-margin-left="0"
     fit-margin-right="0"
     fit-margin-bottom="0" /><metadata
     id="metadata8"><rdf:RDF><cc:Work
         rdf:about=""><dc:format>image/svg+xml</dc:format><dc:type
           rdf:resource="http://purl.org/dc/dcmitype/StillImage" /><dc:title /></cc:Work></rdf:RDF></metadata><defs
     id="defs6" /><path
     sodipodi:type="arc"
     style="color:#000000;fill:#ffffff;fill-opacity:1;fill-rule:nonzero;stroke:none;stroke-width:1;marker:none;visibility:visible;display:inline;overflow:visible;enable-background:accumulate"
     id="path2982"
     sodipodi:cx="197.80461"
     sodipodi:cy="196.95726"
     sodipodi:rx="197.80461"
     sodipodi:ry="197.80461"
     d="m 395.60922,196.95726 a 197.80461,197.80461 0 1 1 -395.60922,0 197.80461,197.80461 0 1 1 395.60922,0 z"
     transform="translate(6.4167328,8.15242)" /><path
     id="path3082"
     style="fill:#000000;fill-opacity:1;fill-rule:nonzero;stroke:none"
     d="m 220.50292,200.92185 c -0.5763,-0.195 -1.7725,-0.2925 -3.5938,-0.2925 -4.5987,0 -8.2375,0.47875 -10.9175,1.42625 -0.6787,0.195 -1.9725,0.585 -3.8862,1.17125 -1.915,0.57625 -3.16,0.9525 -3.7313,1.1325 l -0.5862,0.15625 -0.1363,1.29 c 0,0.85875 -0.3325,2.685 -0.9962,5.46875 -1.1613,4.8825 -1.9825,9.52625 -2.4613,13.925 -0.7562,5.85 -1.3275,11.83625 -1.7187,17.96875 l 0,1.875 1.7187,-0.56625 c 9.4925,-3.555 15.5762,-5.9475 18.2625,-7.1875 2.9688,-1.25 4.55,-1.875 4.7463,-1.875 0.195,0 0.5762,-2.01125 1.1525,-6.035 1.25,-7.1875 2.0162,-12.4075 2.3037,-15.66375 0.1813,-2.97875 0.415,-5.28375 0.7038,-6.91375 0.1949,-2.48625 0.2925,-3.82875 0.2925,-4.02375 0,-0.86 -0.385,-1.475 -1.1525,-1.85625 z m 3.75,-17.695 c 0.9474,-0.37625 2.0949,-0.42 3.4375,-0.13625 3.2675,0.96625 7.3437,2.97875 12.2275,6.035 l 1.7187,1.015 c 0.9612,0 2.07,0.62125 3.32,1.85625 0.8588,0.96625 1.3325,1.9725 1.425,3.0275 0.4787,3.06125 -0.2875,5.84 -2.3037,8.34 -0.4688,0.4825 -0.9475,1.29875 -1.4263,2.44125 -0.39,0.85875 -1.1137,2.3 -2.1675,4.31625 -0.4687,1.1475 -1.285,2.87125 -2.4412,5.175 -0.3813,1.24125 -0.9088,2.38375 -1.5825,3.4375 -0.4838,1.25 -1.5825,4.8975 -3.3013,10.9375 -0.38,1.34375 -0.835,2.90125 -1.3662,4.66875 -0.5225,1.7725 -0.88,3.08625 -1.075,3.945 l -0.43,1.1525 c 0,0.195 0.3324,0.48375 0.9962,0.85875 1.6262,1.1625 2.735,2.26625 3.3213,3.32125 0.5712,1.24 0.6637,2.285 0.2725,3.14375 -0.38,0.39125 -0.6638,0.7325 -0.8588,1.01625 l -0.5662,0.56625 -2.0125,0.15625 c -4.0225,0.2875 -7.67,1.3425 -10.9375,3.16375 -0.7713,0.38125 -4.6963,1.24 -11.7775,2.57875 -6.3275,1.1475 -10.4051,1.9625 -12.2263,2.44125 -0.4825,0.195 -1.3962,0.2925 -2.7337,0.2925 l -1.8563,0 0,1.28875 c -0.2875,3.74125 -0.4287,10.835 -0.4287,21.29 0,6.99125 0.6687,12.7875 2.0112,17.3825 0.8588,3.4525 2.1488,6.475 3.8675,9.0625 2.1088,2.96875 6.3275,5.79625 12.6563,8.47625 2.3925,1.1475 4.9799,2.105 7.7537,2.87125 3.4475,0.67875 8.4813,1.20625 15.0975,1.5825 16.4838,1.3425 30.9575,0.86875 43.4175,-1.42625 9.6738,-1.72875 18.155,-4.84875 25.45,-9.355 4.1113,-2.58875 7.1775,-5.3175 9.1987,-8.18375 1.5338,-1.92375 2.9201,-4.65875 4.1601,-8.20375 1.25,-3.54 2.0162,-6.845 2.305,-9.92125 0.195,-1.235 0.9087,-5.70875 2.1487,-13.41875 1.25,-7.71875 1.9188,-11.82125 2.0112,-12.30375 0.2838,-0.9625 0.7226,-1.82625 1.3088,-2.5975 0.2838,-0.37625 0.7125,-0.27875 1.2888,0.2925 0.6637,0.57625 1.1375,1.72875 1.4262,3.4575 0,0.185 0.1175,0.87375 0.3512,2.07 0.2438,1.20125 0.5863,2.8075 1.0163,4.82375 0.4388,2.02125 0.805,3.93625 1.0938,5.7425 1.3375,7.3825 2.295,11.84625 2.87,13.37875 0.86,2.96875 3.0574,8.19375 6.6025,15.66375 1.6262,3.165 2.4412,6.045 2.4412,8.63375 0,1.5225 -0.43,3.15375 -1.2887,4.8825 -1.5388,3.16375 -3.79,5.85 -6.7588,8.04625 -8.71,6.13375 -18.1975,10.59625 -28.4562,13.37875 -8.5313,2.3975 -18.6863,3.975 -30.4688,4.7275 -10.835,0.77125 -21.0887,0.7225 -30.7625,-0.1375 -7.8662,-0.57125 -15.1075,-1.7675 -21.7187,-3.59375 -1.3426,-0.4775 -2.685,-0.81 -4.0225,-0.99625 -6.905,-1.5325 -13.3213,-4.69625 -19.2588,-9.49125 -0.2875,-0.28375 -0.8687,-0.7625 -1.7375,-1.42625 -0.86,-0.67375 -1.4362,-1.1575 -1.7187,-1.445 -6.0313,-4.6975 -10.1513,-9.87375 -12.3638,-15.5275 -0.9525,-2.87625 -1.67,-7.23625 -2.1487,-13.08625 -0.38,-4.21875 -0.2338,-19.165 0.4299,-44.84375 l 0.8601,-35.5075 -0.43,-2.305 c -0.7713,-5.0775 -1.3963,-8.2425 -1.875,-9.4925 -0.7575,-2.10875 -1.1325,-4.12 -1.1325,-6.035 0,-1.3375 0.088,-2.19625 0.2725,-2.5775 0.1025,-0.28375 0.3912,-0.66875 0.86,-1.1525 0.5862,-0.28375 1.2112,-0.43 1.875,-0.43 1.5325,0 3.4562,0.43 5.7612,1.28875 2.5788,1.055 4.3025,2.0125 5.1763,2.87125 0.18,0.19625 1.5237,0.01 4.0237,-0.56625 3.4463,-0.67375 5.9863,-1.255 7.6163,-1.7375 1.0549,-0.37625 2.0562,-0.5675 3.0087,-0.5675 2.0163,-0.195 4.0275,-0.625 6.035,-1.28875 3.5538,-1.055 6.5725,-2.73375 9.0625,-5.03875 0.375,-0.37625 1.5275,-1.1425 3.4563,-2.305 z M 76.186619,165.9806 l 1.4263,-1.425 0.8787,0 c 3.8275,0.46875 7.6563,2.00125 11.4838,4.59 5.0887,3.35875 9.6487,6.855 13.672501,10.4875 2.3925,2.11 3.9262,4.46375 4.59,7.05125 0.9612,2.96875 1.4449,6.61125 1.4449,10.9175 0,2.11 -0.097,3.55 -0.2924,4.31625 -1.1475,4.5075 -4.3113,6.75875 -9.492501,6.75875 l -1.7188,0 -1.1525,-0.43 c -2.0062,-1.055 -4.2575,-3.40375 -6.7575,-7.05125 -2.3975,-3.54 -4.7412,-7.66125 -7.0312,-12.3625 -5.6638,-11.69 -8.4963,-18.6825 -8.4963,-20.9775 0,-0.39 0.4787,-1.015 1.445,-1.875 z M 119.60542,73.695603 c 1.235,-0.57125 3.5787,-0.5275 7.0312,0.1375 3.2513,0.67875 6.845,1.875 10.7813,3.59375 1.1562,0.585 2.2112,1.25875 3.1637,2.01125 3.4475,3.16375 5.5125,6.045 6.1913,8.6325 0.2837,1.25 -0.013,2.97875 -0.8788,5.17625 -2.3975,6.1325 -3.9262,14.662497 -4.59,25.586247 -0.195,1.7325 -0.2925,10.165 -0.2925,25.2925 -0.1862,16.015 -0.3275,24.5025 -0.43,25.44875 l 0,2.305 c 0.39,0 1.9725,-2.44125 4.7463,-7.32375 3.8275,-6.23625 7.3237,-12.95 10.4875,-20.1375 2.0175,-4.985 3.985,-10.4925 5.8987,-16.5225 0.6738,-2.305 1.3475,-3.79 2.0113,-4.45375 0.3912,-0.39 0.7725,-0.5375 1.1525,-0.44875 2.0175,0.39 5.3224,3.0275 9.9225,7.91 0.6637,0.87375 1.475,1.59625 2.4412,2.1675 2.0162,1.055 3.545,2.53875 4.59,4.45375 0.6738,1.3425 1.015,2.82625 1.015,4.4525 0,2.49 -0.5762,4.45375 -1.7187,5.89875 -0.5763,0.85875 -1.8263,1.71875 -3.75,2.5775 -4.8826,2.305 -10.2925,5.855 -16.23,10.645 -10.4588,8.53 -17.1675,13.17875 -20.1363,13.945 l -0.5675,0.1375 0,2.5975 c -0.4825,12.64625 -1.635,25.24375 -3.4562,37.7925 -0.9526,8.2425 -1.9538,14.66875 -3.0075,19.2775 -0.5863,3.6325 -1.26,6.5575 -2.0125,8.77 0,0.0925 0.3762,0.32625 1.1325,0.7025 0.4787,0.1075 1.3925,0.48875 2.735,1.1525 5.7525,3.36 10.9275,5.9525 15.5275,7.77375 4.79,2.00625 8.3837,4.16 10.7812,6.465 1.1425,1.3425 1.7675,2.10875 1.875,2.30375 1.055,1.915 1.865,4.84 2.4413,8.77 0.2837,2.57875 -0.054,5.79125 -1.0163,9.62875 l -0.5662,2.44125 -0.8588,0.56625 c -1.9137,1.25 -3.74,1.63625 -5.4687,1.1525 -0.195,-0.0875 -0.5613,-0.16125 -1.0938,-0.215 -0.5225,-0.0488 -0.8737,-0.0775 -1.055,-0.0775 l -1.2887,0 -1.1525,-1.28875 c -3.1638,-3.2525 -6.6163,-8.0475 -10.3513,-14.375 -5.1862,-8.52625 -9.2137,-13.94625 -12.09,-16.25 -0.7575,-0.7525 -1.1325,-1.1825 -1.1325,-1.29 -0.1075,-0.18 -0.205,-0.18 -0.2937,0 -0.092,0.1075 -0.1363,0.20625 -0.1363,0.29375 -0.195,0.2875 -0.5375,1.29875 -1.0162,3.0275 -2.2013,7.085 -4.6963,13.35875 -7.48,18.8275 -3.6325,7.65625 -6.5575,13.12 -8.77,16.3875 -4.4038,6.61625 -9.8625,13.03625 -16.386301,19.2575 -2.11,2.10875 -5.205,4.56 -9.2775,7.34375 -4.0625,2.77375 -7.4362,4.83375 -10.1175,6.17125 -2.5,1.34375 -4.37,1.675 -5.605,0.99625 l -0.7225,-0.43 0.5663,-0.7225 c 7.4712,-8.8125 14.4724,-17.95875 20.9962,-27.44125 12.743801,-18.59375 21.035001,-39.29625 24.862501,-62.10875 0,-0.47875 0.3375,-2.44625 1.0163,-5.89875 2.5775,-13.0325 4.2475,-28.36375 5.02,-45.99625 0,-0.57125 0.024,-1.885 0.077,-3.945 0.049,-2.05625 0.098,-4.95125 0.1363,-8.69125 0.05,-3.75 0.079,-6.915 0.079,-9.4925 0,-13.0325 -0.049,-21.32875 -0.1363,-24.8825 -0.7725,-15.71375 -1.2987,-25.2 -1.5825,-28.4575 0,-0.57125 -0.029,-1.28875 -0.079,-2.14875 -0.054,-0.85875 -0.077,-1.38625 -0.077,-1.58125 0,-2.968747 -0.3863,-5.986247 -1.1526,-9.062497 -0.3812,-2.1975 -1.2399,-4.6925 -2.5774,-7.48125 -1.4363,-2.3925 -2.1488,-4.0675 -2.1488,-5.01875 0.2825,-3.54 1.6263,-5.65 4.0238,-6.32875 z m 100.8975,-7.75375 c 0.3912,-0.195 1.0162,-0.2925 1.875,-0.2925 3.54,0.2875 7.8525,2.96875 12.9299,8.04625 4.1263,3.93625 6.5238,7.3825 7.1875,10.35125 0.4788,1.63125 0.049,3.16 -1.2887,4.59 -0.2887,0.39125 -0.7175,1.21125 -1.2887,2.46125 -0.5763,1.71875 -1.7288,4.73625 -3.4575,9.042497 -0.185,0.39125 -0.4438,0.99625 -0.7813,1.8175 -0.3412,0.81 -0.7225,1.7375 -1.1525,2.7925 -0.43,1.055 -0.7425,1.87 -0.9375,2.44125 -2.9688,7.1875 -4.9362,11.7875 -5.8987,13.78875 -1.8263,4.13125 -4.98,10.69875 -9.4725,19.7075 -0.9663,1.63125 -1.445,2.53875 -1.445,2.73375 0.4787,0 2.8762,-0.33625 7.1875,-1.015 6.5087,-1.1425 12.5,-2.485 17.9687,-4.02375 0.195,0 0.5763,-0.0675 1.1525,-0.215 0.5713,-0.14125 1.3863,-0.3125 2.4413,-0.5075 1.055,-0.195 1.9137,-0.38125 2.5775,-0.56625 13.2287,-2.68125 23.965,-5.845 32.2074,-9.4925 0.3913,-0.195 0.8688,-0.38 1.4451,-0.56625 0.5712,-0.195 1.1912,-0.41 1.8562,-0.645 0.6738,-0.24375 1.1125,-0.415 1.3088,-0.5075 l 2.0112,-0.7225 2.5775,1.42625 c 0.089,0.1075 0.9037,0.56625 2.4425,1.38625 1.5325,0.81125 2.6413,1.40125 3.32,1.7775 2.68,1.445 5.3125,3.46625 7.89,6.055 3.36,3.4375 5.04,6.30875 5.04,8.6125 0,1.055 -0.7187,2.925 -2.1487,5.60625 -1.7338,3.6475 -3.125,8.105 -4.1801,13.37875 -1.0549,4.6875 -1.7725,9.18875 -2.1487,13.49625 -1.1612,11.3175 -2.455,21.3375 -3.8862,30.05875 -0.195,1.82625 -0.44,3.35375 -0.7225,4.58875 -1.0551,7.1 -2.0613,12.55875 -3.0075,16.3875 -0.1075,0.77125 -0.5425,2.45125 -1.3088,5.03875 -3.9212,13.89625 -8.33,23.0475 -13.2225,27.46125 -0.3812,0.57625 -1.2412,1.10375 -2.5788,1.58125 -3.3587,1.43625 -5.8537,2.05125 -7.4799,1.85625 -1.7188,-0.0875 -3.2525,-1.1425 -4.59,-3.16375 0,-0.0888 -0.2938,-0.61125 -0.8788,-1.5625 -0.5762,-0.9625 -1.0062,-1.7825 -1.29,-2.46125 -2.0062,-3.735 -3.8275,-6.8025 -5.4687,-9.2 -2.2938,-3.54 -5.5026,-7.85125 -9.6288,-12.92875 -0.4687,-0.47875 -0.7025,-1.00625 -0.7025,-1.5825 0,-0.0875 0.069,-0.42 0.215,-0.99625 0.1413,-0.58625 0.3025,-1.1175 0.4875,-1.60125 l 0.1563,-0.70375 c 0.089,0 1.5237,0.5275 4.2975,1.5825 8.6324,3.4525 14.0474,5.17625 16.25,5.17625 3.4475,0 6.7087,-6.9975 9.785,-20.99625 2.1087,-10.15625 3.7349,-19.73625 4.8825,-28.75 2.3925,-21.65 3.1112,-34.20375 2.1487,-37.65625 -0.7713,-3.07125 -2.7837,-4.99 -6.035,-5.7625 -1.8262,-0.2825 -4.4625,-0.185 -7.91,0.29375 -4.1162,0.96625 -7.6562,1.875 -10.625,2.73375 -0.4837,0.19625 -1.3475,0.46375 -2.5975,0.80125 -1.2412,0.3275 -2.0075,0.5375 -2.305,0.625 -8.2325,2.02125 -16.3775,4.8 -24.4337,8.34 -1.3425,0.67875 -3.1588,1.30375 -5.4488,1.875 -1.1625,0.2875 -2.315,0.43 -3.4575,0.43 -3.36,-0.28375 -6.5725,-1.1425 -9.6287,-2.57875 l -1.1525,-0.58625 c -0.093,0.0937 -0.5025,0.62 -1.23,1.5825 -0.7188,0.96625 -1.265,1.73375 -1.6413,2.305 -4.2188,5.56125 -8.6813,10.4 -13.3787,14.51125 -1.9138,1.63125 -3.1588,2.78375 -3.73,3.4575 -3.4525,3.34875 -6.0888,5.26375 -7.9113,5.74125 -0.092,0 -0.3312,0.0738 -0.7225,0.215 -0.38,0.1475 -0.6638,0.26875 -0.8587,0.37125 -0.5763,0.38125 -0.86,0.46875 -0.86,0.27375 0.1962,-0.66375 0.435,-1.3325 0.7225,-2.01125 0.2837,-0.9475 0.9037,-2.29 1.8562,-4.02375 4.6975,-7.56375 9.6387,-16.95375 14.8238,-28.16375 1.3387,-2.96875 2.8225,-6.5625 4.4537,-10.78125 4.1113,-11.02625 7.8513,-22.48125 11.21,-34.35625 0.1963,-0.57125 0.4787,-1.62625 0.86,-3.16375 0.3763,-1.533747 0.6638,-2.543747 0.8588,-3.027497 2.3937,-8.4225 3.7362,-16.42625 4.0237,-24.00375 0.1025,-3.16375 0.3425,-5.22 0.7225,-6.1725 0.4787,-1.05375 1.055,-1.7225 1.7188,-2.01125 z m -6.3275,-49.60875 c -6.9926,-0.46875 -15.0388,-0.415 -24.1413,0.15625 -38.8175,2.5775 -73.2175,16.425 -103.202501,41.5425 -4.99,4.11625 -10.1662,8.90625 -15.5275,14.375 -7.1875,7.1875 -13.6137,14.565 -19.2775,22.12875 -21.2787,28.554997 -33.115,60.854997 -35.5075,96.894997 -0.6637,10.53625 -0.5662,20.54625 0.2925,30.03875 1.5337,20.7025 6.47,40.4975 14.805,59.375 1.9138,4.6 4.3063,9.33625 7.1875,14.21875 13.0325,23.67125 30.43,43.99375 52.1875,60.95745 32.861301,25.4926 70.283801,38.2413 112.265001,38.2413 45.7137,0 86.3,-15.19 121.7588,-45.5663 7.47,-6.4162 14.1787,-13.03245 20.1162,-19.8437 27.7988,-31.055 43.2813,-66.845 46.4463,-107.3825 0.3762,-3.93125 0.5662,-9.395 0.5662,-16.38625 0,-12.46125 -1.0062,-24.2 -3.0075,-35.215 -6.4362,-35.36125 -23.1162,-66.895 -50.04,-94.589997 -10.82,-11.21125 -22.3625,-20.98125 -34.6287,-29.31625 -22.905,-15.245 -47.8263,-24.63875 -74.765,-28.18375 -6.2263,-0.76625 -11.4013,-1.25 -15.5275,-1.445 z M 196.36292,0.10185263 c 1.25,-0.10250000219 4.3162,-0.12625 9.1987,-0.0775 4.8825,0.0538 7.95,0.12625 9.2,0.215 15.625,0.96624997 29.5163,3.11999997 41.6788,6.46374997 17.1587,4.5075004 33.8875,11.6025004 50.1762,21.2900004 13.6963,8.2325 26.65,18.29125 38.8675,30.175 12.2263,11.89 22.7438,24.63875 31.5625,38.2425 16.1963,25.209997 26.0737,52.476247 29.6288,81.797497 3.6324,28.8425 1.665,56.67875 -5.8988,83.515 -5.2737,18.39875 -13.2325,35.88875 -23.8675,52.46125 -7.8662,12.085 -17.2162,23.60875 -28.0462,34.57 -10.82,10.9762 -22.32,20.5375 -34.4926,28.6912 -19.6387,12.9301 -40.5274,22.0751 -62.6762,27.4413 -11.9812,2.6963 -24.3887,4.42 -37.2262,5.1763 -2.0063,0.1025 -5.7713,0.1562 -11.2888,0.1562 -5.5075,0 -9.2675,-0.054 -11.27,-0.1562 -19.2725,-1.0551 -37.2412,-4.4088 -53.9062,-10.0588 -15.4288,-5.2737 -29.8575,-12.4125 -43.281301,-21.4063 -10.5362,-7.0062 -20.3075,-14.8637 -29.3162,-23.5737 -3.4513,-3.165 -7.715,-7.53 -12.7925,-13.0863 -31.1475,-34.1112 -48.4475004,-73.9312 -51.8950004,-119.4537 -1.25,-16.1025 -0.8688,-31.445 1.1524,-46.015 4.9713,-39.385 21.0738004,-74.55625 48.3013004,-105.507497 6.8987,-7.66625 13.13,-13.99 18.6913,-18.965 7.6562,-7.1875 16.1812,-13.945 25.5862,-20.27375 27.303801,-18.11 57.821301,-28.4612504 91.562501,-31.05500037 1.625,-0.195 5.0775,-0.38 10.3513,-0.56625 z"
     inkscape:connector-curvature="0" /></svg>