<?xml version="1.0" encoding="UTF-8" standalone="no"?>
<!-- Created with Inkscape (http://www.inkscape.org/) -->

<svg
   xmlns:dc="http://purl.org/dc/elements/1.1/"
   xmlns:cc="http://creativecommons.org/ns#"
   xmlns:rdf="http://www.w3.org/1999/02/22-rdf-syntax-ns#"
   xmlns:svg="http://www.w3.org/2000/svg"
   xmlns="http://www.w3.org/2000/svg"
   xmlns:sodipodi="http://sodipodi.sourceforge.net/DTD/sodipodi-0.dtd"
   xmlns:inkscape="http://www.inkscape.org/namespaces/inkscape"
   version="1.1"
   width="408.37531"
   height="408.53674"
   id="svg2"
   xml:space="preserve"
   inkscape:version="0.48.4 r9939"
   sodipodi:docname="red_advisor.svg"><sodipodi:namedview
     pagecolor="#ffffff"
     bordercolor="#666666"
     borderopacity="1"
     objecttolerance="10"
     gridtolerance="10"
     guidetolerance="10"
     inkscape:pageopacity="0"
     inkscape:pageshadow="2"
     inkscape:window-width="1920"
     inkscape:window-height="1024"
     id="namedview9"
     showgrid="false"
     inkscape:zoom="0.59698728"
     inkscape:cx="461.88483"
     inkscape:cy="146.3926"
     inkscape:window-x="0"
     inkscape:window-y="0"
     inkscape:window-maximized="1"
     inkscape:current-layer="svg2"
     fit-margin-top="0"
     fit-margin-left="0"
     fit-margin-right="0"
     fit-margin-bottom="0" /><metadata
     id="metadata8"><rdf:RDF><cc:Work
         rdf:about=""><dc:format>image/svg+xml</dc:format><dc:type
           rdf:resource="http://purl.org/dc/dcmitype/StillImage" /><dc:title /></cc:Work></rdf:RDF></metadata><defs
     id="defs6" /><path
     sodipodi:type="arc"
     style="color:#000000;fill:#ffffff;fill-opacity:1;fill-rule:nonzero;stroke:none;stroke-width:1;marker:none;visibility:visible;display:inline;overflow:visible;enable-background:accumulate"
     id="path2982"
     sodipodi:cx="197.80461"
     sodipodi:cy="196.95726"
     sodipodi:rx="197.80461"
     sodipodi:ry="197.80461"
     d="m 395.60922,196.95726 a 197.80461,197.80461 0 1 1 -395.60922,0 197.80461,197.80461 0 1 1 395.60922,0 z"
     transform="translate(6.3830414,7.3111115)" /><path
     id="path3108"
     style="fill:#000000;fill-opacity:1;fill-rule:nonzero;stroke:none"
     d="m 226.42503,68.009187 2.305,0 c 5.5575,0.28875 12.3638,3.11625 20.41,8.4775 1.5338,1.1475 2.5888,1.865 3.165,2.1475 3.54,2.2175 6.1225,4.66375 7.7538,7.34375 1.25,2.295 1.875,4.3075 1.875,6.03625 0,0.77125 -0.8163,3.06625 -2.4413,6.89375 -0.2888,0.57625 -0.5575,1.201253 -0.8012,1.875003 -0.235,0.66375 -0.4788,1.28875 -0.7225,1.875 -0.235,0.57625 -0.3513,0.90875 -0.3513,0.99625 -1.7187,5.85 -3.3012,18.68625 -4.7462,38.51625 -0.2888,2.7875 -0.4788,10.2675 -0.5663,22.44125 0,2.86625 -0.03,5.81 -0.079,8.8275 -0.039,3.0225 -0.1125,5.3025 -0.215,6.83625 l 0,2.305 c 0.2837,0 8.6237,-1.68 25.02,-5.04 3.2512,-0.76625 7.7587,-1.7225 13.515,-2.87 9.1025,-2.0175 15.6162,-3.36 19.5512,-4.02375 7.6563,-1.445 12.4463,-2.02125 14.375,-1.73875 1.1425,0.1075 3.97,1.01625 8.4763,2.735 l 3.4375,1.1525 2.5975,2.30375 c 4.5949,3.93625 7.705,7.04625 9.3362,9.33625 0.1025,0.195 0.2738,0.44 0.5075,0.7225 0.245,0.28875 0.44,0.5575 0.5863,0.80125 0.1412,0.23375 0.215,0.44875 0.215,0.64375 0.2837,0.46875 0.43,1.045 0.43,1.71875 -0.1963,0.9675 -0.3425,1.495 -0.43,1.5825 -0.6788,1.63125 -2.07,2.73 -4.18,3.30125 -2.0063,0.67875 -4.4475,1.06375 -7.3238,1.1525 -11.9825,0.4825 -36.1825,2.69 -72.5975,6.62 -7.1,0.7575 -10.9775,1.13375 -11.6412,1.13375 l -2.0113,0.2925 c -0.1075,0.1075 -0.3275,14.10125 -0.6637,41.9925 -0.3275,27.88125 -0.4451,41.865 -0.3525,41.9525 0,0.1075 2.9199,-0.415 8.77,-1.5625 5.845,-1.15625 11.1625,-2.265 15.9575,-3.32 3.4462,-0.76625 5.6537,-1.1525 6.62,-1.1525 0.3762,-0.0875 1.1624,-0.22375 2.3637,-0.41 1.1962,-0.195 2.0363,-0.34125 2.52,-0.44875 5.2725,-1.055 8.8175,-1.5825 10.6438,-1.5825 0.665,0 3.3887,0.86875 8.1837,2.5975 0.86,0.28875 1.5038,0.50375 1.9338,0.645 0.44,0.14625 0.9225,0.34125 1.445,0.58625 0.5324,0.23375 0.8449,0.38 0.9375,0.42875 0.089,0.04 0.3224,0.18625 0.7037,0.43 0.39,0.235 0.61,0.38125 0.6638,0.43 0.049,0.0388 0.2925,0.25375 0.7225,0.64375 0.43,0.38125 0.7425,0.61625 0.9375,0.70375 4.4,3.8425 7.4662,6.90875 9.2,9.19875 1.0537,1.64125 1.5812,2.98875 1.5812,4.04375 0,0.75625 -0.1513,1.425 -0.4487,2.01125 -0.2888,0.86 -1.0063,1.62125 -2.1488,2.285 -1.8262,1.055 -4.7025,1.68 -8.6325,1.875 -0.4687,0 -7.945,0.625 -22.4225,1.875 -24.14,1.82625 -37.3625,2.78375 -39.6675,2.87125 -11.6012,0.57625 -25.645,2.49 -42.1287,5.7425 -2.8663,0.48375 -5.5963,1.10875 -8.1838,1.875 l -3.73,0.85875 -2.0125,0 c -4.13,-0.195 -8.4962,-1.1525 -13.105,-2.87125 -4.6,-1.7275 -7.9,-3.6425 -9.9025,-5.74125 -1.3425,-1.3525 -2.0112,-2.7 -2.0112,-4.04375 0,-1.80625 0.7125,-3.1925 2.1475,-4.16 0.9625,-0.67375 2.93,-1.20125 5.8987,-1.58125 12.4613,-1.71875 26.3088,-3.92625 41.5425,-6.62125 1.3388,-0.18125 2.8525,-0.415 4.5313,-0.70375 1.68,-0.2825 2.9737,-0.4975 3.8875,-0.64375 0.9075,-0.1425 1.4112,-0.215 1.5037,-0.215 l 0.9963,-0.15625 -0.1375,-23.71125 c 0,-21.275 -0.049,-35.3175 -0.1363,-42.12875 l 0,-18.39875 -0.5862,0 c -0.185,0.1075 -7.5138,1.83125 -21.9913,5.17625 -14.8587,3.35875 -22.4762,5.0875 -22.8525,5.175 -1.25,0.0937 -3.1437,0.16625 -5.6837,0.215 -2.5388,0.0538 -4.335,0.03 -5.39,-0.0775 -4.4038,-0.37625 -8.7113,-1.3525 -12.93,-2.93 -4.2188,-1.5875 -7.4313,-3.4375 -9.6288,-5.5475 -1.25,-1.3375 -1.9237,-2.62625 -2.0112,-3.86625 -0.1963,-1.82125 0.615,-3.16875 2.4412,-4.04375 0.9475,-0.46875 3.3888,-0.99625 7.3238,-1.58125 22.2362,-3.345 42.6562,-6.7 61.25,-10.05875 3.4375,-0.57125 5.8787,-1.00125 7.325,-1.28875 l 2.5775,-0.5675 c 0.1025,-0.1025 0.1025,-9.2275 0,-27.3825 -0.093,-18.16375 -0.185,-28.11 -0.2738,-29.84375 -0.4825,-8.04625 -1.0637,-15.37625 -1.7375,-21.9925 -0.3812,-2.68 -0.5662,-4.40375 -0.5662,-5.175 -0.4838,-4.306253 -1.25,-8.091253 -2.305,-11.347503 -1.1475,-3.2525 -2.1488,-5.5525 -3.0075,-6.895 -0.1963,-0.195 -0.7775,-1.015 -1.7388,-2.46125 -0.6637,-1.235 -0.9087,-2.71875 -0.7225,-4.4525 0.5863,-5.36125 2.9338,-8.37875 7.05,-9.04375 z m -80.7812,-11.66 c 0.7674,-0.46875 2.11,-0.37125 4.0237,0.29375 2.11,0.57625 4.2625,1.63 6.465,3.16375 1.25,0.77125 2.9,2.1825 4.9613,4.23875 2.055,2.06 3.8087,4.0525 5.2537,5.97625 4.3062,5.45875 5.9375,9.52625 4.8825,12.20625 -0.39,1.25 -1.7875,3.12125 -4.18,5.60625 -3.545,3.935 -6.3662,9.11125 -8.4763,15.527503 -0.5762,1.82625 -2.1574,5.0875 -4.7462,9.785 -8.2413,15.81 -15.6738,29.0775 -22.285,39.805 l -1.855,3.16375 1.2888,1.58125 c 1.1424,1.53875 2.7737,4.13125 4.8825,7.77375 3.555,6.1325 5.3325,10.25375 5.3325,12.36375 0,1.52375 -0.625,6.265 -1.875,14.21875 -0.6788,4.02375 -1.1626,11.59625 -1.445,22.715 -0.2888,16.1075 -0.43,29.42875 -0.43,39.96 0,7.67125 -0.2438,21.5725 -0.7225,41.7 -0.5763,21.17125 -0.86,31.81125 -0.86,31.91375 0,0.28875 -0.093,1.10375 -0.2726,2.44125 -0.4837,2.86625 -1.495,7.08 -3.0274,12.6375 -0.5763,2.3925 -1.0063,3.7888 -1.29,4.1788 -1.1613,2.9687 -2.5975,4.5949 -4.3163,4.8837 -1.7325,0.195 -3.1738,-0.62 -4.3163,-2.4425 -1.3424,-1.7325 -2.3437,-3.745 -3.0074,-6.035 -0.4838,-1.1562 -1.1088,-2.8363 -1.875,-5.03875 -2.8813,-7.08 -4.4625,-12.1575 -4.7463,-15.23375 -0.092,-1.82125 0.5325,-5.845 1.875,-12.07125 2.7738,-12.265 4.6388,-24.82375 5.605,-37.675 1.2362,-15.61125 2.0025,-34.9225 2.305,-57.93 0.2838,-16.485 0.1863,-27.7925 -0.2925,-33.92625 -0.4838,-7.1875 -0.9675,-11.1125 -1.445,-11.7775 0,-0.195 -0.3862,0.19125 -1.1525,1.1525 -0.3812,0.57625 -0.855,1.34375 -1.4262,2.305 -5.6638,8.81875 -13.2375,18.2525 -22.7151,28.30125 -6.8112,7.1875 -12.8512,13.085 -18.125,17.695 -0.9524,0.85875 -3.3199,2.31875 -7.1087,4.375 -3.79,2.06 -6.7337,3.525 -8.8288,4.395 -1.5375,0.66375 -2.8849,1.04875 -4.0424,1.15125 -0.9526,0.18625 -1.7675,0.5625 -2.4413,1.13375 l -0.43,0.2925 0,-0.43 c 0,-0.85875 0.3813,-1.9575 1.1525,-3.3 0.195,-0.39125 0.82,-1.11375 1.875,-2.16875 3.93,-3.915 10.5375,-12.01125 19.8237,-24.2775 13.4226,-17.64125 24.2576,-33.65125 32.5,-48.02625 7.1875,-12.15875 13.6326,-25 19.3363,-38.51625 5.7025,-13.515 9.5113,-24.966253 11.4263,-34.355003 0.9462,-4.6975 1.4737,-9.16 1.5812,-13.37875 0.088,-3.63375 0.3763,-6.075 0.86,-7.325 0.375,-1.5325 1.1425,-2.54375 2.3038,-3.0275 z m 65.4112,-40.0975 c -7.5787,-0.2825 -14.8638,-0.14125 -21.8563,0.43 -18.9737,1.25 -36.9924,5.3275 -54.0625,12.22625 -17.5287,6.905 -33.9599,16.7725 -49.2962,29.61 -18.975,15.9125 -34.16,33.6425 -45.5662,53.183753 -16.5775,28.46625 -24.63,59.95125 -24.1613,94.4525 0.2838,13.50625 1.7238,26.10375 4.3175,37.7925 7.7588,35.9375 26.3525,68.19375 55.7813,96.75875 27.89,26.9238 59.8037,43.31 95.7412,49.16 16.665,2.8613 34.0525,3.34 52.1688,1.425 34.4137,-3.6325 65.4687,-16.4737 93.1637,-38.515 6.1325,-4.99 12.31,-10.4975 18.535,-16.5425 4.985,-5.07875 8.9163,-9.34125 11.7975,-12.79375 29.8038,-34.8825 44.7063,-74.8875 44.7063,-120.01875 0,-24.15125 -4.2725,-46.915 -12.8125,-68.28125 -4.8825,-12.08 -11.1088,-23.585 -18.6713,-34.5125 -7.96,-11.406253 -17.4512,-22.231253 -28.4775,-32.480003 -11.015,-10.25875 -22.4162,-18.93125 -34.1987,-26.01625 -26.3575,-16 -55.39,-24.62875 -87.1088,-25.87875 z m -16.25,-16.09374981 c 0.375,0 1.5225,-0.0237 3.4375,-0.0775 1.9238,-0.0488 3.3637,-0.0788 4.3163,-0.0788 47.8212,-0.18 90.1362,14.48249981 126.9337,43.98499981 13.32,10.74125 25.0575,22.43625 35.2137,35.0775 25.9776,32.021253 40.3526,68.486253 43.125,109.395003 0.7675,10.9275 0.7238,21.465 -0.1362,31.62125 -1.7187,22.92 -7.2263,44.6775 -16.5238,65.2725 -2.0212,4.6 -4.4675,9.43375 -7.3437,14.5125 -9.2963,16.59125 -20.6538,31.83125 -34.0625,45.72245 -8.8175,9.1012 -18.8275,17.6762 -30.0387,25.7226 -34.6,24.815 -73.4126,37.2263 -116.4451,37.2263 -46.5775,0 -87.6912,-14.375 -123.34,-43.125 -15.1462,-11.9827 -28.6524,-25.9176 -40.5274,-41.81635 -22.9051,-30.57125 -35.7963005,-64.98 -38.67130045,-103.2225 -0.3912,-4.21875 -0.635,-8.91125 -0.7237,-14.0825 -0.5763,-45.61 12.07620045,-85.81 37.94990045,-120.605003 5.7513,-7.5775 12.7001,-15.57625 20.8401,-24.00375 12.3674,-12.36875 24.4425,-22.48 36.23,-30.3325 29.4237,-19.36 62.6812,-29.7549998 99.7662,-31.19124981 z"
     inkscape:connector-curvature="0" /></svg>