<?xml version="1.0" encoding="UTF-8" standalone="no"?>
<!-- Created with Inkscape (http://www.inkscape.org/) -->

<svg
   xmlns:dc="http://purl.org/dc/elements/1.1/"
   xmlns:cc="http://creativecommons.org/ns#"
   xmlns:rdf="http://www.w3.org/1999/02/22-rdf-syntax-ns#"
   xmlns:svg="http://www.w3.org/2000/svg"
   xmlns="http://www.w3.org/2000/svg"
   xmlns:sodipodi="http://sodipodi.sourceforge.net/DTD/sodipodi-0.dtd"
   xmlns:inkscape="http://www.inkscape.org/namespaces/inkscape"
   version="1.1"
   width="408.27539"
   height="408.56622"
   id="svg2"
   xml:space="preserve"
   inkscape:version="0.48.4 r9939"
   sodipodi:docname="red_chariot.svg"><sodipodi:namedview
     pagecolor="#ffffff"
     bordercolor="#666666"
     borderopacity="1"
     objecttolerance="10"
     gridtolerance="10"
     guidetolerance="10"
     inkscape:pageopacity="0"
     inkscape:pageshadow="2"
     inkscape:window-width="1920"
     inkscape:window-height="1024"
     id="namedview9"
     showgrid="false"
     inkscape:zoom="0.84426752"
     inkscape:cx="203.4602"
     inkscape:cy="151.83837"
     inkscape:window-x="0"
     inkscape:window-y="0"
     inkscape:window-maximized="1"
     inkscape:current-layer="svg2"
     fit-margin-top="0"
     fit-margin-left="0"
     fit-margin-right="0"
     fit-margin-bottom="0" /><metadata
     id="metadata8"><rdf:RDF><cc:Work
         rdf:about=""><dc:format>image/svg+xml</dc:format><dc:type
           rdf:resource="http://purl.org/dc/dcmitype/StillImage" /><dc:title /></cc:Work></rdf:RDF></metadata><defs
     id="defs6" /><path
     sodipodi:type="arc"
     style="color:#000000;fill:#ffffff;fill-opacity:1;fill-rule:nonzero;stroke:none;stroke-width:1;marker:none;visibility:visible;display:inline;overflow:visible;enable-background:accumulate"
     id="path2982"
     sodipodi:cx="197.80461"
     sodipodi:cy="196.95726"
     sodipodi:rx="197.80461"
     sodipodi:ry="197.80461"
     d="m 395.60922,196.95726 a 197.80461,197.80461 0 1 1 -395.60922,0 197.80461,197.80461 0 1 1 395.60922,0 z"
     transform="translate(6.3330841,7.3258514)" /><path
     id="path3150"
     style="fill:#000000;fill-opacity:1;fill-rule:nonzero;stroke:none"
     d="m 187.325,214.92404 0,-26.6025 -2.89125,0.5675 c -3.545,0.585 -8.13875,1.16625 -13.78875,1.7375 -9.10125,1.055 -17.10375,1.20125 -24.00375,0.43 -0.39125,0 -0.7575,-0.025 -1.09375,-0.0788 -0.3275,-0.0488 -0.635,-0.0775 -0.9175,-0.0775 l -0.29375,0 0,0.87875 c 0.0888,0.57625 0.18125,1.3625 0.27375,2.36375 0.1025,1.005 0.2,1.9875 0.2925,2.94875 1.25,10.15625 1.875,16.81625 1.875,19.98 l 0,0.72375 1.5825,0 c 0.28375,-0.1025 1.025,-0.17625 2.22625,-0.215 1.19625,-0.0488 2.08,-0.0788 2.65625,-0.0788 6.70375,-0.2825 14.2775,-0.81 22.715,-1.58125 1.53375,-0.0888 3.2325,-0.235 5.0975,-0.43 1.875,-0.195 3.38375,-0.3375 4.53125,-0.43 l 1.73875,-0.13625 z m 71.71875,-36.09375 c 0,-0.19625 -0.14625,-0.24 -0.43,-0.1375 -0.2875,0.0937 -0.5275,0.19125 -0.7225,0.29375 -2.77375,1.3425 -6.27,2.1575 -10.48875,2.44125 -4.795,0.57625 -7.5725,1.00625 -8.34,1.28875 -1.5375,0.28875 -3.45125,0.57625 -5.74125,0.86 -3.07625,0.38 -4.65875,0.62 -4.74625,0.7225 l -3.0275,0 c -2.57875,0 -4.395,0.0488 -5.44875,0.13625 -6.32875,0.28875 -10.06875,0.625 -11.21125,1.01625 l -0.45,0 0,27.01125 0.45,0 c 1.43,-0.28375 6.3675,-0.9575 14.805,-2.01125 7.3675,-0.9475 12.1575,-1.28 14.375,-0.99625 2.19625,0.38 5.02375,1.1475 8.47625,2.30375 0.47875,0.0937 1.055,0.26375 1.71875,0.50875 0.67375,0.23375 1.1575,0.4 1.445,0.4875 l 0.43,0 1.875,-4.59 c 2.095,-5.84375 4.2475,-14.57 6.465,-26.17125 0.18,-1.91375 0.37125,-2.96875 0.56625,-3.16375 z m -71.71875,-17.24625 0,-12.36375 -0.29375,0 c -0.195,0 -0.6775,0.0975 -1.445,0.29375 -0.195,0 -0.53625,0.0487 -1.015,0.13625 -0.46875,0.0925 -1.08875,0.19 -1.85625,0.2925 -0.77125,0.0937 -1.44,0.19125 -2.01125,0.29375 -13.125,1.91375 -25.445,3.06125 -36.95375,3.4375 -0.575,0 -1.14625,0.0287 -1.71875,0.0775 -0.575,0.0538 -1.04875,0.0788 -1.425,0.0788 l -0.45,0 c 0,1.24 0.24,4.35 0.72375,9.335 0.195,2.96875 0.53125,6.1825 1.015,9.63 0.57125,4.0225 0.90375,6.23 0.99625,6.62 l 0,0.86 2.5975,-0.15625 c 1.91375,0 5.41,-0.43 10.48875,-1.28875 19.2575,-2.77375 29.60875,-4.4 31.05375,-4.88375 l 0.29375,0 0,-12.3625 z m 71.425,-18.82875 c -2.49,-0.57125 -9.38375,-0.14125 -20.6825,1.29 -6.905,0.85875 -15.91375,1.7725 -27.03125,2.73375 l -2.305,0.2925 c -0.0925,0 -0.1375,3.92625 -0.1375,11.7775 l -0.15625,11.7975 0.29375,-0.15625 c 0.67375,-0.0875 3.59875,-0.5375 8.76875,-1.3475 5.18125,-0.82125 7.8175,-1.23125 7.91125,-1.23125 0.2825,-0.1025 2.1525,-0.24375 5.605,-0.42875 3.35875,-0.19625 5.225,-0.3375 5.605,-0.43 1.915,-0.28375 6.6075,0.47875 14.0825,2.285 1.445,0.2875 2.5,0.48375 3.16375,0.58625 2.01625,0.2875 3.79375,0.76125 5.3325,1.425 l 0.85875,0.29375 c 0.0887,0 0.235,-0.9575 0.43,-2.87125 1.055,-7.66625 1.5825,-13.89625 1.5825,-18.69125 0,-2.48625 -0.0538,-3.97 -0.15625,-4.45375 -0.665,-1.5325 -1.71875,-2.49 -3.165,-2.87125 z M 182.57875,50.744043 c 1.1425,-0.18125 3.15375,-0.0825 6.035,0.2925 4.11125,0.39125 8.47625,1.69 13.08625,3.8875 0.66375,0.38 1.475,0.66375 2.44125,0.85875 4.11125,0.67875 6.79625,1.73375 8.04625,3.16375 0.86,0.86 1.045,2.49125 0.5675,4.88375 0,0.2875 -0.0488,0.67375 -0.1375,1.1525 -0.0925,0.4825 -0.16625,0.8925 -0.215,1.23 -0.0538,0.3275 -0.0775,0.58625 -0.0775,0.78125 -0.0925,0.195 -0.19125,0.605 -0.29375,1.23 -0.0925,0.61625 -0.13625,1.01625 -0.13625,1.21125 -0.77125,2.2025 -1.48375,6.3775 -2.14875,12.52 -0.57625,7.1875 -0.815,10.83 -0.7225,10.9175 0.57125,0.28875 12.02125,-1.5825 34.35625,-5.605 5.2725,-0.9625 8.67125,-1.53375 10.195,-1.71875 3.16375,-0.19625 5.65375,-0.19625 7.48,0 5.5575,0.85875 9.96625,1.9625 13.2225,3.3 3.4475,1.34375 5.17625,3.31125 5.17625,5.89875 0,1.24 -0.43,2.285 -1.28875,3.145 -1.43625,1.25 -3.6425,2.02125 -6.62125,2.303747 -0.18625,0 -0.5175,0.0537 -0.99625,0.15625 -0.48375,0.0937 -0.9375,0.16625 -1.3675,0.215 -0.43,0.04 -0.84,0.1125 -1.23,0.215 -0.86,0.18625 -2.65625,0.49875 -5.39125,0.9375 -2.72375,0.43 -6.1025,0.98625 -10.13625,1.66 -4.02375,0.665 -6.895,1.1425 -8.61375,1.42625 -9.585,1.5375 -18.97875,2.78375 -28.18375,3.73 l -6.89375,0.86 c -0.0925,0.1075 -0.1375,4.4925 -0.1375,13.16375 0,8.6725 0.045,13.0075 0.1375,13.0075 1.055,-0.195 2.1525,-0.39 3.3,-0.585 12.745,-2.29 22.2375,-4.34625 28.4775,-6.1725 10.0625,-2.7825 17.34375,-4.32125 21.835,-4.60875 1.1575,0 2.07125,0.0975 2.735,0.2925 2.5,0.67875 7.5775,2.97875 15.23375,6.895 0.9625,0.4825 2.0175,1.01 3.165,1.58125 1.15625,0.57625 2.1925,1.08375 3.105,1.52375 0.90875,0.43 1.455,0.69375 1.64125,0.78125 5.0775,2.2025 8.4275,4.4525 10.0575,6.7575 0.7675,1.055 1.1525,2.2075 1.1525,3.4575 -0.0925,1.24 -0.95125,2.62625 -2.5775,4.16 -1.25,1.25 -2.2075,2.35375 -2.87125,3.30125 -2.21625,3.27125 -4.13625,8.2025 -5.76125,14.80375 -0.0937,0.39125 -0.5225,1.8125 -1.29,4.25875 -0.77125,2.43625 -1.9675,6.1225 -3.59375,11.05375 -1.63,4.9375 -2.96875,9.13125 -4.0225,12.57875 -5.655,17.34375 -8.6725,26.3575 -9.0625,27.03125 -2.295,4.6 -6.27,7.13875 -11.93375,7.6175 -1.71875,0.0925 -3.10625,-0.0987 -4.16,-0.5675 -1.73375,-0.86875 -3.17375,-2.50375 -4.3175,-4.90125 l -0.42875,-0.70375 -2.735,0 c -0.38,0 -1.09375,0.03 -2.14875,0.0788 -1.05375,0.0387 -2.32375,0.0875 -3.8075,0.13625 -1.485,0.0387 -2.755,0.0587 -3.80875,0.0587 -11.21125,0.2875 -18.785,0.57625 -22.715,0.85875 -3.6475,0.19625 -5.5175,0.3475 -5.60625,0.45 l -0.2925,0 0,24.14 1.01625,0 c 4.20375,-0.57125 10.7225,-0.95625 19.55,-1.1525 8.995,-0.2825 20.92375,-0.9075 35.78125,-1.875 2.3925,-0.0875 5.57625,-0.25375 9.55125,-0.4875 3.98375,-0.245 6.21625,-0.37125 6.69875,-0.37125 l 5.17625,-0.27375 19.2575,-3.0275 19.2575,-2.87125 1.1525,0.1375 c 2.68125,0.67875 7.47125,2.5 14.375,5.46875 5.36125,2.20125 9.43875,4.6975 12.22625,7.48 2.0025,2.0075 2.8175,3.8775 2.4425,5.605 -0.57625,1.8125 -2.25625,3.00875 -5.04,3.59375 -1.91375,0.38125 -7.76375,0.665 -17.53875,0.86 -5.36625,0 -9.10125,-0.0975 -11.21125,-0.2925 -10.63875,-1.25 -20.795,-1.68 -30.46875,-1.29 -15.05375,0.48375 -31.635,1.29875 -49.74625,2.44125 -21.36625,1.1475 -32.19625,1.86625 -32.48,2.14875 -0.0925,3.36 -0.13625,7.1 -0.13625,11.21125 -0.1075,21.27875 -1.1625,38.53 -3.165,51.7575 -1.7325,11.40625 -3.98375,19.2187 -6.7575,23.4375 -1.5375,2.3925 -2.93,3.5937 -4.18,3.5937 -0.38,0 -0.85375,-0.385 -1.425,-1.1525 -0.9675,-0.9662 -1.63625,-1.875 -2.0125,-2.7337 l -1.15125,-1.5825 -0.29375,-2.305 c -0.85875,-5.5562 -1.435,-11.5475 -1.71875,-17.96875 -0.0925,-1.3375 -0.13625,-12.3625 -0.13625,-33.06625 0,-19.82875 -0.0537,-29.74625 -0.15625,-29.74625 -2.0075,0 -8.18375,0.57625 -18.535,1.71875 -25.78125,2.5 -48.0175,6.00625 -66.7,10.50875 -1.92875,0.57625 -5.04875,1.19125 -9.355,1.855 -6.61625,1.25 -10.5475,1.9725 -11.7975,2.1675 -1.24,0.18625 -2.48,0.1325 -3.73,-0.15625 -1.81125,-0.4775 -3.91625,-1.3375 -6.30875,-2.5775 -4.41375,-2.3925 -8.6325,-5.07875 -12.65625,-8.0475 -2.685,-2.10875 -4.4625,-3.54375 -5.33125,-4.31625 -0.86,-0.76625 -1.29,-1.435 -1.29,-2.01125 0,-1.3375 1.25,-2.295 3.75,-2.87125 0.18125,0 2.4325,-0.0975 6.75875,-0.2925 5.54625,-0.1025 10.38,-0.3425 14.51125,-0.7225 11.69,-0.7675 25.58625,-2.295 41.68,-4.59 4.12625,-0.47875 12.895,-1.3475 26.30875,-2.5975 5.55625,-0.47875 12.89,-1.12375 21.99125,-1.93375 9.11125,-0.82125 15.48875,-1.41625 19.12125,-1.7975 l 1.73875,-0.15625 0,-24.29625 -0.45,0 -1.1325,0.15625 c -0.67875,0 -1.68875,0.0538 -3.0275,0.15625 -1.3425,0.0925 -2.63625,0.185 -3.88625,0.2725 -6.03,0.38125 -10.38625,0.71375 -13.06625,0.99625 -2.3975,0.1075 -5.65875,0.30375 -9.785,0.58625 -3.06125,0.195 -5.41,0.2925 -7.05125,0.2925 l -2.87125,0 -0.2925,1.42625 c -0.38125,0.9675 -0.7575,1.5925 -1.1325,1.875 -0.1075,0.0925 -0.58625,0.425 -1.44625,0.99625 -0.4825,0.195 -1.205,0.2925 -2.1675,0.2925 -0.9525,0 -1.71375,-0.14125 -2.285,-0.42875 -0.9675,-0.47875 -1.7775,-1.10375 -2.44125,-1.875 -3.555,-3.73625 -5.47875,-7.6175 -5.7625,-11.64125 0,-0.2825 -0.57625,-4.83375 -1.71875,-13.6525 -1.1475,-7.095 -1.91375,-12.46125 -2.30375,-16.09375 -0.86,-7.095 -2.3,-15.14625 -4.3175,-24.16 -0.66375,-2.77375 -1.5225,-5.26375 -2.5775,-7.48 -0.86,-1.71875 -2.085,-3.6525 -3.6725,-5.80125 -1.57625,-2.1575 -2.60625,-3.29125 -3.085,-3.39875 -0.38125,-0.18 -1.00625,-0.7075 -1.875,-1.58125 -0.28875,-0.46875 -0.43,-1.08375 -0.43,-1.85625 0,-0.1025 0.0437,-0.2975 0.13625,-0.585 0.1025,-0.28375 0.17625,-0.5175 0.215,-0.70375 0.0488,-0.195 0.0788,-0.34125 0.0788,-0.44875 0.2825,-0.9475 0.95625,-1.70875 2.01125,-2.285 0.47875,-0.19625 1.3475,-0.29375 2.5975,-0.29375 1.62625,0 2.68125,0.0488 3.16375,0.1375 2.96875,0.2875 5.65,1.1025 8.0475,2.44125 0.28375,0.1075 0.90875,0.15625 1.875,0.15625 17.23625,-1.1425 30.55625,-2.295 39.96125,-3.4575 9.58,-1.055 15.66375,-1.82125 18.24125,-2.305 l 0.45,0 0,-27.5975 -0.29375,0 c -0.10625,0 -1.3025,0.0975 -3.59375,0.29375 -7.95875,0.67875 -16.87,1.30375 -26.7375,1.875 -2.305,0.0925 -5.59625,0.165 -9.86375,0.21375 -4.2575,0.04 -7.34375,0.015 -9.2575,-0.0775 -3.6475,-0.0875 -6.42625,-0.3325 -8.34,-0.7225 -2.10875,-0.37625 -3.78875,-1.045 -5.03875,-2.0125 -3.74,-3.05625 -5.03,-5.165 -3.8675,-6.3275 0.86,-0.86 4.8825,-1.43125 12.07,-1.71875 9.4925,-0.28375 19.98625,-1.28875 31.485,-3.007497 3.16375,-0.47875 5.415,-0.77125 6.7575,-0.87875 10.82,-1.43125 16.28,-2.29 16.38625,-2.57875 0.0888,0 0.0638,-0.76625 -0.0775,-2.305 -0.14625,-1.5325 -0.3125,-3.26125 -0.5075,-5.175 -0.38125,-4.79 -1.19125,-9.86875 -2.44125,-15.235 -0.57625,-2.305 -1.96375,-6.99625 -4.16125,-14.08125 -0.77125,-2.305 -1.15125,-3.79 -1.15125,-4.45375 0.2825,-2.5 1.58125,-3.98875 3.88625,-4.4725 z m 28.32,-34.4925 c -7.5775,-0.2825 -14.8625,-0.14125 -21.855,0.43 -39.39,2.685 -74.4675,17.2025 -105.235,43.555 -3.545,2.96875 -7.71,6.85 -12.5,11.64 -3.8275,3.8425 -7.8075,8.06125 -11.93375,12.65625 -25.87375,30.771247 -40.15125,65.606247 -42.83125,104.512497 -1.055,12.84125 -0.7225,25.82 0.99625,38.945 4.60875,37.1 20.03875,70.4 46.28875,99.9025 34.595,38.8138 75.66375,60.0875 123.2025,63.8275 9.86875,0.87 20.06875,0.9238 30.60625,0.1562 39.97,-2.8799 75.57625,-17.9249 106.81625,-45.1362 15.3375,-13.51625 28.0325,-27.98875 38.08625,-43.41875 15.33625,-22.9925 24.6875,-48.14875 28.04625,-75.46875 0.86,-6.3275 1.3875,-13.55875 1.5825,-21.69875 0.57125,-45.23375 -13.28125,-84.71625 -41.5625,-118.457497 -11.01625,-13.2275 -23.0425,-24.72625 -36.075,-34.49125 -30.75625,-23.09625 -65.3025,-35.415 -103.6325,-36.95375 z m -16.25,-16.09375026 c 0.37625,0 1.52375,-0.0237 3.4375,-0.0775 1.92375,-0.0488 3.365,-0.0788 4.31625,-0.0788 50.22,-0.18 94.25875,15.91875026 132.11,48.30125026 12.74375,11.03 23.91125,22.76875 33.49625,35.215 23.1875,29.999997 36.3175,63.739997 39.39375,101.209997 2.77375,31.24125 -1.06375,60.80125 -11.50375,88.6925 -9.975,26.64 -25.7425,51.03 -47.305,73.16375 -8.6225,8.9163 -18.87625,17.5438 -30.76125,25.8788 -20.405,14.2825 -42.2025,24.3463 -65.39,30.195 -16.96875,4.2188 -34.605,6.1775 -52.91125,5.8788 -18.31,-0.2875 -35.75125,-2.8263 -52.32375,-7.6163 -29.805,-8.6237 -56.92875,-24.4825 -81.3675,-47.5787 -17.1475,-16.28885 -30.99625,-33.91635 -41.5425,-52.8901 -2.88125,-5.07875 -5.42,-10.15625 -7.6175,-15.235 C 7.66625,264.70899 2.305,243.14649 0.58625,220.52899 0.19625,216.49649 0,210.79274 0,203.42024 c 0,-7.38375 0.19625,-13.13 0.58625,-17.24625 3.2525,-43.125 19.16,-80.9375 47.715,-113.437497 6.52375,-7.47125 13.95,-14.94625 22.285,-22.4225 34.985,-31.61125 76.33875,-48.3300003 124.0625,-50.15625026 z"
     inkscape:connector-curvature="0" /></svg>