<?xml version="1.0" encoding="UTF-8" standalone="no"?>
<svg
   xmlns:dc="http://purl.org/dc/elements/1.1/"
   xmlns:cc="http://creativecommons.org/ns#"
   xmlns:rdf="http://www.w3.org/1999/02/22-rdf-syntax-ns#"
   xmlns:svg="http://www.w3.org/2000/svg"
   xmlns="http://www.w3.org/2000/svg"
   xmlns:sodipodi="http://sodipodi.sourceforge.net/DTD/sodipodi-0.dtd"
   xmlns:inkscape="http://www.inkscape.org/namespaces/inkscape"
   width="1000mm"
   height="1000mm"
   viewBox="0 0 1000 1000"
   version="1.1"
   id="svg8"
   inkscape:version="1.0.2 (e86c870879, 2021-01-15)"
   sodipodi:docname="bottom_right_2.svg">
  <defs
     id="defs2">
    <rect
       x="37.367827"
       y="45.941216"
       width="420.44543"
       height="418.91104"
       id="rect837" />
    <rect
       x="37.367827"
       y="45.941216"
       width="420.44543"
       height="418.91104"
       id="rect847" />
  </defs>
  <sodipodi:namedview
     id="base"
     pagecolor="#ffffff"
     bordercolor="#666666"
     borderopacity="1.0"
     inkscape:pageopacity="0.0"
     inkscape:pageshadow="2"
     inkscape:zoom="0.10437813"
     inkscape:cx="1568.3377"
     inkscape:cy="1144.6198"
     inkscape:document-units="mm"
     inkscape:current-layer="layer1"
     inkscape:document-rotation="0"
     showgrid="false"
     inkscape:window-width="1920"
     inkscape:window-height="1022"
     inkscape:window-x="0"
     inkscape:window-y="0"
     inkscape:window-maximized="1">
    <inkscape:grid
       type="xygrid"
       id="grid841" />
  </sodipodi:namedview>
  <metadata
     id="metadata5">
    <rdf:RDF>
      <cc:Work
         rdf:about="">
        <dc:format>image/svg+xml</dc:format>
        <dc:type
           rdf:resource="http://purl.org/dc/dcmitype/StillImage" />
        <dc:title />
      </cc:Work>
    </rdf:RDF>
  </metadata>
  <g
     inkscape:label="Layer 1"
     inkscape:groupmode="layer"
     id="layer1">
    <rect
       style="color:#000000;overflow:visible;fill:#333333;fill-opacity:1;stroke:#ffffff;stroke-width:40;stroke-linecap:round;stroke-linejoin:round;stroke-miterlimit:4;stroke-dasharray:none;stroke-opacity:1"
       id="rect833"
       width="500"
       height="500"
       x="670"
       y="670"
       rx="59.068226"
       ry="59.068222" />
    <path
       d="m 823.23062,1068.3175 v -26.3445 q 10.57929,-24.2702 25.72219,-42.73206 15.35034,-18.66933 32.15274,-33.6048 16.8024,-15.1429 33.18994,-28.00399 16.59496,-12.86111 29.87093,-25.7222 13.27597,-12.86109 21.36602,-26.96682 8.29747,-14.10571 8.29747,-31.9453 0,-24.06269 -14.10571,-37.33866 -14.10572,-13.27597 -39.20559,-13.27597 -23.85528,0 -39.41306,13.06853 -15.35034,12.8611 -18.04702,36.30148 l -38.16841,-3.52642 q 4.14874,-35.05687 29.66349,-55.80057 25.7222,-20.7437 65.965,-20.7437 44.18408,0 67.8319,20.95114 23.85529,20.7437 23.85529,59.11955 0,17.00984 -7.8826,33.81224 -7.6752,16.8024 -23.02554,33.60479 -15.35036,16.8024 -58.70468,52.0667 -23.85528,19.49909 -37.961,35.26426 -14.10572,15.5578 -20.32883,30.0784 h 152.46625 v 31.7379 z"
       id="path840"
       style="font-style:normal;font-variant:normal;font-weight:normal;font-stretch:normal;font-size:246.944px;line-height:125%;font-family:Sans;-inkscape-font-specification:'Sans, Normal';font-variant-ligatures:normal;font-variant-caps:normal;font-variant-numeric:normal;font-variant-east-asian:normal;letter-spacing:0px;word-spacing:0px;white-space:pre;fill:#ffffff;fill-opacity:1;stroke:#ffffff;stroke-width:0.920425;stroke-linecap:butt;stroke-linejoin:miter;stroke-miterlimit:4;stroke-dasharray:none;stroke-opacity:1" />
  </g>
</svg>
