<?xml version="1.0" encoding="UTF-8" standalone="no"?>
<svg
   xmlns:dc="http://purl.org/dc/elements/1.1/"
   xmlns:cc="http://creativecommons.org/ns#"
   xmlns:rdf="http://www.w3.org/1999/02/22-rdf-syntax-ns#"
   xmlns:svg="http://www.w3.org/2000/svg"
   xmlns="http://www.w3.org/2000/svg"
   xmlns:sodipodi="http://sodipodi.sourceforge.net/DTD/sodipodi-0.dtd"
   xmlns:inkscape="http://www.inkscape.org/namespaces/inkscape"
   version="1.1"
   width="481.60001"
   viewbox="0 0 479.0 532.0"
   height="604.10999"
   id="svg2"
   inkscape:version="0.48.5 r10040"
   sodipodi:docname="board.svg">
  <metadata
     id="metadata70">
    <rdf:RDF>
      <cc:Work
         rdf:about="">
        <dc:format>image/svg+xml</dc:format>
        <dc:type
           rdf:resource="http://purl.org/dc/dcmitype/StillImage" />
        <dc:title />
      </cc:Work>
    </rdf:RDF>
  </metadata>
  <defs
     id="defs68" />
  <sodipodi:namedview
     pagecolor="#ffffff"
     bordercolor="#666666"
     borderopacity="1"
     objecttolerance="10"
     gridtolerance="10"
     guidetolerance="10"
     inkscape:pageopacity="0"
     inkscape:pageshadow="2"
     inkscape:window-width="1920"
     inkscape:window-height="1024"
     id="namedview66"
     showgrid="false"
     fit-margin-top="0"
     fit-margin-left="0"
     fit-margin-right="0"
     fit-margin-bottom="0"
     inkscape:zoom="1"
     inkscape:cx="240.8"
     inkscape:cy="302.05499"
     inkscape:window-x="0"
     inkscape:window-y="0"
     inkscape:window-maximized="1"
     inkscape:current-layer="svg2" />
  <rect
     style="color:#000000;fill:#ffffff;fill-opacity:1;fill-rule:nonzero;stroke:none;stroke-width:10;marker:none;visibility:visible;display:inline;overflow:visible;enable-background:accumulate"
     id="rect3033"
     width="481.60001"
     height="604.10999"
     x="0"
     y="0" />
  <g
     id="g3193"
     transform="translate(1.6421614,35.941654)">
    <g
       id="g4">
      <path
         id="path6"
         d="m 27.5,27.5 0,477"
         inkscape:connector-curvature="0"
         style="stroke:#000000;stroke-width:1" />
      <path
         id="path8"
         d="m 80.5,27.5 0,212"
         inkscape:connector-curvature="0"
         style="stroke:#000000;stroke-width:1" />
      <path
         id="path10"
         d="m 80.5,292.5 0,212"
         inkscape:connector-curvature="0"
         style="stroke:#000000;stroke-width:1" />
      <path
         id="path12"
         d="m 133.5,27.5 0,212"
         inkscape:connector-curvature="0"
         style="stroke:#000000;stroke-width:1" />
      <path
         id="path14"
         d="m 133.5,292.5 0,212"
         inkscape:connector-curvature="0"
         style="stroke:#000000;stroke-width:1" />
      <path
         id="path16"
         d="m 186.5,27.5 0,212"
         inkscape:connector-curvature="0"
         style="stroke:#000000;stroke-width:1" />
      <path
         id="path18"
         d="m 186.5,292.5 0,212"
         inkscape:connector-curvature="0"
         style="stroke:#000000;stroke-width:1" />
      <path
         id="path20"
         d="m 239.5,27.5 0,212"
         inkscape:connector-curvature="0"
         style="stroke:#000000;stroke-width:1" />
      <path
         id="path22"
         d="m 239.5,292.5 0,212"
         inkscape:connector-curvature="0"
         style="stroke:#000000;stroke-width:1" />
      <path
         id="path24"
         d="m 292.5,27.5 0,212"
         inkscape:connector-curvature="0"
         style="stroke:#000000;stroke-width:1" />
      <path
         id="path26"
         d="m 292.5,292.5 0,212"
         inkscape:connector-curvature="0"
         style="stroke:#000000;stroke-width:1" />
      <path
         id="path28"
         d="m 345.5,27.5 0,212"
         inkscape:connector-curvature="0"
         style="stroke:#000000;stroke-width:1" />
      <path
         id="path30"
         d="m 345.5,292.5 0,212"
         inkscape:connector-curvature="0"
         style="stroke:#000000;stroke-width:1" />
      <path
         id="path32"
         d="m 398.5,27.5 0,212"
         inkscape:connector-curvature="0"
         style="stroke:#000000;stroke-width:1" />
      <path
         id="path34"
         d="m 398.5,292.5 0,212"
         inkscape:connector-curvature="0"
         style="stroke:#000000;stroke-width:1" />
      <path
         id="path36"
         d="m 451.5,27.5 0,477"
         inkscape:connector-curvature="0"
         style="stroke:#000000;stroke-width:1" />
      <path
         id="path38"
         d="m 27.5,27.5 424,0"
         inkscape:connector-curvature="0"
         style="stroke:#000000;stroke-width:1" />
      <path
         id="path40"
         d="m 27.5,80.5 424,0"
         inkscape:connector-curvature="0"
         style="stroke:#000000;stroke-width:1" />
      <path
         id="path42"
         d="m 27.5,133.5 424,0"
         inkscape:connector-curvature="0"
         style="stroke:#000000;stroke-width:1" />
      <path
         id="path44"
         d="m 27.5,186.5 424,0"
         inkscape:connector-curvature="0"
         style="stroke:#000000;stroke-width:1" />
      <path
         id="path46"
         d="m 27.5,239.5 424,0"
         inkscape:connector-curvature="0"
         style="stroke:#000000;stroke-width:1" />
      <path
         id="path48"
         d="m 27.5,292.5 424,0"
         inkscape:connector-curvature="0"
         style="stroke:#000000;stroke-width:1" />
      <path
         id="path50"
         d="m 27.5,345.5 424,0"
         inkscape:connector-curvature="0"
         style="stroke:#000000;stroke-width:1" />
      <path
         id="path52"
         d="m 27.5,398.5 424,0"
         inkscape:connector-curvature="0"
         style="stroke:#000000;stroke-width:1" />
      <path
         id="path54"
         d="m 27.5,451.5 424,0"
         inkscape:connector-curvature="0"
         style="stroke:#000000;stroke-width:1" />
      <path
         id="path56"
         d="m 27.5,504.5 424,0"
         inkscape:connector-curvature="0"
         style="stroke:#000000;stroke-width:1" />
      <path
         id="path58"
         d="m 186.5,27.5 106,106"
         inkscape:connector-curvature="0"
         style="stroke:#000000;stroke-width:1" />
      <path
         id="path60"
         d="m 186.5,133.5 106,-106"
         inkscape:connector-curvature="0"
         style="stroke:#000000;stroke-width:1" />
      <path
         id="path62"
         d="m 186.5,398.5 106,106"
         inkscape:connector-curvature="0"
         style="stroke:#000000;stroke-width:1" />
      <path
         id="path64"
         d="m 186.5,504.5 106,-106"
         inkscape:connector-curvature="0"
         style="stroke:#000000;stroke-width:1" />
    </g>
    <g
       id="g3169">
      <path
         inkscape:connector-curvature="0"
         id="path3095"
         style="font-size:33px;font-style:normal;font-variant:normal;font-weight:normal;font-stretch:normal;text-align:start;line-height:125%;letter-spacing:0px;word-spacing:0px;writing-mode:lr-tb;text-anchor:start;fill:#000000;fill-opacity:1;stroke:none;font-family:AR PL UKai CN;-inkscape-font-specification:AR PL UKai CN"
         d="m 28.737332,-26.334123 0,17.24121 c -10e-6,1.1816501 1.18163,1.7724701 3.54492,1.7724601 l 0,0.90235 -9.41016,0 0,-0.90235 c 2.36328,1e-5 3.54492,-0.59081 3.54492,-1.7724601 l 0,-13.59961 c 0,-1.03123 -1.16016,-1.54685 -3.48047,-1.54687 l 0,-0.70899 5.44629,-1.38574 0.3545,0" />
      <path
         inkscape:connector-curvature="0"
         id="path3097"
         style="font-size:33px;font-style:normal;font-variant:normal;font-weight:normal;font-stretch:normal;text-align:start;line-height:125%;letter-spacing:0px;word-spacing:0px;writing-mode:lr-tb;text-anchor:start;fill:#000000;fill-opacity:1;stroke:none;font-family:AR PL UKai CN;-inkscape-font-specification:AR PL UKai CN"
         d="m 81.744284,-14.861463 c -2.29884,1.46094 -3.96387,2.86817 -4.99512,4.22168 -0.6875,0.75196 -1.12793,1.67578 -1.32129,2.7714801 l 5.89746,0 c 2.10546,0 3.79198,-0.8701101 5.05957,-2.6103501 l 0.54786,0.25781 -1.38575,3.8027401 -11.82715,0 c 0,-1.7187501 0.46192,-3.1367201 1.38575,-4.2539101 1.03124,-1.52538 2.85741,-3.2119 5.47851,-5.05957 2.72851,-1.93358 4.09276,-3.71678 4.09278,-5.34961 -2e-5,-1.39647 -0.5049,-2.57811 -1.51465,-3.54492 -0.77345,-0.73045 -1.67579,-1.09568 -2.70703,-1.0957 -1.00978,2e-5 -1.91212,0.3008 -2.70703,0.90234 -0.79493,0.5801 -1.19239,1.07424 -1.19239,1.48242 0,0.38674 0.0859,0.69826 0.25781,0.93457 0.30078,0.40822 0.45117,0.85939 0.45118,1.35352 -10e-6,0.25783 -0.1504,0.54786 -0.45118,0.87011 -0.30078,0.32229 -0.67676,0.48342 -1.12792,0.4834 -0.53712,2e-5 -0.97755,-0.16111 -1.32129,-0.4834 -0.38672,-0.36521 -0.58008,-0.81639 -0.58008,-1.35351 0,-1.31053 0.6875,-2.51365 2.0625,-3.60938 1.20312,-0.98826 2.74999,-1.4824 4.64062,-1.48242 1.89062,2e-5 3.48046,0.52639 4.76953,1.5791 1.24608,1.00979 1.86913,2.33108 1.86914,3.96387 -1e-5,1.86916 -1.79395,3.9424 -5.38183,6.21973" />
      <path
         inkscape:connector-curvature="0"
         id="path3099"
         style="font-size:33px;font-style:normal;font-variant:normal;font-weight:normal;font-stretch:normal;text-align:start;line-height:125%;letter-spacing:0px;word-spacing:0px;writing-mode:lr-tb;text-anchor:start;fill:#000000;fill-opacity:1;stroke:none;font-family:AR PL UKai CN;-inkscape-font-specification:AR PL UKai CN"
         d="m 140.0406,-11.832163 c -2e-5,1.74024 -0.65529,3.09375 -1.96582,4.0605501 -1.22462,0.90234 -2.68556,1.35351 -4.38281,1.35351 -2.08399,0 -3.77052,-0.52636 -5.05957,-1.5791 -1.16016,-0.9453101 -1.74024,-2.0195301 -1.74024,-3.2226601 0,-0.51561 0.17187,-0.9453 0.51563,-1.28906 0.34374,-0.32226 0.75195,-0.48339 1.22461,-0.4834 0.36523,1e-5 0.70898,0.16114 1.03125,0.4834 0.32226,0.32227 0.48339,0.75196 0.48339,1.28906 0,0.25782 -0.0967,0.48341 -0.29004,0.67676 -0.12891,0.12891 -0.22559,0.37598 -0.29003,0.74121 -0.043,0.21485 0.35448,0.69825 1.19238,1.4502 0.77343,0.6875001 1.75097,1.0312501 2.93262,1.0312501 0.90233,0 1.81542,-0.37598 2.73925,-1.1279301 0.77343,-0.62304 1.16015,-1.75097 1.16016,-3.38379 -10e-6,-1.56835 -0.39747,-2.71776 -1.19238,-3.44824 -0.58009,-0.5371 -1.46095,-0.80566 -2.64258,-0.80567 l -1.61133,0 0,-1.28906 1.61133,0 c 0.64452,1e-5 1.26757,-0.32225 1.86914,-0.9668 0.88085,-0.94529 1.32128,-2.12693 1.32129,-3.54492 -1e-5,-1.41795 -0.37599,-2.48142 -1.12793,-3.19043 -0.68751,-0.64451 -1.46095,-0.96677 -2.32031,-0.96679 -1.13868,2e-5 -2.03028,0.41896 -2.67481,1.25683 -0.58008,0.75197 -0.74121,1.2676 -0.4834,1.54688 0.34375,0.36525 0.51562,0.75197 0.51563,1.16015 -1e-5,0.53713 -0.1504,0.97756 -0.45117,1.32129 -0.30079,0.34377 -0.68751,0.51564 -1.16016,0.51563 -0.42969,10e-6 -0.80567,-0.17186 -1.12793,-0.51563 -0.34375,-0.36522 -0.51563,-0.80565 -0.51562,-1.32129 -1e-5,-1.18162 0.63378,-2.34177 1.90136,-3.48047 1.03125,-0.9238 2.36328,-1.38572 3.9961,-1.38574 1.6328,2e-5 3.01854,0.44045 4.15722,1.32129 1.16015,0.88088 1.74022,2.12697 1.74024,3.73828 -2e-5,1.99806 -0.9883,3.49123 -2.96485,4.47949 -0.34376,0.17189 -0.64454,0.33302 -0.90234,0.4834 0.40819,0.10744 0.83788,0.23634 1.28906,0.38672 2.14843,0.75197 3.22264,2.32032 3.22266,4.70508" />
      <path
         inkscape:connector-curvature="0"
         id="path3101"
         style="font-size:33px;font-style:normal;font-variant:normal;font-weight:normal;font-stretch:normal;text-align:start;line-height:125%;letter-spacing:0px;word-spacing:0px;writing-mode:lr-tb;text-anchor:start;fill:#000000;fill-opacity:1;stroke:none;font-family:AR PL UKai CN;-inkscape-font-specification:AR PL UKai CN"
         d="m 189.91549,-11.542133 3.7705,0 0,0.90235 -3.7705,0 0,1.83691 c 0.0215,0.9882901 0.78416,1.4824301 2.28808,1.4824201 l 0,0.90235 -6.86426,0 0,-0.90235 c 1.5039,1e-5 2.25585,-0.49413 2.25586,-1.4824201 l 0,-1.83691 -8.28222,0 0,-1.12793 9.53906,-14.56641 1.06348,0 0,14.79199 m -2.32032,0 0,-11.21484 -7.21875,11.21484 7.21875,0" />
      <path
         inkscape:connector-curvature="0"
         id="path3103"
         style="font-size:33px;font-style:normal;font-variant:normal;font-weight:normal;font-stretch:normal;text-align:start;line-height:125%;letter-spacing:0px;word-spacing:0px;writing-mode:lr-tb;text-anchor:start;fill:#000000;fill-opacity:1;stroke:none;font-family:AR PL UKai CN;-inkscape-font-specification:AR PL UKai CN"
         d="m 245.16497,-26.656383 -0.70898,1.61133 -8.76562,0 0,7.41211 c 1.33203,-0.77343 2.81444,-1.16014 4.44727,-1.16016 1.54686,2e-5 2.8574,0.46193 3.93163,1.38574 1.46092,1.22463 2.1914,2.94337 2.1914,5.15625 -1e-5,1.84767 -0.68751,3.3086 -2.0625,4.3828201 -1.2461,0.9668 -2.77149,1.45019 -4.57617,1.45019 -1.80469,0 -3.48047,-0.51562 -5.02734,-1.54687 -1.16016,-0.7519501 -1.74024,-1.5361301 -1.74024,-2.3525401 0,-0.51562 0.17188,-0.93457 0.51563,-1.25684 0.25781,-0.27929 0.62304,-0.41894 1.0957,-0.41894 0.45117,0 0.83789,0.18262 1.16016,0.54785 0.34374,0.34375 0.51562,0.71973 0.51562,1.12793 0,0.17188 -0.0859,0.32227 -0.25781,0.45117 -0.17188,0.1504 -0.23633,0.30079 -0.19336,0.45117 0.10742,0.34376 0.45117,0.69825 1.03125,1.06348 1.11718,0.6875001 2.08398,1.0312501 2.90039,1.0312501 0.94531,0 1.84765,-0.38672 2.70703,-1.1601601 0.98827,-0.90234 1.48241,-2.15917 1.48243,-3.77051 -2e-5,-1.9121 -0.55861,-3.40526 -1.67579,-4.47949 -0.77344,-0.77342 -1.71875,-1.16014 -2.83593,-1.16015 -1.33204,10e-6 -2.77149,0.50489 -4.31836,1.51464 l -0.32227,-0.41894 0,-9.86133 10.50586,0" />
      <path
         inkscape:connector-curvature="0"
         id="path3105"
         style="font-size:33px;font-style:normal;font-variant:normal;font-weight:normal;font-stretch:normal;text-align:start;line-height:125%;letter-spacing:0px;word-spacing:0px;writing-mode:lr-tb;text-anchor:start;fill:#000000;fill-opacity:1;stroke:none;font-family:AR PL UKai CN;-inkscape-font-specification:AR PL UKai CN"
         d="m 288.23476,-23.723763 c 1.41796,-2.14842 3.20116,-3.22264 5.34961,-3.22266 1.28905,2e-5 2.38475,0.34377 3.28711,1.03125 1.05272,0.79494 1.57907,1.63283 1.5791,2.51367 -3e-5,0.45119 -0.18264,0.83791 -0.54785,1.16016 -0.38674,0.23635 -0.71974,0.35451 -0.99903,0.35449 -0.36525,2e-5 -0.69825,-0.13963 -0.99902,-0.41894 -0.34376,-0.32225 -0.51564,-0.68748 -0.51563,-1.09571 -10e-6,-0.36521 0.0967,-0.65525 0.29004,-0.87011 0.1289,-0.15037 -0.0107,-0.47264 -0.41894,-0.9668 -0.45119,-0.53709 -0.99904,-0.80564 -1.64356,-0.80566 -1.35352,2e-5 -2.52442,0.80568 -3.51269,2.41699 -1.05275,1.69728 -1.64356,3.89943 -1.77247,6.60644 1.78319,-1.4824 3.4912,-2.22362 5.12402,-2.22363 1.5039,10e-6 2.78221,0.47267 3.83496,1.41797 1.24608,1.1172 1.86913,2.8252 1.86914,5.12402 0,1.86915 -0.66602,3.40528 -1.99804,4.6084 -1.2461,1.1171901 -2.80372,1.6757801 -4.67285,1.6757801 -1.84766,0 -3.42676,-0.80566 -4.7373,-2.4169901 -1.26758,-1.56835 -1.90137,-3.64159 -1.90137,-6.21973 0,-3.37303 0.79492,-6.26268 2.38477,-8.66894 m 0.0644,8.66894 c 0,2.7715 0.39746,4.74806 1.19238,5.92969 0.8164,1.2031301 1.81543,1.8046901 2.99707,1.8046901 1.35351,0 2.37402,-0.41894 3.06153,-1.2568401 0.77342,-0.94531 1.16014,-2.3203 1.16015,-4.125 -10e-6,-1.97655 -0.34376,-3.34081 -1.03125,-4.09277 -0.73048,-0.79491 -1.67579,-1.19237 -2.83593,-1.19238 -1.09571,10e-6 -2.61036,0.69825 -4.54395,2.09472 l 0,0.83789" />
      <path
         inkscape:connector-curvature="0"
         id="path3107"
         style="font-size:33px;font-style:normal;font-variant:normal;font-weight:normal;font-stretch:normal;text-align:start;line-height:125%;letter-spacing:0px;word-spacing:0px;writing-mode:lr-tb;text-anchor:start;fill:#000000;fill-opacity:1;stroke:none;font-family:AR PL UKai CN;-inkscape-font-specification:AR PL UKai CN"
         d="m 345.38921,-7.6427129 c -10e-6,0.34376 -0.11817,0.63379 -0.3545,0.87012 -0.23633,0.23633 -0.52637,0.35449 -0.87011,0.35449 -0.34376,0 -0.6338,-0.11816 -0.87012,-0.35449 -0.23633,-0.23633 -0.3545,-0.52636 -0.35449,-0.87012 -1e-5,-2.9003801 0.49413,-5.5859301 1.48242,-8.0566401 0.90234,-2.16991 2.95409,-5.28514 6.15527,-9.3457 l -3.38379,0 c -2.04102,2e-5 -3.56641,0.27932 -4.57617,0.83789 -0.79492,0.45119 -1.7832,1.90138 -2.96484,4.35059 l -0.74121,-0.54786 1.80469,-6.25195 11.47265,0 0,0.90234 c -2.6211,3.37307 -4.38282,6.19826 -5.28515,8.47559 -1.00978,2.53517 -1.51466,5.74708 -1.51465,9.6357401" />
      <path
         inkscape:connector-curvature="0"
         id="path3109"
         style="font-size:33px;font-style:normal;font-variant:normal;font-weight:normal;font-stretch:normal;text-align:start;line-height:125%;letter-spacing:0px;word-spacing:0px;writing-mode:lr-tb;text-anchor:start;fill:#000000;fill-opacity:1;stroke:none;font-family:AR PL UKai CN;-inkscape-font-specification:AR PL UKai CN"
         d="m 398.68382,-6.4181029 c -2.0625,0 -3.80274,-0.5371 -5.2207,-1.6113301 -1.28906,-0.96679 -1.9336,-2.16991 -1.93359,-3.60937 -1e-5,-0.83788 0.34374,-1.75097 1.03125,-2.73926 0.60156,-0.85936 1.82616,-1.72948 3.67382,-2.61035 -1.22461,-0.70897 -2.10547,-1.39647 -2.64257,-2.0625 -0.77344,-0.9453 -1.16016,-1.91209 -1.16016,-2.90039 0,-1.46092 0.6123,-2.68553 1.83691,-3.67383 1.07422,-0.88084 2.4707,-1.32127 4.18946,-1.32129 1.41796,2e-5 2.64256,0.38674 3.67382,1.16016 1.41796,1.05275 2.12694,2.20217 2.12696,3.44824 -2e-5,0.75197 -0.25783,1.48244 -0.77344,2.19141 -0.51564,0.73048 -1.70802,1.61134 -3.57715,2.64257 2.14843,0.94533 3.66307,1.94435 4.54395,2.99707 0.70897,0.8379 1.06346,1.68654 1.06347,2.5459 -10e-6,1.41798 -0.59083,2.65333 -1.77246,3.70606 -1.39649,1.2246101 -3.08302,1.8369101 -5.05957,1.8369101 m 3.57715,-7.0898401 c -0.49415,-0.58007 -1.78321,-1.38573 -3.86719,-2.41699 -0.30079,-0.15038 -0.5586,-0.26855 -0.77343,-0.3545 -1.5254,0.81642 -2.48145,1.54689 -2.86817,2.19141 -0.51563,0.8379 -0.77344,1.6543 -0.77344,2.44922 0,1.20313 0.4082,2.18067 1.22461,2.93262 1.00976,0.9238301 2.16992,1.3857401 3.48047,1.3857401 1.05273,0 2.06249,-0.38672 3.0293,-1.1601601 0.90233,-0.73046 1.3535,-1.75097 1.35352,-3.06152 -2e-5,-0.66601 -0.26857,-1.32128 -0.80567,-1.96582 m -6.92871,-6.73535 c 0.5371,0.64454 1.62206,1.36427 3.25488,2.15918 1.31054,-0.68749 2.23437,-1.38573 2.77149,-2.09473 0.58006,-0.79491 0.8701,-1.62205 0.87011,-2.48145 -1e-5,-1.00974 -0.38673,-1.83689 -1.16015,-2.48144 -0.73048,-0.60154 -1.65431,-0.90232 -2.77149,-0.90234 -1.05274,2e-5 -1.96582,0.34377 -2.73925,1.03125 -0.73048,0.64455 -1.09571,1.48244 -1.09571,2.51367 0,0.79494 0.29004,1.54689 0.87012,2.25586" />
      <path
         inkscape:connector-curvature="0"
         id="path3111"
         style="font-size:33px;font-style:normal;font-variant:normal;font-weight:normal;font-stretch:normal;text-align:start;line-height:125%;letter-spacing:0px;word-spacing:0px;writing-mode:lr-tb;text-anchor:start;fill:#000000;fill-opacity:1;stroke:none;font-family:AR PL UKai CN;-inkscape-font-specification:AR PL UKai CN"
         d="m 455.96019,-9.254043 c -1.3105,1.8906301 -3.1689,2.8359401 -5.57518,2.8359401 -1.43946,0 -2.65332,-0.34375 -3.6416,-1.03125 -1.03125,-0.7089801 -1.54688,-1.3857401 -1.54687,-2.0302701 -1e-5,-0.55859 0.10742,-0.988279 0.32225,-1.28906 0.23634,-0.32226 0.59083,-0.4834 1.06349,-0.4834 0.45117,0 0.85937,0.17188 1.22461,0.51562 0.32226,0.30079 0.48338,0.8379 0.4834,1.61133 -1e-5,0.38672 0.16112,0.78418 0.4834,1.1923801 0.32226,0.40821 0.85936,0.61231 1.61132,0.61231 1.26757,0 2.44918,-0.7519501 3.54488,-2.2558601 1.03129,-1.41796 1.62209,-3.59863 1.77249,-6.54199 -1.418,1.61133 -3.00779,2.417 -4.76952,2.41699 -1.84767,10e-6 -3.35157,-0.60155 -4.51171,-1.80469 -1.11719,-1.16014 -1.67579,-2.73924 -1.67579,-4.7373 0,-1.9121 0.67676,-3.55565 2.03028,-4.93067 1.16014,-1.18162 2.6533,-1.77244 4.47949,-1.77246 2.06245,2e-5 3.78125,0.82717 5.15625,2.48145 1.1601,1.41798 1.7402,3.85646 1.7402,7.31543 0,3.15821 -0.7305,5.79004 -2.19139,7.8955 m -7.60546,-15.27539 c -0.77344,1.07424 -1.16016,2.50295 -1.16016,4.28614 0,1.84767 0.37599,3.26563 1.12793,4.2539 0.70898,0.92384 1.51465,1.38576 2.417,1.38574 1.26756,2e-5 2.42768,-0.37596 3.48048,-1.12792 0.3222,-0.23632 0.8164,-0.69823 1.4824,-1.38575 0,-3.5449 -0.3867,-5.89744 -1.1602,-7.05761 -0.8379,-1.24608 -1.9228,-1.86912 -3.25483,-1.86914 -1.22462,2e-5 -2.20216,0.5049 -2.93262,1.51464" />
    </g>
    <g
       id="g3180">
      <path
         inkscape:connector-curvature="0"
         id="path3113"
         style="font-size:33px;font-style:normal;font-variant:normal;font-weight:normal;font-stretch:normal;text-align:start;line-height:125%;letter-spacing:0px;word-spacing:0px;writing-mode:lr-tb;text-anchor:start;fill:#000000;fill-opacity:1;stroke:none;font-family:AR PL UKai CN;-inkscape-font-specification:AR PL UKai CN"
         d="m 33.111287,541.00553 c -0.83791,3.11525 -1.35353,5.96193 -1.54687,8.54004 -0.086,1.9336 0.0859,3.45899 0.51562,4.57617 0.40819,1.03126 1.05272,1.80469 1.9336,2.32032 0.85935,0.47265 2.08396,0.80566 3.67383,0.99902 1.56833,0.12891 3.07223,0.0107 4.51171,-0.35449 1.11716,-0.2793 2.06247,-0.66602 2.83594,-1.16016 0.45114,-0.25781 0.59079,-0.63379 0.41895,-1.12793 -0.40824,-1.43945 -0.63382,-3.26562 -0.67676,-5.47851 -0.0215,-0.45117 -0.10745,-0.65527 -0.25781,-0.61231 -0.15042,-0.0215 -0.29007,0.18263 -0.41895,0.61231 -0.25784,0.90235 -0.53714,1.86914 -0.83789,2.90039 -0.25784,0.85938 -0.67679,1.53613 -1.25684,2.03027 -0.40823,0.40821 -1.23537,0.67676 -2.48144,0.80566 -1.41799,0.21485 -2.69631,0.13965 -3.83496,-0.22558 -0.9883,-0.2793 -1.66506,-0.76269 -2.03027,-1.4502 -0.47268,-0.83788 -0.61233,-2.1914 -0.41895,-4.06054 0.21482,-2.01953 0.80564,-4.27538 1.77246,-6.76758 0.40818,-1.09569 0.94529,-1.92284 1.61133,-2.48145 0.34373,-0.32225 0.50486,-0.62303 0.4834,-0.90234 -0.0645,-0.2578 -0.87014,-0.73045 -2.41699,-1.41797 -0.34378,-0.21482 -0.71975,-0.15037 -1.12793,0.19336 -1.05276,0.77346 -2.51369,1.41799 -4.38282,1.93359 -0.32228,0.086 -0.60157,0.1719 -0.83789,0.25782 0.0215,-0.0859 0.043,-0.1826 0.0645,-0.29004 0.15037,-1.11717 0.33299,-2.23436 0.54785,-3.35157 0.0859,-1.16013 0.35447,-2.25583 0.80566,-3.28711 0.21483,-0.47263 0.10741,-0.82712 -0.32226,-1.06347 -0.47268,-0.32224 -0.91311,-0.55857 -1.32129,-0.70899 -0.60158,-0.32224 -1.14943,-0.38669 -1.64356,-0.19336 -0.34376,0.12894 -0.4297,0.38675 -0.25781,0.77344 0.47264,0.83792 0.70897,1.74026 0.70898,2.70703 -10e-6,0.66604 -0.0215,1.39651 -0.0644,2.19141 -0.0215,1.16017 -0.16115,2.40627 -0.41894,3.73828 -1.28908,0.34377 -2.55666,0.69826 -3.80274,1.06348 -0.98829,0.25783 -2.32032,0.40822 -3.99609,0.45117 -0.34376,10e-6 -0.48341,0.17189 -0.41895,0.51562 0.0859,0.27932 0.42968,0.59084 1.03125,0.93457 0.70898,0.38674 1.49316,0.39748 2.35254,0.0322 1.6328,-0.64452 3.14745,-1.18162 4.54395,-1.61133 -0.15041,0.60158 -0.32228,1.24611 -0.51563,1.9336 -0.70899,2.08399 -1.66505,3.98536 -2.86816,5.7041 -0.92384,1.41797 -2.27735,2.8252 -4.06055,4.22168 -0.40821,0.34375 -0.90235,0.70898 -1.48242,1.0957 -0.38672,0.34375 -0.78418,0.66602 -1.19238,0.9668 -0.32227,0.25781 -0.32227,0.41894 0,0.4834 0.38671,-0.0215 1.0205,-0.22559 1.90136,-0.61231 1.80468,-0.92382 3.3623,-2.06249 4.67285,-3.41601 1.5039,-1.375 2.5996,-2.84668 3.28711,-4.41504 0.27929,-0.66601 0.59081,-1.34277 0.93457,-2.03028 0.64452,-1.43944 1.09569,-2.98631 1.35352,-4.64062 1.56834,-0.53709 2.91112,-0.90233 4.02832,-1.09571 0.47264,-0.12888 0.77342,-0.12888 0.90234,0 0.0859,0.15041 0.0859,0.40823 0,0.77344" />
      <path
         inkscape:connector-curvature="0"
         id="path3115"
         style="font-size:33px;font-style:normal;font-variant:normal;font-weight:normal;font-stretch:normal;text-align:start;line-height:125%;letter-spacing:0px;word-spacing:0px;writing-mode:lr-tb;text-anchor:start;fill:#000000;fill-opacity:1;stroke:none;font-family:AR PL UKai CN;-inkscape-font-specification:AR PL UKai CN"
         d="m 77.061784,542.78182 c 0.0215,2.79298 -1.84766,5.91896 -5.60742,9.37793 -0.38672,0.12891 -1.16016,0.77344 -2.32031,1.93359 -0.25781,0.34376 -0.19336,0.48341 0.19336,0.41895 0.58007,-0.0215 1.25683,-0.30078 2.03027,-0.83789 2.4707,-1.56835 4.43652,-3.43749 5.89746,-5.60742 0.92382,-1.28905 1.81542,-2.44921 2.67481,-3.48047 0.27928,-0.27928 0.2578,-0.62303 -0.0645,-1.03125 -1.05274,-0.96678 -1.8584,-1.4287 -2.41699,-1.38574 -0.2793,0.0215 -0.40821,0.2256 -0.38672,0.6123 m 2.61036,-6.70312 c 1.4824,1.11721 2.50291,2.35256 3.06152,3.70605 0.53709,1.41799 1.29979,3.12599 2.28808,5.12402 0.98827,2.53517 2.51366,5.20997 4.57618,8.02442 0.40818,0.53711 1.16013,0.8916 2.25586,1.06347 1.28903,0.086 3.45895,0.19337 6.50976,0.32227 0.6445,0.0215 0.96677,-0.043 0.9668,-0.19336 0.0215,-0.15038 -0.2471,-0.36523 -0.80567,-0.64453 -4.89846,-2.14843 -8.38967,-4.69433 -10.47363,-7.6377 -1.35353,-1.93357 -2.95412,-4.75877 -4.80176,-8.47558 -0.51564,-1.03123 -1.29982,-1.64353 -2.35254,-1.83692 -0.79493,-0.15036 -1.22462,-0.12888 -1.28906,0.0645 -0.1504,0.21486 -0.12892,0.376 0.0645,0.4834" />
      <path
         inkscape:connector-curvature="0"
         id="path3117"
         style="font-size:33px;font-style:normal;font-variant:normal;font-weight:normal;font-stretch:normal;text-align:start;line-height:125%;letter-spacing:0px;word-spacing:0px;writing-mode:lr-tb;text-anchor:start;fill:#000000;fill-opacity:1;stroke:none;font-family:AR PL UKai CN;-inkscape-font-specification:AR PL UKai CN"
         d="m 140.01927,544.56754 c 2.21287,-0.40819 4.791,-0.63378 7.73438,-0.67676 0.53708,1e-5 0.87009,-0.10741 0.99902,-0.32227 0.12888,-0.34373 0.0429,-0.63377 -0.25781,-0.87012 -0.79495,-0.53709 -1.71878,-0.96678 -2.77148,-1.28906 -0.34378,-0.0859 -0.79495,-0.0107 -1.35352,0.22559 -0.8594,0.38673 -1.8799,0.71974 -3.06152,0.99902 -2.83596,0.60158 -5.33889,1.1924 -7.50879,1.77246 0.0644,-1.82615 0.19334,-3.65232 0.38672,-5.47851 0.12889,-1.61131 0.35447,-2.69627 0.67675,-3.25489 0.34374,-0.60154 0.21483,-1.11716 -0.38671,-1.54687 -0.77346,-0.53709 -1.3965,-0.88084 -1.86914,-1.03125 -0.66603,-0.15037 -1.09572,-0.0752 -1.28907,0.22559 -0.1504,0.21486 -0.11817,0.42971 0.0967,0.64453 0.27929,0.25783 0.50487,0.65529 0.67676,1.19238 0.2578,0.5801 0.36522,1.35354 0.32227,2.32031 0.0215,1.93361 0.043,3.49123 0.0644,4.67285 -0.086,0.73049 -0.1504,1.6006 -0.19336,2.61035 -1.48243,0.32228 -2.79298,0.64455 -3.93164,0.9668 -1.95509,0.53712 -3.66309,0.89161 -5.12402,1.06348 -0.32227,0.0215 -0.48341,0.17188 -0.4834,0.45117 0.0215,0.27931 0.26855,0.5586 0.74121,0.83789 0.4082,0.21485 1.0205,0.4297 1.83691,0.64453 0.21484,0.0215 0.51562,-0.0644 0.90235,-0.25781 0.666,-0.34374 1.74022,-0.78417 3.22265,-1.32129 0.70898,-0.2578 1.64355,-0.52636 2.80371,-0.80566 -1e-5,0.2793 0.0107,0.58009 0.0322,0.90234 -1e-5,3.75977 0.22557,6.0586 0.67676,6.89648 0.3867,0.51563 1.04198,0.93458 1.96582,1.25684 0.96678,0.2793 2.11619,0.46192 3.44824,0.54785 1.7617,0.15039 3.30857,0.13965 4.64063,-0.0322 0.79489,-0.0859 1.60056,-0.34375 2.41699,-0.77344 0.25778,-0.15039 0.38669,-0.35449 0.38672,-0.61231 -0.086,-0.4082 -0.35452,-0.71972 -0.80567,-0.93457 -0.60158,-0.34374 -1.12795,-0.49413 -1.5791,-0.45117 -0.27932,0.0215 -0.51565,0.0967 -0.70898,0.22559 -0.21487,0.19336 -1.04202,0.39746 -2.48145,0.6123 -1.89064,0.2793 -3.34084,0.30079 -4.35059,0.0644 -0.79493,-0.21483 -1.33204,-0.5371 -1.61132,-0.96679 -0.27931,-0.47265 -0.44045,-1.96582 -0.4834,-4.47949 -0.0215,-0.90234 -0.0322,-1.7832 -0.0322,-2.64258 1.69725,-0.45116 3.78123,-0.91308 6.25195,-1.38574" />
      <path
         inkscape:connector-curvature="0"
         id="path3119"
         style="font-size:33px;font-style:normal;font-variant:normal;font-weight:normal;font-stretch:normal;text-align:start;line-height:125%;letter-spacing:0px;word-spacing:0px;writing-mode:lr-tb;text-anchor:start;fill:#000000;fill-opacity:1;stroke:none;font-family:AR PL UKai CN;-inkscape-font-specification:AR PL UKai CN"
         d="m 185.08109,537.37632 c 0.666,0.5801 1.38573,1.22463 2.15918,1.93359 0.40818,0.38674 0.85936,0.55862 1.35351,0.51563 0.32225,-0.0215 0.55858,-0.23631 0.70899,-0.64453 0.12889,-0.47264 0.0322,-1.14939 -0.29004,-2.03027 -0.19338,-0.53709 -0.709,-0.97752 -1.54688,-1.32129 -2.12696,-0.64451 -3.36231,-0.85935 -3.70605,-0.64454 -0.1504,0.12894 -0.19337,0.38675 -0.12891,0.77344 0.1289,0.34378 0.61229,0.81643 1.4502,1.41797 m -10.60254,7.50879 c -0.53711,0.0215 -0.61231,0.27931 -0.22559,0.77344 0.90234,0.8379 1.82617,1.1172 2.77149,0.83789 4.83397,-1.28905 11.76268,-1.93358 20.78613,-1.9336 0.5156,2e-5 1.03122,0.0108 1.54688,0.0322 0.53708,0.0215 0.87008,-0.0859 0.99902,-0.32226 0.15036,-0.32225 0.0107,-0.666 -0.41895,-1.03125 -1.56838,-1.16014 -3.10451,-1.52538 -4.60839,-1.09571 -5.04885,0.83791 -11.99904,1.75099 -20.85059,2.73926 m 6.96094,3.54492 c -0.086,2.12696 -1.58986,4.29688 -4.51172,6.50977 -0.32227,0.12891 -0.92384,0.56934 -1.80469,1.32129 -0.2793,0.34375 -0.21485,0.49414 0.19336,0.45117 0.4082,0.0215 0.92382,-0.10742 1.54688,-0.38672 1.99803,-0.90234 3.65233,-2.05175 4.96289,-3.44824 0.83787,-0.85937 1.62205,-1.61132 2.35254,-2.25586 0.32225,-0.27929 0.33299,-0.63378 0.0322,-1.06348 -0.85939,-1.11717 -1.63282,-1.67577 -2.32031,-1.67578 -0.27931,10e-6 -0.4297,0.18263 -0.45117,0.54785 m 7.95996,1.35352 c 1.41795,1.76172 2.94334,3.88868 4.57617,6.38086 0.34373,0.64453 0.70896,1.05273 1.0957,1.22461 0.21482,0.0859 0.46189,0 0.74121,-0.25782 0.40818,-0.27929 0.52635,-1.05273 0.3545,-2.32031 -0.0645,-1.54687 -2.2344,-3.64159 -6.50977,-6.28418 -0.21486,-0.19335 -0.38674,-0.11815 -0.51562,0.22559 -0.0645,0.34376 0.0215,0.68751 0.25781,1.03125" />
      <path
         inkscape:connector-curvature="0"
         id="path3121"
         style="font-size:33px;font-style:normal;font-variant:normal;font-weight:normal;font-stretch:normal;text-align:start;line-height:125%;letter-spacing:0px;word-spacing:0px;writing-mode:lr-tb;text-anchor:start;fill:#000000;fill-opacity:1;stroke:none;font-family:AR PL UKai CN;-inkscape-font-specification:AR PL UKai CN"
         d="m 243.56385,555.26019 c 0.83787,-4.18944 1.93357,-6.90722 3.28711,-8.15332 0.40818,-0.47264 0.42966,-0.9453 0.0644,-1.41797 -0.45119,-0.34373 -1.35354,-0.83787 -2.70703,-1.48242 -0.47268,-0.21483 -0.9883,-0.20409 -1.54687,0.0322 -1.37502,0.53713 -2.69631,0.95607 -3.96387,1.25684 0.27928,-1.09569 0.73045,-2.53514 1.35351,-4.31836 0.32225,-0.45115 0.38671,-0.82713 0.19336,-1.12793 -0.25783,-0.45115 -0.52638,-0.82713 -0.80566,-1.12793 5.11326,-0.7949 7.82029,-1.28904 8.12109,-1.48242 0.21482,-0.19334 0.27928,-0.3867 0.19336,-0.58008 -0.15041,-0.32224 -0.5801,-0.58005 -1.28906,-0.77344 -0.73049,-0.21481 -2.11623,-0.0215 -4.15723,0.58008 -3.11525,0.66604 -6.16602,1.08499 -9.15234,1.25684 -0.90235,0.086 -1.042,0.35451 -0.41894,0.80566 0.85936,0.60159 2.19139,0.77346 3.99609,0.51563 0.27928,-0.0644 0.61229,-0.0967 0.99902,-0.0967 0.12889,1.18166 -0.1504,3.04006 -0.83789,5.57519 -0.12892,0.34377 -0.24708,0.75197 -0.35449,1.22461 -1.48243,0.25783 -2.98634,0.45119 -4.51172,0.58008 -0.40821,0.0215 -0.60157,0.16115 -0.58008,0.41895 0.0645,0.21485 0.333,0.39747 0.80567,0.54785 0.64452,0.27931 1.40721,0.27931 2.28808,0 0.51562,-0.0859 1.07421,-0.18261 1.67578,-0.29004 -0.64454,2.2129 -1.47169,5.12403 -2.48144,8.7334 -0.34376,0.0215 -0.69825,0.0644 -1.06348,0.1289 -3.3086,0.45118 -5.73633,0.64454 -7.2832,0.58008 -0.21485,-0.0215 -0.41895,0.043 -0.61231,0.19336 -0.21484,0.15039 -0.23633,0.3545 -0.0644,0.61231 0.32226,0.45117 1.08496,0.98828 2.28809,1.61132 0.34374,0.1504 0.76269,0.13965 1.25683,-0.0322 3.80273,-1.41797 7.74511,-2.22363 11.82715,-2.417 3.15818,-0.2578 7.64841,0.21485 13.4707,1.41797 0.47263,0.0645 0.7949,-0.0107 0.9668,-0.22558 0.15036,-0.25781 0.0107,-0.59082 -0.41894,-0.99903 -1.86917,-1.54687 -3.28714,-2.20214 -4.25391,-1.96582 -0.19339,0.0215 -2.28811,0.16114 -6.28418,0.41895 m -1.77246,-9.12012 c 0.60154,-0.15037 1.03123,-0.0967 1.28906,0.16113 0.3867,0.40822 0.51561,1.00978 0.38672,1.80469 -0.53713,2.72853 -1.16017,5.14552 -1.86914,7.25098 -1.35353,-0.0859 -3.34084,0.0322 -5.96191,0.35449 0.92381,-3.22265 1.80467,-6.18749 2.64257,-8.89453 1.11718,-0.21483 2.28807,-0.44042 3.5127,-0.67676" />
      <path
         inkscape:connector-curvature="0"
         id="path3123"
         style="font-size:33px;font-style:normal;font-variant:normal;font-weight:normal;font-stretch:normal;text-align:start;line-height:125%;letter-spacing:0px;word-spacing:0px;writing-mode:lr-tb;text-anchor:start;fill:#000000;fill-opacity:1;stroke:none;font-family:AR PL UKai CN;-inkscape-font-specification:AR PL UKai CN"
         d="m 283.71064,554.48863 c 0.21483,0.0215 0.44042,0.0215 0.67676,0 2.90038,-0.51562 7.44432,-0.84863 13.63183,-0.99903 0.12889,0.21485 0.22557,0.4297 0.29004,0.64453 0.15037,0.77345 0.37596,1.33204 0.67676,1.67578 0.19334,0.27931 0.39744,0.40821 0.6123,0.38672 0.27928,-0.0215 0.55857,-0.2578 0.8379,-0.70898 0.9238,-1.28906 1.84762,-4.64062 2.77148,-10.05469 0.21482,-1.41795 0.56931,-2.53514 1.06348,-3.35156 0.27926,-0.32225 0.39743,-0.5908 0.35449,-0.80566 -3e-5,-0.34374 -0.42972,-0.92381 -1.28906,-1.74024 -1.09573,-1.03123 -2.09476,-1.39646 -2.99707,-1.0957 -0.0215,2e-5 -2.82522,0.26857 -8.41114,0.80566 -2.98634,0.34377 -5.30665,0.66604 -6.96093,0.9668 -1.61134,0.21486 -2.82521,0.36525 -3.64161,0.45117 -0.47266,-0.27928 -0.97754,-0.49412 -1.51464,-0.64453 -0.1504,-0.0644 -0.29005,-0.0322 -0.41895,0.0967 -0.21485,0.15041 -0.19336,0.35451 0.0644,0.6123 1.28906,2.32033 1.9873,6.03713 2.09473,11.15039 0.0215,1.37501 0.44042,2.417 1.25684,3.12598 0.0644,0.0645 0.15038,0.12891 0.25781,0.19336 0.34374,0.0859 0.55858,-0.15039 0.64453,-0.70898 m 14.08301,-2.5459 c -0.40823,-0.25781 -1.00979,-0.32226 -1.80469,-0.19336 -4.57619,0.73047 -8.6797,1.20313 -12.31055,1.41797 -10e-6,-0.15039 -0.26856,-1.99804 -0.80566,-5.54297 -0.21485,-2.06249 -0.37598,-3.91014 -0.4834,-5.54297 0.25781,-0.2578 1.85839,-0.61229 4.80176,-1.06348 0.3867,0.77346 0.1826,2.53518 -0.61231,5.28516 -0.2793,0.77345 -0.62305,1.46095 -1.03125,2.0625 -0.21485,0.34376 -0.41895,0.67677 -0.6123,0.99902 -0.12892,0.12892 -0.21485,0.24708 -0.25781,0.35449 -0.0645,0.21486 0.0107,0.31154 0.22558,0.29004 1.2246,-0.27928 2.37401,-1.64354 3.44824,-4.09277 0.32226,-0.83788 0.63378,-1.84764 0.93457,-3.0293 0.0215,-0.15037 0.0752,-0.30076 0.16114,-0.45117 0.21483,-0.25779 0.2578,-0.52635 0.1289,-0.80566 -0.21485,-0.27928 -0.53712,-0.55858 -0.96679,-0.83789 0.90233,-0.19334 2.13768,-0.33299 3.70605,-0.41895 0.0215,0.086 0.0859,0.19338 0.19336,0.32227 0.3867,0.51564 0.44041,2.26662 0.16113,5.25293 -0.086,1.1172 0.10741,1.85841 0.58008,2.22363 0.60155,0.51564 2.1699,0.60157 4.70508,0.25781 0.77341,-0.0859 1.2783,-0.32225 1.51465,-0.70898 0.19333,-0.27929 0.20408,-0.48339 0.0322,-0.61231 -0.25784,-0.21483 -1.32132,-0.24705 -3.19043,-0.0967 -1.43948,2e-5 -2.16995,-0.30076 -2.19141,-0.90234 -0.0215,-0.12889 -0.0215,-0.23631 0,-0.32227 0.0215,-1.22459 0.35447,-2.66404 0.99902,-4.31836 0.12889,-0.34373 0.0967,-0.62302 -0.0967,-0.83789 -0.19338,-0.15037 -0.45119,-0.30076 -0.77343,-0.45117 1.8906,-0.19334 3.73825,-0.29002 5.54296,-0.29004 0.53709,2e-5 0.93455,0.16116 1.19239,0.4834 0.32224,0.27932 0.46189,0.76272 0.41894,1.4502 -0.0215,1.63283 -0.38674,3.94239 -1.0957,6.92871 -0.47268,2.32032 -0.82717,3.63086 -1.06348,3.93164 -0.0215,0.0859 -0.11819,0.16114 -0.29004,0.22558 -0.0215,-0.0215 -0.0752,-0.0322 -0.16113,-0.0322 -0.15041,-0.21484 -0.48342,-0.52636 -0.99902,-0.93457" />
      <path
         inkscape:connector-curvature="0"
         id="path3125"
         style="font-size:33px;font-style:normal;font-variant:normal;font-weight:normal;font-stretch:normal;text-align:start;line-height:125%;letter-spacing:0px;word-spacing:0px;writing-mode:lr-tb;text-anchor:start;fill:#000000;fill-opacity:1;stroke:none;font-family:AR PL UKai CN;-inkscape-font-specification:AR PL UKai CN"
         d="m 339.5599,539.62749 c -1.05274,0.12893 -1.21387,0.45119 -0.4834,0.9668 1.24609,0.77345 2.65331,0.9883 4.22168,0.64453 2.5996,-0.40818 5.25291,-0.83787 7.95996,-1.28906 1.24607,-0.21483 1.95506,-0.41893 2.12696,-0.61231 0.27927,-0.21482 0.35447,-0.45115 0.22558,-0.70898 -0.21486,-0.34373 -0.73049,-0.63377 -1.54687,-0.87012 -0.90237,-0.21482 -2.6426,0.0645 -5.2207,0.83789 -2.7715,0.5801 -5.19924,0.92385 -7.28321,1.03125 m 0.0322,8.08887 c -0.58009,0.0859 -0.53712,0.40821 0.12891,0.96679 0.34373,0.27931 0.90233,0.37599 1.67578,0.29004 3.69529,-0.45116 6.91795,-0.79491 9.66797,-1.03125 0.79489,-0.0859 1.05271,-0.35448 0.77343,-0.80566 -0.32229,-0.51561 -0.90236,-0.8701 -1.74023,-1.06348 -0.79494,-0.15037 -1.89065,-0.0859 -3.28711,0.19336 -2.57814,0.58009 -4.98439,1.06349 -7.21875,1.4502 m -7.83106,8.92675 c -0.60156,0.0215 -0.6875,0.30079 -0.25781,0.8379 0.90234,0.90234 1.90136,1.22461 2.99707,0.96679 6.20897,-1.54687 14.17967,-2.08398 23.91211,-1.61133 0.0215,-0.0215 0.0644,-0.0215 0.12891,0 0.58005,0.0215 0.94528,-0.0967 1.0957,-0.35449 0.15036,-0.34374 -3e-5,-0.71972 -0.45117,-1.12793 -1.48245,-1.18163 -2.78225,-1.66503 -3.89942,-1.45019 -4.38283,0.77344 -12.22462,1.68653 -23.52539,2.73925" />
      <path
         inkscape:connector-curvature="0"
         id="path3127"
         style="font-size:33px;font-style:normal;font-variant:normal;font-weight:normal;font-stretch:normal;text-align:start;line-height:125%;letter-spacing:0px;word-spacing:0px;writing-mode:lr-tb;text-anchor:start;fill:#000000;fill-opacity:1;stroke:none;font-family:AR PL UKai CN;-inkscape-font-specification:AR PL UKai CN"
         d="m 392.30446,542.27007 c -1.03126,0.12892 -1.19239,0.44045 -0.4834,0.93457 0.98827,0.64455 2.5244,0.81642 4.6084,0.51562 2.47069,-0.3867 5.01658,-0.7949 7.6377,-1.22461 1.24607,-0.25779 1.97654,-0.46189 2.1914,-0.6123 0.25779,-0.21482 0.32224,-0.44041 0.19336,-0.67676 -0.19338,-0.34373 -0.67678,-0.63377 -1.45019,-0.87012 -0.70901,-0.19333 -2.24514,0.043 -4.6084,0.70899 -2.90041,0.66603 -5.59669,1.07424 -8.08887,1.22461 m -7.12207,11.98828 c -0.38672,1e-5 -0.59082,0.1504 -0.6123,0.45117 -0.0215,0.34376 0.21484,0.70899 0.70898,1.0957 1.0957,0.8379 2.29882,1.05274 3.60938,0.64454 2.7285,-0.83789 7.70213,-1.48242 14.92089,-1.9336 2.40623,-0.15038 5.20994,-0.0107 8.41114,0.41895 0.6445,0.0859 1.042,0.0107 1.1924,-0.22559 0.2148,-0.34374 0.1611,-0.68749 -0.1611,-1.03125 -0.795,-0.73046 -1.7833,-1.37499 -2.9649,-1.93359 -0.3867,-0.15038 -0.9238,-0.11816 -1.6113,0.0967 -0.96685,0.2793 -2.10552,0.4834 -3.41604,0.6123 -5.95119,0.53712 -10.75294,1.00978 -14.40527,1.41797 -2.19142,0.2793 -4.08204,0.40821 -5.67188,0.38672" />
      <path
         inkscape:connector-curvature="0"
         id="path3129"
         style="font-size:33px;font-style:normal;font-variant:normal;font-weight:normal;font-stretch:normal;text-align:start;line-height:125%;letter-spacing:0px;word-spacing:0px;writing-mode:lr-tb;text-anchor:start;fill:#000000;fill-opacity:1;stroke:none;font-family:AR PL UKai CN;-inkscape-font-specification:AR PL UKai CN"
         d="m 435.55248,550.35424 c -0.3437,2e-5 -0.5371,0.15041 -0.58,0.45118 -0.022,0.34376 0.2148,0.70899 0.7089,1.0957 1.0957,0.8379 2.127,1.1172 3.0938,0.83789 2.5781,-0.90233 7.4121,-1.56835 14.5019,-1.99805 2.2774,-0.12889 4.9199,0.0108 7.9278,0.41895 0.6445,0.086 1.0419,0.0108 1.1924,-0.22559 0.2148,-0.34374 0.1611,-0.68748 -0.1612,-1.03125 -0.7949,-0.73045 -1.7832,-1.37498 -2.9648,-1.93359 -0.3868,-0.15038 -0.9239,-0.11815 -1.6114,0.0967 -0.9023,0.25783 -1.9765,0.45118 -3.2226,0.58008 -5.6074,0.51564 -10.1084,0.96681 -13.5029,1.35351 -2.0625,0.27931 -3.8565,0.39748 -5.3819,0.35449" />
    </g>
  </g>
</svg>
