<?xml version="1.0" encoding="UTF-8" standalone="no"?>
<!-- Created with Inkscape (http://www.inkscape.org/) -->

<svg
   xmlns:dc="http://purl.org/dc/elements/1.1/"
   xmlns:cc="http://creativecommons.org/ns#"
   xmlns:rdf="http://www.w3.org/1999/02/22-rdf-syntax-ns#"
   xmlns:svg="http://www.w3.org/2000/svg"
   xmlns="http://www.w3.org/2000/svg"
   xmlns:xlink="http://www.w3.org/1999/xlink"
   xmlns:sodipodi="http://sodipodi.sourceforge.net/DTD/sodipodi-0.dtd"
   xmlns:inkscape="http://www.inkscape.org/namespaces/inkscape"
   version="1.0"
   width="100.04163"
   height="99.995232"
   id="svg2"
   sodipodi:version="0.32"
   inkscape:version="0.48.5 r10040"
   sodipodi:docname="black_cannon.svg"
   inkscape:output_extension="org.inkscape.output.svg.inkscape">
  <metadata
     id="metadata11">
    <rdf:RDF>
      <cc:Work
         rdf:about="">
        <dc:format>image/svg+xml</dc:format>
        <dc:type
           rdf:resource="http://purl.org/dc/dcmitype/StillImage" />
        <dc:title />
      </cc:Work>
    </rdf:RDF>
  </metadata>
  <sodipodi:namedview
     inkscape:window-height="979"
     inkscape:window-width="1679"
     inkscape:pageshadow="2"
     inkscape:pageopacity="0.0"
     guidetolerance="10.0"
     gridtolerance="10.0"
     objecttolerance="10.0"
     borderopacity="1.0"
     bordercolor="#666666"
     pagecolor="#ffffff"
     id="base"
     inkscape:zoom="1"
     inkscape:cx="50.020816"
     inkscape:cy="49.993443"
     inkscape:window-x="0"
     inkscape:window-y="42"
     inkscape:current-layer="layer3"
     showgrid="false"
     height="1052.36px"
     width="744px"
     units="mm"
     inkscape:window-maximized="0"
     fit-margin-top="0"
     fit-margin-left="0"
     fit-margin-right="0"
     fit-margin-bottom="0" />
  <defs
     id="defs3">
    <inkscape:perspective
       sodipodi:type="inkscape:persp3d"
       inkscape:vp_x="0 : 526.18109 : 1"
       inkscape:vp_y="0 : 1000 : 0"
       inkscape:vp_z="744.09448 : 526.18109 : 1"
       inkscape:persp3d-origin="372.04724 : 350.78739 : 1"
       id="perspective153" />
    <linearGradient
       id="linearGradient6462">
      <stop
         style="stop-color:black;stop-opacity:1;"
         offset="0"
         id="stop6464" />
      <stop
         style="stop-color:black;stop-opacity:0;"
         offset="1"
         id="stop6466" />
    </linearGradient>
    <linearGradient
       inkscape:collect="always"
       xlink:href="#linearGradient6462"
       id="linearGradient6468"
       x1="24"
       y1="229.36218"
       x2="90"
       y2="229.36218"
       gradientUnits="userSpaceOnUse" />
    <linearGradient
       inkscape:collect="always"
       xlink:href="#linearGradient6462"
       id="linearGradient3442"
       gradientUnits="userSpaceOnUse"
       x1="24"
       y1="229.36218"
       x2="90"
       y2="229.36218" />
  </defs>
  <g
     inkscape:groupmode="layer"
     id="layer1"
     inkscape:label="stones"
     style="display:inline"
     transform="translate(-393.94702,-694.09783)" />
  <g
     inkscape:groupmode="layer"
     id="layer3"
     inkscape:label="pieces"
     style="display:inline"
     transform="translate(-393.94702,-694.09783)">
    <path
       d="m 89,229.36218 c 0,17.67311 -14.326888,32 -32,32 -17.673112,0 -32,-14.32689 -32,-32 0,-17.67311 14.326888,-32 32,-32 17.673112,0 32,14.32689 32,32 z"
       sodipodi:ry="32"
       sodipodi:rx="32"
       sodipodi:cy="229.36218"
       sodipodi:cx="57"
       id="path17544"
       style="fill:#000000;fill-opacity:1;stroke:#000000;stroke-width:3.36734796000000003;stroke-miterlimit:4;stroke-opacity:1;stroke-dasharray:none;display:inline"
       sodipodi:type="arc"
       transform="matrix(1.484848,0,0,1.484848,359.3315,403.53164)" />
    <path
       style="font-size:64px;font-style:normal;font-variant:normal;font-weight:normal;font-stretch:normal;line-height:100%;writing-mode:lr-tb;text-anchor:start;fill:#ffffff;fill-opacity:1;stroke:none;display:inline;font-family:AR PL ZenKai Uni"
       d="m 423.2051,756.35682 c 0.44997,0.05 0.94998,10e-6 1.5,-0.15 1.94997,-0.59999 5.02497,-1.22499 9.225,-1.875 0.49997,-0.05 0.77497,-0.32499 0.825,-0.825 -4e-5,-0.35 -0.62503,-0.84999 -1.875,-1.5 0.94997,-3.59998 1.97497,-5.92498 3.075,-6.975 1.04996,-1.19998 1.02497,-2.12498 -0.075,-2.775 -0.90004,-0.49998 -1.97503,-1.17498 -3.225,-2.025 -0.90004,-0.59998 -2.37503,-0.24998 -4.425,1.05 -1.95003,0.75002 -4.10003,1.45002 -6.45,2.1 1.34997,-2.84998 2.89998,-6.49997 4.65,-10.95 0.64997,-1.79997 0.99997,-2.74997 1.05,-2.85 -0.50003,-0.89997 -1.22502,-1.44996 -2.175,-1.65 7.94996,-2.24997 12.07496,-3.49996 12.375,-3.75 0.44996,-0.44996 0.52496,-0.87496 0.225,-1.275 -0.35004,-0.59996 -1.30003,-1.02496 -2.85,-1.275 -1.55003,-0.19996 -3.07504,0.05 -4.575,0.75 -2.00003,0.80004 -4.10003,1.55004 -6.3,2.25 -2.45002,0.65004 -5.10003,1.20003 -7.95,1.65 -1.85002,0.45003 -2.07502,1.05003 -0.675,1.8 1.34999,0.75003 3.24998,1.05003 5.7,0.9 0.74997,2.55003 -0.15003,7.05003 -2.7,13.5 -0.15001,-0.05 -0.32502,-0.1 -0.525,-0.15 -0.60001,-0.14998 -0.95002,-0.1 -1.05,0.15 -0.30001,0.20002 -0.27502,0.70002 0.075,1.5 0.05,0.20002 0.17498,0.52502 0.375,0.975 -3.30001,5.40001 -6.60001,10.27501 -9.9,14.625 -0.35001,0.30001 -0.25001,0.475 0.3,0.525 2.69999,-0.89999 6.24998,-4.49999 10.65,-10.8 -10e-6,-0.14999 0.075,-0.27498 0.225,-0.375 0.49998,2.10001 0.97497,4.57501 1.425,7.425 0.05,1.55 0.52497,2.825 1.425,3.825 0.74997,1.05 1.24998,1.2 1.5,0.45 0.34998,-0.95 0.39997,-2.375 0.15,-4.275 m 5.55,-4.425 c -2.15003,0.80001 -4.12503,1.45 -5.925,1.95 -0.65002,-4.04999 -1.05003,-6.82498 -1.2,-8.325 0.29997,-0.05 0.64998,-0.14998 1.05,-0.3 1.99998,-0.49998 3.89997,-0.97498 5.7,-1.425 1.19997,-0.29998 1.92497,-0.22498 2.175,0.225 0.34997,0.30002 0.32497,1.25001 -0.075,2.85 -0.35003,1.50002 -0.75003,3.12501 -1.2,4.875 -0.20003,10e-6 -0.37503,0.05 -0.525,0.15 m 15.375,-23.7 c 0.29995,0.20004 0.72495,0.42504 1.275,0.675 1.09995,0.65004 2.09995,0.82503 3,0.525 9.44994,-2.69997 14.47494,-3.64996 15.075,-2.85 0.49993,0.65004 0.67494,1.92504 0.525,3.825 -0.20007,5.10003 -0.87507,8.80003 -2.025,11.1 -0.80007,1.55002 -1.87506,2.25002 -3.225,2.1 -0.60006,2e-5 -1.17505,-0.025 -1.725,-0.075 -1.25005,-0.34998 -1.42506,0.05 -0.525,1.2 1.39994,1.80002 2.42493,3.35001 3.075,4.65 0.94994,0.95001 1.87494,1.00002 2.775,0.15 2.84994,-2.09998 4.74993,-6.82498 5.7,-14.175 0.19993,-4.79997 0.82493,-7.82496 1.875,-9.075 0.59993,-0.64996 0.72493,-1.22496 0.375,-1.725 -0.45007,-0.49996 -1.95007,-1.27496 -4.5,-2.325 -0.95007,-0.34996 -1.90007,-0.19996 -2.85,0.45 -0.95007,0.60004 -3.32506,1.37504 -7.125,2.325 -3.80005,0.95004 -7.32505,1.57503 -10.575,1.875 1.84995,-2.29996 3.84995,-5.14996 6,-8.55 0.89995,-1.69995 1.74995,-2.94995 2.55,-3.75 0.49994,-0.59996 0.59995,-1.22495 0.3,-1.875 -0.20005,-0.64995 -1.05005,-1.52495 -2.55,-2.625 -1.40005,-0.89994 -2.57505,-1.32495 -3.525,-1.275 -0.95005,0.15006 -1.20005,0.77505 -0.75,1.875 0.59995,1.10005 0.69995,2.12505 0.3,3.075 -1.10004,3.30004 -2.52504,6.50005 -4.275,9.6 -1.70004,3.00003 -3.75004,6.15003 -6.15,9.45 -0.50004,0.50002 -0.80004,0.95002 -0.9,1.35 -0.15004,0.50002 0.12497,0.70003 0.825,0.6 1.24997,-0.29997 3.59996,-2.47497 7.05,-6.525 m -1.35,9.675 c -0.50004,-0.44998 -1.15005,-0.82498 -1.95,-1.125 -0.65004,-0.19997 -1.15005,-0.17498 -1.5,0.075 -0.35004,0.20002 -0.40005,0.72502 -0.15,1.575 0.59996,1.85002 0.82496,3.65002 0.675,5.4 -0.75004,10.35001 -0.67504,16.975 0.225,19.875 0.19995,1.5 1.02495,2.87499 2.475,4.125 4.49995,3.75 12.09995,4.92499 22.8,3.525 0.94993,-0.20001 1.97493,-0.42501 3.075,-0.675 2.59993,-0.75 5.17493,-2.00001 7.725,-3.75 1.04993,-0.80001 1.22492,-1.875 0.525,-3.225 -0.65008,-1.05 -1.45008,-3.25 -2.4,-6.6 -0.05,-0.8 -0.25007,-1.34999 -0.6,-1.65 -0.30007,-0.2 -0.57508,0.175 -0.825,1.125 -1.50007,3.65 -2.67507,6.025 -3.525,7.125 -0.90007,1.1 -2.67507,2 -5.325,2.7 -6.15006,1.5 -11.75005,1.25 -16.8,-0.75 -2.00004,-0.95 -3.25005,-2.05 -3.75,-3.3 -1.20004,-2.54999 -1.50004,-6.82499 -0.9,-12.825 0.64995,0.30001 1.39995,0.37501 2.25,0.225 1.94995,-0.44999 4.99995,-0.87498 9.15,-1.275 0.49994,-0.05 0.74995,-0.29998 0.75,-0.75 -5e-5,-0.34998 -0.52505,-0.84999 -1.575,-1.5 0.94994,-3.44998 1.94994,-5.69998 3,-6.75 0.94994,-1.09997 0.94994,-1.97498 0,-2.625 -0.80005,-0.49997 -1.82506,-1.14998 -3.075,-1.95 -0.80005,-0.44997 -1.62505,-0.42497 -2.475,0.075 -1.05005,0.65002 -2.27505,1.22503 -3.675,1.725 -1.25004,0.35002 -2.62505,0.75002 -4.125,1.2 m 1.05,2.475 c 0.0499,-0.19997 0.075,-0.42497 0.075,-0.675 0.14995,-0.14998 1.92495,-0.59998 5.325,-1.35 1.04995,-0.19997 1.69994,-0.12497 1.95,0.225 0.29995,0.30002 0.24995,1.17502 -0.15,2.625 -0.35005,1.40002 -0.77505,2.92502 -1.275,4.575 -0.15005,2e-5 -0.30005,0.05 -0.45,0.15 -2.45004,0.75002 -4.62504,1.32501 -6.525,1.725 0.19995,-2.29998 0.54996,-4.72498 1.05,-7.275"
       id="text17552"
       inkscape:connector-curvature="0" />
  </g>
</svg>
