<?xml version="1.0" encoding="UTF-8" standalone="no"?>
<!-- Created with Inkscape (http://www.inkscape.org/) -->

<svg
   xmlns:dc="http://purl.org/dc/elements/1.1/"
   xmlns:cc="http://creativecommons.org/ns#"
   xmlns:rdf="http://www.w3.org/1999/02/22-rdf-syntax-ns#"
   xmlns:svg="http://www.w3.org/2000/svg"
   xmlns="http://www.w3.org/2000/svg"
   xmlns:xlink="http://www.w3.org/1999/xlink"
   xmlns:sodipodi="http://sodipodi.sourceforge.net/DTD/sodipodi-0.dtd"
   xmlns:inkscape="http://www.inkscape.org/namespaces/inkscape"
   version="1.0"
   width="100.04163"
   height="99.995232"
   id="svg2"
   sodipodi:version="0.32"
   inkscape:version="0.48.5 r10040"
   sodipodi:docname="black_horse.svg"
   inkscape:output_extension="org.inkscape.output.svg.inkscape">
  <metadata
     id="metadata11">
    <rdf:RDF>
      <cc:Work
         rdf:about="">
        <dc:format>image/svg+xml</dc:format>
        <dc:type
           rdf:resource="http://purl.org/dc/dcmitype/StillImage" />
        <dc:title />
      </cc:Work>
    </rdf:RDF>
  </metadata>
  <sodipodi:namedview
     inkscape:window-height="1024"
     inkscape:window-width="1920"
     inkscape:pageshadow="2"
     inkscape:pageopacity="0.0"
     guidetolerance="10.0"
     gridtolerance="10.0"
     objecttolerance="10.0"
     borderopacity="1.0"
     bordercolor="#666666"
     pagecolor="#ffffff"
     id="base"
     inkscape:zoom="7.990381"
     inkscape:cx="70.983522"
     inkscape:cy="49.997616"
     inkscape:window-x="0"
     inkscape:window-y="0"
     inkscape:current-layer="layer3"
     showgrid="false"
     height="1052.36px"
     width="744px"
     units="mm"
     inkscape:window-maximized="1"
     fit-margin-top="0"
     fit-margin-left="0"
     fit-margin-right="0"
     fit-margin-bottom="0" />
  <defs
     id="defs3">
    <inkscape:perspective
       sodipodi:type="inkscape:persp3d"
       inkscape:vp_x="0 : 526.18109 : 1"
       inkscape:vp_y="0 : 1000 : 0"
       inkscape:vp_z="744.09448 : 526.18109 : 1"
       inkscape:persp3d-origin="372.04724 : 350.78739 : 1"
       id="perspective153" />
    <linearGradient
       id="linearGradient6462">
      <stop
         style="stop-color:black;stop-opacity:1;"
         offset="0"
         id="stop6464" />
      <stop
         style="stop-color:black;stop-opacity:0;"
         offset="1"
         id="stop6466" />
    </linearGradient>
    <linearGradient
       inkscape:collect="always"
       xlink:href="#linearGradient6462"
       id="linearGradient6468"
       x1="24"
       y1="229.36218"
       x2="90"
       y2="229.36218"
       gradientUnits="userSpaceOnUse" />
    <linearGradient
       inkscape:collect="always"
       xlink:href="#linearGradient6462"
       id="linearGradient3442"
       gradientUnits="userSpaceOnUse"
       x1="24"
       y1="229.36218"
       x2="90"
       y2="229.36218" />
  </defs>
  <g
     inkscape:groupmode="layer"
     id="layer1"
     inkscape:label="stones"
     style="display:inline"
     transform="translate(-393.94702,-304.68408)" />
  <g
     inkscape:groupmode="layer"
     id="layer3"
     inkscape:label="pieces"
     style="display:inline"
     transform="translate(-393.94702,-304.68408)">
    <path
       transform="matrix(1.484848,0,0,1.484848,359.3315,14.117885)"
       sodipodi:type="arc"
       style="fill:#000000;fill-opacity:1;stroke:#000000;stroke-width:3.36734796000000003;stroke-miterlimit:4;stroke-opacity:1;stroke-dasharray:none;display:inline"
       id="path17504"
       sodipodi:cx="57"
       sodipodi:cy="229.36218"
       sodipodi:rx="32"
       sodipodi:ry="32"
       d="m 89,229.36218 c 0,17.67311 -14.326888,32 -32,32 -17.673112,0 -32,-14.32689 -32,-32 0,-17.67311 14.326888,-32 32,-32 17.673112,0 32,14.32689 32,32 z" />
    <path
       style="font-size:64px;font-style:normal;font-variant:normal;font-weight:normal;font-stretch:normal;line-height:100%;writing-mode:lr-tb;text-anchor:start;fill:#ffffff;fill-opacity:1;stroke:none;display:inline;font-family:AR PL ZenKai Uni"
       d="m 445.85934,342.48953 c 0.0499,-2.24995 0.14995,-4.34995 0.3,-6.3 5.14994,-1.34995 7.77494,-2.04994 7.875,-2.1 0.34994,-0.34994 0.44994,-0.69994 0.3,-1.05 -0.35005,-0.44994 -1.10005,-0.79994 -2.25,-1.05 -1.50005,-0.29994 -3.45005,0.10008 -5.85,1.2 -5e-5,-0.89994 0.075,-2.02494 0.225,-3.375 0.34995,-1.04994 -0.17505,-2.14994 -1.575,-3.3 l -0.075,-0.075 c 9.44994,-1.79994 14.29994,-2.77494 14.55,-2.925 0.34994,-0.34993 0.44994,-0.72493 0.3,-1.125 -0.30006,-0.59994 -1.10007,-1.07493 -2.4,-1.425 -1.05006,-0.29992 -4.35006,0.30006 -9.9,1.8 -5.85005,1.20006 -11.25004,1.97506 -16.2,2.325 -0.15004,6e-5 -0.27503,0.05 -0.375,0.15 -0.20003,-0.19994 -0.47503,-0.39993 -0.825,-0.6 -1.85003,-1.24993 -3.27503,-1.94994 -4.275,-2.1 -0.75003,0.05 -1.20003,0.35007 -1.35,0.9 -0.15003,0.60006 0.025,1.12506 0.525,1.575 0.79997,1.35006 1.29997,2.55006 1.5,3.6 0.74997,8.00006 0.34997,16.37505 -1.2,25.125 -0.35003,1.25003 -0.50003,2.00003 -0.45,2.25 0.0499,0.50003 0.44997,1.05003 1.2,1.65 0.79997,0.65003 1.37497,1.02503 1.725,1.125 8.84996,-3.29996 19.99995,-5.24996 33.45,-5.85 0.74994,0.05 1.54993,0.30004 2.4,0.75 0.64993,0.50003 0.92493,1.22504 0.825,2.175 0.0499,0.90003 -0.60006,5.25003 -1.95,13.05 -1.05006,4.65002 -2.12506,7.82501 -3.225,9.525 -0.50007,1.10001 -1.40007,1.60001 -2.7,1.5 -1.40005,-0.44998 -2.80006,-0.84999 -4.2,-1.2 -0.95005,-0.34999 -1.52506,-0.42499 -1.725,-0.225 -0.20005,0.30002 0.12494,0.77501 0.975,1.425 3.04994,3.95001 4.67495,6.525 4.875,7.725 0.19994,0.50001 0.57494,0.80001 1.125,0.9 0.89994,0.2 2.24994,-0.575 4.05,-2.325 1.69993,-1.69999 2.84994,-3.64999 3.45,-5.85 3.19993,-16.09998 5.37493,-24.54997 6.525,-25.35 0.49993,-0.34996 0.72493,-0.72496 0.675,-1.125 0.0499,-0.44996 -0.80008,-1.34996 -2.55,-2.7 -2.40007,-1.49996 -4.37507,-1.99996 -5.925,-1.5 -1.20006,0.15004 -2.45007,0.30004 -3.75,0.45 -4.05006,4e-5 -8.82505,0.55004 -14.325,1.65 0.0499,-2.24996 0.1,-4.37496 0.15,-6.375 1.84995,-0.49995 3.77495,-0.94995 5.775,-1.35 1.64994,-0.44995 2.57495,-0.77496 2.775,-0.975 0.34994,-0.34995 0.44994,-0.69996 0.3,-1.05 -0.35005,-0.44995 -1.10005,-0.79995 -2.25,-1.05 -1.20005,-0.19995 -3.37505,0.30005 -6.525,1.5 m -3.675,0.975 c -2.10004,0.35004 -4.27504,0.70005 -6.525,1.05 -1.40004,0.20004 -1.60003,0.65004 -0.6,1.35 1.34996,0.65004 3.64995,0.75004 6.9,0.3 0.0499,4e-5 0.12495,4e-5 0.225,0 0.0499,1.85004 0.075,3.87504 0.075,6.075 -3.65004,0.45004 -6.70003,1.00004 -9.15,1.65 -1.85003,0.20003 -2.82503,-0.37496 -2.925,-1.725 -0.20003,-1.39996 -0.15004,-5.84996 0.15,-13.35 0.49997,-6.19994 0.94997,-9.59994 1.35,-10.2 0.19997,-0.34994 0.37496,-0.72494 0.525,-1.125 0.79997,0.20007 3.54996,0.075 8.25,-0.375 0.14995,-0.0499 0.34995,-0.075 0.6,-0.075 0.49995,0.90006 0.87495,3.32506 1.125,7.275 -1.70004,0.35006 -3.57504,0.65006 -5.625,0.9 -1.40004,0.30005 -1.60003,0.77506 -0.6,1.425 1.64996,0.90005 3.62496,1.05005 5.925,0.45 0.0499,-0.0499 0.14995,-0.0499 0.3,0 -5e-5,1.70006 -5e-5,3.82505 0,6.375 m -24.675,18.225 c -0.50002,2.90003 -1.30002,5.75002 -2.4,8.55 -0.60001,1.85002 -0.25002,3.57502 1.05,5.175 0.59997,0.80002 1.34997,0.75002 2.25,-0.15 0.94998,-1.09999 1.59998,-2.52499 1.95,-4.275 0.34998,-1.99998 0.37497,-3.79998 0.075,-5.4 -0.05,-1.69998 -0.42502,-3.14997 -1.125,-4.35 -0.35002,-0.34998 -0.67503,-0.52497 -0.975,-0.525 -0.45003,0.20003 -0.72502,0.52503 -0.825,0.975 m 9,3.45 c 0.49997,3.00003 1.17497,5.02502 2.025,6.075 0.44996,0.45002 0.97496,0.52502 1.575,0.225 0.49997,-0.29998 0.89996,-0.77498 1.2,-1.425 0.34997,-1.94997 -0.52504,-4.02498 -2.625,-6.225 -0.05,-0.14997 -0.12503,-0.24997 -0.225,-0.3 -0.50003,-0.49998 -0.95003,-0.79998 -1.35,-0.9 -0.20003,-0.05 -0.40003,0.15003 -0.6,0.6 -0.20003,0.45003 -0.20003,1.10003 0,1.95 m 8.925,-1.725 c 0.89996,2.45002 1.94996,4.30002 3.15,5.55 0.59996,0.35002 1.17495,0.30002 1.725,-0.15 0.44995,-0.44997 0.72495,-1.02498 0.825,-1.725 0.0499,-1.09998 -0.17505,-2.04998 -0.675,-2.85 -0.75004,-1.04997 -1.90005,-2.02497 -3.45,-2.925 -0.60004,-0.44997 -1.12504,-0.64996 -1.575,-0.6 -0.30004,-0.0499 -0.47503,0.20003 -0.525,0.75 -0.05,0.50003 0.12497,1.15002 0.525,1.95 m 10.65,-2.475 c 1.39995,3.15003 2.82494,5.35002 4.275,6.6 0.64994,0.35002 1.27495,0.27502 1.875,-0.225 0.49994,-0.49998 0.79994,-1.17498 0.9,-2.025 -6e-5,-2.09997 -1.77505,-4.32498 -5.325,-6.675 l -0.075,-0.075 c -0.65005,-0.44997 -1.25005,-0.64996 -1.8,-0.6 -0.30005,3e-5 -0.47505,0.30003 -0.525,0.9 -0.05,0.50003 0.17495,1.20003 0.675,2.1"
       id="text17512"
       inkscape:connector-curvature="0" />
  </g>
</svg>
