<?xml version="1.0" encoding="UTF-8" standalone="no"?>
<!-- Created with Inkscape (http://www.inkscape.org/) -->

<svg
   xmlns:dc="http://purl.org/dc/elements/1.1/"
   xmlns:cc="http://creativecommons.org/ns#"
   xmlns:rdf="http://www.w3.org/1999/02/22-rdf-syntax-ns#"
   xmlns:svg="http://www.w3.org/2000/svg"
   xmlns="http://www.w3.org/2000/svg"
   xmlns:xlink="http://www.w3.org/1999/xlink"
   xmlns:sodipodi="http://sodipodi.sourceforge.net/DTD/sodipodi-0.dtd"
   xmlns:inkscape="http://www.inkscape.org/namespaces/inkscape"
   version="1.0"
   width="100.04163"
   height="99.995232"
   id="svg2"
   sodipodi:version="0.32"
   inkscape:version="0.48.5 r10040"
   sodipodi:docname="red_cannon.svg"
   inkscape:output_extension="org.inkscape.output.svg.inkscape">
  <metadata
     id="metadata11">
    <rdf:RDF>
      <cc:Work
         rdf:about="">
        <dc:format>image/svg+xml</dc:format>
        <dc:type
           rdf:resource="http://purl.org/dc/dcmitype/StillImage" />
        <dc:title />
      </cc:Work>
    </rdf:RDF>
  </metadata>
  <sodipodi:namedview
     inkscape:window-height="979"
     inkscape:window-width="1679"
     inkscape:pageshadow="2"
     inkscape:pageopacity="0.0"
     guidetolerance="10.0"
     gridtolerance="10.0"
     objecttolerance="10.0"
     borderopacity="1.0"
     bordercolor="#666666"
     pagecolor="#ffffff"
     id="base"
     inkscape:zoom="7.990381"
     inkscape:cx="50.020817"
     inkscape:cy="49.997616"
     inkscape:window-x="0"
     inkscape:window-y="42"
     inkscape:current-layer="layer3"
     showgrid="false"
     height="1052.36px"
     width="744px"
     units="mm"
     inkscape:window-maximized="0"
     fit-margin-top="0"
     fit-margin-left="0"
     fit-margin-right="0"
     fit-margin-bottom="0" />
  <defs
     id="defs3">
    <inkscape:perspective
       sodipodi:type="inkscape:persp3d"
       inkscape:vp_x="0 : 526.18109 : 1"
       inkscape:vp_y="0 : 1000 : 0"
       inkscape:vp_z="744.09448 : 526.18109 : 1"
       inkscape:persp3d-origin="372.04724 : 350.78739 : 1"
       id="perspective153" />
    <linearGradient
       id="linearGradient6462">
      <stop
         style="stop-color:black;stop-opacity:1;"
         offset="0"
         id="stop6464" />
      <stop
         style="stop-color:black;stop-opacity:0;"
         offset="1"
         id="stop6466" />
    </linearGradient>
    <linearGradient
       inkscape:collect="always"
       xlink:href="#linearGradient6462"
       id="linearGradient6468"
       x1="24"
       y1="229.36218"
       x2="90"
       y2="229.36218"
       gradientUnits="userSpaceOnUse" />
    <linearGradient
       inkscape:collect="always"
       xlink:href="#linearGradient6462"
       id="linearGradient3442"
       gradientUnits="userSpaceOnUse"
       x1="24"
       y1="229.36218"
       x2="90"
       y2="229.36218" />
  </defs>
  <g
     inkscape:groupmode="layer"
     id="layer1"
     inkscape:label="stones"
     style="display:inline"
     transform="translate(-107.94702,-694.09783)" />
  <g
     inkscape:groupmode="layer"
     id="layer3"
     inkscape:label="pieces"
     style="display:inline"
     transform="translate(-107.94702,-694.09783)">
    <path
       transform="matrix(1.484848,0,0,1.484848,73.331497,403.53164)"
       sodipodi:type="arc"
       style="fill:#ffffff;fill-opacity:1;stroke:#000000;stroke-width:3.36734796000000003;stroke-miterlimit:4;stroke-opacity:1;stroke-dasharray:none;display:inline"
       id="path17548"
       sodipodi:cx="57"
       sodipodi:cy="229.36218"
       sodipodi:rx="32"
       sodipodi:ry="32"
       d="m 89,229.36218 c 0,17.67311 -14.326888,32 -32,32 -17.673112,0 -32,-14.32689 -32,-32 0,-17.67311 14.326888,-32 32,-32 17.673112,0 32,14.32689 32,32 z" />
    <path
       style="font-size:64px;font-style:normal;font-variant:normal;font-weight:normal;font-stretch:normal;text-align:start;line-height:100%;writing-mode:lr-tb;text-anchor:start;fill:#000000;fill-opacity:1;stroke:none;display:inline;font-family:AR PL UKai TW;-inkscape-font-specification:AR PL UKai TW"
       d="m 158.00614,728.44389 c 1.69996,1.25004 3.24995,1.65004 4.65,1.2 8.39994,-2.59995 12.89994,-3.37496 13.5,-2.325 0.44994,0.80004 0.59994,2.25004 0.45,4.35 -0.30006,6.35003 -1.12506,10.97502 -2.475,13.875 -0.65006,1.40002 -1.57506,2.07502 -2.775,2.025 -0.90006,-0.19998 -1.75005,-0.44997 -2.55,-0.75 -1.20004,-0.49998 -1.40005,-0.1 -0.6,1.2 1.79994,2.10002 3.09995,3.95002 3.9,5.55 1.19994,1.10002 2.24994,1.10002 3.15,0 1.54994,-1.34998 2.79994,-3.14998 3.75,-5.4 1.09994,-2.59998 1.74994,-7.79997 1.95,-15.6 0.0499,-2.74996 0.52493,-4.82496 1.425,-6.225 0.59993,-0.64995 0.72494,-1.24995 0.375,-1.8 -0.50006,-0.49995 -2.10006,-1.27495 -4.8,-2.325 -1.10006,-0.34995 -2.10006,-0.17496 -3,0.525 -0.90006,0.50004 -3.05005,1.22505 -6.45,2.175 -3.35005,0.95004 -6.45004,1.60005 -9.3,1.95 0.0499,-0.14996 0.14996,-0.29996 0.3,-0.45 1.69996,-2.29995 3.49996,-5.19996 5.4,-8.7 0.74996,-1.64995 1.47495,-2.87494 2.175,-3.675 0.44996,-0.59995 0.52496,-1.22494 0.225,-1.875 -0.30004,-0.64994 -1.22505,-1.47494 -2.775,-2.475 -1.40005,-0.79994 -2.60005,-1.12494 -3.6,-0.975 -0.95004,0.20006 -1.15004,0.82506 -0.6,1.875 1.04996,1.65006 0.1,5.72506 -2.85,12.225 -1.40004,2.90004 -3.10004,6.00004 -5.1,9.3 -0.50004,0.60004 -0.77503,1.05004 -0.825,1.35 -0.15003,0.60004 0.14997,0.80003 0.9,0.6 1.34997,-0.59996 3.19996,-2.47496 5.55,-5.625 m -4.125,9.9 c -0.50004,-0.44997 -1.12503,-0.77497 -1.875,-0.975 -0.60003,-0.19996 -1.07503,-0.17497 -1.425,0.075 -0.30003,0.15003 -0.32503,0.62504 -0.075,1.425 0.59997,1.80003 0.82497,3.52503 0.675,5.175 -0.60003,10.25002 -0.45003,16.77501 0.45,19.575 0.19997,1.55001 1.07496,2.97501 2.625,4.275 5.69996,4.1 14.37495,4.975 26.025,2.625 0.34994,-0.15 0.77494,-0.25 1.275,-0.3 2.74994,-0.8 5.47493,-2.12499 8.175,-3.975 0.94992,-0.65 1.14993,-1.65 0.6,-3 -0.60007,-1.69999 -1.15008,-5.07499 -1.65,-10.125 -7e-5,-0.79998 -0.17506,-1.34998 -0.525,-1.65 -0.30007,-0.19998 -0.60007,0.15002 -0.9,1.05 -1.70007,5.30001 -3.10006,8.75001 -4.2,10.35 -1.05007,1.25001 -3.00006,2.275 -5.85,3.075 -6.60006,1.70001 -12.70004,1.62501 -18.3,-0.225 -2.15004,-0.95 -3.50004,-2.07499 -4.05,-3.375 -1.35003,-2.69998 -1.70004,-6.77498 -1.05,-12.225 0.64996,0.30002 1.37496,0.32502 2.175,0.075 1.99996,-0.49998 5.24996,-0.99998 9.75,-1.5 0.49995,-0.05 0.77495,-0.29997 0.825,-0.75 -4e-5,-0.34998 -0.57505,-0.84998 -1.725,-1.5 0.94995,-3.04998 1.92495,-5.02497 2.925,-5.925 1.09995,-1.19997 1.09995,-2.14996 0,-2.85 -0.90004,-0.49996 -1.97505,-1.17496 -3.225,-2.025 -0.90004,-0.49996 -2.40004,-0.17497 -4.5,0.975 -1.95004,0.75003 -4.00004,1.32503 -6.15,1.725 m 1.125,2.4 c -3e-5,-0.14997 -3e-5,-0.27496 0,-0.375 0.49996,-0.14997 2.34996,-0.57496 5.55,-1.275 0.94996,-0.19996 1.57496,-0.1 1.875,0.3 0.14996,0.15003 -0.27505,2.42502 -1.275,6.825 -2.60004,0.75003 -5.00004,1.37502 -7.2,1.875 0.19996,-2.29998 0.54996,-4.74997 1.05,-7.35 m -25.575,-12.6 c -0.30001,3.05004 -0.87501,6.00004 -1.725,8.85 -0.60001,1.65003 -0.22501,3.20003 1.125,4.65 0.59999,0.75003 1.29999,0.67503 2.1,-0.225 1.94998,-2.54997 2.42499,-5.82496 1.425,-9.825 -0.20001,-1.54996 -0.62502,-2.84996 -1.275,-3.9 -0.35001,-0.34995 -0.65001,-0.49995 -0.9,-0.45 -0.35001,0.20004 -0.60001,0.50004 -0.75,0.9 m 10.65,20.475 c 0.19998,0.35002 0.59998,0.80002 1.2,1.35 1.39997,1.50002 2.87498,3.15002 4.425,4.95 0.44997,0.50002 0.97497,0.80002 1.575,0.9 0.34997,0.05 0.67497,-0.17498 0.975,-0.675 0.29997,-0.49999 0.34997,-1.34998 0.15,-2.55 -0.15003,-1.09998 -0.92503,-2.12498 -2.325,-3.075 -3.35002,-1.84998 -5.27503,-2.69997 -5.775,-2.55 0.44998,-3.19998 0.79997,-8.24997 1.05,-15.15 1.84997,-1.04996 3.34997,-1.92496 4.5,-2.625 2.24997,-1.79996 3.99996,-2.89995 5.25,-3.3 0.89997,-0.34995 1.12497,-0.89996 0.675,-1.65 -0.50004,-0.64995 -1.25004,-1.29996 -2.25,-1.95 -0.95002,-0.59995 -1.67503,-0.84996 -2.175,-0.75 -0.50002,0.05 -0.67503,0.35004 -0.525,0.9 0.0499,1.25004 -0.95002,2.97504 -3,5.175 -0.80002,0.80004 -1.57502,1.67504 -2.325,2.625 0.0499,-5.89995 0.67498,-10.34995 1.875,-13.35 0.34997,-0.64994 0.24998,-1.24994 -0.3,-1.8 -1.10002,-0.89995 -2.57502,-1.59994 -4.425,-2.1 -1.20002,-0.29995 -2.00001,-0.27494 -2.4,0.075 -0.45002,0.35006 -0.47502,0.80006 -0.075,1.35 2.89998,4.50005 3.09998,15.47504 0.6,32.925 -1.65002,6.50002 -3.35001,11.12501 -5.1,13.875 -1.40001,1.95 -3.175,3.975 -5.325,6.075 -0.50001,0.45 -0.72501,0.775 -0.675,0.975 0.05,0.20001 0.35,0.25 0.9,0.15 0.59999,0.2 1.625,-0.125 3.075,-0.975 5.39998,-2.89999 8.87498,-9.17499 10.425,-18.825"
       id="text17556"
       inkscape:connector-curvature="0" />
  </g>
</svg>
