<?xml version="1.0" encoding="UTF-8" standalone="no"?>
<!-- Created with Inkscape (http://www.inkscape.org/) -->

<svg
   xmlns:dc="http://purl.org/dc/elements/1.1/"
   xmlns:cc="http://creativecommons.org/ns#"
   xmlns:rdf="http://www.w3.org/1999/02/22-rdf-syntax-ns#"
   xmlns:svg="http://www.w3.org/2000/svg"
   xmlns="http://www.w3.org/2000/svg"
   xmlns:xlink="http://www.w3.org/1999/xlink"
   xmlns:sodipodi="http://sodipodi.sourceforge.net/DTD/sodipodi-0.dtd"
   xmlns:inkscape="http://www.inkscape.org/namespaces/inkscape"
   version="1.0"
   width="100.04163"
   height="99.995232"
   id="svg2"
   sodipodi:version="0.32"
   inkscape:version="0.48.5 r10040"
   sodipodi:docname="red_king.svg"
   inkscape:output_extension="org.inkscape.output.svg.inkscape">
  <metadata
     id="metadata11">
    <rdf:RDF>
      <cc:Work
         rdf:about="">
        <dc:format>image/svg+xml</dc:format>
        <dc:type
           rdf:resource="http://purl.org/dc/dcmitype/StillImage" />
        <dc:title />
      </cc:Work>
    </rdf:RDF>
  </metadata>
  <sodipodi:namedview
     inkscape:window-height="979"
     inkscape:window-width="1679"
     inkscape:pageshadow="2"
     inkscape:pageopacity="0.0"
     guidetolerance="10.0"
     gridtolerance="10.0"
     objecttolerance="10.0"
     borderopacity="1.0"
     bordercolor="#666666"
     pagecolor="#ffffff"
     id="base"
     inkscape:zoom="7.990381"
     inkscape:cx="70.983522"
     inkscape:cy="49.997616"
     inkscape:window-x="0"
     inkscape:window-y="42"
     inkscape:current-layer="layer3"
     showgrid="false"
     height="1052.36px"
     width="744px"
     units="mm"
     fit-margin-top="0"
     fit-margin-left="0"
     fit-margin-right="0"
     fit-margin-bottom="0"
     inkscape:window-maximized="0" />
  <defs
     id="defs3">
    <inkscape:perspective
       sodipodi:type="inkscape:persp3d"
       inkscape:vp_x="0 : 526.18109 : 1"
       inkscape:vp_y="0 : 1000 : 0"
       inkscape:vp_z="744.09448 : 526.18109 : 1"
       inkscape:persp3d-origin="372.04724 : 350.78739 : 1"
       id="perspective153" />
    <linearGradient
       id="linearGradient6462">
      <stop
         style="stop-color:black;stop-opacity:1;"
         offset="0"
         id="stop6464" />
      <stop
         style="stop-color:black;stop-opacity:0;"
         offset="1"
         id="stop6466" />
    </linearGradient>
    <linearGradient
       inkscape:collect="always"
       xlink:href="#linearGradient6462"
       id="linearGradient6468"
       x1="24"
       y1="229.36218"
       x2="90"
       y2="229.36218"
       gradientUnits="userSpaceOnUse" />
    <linearGradient
       inkscape:collect="always"
       xlink:href="#linearGradient6462"
       id="linearGradient3442"
       gradientUnits="userSpaceOnUse"
       x1="24"
       y1="229.36218"
       x2="90"
       y2="229.36218" />
  </defs>
  <g
     inkscape:groupmode="layer"
     id="layer1"
     inkscape:label="stones"
     style="display:inline"
     transform="translate(-107.94702,-45.074943)" />
  <g
     inkscape:groupmode="layer"
     id="layer3"
     inkscape:label="pieces"
     style="display:inline"
     transform="translate(-107.94702,-45.074943)">
    <path
       d="m 89,229.36218 c 0,17.67311 -14.326888,32 -32,32 -17.673112,0 -32,-14.32689 -32,-32 0,-17.67311 14.326888,-32 32,-32 17.673112,0 32,14.32689 32,32 z"
       sodipodi:ry="32"
       sodipodi:rx="32"
       sodipodi:cy="229.36218"
       sodipodi:cx="57"
       id="path17604"
       style="fill:#ffffff;fill-opacity:1;stroke:#000000;stroke-width:3.36734796000000003;stroke-miterlimit:4;stroke-opacity:1;stroke-dasharray:none;display:inline"
       sodipodi:type="arc"
       transform="matrix(1.484848,0,0,1.484848,73.331497,-245.49125)" />
    <path
       style="font-size:64px;font-style:normal;font-variant:normal;font-weight:normal;font-stretch:normal;text-align:start;line-height:100%;writing-mode:lr-tb;text-anchor:start;fill:#000000;fill-opacity:1;stroke:none;display:inline;font-family:AR PL UKai TW;-inkscape-font-specification:AR PL UKai TW"
       d="m 134.23607,113.26438 c 0.5,0.15001 1.1,0.12501 1.8,-0.075 2.74998,-0.64998 7.17498,-1.24998 13.275,-1.8 0.49997,-0.0499 0.79997,-0.29999 0.9,-0.75 -2e-5,-0.44999 -0.65002,-1.07499 -1.95,-1.875 1.19998,-3.34998 2.49998,-5.64997 3.9,-6.9 0.79997,-0.89998 0.82497,-1.74997 0.075,-2.549999 -3.60002,-2.699972 -6.70002,-3.274971 -9.3,-1.725 -3.60001,1.200026 -6.42501,2.025024 -8.475,2.474999 -1e-5,-2.749971 0.05,-5.149969 0.15,-7.199999 0.8,0.200031 1.59999,0.225032 2.4,0.075 2.59998,-0.749968 6.74998,-1.499967 12.45,-2.25 0.49997,-0.04997 0.77498,-0.324966 0.825,-0.825 -2e-5,-0.349965 -0.65002,-0.899965 -1.95,-1.65 1.19998,-3.49996 2.49998,-5.674958 3.9,-6.525 0.74997,-0.799957 0.77498,-1.599956 0.075,-2.4 -3.30002,-2.699953 -6.20002,-3.224952 -8.7,-1.575 -1.50002,0.600046 -4.20001,1.550045 -8.1,2.85 2.09999,-2.449953 3.74999,-4.499952 4.95,-6.15 2.44998,-3.649946 4.24998,-5.949944 5.4,-6.9 0.89998,-0.799942 0.94998,-1.549941 0.15,-2.25 -0.95002,-0.64994 -2.15002,-1.12494 -3.6,-1.425 -1.35002,-0.29994 -2.32502,-0.29994 -2.925,0 -0.60001,0.30006 -0.70002,0.72506 -0.3,1.275 0.74998,1.550057 -0.92502,6.625053 -5.025,15.225 -0.05,4.4e-5 -0.075,0.02504 -0.075,0.075 -0.75001,-0.749955 -1.675,-1.299955 -2.775,-1.65 -0.5,-0.199954 -1.05001,-0.224954 -1.65,-0.075 -0.35,0.300045 -0.37501,0.750045 -0.075,1.35 0.95,3.50004 1.475,5.825038 1.575,6.975 0.59999,10.200027 0.125,18.350029 -1.425,24.449999 -0.75001,2.75001 -0.2,5.30001 1.65,7.65 0.5,0.65 1.04999,0.67501 1.65,0.075 0.5,-0.74999 0.89999,-2.72499 1.2,-5.925 m 10.2,-4.725 c -3.75002,0.95001 -7.12501,1.72501 -10.125,2.325 -1e-5,-4.19998 0.025,-7.09998 0.075,-8.7 0.44999,0.05 3.77499,-0.54997 9.975,-1.8 0.49998,-0.05 0.89998,3e-5 1.2,0.15 0.34998,0.35003 0.49998,0.92503 0.45,1.725 -0.45002,2.30003 -0.92502,4.40001 -1.425,6.3 l -0.15,0 m 0,-20.474999 c -3.60002,1.200035 -6.85002,2.100034 -9.75,2.7 -1e-5,-4.949961 0.1,-7.549959 0.3,-7.8 0.5,-0.04996 1.09998,-0.224959 1.8,-0.525 2.69999,-0.649958 5.32498,-1.349956 7.875,-2.1 0.64998,-0.199956 1.12498,-0.174956 1.425,0.075 0.34998,0.350044 0.47498,0.950043 0.375,1.8 -0.50002,2.15004 -1.02502,4.075038 -1.575,5.775 -0.20002,3.6e-5 -0.35002,0.02503 -0.45,0.075 m 21.975,-2.325 c -4e-5,13.800024 -0.12504,22.875019 -0.375,27.224999 -0.15004,9.5 0.27496,15 1.275,16.5 0.74996,0.79999 1.34996,0.64999 1.8,-0.45 0.94996,-2.25 1.39996,-12.19999 1.35,-29.849999 -4e-5,-5.449969 0.0499,-10.224964 0.15,-14.325 5.09996,-1.04996 7.97495,-1.249959 8.625,-0.6 0.79995,0.650039 1.14994,2.125038 1.05,4.425 -0.15006,2.250034 -0.27506,4.775031 -0.375,7.575 -6e-5,2.000026 -0.35005,3.400025 -1.05,4.199999 -0.30006,0.60002 -1.05006,0.75002 -2.25,0.45 -0.95005,-0.14998 -1.95004,-0.29998 -3,-0.45 -0.80005,-0.19998 -1.32505,-0.14997 -1.575,0.15 -0.20005,0.20003 0.075,0.57503 0.825,1.125 2.59995,2.00003 4.64994,3.87501 6.15,5.625 0.79995,0.75002 1.69995,0.92502 2.7,0.525 0.64995,-0.29998 1.22494,-1.19998 1.725,-2.7 1.09994,-2.29998 1.57494,-4.92498 1.425,-7.874999 -0.45006,-6.349966 -0.37506,-10.599962 0.225,-12.75 0.34994,-0.799959 0.37494,-1.424959 0.075,-1.875 -1.10006,-0.749958 -2.52506,-1.474957 -4.275,-2.175 -0.95006,-0.349956 -1.80006,-0.374955 -2.55,-0.075 -1.70005,0.800043 -4.25005,1.500042 -7.65,2.1 0.0499,-4.649954 0.19996,-8.34995 0.45,-11.1 0.0499,-1.699945 0.54995,-3.299943 1.5,-4.8 0.34995,-0.799941 -4e-5,-1.624941 -1.05,-2.475 -1.25005,-0.949939 -3.00004,-1.749938 -5.25,-2.4 -1.05004,-0.199938 -1.90004,0.05006 -2.55,0.75 -0.50004,0.350062 -0.42504,0.875061 0.225,1.575 1.54996,1.25006 2.37496,2.800058 2.475,4.65 -4e-5,3.650052 -0.0251,8.550047 -0.075,14.7 -2.30004,0.35004 -4.85004,0.67504 -7.65,0.975 -0.90003,-0.899959 -2.12503,-1.274959 -3.675,-1.125 -0.65002,0.20004 -0.82503,0.57504 -0.525,1.125 1.79997,3.600036 1.94997,8.175032 0.45,13.725 -1.20003,2.100029 -0.95002,4.300019 0.75,6.599999 l 0.15,0.15 c 0.34997,0.65003 0.74997,0.82502 1.2,0.525 1.39997,-1.04998 2.12496,-3.54997 2.175,-7.499999 0.0499,-5.849967 0.14997,-9.499964 0.3,-10.95 0.34996,3.8e-5 0.74997,-0.02496 1.2,-0.075 1.99996,-0.449962 3.87496,-0.824961 5.625,-1.125"
       id="text17612"
       inkscape:connector-curvature="0" />
  </g>
</svg>
