<?xml version="1.0" encoding="UTF-8" standalone="no"?>
<!-- Created with Inkscape (http://www.inkscape.org/) -->

<svg
   xmlns:dc="http://purl.org/dc/elements/1.1/"
   xmlns:cc="http://creativecommons.org/ns#"
   xmlns:rdf="http://www.w3.org/1999/02/22-rdf-syntax-ns#"
   xmlns:svg="http://www.w3.org/2000/svg"
   xmlns="http://www.w3.org/2000/svg"
   xmlns:sodipodi="http://sodipodi.sourceforge.net/DTD/sodipodi-0.dtd"
   xmlns:inkscape="http://www.inkscape.org/namespaces/inkscape"
   version="1.1"
   width="408.75043"
   height="408.83228"
   id="svg2"
   xml:space="preserve"
   inkscape:version="0.48.4 r9939"
   sodipodi:docname="black_chariot.svg"><sodipodi:namedview
     pagecolor="#ffffff"
     bordercolor="#666666"
     borderopacity="1"
     objecttolerance="10"
     gridtolerance="10"
     guidetolerance="10"
     inkscape:pageopacity="0"
     inkscape:pageshadow="2"
     inkscape:window-width="1920"
     inkscape:window-height="1024"
     id="namedview9"
     showgrid="false"
     inkscape:zoom="0.21106688"
     inkscape:cx="1374.0183"
     inkscape:cy="-252.82902"
     inkscape:window-x="0"
     inkscape:window-y="0"
     inkscape:window-maximized="1"
     inkscape:current-layer="svg2"
     fit-margin-top="0"
     fit-margin-left="0"
     fit-margin-right="0"
     fit-margin-bottom="0" /><metadata
     id="metadata8"><rdf:RDF><cc:Work
         rdf:about=""><dc:format>image/svg+xml</dc:format><dc:type
           rdf:resource="http://purl.org/dc/dcmitype/StillImage" /><dc:title></dc:title></cc:Work></rdf:RDF></metadata><defs
     id="defs6" /><path
     sodipodi:type="arc"
     style="color:#000000;fill:#ffffff;fill-opacity:1;fill-rule:nonzero;stroke:none;stroke-width:0;marker:none;visibility:visible;display:inline;overflow:visible;enable-background:accumulate"
     id="path3951"
     sodipodi:cx="698.50732"
     sodipodi:cy="336.97931"
     sodipodi:rx="192.63391"
     sodipodi:ry="192.63391"
     d="m 891.14124,336.97931 a 192.63391,192.63391 0 1 1 -385.26783,0 192.63391,192.63391 0 1 1 385.26783,0 z"
     transform="translate(-494.13212,-132.56317)" /><path
     id="path3059"
     style="fill:#000000;fill-opacity:1;fill-rule:nonzero;stroke:none"
     d="m 145.61061,189.04495 43.26125,0 0,21.5625 -43.26125,0 0,-21.5625 z m 65.41,-7.1875 43.26125,0 0,7.34375 -0.13625,3.4375 -1.5825,2.1675 -3.73,4.4525 -3.4575,4.02375 -2.87125,0.1375 -31.48375,0 0,-21.5625 z m -72.735,-36.3675 50.58625,0 0,21.71875 -39.53125,0 -2.87125,-2.305 -5.605,-4.60875 -2.44125,-2.14875 -0.1375,-3.73125 0,-8.925 z m 72.735,0 c 7.1875,0 14.22875,-1.19625 21.1325,-3.59375 0.66375,-0.18125 1.80625,-0.70375 3.4375,-1.5625 1.64125,-0.86875 2.97875,-1.40625 4.02375,-1.60125 1.445,-0.28375 4.41875,-0.43 8.925,-0.43 l 13.08625,0 0,28.75 c -1.16125,0 -2.48,-0.3325 -3.965,-0.99625 -1.48375,-0.67375 -2.51375,-1.48875 -3.085,-2.44125 -0.0937,-0.195 -0.1375,-1.445 -0.1375,-3.75 l -43.4175,0 0,-14.375 z m 0,-109.238752 -36.66,0 c 0.0875,1.82625 0.7125,3.59375 1.875,5.3125 1.3375,1.82625 2.01125,2.78375 2.01125,2.87125 0.57125,2.11 1.60125,6.42625 3.08625,12.94875 1.48375,6.51375 2.75375,11.495 3.80875,14.9425 0.0875,0.38 0.37625,0.85875 0.85875,1.445 0.47875,0.57625 0.7675,0.9075 0.86,0.99625 1.1575,1.5375 1.82625,3.26125 2.01125,5.175 -0.38125,0 -1.1225,-0.0438 -2.22625,-0.13625 -1.09375,-0.1025 -2.08,-0.1275 -2.95,-0.0787 -0.85875,0.0537 -1.62,0.17125 -2.285,0.3525 -0.96625,0.3025 -4.41375,2.02625 -10.35125,5.175 -2.21625,1.25 -3.60875,1.92375 -4.18,2.0125 l -50.585,0 0,14.667502 c 2.3925,0.28875 7.66125,1.9675 15.8,5.03875 0.39125,0.0937 1.06,0.3525 2.0125,0.78125 0.96125,0.43 1.80125,0.7725 2.51875,1.01625 0.71375,0.23375 1.41125,0.35125 2.09,0.35125 1.62625,0 3.39875,-0.0687 5.3125,-0.215 1.91375,-0.14125 3.49625,-0.2825 4.74625,-0.43 1.25,-0.14125 3.07125,-0.45375 5.46875,-0.9375 2.3925,-0.4775 3.95,-0.79 4.6675,-0.9375 0.71375,-0.14125 2.53,-0.57125 5.45,-1.28875 2.92875,-0.7125 4.53625,-1.1175 4.82375,-1.21125 5.46875,-1.3375 8.4375,-2.06 8.90625,-2.1675 l 10.78125,0 0,28.75 -79.92125,0 c 0,0.77125 -0.0488,1.92375 -0.1375,3.4575 -0.0925,1.5375 -0.13625,2.92875 -0.13625,4.17875 0,1.24125 0.0875,2.38375 0.27375,3.4375 0.195,1.055 0.6925,2.54 1.50375,4.45375 0.82,1.91375 1.3275,3.2125 1.5225,3.88625 1.82125,5.07875 3.59375,10.58625 5.3125,16.52375 2.96875,9.78 6.275,24.54125 9.9225,44.2775 0.195,0.96625 0.66875,3.17375 1.42625,6.62125 0.76625,3.4525 1.3175,6.30375 1.66,8.555 0.33625,2.255 0.5075,4.4825 0.5075,6.67875 l 58.06625,0 0,21.5625 -102.773752,0 -6.465,-0.15625 c -4.31125,-0.0875 -6.46375,-0.0387 -6.46375,0.15625 -0.67875,0.0937 -2.16875,0.7625 -4.47375,2.0125 l -10.33125,5.175 c -0.58625,0.19625 -1.30875,0.3225 -2.16875,0.37125 -0.85875,0.0387 -1.87,0.015 -3.02625,-0.0775 -1.1475,-0.1025 -1.91,-0.15625 -2.28625,-0.15625 l 0,14.6675 c 3.0575,0 6.6025,0.67375 10.625,2.01125 2.58875,1.055 4.0825,1.7725 4.47375,2.14875 0.75125,0.77125 1.5625,1.5925 2.42125,2.46125 0.86875,0.85875 1.83625,1.81625 2.89125,2.87125 1.05375,1.055 1.865,1.87 2.44125,2.44125 0.0875,0.0925 0.3225,0.35125 0.7025,0.78125 0.39125,0.43 0.68375,0.7425 0.87875,0.9375 0.19625,0.195 0.455,0.39 0.78125,0.58625 0.3375,0.185 0.70375,0.2725 1.09375,0.2725 l 4.74625,0 c 1.055,-0.18 2.6275,-0.75125 4.72625,-1.71875 2.11,-0.96125 3.2625,-1.48875 3.4575,-1.58125 8.81375,-3.36 14.848752,-5.7525 18.105002,-7.1875 0.675,-0.28375 1.6125,-0.7425 2.8125,-1.3675 1.19625,-0.625 2.295,-1.1225 3.30125,-1.50375 1.01625,-0.39125 1.9975,-0.67375 2.94875,-0.86 0.86,-0.195 3.73625,-0.2925 8.63375,-0.2925 l 62.94875,0 0,94.59 14.805,0 0,-70.87875 c 0,-0.66375 -0.03,-1.5925 -0.0787,-2.79375 -0.0388,-1.19625 -0.0588,-2.27 -0.0588,-3.2225 0,-0.96125 0.045,-1.88 0.1375,-2.75375 0.1025,-0.57125 0.78125,-2.00125 2.03125,-4.29625 0.37625,-0.7675 0.9475,-1.84625 1.71875,-3.2425 0.76625,-1.39125 1.435,-2.66125 2.01125,-3.80875 0.57125,-1.1425 1.045,-2.24625 1.42625,-3.30125 0.195,-0.585 0.3175,-1.3275 0.37125,-2.22625 0.0488,-0.9075 0.0238,-1.93875 -0.0788,-3.08625 -0.0925,-1.15625 -0.13625,-1.92375 -0.13625,-2.30375 l 41.1125,0 c 1.43125,0 3.53625,0.0487 6.30875,0.13625 2.78375,0.0925 5.3225,0.13625 7.6175,0.13625 2.305,0 4.41875,-0.0875 6.3475,-0.2725 0.7525,-0.1025 3.19375,-1.11375 7.325,-3.0275 0.66375,-0.28375 1.665,-0.7425 3.0075,-1.3675 1.3525,-0.625 2.6025,-1.17125 3.75,-1.64 1.1425,-0.47875 2.1975,-0.82125 3.16375,-1.01625 0.37625,-0.0875 2.1925,-0.13625 5.44875,-0.13625 0.47875,0 0.9825,0.11625 1.505,0.35125 0.53125,0.23375 1.15625,0.62 1.875,1.1525 0.7275,0.5225 1.18125,0.835 1.36625,0.9375 2.58875,1.3425 5.08375,2.49 7.48125,3.4375 1.91375,0.87375 3.0125,1.30875 3.3,1.30875 l 45.56625,0 0,-12.65625 c 0,-3.4475 -0.0488,-5.27375 -0.13625,-5.46875 -0.0925,-0.37625 -0.36125,-0.80625 -0.80125,-1.29 -0.42875,-0.4775 -0.98625,-1.005 -1.66,-1.58125 -0.66375,-0.57125 -1.08875,-0.9575 -1.26875,-1.1525 -2.11,-2.11 -3.31125,-3.26125 -3.59375,-3.4575 -1.53875,-1.1425 -3.985,-2.46 -7.34375,-3.945 -3.35,-1.48375 -5.36125,-2.4125 -6.035,-2.7925 -0.57625,-0.29875 -2.34375,-1.21125 -5.3125,-2.735 -1.73375,-0.86875 -2.6475,-1.30875 -2.735,-1.30875 -0.48375,-0.0875 -2.305,0.01 -5.46875,0.29375 -3.8275,0.2875 -9.385,1.38625 -16.66,3.3 -1.63125,0.39125 -3.37875,0.7575 -5.25375,1.09375 -1.875,0.3275 -3.94125,0.68375 -6.19125,1.075 -2.24125,0.38 -3.985,0.66375 -5.235,0.85875 -10.35125,1.71875 -18.35375,2.87125 -24.00375,3.4575 -0.77125,0.0925 -2.35375,0.19 -4.74625,0.2925 -2.3975,0.0925 -4.2675,0.23 -5.605,0.41 -1.73375,0.30375 -4.63875,0.9525 -8.71125,1.95375 -4.0625,1.00625 -7.24625,1.60125 -9.55125,1.79625 -2.3975,0.19625 -4.99,0.29375 -7.7725,0.29375 -2.77375,0 -5.86,-0.0437 -9.25875,-0.1375 -3.3975,-0.1025 -6.01,-0.15625 -7.83125,-0.15625 l 0,-21.5625 17.24625,0 c 0.57125,0 1.40625,-0.0437 2.5,-0.13625 1.10375,-0.1025 2.11375,-0.15625 3.0275,-0.15625 0.9075,0 1.70375,0.0975 2.3825,0.2925 0.85875,0.19625 2.00125,0.67875 3.4375,1.44625 1.445,0.75625 2.35375,1.23 2.73375,1.425 7.38375,2.88125 13.4675,4.31625 18.2625,4.31625 l 4.4525,0 c 1.055,0 1.68,-0.0487 1.875,-0.15625 l 0.43,-1.28875 c 0.195,-0.85875 0.67375,-1.71875 1.445,-2.5775 0.37625,-0.39125 1.02125,-0.91875 1.93375,-1.5825 0.90875,-0.67375 1.50875,-1.255 1.7975,-1.73875 0.0875,-0.0875 0.57125,-1.47375 1.445,-4.16 0.37625,-1.055 0.89875,-2.6075 1.5625,-4.6675 0.67375,-2.05625 1.1575,-3.565 1.445,-4.53125 1.72875,-4.6975 2.68625,-7.525 2.87125,-8.47625 0.1025,-0.87 0.17625,-2.16875 0.215,-3.8875 0.0488,-1.71875 0.0775,-2.8175 0.0775,-3.3 0.19625,-2.5 0.67375,-6.23625 1.44625,-11.21125 2.10875,-11.69 6.46375,-22.13875 13.06625,-31.3475 2.5,-3.4475 4.56,-5.98625 6.19125,-7.6175 0.2825,-0.28375 0.76125,-0.7125 1.425,-1.28875 0.675,-0.57125 1.255,-1.11875 1.73875,-1.64125 0.47875,-0.5325 0.865,-1.04 1.1525,-1.52375 0.0875,-0.195 0.13625,-1.15125 0.13625,-2.87 0,-0.28375 0,-0.81125 0,-1.5825 0,-0.76625 0,-1.31875 0,-1.66 0,-0.3375 -0.0538,-0.79125 -0.15625,-1.3675 -0.0925,-0.57125 -0.23375,-1.07375 -0.42875,-1.50375 -0.18625,-0.43 -0.46875,-0.84 -0.86,-1.23 -1.81125,-2.0025 -5.9325,-4.6875 -12.36375,-8.0475 -3.25625,-1.71875 -6.79625,-3.4425 -10.625,-5.17625 -2.5,-1.235 -4.08125,-1.9525 -4.745,-2.1475 -0.9675,-0.19625 -2.04625,-0.29375 -3.2425,-0.29375 -1.20125,0 -2.515,0.0537 -3.945,0.15625 -1.43625,0.0937 -2.535,0.1375 -3.30125,0.1375 l -11.93375,0 c -3.935,0.4825 -11.69875,2.1575 -23.30125,5.01875 -0.66375,0.19625 -1.57625,0.46375 -2.73375,0.80125 -1.1475,0.34125 -2.2025,0.625 -3.16375,0.85875 -0.9525,0.235 -1.85625,0.40625 -2.715,0.50875 l -10.78125,0 0,-12.36375 c 0,-3.35875 0.0438,-5.18 0.13625,-5.46875 0.1025,-0.37625 0.29875,-0.7325 0.58625,-1.07375 0.28375,-0.3375 0.645,-0.7425 1.07375,-1.21125 0.43,-0.47875 0.68875,-0.77125 0.78125,-0.87875 l 4.31625,-5.176252 c 1.14375,-1.43 1.8175,-2.1925 2.0125,-2.285 0.2825,-0.195 1.865,-0.2925 4.74625,-0.2925 l 58.78875,0 0,-21.9925 -72.44125,0 0,-36.3675 z M 197.79811,0.1574482 c 2.485,-0.2825 7.94875,-0.185 16.38625,0.29375 14.375,0.57625 28.26625,2.63625 41.68,6.19125 32.10875,8.5299998 61.58125,25.3024998 88.4175,50.3124998 22.4225,20.88875 39.19,44.892502 50.3125,72.011252 8.81375,21.08375 13.50625,44.4675 14.0825,70.15625 0.76625,29.03875 -4.45375,56.68 -15.66375,82.93 -9.2975,21.7575 -22.1,41.50375 -38.39875,59.2375 -16.28875,17.72 -35.1175,32.33 -56.485,43.82875 -21.36625,11.50875 -43.70125,18.79375 -66.99125,21.855 -35.36625,4.595 -69,0.67 -100.89875,-11.7775 -24.83375,-9.78 -47.691252,-25.11625 -68.575002,-46.015 -22.33375,-22.315 -38.6275,-46.9925 -48.88625,-74.02375 -9.5850002,-25.205 -13.7787502,-51.91875 -12.5775002,-80.13625 1.19625,-28.2275 7.64125,-54.4625 19.3350002,-78.71125 9.2975,-19.257502 22.8575,-37.797502 40.68375,-55.625002 24.815,-24.81375 51.748752,-41.875 80.801252,-51.1712498 12.54875,-3.93125 25.24375,-6.61125 38.08625,-8.0475 2.68,-0.2975 6.70375,-0.635 12.07,-1.015 0.47875,0 1.48375,-0.02 3.0075,-0.0588 1.53375,-0.0487 2.73875,-0.1275 3.61375,-0.235 z"
     inkscape:connector-curvature="0" /></svg>