<?xml version="1.0" encoding="UTF-8" standalone="no"?>
<!-- Created with Inkscape (http://www.inkscape.org/) -->

<svg
   xmlns:dc="http://purl.org/dc/elements/1.1/"
   xmlns:cc="http://creativecommons.org/ns#"
   xmlns:rdf="http://www.w3.org/1999/02/22-rdf-syntax-ns#"
   xmlns:svg="http://www.w3.org/2000/svg"
   xmlns="http://www.w3.org/2000/svg"
   xmlns:sodipodi="http://sodipodi.sourceforge.net/DTD/sodipodi-0.dtd"
   xmlns:inkscape="http://www.inkscape.org/namespaces/inkscape"
   version="1.1"
   width="408.64331"
   height="408.84946"
   id="svg2"
   xml:space="preserve"
   inkscape:version="0.48.4 r9939"
   sodipodi:docname="black_pawn.svg"><sodipodi:namedview
     pagecolor="#ffffff"
     bordercolor="#666666"
     borderopacity="1"
     objecttolerance="10"
     gridtolerance="10"
     guidetolerance="10"
     inkscape:pageopacity="0"
     inkscape:pageshadow="2"
     inkscape:window-width="1920"
     inkscape:window-height="1024"
     id="namedview9"
     showgrid="false"
     inkscape:zoom="0.29849365"
     inkscape:cx="-206.02876"
     inkscape:cy="-614.28037"
     inkscape:window-x="0"
     inkscape:window-y="0"
     inkscape:window-maximized="1"
     inkscape:current-layer="svg2"
     fit-margin-top="0"
     fit-margin-left="0"
     fit-margin-right="0"
     fit-margin-bottom="0" /><metadata
     id="metadata8"><rdf:RDF><cc:Work
         rdf:about=""><dc:format>image/svg+xml</dc:format><dc:type
           rdf:resource="http://purl.org/dc/dcmitype/StillImage" /><dc:title></dc:title></cc:Work></rdf:RDF></metadata><defs
     id="defs6" /><path
     sodipodi:type="arc"
     style="color:#000000;fill:#ffffff;fill-opacity:1;fill-rule:nonzero;stroke:none;stroke-width:0;marker:none;visibility:visible;display:inline;overflow:visible;enable-background:accumulate"
     id="path3963"
     sodipodi:cx="698.50732"
     sodipodi:cy="336.97931"
     sodipodi:rx="192.63391"
     sodipodi:ry="192.63391"
     d="m 891.14124,336.97931 a 192.63391,192.63391 0 1 1 -385.26783,0 192.63391,192.63391 0 1 1 385.26783,0 z"
     transform="translate(-494.18563,-132.55459)" /><path
     id="path14"
     style="fill:#000000;fill-opacity:1;fill-rule:nonzero;stroke:none"
     d="m 167.08167,138.30245 0,-18.2425 c -0.1862,-0.47875 -0.4987,-1.00625 -0.9375,-1.5825 -0.43,-0.585 -1.0063,-1.235 -1.7188,-1.9525 -0.7175,-0.7125 -1.1725,-1.1725 -1.3675,-1.3675 -0.3812,-0.46875 -0.9525,-1.1575 -1.7187,-2.07 -0.7713,-0.90875 -1.3425,-1.60625 -1.7188,-2.09 -0.1075,-0.0875 -0.3512,-0.37625 -0.7425,-0.85875 -0.38,-0.47875 -0.7125,-0.82125 -0.9962,-1.01625 -0.185,-0.0875 -0.9463,-0.13625 -2.285,-0.13625 l -25.0188,0 0,7.1875 c -0.1962,0.85875 -0.4887,1.79625 -0.8787,2.8125 -0.3813,1.005 -0.88,2.10375 -1.505,3.3 -0.615,1.20125 -1.015,2.085 -1.21,2.65625 -3.6475,8.72625 -6.1425,14.5225 -7.4813,17.38375 -3.935,8.6325 -6.7575,13.955 -8.4762,15.95625 -0.8587,0.9675 -2.47,1.9725 -4.8238,3.0275 -2.3437,1.055 -3.8037,1.7725 -4.375,2.14875 -0.2887,0.195 -1.4412,1.30375 -3.457497,3.32 l -6.6012,6.60125 c -0.2888,0.28875 -0.7963,0.7225 -1.5238,1.30875 -0.7175,0.57625 -1.3187,1.1475 -1.7962,1.71875 -0.4687,0.57625 -0.85,1.10375 -1.1338,1.5825 -0.1074,0.185 -0.1562,1.9525 -0.1562,5.3125 l 0,12.93 c 0.6738,-0.18125 2.3537,-0.99625 5.04,-2.4425 L 123.25287,178.2637 c 0.86,-0.57125 1.7438,-1.29 2.6563,-2.14875 0.9087,-0.86 1.895,-1.885 2.95,-3.08625 1.055,-1.19625 1.865,-2.08 2.4412,-2.65625 0.088,-0.1025 0.3513,-0.415 0.7813,-0.9375 0.43,-0.5325 0.83,-0.96125 1.2113,-1.28875 0.3899,-0.3375 0.7274,-0.5075 1.0149,-0.5075 0.1025,0 0.5863,0.42875 1.445,1.28875 0.86,0.85875 2.1538,2.24625 3.8875,4.16 l 9.4725,10.35125 c 0.39,0.39125 0.8988,0.9725 1.5238,1.73875 0.625,0.77125 1.1962,1.465 1.7188,2.09 0.5175,0.615 1.0737,1.1125 1.6599,1.50375 0.3763,0.2875 0.8788,0.45875 1.5038,0.5075 0.625,0.0387 1.4112,0.015 2.3625,-0.0775 0.9625,-0.1025 1.5437,-0.15625 1.7387,-0.15625 l 14.805,0 0,-29.18 -5.4687,-1.42625 -16.0938,-5.605 -7.4812,-0.15625 0,-0.1375 c 1.4312,-0.76625 2.8425,-2.53875 4.2387,-5.3125 1.3913,-2.7825 2.3288,-4.4625 2.8125,-5.03875 0.3763,-0.37625 1.5725,-0.9475 3.5938,-1.71875 3.8288,-1.445 7.51,-2.1675 11.055,-2.1675 z m 86.9725,0 c 5.65,0 10.44,-1.19625 14.375,-3.59375 0.2837,-0.18125 1.5825,-1.42625 3.8862,-3.73125 2.1975,-2.19625 3.35,-3.3975 3.4575,-3.59375 0.1813,-0.39 0.2975,-0.96125 0.3513,-1.71875 0.049,-0.76625 0.025,-1.65 -0.077,-2.65625 -0.093,-1.015 -0.1375,-1.665 -0.1375,-1.9525 l 0,-5.605 c 0,-1.53375 -0.049,-2.44625 -0.1363,-2.735 -0.1075,-0.37625 -0.8737,-1.43 -2.305,-3.16375 l -4.3162,-5.17625 c -1.25,-1.52375 -1.9675,-2.33375 -2.1488,-2.44125 -0.195,-0.195 -0.8687,-0.2925 -2.0112,-0.2925 l -25.4487,0 0,10.9375 -1.2901,2.5775 c -0.4825,1.1625 -1.5375,3.41375 -3.1637,6.7575 -4.2188,9.4925 -6.7575,15.44 -7.6175,17.8325 -2.2163,6.32875 -3.705,10.78125 -4.4725,13.36 -0.092,0.39 -0.3075,1.38125 -0.6437,2.96875 -0.3276,1.57625 -0.6401,2.74875 -0.9375,3.515 -0.094,0.28875 -0.2838,0.5275 -0.5663,0.7225 -0.2888,0.18625 -0.6013,0.40125 -0.9375,0.645 -0.3425,0.23375 -0.6013,0.4 -0.7825,0.4875 -1.7325,1.34375 -2.9825,2.45125 -3.75,3.32125 -2.7725,3.06125 -4.4038,6.17125 -4.8825,9.335 -0.092,0.7725 -0.1363,1.5625 -0.1363,2.38375 0,0.81 0.019,1.71375 0.059,2.715 0.049,1.005 0.077,1.79625 0.077,2.3825 -0.4825,0 -2.685,-0.57625 -6.6013,-1.73875 -0.4837,-0.18 -2.5737,-0.98625 -6.27,-2.42125 -3.6862,-1.44625 -6.5375,-2.4075 -8.5537,-2.89125 -0.665,-0.195 -1.4363,-0.3125 -2.305,-0.35125 -0.86,-0.0487 -1.8462,-0.025 -2.95,0.0775 -1.0925,0.0937 -1.8838,0.1375 -2.3625,0.1375 l -0.1375,43.39875 c -13.4125,0 -27.3575,0.67375 -41.835,2.01125 -1.7188,0.195 -4.0725,0.44 -7.0513,0.7225 -2.9687,0.28875 -5.6975,0.55625 -8.1837,0.80125 -2.49,0.23375 -4.8388,0.44875 -7.05,0.64375 -30.093697,2.11 -54.668797,3.165 -73.731297,3.165 l 0,14.6475 c 4.5025,0 6.9438,0.0537 7.3251,0.15625 0.9612,0.19625 2.6412,0.81625 5.0387,1.85625 0.9475,0.3025 2.505,0.87875 4.6675,1.7375 2.1587,0.86 4.0725,1.5775 5.7425,2.14875 1.68,0.57625 3.2862,1.00625 4.8237,1.28875 0.4788,0.1075 3.2088,0.15625 8.1838,0.15625 l 14.375,0 c 1.3387,-0.1025 3.2325,-0.34125 5.6837,-0.7225 2.446297,-0.37625 4.052597,-0.615 4.823797,-0.7225 4.7912,-0.57125 11.5925,-1.60125 20.4113,-3.08625 8.8125,-1.48375 14.3212,-2.3675 16.5224,-2.65625 0.2838,-0.1025 1.6263,-0.005 4.0238,0.29375 2.5875,0.185 5.1275,0.0337 7.6175,-0.45 0.39,-0.0875 1.1125,-0.32125 2.1675,-0.7025 1.055,-0.39125 1.865,-0.63 2.4412,-0.7225 4.2188,-0.47875 6.5675,-0.82125 7.0513,-1.01625 0.6637,-0.18 1.6112,-0.58625 2.8512,-1.21125 1.25,-0.625 2.115,-1.035 2.5975,-1.23 3.9313,-1.5325 7.7638,-2.34875 11.5038,-2.44125 l 0,105.37125 2.0125,6.465 5.175,15.5275 0.1375,3.73 0,7.34375 7.3437,0 0,-7.1875 3.1638,-6.32875 6.7575,-13.65125 3.0088,-6.03625 1.5812,-3.45625 0,-101.7775 138.0075,0 0.1375,-3.4575 2.1488,-2.44125 5.0387,-5.01875 0,-0.15625 c -1.4362,-1.43125 -3.5888,-3.56 -6.465,-6.3875 -2.8812,-2.8225 -5.0338,-4.96125 -6.465,-6.40625 l -3.5938,-3.59375 c -1.055,-1.055 -1.68,-1.58125 -1.875,-1.58125 -0.195,-0.0887 -1.2062,-0.1375 -3.0275,-0.1375 l -6.6012,0 c -2.8812,0 -11.5038,0.48375 -25.8788,1.445 -6.6162,0.46875 -16.485,1.475 -29.61,3.00875 -13.125,1.5375 -22.9487,2.495 -29.4725,2.87125 -2.3975,0.195 -4.99,0.2925 -7.7737,0.2925 -2.7725,0 -5.8875,-0.0437 -9.335,-0.13625 -3.4525,-0.1025 -6.0888,-0.15625 -7.91,-0.15625 l 0,-17.96875 c 0,-0.37625 -0.049,-1.13875 -0.1375,-2.28625 -0.092,-1.15625 -0.1363,-2.19125 -0.1363,-3.105 0,-0.9075 0.1413,-1.65 0.4301,-2.22625 0.6637,-1.52375 2.3337,-3.29125 5.0187,-5.3125 2.8762,-2.305 6.5237,-4.41375 10.9375,-6.32875 0.3762,-0.195 1.2362,-0.55125 2.5787,-1.07375 1.3375,-0.5325 2.295,-0.98625 2.8713,-1.3675 0.39,-0.2825 0.8,-0.615 1.23,-0.99625 0.43,-0.39 0.9037,-0.86875 1.4263,-1.445 0.5312,-0.57125 0.8974,-0.9575 1.0937,-1.1525 l 7.3237,-7.32375 c 0.2838,0.77125 0.9576,1.91375 2.0113,3.4375 1.4463,2.305 3.5062,4.8 6.1925,7.48 6.5087,6.51375 15.4675,11.54375 26.875,15.0975 4.8825,1.53875 8.955,2.54 12.2262,3.00875 l 0,-23.28125 c 0,-1.25 -0.054,-1.96375 -0.1562,-2.14875 -0.093,-0.28375 -0.3075,-0.5475 -0.645,-0.78125 -0.3413,-0.24375 -0.7225,-0.5125 -1.1525,-0.80125 -0.43,-0.2825 -0.6925,-0.47875 -0.7813,-0.58625 -2.88,-2.10875 -5.0875,-3.6375 -6.6212,-4.58875 -11.6938,-7.66625 -23.1438,-11.505 -34.355,-11.505 l 0,-7.05 z m -65.41,-58.360002 0.1562,0.1375 -0.1562,-0.1375 z m 29.18,-7.1875 c 0,-3.05625 -0.7187,-8.28125 -2.1488,-15.66375 -0.092,-0.39 -0.21,-1.06 -0.3512,-2.01125 -0.1475,-0.9625 -0.3125,-1.8025 -0.5088,-2.52 -0.195,-0.7125 -0.4387,-1.31375 -0.7225,-1.79625 -0.092,-0.19625 -0.9512,-1.10375 -2.5775,-2.735 l -5.3325,-5.3125 -4.4524,-4.4525 c -1.1476,-1.1575 -1.8663,-1.7825 -2.1488,-1.875 -0.195,-0.0888 -1.2063,-0.1375 -3.0275,-0.1375 l -29.61,0 0,13.36 c 0,0.195 -0.053,0.7225 -0.155,1.58125 -0.094,0.86 -0.1125,1.5825 -0.059,2.16875 0.049,0.57625 0.2187,1.05 0.5074,1.425 0.3763,0.57625 0.85,1.1725 1.4263,1.7975 0.585,0.625 1.2787,1.29875 2.0887,2.01125 0.8213,0.7175 1.3725,1.22125 1.6613,1.50375 1.1425,1.1625 2.8613,2.91 5.155,5.25375 2.305,2.34375 4.0337,4.0975 5.1962,5.255 l 4.0238,4.0225 c 1.0537,1.055 1.625,1.72875 1.7175,2.0125 0.089,0.195 0.1375,1.29875 0.1375,3.3 -4.405,0 -8.9063,0.19625 -13.5163,0.58625 -4.5987,0.38125 -10.175,0.9525 -16.7375,1.71875 -6.5625,0.77125 -11.045,1.245 -13.4375,1.42625 -24.7262,2.3975 -43.9949,3.59375 -57.793697,3.59375 l 0,14.531252 c 5.5575,0 11.9337,0.57625 19.121197,1.71875 0.5713,0.1075 2.0563,0.42 4.4538,0.9375 2.3925,0.5225 4.2187,0.835 5.4687,0.9375 0,2.5925 0.3313,3.97875 0.9963,4.16 1.3525,0.1075 2.9875,-0.80625 4.9025,-2.735 0.8587,-0.85875 1.4737,-1.3325 1.855,-1.425 1.8212,-0.28375 4.4825,-0.5275 7.9875,-0.7225 3.5012,-0.19625 5.6837,-0.3375 6.5437,-0.43 8.7201,-0.9625 15.3813,-1.53375 19.98,-1.71875 4.6875,-0.195 11.49,-0.77125 20.41,-1.73875 3.54,-0.37625 8.8575,-0.805002 15.9575,-1.288752 7.095,-0.47875 12.4125,-0.90875 15.9576,-1.28875 4.3062,-0.39125 10.3899,-1.20125 18.2412,-2.44125 7.8613,-1.25 13.38,-2.06125 16.5437,-2.4425 2.5875,-0.39 7.91,-1.18125 15.9563,-2.3825 8.0475,-1.19625 14.7762,-2.08 20.1963,-2.65625 5.4149,-0.57125 10.7612,-0.85875 16.0349,-0.85875 l 0,-21.9925 -32.6375,0 c -1.1475,0 -2.8462,-0.0437 -5.0975,-0.13625 -2.255,-0.1025 -4.2725,-0.15625 -6.0537,-0.15625 -1.7725,0 -3.4188,0.0975 -4.9425,0.2925 -2.1088,0.2875 -4.0763,0.85875 -5.8975,1.71875 -0.2888,0.0925 -0.8887,0.405 -1.7975,0.9375 -0.9125,0.5225 -1.655,0.87875 -2.2263,1.07375 -7.4762,2.3975 -14.5699,3.59375 -21.2887,3.59375 z m -20.41,-72.5974998 c 2.5,-0.2825 8.0125,-0.185 16.5425,0.29375 15.0387,0.57625 29.4575,2.7825 43.2612,6.62 31.1426,8.3349998 60.1813,25.0537498 87.11,50.1562498 22.5238,20.89875 39.3451,45.098752 50.4688,72.598752 8.0462,19.93625 12.5975,42.31375 13.6525,67.12875 1.43,32.20125 -5.04,63.3 -19.415,93.3 -15.0388,31.045 -36.7475,57.15375 -65.1162,78.34 -28.3601,21.1825 -59.3663,33.975 -93.0088,38.37875 -33.2563,4.3075 -64.6425,1.19625 -94.16,-9.335 -25.39,-9.1025 -48.964997,-23.81875 -70.722497,-44.14125 -25.39,-23.76 -43.6913,-51.3575 -54.9025,-82.7925 C 4.7966729,252.96995 1.1491729,232.7062 0.18667293,209.9037 -1.1558271,178.08245 4.7428729,147.89245 17.881673,119.33745 c 9.4787,-20.415002 23.4675,-39.868752 41.9738,-58.360002 8.8125,-8.8275 16.9137,-16.06375 24.2962,-21.71875 17.431297,-13.32 36.406197,-23.285 56.913697,-29.9012498 12.8375,-4.11125 25.8263,-6.7975 38.965,-8.0475 7.0801,-0.57125 10.7225,-0.85875 10.9188,-0.85875 0.4775,0 1.465,-0.02 2.9487,-0.0588 1.4838,-0.0487 2.6563,-0.1275 3.5163,-0.235 z"
     inkscape:connector-curvature="0" /></svg>