<?xml version="1.0" encoding="UTF-8" standalone="no"?>
<!-- Created with Inkscape (http://www.inkscape.org/) -->

<svg
   xmlns:dc="http://purl.org/dc/elements/1.1/"
   xmlns:cc="http://creativecommons.org/ns#"
   xmlns:rdf="http://www.w3.org/1999/02/22-rdf-syntax-ns#"
   xmlns:svg="http://www.w3.org/2000/svg"
   xmlns="http://www.w3.org/2000/svg"
   xmlns:sodipodi="http://sodipodi.sourceforge.net/DTD/sodipodi-0.dtd"
   xmlns:inkscape="http://www.inkscape.org/namespaces/inkscape"
   version="1.1"
   width="406.75977"
   height="407.09329"
   id="svg2"
   xml:space="preserve"
   inkscape:version="0.48.4 r9939"
   sodipodi:docname="black_advisor.svg"><sodipodi:namedview
     pagecolor="#ffffff"
     bordercolor="#666666"
     borderopacity="1"
     objecttolerance="10"
     gridtolerance="10"
     guidetolerance="10"
     inkscape:pageopacity="0"
     inkscape:pageshadow="2"
     inkscape:window-width="1920"
     inkscape:window-height="1024"
     id="namedview9"
     showgrid="false"
     inkscape:zoom="0.21106688"
     inkscape:cx="-584.59479"
     inkscape:cy="224.66605"
     inkscape:window-x="0"
     inkscape:window-y="0"
     inkscape:window-maximized="1"
     inkscape:current-layer="svg2"
     fit-margin-top="0"
     fit-margin-left="0"
     fit-margin-right="0"
     fit-margin-bottom="0" /><metadata
     id="metadata8"><rdf:RDF><cc:Work
         rdf:about=""><dc:format>image/svg+xml</dc:format><dc:type
           rdf:resource="http://purl.org/dc/dcmitype/StillImage" /><dc:title></dc:title></cc:Work></rdf:RDF></metadata><defs
     id="defs6" /><path
     transform="translate(-495.12743,-133.43266)"
     d="m 891.14124,336.97931 a 192.63391,192.63391 0 1 1 -385.26783,0 192.63391,192.63391 0 1 1 385.26783,0 z"
     sodipodi:ry="192.63391"
     sodipodi:rx="192.63391"
     sodipodi:cy="336.97931"
     sodipodi:cx="698.50732"
     id="path3957"
     style="color:#000000;fill:#ffffff;fill-opacity:1;fill-rule:nonzero;stroke:none;stroke-width:0;marker:none;visibility:visible;display:inline;overflow:visible;enable-background:accumulate"
     sodipodi:type="arc" /><path
     id="path3021"
     style="fill:#000000;fill-opacity:1;fill-rule:nonzero;stroke:none"
     d="m 225.27287,72.462448 c -7.0988,0 -14.0963,-2.53875 -20.9963,-7.6175 -1.3425,-0.9475 -3.2562,-2.48 -5.7412,-4.59 -1.3438,-1.3375 -2.1588,-2.06 -2.4425,-2.1675 -0.195,-0.0875 -1.205,-0.13625 -3.0263,-0.13625 l -12.5,0 c -1.5387,0 -2.4025,0.0487 -2.5987,0.13625 -0.2875,0.195 -0.6,0.48875 -0.9375,0.87875 -0.3263,0.38125 -0.6825,0.81125 -1.0738,1.28875 -0.3812,0.48375 -0.615,0.81625 -0.7025,0.99625 l -5.7625,7.1875 -0.7225,0.86 c -0.5762,0.585 -1.0062,1.09375 -1.2887,1.5225 -0.2888,0.43 -0.3863,0.79125 -0.2938,1.075 0,0.0925 1.1038,1.5325 3.3213,4.31625 l 7.7537,10.35125 c 0.195,0.28875 0.5763,0.7175 1.1525,1.28875 0.5713,0.57625 1.045,1.12875 1.425,1.66125 0.3913,0.5225 0.63,1.025 0.7225,1.50375 0,0.2875 0,0.625 0,1.015 0,0.38125 0,0.78125 0,1.21125 0,0.43 0,0.7425 0,0.9375 l 0,94.726252 -39.375,0 c -13.0362,0 -20.1312,0.0488 -21.2887,0.1375 -4.6875,0.4825 -8.9013,1.1075 -12.6363,1.875 -4.6,1.05375 -7.09,1.63 -7.4812,1.71875 -18.881297,2.30375 -35.556297,3.45625 -50.018797,3.45625 l 0,7.48125 c 0,2.10875 0.044,3.25625 0.1363,3.4375 0.1025,0.2875 0.9187,1.20125 2.4412,2.73375 l 12.7938,12.7925 c 1.7287,1.73375 2.7387,2.6475 3.0275,2.735 0.2825,0.0925 1.7225,0.13625 4.3162,0.13625 l 20.9763,0 c 1.6262,-0.18 4.0237,-0.7275 7.187497,-1.64 3.1637,-0.90875 4.8875,-1.41125 5.1762,-1.50375 2.7825,-0.67375 6.9525,-1.705 12.5,-3.08625 5.5563,-1.39125 9.7313,-2.42625 12.5188,-3.105 3.9312,-1.055 6.04,-1.62625 6.3287,-1.71875 0.7663,-0.19625 1.865,-0.57625 3.3,-1.1525 1.4313,-0.57125 2.745,-1.02625 3.9463,-1.3675 1.1962,-0.3375 2.3725,-0.605 3.535,-0.80125 0.8587,-0.0875 4.7362,-0.13625 11.64,-0.13625 l 20.9762,0 0,87.10875 c -2.0062,0 -4.1162,0.0987 -6.3275,0.29375 -2.2025,0.195 -4.7662,0.5075 -7.695,0.9375 -2.92,0.43 -4.995,0.69375 -6.2312,0.78125 -4.2188,0.48375 -11.3375,1.3475 -21.3475,2.5975 -10.015,1.24 -17.71,2.1 -23.0863,2.5775 -0.7562,0 -1.5712,0 -2.4412,0 -0.8588,0 -1.7963,0 -2.8125,0 -1.005,0 -1.7913,0 -2.3625,0 l -14.804997,0 c 0.1025,0.48375 0.63,1.5925 1.5825,3.32125 2.3037,4.0225 4.222497,6.61125 5.761197,7.75375 0.5713,0.38125 1.2163,0.76125 1.9338,1.1525 0.7125,0.38 1.5275,0.76125 2.4412,1.1525 0.9075,0.38 1.6063,0.66375 2.09,0.85875 3.345,1.71875 6.7425,3.35 10.195,4.8825 0.1025,0.0937 0.8988,0.5225 2.3825,1.29 1.485,0.77125 2.6075,1.25 3.3788,1.445 0.2837,0.0925 1.915,0.13625 4.8837,0.13625 l 9.4913,0 c 5.1662,-0.46875 12.6612,-1.70875 22.4812,-3.73 9.8288,-2.01625 15.4588,-3.16875 16.8938,-3.4575 2.5,-0.46875 6.1925,-0.98625 11.075,-1.5625 4.8825,-0.58625 8.5737,-1.06375 11.0737,-1.445 1.5338,-0.28375 3.6425,-0.7425 6.3288,-1.3675 2.68,-0.625 5.1212,-1.1525 7.3237,-1.58125 2.1975,-0.43 4.3063,-0.7425 6.3288,-0.9375 3.0562,-0.28375 6.24,-0.47375 9.55,-0.5675 3.3062,-0.1025 7.4025,-0.1025 12.285,0 4.8925,0.0937 8.1112,0.1375 9.6487,0.1375 l 53.6138,0 0,-21.9925 -7.325,0 c -1.8263,-0.2825 -4.56,-1.24 -8.2025,-2.87125 -2.49,-1.1575 -4.3563,-2.07 -5.6063,-2.73375 -1.7187,-1.055 -2.8212,-1.5825 -3.3,-1.5825 -0.9675,0 -2.3587,-0.0438 -4.18,-0.13625 -1.8112,-0.1025 -3.4662,-0.15625 -4.9612,-0.15625 -1.4838,0 -2.8463,0.0975 -4.0813,0.2925 -0.9675,0.0925 -3.8437,0.76125 -8.6337,2.01125 -7.0988,1.53875 -12.4163,2.735 -15.9563,3.59375 -0.7712,0.19625 -1.895,0.48875 -3.3787,0.88 -1.485,0.38 -2.6125,0.615 -3.3788,0.7025 l -25.45,0 0,-79.785 c 0.3913,0 1.1575,0.0537 2.305,0.15625 1.1575,0.0925 2.1675,0.1125 3.0275,0.0588 0.8588,-0.0488 1.5725,-0.16625 2.1488,-0.35125 l 10.3512,-5.17625 c 2.305,-1.25 3.7888,-1.91875 4.4525,-2.01125 l 123.0475,0 0,-21.9925 c -6.9925,0 -12.3587,-1.68 -16.0937,-5.03875 -0.86,-0.7675 -2.1288,-1.93875 -3.8088,-3.51625 -1.68,-1.58625 -2.9487,-2.76375 -3.8087,-3.535 -0.195,-0.18125 -0.4638,-0.44 -0.8013,-0.78125 -0.3262,-0.3375 -0.585,-0.59625 -0.7812,-0.78125 -0.195,-0.195 -0.4875,-0.39125 -0.8788,-0.58625 -0.38,-0.195 -0.7125,-0.2925 -0.9962,-0.2925 -1.8113,0 -3.6075,0.0725 -5.39,0.215 -1.7725,0.14625 -3.6863,0.41 -5.7425,0.8 -2.06,0.38125 -3.7838,0.69375 -5.175,0.9375 -1.3975,0.235 -3.3163,0.665 -5.7625,1.29 -2.4363,0.625 -4.18,1.03 -5.2338,1.21 -15.43,3.2725 -27.5975,5.7625 -36.5037,7.48125 -7.1,1.5375 -11.89,2.4025 -14.375,2.5975 l -39.9813,0 0,-56.3475 c 0,-4.5025 0.098,-7.1925 0.2938,-8.06625 0.195,-0.9475 0.4775,-1.92375 0.8587,-2.93 0.3913,-1.01625 0.8888,-2.095 1.5038,-3.2425 0.625,-1.1425 1.0837,-2.1 1.3875,-2.87125 0.7512,-2.10875 1.9187,-5.27375 3.495,-9.492502 1.5875,-4.21875 2.7637,-7.3825 3.5362,-9.49125 0.2825,-0.665 0.6875,-1.62125 1.21,-2.87125 0.5325,-1.25 0.9863,-2.37375 1.3675,-3.37875 0.3913,-1.00125 0.6838,-1.9825 0.8788,-2.95 l 0,-7.48 z M 197.67537,0.1574482 c 2.485,-0.2825 7.9487,-0.185 16.3862,0.29375 14.9463,0.57625 29.61,2.87 43.985,6.89375 34.6875,9.5849998 65.4,28.3699998 92.1488,56.3474998 18.11,18.8825 31.9037,39.487502 41.3862,61.816252 9.4925,22.725 14.5213,47.0225 15.0975,72.89125 0.7663,28.6475 -3.925,55.38625 -14.0812,80.215 -9.4925,23.47625 -23.2238,44.75625 -41.1925,63.8275 -17.9688,19.0625 -38.4075,34.15125 -61.3075,45.27375 -18.3988,8.81375 -38.38,14.65875 -59.9425,17.53875 -32.8663,4.3075 -64.4425,1.045 -94.7263,-9.785 -27.6075,-9.8725 -52.763697,-26.16125 -75.468697,-48.8675 -21.3675,-21.36625 -36.9925,-44.8925 -46.875,-70.585 C 3.4078729,250.7187 -0.89842709,223.8637 0.15537291,195.4512 1.2103729,167.04245 7.6265729,140.6162 19.414073,116.1737 c 8.0563,-16.680002 20.0875,-33.642502 36.0938,-50.898752 25.6737,-27.5 54.613697,-46.23 86.816197,-56.1912498 12.265,-3.8375 24.9125,-6.43125 37.9487,-7.77375 7.0951,-0.57125 10.7426,-0.85875 10.9375,-0.85875 0.4688,0 1.4451,-0.02 2.9301,-0.0588 1.4837,-0.0487 2.6612,-0.1275 3.535,-0.235 z"
     inkscape:connector-curvature="0" /></svg>