<?xml version="1.0" encoding="UTF-8" standalone="no"?>
<!-- Created with Inkscape (http://www.inkscape.org/) -->

<svg
   xmlns:dc="http://purl.org/dc/elements/1.1/"
   xmlns:cc="http://creativecommons.org/ns#"
   xmlns:rdf="http://www.w3.org/1999/02/22-rdf-syntax-ns#"
   xmlns:svg="http://www.w3.org/2000/svg"
   xmlns="http://www.w3.org/2000/svg"
   xmlns:sodipodi="http://sodipodi.sourceforge.net/DTD/sodipodi-0.dtd"
   xmlns:inkscape="http://www.inkscape.org/namespaces/inkscape"
   width="56.568542"
   height="56.568542"
   id="svg2"
   version="1.1"
   inkscape:version="0.48.5 r10040"
   sodipodi:docname="red_cannon.svg">
  <defs
     id="defs4" />
  <sodipodi:namedview
     id="base"
     pagecolor="#ffffff"
     bordercolor="#666666"
     borderopacity="1.0"
     inkscape:pageopacity="0.0"
     inkscape:pageshadow="2"
     inkscape:zoom="14.919953"
     inkscape:cx="28.284271"
     inkscape:cy="28.284271"
     inkscape:document-units="px"
     inkscape:current-layer="layer1"
     showgrid="false"
     inkscape:window-width="1920"
     inkscape:window-height="1024"
     inkscape:window-x="0"
     inkscape:window-y="0"
     inkscape:window-maximized="1"
     fit-margin-top="0"
     fit-margin-left="0"
     fit-margin-right="0"
     fit-margin-bottom="0" />
  <metadata
     id="metadata7">
    <rdf:RDF>
      <cc:Work
         rdf:about="">
        <dc:format>image/svg+xml</dc:format>
        <dc:type
           rdf:resource="http://purl.org/dc/dcmitype/StillImage" />
        <dc:title />
      </cc:Work>
    </rdf:RDF>
  </metadata>
  <g
     inkscape:label="Layer 1"
     inkscape:groupmode="layer"
     id="layer1"
     transform="translate(-315.77419,-31.191184)">
    <g
       id="g4068">
      <path
         sodipodi:type="arc"
         style="color:#000000;fill:#ff0000;fill-opacity:1;fill-rule:nonzero;stroke:none;stroke-width:2;marker:none;visibility:visible;display:inline;overflow:visible;enable-background:accumulate"
         id="path3994"
         sodipodi:cx="354.05847"
         sodipodi:cy="330.60818"
         sodipodi:rx="28.284271"
         sodipodi:ry="28.284271"
         d="m 382.34274,330.60818 c 0,15.62098 -12.6633,28.28428 -28.28427,28.28428 -15.62097,0 -28.28427,-12.6633 -28.28427,-28.28428 0,-15.62097 12.6633,-28.28427 28.28427,-28.28427 15.62097,0 28.28427,12.6633 28.28427,28.28427 z"
         transform="translate(-10.000008,-271.13273)" />
      <path
         d="m 337.31846,47.561407 c -0.36,2.84 -1.28,6.96 -2,9.48 l 2.24,1 c 0.88,-2.4 1.88,-6.16 2.84,-9.28 l -3.08,-1.2 m -6.8,10.8 c -0.32,-2.6 -1.32,-7.08 -2.24,-10.6 l -2.72,0.64 c 0.92,3.52 1.76,8.2 2.12,10.88 l 2.84,-0.92 m 4.28,-17.04 -3.4,0 0,13.56 c 0,7.07999 -0.56001,14.52 -5.6,20.24 0.8,0.56 2.04,1.76 2.6,2.6 2.72,-3 4.28,-6.52001 5.2,-10.2 1.48,2 3.12,4.36 4.04,5.8 l 2.56,-2.68 c -0.84,-1.12 -4.32,-5.48 -5.84,-7.2 0.36,-2.84 0.44,-5.72 0.44,-8.56 l 0,-13.56 m 16.08,14.64 0,6 -5.08,0 0,-6 5.08,0 m -2.24,18.04 c -2.4,0 -2.84,-0.36 -2.84,-2.12 l 0,-6.8 8.32,0 0,-12.2 -9.2,0 c 0.6,-1.08 1.2,-2.28 1.76,-3.48 l 11.12,0 c -0.24,11.03999 -0.48,14.92 -1.08,15.76 -0.32,0.48 -0.64,0.64 -1.16,0.6 -0.56,0 -1.8,0 -3.12,-0.12 0.52,0.92 0.88,2.36 0.88,3.32 1.64,0.08 3.12,0.08 4.04,-0.08 1.08,-0.16 1.72,-0.52 2.4,-1.48 0.96,-1.4 1.24,-6.16001 1.48,-19.76 0.04,-0.48 0.04,-1.6 0.04,-1.6 l -13.24,0 c 0.52,-1.4 0.96,-2.88 1.36,-4.32 l -3.6,-0.76 c -1.32,5.55999 -3.8,10.84 -7.04,14.16 0.8,0.52 2.28,1.76 2.88,2.36 0.24,-0.24 0.48,-0.52 0.72,-0.8 l 0,15.24 c 0,4.27999 1.4,5.32 6,5.32 l 8.56,0 c 4.08,0 5.16,-1.60001 5.64,-7.04 -0.96,-0.24 -2.4,-0.84 -3.2,-1.4 -0.28,4.31999 -0.64,5.2 -2.64,5.2 l -8.08,0"
         style="font-size:40px;font-style:normal;font-variant:normal;font-weight:500;font-stretch:normal;text-align:start;line-height:125%;letter-spacing:0px;word-spacing:0px;writing-mode:lr-tb;text-anchor:start;fill:#ffffff;fill-opacity:1;stroke:none;font-family:Noto Sans T Chinese;-inkscape-font-specification:Noto Sans T Chinese Medium"
         id="path3904"
         inkscape:connector-curvature="0" />
    </g>
  </g>
</svg>
