<?xml version="1.0" encoding="UTF-8" standalone="no"?>
<!-- Created with Inkscape (http://www.inkscape.org/) -->

<svg
   xmlns:dc="http://purl.org/dc/elements/1.1/"
   xmlns:cc="http://creativecommons.org/ns#"
   xmlns:rdf="http://www.w3.org/1999/02/22-rdf-syntax-ns#"
   xmlns:svg="http://www.w3.org/2000/svg"
   xmlns="http://www.w3.org/2000/svg"
   xmlns:sodipodi="http://sodipodi.sourceforge.net/DTD/sodipodi-0.dtd"
   xmlns:inkscape="http://www.inkscape.org/namespaces/inkscape"
   width="56.568542"
   height="56.568542"
   id="svg2"
   version="1.1"
   inkscape:version="0.48.5 r10040"
   sodipodi:docname="red_elephant.svg">
  <defs
     id="defs4" />
  <sodipodi:namedview
     id="base"
     pagecolor="#ffffff"
     bordercolor="#666666"
     borderopacity="1.0"
     inkscape:pageopacity="0.0"
     inkscape:pageshadow="2"
     inkscape:zoom="2.8284271"
     inkscape:cx="125.81414"
     inkscape:cy="30.941865"
     inkscape:document-units="px"
     inkscape:current-layer="layer1"
     showgrid="false"
     inkscape:window-width="1920"
     inkscape:window-height="1024"
     inkscape:window-x="0"
     inkscape:window-y="0"
     inkscape:window-maximized="1"
     fit-margin-top="0"
     fit-margin-left="0"
     fit-margin-right="0"
     fit-margin-bottom="0" />
  <metadata
     id="metadata7">
    <rdf:RDF>
      <cc:Work
         rdf:about="">
        <dc:format>image/svg+xml</dc:format>
        <dc:type
           rdf:resource="http://purl.org/dc/dcmitype/StillImage" />
        <dc:title />
      </cc:Work>
    </rdf:RDF>
  </metadata>
  <g
     inkscape:label="Layer 1"
     inkscape:groupmode="layer"
     id="layer1"
     transform="translate(-144.91704,-31.191184)">
    <g
       id="g4056">
      <path
         transform="translate(-180.85716,-271.13273)"
         d="m 382.34274,330.60818 c 0,15.62098 -12.6633,28.28428 -28.28427,28.28428 -15.62097,0 -28.28427,-12.6633 -28.28427,-28.28428 0,-15.62097 12.6633,-28.28427 28.28427,-28.28427 15.62097,0 28.28427,12.6633 28.28427,28.28427 z"
         sodipodi:ry="28.284271"
         sodipodi:rx="28.284271"
         sodipodi:cy="330.60818"
         sodipodi:cx="354.05847"
         id="path3988"
         style="color:#000000;fill:#ff0000;fill-opacity:1;fill-rule:nonzero;stroke:none;stroke-width:2;marker:none;visibility:visible;display:inline;overflow:visible;enable-background:accumulate"
         sodipodi:type="arc" />
      <path
         d="m 164.67627,53.015921 5.48,0 0,-3.52 -5.48,0 0,-8.36 -3.6,0 0,8.36 -6.12,0 0,3.52 5.68,0 c -1.36,5.08 -3.92,10.92001 -6.64,14.24 0.6,0.88 1.6,2.32 2,3.4 1.88,-2.43999 3.64,-6.16 5.08,-10.12 l 0,17.12 3.6,0 0,-17.36 c 1.32,1.88 2.76,4.04 3.48,5.32 l 2.24,-2.92 c -0.76,-1.04 -4.28,-5.16 -5.72,-6.64 l 0,-3.04 m 10.48,18.76 0,-6.08 10.96,0 0,6.08 -10.96,0 m 10.96,-15.52 0,6.04 -10.96,0 0,-6.04 10.96,0 m 0,-9.32 0,5.92 -10.96,0 0,-5.92 10.96,0 m -14.52,-3.52 0,34.04 3.56,0 0,-2.24 10.96,0 0,2.24 3.72,0 0,-34.04 -18.24,0"
         style="font-size:40px;font-style:normal;font-variant:normal;font-weight:500;font-stretch:normal;text-align:start;line-height:125%;letter-spacing:0px;word-spacing:0px;writing-mode:lr-tb;text-anchor:start;fill:#ffffff;fill-opacity:1;stroke:none;font-family:Noto Sans T Chinese;-inkscape-font-specification:Noto Sans T Chinese Medium"
         id="path3854"
         inkscape:connector-curvature="0" />
    </g>
  </g>
</svg>
