<?xml version="1.0" encoding="UTF-8" standalone="no"?>
<!-- Created with Inkscape (http://www.inkscape.org/) -->

<svg
   xmlns:dc="http://purl.org/dc/elements/1.1/"
   xmlns:cc="http://creativecommons.org/ns#"
   xmlns:rdf="http://www.w3.org/1999/02/22-rdf-syntax-ns#"
   xmlns:svg="http://www.w3.org/2000/svg"
   xmlns="http://www.w3.org/2000/svg"
   xmlns:sodipodi="http://sodipodi.sourceforge.net/DTD/sodipodi-0.dtd"
   xmlns:inkscape="http://www.inkscape.org/namespaces/inkscape"
   width="56.568542"
   height="56.568542"
   id="svg2"
   version="1.1"
   inkscape:version="0.48.5 r10040"
   sodipodi:docname="red_horse.svg">
  <defs
     id="defs4" />
  <sodipodi:namedview
     id="base"
     pagecolor="#ffffff"
     bordercolor="#666666"
     borderopacity="1.0"
     inkscape:pageopacity="0.0"
     inkscape:pageshadow="2"
     inkscape:zoom="14.919953"
     inkscape:cx="20.341887"
     inkscape:cy="28.284271"
     inkscape:document-units="px"
     inkscape:current-layer="layer1"
     showgrid="false"
     inkscape:window-width="1920"
     inkscape:window-height="1024"
     inkscape:window-x="0"
     inkscape:window-y="0"
     inkscape:window-maximized="1"
     fit-margin-top="0"
     fit-margin-left="0"
     fit-margin-right="0"
     fit-margin-bottom="0" />
  <metadata
     id="metadata7">
    <rdf:RDF>
      <cc:Work
         rdf:about="">
        <dc:format>image/svg+xml</dc:format>
        <dc:type
           rdf:resource="http://purl.org/dc/dcmitype/StillImage" />
        <dc:title />
      </cc:Work>
    </rdf:RDF>
  </metadata>
  <g
     inkscape:label="Layer 1"
     inkscape:groupmode="layer"
     id="layer1"
     transform="translate(-87.77419,-31.191184)">
    <g
       id="g4052">
      <path
         transform="translate(-238.00001,-271.13273)"
         d="m 382.34274,330.60818 c 0,15.62098 -12.6633,28.28428 -28.28427,28.28428 -15.62097,0 -28.28427,-12.6633 -28.28427,-28.28428 0,-15.62097 12.6633,-28.28427 28.28427,-28.28427 15.62097,0 28.28427,12.6633 28.28427,28.28427 z"
         sodipodi:ry="28.284271"
         sodipodi:rx="28.284271"
         sodipodi:cy="330.60818"
         sodipodi:cx="354.05847"
         id="path3027"
         style="color:#000000;fill:#ff0000;fill-opacity:1;fill-rule:nonzero;stroke:none;stroke-width:2;marker:none;visibility:visible;display:inline;overflow:visible;enable-background:accumulate"
         sodipodi:type="arc" />
      <path
         d="m 124.83846,66.187538 -26.000008,0 0,3.56 26.000008,0 0,-3.56 m 1.56,-7.8 c 0.6,-4.99999 1.24001,-10.8 1.56,-15.12 l -2.76,-0.28 -0.64,0.16 -22.75999,0 0,3.6 22.12,0 c -0.28,3.44 -0.76001,7.84001 -1.24001,11.64 l -14.51999,0 c 0.35999,-2.83999 0.68,-6.12 0.88,-8.88 l -3.68,-0.28 c -0.28,4.04 -0.84001,9.36001 -1.36001,12.64 l 25.24,0 c -0.67999,7.52 -1.52,10.96 -2.63999,11.92 -0.44,0.4 -1.00001,0.44 -1.8,0.44 -1,0 -3.44001,0 -5.96001,-0.24 0.68,1 1.16001,2.52 1.20001,3.56 2.51999,0.12 4.88,0.16 6.23999,0.04 1.52,-0.12 2.56001,-0.44 3.48,-1.44 1.6,-1.6 2.52001,-5.76001 3.40001,-16.12 0.08,-0.52 0.12,-1.64 0.12,-1.64 l -6.88001,0"
         style="font-size:40px;font-style:normal;font-variant:normal;font-weight:500;font-stretch:normal;text-align:start;line-height:125%;letter-spacing:0px;word-spacing:0px;writing-mode:lr-tb;text-anchor:start;fill:#ffffff;fill-opacity:1;stroke:none;font-family:Noto Sans T Chinese;-inkscape-font-specification:Noto Sans T Chinese Medium"
         id="path3832"
         inkscape:connector-curvature="0" />
    </g>
  </g>
</svg>
