<?xml version="1.0" encoding="UTF-8" standalone="no"?>
<!-- Created with Inkscape (http://www.inkscape.org/) -->

<svg
   xmlns:dc="http://purl.org/dc/elements/1.1/"
   xmlns:cc="http://creativecommons.org/ns#"
   xmlns:rdf="http://www.w3.org/1999/02/22-rdf-syntax-ns#"
   xmlns:svg="http://www.w3.org/2000/svg"
   xmlns="http://www.w3.org/2000/svg"
   xmlns:sodipodi="http://sodipodi.sourceforge.net/DTD/sodipodi-0.dtd"
   xmlns:inkscape="http://www.inkscape.org/namespaces/inkscape"
   width="85.090012"
   height="85.090012"
   id="svg2"
   version="1.1"
   inkscape:version="0.48.5 r10040"
   sodipodi:docname="black_elephant.svg">
  <defs
     id="defs4" />
  <sodipodi:namedview
     id="base"
     pagecolor="#ffffff"
     bordercolor="#666666"
     borderopacity="1.0"
     inkscape:pageopacity="0.0"
     inkscape:pageshadow="2"
     inkscape:zoom="1"
     inkscape:cx="42.545006"
     inkscape:cy="42.545006"
     inkscape:document-units="px"
     inkscape:current-layer="layer1"
     showgrid="false"
     fit-margin-top="0"
     fit-margin-left="0"
     fit-margin-right="0"
     fit-margin-bottom="0"
     inkscape:window-width="1920"
     inkscape:window-height="1024"
     inkscape:window-x="0"
     inkscape:window-y="0"
     inkscape:window-maximized="1" />
  <metadata
     id="metadata7">
    <rdf:RDF>
      <cc:Work
         rdf:about="">
        <dc:format>image/svg+xml</dc:format>
        <dc:type
           rdf:resource="http://purl.org/dc/dcmitype/StillImage" />
        <dc:title />
      </cc:Work>
    </rdf:RDF>
  </metadata>
  <g
     inkscape:label="Layer 1"
     inkscape:groupmode="layer"
     id="layer1"
     transform="translate(-612.26116,-1052.8219)">
    <g
       id="g4604">
      <path
         sodipodi:type="arc"
         style="color:#000000;fill:#000000;fill-opacity:1;fill-rule:nonzero;stroke:none;stroke-width:3.29999995;marker:none;visibility:visible;display:inline;overflow:visible;enable-background:accumulate"
         id="path4495"
         sodipodi:cx="250.6218"
         sodipodi:cy="781.79041"
         sodipodi:rx="42.545006"
         sodipodi:ry="42.545006"
         d="m 293.1668,781.79041 c 0,23.49695 -19.04805,42.545 -42.545,42.545 -23.49696,0 -42.54501,-19.04805 -42.54501,-42.545 0,-23.49696 19.04805,-42.54501 42.54501,-42.54501 23.49695,0 42.545,19.04805 42.545,42.54501 z"
         transform="translate(404.18437,313.57647)" />
      <path
         d="m 642.81797,1061.9846 5.25,1.05 c -0.70002,1.4 -1.48752,2.7125 -2.3625,3.9374 l 22.575,0 0,3.9376 c -1.40004,1.925 -2.88754,3.5875 -4.4625,4.9874 l 16.5375,0 0,14.4376 -25.2,0 c 3.14996,2.9749 5.24996,6.4749 6.3,10.5 5.59996,-2.1 10.58746,-4.8125 14.9625,-8.1376 l 3.675,3.9376 c -2.80004,1.9249 -5.68754,3.5875 -8.6625,4.9874 1.92496,6.825 6.82495,12.1625 14.7,16.0126 l -3.4125,4.4624 c -8.05004,-4.55 -13.30004,-10.6749 -15.75,-18.375 -1.57504,0.7001 -3.15004,1.3126 -4.725,1.8376 0.17496,1.3999 0.26246,2.8874 0.2625,4.4624 -4e-5,4.5501 -0.70003,7.9625 -2.1,10.2376 -1.40003,2.2749 -3.58753,3.4124 -6.5625,3.4124 -1.92503,0 -4.46252,-0.2624 -7.6125,-0.7874 l -1.3125,-5.25 c 3.32498,0.6999 6.29998,1.05 8.925,1.05 1.04998,0 1.83748,-0.7438 2.3625,-2.2313 0.52498,-1.4875 0.78748,-3.6313 0.7875,-6.4313 l 0,-1.05 c -8.22502,5.25 -17.76251,9.1876 -28.6125,11.8126 l -2.3625,-4.4626 c 11.725,-2.7999 21.87498,-6.9125 30.45,-12.3374 -0.35003,-1.575 -0.78752,-2.9751 -1.3125,-4.2 -7.17502,4.725 -15.83752,8.3125 -25.9875,10.7624 l -2.3625,-4.4624 c 10.15,-2.1 18.89999,-5.4251 26.25,-9.975 -0.87503,-1.05 -1.83752,-2.1 -2.8875,-3.15 -5.42502,3.8499 -12.425,6.5624 -21,8.1374 l -2.3625,-4.725 c 7.34999,-1.05 13.56248,-3.0625 18.6375,-6.0374 l -13.3875,0 0,-10.5 c -1.05,0.6999 -2.1,1.3124 -3.15,1.8374 l -3.15,-3.675 c 4.375,-2.625 7.7875,-5.0749 10.2375,-7.35 2.44999,-2.2749 4.72499,-5.1624 6.825,-8.6624 m -5.5125,13.9124 19.6875,0 c 1.74997,-1.3999 3.23747,-2.9749 4.4625,-4.725 l -19.1625,0 c -1.40002,1.575 -3.06251,3.15 -4.9875,4.725 m 0,9.975 13.3875,0 c 1.22497,-1.05 2.44998,-2.8874 3.675,-5.5124 l -17.0625,0 0,5.5124 m 22.8375,-5.5124 c -0.70003,2.1 -1.66253,3.9374 -2.8875,5.5124 l 17.85,0 0,-5.5124 -14.9625,0"
         style="font-size:56px;font-style:normal;font-variant:normal;font-weight:normal;font-stretch:normal;text-align:start;line-height:125%;letter-spacing:0px;word-spacing:0px;writing-mode:lr-tb;text-anchor:start;fill:#ffffff;fill-opacity:1;stroke:none;font-family:WenQuanYi Micro Hei Mono;-inkscape-font-specification:WenQuanYi Micro Hei Mono"
         id="path4173"
         inkscape:connector-curvature="0" />
    </g>
    <flowRoot
       xml:space="preserve"
       id="flowRoot4531"
       style="font-size:40px;font-style:normal;font-weight:normal;line-height:125%;letter-spacing:0px;word-spacing:0px;fill:#000000;fill-opacity:1;stroke:none;font-family:Sans"><flowRegion
         id="flowRegion4533"><rect
           id="rect4535"
           width="3112.199"
           height="1194.5059"
           x="-1251.8622"
           y="-172.0687" /></flowRegion><flowPara
         id="flowPara4537" /></flowRoot>    <flowRoot
       xml:space="preserve"
       id="flowRoot4539"
       style="font-size:40px;font-style:normal;font-weight:normal;line-height:125%;letter-spacing:0px;word-spacing:0px;fill:#000000;fill-opacity:1;stroke:none;font-family:Sans"><flowRegion
         id="flowRegion4541"><rect
           id="rect4543"
           width="3249.3552"
           height="1269.3184"
           x="-1416.4496"
           y="-226.93118" /></flowRegion><flowPara
         id="flowPara4545" /></flowRoot>  </g>
</svg>
