<?xml version="1.0" encoding="UTF-8" standalone="no"?>
<!-- Created with Inkscape (http://www.inkscape.org/) -->

<svg
   xmlns:dc="http://purl.org/dc/elements/1.1/"
   xmlns:cc="http://creativecommons.org/ns#"
   xmlns:rdf="http://www.w3.org/1999/02/22-rdf-syntax-ns#"
   xmlns:svg="http://www.w3.org/2000/svg"
   xmlns="http://www.w3.org/2000/svg"
   xmlns:sodipodi="http://sodipodi.sourceforge.net/DTD/sodipodi-0.dtd"
   xmlns:inkscape="http://www.inkscape.org/namespaces/inkscape"
   width="83.09375"
   height="83.09375"
   id="svg2"
   version="1.1"
   inkscape:version="0.48.5 r10040"
   sodipodi:docname="red_chariot.svg">
  <defs
     id="defs4" />
  <sodipodi:namedview
     id="base"
     pagecolor="#ffffff"
     bordercolor="#666666"
     borderopacity="1.0"
     inkscape:pageopacity="0.0"
     inkscape:pageshadow="2"
     inkscape:zoom="2.8284271"
     inkscape:cx="99.33957"
     inkscape:cy="29.33599"
     inkscape:document-units="px"
     inkscape:current-layer="layer1"
     showgrid="false"
     fit-margin-top="0"
     fit-margin-left="0"
     fit-margin-right="0"
     fit-margin-bottom="0"
     inkscape:window-width="1920"
     inkscape:window-height="1024"
     inkscape:window-x="0"
     inkscape:window-y="0"
     inkscape:window-maximized="1" />
  <metadata
     id="metadata7">
    <rdf:RDF>
      <cc:Work
         rdf:about="">
        <dc:format>image/svg+xml</dc:format>
        <dc:type
           rdf:resource="http://purl.org/dc/dcmitype/StillImage" />
        <dc:title />
      </cc:Work>
    </rdf:RDF>
  </metadata>
  <g
     inkscape:label="Layer 1"
     inkscape:groupmode="layer"
     id="layer1"
     transform="translate(90.26201,-1053.31)">
    <g
       id="g4572">
      <path
         sodipodi:type="arc"
         style="color:#000000;fill:#ffffff;fill-opacity:1;fill-rule:nonzero;stroke:#000000;stroke-width:3.29999995;stroke-miterlimit:4;stroke-opacity:1;stroke-dasharray:none;marker:none;visibility:visible;display:inline;overflow:visible;enable-background:accumulate"
         id="path3260"
         sodipodi:cx="250.6218"
         sodipodi:cy="781.79041"
         sodipodi:rx="39.899986"
         sodipodi:ry="39.899986"
         d="m 290.52178,781.79041 c 0,22.03615 -17.86383,39.89998 -39.89998,39.89998 -22.03616,0 -39.89999,-17.86383 -39.89999,-39.89998 0,-22.03616 17.86383,-39.89999 39.89999,-39.89999 22.03615,0 39.89998,17.86383 39.89998,39.89999 z"
         transform="translate(-299.32451,313.05999)" />
      <path
         d="m -54.313651,1067.2849 4.987499,0.9975 -2.9925,6.7332 29.42625,0 0,4.7381 -31.670624,0 c -2.826266,5.6525 -6.068141,10.5569 -9.725625,14.7131 l 14.962499,0 0,-10.4738 4.9875,0 0,10.4738 18.45375,0 0,4.7381 -18.45375,0 0,7.98 24.43875,0 0,4.7382 -24.43875,0 0,13.7156 -4.9875,0 0,-13.7156 -28.179375,0 0,-4.7382 28.179375,0 0,-7.98 -20.698125,0 -1.246875,-4.7381 c 4.156247,-4.1562 7.813743,-9.0606 10.9725,-14.7131 l -14.46375,0 0,-4.7381 16.9575,0 c 1.329981,-2.4938 2.493728,-5.0707 3.49125,-7.7307"
         style="font-size:56px;font-style:normal;font-variant:normal;font-weight:normal;font-stretch:normal;text-align:start;line-height:125%;letter-spacing:0px;word-spacing:0px;writing-mode:lr-tb;text-anchor:start;fill:#000000;fill-opacity:1;stroke:none;font-family:WenQuanYi Micro Hei Mono;-inkscape-font-specification:WenQuanYi Micro Hei Mono"
         id="path4089"
         inkscape:connector-curvature="0" />
    </g>
    <flowRoot
       xml:space="preserve"
       id="flowRoot4531"
       style="font-size:40px;font-style:normal;font-weight:normal;line-height:125%;letter-spacing:0px;word-spacing:0px;fill:#000000;fill-opacity:1;stroke:none;font-family:Sans"><flowRegion
         id="flowRegion4533"><rect
           id="rect4535"
           width="3112.199"
           height="1194.5059"
           x="-1251.8622"
           y="-172.0687" /></flowRegion><flowPara
         id="flowPara4537" /></flowRoot>    <flowRoot
       xml:space="preserve"
       id="flowRoot4539"
       style="font-size:40px;font-style:normal;font-weight:normal;line-height:125%;letter-spacing:0px;word-spacing:0px;fill:#000000;fill-opacity:1;stroke:none;font-family:Sans"><flowRegion
         id="flowRegion4541"><rect
           id="rect4543"
           width="3249.3552"
           height="1269.3184"
           x="-1416.4496"
           y="-226.93118" /></flowRegion><flowPara
         id="flowPara4545" /></flowRoot>  </g>
</svg>
