<?xml version="1.0" encoding="UTF-8" standalone="no"?>
<!-- Created with Inkscape (http://www.inkscape.org/) -->

<svg
   xmlns:dc="http://purl.org/dc/elements/1.1/"
   xmlns:cc="http://creativecommons.org/ns#"
   xmlns:rdf="http://www.w3.org/1999/02/22-rdf-syntax-ns#"
   xmlns:svg="http://www.w3.org/2000/svg"
   xmlns="http://www.w3.org/2000/svg"
   xmlns:xlink="http://www.w3.org/1999/xlink"
   xmlns:sodipodi="http://sodipodi.sourceforge.net/DTD/sodipodi-0.dtd"
   xmlns:inkscape="http://www.inkscape.org/namespaces/inkscape"
   version="1.0"
   width="100.04163"
   height="99.995232"
   id="svg2"
   sodipodi:version="0.32"
   inkscape:version="0.48.5 r10040"
   sodipodi:docname="black_elephant.svg"
   inkscape:output_extension="org.inkscape.output.svg.inkscape">
  <metadata
     id="metadata11">
    <rdf:RDF>
      <cc:Work
         rdf:about="">
        <dc:format>image/svg+xml</dc:format>
        <dc:type
           rdf:resource="http://purl.org/dc/dcmitype/StillImage" />
        <dc:title />
      </cc:Work>
    </rdf:RDF>
  </metadata>
  <sodipodi:namedview
     inkscape:window-height="1024"
     inkscape:window-width="1920"
     inkscape:pageshadow="2"
     inkscape:pageopacity="0.0"
     guidetolerance="10.0"
     gridtolerance="10.0"
     objecttolerance="10.0"
     borderopacity="1.0"
     bordercolor="#666666"
     pagecolor="#ffffff"
     id="base"
     inkscape:zoom="7.990381"
     inkscape:cx="50.020817"
     inkscape:cy="49.997616"
     inkscape:window-x="0"
     inkscape:window-y="0"
     inkscape:current-layer="layer3"
     showgrid="false"
     height="1052.36px"
     width="744px"
     units="mm"
     inkscape:window-maximized="1"
     fit-margin-top="0"
     fit-margin-left="0"
     fit-margin-right="0"
     fit-margin-bottom="0" />
  <defs
     id="defs3">
    <inkscape:perspective
       sodipodi:type="inkscape:persp3d"
       inkscape:vp_x="0 : 526.18109 : 1"
       inkscape:vp_y="0 : 1000 : 0"
       inkscape:vp_z="744.09448 : 526.18109 : 1"
       inkscape:persp3d-origin="372.04724 : 350.78739 : 1"
       id="perspective153" />
    <linearGradient
       id="linearGradient6462">
      <stop
         style="stop-color:black;stop-opacity:1;"
         offset="0"
         id="stop6464" />
      <stop
         style="stop-color:black;stop-opacity:0;"
         offset="1"
         id="stop6466" />
    </linearGradient>
    <linearGradient
       inkscape:collect="always"
       xlink:href="#linearGradient6462"
       id="linearGradient6468"
       x1="24"
       y1="229.36218"
       x2="90"
       y2="229.36218"
       gradientUnits="userSpaceOnUse" />
    <linearGradient
       inkscape:collect="always"
       xlink:href="#linearGradient6462"
       id="linearGradient3442"
       gradientUnits="userSpaceOnUse"
       x1="24"
       y1="229.36218"
       x2="90"
       y2="229.36218" />
  </defs>
  <g
     inkscape:groupmode="layer"
     id="layer1"
     inkscape:label="stones"
     style="display:inline"
     transform="translate(-393.94702,-434.36034)" />
  <g
     inkscape:groupmode="layer"
     id="layer3"
     inkscape:label="pieces"
     style="display:inline"
     transform="translate(-393.94702,-434.36034)">
    <path
       d="m 89,229.36218 c 0,17.67311 -14.326888,32 -32,32 -17.673112,0 -32,-14.32689 -32,-32 0,-17.67311 14.326888,-32 32,-32 17.673112,0 32,14.32689 32,32 z"
       sodipodi:ry="32"
       sodipodi:rx="32"
       sodipodi:cy="229.36218"
       sodipodi:cx="57"
       id="path17576"
       style="fill:#000000;fill-opacity:1;stroke:#000000;stroke-width:3.36734796000000003;stroke-miterlimit:4;stroke-opacity:1;stroke-dasharray:none;display:inline"
       sodipodi:type="arc"
       transform="matrix(1.484848,0,0,1.484848,359.3315,143.79415)" />
    <path
       style="font-size:64px;font-style:normal;font-variant:normal;font-weight:normal;font-stretch:normal;line-height:100%;writing-mode:lr-tb;text-anchor:start;fill:#ffffff;fill-opacity:1;stroke:none;display:inline;font-family:AR PL ZenKai Uni"
       d="m 448.59283,493.97345 c 3.29995,3.45001 6.69995,6.75 10.2,9.9 1.24994,1.1 2.92494,1.625 5.025,1.575 3.74994,-0.15 7.52494,-0.75 11.325,-1.8 0.94993,-0.19999 1.47493,-0.42499 1.575,-0.675 0.0499,-0.34999 -0.30007,-0.675 -1.05,-0.975 -9.95006,-2.25 -17.45005,-4.94999 -22.5,-8.1 -0.60005,-0.34999 -1.17505,-0.72499 -1.725,-1.125 -2.00004,-1.39998 -3.47504,-2.39999 -4.425,-3 -0.35004,-0.74999 -0.72504,-1.29999 -1.125,-1.65 4.94995,-2.69998 8.59996,-4.49998 10.95,-5.4 0.94994,-0.14998 1.37495,-0.52498 1.275,-1.125 -0.20005,-0.89998 -0.75005,-1.89997 -1.65,-3 -0.90005,-1.09997 -1.95005,-1.77497 -3.15,-2.025 -0.80005,-0.0499 -1.22504,0.42503 -1.275,1.425 0.0499,1.20002 -2.35004,4.17503 -7.2,8.925 -2.70004,-3.04998 -6.00004,-5.12497 -9.9,-6.225 1.04996,-1.09997 2.02496,-1.79998 2.925,-2.1 0.34997,-0.0499 0.54997,-0.32497 0.6,-0.825 0.0499,-0.74998 -0.30004,-1.52497 -1.05,-2.325 3.74996,-0.49997 8.32496,-0.94997 13.725,-1.35 l 0.075,0.075 c 0.14995,0.80003 0.54995,1.22503 1.2,1.275 0.79996,-0.0499 2.07496,-1.12497 3.825,-3.225 1.04995,-2.44997 2.54995,-4.37496 4.5,-5.775 1.04994,-0.64996 1.19994,-1.42497 0.45,-2.325 -0.80005,-0.94996 -2.40005,-2.19996 -4.8,-3.75 -0.80005,-0.59995 -1.72505,-0.74995 -2.775,-0.45 -1.85005,0.35004 -3.92504,0.70004 -6.225,1.05 -1.40004,0.15005 -2.75004,0.35004 -4.05,0.6 5.24995,-4.49995 8.47495,-7.02495 9.675,-7.575 0.89995,-0.49995 1.07495,-1.09995 0.525,-1.8 -0.65005,-0.64995 -1.87505,-1.54995 -3.675,-2.7 -0.80004,-0.34995 -1.57505,-0.29994 -2.325,0.15 -0.45005,0.20005 -2.45004,0.82506 -6,1.875 -0.90004,0.20005 -1.80004,0.37505 -2.7,0.525 -4e-5,-0.49995 -0.37504,-1.34994 -1.125,-2.55 -0.75004,-0.94995 -1.45003,-1.54995 -2.1,-1.8 -0.75004,-0.14994 -1.10003,0.22506 -1.05,1.125 0.19997,1.25005 -1.40003,3.47505 -4.8,6.675 -1.65002,1.40005 -3.50002,2.82505 -5.55,4.275 -0.50002,0.20004 -0.82502,0.42504 -0.975,0.675 -0.20002,0.35004 -0.05,0.57504 0.45,0.675 2.24998,0.30005 6.29998,-1.82495 12.15,-6.375 0.59996,-0.49995 1.19996,-0.89995 1.8,-1.2 1.04996,0.45005 3.34997,0.37505 6.9,-0.225 0.74996,-0.29995 1.24996,-0.32495 1.5,-0.075 0.14996,0.15005 0.075,0.42505 -0.225,0.825 -0.90004,1.50005 -2.55004,4.10005 -4.95,7.8 -2.75003,0.35004 -5.35003,0.77504 -7.8,1.275 -4.80002,0.90003 -8.75002,1.35003 -11.85,1.35 -0.65002,-0.0499 -1.02502,0.05 -1.125,0.3 -0.30001,0.35004 -0.17502,0.87504 0.375,1.575 1.39998,2.00004 2.69998,4.75003 3.9,8.25 0.29998,1.05002 0.82498,1.90003 1.575,2.55 0.94998,0.95003 1.52497,1.02503 1.725,0.225 0.05,-0.19997 0.075,-0.42497 0.075,-0.675 0.05,2e-5 2.02498,-0.24997 5.925,-0.75 -0.05,0.05 -0.10008,0.17503 -0.15,0.375 -3.20003,4.20002 -8.70002,7.97502 -16.5,11.325 -0.35002,0.05 -0.37501,0.22501 -0.075,0.525 2.54999,0.50001 6.39998,-0.59998 11.55,-3.3 0.14998,-0.14998 1.74997,-1.17498 4.8,-3.075 0.14998,0.30002 0.59998,0.67502 1.35,1.125 -1.70003,3.90002 -7.15002,8.57502 -16.35,14.025 -0.90001,0.5 -0.80002,0.725 0.3,0.675 3.34998,0.15001 8.47498,-2.57499 15.375,-8.175 1.24997,-1.34999 2.82497,-2.67498 4.725,-3.975 -4e-5,-0.05 0.025,-0.075 0.075,-0.075 0.79997,0.60002 1.54997,1.25001 2.25,1.95 -4.35004,6.90001 -11.92502,13.75001 -22.725,20.55 -0.75001,0.49999 -0.87502,0.84999 -0.375,1.05 0.44999,0.3 0.99998,0.32499 1.65,0.075 6.74998,-1.70001 13.64998,-6.42499 20.7,-14.175 2.24996,-2.39999 3.34996,-3.67499 3.3,-3.825 0.0499,-0.05 0.075,-0.12498 0.075,-0.225 1.79996,3.15001 1.99996,7.775 0.6,13.875 -0.45004,1.85 -0.97504,2.925 -1.575,3.225 -0.65004,0.34999 -2.50003,0.32499 -5.55,-0.075 -2.55002,-0.45 -3.85003,-0.45 -3.9,0 -0.05,0.45 0.29998,0.975 1.05,1.575 3.49997,2.44999 6.04997,4.54999 7.65,6.3 0.74996,0.94999 1.49996,1.27499 2.25,0.975 0.94996,-0.35002 1.89996,-1.30001 2.85,-2.85 0.94996,-2.00001 1.64995,-4.60001 2.1,-7.8 0.49996,-4.39999 0.47496,-7.9 -0.075,-10.5 -0.15005,-0.49999 -0.30005,-1.02499 -0.45,-1.575 m 1.725,-22.725 c -0.75005,-0.44997 -1.85004,-0.49997 -3.3,-0.15 -2.00004,0.45003 -3.97504,0.87503 -5.925,1.275 0.29996,-4.44996 0.44996,-6.69996 0.45,-6.75 -0.45004,-0.49996 -0.90004,-0.92496 -1.35,-1.275 7.79995,-1.39996 12.39995,-1.72495 13.8,-0.975 0.19996,0.20004 0.19996,0.80004 0,1.8 -1.10005,3.60003 -1.87505,5.72503 -2.325,6.375 -0.05,0.15003 -0.15005,0.32503 -0.3,0.525 -0.30005,-0.19997 -0.65004,-0.47496 -1.05,-0.825 m -22.8,3.225 c -0.65003,-1.94997 -1.25002,-4.37496 -1.8,-7.275 2.74998,-0.89997 6.57497,-1.69996 11.475,-2.4 0.0499,0.15003 0.34997,2.87503 0.9,8.175 -3.90002,0.60003 -7.42502,1.10003 -10.575,1.5"
       id="text17584"
       inkscape:connector-curvature="0" />
  </g>
</svg>
