<?xml version="1.0" encoding="UTF-8" standalone="no"?>
<!-- Created with Inkscape (http://www.inkscape.org/) -->

<svg
   xmlns:dc="http://purl.org/dc/elements/1.1/"
   xmlns:cc="http://creativecommons.org/ns#"
   xmlns:rdf="http://www.w3.org/1999/02/22-rdf-syntax-ns#"
   xmlns:svg="http://www.w3.org/2000/svg"
   xmlns="http://www.w3.org/2000/svg"
   xmlns:xlink="http://www.w3.org/1999/xlink"
   xmlns:sodipodi="http://sodipodi.sourceforge.net/DTD/sodipodi-0.dtd"
   xmlns:inkscape="http://www.inkscape.org/namespaces/inkscape"
   version="1.0"
   width="100.04163"
   height="99.995232"
   id="svg2"
   sodipodi:version="0.32"
   inkscape:version="0.48.5 r10040"
   sodipodi:docname="black_chariot.svg"
   inkscape:output_extension="org.inkscape.output.svg.inkscape">
  <metadata
     id="metadata11">
    <rdf:RDF>
      <cc:Work
         rdf:about="">
        <dc:format>image/svg+xml</dc:format>
        <dc:type
           rdf:resource="http://purl.org/dc/dcmitype/StillImage" />
        <dc:title />
      </cc:Work>
    </rdf:RDF>
  </metadata>
  <sodipodi:namedview
     inkscape:window-height="1024"
     inkscape:window-width="1920"
     inkscape:pageshadow="2"
     inkscape:pageopacity="0.0"
     guidetolerance="10.0"
     gridtolerance="10.0"
     objecttolerance="10.0"
     borderopacity="1.0"
     bordercolor="#666666"
     pagecolor="#ffffff"
     id="base"
     inkscape:zoom="1.9975953"
     inkscape:cx="-61.041309"
     inkscape:cy="84.625181"
     inkscape:window-x="0"
     inkscape:window-y="0"
     inkscape:current-layer="layer3"
     showgrid="false"
     height="1052.36px"
     width="744px"
     units="mm"
     inkscape:window-maximized="1"
     fit-margin-top="0"
     fit-margin-left="0"
     fit-margin-right="0"
     fit-margin-bottom="0" />
  <defs
     id="defs3">
    <inkscape:perspective
       sodipodi:type="inkscape:persp3d"
       inkscape:vp_x="0 : 526.18109 : 1"
       inkscape:vp_y="0 : 1000 : 0"
       inkscape:vp_z="744.09448 : 526.18109 : 1"
       inkscape:persp3d-origin="372.04724 : 350.78739 : 1"
       id="perspective153" />
    <linearGradient
       id="linearGradient6462">
      <stop
         style="stop-color:black;stop-opacity:1;"
         offset="0"
         id="stop6464" />
      <stop
         style="stop-color:black;stop-opacity:0;"
         offset="1"
         id="stop6466" />
    </linearGradient>
    <linearGradient
       inkscape:collect="always"
       xlink:href="#linearGradient6462"
       id="linearGradient6468"
       x1="24"
       y1="229.36218"
       x2="90"
       y2="229.36218"
       gradientUnits="userSpaceOnUse" />
    <linearGradient
       inkscape:collect="always"
       xlink:href="#linearGradient6462"
       id="linearGradient3442"
       gradientUnits="userSpaceOnUse"
       x1="24"
       y1="229.36218"
       x2="90"
       y2="229.36218" />
  </defs>
  <g
     inkscape:groupmode="layer"
     id="layer1"
     inkscape:label="stones"
     style="display:inline"
     transform="translate(-393.94702,-564.29324)" />
  <g
     inkscape:groupmode="layer"
     id="layer3"
     inkscape:label="pieces"
     style="display:inline"
     transform="translate(-393.94702,-564.29324)">
    <path
       d="m 89,229.36218 c 0,17.67311 -14.326888,32 -32,32 -17.673112,0 -32,-14.32689 -32,-32 0,-17.67311 14.326888,-32 32,-32 17.673112,0 32,14.32689 32,32 z"
       sodipodi:ry="32"
       sodipodi:rx="32"
       sodipodi:cy="229.36218"
       sodipodi:cx="57"
       id="path13922"
       style="fill:#000000;fill-opacity:1;stroke:#000000;stroke-width:3.36734796000000003;stroke-miterlimit:4;stroke-opacity:1;stroke-dasharray:none;display:inline"
       sodipodi:type="arc"
       transform="matrix(1.484848,0,0,1.484848,359.3315,273.72705)" />
    <path
       style="font-size:64px;font-style:normal;font-variant:normal;font-weight:normal;font-stretch:normal;line-height:100%;writing-mode:lr-tb;text-anchor:start;fill:#ffffff;fill-opacity:1;stroke:none;display:inline;font-family:AR PL ZenKai Uni"
       d="m 441.32901,627.63944 c -0.45003,8.85001 -0.25004,15.30001 0.6,19.35 0.14997,0.9 0.42496,1.65 0.825,2.25 0.79996,0.8 1.42497,0.62499 1.875,-0.525 0.79996,-1.95 1.17496,-9.09999 1.125,-21.45 3.94996,-0.29998 12.67494,-0.47497 26.175,-0.525 1.24993,0.05 2.02493,-0.19998 2.325,-0.75 0.34993,-0.74998 0.025,-1.54998 -0.975,-2.4 -3.95006,-2.99998 -7.07507,-3.92497 -9.375,-2.775 -4.80006,0.80003 -10.85005,1.75003 -18.15,2.85 -0.05,-1.84997 -0.075,-3.82498 -0.075,-5.925 2.24995,-0.29997 4.87495,-0.52497 7.875,-0.675 -5e-5,0.15003 0.0499,0.32503 0.15,0.525 0.19995,0.90003 0.67495,1.32503 1.425,1.275 0.79995,-0.0499 1.42495,-0.47497 1.875,-1.275 0.79995,-0.89997 1.92495,-3.57497 3.375,-8.025 1.04994,-2.89996 2.59995,-5.14996 4.65,-6.75 1.09993,-0.89995 1.22494,-1.79995 0.375,-2.7 -0.95006,-0.94995 -2.85006,-2.22495 -5.7,-3.825 -0.90006,-0.64995 -3.07505,-0.52495 -6.525,0.375 -2.60005,0.15005 -5.12504,0.50005 -7.575,1.05 0.0499,-2.14995 0.12496,-4.04994 0.225,-5.7 2.89996,-0.59994 5.87495,-1.14994 8.925,-1.65 2.59995,-0.59994 4.07495,-1.04994 4.425,-1.35 0.49995,-0.34995 0.62495,-0.77494 0.375,-1.275 -0.35005,-0.59994 -1.27506,-1.09993 -2.775,-1.5 -1.55005,-0.34993 -3.07505,-0.24994 -4.575,0.3 -2.10005,0.65006 -4.20005,1.27506 -6.3,1.875 -5e-5,-0.0499 0.025,-0.1 0.075,-0.15 0.0499,-1.79994 0.54996,-3.47494 1.5,-5.025 0.34996,-0.89993 -0.0251,-1.74994 -1.125,-2.55 -1.35005,-1.04993 -3.17504,-1.84993 -5.475,-2.4 -1.05003,-0.29993 -1.92504,-0.0499 -2.625,0.75 -0.50004,0.45007 -0.40003,1.00007 0.3,1.65 1.54997,1.35007 2.39997,2.97506 2.55,4.875 -3e-5,1.10006 0.025,2.40006 0.075,3.9 -3.05004,0.50006 -6.22503,0.90006 -9.525,1.2 -1.85003,0.20006 -2.12503,0.77505 -0.825,1.725 1.94997,1.20006 4.74997,1.45005 8.4,0.75 0.59997,-0.14994 1.24997,-0.22494 1.95,-0.225 -3e-5,1.65006 -3e-5,3.50005 0,5.55 -1.50003,0.20005 -2.87503,0.45005 -4.125,0.75 -3.50003,0.65005 -6.45002,1.12505 -8.85,1.425 -1.20002,-0.59995 -2.37503,-0.97495 -3.525,-1.125 -0.35001,-0.0499 -0.67502,0.05 -0.975,0.3 -0.35001,0.35005 -0.25002,0.80005 0.3,1.35 1.64998,1.95005 3.09997,6.20004 4.35,12.75 0.34998,3.30003 1.57498,5.57503 3.675,6.825 0.0499,2e-5 0.12497,0.0251 0.225,0.075 0.74997,0.15002 1.17497,-0.32497 1.275,-1.425 0.34997,3e-5 0.72497,-0.025 1.125,-0.075 1.69997,-0.44997 3.94997,-0.79997 6.75,-1.05 -3e-5,2.15003 -0.0251,4.17503 -0.075,6.075 -8.45003,0.95003 -17.65002,1.97502 -27.6,3.075 -1.35001,0.05 -1.52501,0.65001 -0.525,1.8 2.09999,1.95002 4.24998,2.60001 6.45,1.95 8.54998,-2.24998 14.99997,-3.37498 19.35,-3.375 0.64997,-0.14998 1.42497,-0.19998 2.325,-0.15 m 4.275,-18.45 c 1.84996,-0.34996 3.67495,-0.59997 5.475,-0.75 1.09996,-0.14997 1.47496,-0.54996 1.125,-1.2 -0.50005,-0.74995 -1.40005,-1.27495 -2.7,-1.575 -0.95004,-0.19996 -2.25005,-0.1 -3.9,0.3 -5e-5,-1.84996 -5e-5,-3.62495 0,-5.325 6.44995,-1.04995 10.24995,-1.27495 11.4,-0.675 0.49995,0.35005 0.57495,1.40005 0.225,3.15 -1.50005,6.45003 -2.60005,10.37503 -3.3,11.775 -1.50005,-1.09997 -4.27505,-1.12497 -8.325,-0.075 -5e-5,-1.99997 -5e-5,-3.87496 0,-5.625 m -4.275,-2.175 c -2.15004,0.50004 -4.15003,0.95004 -6,1.35 -0.80003,0.20004 -0.72503,0.67503 0.225,1.425 0.49997,0.35004 1.27497,0.47504 2.325,0.375 1.09997,-0.19996 2.24997,-0.34996 3.45,-0.45 -3e-5,1.95003 0.025,3.92503 0.075,5.925 -2.90004,0.50003 -5.60003,0.90003 -8.1,1.2 -0.20003,-1.19997 -0.52503,-2.42496 -0.975,-3.675 -0.95003,-5.24997 -1.52503,-8.44996 -1.725,-9.6 2.54997,-0.79996 6.09997,-1.54996 10.65,-2.25 -3e-5,1.70005 0.025,3.60005 0.075,5.7"
       id="text13932"
       inkscape:connector-curvature="0" />
  </g>
</svg>
