<?xml version="1.0" encoding="UTF-8" standalone="no"?>
<!-- Created with Inkscape (http://www.inkscape.org/) -->

<svg
   xmlns:dc="http://purl.org/dc/elements/1.1/"
   xmlns:cc="http://creativecommons.org/ns#"
   xmlns:rdf="http://www.w3.org/1999/02/22-rdf-syntax-ns#"
   xmlns:svg="http://www.w3.org/2000/svg"
   xmlns="http://www.w3.org/2000/svg"
   xmlns:xlink="http://www.w3.org/1999/xlink"
   xmlns:sodipodi="http://sodipodi.sourceforge.net/DTD/sodipodi-0.dtd"
   xmlns:inkscape="http://www.inkscape.org/namespaces/inkscape"
   version="1.0"
   width="100.04163"
   height="99.995232"
   id="svg2"
   sodipodi:version="0.32"
   inkscape:version="0.48.5 r10040"
   sodipodi:docname="black_king.svg"
   inkscape:output_extension="org.inkscape.output.svg.inkscape">
  <metadata
     id="metadata11">
    <rdf:RDF>
      <cc:Work
         rdf:about="">
        <dc:format>image/svg+xml</dc:format>
        <dc:type
           rdf:resource="http://purl.org/dc/dcmitype/StillImage" />
        <dc:title />
      </cc:Work>
    </rdf:RDF>
  </metadata>
  <sodipodi:namedview
     inkscape:window-height="979"
     inkscape:window-width="1679"
     inkscape:pageshadow="2"
     inkscape:pageopacity="0.0"
     guidetolerance="10.0"
     gridtolerance="10.0"
     objecttolerance="10.0"
     borderopacity="1.0"
     bordercolor="#666666"
     pagecolor="#ffffff"
     id="base"
     inkscape:zoom="7.990381"
     inkscape:cx="50.020817"
     inkscape:cy="49.997616"
     inkscape:window-x="0"
     inkscape:window-y="42"
     inkscape:current-layer="layer3"
     showgrid="false"
     height="1052.36px"
     width="744px"
     units="mm"
     inkscape:window-maximized="0"
     fit-margin-top="0"
     fit-margin-left="0"
     fit-margin-right="0"
     fit-margin-bottom="0" />
  <defs
     id="defs3">
    <inkscape:perspective
       sodipodi:type="inkscape:persp3d"
       inkscape:vp_x="0 : 526.18109 : 1"
       inkscape:vp_y="0 : 1000 : 0"
       inkscape:vp_z="744.09448 : 526.18109 : 1"
       inkscape:persp3d-origin="372.04724 : 350.78739 : 1"
       id="perspective153" />
    <linearGradient
       id="linearGradient6462">
      <stop
         style="stop-color:black;stop-opacity:1;"
         offset="0"
         id="stop6464" />
      <stop
         style="stop-color:black;stop-opacity:0;"
         offset="1"
         id="stop6466" />
    </linearGradient>
    <linearGradient
       inkscape:collect="always"
       xlink:href="#linearGradient6462"
       id="linearGradient6468"
       x1="24"
       y1="229.36218"
       x2="90"
       y2="229.36218"
       gradientUnits="userSpaceOnUse" />
    <linearGradient
       inkscape:collect="always"
       xlink:href="#linearGradient6462"
       id="linearGradient3442"
       gradientUnits="userSpaceOnUse"
       x1="24"
       y1="229.36218"
       x2="90"
       y2="229.36218" />
  </defs>
  <g
     inkscape:groupmode="layer"
     id="layer1"
     inkscape:label="stones"
     style="display:inline"
     transform="translate(-393.94702,-45.074893)" />
  <g
     inkscape:groupmode="layer"
     id="layer3"
     inkscape:label="pieces"
     style="display:inline"
     transform="translate(-393.94702,-45.074893)">
    <path
       transform="matrix(1.484848,0,0,1.484848,359.3315,-245.4913)"
       sodipodi:type="arc"
       style="fill:#000000;fill-opacity:1;stroke:#000000;stroke-width:3.36734796000000003;stroke-miterlimit:4;stroke-opacity:1;stroke-dasharray:none;display:inline"
       id="path17600"
       sodipodi:cx="57"
       sodipodi:cy="229.36218"
       sodipodi:rx="32"
       sodipodi:ry="32"
       d="m 89,229.36218 c 0,17.67311 -14.326888,32 -32,32 -17.673112,0 -32,-14.32689 -32,-32 0,-17.67311 14.326888,-32 32,-32 17.673112,0 32,14.32689 32,32 z" />
    <path
       style="font-size:64px;font-style:normal;font-variant:normal;font-weight:normal;font-stretch:normal;line-height:100%;writing-mode:lr-tb;text-anchor:start;fill:#ffffff;fill-opacity:1;stroke:none;display:inline;font-family:AR PL ZenKai Uni"
       d="m 419.84923,98.880212 c 0.29999,0.300024 0.4,1.150018 0.3,2.549998 -0.75001,5.40002 -3.6,11.70001 -8.55,18.9 -0.2,0.2 -0.3,0.47501 -0.3,0.825 0.05,0.2 0.20001,0.3 0.45,0.3 3.3,-1.34999 7.225,-6.77499 11.775,-16.275 -10e-6,-0.44998 0.54999,-1.64998 1.65,-3.6 0.19998,-0.49998 0.1,-1.04998 -0.3,-1.649998 -0.80001,-0.949977 -1.57501,-1.649975 -2.325,-2.1 4.54998,-1.649974 7.49998,-2.674973 8.85,-3.075 -0.20001,8.100018 -0.55002,13.500018 -1.05,16.199998 -0.90002,4.50001 -1.00002,7.67501 -0.3,9.525 0.14998,0.35 0.32499,0.8 0.525,1.35 0.34998,0.9 0.72498,1.425 1.125,1.575 0.29998,0.35 0.62499,0.3 0.975,-0.15 0.34998,-0.19999 0.77498,-0.79999 1.275,-1.8 0.29998,-0.75 0.52498,-4.675 0.675,-11.775 -2e-5,-11.299974 0.1,-17.074968 0.3,-17.324998 -0.05,-0.04997 -0.1,-0.07496 -0.15,-0.075 0.05,-3.799966 0.12498,-8.024962 0.225,-12.675 0.05,-4.699953 0.52498,-8.624949 1.425,-11.775 0.44998,-0.749944 0.57498,-1.449944 0.375,-2.1 -0.30002,-0.499943 -1.82502,-1.574942 -4.575,-3.225 -1.10001,-0.79994 -2.17502,-0.824939 -3.225,-0.075 -0.20001,0.20006 -0.15001,0.700059 0.15,1.5 1.54998,2.300056 2.34999,4.650054 2.4,7.05 0.05,3.150049 0.1,6.550045 0.15,10.2 -5.40001,1.05004 -8.15001,1.52504 -8.25,1.425 -0.45001,-0.44996 -0.30001,-3.474957 0.45,-9.075 0.44999,-1.04995 -0.7,-2.249949 -3.45,-3.6 -0.90001,-0.449946 -1.57501,-0.574947 -2.025,-0.375 -0.60001,0.300052 -0.65,0.825052 -0.15,1.575 1.25,2.000049 1.825,4.425046 1.725,7.275 -1e-5,2.300042 -0.325,4.05004 -0.975,5.25 -0.45001,0.950038 -0.4,1.950037 0.15,3 0.74999,1.200034 1.525,1.500034 2.325,0.9 2.15,-1.049964 5.54999,-2.424963 10.2,-4.125 -0.05,3.000036 -0.12501,6.100033 -0.225,9.3 -11.55001,2.550027 -18.225,3.750026 -20.025,3.6 -0.6,0.05003 -0.95,0.300026 -1.05,0.75 -0.15,0.600025 -0.025,1.100024 0.375,1.5 0.95001,0.800023 2.15001,1.675018 3.6,2.624998 0.45,0.20002 0.95,0.12502 1.5,-0.225 1.25,-0.79998 2.575,-1.499974 3.975,-2.099998 m 22.2,-18.75 c 2.54997,2.700039 4.37496,4.050038 5.475,4.05 0.64997,0.05004 1.09997,-0.399962 1.35,-1.35 -3e-5,-0.64996 -0.25003,-1.424958 -0.75,-2.325 -0.95004,-1.249956 -2.90002,-2.049956 -5.85,-2.4 -0.50002,-0.04996 -0.72502,0.225044 -0.675,0.825 -0.05,0.350043 0.1,0.750043 0.45,1.2 m 8.625,-4.5 c 0.49996,0.750046 1.09996,1.475046 1.8,2.175 0.74997,0.650044 1.44996,0.950043 2.1,0.9 0.59996,0.05004 0.99996,-0.324956 1.2,-1.125 0.0499,-0.499954 -0.15004,-1.174954 -0.6,-2.025 -0.90004,-1.049952 -2.35004,-1.574951 -4.35,-1.575 -0.35004,-0.04996 -0.55004,0.175048 -0.6,0.675 -0.05,0.350048 0.1,0.675048 0.45,0.975 m 2.25,-5.1 c 1.09996,1.10005 3.82496,1.25005 8.175,0.45 0.89996,-0.449948 1.54995,-0.349948 1.95,0.3 0.14996,0.300051 -0.075,0.80005 -0.675,1.5 -4.35004,6.200043 -12.27504,12.700038 -23.775,19.5 -0.75002,0.45003 -0.80002,0.75003 -0.15,0.9 3.79997,3e-5 10.22496,-3.399968 19.275,-10.2 0.14996,-0.19996 0.32495,-0.34996 0.525,-0.45 2.69996,-2.249957 5.39996,-4.749956 8.1,-7.5 1.09995,-1.199951 2.52495,-2.32495 4.275,-3.375 0.74994,-0.449949 1.02495,-0.899949 0.825,-1.35 -0.05,-0.449948 -1.40006,-1.399947 -4.05,-2.85 -0.80005,-0.599944 -1.67505,-0.624945 -2.625,-0.075 -1.10005,0.500055 -2.42505,0.900055 -3.975,1.2 -2.30005,0.350054 -4.50004,0.625053 -6.6,0.825 0.74996,-0.649947 1.54996,-1.399946 2.4,-2.25 0.79996,-0.949943 1.57496,-1.649943 2.325,-2.1 0.44996,-0.349942 0.62495,-0.849941 0.525,-1.5 -0.05,-0.499941 -0.60004,-1.349939 -1.65,-2.55 -0.95004,-0.949937 -1.82504,-1.499937 -2.625,-1.65 -0.80004,-0.04993 -1.10004,0.400063 -0.9,1.35 0.34996,1.500061 -1.10004,4.225058 -4.35,8.175 -1.55004,1.800052 -3.35004,3.67505 -5.4,5.625 -0.50002,0.350048 -0.82503,0.650047 -0.975,0.9 -0.20002,0.450046 -3e-5,0.675046 0.6,0.675 1.04997,4.6e-5 3.97497,-1.849952 8.775,-5.55 m 5.55,25.575 c 0.59996,13.400008 0.27496,20.674998 -0.975,21.824998 -0.50004,0.35 -1.10004,0.425 -1.8,0.225 -1.55004,-0.19999 -3.05004,-0.42499 -4.5,-0.675 -0.65004,-0.05 -0.95004,0.1 -0.9,0.45 0.0499,0.35 0.34996,0.725 0.9,1.125 3.59996,3.05 5.97496,5.45 7.125,7.2 0.79996,0.8 1.59995,0.84999 2.4,0.15 1.54995,-1.65 2.34995,-4.575 2.4,-8.775 -0.45004,-4.79999 -0.67504,-12.12498 -0.675,-21.974998 3.14994,-0.299973 6.77495,-0.499973 10.875,-0.6 2.74994,2.7e-5 4.29994,-0.249972 4.65,-0.75 0.19994,-0.499971 -0.0751,-1.04997 -0.825,-1.65 -2.75006,-1.849968 -5.57505,-2.274968 -8.475,-1.275 -1.80006,0.300031 -3.77505,0.750031 -5.925,1.35 0.0499,-0.899969 0.24995,-1.674969 0.6,-2.325 0.44996,-0.949967 0.22496,-1.774966 -0.675,-2.475 -1.35004,-1.099965 -2.80004,-1.924964 -4.35,-2.475 -0.95005,-0.349962 -1.65004,-0.299963 -2.1,0.15 -0.30004,0.350036 -0.17504,0.925036 0.375,1.725 1.19996,1.950033 1.79996,4.025031 1.8,6.225 -0.65005,0.05003 -1.30004,0.150028 -1.95,0.3 -5.45004,0.900027 -11.42503,1.875027 -17.925,2.925 -0.90002,0.05003 -1.00003,0.475026 -0.3,1.275 0.64997,0.600024 1.37498,1.000023 2.175,1.2 0.94997,0.200023 1.79997,0.200023 2.55,0 4.79997,-1.499975 9.97497,-2.549974 15.525,-3.15 m -15,10.349998 c 1.19997,1.35002 2.39997,2.80002 3.6,4.35 0.59997,0.75001 1.27497,1.15002 2.025,1.2 0.49996,0.05 0.94996,-0.24999 1.35,-0.9 0.34996,-0.64998 0.39996,-1.77498 0.15,-3.375 -0.35004,-1.64998 -2.67504,-3.27498 -6.975,-4.875 -0.75003,-0.29998 -1.30003,-0.39997 -1.65,-0.3 -0.30003,0.15002 -0.42502,0.55002 -0.375,1.2 0.0499,0.60002 0.67497,1.50002 1.875,2.7"
       id="text17608"
       inkscape:connector-curvature="0" />
  </g>
</svg>
