<?xml version="1.0" encoding="UTF-8" standalone="no"?>
<!-- Created with Inkscape (http://www.inkscape.org/) -->

<svg
   xmlns:dc="http://purl.org/dc/elements/1.1/"
   xmlns:cc="http://creativecommons.org/ns#"
   xmlns:rdf="http://www.w3.org/1999/02/22-rdf-syntax-ns#"
   xmlns:svg="http://www.w3.org/2000/svg"
   xmlns="http://www.w3.org/2000/svg"
   xmlns:xlink="http://www.w3.org/1999/xlink"
   xmlns:sodipodi="http://sodipodi.sourceforge.net/DTD/sodipodi-0.dtd"
   xmlns:inkscape="http://www.inkscape.org/namespaces/inkscape"
   version="1.0"
   width="100.04163"
   height="99.995232"
   id="svg2"
   sodipodi:version="0.32"
   inkscape:version="0.48.5 r10040"
   sodipodi:docname="black_advisor.svg"
   inkscape:output_extension="org.inkscape.output.svg.inkscape">
  <metadata
     id="metadata11">
    <rdf:RDF>
      <cc:Work
         rdf:about="">
        <dc:format>image/svg+xml</dc:format>
        <dc:type
           rdf:resource="http://purl.org/dc/dcmitype/StillImage" />
        <dc:title />
      </cc:Work>
    </rdf:RDF>
  </metadata>
  <sodipodi:namedview
     inkscape:window-height="979"
     inkscape:window-width="1679"
     inkscape:pageshadow="2"
     inkscape:pageopacity="0.0"
     guidetolerance="10.0"
     gridtolerance="10.0"
     objecttolerance="10.0"
     borderopacity="1.0"
     bordercolor="#666666"
     pagecolor="#ffffff"
     id="base"
     inkscape:zoom="2.7718586"
     inkscape:cx="203.95067"
     inkscape:cy="37.902025"
     inkscape:window-x="0"
     inkscape:window-y="42"
     inkscape:current-layer="layer3"
     showgrid="false"
     height="1052.36px"
     width="744px"
     units="mm"
     inkscape:window-maximized="0"
     fit-margin-top="0"
     fit-margin-left="0"
     fit-margin-right="0"
     fit-margin-bottom="0" />
  <defs
     id="defs3">
    <inkscape:perspective
       sodipodi:type="inkscape:persp3d"
       inkscape:vp_x="0 : 526.18109 : 1"
       inkscape:vp_y="0 : 1000 : 0"
       inkscape:vp_z="744.09448 : 526.18109 : 1"
       inkscape:persp3d-origin="372.04724 : 350.78739 : 1"
       id="perspective153" />
    <linearGradient
       id="linearGradient6462">
      <stop
         style="stop-color:black;stop-opacity:1;"
         offset="0"
         id="stop6464" />
      <stop
         style="stop-color:black;stop-opacity:0;"
         offset="1"
         id="stop6466" />
    </linearGradient>
    <linearGradient
       inkscape:collect="always"
       xlink:href="#linearGradient6462"
       id="linearGradient6468"
       x1="24"
       y1="229.36218"
       x2="90"
       y2="229.36218"
       gradientUnits="userSpaceOnUse" />
    <linearGradient
       inkscape:collect="always"
       xlink:href="#linearGradient6462"
       id="linearGradient3442"
       gradientUnits="userSpaceOnUse"
       x1="24"
       y1="229.36218"
       x2="90"
       y2="229.36218" />
  </defs>
  <g
     inkscape:groupmode="layer"
     id="layer1"
     inkscape:label="stones"
     style="display:inline"
     transform="translate(-393.94702,-174.87951)" />
  <g
     inkscape:groupmode="layer"
     id="layer3"
     inkscape:label="pieces"
     style="display:inline"
     transform="translate(-393.94702,-174.87951)">
    <path
       transform="matrix(1.484848,0,0,1.484848,359.3315,-115.68668)"
       sodipodi:type="arc"
       style="fill:#000000;fill-opacity:1;stroke:#000000;stroke-width:3.36734796000000003;stroke-miterlimit:4;stroke-opacity:1;stroke-dasharray:none;display:inline"
       id="path17528"
       sodipodi:cx="57"
       sodipodi:cy="229.36218"
       sodipodi:rx="32"
       sodipodi:ry="32"
       d="m 89,229.36218 c 0,17.67311 -14.326888,32 -32,32 -17.673112,0 -32,-14.32689 -32,-32 0,-17.67311 14.326888,-32 32,-32 17.673112,0 32,14.32689 32,32 z" />
    <path
       style="font-size:64px;font-style:normal;font-variant:normal;font-weight:normal;font-stretch:normal;line-height:100%;writing-mode:lr-tb;text-anchor:start;fill:#ffffff;fill-opacity:1;stroke:none;display:inline;font-family:AR PL ZenKai Uni"
       d="m 441.05929,245.6188 c -5.45003,0.65 -11.22501,1.37501 -17.325,2.175 -1.25001,0.15001 -1.42501,0.725 -0.525,1.725 1.69998,1.7 3.99999,2.225 6.9,1.575 6.79997,-1.69999 17.14996,-2.54999 31.05,-2.55 0.79995,1e-5 1.59995,0.025 2.4,0.075 1.19994,1e-5 1.92495,-0.25 2.175,-0.75 0.34995,-0.64999 0.0499,-1.39999 -0.9,-2.25 -3.20005,-2.39999 -6.50005,-3.19999 -9.9,-2.4 -2.75004,0.50001 -6.00003,1.10001 -9.75,1.8 0.19997,-7.54998 0.34997,-14.74998 0.45,-21.6 10.64995,-1.34997 20.39994,-1.52497 29.25,-0.525 1.34993,0.15003 2.19994,-0.025 2.55,-0.525 0.34993,-0.79997 0.19993,-1.49997 -0.45,-2.1 -1.70006,-1.54997 -3.77507,-2.84997 -6.225,-3.9 -0.80006,-0.34996 -1.92506,-0.27496 -3.375,0.225 -1.85005,0.50004 -9.07505,1.57503 -21.675,3.225 -3e-5,-10.39996 0.49997,-17.22495 1.5,-20.475 0.64996,-1.19994 0.57496,-2.17494 -0.225,-2.925 -2.10003,-1.64994 -4.00003,-2.72494 -5.7,-3.225 -0.90003,-0.19995 -1.77503,0.075 -2.625,0.825 -0.35003,0.45006 -0.35003,1.00005 0,1.65 1.64997,2.70006 2.44997,5.57505 2.4,8.625 -3e-5,5.15004 -3e-5,10.52504 0,16.125 -5.75003,0.65003 -10.72502,1.30003 -14.925,1.95 -5.00001,0.80003 -9.40001,1.20003 -13.2,1.2 -0.8,3e-5 -1.22501,0.32503 -1.275,0.975 0,0.65003 0.525,1.37503 1.575,2.175 2.24999,1.50002 4.675,1.95002 7.275,1.35 4.79999,-1.79998 11.64997,-3.14998 20.55,-4.05 -3e-5,6.95003 -3e-5,14.15001 0,21.6"
       id="text17536"
       inkscape:connector-curvature="0" />
  </g>
</svg>
