<?xml version="1.0" encoding="UTF-8" standalone="no"?>
<!-- Created with Inkscape (http://www.inkscape.org/) -->

<svg
   xmlns:dc="http://purl.org/dc/elements/1.1/"
   xmlns:cc="http://creativecommons.org/ns#"
   xmlns:rdf="http://www.w3.org/1999/02/22-rdf-syntax-ns#"
   xmlns:svg="http://www.w3.org/2000/svg"
   xmlns="http://www.w3.org/2000/svg"
   xmlns:xlink="http://www.w3.org/1999/xlink"
   xmlns:sodipodi="http://sodipodi.sourceforge.net/DTD/sodipodi-0.dtd"
   xmlns:inkscape="http://www.inkscape.org/namespaces/inkscape"
   version="1.0"
   width="100.04163"
   height="99.995232"
   id="svg2"
   sodipodi:version="0.32"
   inkscape:version="0.48.5 r10040"
   sodipodi:docname="red_elephant.svg"
   inkscape:output_extension="org.inkscape.output.svg.inkscape">
  <metadata
     id="metadata11">
    <rdf:RDF>
      <cc:Work
         rdf:about="">
        <dc:format>image/svg+xml</dc:format>
        <dc:type
           rdf:resource="http://purl.org/dc/dcmitype/StillImage" />
        <dc:title />
      </cc:Work>
    </rdf:RDF>
  </metadata>
  <sodipodi:namedview
     inkscape:window-height="979"
     inkscape:window-width="1679"
     inkscape:pageshadow="2"
     inkscape:pageopacity="0.0"
     guidetolerance="10.0"
     gridtolerance="10.0"
     objecttolerance="10.0"
     borderopacity="1.0"
     bordercolor="#666666"
     pagecolor="#ffffff"
     id="base"
     inkscape:zoom="0.99879763"
     inkscape:cx="-114.47986"
     inkscape:cy="-3.8185534"
     inkscape:window-x="0"
     inkscape:window-y="42"
     inkscape:current-layer="layer3"
     showgrid="false"
     height="1052.36px"
     width="744px"
     units="mm"
     inkscape:window-maximized="0"
     fit-margin-top="0"
     fit-margin-left="0"
     fit-margin-right="0"
     fit-margin-bottom="0" />
  <defs
     id="defs3">
    <inkscape:perspective
       sodipodi:type="inkscape:persp3d"
       inkscape:vp_x="0 : 526.18109 : 1"
       inkscape:vp_y="0 : 1000 : 0"
       inkscape:vp_z="744.09448 : 526.18109 : 1"
       inkscape:persp3d-origin="372.04724 : 350.78739 : 1"
       id="perspective153" />
    <linearGradient
       id="linearGradient6462">
      <stop
         style="stop-color:black;stop-opacity:1;"
         offset="0"
         id="stop6464" />
      <stop
         style="stop-color:black;stop-opacity:0;"
         offset="1"
         id="stop6466" />
    </linearGradient>
    <linearGradient
       inkscape:collect="always"
       xlink:href="#linearGradient6462"
       id="linearGradient6468"
       x1="24"
       y1="229.36218"
       x2="90"
       y2="229.36218"
       gradientUnits="userSpaceOnUse" />
    <linearGradient
       inkscape:collect="always"
       xlink:href="#linearGradient6462"
       id="linearGradient3442"
       gradientUnits="userSpaceOnUse"
       x1="24"
       y1="229.36218"
       x2="90"
       y2="229.36218" />
  </defs>
  <g
     inkscape:groupmode="layer"
     id="layer1"
     inkscape:label="stones"
     style="display:inline"
     transform="translate(-107.94702,-434.48864)" />
  <g
     inkscape:groupmode="layer"
     id="layer3"
     inkscape:label="pieces"
     style="display:inline"
     transform="translate(-107.94702,-434.48864)">
    <path
       transform="matrix(1.484848,0,0,1.484848,73.331497,143.92245)"
       sodipodi:type="arc"
       style="fill:#ffffff;fill-opacity:1;stroke:#000000;stroke-width:3.36734796000000003;stroke-miterlimit:4;stroke-opacity:1;stroke-dasharray:none;display:inline"
       id="path17580"
       sodipodi:cx="57"
       sodipodi:cy="229.36218"
       sodipodi:rx="32"
       sodipodi:ry="32"
       d="m 89,229.36218 c 0,17.67311 -14.326888,32 -32,32 -17.673112,0 -32,-14.32689 -32,-32 0,-17.67311 14.326888,-32 32,-32 17.673112,0 32,14.32689 32,32 z" />
    <path
       style="font-size:64px;font-style:normal;font-variant:normal;font-weight:normal;font-stretch:normal;text-align:start;line-height:100%;writing-mode:lr-tb;text-anchor:start;fill:#000000;fill-opacity:1;stroke:none;display:inline;font-family:AR PL UKai TW;-inkscape-font-specification:AR PL UKai TW"
       d="m 147.73244,484.85791 c 0.34997,0.35003 0.89997,0.82502 1.65,1.425 1.24997,1.05002 2.59997,2.22503 4.05,3.525 0.59997,0.50003 1.24996,0.75002 1.95,0.75 0.44997,-0.05 0.77496,-0.37498 0.975,-0.975 0.19996,-0.64998 0.1,-1.59997 -0.3,-2.85 -0.45003,-1.34998 -2.80003,-2.52497 -7.05,-3.525 -0.50002,-0.14996 -0.90003,-0.17497 -1.2,-0.075 0.0499,-2.39996 0.12497,-4.92497 0.225,-7.575 1.24997,-0.34996 2.64996,-0.67496 4.2,-0.975 2.44996,-0.59996 3.87496,-1.07496 4.275,-1.425 0.49996,-0.44996 0.62496,-0.92496 0.375,-1.425 -0.45003,-0.64996 -1.50003,-1.17496 -3.15,-1.575 -2.00004,-0.29995 -3.85003,-0.0499 -5.55,0.75 -3e-5,-5.54995 0.57497,-10.32494 1.725,-14.325 0.64997,-1.34994 0.34997,-2.47494 -0.9,-3.375 -0.80002,-0.59994 -1.95003,-1.37494 -3.45,-2.325 -1.25002,-0.94993 -2.40002,-0.99994 -3.45,-0.15 -0.30002,0.20006 -0.27502,0.72506 0.075,1.575 1.64998,2.55006 2.47498,5.07505 2.475,7.575 0.0499,3.65005 0.075,7.60004 0.075,11.85 -0.05,0.05 -0.075,0.20004 -0.075,0.45 -7.65002,1.80004 -12.90001,2.87504 -15.75,3.225 -2.10001,0.35004 -2.40001,1.00003 -0.9,1.95 2.24999,1.20004 5.29998,1.37503 9.15,0.525 1.79998,-0.44996 3.69998,-0.82496 5.7,-1.125 -3.45002,7.05002 -9.30001,15.15002 -17.55,24.3 -0.35,0.50002 -0.22501,0.82501 0.375,0.975 1.1,0.15001 4.625,-2.67498 10.575,-8.475 2.74998,-2.84998 5.42498,-6.47497 8.025,-10.875 -0.20002,3.80003 -0.30002,7.77503 -0.3,11.925 -0.30002,3.95002 -1.00003,7.77502 -2.1,11.475 -0.60002,2.1 -0.25002,4.75001 1.05,7.95 0.34997,0.9 0.72497,1.45 1.125,1.65 0.34997,0.34999 0.72497,0.3 1.125,-0.15 1.34997,-0.9 2.07497,-3 2.175,-6.3 -0.05,-1.99999 0.075,-10.12499 0.375,-24.375"
       id="path3187" />
    <path
       id="text17588"
       style="font-size:64px;font-style:normal;font-variant:normal;font-weight:normal;font-stretch:normal;text-align:start;line-height:100%;writing-mode:lr-tb;text-anchor:start;fill:#000000;fill-opacity:1;stroke:none;display:inline;font-family:AR PL UKai TW;-inkscape-font-specification:AR PL UKai TW"
       d="m 176.08244,498.68141 c -2.10006,-0.44999 -5.95005,0.17501 -11.55,1.875 -4e-5,-0.59999 0.025,-3.74999 0.075,-9.45 0.0499,2e-5 3.67496,-0.27498 10.875,-0.825 1.39995,-0.19998 1.82494,-0.69997 1.275,-1.5 -0.60006,-0.79998 -1.65006,-1.34998 -3.15,-1.65 -2.25006,-0.34998 -5.25004,0.32502 -9,2.025 0.0499,-3.29998 0.1,-6.12497 0.15,-8.475 l 10.575,-1.425 c 1.24995,-0.19997 1.62495,-0.64997 1.125,-1.35 -0.60006,-0.74996 -1.55006,-1.22496 -2.85,-1.425 -1.80006,-0.19997 -4.72504,0.50004 -8.775,2.1 0.0499,-5.09996 0.12496,-7.92496 0.225,-8.475 0.0499,-0.34996 0.075,-0.64996 0.075,-0.9 1.34996,-0.14995 5.14995,-0.84996 11.4,-2.1 1.04994,-0.19996 1.82494,-0.1 2.325,0.3 1.49994,1.35005 2.02494,9.37504 1.575,24.075 0.0499,3.95002 -0.10008,6.55002 -0.45,7.8 -0.15006,0.60001 -0.47506,0.95002 -0.975,1.05 -0.60006,-0.79999 -1.57506,-1.34999 -2.925,-1.65 m -11.625,4.425 c 4.64996,-0.44999 8.69994,-0.79999 12.15,-1.05 1.49994,1.85 2.79994,3.67501 3.9,5.475 0.49994,0.95 1.02494,1.4 1.575,1.35 0.89993,-0.05 1.74994,-0.975 2.55,-2.775 0.89993,-1.99999 1.24994,-4.22498 1.05,-6.675 -0.50006,-6.34998 -0.95006,-15.34997 -1.35,-27 -0.05,-1.64996 0.34994,-3.04996 1.2,-4.2 0.49994,-0.64996 0.49994,-1.24996 0,-1.8 -0.95006,-1.04995 -2.82506,-2.17495 -5.625,-3.375 -0.95006,-0.49996 -1.82505,-0.49996 -2.625,0 -1.40006,0.60005 -5.85006,1.82504 -13.35,3.675 -0.60004,-0.59995 -1.45004,-1.07495 -2.55,-1.425 -0.50004,-0.19996 -1.02504,-0.19996 -1.575,0 -0.35004,0.20005 -0.40004,0.62504 -0.15,1.275 0.14996,0.60005 0.34996,1.17504 0.6,1.725 1.49996,2.75004 1.79996,10.95004 0.9,24.6 -0.20004,1.85002 -0.57504,3.97501 -1.125,6.375 -0.65004,2.85001 -0.075,5.40001 1.725,7.65 0.49996,0.65 1.04996,0.65 1.65,0 0.64996,-0.79999 0.97496,-1.77499 0.975,-2.925 -4e-5,-0.29999 0.025,-0.59999 0.075,-0.9"
       inkscape:connector-curvature="0" />
  </g>
</svg>
