<?xml version="1.0" encoding="UTF-8" standalone="no"?>
<!-- Created with Inkscape (http://www.inkscape.org/) -->

<svg
   xmlns:dc="http://purl.org/dc/elements/1.1/"
   xmlns:cc="http://creativecommons.org/ns#"
   xmlns:rdf="http://www.w3.org/1999/02/22-rdf-syntax-ns#"
   xmlns:svg="http://www.w3.org/2000/svg"
   xmlns="http://www.w3.org/2000/svg"
   xmlns:xlink="http://www.w3.org/1999/xlink"
   xmlns:sodipodi="http://sodipodi.sourceforge.net/DTD/sodipodi-0.dtd"
   xmlns:inkscape="http://www.inkscape.org/namespaces/inkscape"
   version="1.0"
   width="100.04163"
   height="99.995232"
   id="svg2"
   sodipodi:version="0.32"
   inkscape:version="0.48.5 r10040"
   sodipodi:docname="red_horse.svg"
   inkscape:output_extension="org.inkscape.output.svg.inkscape">
  <metadata
     id="metadata11">
    <rdf:RDF>
      <cc:Work
         rdf:about="">
        <dc:format>image/svg+xml</dc:format>
        <dc:type
           rdf:resource="http://purl.org/dc/dcmitype/StillImage" />
        <dc:title />
      </cc:Work>
    </rdf:RDF>
  </metadata>
  <sodipodi:namedview
     inkscape:window-height="979"
     inkscape:window-width="1679"
     inkscape:pageshadow="2"
     inkscape:pageopacity="0.0"
     guidetolerance="10.0"
     gridtolerance="10.0"
     objecttolerance="10.0"
     borderopacity="1.0"
     bordercolor="#666666"
     pagecolor="#ffffff"
     id="base"
     inkscape:zoom="7.990381"
     inkscape:cx="50.020817"
     inkscape:cy="49.997616"
     inkscape:window-x="0"
     inkscape:window-y="42"
     inkscape:current-layer="layer3"
     showgrid="false"
     height="1052.36px"
     width="744px"
     units="mm"
     inkscape:window-maximized="0"
     fit-margin-top="0"
     fit-margin-left="0"
     fit-margin-right="0"
     fit-margin-bottom="0" />
  <defs
     id="defs3">
    <inkscape:perspective
       sodipodi:type="inkscape:persp3d"
       inkscape:vp_x="0 : 526.18109 : 1"
       inkscape:vp_y="0 : 1000 : 0"
       inkscape:vp_z="744.09448 : 526.18109 : 1"
       inkscape:persp3d-origin="372.04724 : 350.78739 : 1"
       id="perspective153" />
    <linearGradient
       id="linearGradient6462">
      <stop
         style="stop-color:black;stop-opacity:1;"
         offset="0"
         id="stop6464" />
      <stop
         style="stop-color:black;stop-opacity:0;"
         offset="1"
         id="stop6466" />
    </linearGradient>
    <linearGradient
       inkscape:collect="always"
       xlink:href="#linearGradient6462"
       id="linearGradient6468"
       x1="24"
       y1="229.36218"
       x2="90"
       y2="229.36218"
       gradientUnits="userSpaceOnUse" />
    <linearGradient
       inkscape:collect="always"
       xlink:href="#linearGradient6462"
       id="linearGradient3442"
       gradientUnits="userSpaceOnUse"
       x1="24"
       y1="229.36218"
       x2="90"
       y2="229.36218" />
  </defs>
  <g
     inkscape:groupmode="layer"
     id="layer1"
     inkscape:label="stones"
     style="display:inline"
     transform="translate(-107.94702,-304.68408)" />
  <g
     inkscape:groupmode="layer"
     id="layer3"
     inkscape:label="pieces"
     style="display:inline"
     transform="translate(-107.94702,-304.68408)">
    <path
       d="m 89,229.36218 c 0,17.67311 -14.326888,32 -32,32 -17.673112,0 -32,-14.32689 -32,-32 0,-17.67311 14.326888,-32 32,-32 17.673112,0 32,14.32689 32,32 z"
       sodipodi:ry="32"
       sodipodi:rx="32"
       sodipodi:cy="229.36218"
       sodipodi:cx="57"
       id="path17508"
       style="fill:#ffffff;fill-opacity:1;stroke:#000000;stroke-width:3.36734796000000003;stroke-miterlimit:4;stroke-opacity:1;stroke-dasharray:none;display:inline"
       sodipodi:type="arc"
       transform="matrix(1.484848,0,0,1.484848,73.331497,14.117885)" />
    <g
       style="fill:#000000;display:inline"
       id="g2565"
       transform="matrix(1.2,0,0,1.2,-29.230412,-71.102293)">
      <path
         inkscape:connector-curvature="0"
         sodipodi:nodetypes="ccccccscccsccccccccccccsccccccccsccccccccccccsscccccccccccccccccccccccccccsccccccccsscsccccscccccc"
         id="path2570"
         d="m 166.59232,344.2171 c 0.0416,-1.41663 0.10413,-2.79163 0.1875,-4.125 3.16662,-1.04162 4.85412,-1.64579 5.0625,-1.8125 0.24996,-0.29162 0.29162,-0.58329 0.125,-0.875 -0.29171,-0.37496 -0.93754,-0.62496 -1.9375,-0.75 -1.04171,-0.0416 -2.04171,0.18754 -3,0.6875 -0.12504,0.0417 -0.18754,0.0834 -0.1875,0.125 -4e-5,-0.49996 0.0625,-1.20829 0.1875,-2.125 0.29163,-0.79162 0.22913,-1.37495 -0.1875,-1.75 -0.54171,-0.54162 -1.1042,-0.99995 -1.6875,-1.375 5.74996,-1.54162 8.77079,-2.45828 9.0625,-2.75 0.29162,-0.29161 0.35412,-0.60411 0.1875,-0.9375 -0.29171,-0.41661 -1.00005,-0.74995 -2.125,-1 -1.16671,-0.16661 -2.29171,0.0209 -3.375,0.5625 -1.75004,0.66672 -3.56254,1.29172 -5.4375,1.875 -2.0417,0.62505 -4.33336,1.12505 -6.875,1.5 -0.0417,5e-5 -0.0625,0.0209 -0.0625,0.0625 -1.12503,-1.12495 -2.31253,-1.72912 -3.5625,-1.8125 -0.50002,5e-5 -0.81252,0.20838 -0.9375,0.625 -0.0417,0.41672 0.10414,0.77088 0.4375,1.0625 1.62497,2.50005 1.93747,9.41671 0.9375,20.75 -0.16669,1.37503 -0.35419,2.29169 -0.5625,2.75 -0.0417,0.25003 -0.0417,0.50003 0,0.75 0.12497,0.41669 0.43747,0.81252 0.9375,1.1875 0.54164,0.41669 0.97914,0.66669 1.3125,0.75 0.41664,-0.12498 0.93747,-0.27081 1.5625,-0.4375 0.49997,-0.41664 2.47914,-1.10414 5.9375,-2.0625 7.74996,-2.24997 12.47912,-2.85414 14.1875,-1.8125 0.66662,0.62503 0.33328,4.81252 -1,12.5625 -0.87505,3.91668 -1.75005,6.60418 -2.625,8.0625 -0.29171,0.87501 -0.87504,1.29167 -1.75,1.25 -1.16671,-0.49999 -2.37504,-0.95833 -3.625,-1.375 -0.66671,-0.37499 -1.10421,-0.45833 -1.3125,-0.25 -0.16671,0.16667 0.0625,0.54167 0.6875,1.125 2.41662,3.29167 3.70829,5.41667 3.875,6.375 0.16662,0.41667 0.45829,0.64583 0.875,0.6875 0.66662,0.16667 1.72912,-0.41667 3.1875,-1.75 1.29162,-1.29166 2.31245,-3.3125 3.0625,-6.0625 2.24995,-12.41665 3.87495,-18.97914 4.875,-19.6875 0.37494,-0.29164 0.54161,-0.58331 0.5,-0.875 0.0416,-0.37497 -0.62506,-1.04164 -2,-2 -1.75005,-1.12497 -3.85422,-1.3958 -6.3125,-0.8125 -2.91671,3e-5 -5.75004,0.45836 -8.5,1.375 -0.12504,3e-5 -0.25004,0.0417 -0.375,0.125 0.0416,-1.79164 0.0833,-3.49997 0.125,-5.125 2.99996,-0.87496 4.60412,-1.41663 4.8125,-1.625 0.29162,-0.29163 0.33329,-0.5833 0.125,-0.875 -0.29171,-0.37496 -0.91671,-0.62496 -1.875,-0.75 -1.04171,-0.12496 -2.02087,0.0625 -2.9375,0.5625 m -3,1.1875 c -0.0417,4e-5 -0.1042,0.0209 -0.1875,0.0625 -1.1667,0.37504 -2.4792,0.68754 -3.9375,0.9375 -1.1667,0.2917 -1.31253,0.68753 -0.4375,1.1875 1.16663,0.50003 2.68747,0.58337 4.5625,0.25 -4e-5,1.4167 0.0208,2.9792 0.0625,4.6875 -1.9167,0.2917 -3.4792,0.68753 -4.6875,1.1875 -1.2917,0.41669 -2.06253,0.14586 -2.3125,-0.8125 -0.50003,-2.37497 -0.52086,-7.1458 -0.0625,-14.3125 0.12497,-1.99996 0.43747,-3.74995 0.9375,-5.25 1.74997,5e-5 3.4583,-0.16662 5.125,-0.5 0.54163,1.41671 0.8333,3.37505 0.875,5.875 -1.12503,0.29171 -2.33337,0.60421 -3.625,0.9375 -1.1667,0.29171 -1.2917,0.68754 -0.375,1.1875 1.04163,0.41671 2.3958,0.52087 4.0625,0.3125 -4e-5,1.16671 -4e-5,2.58337 0,4.25 m -15.4375,17.4375 c -0.23432,3.54852 -2.11545,6.70927 0.1875,9.75 0.54165,0.54167 1.10414,0.43751 1.6875,-0.3125 1.24998,-1.99999 1.49998,-4.22915 0.75,-6.6875 -0.25002,-1.29165 -0.66669,-2.35415 -1.25,-3.1875 -0.29169,-0.24998 -0.56252,-0.35415 -0.8125,-0.3125 -0.29169,0.16669 -0.47919,0.41669 -0.5625,0.75 m 6.4375,0.6875 c 1.12497,2.50002 1.93747,3.85418 2.4375,4.0625 0.37497,0.12501 0.7083,0.0208 1,-0.3125 0.37497,-0.41665 0.60414,-1.14582 0.6875,-2.1875 0.0416,-0.66665 -0.2917,-1.35415 -1,-2.0625 -0.75003,-0.66665 -1.56253,-1.29165 -2.4375,-1.875 -0.41669,-0.29165 -0.75003,-0.43748 -1,-0.4375 -0.25003,0.0417 -0.41669,0.27085 -0.5,0.6875 -0.0417,0.41669 0.22914,1.12502 0.8125,2.125 m 6.625,-2.3125 c 1.79163,2.12502 2.9583,3.25002 3.5,3.375 0.29163,0.0417 0.56246,-0.14582 0.8125,-0.5625 0.24996,-0.41665 0.29163,-1.12498 0.125,-2.125 -0.1667,-0.99998 -1.62504,-2.02081 -4.375,-3.0625 -0.50003,-0.16664 -0.8542,-0.20831 -1.0625,-0.125 -0.1667,0.0417 -0.25003,0.29169 -0.25,0.75 0.0416,0.37502 0.4583,0.95835 1.25,1.75 m 7.1875,-2.375 c 0.91662,1.00002 1.85412,2.08335 2.8125,3.25 0.41662,0.54169 0.93746,0.83335 1.5625,0.875 0.41662,0.0417 0.74995,-0.18748 1,-0.6875 0.24995,-0.54165 0.27079,-1.39581 0.0625,-2.5625 -0.29171,-1.24998 -2.08338,-2.45831 -5.375,-3.625 -0.54171,-0.16664 -0.95837,-0.22914 -1.25,-0.1875 -0.16671,0.12503 -0.27087,0.43753 -0.3125,0.9375 0.0416,0.41669 0.54163,1.08336 1.5,2"
         style="font-size:64px;font-style:normal;font-variant:normal;font-weight:normal;font-stretch:normal;text-align:start;line-height:100%;writing-mode:lr-tb;text-anchor:start;fill:#000000;fill-opacity:1;stroke:none;display:inline;font-family:AR PL UKai TW;-inkscape-font-specification:AR PL UKai TW" />
      <path
         inkscape:connector-curvature="0"
         sodipodi:nodetypes="ccccccccccccscccccccccc"
         id="text2557"
         d="m 139.40038,348.2291 c 1.37499,2.91669 1.58332,8.22919 0.625,15.9375 -0.29168,2.25001 -0.75001,4.52084 -1.375,6.8125 -0.62501,2.04167 -0.16668,4.0625 1.375,6.0625 0.0417,0.125 0.14582,0.25 0.3125,0.375 0.79166,0.66667 1.43749,0.41667 1.9375,-0.75 0.62499,-1.75 0.93749,-3.62499 0.9375,-5.625 0.12499,-10.87498 0.37499,-17.52081 0.75,-19.9375 0.29165,-1.16664 0.22915,-1.97914 -0.1875,-2.4375 -0.75001,-0.91663 -1.41668,-1.66663 -2,-2.25 -0.16668,-0.24997 -0.39585,-0.43747 -0.6875,-0.5625 1.79165,-2.62496 3.95832,-6.43746 6.5,-11.4375 0.87498,-1.62495 1.29165,-2.49995 1.25,-2.625 -0.12502,-0.41662 -0.52085,-0.89578 -1.1875,-1.4375 -0.75002,-0.54162 -1.56252,-0.89578 -2.4375,-1.0625 -1.00001,-0.24995 -1.75001,-0.29162 -2.25,-0.125 -0.41668,0.16672 -0.54168,0.52088 -0.375,1.0625 0.99999,3.75005 -1.08335,9.43754 -6.25,17.0625 -0.12501,0.12503 -0.22917,0.27087 -0.3125,0.4375 -1.54167,2.1667 -4.27084,5.37503 -8.1875,9.625 -0.375,0.29169 -0.29166,0.45835 0.25,0.5 1.66667,-0.24998 4.6875,-2.54164 9.0625,-6.875 0.66666,-0.87497 1.41666,-1.79164 2.25,-2.75"
         style="font-size:64px;font-style:normal;font-variant:normal;font-weight:normal;font-stretch:normal;text-align:start;line-height:100%;writing-mode:lr-tb;text-anchor:start;fill:#000000;fill-opacity:1;stroke:none;display:inline;font-family:AR PL UKai TW;-inkscape-font-specification:AR PL UKai TW" />
    </g>
  </g>
</svg>
