<?xml version="1.0" encoding="UTF-8" standalone="no"?>
<!-- Created with Inkscape (http://www.inkscape.org/) -->

<svg
   xmlns:dc="http://purl.org/dc/elements/1.1/"
   xmlns:cc="http://creativecommons.org/ns#"
   xmlns:rdf="http://www.w3.org/1999/02/22-rdf-syntax-ns#"
   xmlns:svg="http://www.w3.org/2000/svg"
   xmlns="http://www.w3.org/2000/svg"
   xmlns:xlink="http://www.w3.org/1999/xlink"
   xmlns:sodipodi="http://sodipodi.sourceforge.net/DTD/sodipodi-0.dtd"
   xmlns:inkscape="http://www.inkscape.org/namespaces/inkscape"
   version="1.0"
   width="100.04163"
   height="99.995232"
   id="svg2"
   sodipodi:version="0.32"
   inkscape:version="0.48.5 r10040"
   sodipodi:docname="red_pawn.svg"
   inkscape:output_extension="org.inkscape.output.svg.inkscape">
  <metadata
     id="metadata11">
    <rdf:RDF>
      <cc:Work
         rdf:about="">
        <dc:format>image/svg+xml</dc:format>
        <dc:type
           rdf:resource="http://purl.org/dc/dcmitype/StillImage" />
        <dc:title />
      </cc:Work>
    </rdf:RDF>
  </metadata>
  <sodipodi:namedview
     inkscape:window-height="979"
     inkscape:window-width="1679"
     inkscape:pageshadow="2"
     inkscape:pageopacity="0.0"
     guidetolerance="10.0"
     gridtolerance="10.0"
     objecttolerance="10.0"
     borderopacity="1.0"
     bordercolor="#666666"
     pagecolor="#ffffff"
     id="base"
     inkscape:zoom="7.990381"
     inkscape:cx="70.983522"
     inkscape:cy="49.997616"
     inkscape:window-x="0"
     inkscape:window-y="42"
     inkscape:current-layer="layer3"
     showgrid="false"
     height="1052.36px"
     width="744px"
     units="mm"
     inkscape:window-maximized="0"
     fit-margin-top="0"
     fit-margin-left="0"
     fit-margin-right="0"
     fit-margin-bottom="0" />
  <defs
     id="defs3">
    <inkscape:perspective
       sodipodi:type="inkscape:persp3d"
       inkscape:vp_x="0 : 526.18109 : 1"
       inkscape:vp_y="0 : 1000 : 0"
       inkscape:vp_z="744.09448 : 526.18109 : 1"
       inkscape:persp3d-origin="372.04724 : 350.78739 : 1"
       id="perspective153" />
    <linearGradient
       id="linearGradient6462">
      <stop
         style="stop-color:black;stop-opacity:1;"
         offset="0"
         id="stop6464" />
      <stop
         style="stop-color:black;stop-opacity:0;"
         offset="1"
         id="stop6466" />
    </linearGradient>
    <linearGradient
       inkscape:collect="always"
       xlink:href="#linearGradient6462"
       id="linearGradient6468"
       x1="24"
       y1="229.36218"
       x2="90"
       y2="229.36218"
       gradientUnits="userSpaceOnUse" />
    <linearGradient
       inkscape:collect="always"
       xlink:href="#linearGradient6462"
       id="linearGradient3442"
       gradientUnits="userSpaceOnUse"
       x1="24"
       y1="229.36218"
       x2="90"
       y2="229.36218" />
  </defs>
  <g
     inkscape:groupmode="layer"
     id="layer1"
     inkscape:label="stones"
     style="display:inline"
     transform="translate(-107.94702,-823.9024)" />
  <g
     inkscape:groupmode="layer"
     id="layer3"
     inkscape:label="pieces"
     style="display:inline"
     transform="translate(-107.94702,-823.9024)">
    <path
       d="m 89,229.36218 c 0,17.67311 -14.326888,32 -32,32 -17.673112,0 -32,-14.32689 -32,-32 0,-17.67311 14.326888,-32 32,-32 17.673112,0 32,14.32689 32,32 z"
       sodipodi:ry="32"
       sodipodi:rx="32"
       sodipodi:cy="229.36218"
       sodipodi:cx="57"
       id="path8269"
       style="fill:#ffffff;fill-opacity:1;stroke:#000000;stroke-width:3.36734796000000003;stroke-miterlimit:4;stroke-opacity:1;stroke-dasharray:none;display:inline"
       sodipodi:type="arc"
       transform="matrix(1.484848,0,0,1.484848,73.331497,533.33621)" />
    <path
       style="font-size:64px;font-style:normal;font-variant:normal;font-weight:normal;font-stretch:normal;text-align:start;line-height:100%;writing-mode:lr-tb;text-anchor:start;fill:#000000;fill-opacity:1;stroke:none;display:inline;font-family:AR PL UKai TW;-inkscape-font-specification:AR PL UKai TW"
       d="m 145.57575,878.60246 c -5.90001,0.50002 -12.05001,1.15002 -18.45,1.95 -1.1,0.05 -1.25,0.57501 -0.45,1.575 0.8,0.80001 1.675,1.35002 2.625,1.65 1.19999,0.30002 2.225,0.32502 3.075,0.075 12.44998,-3.14998 29.27496,-4.74998 50.475,-4.8 1.24994,2e-5 2.49994,0.025 3.75,0.075 1.09994,0.05 1.79993,-0.17498 2.1,-0.675 0.29993,-0.64998 -7e-5,-1.34998 -0.9,-2.1 -2.90006,-2.24998 -5.37506,-3.14998 -7.425,-2.7 -4.40005,0.80002 -9.95005,1.72502 -16.65,2.775 1.64996,-5.99997 2.79995,-9.57497 3.45,-10.725 0.19996,-0.49997 -0.10008,-1.14996 -0.9,-1.95 -0.50005,-0.34996 -0.97504,-0.67497 -1.425,-0.975 7.34996,-1.49997 11.17494,-2.37496 11.475,-2.625 0.49995,-0.44996 0.62494,-0.89996 0.375,-1.35 -0.35005,-0.64996 -1.35006,-1.22496 -3,-1.725 -1.35004,-0.29996 -4.75005,0.30004 -10.2,1.8 -5.25003,1.25004 -10.40004,2.15004 -15.45,2.7 -0.05,-3.44996 -0.0251,-5.64995 0.075,-6.6 0.0499,-0.64996 -0.0251,-1.24996 -0.225,-1.8 7.04997,-1.64996 12.27496,-3.19995 15.675,-4.65 2.59996,-0.89994 5.02496,-1.49994 7.275,-1.8 0.94995,6e-5 1.54995,-0.22494 1.8,-0.675 0.19995,-0.59994 -4e-5,-1.24995 -0.6,-1.95 -1.10005,-0.94995 -2.90005,-1.97494 -5.4,-3.075 -0.80005,-0.49995 -1.60004,-0.72494 -2.4,-0.675 -0.45004,0.20006 -0.70004,0.60006 -0.75,1.2 -0.20004,2.00006 -5.77503,5.37505 -16.725,10.125 -1.40002,-1.09995 -2.95002,-1.84995 -4.65,-2.25 -0.90002,-0.29996 -1.60002,-0.24995 -2.1,0.15 -0.50001,0.35005 -0.52502,1.02505 -0.075,2.025 1.39998,2.30005 2.42498,4.72504 3.075,7.275 0.49998,2.60004 1.34998,9.17503 2.55,19.725 m 10.875,-1.275 c -2.30004,0.20002 -4.67503,0.50002 -7.125,0.9 -0.50002,-5.44997 -0.87502,-10.04997 -1.125,-13.8 2.14997,0.30003 5.04996,0.20004 8.7,-0.3 1.19997,-0.19996 2.49996,-0.42496 3.9,-0.675 0.59996,1.35003 0.52496,5.80003 -0.225,13.35 -1.40004,0.15002 -2.77503,0.32502 -4.125,0.525 m -10.95,10.05 c -3.80002,3.80001 -8.75001,7.775 -14.85,11.925 -0.75001,0.65 -0.7,1.14999 0.15,1.5 2.39999,0 7.12498,-2.175 14.175,-6.525 2.99998,-2.24999 5.07497,-3.5 6.225,-3.75 1.09997,-0.35 1.52498,-1.04999 1.275,-2.1 -0.35002,-0.89999 -1.42503,-2.19999 -3.225,-3.9 -0.60002,-0.59998 -1.22503,-0.84999 -1.875,-0.75 -0.90002,0.20001 -1.25002,0.70002 -1.05,1.5 0.19997,0.80001 -0.075,1.50001 -0.825,2.1 m 17.625,-0.825 c 3.79996,3.65001 7.89995,8.075 12.3,13.275 0.89994,1.2 1.79994,1.95 2.7,2.25 0.49995,0.05 0.97494,-0.20001 1.425,-0.75 0.79995,-0.75 0.87495,-2.425 0.225,-5.025 -0.75006,-3.44999 -6.22506,-7.59999 -16.425,-12.45 -0.50004,-0.34998 -0.82504,-0.14998 -0.975,0.6 -0.05,0.80001 0.19996,1.50001 0.75,2.1"
       id="text1965"
       inkscape:connector-curvature="0" />
  </g>
</svg>
