<?xml version="1.0" encoding="UTF-8" standalone="no"?>
<!-- Created with Inkscape (http://www.inkscape.org/) -->

<svg
   xmlns:dc="http://purl.org/dc/elements/1.1/"
   xmlns:cc="http://creativecommons.org/ns#"
   xmlns:rdf="http://www.w3.org/1999/02/22-rdf-syntax-ns#"
   xmlns:svg="http://www.w3.org/2000/svg"
   xmlns="http://www.w3.org/2000/svg"
   xmlns:xlink="http://www.w3.org/1999/xlink"
   xmlns:sodipodi="http://sodipodi.sourceforge.net/DTD/sodipodi-0.dtd"
   xmlns:inkscape="http://www.inkscape.org/namespaces/inkscape"
   version="1.0"
   width="100.04163"
   height="99.995232"
   id="svg2"
   sodipodi:version="0.32"
   inkscape:version="0.48.5 r10040"
   sodipodi:docname="red_advisor.svg"
   inkscape:output_extension="org.inkscape.output.svg.inkscape">
  <metadata
     id="metadata11">
    <rdf:RDF>
      <cc:Work
         rdf:about="">
        <dc:format>image/svg+xml</dc:format>
        <dc:type
           rdf:resource="http://purl.org/dc/dcmitype/StillImage" />
        <dc:title />
      </cc:Work>
    </rdf:RDF>
  </metadata>
  <sodipodi:namedview
     inkscape:window-height="979"
     inkscape:window-width="1679"
     inkscape:pageshadow="2"
     inkscape:pageopacity="0.0"
     guidetolerance="10.0"
     gridtolerance="10.0"
     objecttolerance="10.0"
     borderopacity="1.0"
     bordercolor="#666666"
     pagecolor="#ffffff"
     id="base"
     inkscape:zoom="7.990381"
     inkscape:cx="50.271118"
     inkscape:cy="49.997616"
     inkscape:window-x="0"
     inkscape:window-y="42"
     inkscape:current-layer="layer3"
     showgrid="false"
     height="1052.36px"
     width="744px"
     units="mm"
     inkscape:window-maximized="0"
     fit-margin-top="0"
     fit-margin-left="0"
     fit-margin-right="0"
     fit-margin-bottom="0" />
  <defs
     id="defs3">
    <inkscape:perspective
       sodipodi:type="inkscape:persp3d"
       inkscape:vp_x="0 : 526.18109 : 1"
       inkscape:vp_y="0 : 1000 : 0"
       inkscape:vp_z="744.09448 : 526.18109 : 1"
       inkscape:persp3d-origin="372.04724 : 350.78739 : 1"
       id="perspective153" />
    <linearGradient
       id="linearGradient6462">
      <stop
         style="stop-color:black;stop-opacity:1;"
         offset="0"
         id="stop6464" />
      <stop
         style="stop-color:black;stop-opacity:0;"
         offset="1"
         id="stop6466" />
    </linearGradient>
    <linearGradient
       inkscape:collect="always"
       xlink:href="#linearGradient6462"
       id="linearGradient6468"
       x1="24"
       y1="229.36218"
       x2="90"
       y2="229.36218"
       gradientUnits="userSpaceOnUse" />
    <linearGradient
       inkscape:collect="always"
       xlink:href="#linearGradient6462"
       id="linearGradient3442"
       gradientUnits="userSpaceOnUse"
       x1="24"
       y1="229.36218"
       x2="90"
       y2="229.36218" />
  </defs>
  <g
     inkscape:groupmode="layer"
     id="layer1"
     inkscape:label="stones"
     style="display:inline"
     transform="translate(-107.94702,-174.87951)" />
  <g
     inkscape:groupmode="layer"
     id="layer3"
     inkscape:label="pieces"
     style="display:inline"
     transform="translate(-107.94702,-174.87951)">
    <path
       d="m 89,229.36218 c 0,17.67311 -14.326888,32 -32,32 -17.673112,0 -32,-14.32689 -32,-32 0,-17.67311 14.326888,-32 32,-32 17.673112,0 32,14.32689 32,32 z"
       sodipodi:ry="32"
       sodipodi:rx="32"
       sodipodi:cy="229.36218"
       sodipodi:cx="57"
       id="path17532"
       style="fill:#ffffff;fill-opacity:1;stroke:#000000;stroke-width:3.36734796000000003;stroke-miterlimit:4;stroke-opacity:1;stroke-dasharray:none;display:inline"
       sodipodi:type="arc"
       transform="matrix(1.484848,0,0,1.484848,73.331497,-115.68668)" />
    <path
       style="font-size:64px;font-style:normal;font-variant:normal;font-weight:normal;font-stretch:normal;text-align:start;line-height:100%;writing-mode:lr-tb;text-anchor:start;fill:#000000;fill-opacity:1;stroke:none;display:inline;font-family:AR PL UKai TW;-inkscape-font-specification:AR PL UKai TW"
       d="m 137.4268,217.78872 c 1.64998,3.50003 1.89998,9.87503 0.75,19.125 -0.35002,2.70001 -0.90001,5.42501 -1.65,8.175 -0.75001,2.45 -0.20002,4.875 1.65,7.275 0.0499,0.15 0.17498,0.3 0.375,0.45 0.94998,0.79999 1.72498,0.5 2.325,-0.9 0.74998,-2.1 1.12498,-4.35 1.125,-6.75 0.14998,-13.04998 0.44998,-21.02497 0.9,-23.925 0.34998,-1.39997 0.27498,-2.37497 -0.225,-2.925 -0.90002,-1.09997 -1.70002,-1.99997 -2.4,-2.7 -0.20002,-0.29996 -0.47502,-0.52496 -0.825,-0.675 2.14998,-3.14996 4.74997,-7.72495 7.8,-13.725 1.04998,-1.94995 1.54997,-2.99995 1.5,-3.15 -0.15002,-0.49994 -0.62503,-1.07495 -1.425,-1.725 -0.90002,-0.64994 -1.87502,-1.07495 -2.925,-1.275 -1.20002,-0.29994 -2.10002,-0.34994 -2.7,-0.15 -0.50002,0.20005 -0.65002,0.62506 -0.45,1.275 1.19998,4.50005 -1.30002,11.32505 -7.5,20.475 -0.15001,0.15004 -0.27502,0.32503 -0.375,0.525 -1.85002,2.60003 -5.12501,6.45002 -9.825,11.55 -0.45,0.35003 -0.35,0.55002 0.3,0.6 1.99999,-0.29998 5.62499,-3.04998 10.875,-8.25 0.79998,-1.04996 1.69998,-2.14997 2.7,-3.3"
       id="path2993" />
    <path
       style="font-size:64px;font-style:normal;font-variant:normal;font-weight:normal;font-stretch:normal;text-align:start;line-height:100%;writing-mode:lr-tb;text-anchor:start;fill:#000000;fill-opacity:1;stroke:none;display:inline;font-family:AR PL UKai TW;-inkscape-font-specification:AR PL UKai TW"
       d="m 164.5018,243.91762 c -4.25004,0.50002 -8.80003,1.1 -13.65,1.8 -1.05002,0.05 -1.17503,0.52501 -0.375,1.425 0.64997,0.65 1.44997,1.12501 2.4,1.425 1.09997,0.3 2.02496,0.32501 2.775,0.075 6.59995,-1.64999 16.24994,-2.47499 28.95,-2.475 0.94993,1e-5 1.57493,-0.19999 1.875,-0.6 0.29993,-0.59999 0.025,-1.24999 -0.825,-1.95 -2.75006,-2.09999 -5.57506,-2.72498 -8.475,-1.875 -2.45005,0.45001 -5.40005,0.97501 -8.85,1.575 0.19996,-5.89998 0.39995,-11.59998 0.6,-17.1 2.74994,-0.44998 8.92494,-1.19998 18.525,-2.25 0.59993,0.15004 1.17493,-0.17497 1.725,-0.975 0.0499,-0.64997 -0.57506,-1.32497 -1.875,-2.025 -2.15006,-1.24997 -4.92506,-1.37496 -8.325,-0.375 -6.35005,1.25003 -9.67505,1.97503 -9.975,2.175 -5e-5,-7.64996 0.67495,-14.42495 2.025,-20.325 0.19994,-0.64994 -0.32506,-1.44995 -1.575,-2.4 -2.15005,-1.09994 -4.00004,-1.77494 -5.55,-2.025 -0.95004,-0.19994 -1.70004,-0.025 -2.25,0.525 -0.50004,0.50005 -0.47504,1.20006 0.075,2.1 1.79995,2.45005 2.69995,4.57505 2.7,6.375 0.29995,5.30004 0.47496,10.80004 0.525,16.5 -2.75004,0.35003 -5.45004,0.67504 -8.1,0.975 -3.00004,0.20003 -6.15004,0.47503 -9.45,0.825 -1.70003,0.20003 -1.90002,0.82502 -0.6,1.875 1.94998,1.50002 3.57497,2.17502 4.875,2.025 0.64997,-0.34998 5.07497,-1.12498 13.275,-2.325 -0.05,5.45003 -0.20004,11.12502 -0.45,17.025"
       id="text17540"
       inkscape:connector-curvature="0" />
  </g>
</svg>
