<?xml version="1.0" encoding="UTF-8" standalone="no"?>
<!-- Created with Inkscape (http://www.inkscape.org/) -->

<svg
   xmlns:dc="http://purl.org/dc/elements/1.1/"
   xmlns:cc="http://creativecommons.org/ns#"
   xmlns:rdf="http://www.w3.org/1999/02/22-rdf-syntax-ns#"
   xmlns:svg="http://www.w3.org/2000/svg"
   xmlns="http://www.w3.org/2000/svg"
   xmlns:xlink="http://www.w3.org/1999/xlink"
   xmlns:sodipodi="http://sodipodi.sourceforge.net/DTD/sodipodi-0.dtd"
   xmlns:inkscape="http://www.inkscape.org/namespaces/inkscape"
   version="1.0"
   width="100.04163"
   height="99.995232"
   id="svg2"
   sodipodi:version="0.32"
   inkscape:version="0.48.5 r10040"
   sodipodi:docname="red_chariot.svg"
   inkscape:output_extension="org.inkscape.output.svg.inkscape">
  <metadata
     id="metadata11">
    <rdf:RDF>
      <cc:Work
         rdf:about="">
        <dc:format>image/svg+xml</dc:format>
        <dc:type
           rdf:resource="http://purl.org/dc/dcmitype/StillImage" />
        <dc:title />
      </cc:Work>
    </rdf:RDF>
  </metadata>
  <sodipodi:namedview
     inkscape:window-height="979"
     inkscape:window-width="1679"
     inkscape:pageshadow="2"
     inkscape:pageopacity="0.0"
     guidetolerance="10.0"
     gridtolerance="10.0"
     objecttolerance="10.0"
     borderopacity="1.0"
     bordercolor="#666666"
     pagecolor="#ffffff"
     id="base"
     inkscape:zoom="7.990381"
     inkscape:cx="70.983522"
     inkscape:cy="49.997616"
     inkscape:window-x="0"
     inkscape:window-y="42"
     inkscape:current-layer="layer3"
     showgrid="false"
     height="1052.36px"
     width="744px"
     units="mm"
     inkscape:window-maximized="0"
     fit-margin-top="0"
     fit-margin-left="0"
     fit-margin-right="0"
     fit-margin-bottom="0" />
  <defs
     id="defs3">
    <inkscape:perspective
       sodipodi:type="inkscape:persp3d"
       inkscape:vp_x="0 : 526.18109 : 1"
       inkscape:vp_y="0 : 1000 : 0"
       inkscape:vp_z="744.09448 : 526.18109 : 1"
       inkscape:persp3d-origin="372.04724 : 350.78739 : 1"
       id="perspective153" />
    <linearGradient
       id="linearGradient6462">
      <stop
         style="stop-color:black;stop-opacity:1;"
         offset="0"
         id="stop6464" />
      <stop
         style="stop-color:black;stop-opacity:0;"
         offset="1"
         id="stop6466" />
    </linearGradient>
    <linearGradient
       inkscape:collect="always"
       xlink:href="#linearGradient6462"
       id="linearGradient6468"
       x1="24"
       y1="229.36218"
       x2="90"
       y2="229.36218"
       gradientUnits="userSpaceOnUse" />
    <linearGradient
       inkscape:collect="always"
       xlink:href="#linearGradient6462"
       id="linearGradient3442"
       gradientUnits="userSpaceOnUse"
       x1="24"
       y1="229.36218"
       x2="90"
       y2="229.36218" />
  </defs>
  <g
     inkscape:groupmode="layer"
     id="layer1"
     inkscape:label="stones"
     style="display:inline"
     transform="translate(-107.94702,-564.29324)" />
  <g
     inkscape:groupmode="layer"
     id="layer3"
     inkscape:label="pieces"
     style="display:inline"
     transform="translate(-107.94702,-564.29324)">
    <path
       transform="matrix(1.484848,0,0,1.484848,73.331497,273.72705)"
       sodipodi:type="arc"
       style="fill:#ffeda2;fill-opacity:1;stroke:#cc0000;stroke-width:3.36734796;stroke-miterlimit:4;stroke-opacity:1;stroke-dasharray:none;display:inline"
       id="path13926"
       sodipodi:cx="57"
       sodipodi:cy="229.36218"
       sodipodi:rx="32"
       sodipodi:ry="32"
       d="m 89,229.36218 c 0,17.67311 -14.326888,32 -32,32 -17.673112,0 -32,-14.32689 -32,-32 0,-17.67311 14.326888,-32 32,-32 17.673112,0 32,14.32689 32,32 z" />
    <g
       style="display:inline"
       id="g2701"
       transform="translate(-5.2504201,0.9713388)">
      <path
         inkscape:connector-curvature="0"
         sodipodi:nodetypes="cccccccccccccscccccccccccccccccccccccccccccscccccccccccccccccccccccccccccccccc"
         id="text2685"
         d="m 163.89496,624.54437 c -0.005,7.37502 0.0127,12.04082 0.48002,15.62858 0.11998,0.74999 0.33999,1.375 0.66003,1.875 0.63999,0.66667 1.14001,0.52083 1.50006,-0.4375 0.63999,-1.625 1.01093,-7.15782 0.97095,-17.44949 3.51468,-0.6755 10.06945,-0.82133 20.86992,-0.86301 0.99998,0.0417 1.62001,-0.16666 1.86007,-0.625 0.27995,-0.62498 0.0199,-1.29165 -0.78003,-2 -3.16018,-2.49998 -5.66027,-3.27082 -7.5003,-2.31251 -3.84019,0.66669 -8.68038,1.45836 -14.52058,2.37501 -0.04,-1.54165 -0.06,-3.18749 -0.06,-4.9375 1.80003,-0.24998 3.90011,-0.43748 6.30024,-0.5625 -4e-5,0.12502 0.04,0.27085 0.12001,0.4375 0.15996,0.75002 0.53998,1.10419 1.14004,1.06249 0.63999,-0.0416 1.14001,-0.39581 1.50006,-1.06249 0.63999,-0.74998 1.54002,-2.97915 2.70011,-6.68751 0.83999,-2.41663 2.08004,-4.29162 3.72015,-5.625 0.87998,-0.74995 0.97999,-1.49995 0.30001,-2.24999 -0.76008,-0.79163 -2.28014,-1.85413 -4.56018,-3.1875 -0.72008,-0.54163 -2.46014,-0.43746 -5.22021,0.3125 -2.08012,0.12504 -4.10019,0.4167 -6.06024,0.875 0.04,-1.79162 0.1,-3.37496 0.18001,-4.75 2.32005,-0.49996 4.70015,-0.95829 7.14028,-1.375 2.08004,-0.49995 3.26008,-0.87495 3.54014,-1.125 0.39997,-0.29163 0.49997,-0.6458 0.30001,-1.06251 -0.28005,-0.49995 -1.02008,-0.91661 -2.22008,-1.25 -1.2401,-0.29161 -2.46014,-0.20828 -3.66015,0.25001 -1.6801,0.54171 -3.36017,1.06255 -5.0402,1.5625 -3e-5,-0.0416 0.02,-0.0833 0.06,-0.12501 0.04,-1.49994 0.43999,-2.89578 1.20005,-4.18749 0.27997,-0.74996 -0.02,-1.45828 -0.90004,-2.125 -1.08007,-0.87495 -2.54013,-1.54162 -4.38017,-2 -0.84006,-0.24995 -1.54009,-0.0416 -2.10008,0.62499 -0.40005,0.37507 -0.32004,0.8334 0.24001,1.37501 1.24002,1.12505 1.92004,2.47921 2.04008,4.0625 -3e-5,0.91671 0.02,2.00004 0.06,3.25 -2.44012,0.41671 -4.98022,0.75004 -7.62031,0.99999 -1.48007,0.16672 -1.70008,0.64588 -0.66002,1.43751 1.56004,1.00003 3.80013,1.20837 6.72027,0.62499 0.47999,-0.12495 1.00001,-0.18745 1.56006,-0.18749 -3e-5,1.37503 -3e-5,2.9167 0,4.62499 -1.20008,0.16671 -2.30011,0.37504 -3.30013,0.62501 -2.80014,0.5417 -5.16023,0.93753 -7.08029,1.1875 -0.96005,-0.49996 -1.90008,-0.81247 -2.8201,-0.9375 -0.28003,-0.0416 -0.54004,0.0417 -0.78003,0.25 -0.28003,0.2917 -0.20003,0.6667 0.24001,1.125 1.32003,1.62503 2.48007,5.1667 3.48013,10.625 0.27999,2.75002 1.26004,4.64585 2.94012,5.6875 0.04,10e-6 0.1,0.0208 0.18001,0.0625 0.6,0.12503 0.94001,-0.2708 1.02003,-1.1875 0.28,3e-5 0.58,-0.0208 0.90004,-0.0625 1.36003,-0.37498 3.1601,-0.66663 5.40021,-0.87499 -2e-5,1.79169 -0.02,3.47918 -0.06,5.0625 -6.87384,1.32132 -6.19149,1.43309 -14.08087,2.5625 -1.08006,0.0417 -1.22006,0.54167 -0.42002,1.5 1.68006,1.62501 2.65772,1.86863 4.91423,1.25604 m 13.0068,-17.94355 c 1.48002,-0.29163 2.94008,-0.49997 4.38017,-0.62499 0.88,-0.12497 1.18001,-0.4583 0.90004,-1.00001 -0.40005,-0.62496 -1.12008,-1.06246 -2.16008,-1.3125 -0.76007,-0.16663 -1.80011,-0.0833 -3.12013,0.25001 -4e-5,-1.54164 -4e-5,-3.02081 0,-4.4375 5.16017,-0.87496 8.20028,-1.06247 9.12036,-0.5625 0.39998,0.2917 0.45997,1.16669 0.18001,2.625 -1.20009,5.37502 -2.08013,8.64585 -2.6401,9.8125 -1.20009,-0.91664 -3.42017,-0.93748 -6.66027,-0.0625 -4e-5,-1.66664 -4e-5,-3.22914 0,-4.68751 m -3.42014,-1.81249 c -1.72009,0.41669 -3.32015,0.79169 -4.80018,1.125 -0.64006,0.16669 -0.58005,0.56252 0.18,1.1875 0.39999,0.2917 1.02002,0.39586 1.86008,0.3125 0.88,-0.16664 1.80004,-0.29164 2.7601,-0.375 -3e-5,1.62503 0.02,3.27086 0.06,4.9375 -2.32011,0.41669 -4.48019,0.75002 -6.48025,1 -0.16003,-0.99998 -0.42004,-2.02081 -0.78003,-3.0625 -0.76005,-4.37497 -1.22007,-7.04164 -1.38006,-8 2.04006,-0.66664 4.88018,-1.29163 8.52035,-1.87501 -3e-5,1.41671 0.02,3.00004 0.06,4.75001"
         style="font-size:62.70818329px;font-style:normal;font-variant:normal;font-weight:normal;font-stretch:normal;text-align:start;line-height:100%;writing-mode:lr-tb;text-anchor:start;fill:#cc0000;fill-opacity:1;stroke:none;display:inline;font-family:AR PL UKai TW;-inkscape-font-specification:AR PL UKai TW" />
      <g
         transform="translate(2.7522907,256.88074)"
         id="g2694">
        <path
           inkscape:connector-curvature="0"
           sodipodi:nodetypes="ccccccccccccscccccccccc"
           id="path2698"
           d="m 139.40038,348.2291 c 1.37499,2.91669 1.58332,8.22919 0.625,15.9375 -0.29168,2.25001 -0.75001,4.52084 -1.375,6.8125 -0.62501,2.04167 -0.16668,4.0625 1.375,6.0625 0.0417,0.125 0.14582,0.25 0.3125,0.375 0.79166,0.66667 1.43749,0.41667 1.9375,-0.75 0.62499,-1.75 0.93749,-3.62499 0.9375,-5.625 0.12499,-10.87498 0.37499,-17.52081 0.75,-19.9375 0.29165,-1.16664 0.22915,-1.97914 -0.1875,-2.4375 -0.75001,-0.91663 -1.41668,-1.66663 -2,-2.25 -0.16668,-0.24997 -0.39585,-0.43747 -0.6875,-0.5625 1.79165,-2.62496 3.95832,-6.43746 6.5,-11.4375 0.87498,-1.62495 1.29165,-2.49995 1.25,-2.625 -0.12502,-0.41662 -0.52085,-0.89578 -1.1875,-1.4375 -0.75002,-0.54162 -1.56252,-0.89578 -2.4375,-1.0625 -1.00001,-0.24995 -1.75001,-0.29162 -2.25,-0.125 -0.41668,0.16672 -0.54168,0.52088 -0.375,1.0625 0.99999,3.75005 -1.08335,9.43754 -6.25,17.0625 -0.12501,0.12503 -0.22917,0.27087 -0.3125,0.4375 -1.54167,2.1667 -4.27084,5.37503 -8.1875,9.625 -0.375,0.29169 -0.29166,0.45835 0.25,0.5 1.66667,-0.24998 4.6875,-2.54164 9.0625,-6.875 0.66666,-0.87497 1.41666,-1.79164 2.25,-2.75"
           style="font-size:64px;font-style:normal;font-variant:normal;font-weight:normal;font-stretch:normal;text-align:start;line-height:100%;writing-mode:lr-tb;text-anchor:start;fill:#cc0000;fill-opacity:1;stroke:none;display:inline;font-family:AR PL UKai TW;-inkscape-font-specification:AR PL UKai TW" />
      </g>
    </g>
    <path
       d="m 89,229.36218 c 0,17.67311 -14.326888,32 -32,32 -17.673112,0 -32,-14.32689 -32,-32 0,-17.67311 14.326888,-32 32,-32 17.673112,0 32,14.32689 32,32 z"
       sodipodi:ry="32"
       sodipodi:rx="32"
       sodipodi:cy="229.36218"
       sodipodi:cx="57"
       id="path2723"
       style="fill:#ffffff;fill-opacity:1;stroke:#000000;stroke-width:3.36734796000000003;stroke-miterlimit:4;stroke-opacity:1;stroke-dasharray:none;display:inline"
       sodipodi:type="arc"
       transform="matrix(1.484848,0,0,1.484848,73.331497,273.72705)" />
    <g
       transform="matrix(1.2,0,0,1.2,-37.320912,-121.30625)"
       id="g2725"
       style="fill:#000000;display:inline">
      <path
         inkscape:connector-curvature="0"
         style="font-size:62.70818329px;font-style:normal;font-variant:normal;font-weight:normal;font-stretch:normal;text-align:start;line-height:100%;writing-mode:lr-tb;text-anchor:start;fill:#000000;fill-opacity:1;stroke:none;display:inline;font-family:AR PL UKai TW;-inkscape-font-specification:AR PL UKai TW"
         d="m 163.89496,624.54437 c -0.005,7.37502 0.0127,12.04082 0.48002,15.62858 0.11998,0.74999 0.33999,1.375 0.66003,1.875 0.63999,0.66667 1.14001,0.52083 1.50006,-0.4375 0.63999,-1.625 1.01093,-7.15782 0.97095,-17.44949 3.51468,-0.6755 10.06945,-0.82133 20.86992,-0.86301 0.99998,0.0417 1.62001,-0.16666 1.86007,-0.625 0.27995,-0.62498 0.0199,-1.29165 -0.78003,-2 -3.16018,-2.49998 -5.66027,-3.27082 -7.5003,-2.31251 -3.84019,0.66669 -8.68038,1.45836 -14.52058,2.37501 -0.04,-1.54165 -0.06,-3.18749 -0.06,-4.9375 1.80003,-0.24998 3.90011,-0.43748 6.30024,-0.5625 -4e-5,0.12502 0.04,0.27085 0.12001,0.4375 0.15996,0.75002 0.53998,1.10419 1.14004,1.06249 0.63999,-0.0416 1.14001,-0.39581 1.50006,-1.06249 0.63999,-0.74998 1.54002,-2.97915 2.70011,-6.68751 0.83999,-2.41663 2.08004,-4.29162 3.72015,-5.625 0.87998,-0.74995 0.97999,-1.49995 0.30001,-2.24999 -0.76008,-0.79163 -2.28014,-1.85413 -4.56018,-3.1875 -0.72008,-0.54163 -2.46014,-0.43746 -5.22021,0.3125 -2.08012,0.12504 -4.10019,0.4167 -6.06024,0.875 0.04,-1.79162 0.1,-3.37496 0.18001,-4.75 2.32005,-0.49996 4.70015,-0.95829 7.14028,-1.375 2.08004,-0.49995 3.26008,-0.87495 3.54014,-1.125 0.39997,-0.29163 0.49997,-0.6458 0.30001,-1.06251 -0.28005,-0.49995 -1.02008,-0.91661 -2.22008,-1.25 -1.2401,-0.29161 -2.46014,-0.20828 -3.66015,0.25001 -1.6801,0.54171 -3.36017,1.06255 -5.0402,1.5625 -3e-5,-0.0416 0.02,-0.0833 0.06,-0.12501 0.04,-1.49994 0.43999,-2.89578 1.20005,-4.18749 0.27997,-0.74996 -0.02,-1.45828 -0.90004,-2.125 -1.08007,-0.87495 -2.54013,-1.54162 -4.38017,-2 -0.84006,-0.24995 -1.54009,-0.0416 -2.10008,0.62499 -0.40005,0.37507 -0.32004,0.8334 0.24001,1.37501 1.24002,1.12505 1.92004,2.47921 2.04008,4.0625 -3e-5,0.91671 0.02,2.00004 0.06,3.25 -2.44012,0.41671 -4.98022,0.75004 -7.62031,0.99999 -1.48007,0.16672 -1.70008,0.64588 -0.66002,1.43751 1.56004,1.00003 3.80013,1.20837 6.72027,0.62499 0.47999,-0.12495 1.00001,-0.18745 1.56006,-0.18749 -3e-5,1.37503 -3e-5,2.9167 0,4.62499 -1.20008,0.16671 -2.30011,0.37504 -3.30013,0.62501 -2.80014,0.5417 -5.16023,0.93753 -7.08029,1.1875 -0.96005,-0.49996 -1.90008,-0.81247 -2.8201,-0.9375 -0.28003,-0.0416 -0.54004,0.0417 -0.78003,0.25 -0.28003,0.2917 -0.20003,0.6667 0.24001,1.125 1.32003,1.62503 2.48007,5.1667 3.48013,10.625 0.27999,2.75002 1.26004,4.64585 2.94012,5.6875 0.04,10e-6 0.1,0.0208 0.18001,0.0625 0.6,0.12503 0.94001,-0.2708 1.02003,-1.1875 0.28,3e-5 0.58,-0.0208 0.90004,-0.0625 1.36003,-0.37498 3.1601,-0.66663 5.40021,-0.87499 -2e-5,1.79169 -0.02,3.47918 -0.06,5.0625 -6.87384,1.32132 -6.19149,1.43309 -14.08087,2.5625 -1.08006,0.0417 -1.22006,0.54167 -0.42002,1.5 1.68006,1.62501 2.65772,1.86863 4.91423,1.25604 m 13.0068,-17.94355 c 1.48002,-0.29163 2.94008,-0.49997 4.38017,-0.62499 0.88,-0.12497 1.18001,-0.4583 0.90004,-1.00001 -0.40005,-0.62496 -1.12008,-1.06246 -2.16008,-1.3125 -0.76007,-0.16663 -1.80011,-0.0833 -3.12013,0.25001 -4e-5,-1.54164 -4e-5,-3.02081 0,-4.4375 5.16017,-0.87496 8.20028,-1.06247 9.12036,-0.5625 0.39998,0.2917 0.45997,1.16669 0.18001,2.625 -1.20009,5.37502 -2.08013,8.64585 -2.6401,9.8125 -1.20009,-0.91664 -3.42017,-0.93748 -6.66027,-0.0625 -4e-5,-1.66664 -4e-5,-3.22914 0,-4.68751 m -3.42014,-1.81249 c -1.72009,0.41669 -3.32015,0.79169 -4.80018,1.125 -0.64006,0.16669 -0.58005,0.56252 0.18,1.1875 0.39999,0.2917 1.02002,0.39586 1.86008,0.3125 0.88,-0.16664 1.80004,-0.29164 2.7601,-0.375 -3e-5,1.62503 0.02,3.27086 0.06,4.9375 -2.32011,0.41669 -4.48019,0.75002 -6.48025,1 -0.16003,-0.99998 -0.42004,-2.02081 -0.78003,-3.0625 -0.76005,-4.37497 -1.22007,-7.04164 -1.38006,-8 2.04006,-0.66664 4.88018,-1.29163 8.52035,-1.87501 -3e-5,1.41671 0.02,3.00004 0.06,4.75001"
         id="path2727"
         sodipodi:nodetypes="cccccccccccccscccccccccccccccccccccccccccccscccccccccccccccccccccccccccccccccc" />
      <g
         id="g2729"
         transform="translate(2.7522907,256.88074)"
         style="fill:#000000">
        <path
           inkscape:connector-curvature="0"
           style="font-size:64px;font-style:normal;font-variant:normal;font-weight:normal;font-stretch:normal;text-align:start;line-height:100%;writing-mode:lr-tb;text-anchor:start;fill:#000000;fill-opacity:1;stroke:none;display:inline;font-family:AR PL UKai TW;-inkscape-font-specification:AR PL UKai TW"
           d="m 139.40038,348.2291 c 1.37499,2.91669 1.58332,8.22919 0.625,15.9375 -0.29168,2.25001 -0.75001,4.52084 -1.375,6.8125 -0.62501,2.04167 -0.16668,4.0625 1.375,6.0625 0.0417,0.125 0.14582,0.25 0.3125,0.375 0.79166,0.66667 1.43749,0.41667 1.9375,-0.75 0.62499,-1.75 0.93749,-3.62499 0.9375,-5.625 0.12499,-10.87498 0.37499,-17.52081 0.75,-19.9375 0.29165,-1.16664 0.22915,-1.97914 -0.1875,-2.4375 -0.75001,-0.91663 -1.41668,-1.66663 -2,-2.25 -0.16668,-0.24997 -0.39585,-0.43747 -0.6875,-0.5625 1.79165,-2.62496 3.95832,-6.43746 6.5,-11.4375 0.87498,-1.62495 1.29165,-2.49995 1.25,-2.625 -0.12502,-0.41662 -0.52085,-0.89578 -1.1875,-1.4375 -0.75002,-0.54162 -1.56252,-0.89578 -2.4375,-1.0625 -1.00001,-0.24995 -1.75001,-0.29162 -2.25,-0.125 -0.41668,0.16672 -0.54168,0.52088 -0.375,1.0625 0.99999,3.75005 -1.08335,9.43754 -6.25,17.0625 -0.12501,0.12503 -0.22917,0.27087 -0.3125,0.4375 -1.54167,2.1667 -4.27084,5.37503 -8.1875,9.625 -0.375,0.29169 -0.29166,0.45835 0.25,0.5 1.66667,-0.24998 4.6875,-2.54164 9.0625,-6.875 0.66666,-0.87497 1.41666,-1.79164 2.25,-2.75"
           id="path2731"
           sodipodi:nodetypes="ccccccccccccscccccccccc" />
      </g>
    </g>
  </g>
</svg>
