<?xml version="1.0" encoding="UTF-8" standalone="no"?>
<svg
   xmlns:dc="http://purl.org/dc/elements/1.1/"
   xmlns:cc="http://creativecommons.org/ns#"
   xmlns:rdf="http://www.w3.org/1999/02/22-rdf-syntax-ns#"
   xmlns:svg="http://www.w3.org/2000/svg"
   xmlns="http://www.w3.org/2000/svg"
   xmlns:sodipodi="http://sodipodi.sourceforge.net/DTD/sodipodi-0.dtd"
   xmlns:inkscape="http://www.inkscape.org/namespaces/inkscape"
   version="1.1"
   width="481.60306"
   viewbox="0 0 479.0 532.0"
   height="604.10999"
   id="svg2"
   inkscape:version="0.48.5 r10040"
   sodipodi:docname="board.svg">
  <metadata
     id="metadata70">
    <rdf:RDF>
      <cc:Work
         rdf:about="">
        <dc:format>image/svg+xml</dc:format>
        <dc:type
           rdf:resource="http://purl.org/dc/dcmitype/StillImage" />
        <dc:title></dc:title>
      </cc:Work>
    </rdf:RDF>
  </metadata>
  <defs
     id="defs68" />
  <sodipodi:namedview
     pagecolor="#ffffff"
     bordercolor="#666666"
     borderopacity="1"
     objecttolerance="10"
     gridtolerance="10"
     guidetolerance="10"
     inkscape:pageopacity="0"
     inkscape:pageshadow="2"
     inkscape:window-width="1920"
     inkscape:window-height="1024"
     id="namedview66"
     showgrid="false"
     fit-margin-top="0"
     fit-margin-left="0"
     fit-margin-right="0"
     fit-margin-bottom="0"
     inkscape:zoom="1"
     inkscape:cx="241.15498"
     inkscape:cy="302.88999"
     inkscape:window-x="0"
     inkscape:window-y="0"
     inkscape:window-maximized="1"
     inkscape:current-layer="svg2" />
  <g
     id="g3186">
    <g
       transform="translate(1.6421614,35.941639)"
       id="g4">
      <path
         id="path6"
         d="m 27.5,27.5 0,477"
         inkscape:connector-curvature="0"
         style="stroke:#000000;stroke-width:1" />
      <path
         id="path8"
         d="m 80.5,27.5 0,212"
         inkscape:connector-curvature="0"
         style="stroke:#000000;stroke-width:1" />
      <path
         id="path10"
         d="m 80.5,292.5 0,212"
         inkscape:connector-curvature="0"
         style="stroke:#000000;stroke-width:1" />
      <path
         id="path12"
         d="m 133.5,27.5 0,212"
         inkscape:connector-curvature="0"
         style="stroke:#000000;stroke-width:1" />
      <path
         id="path14"
         d="m 133.5,292.5 0,212"
         inkscape:connector-curvature="0"
         style="stroke:#000000;stroke-width:1" />
      <path
         id="path16"
         d="m 186.5,27.5 0,212"
         inkscape:connector-curvature="0"
         style="stroke:#000000;stroke-width:1" />
      <path
         id="path18"
         d="m 186.5,292.5 0,212"
         inkscape:connector-curvature="0"
         style="stroke:#000000;stroke-width:1" />
      <path
         id="path20"
         d="m 239.5,27.5 0,212"
         inkscape:connector-curvature="0"
         style="stroke:#000000;stroke-width:1" />
      <path
         id="path22"
         d="m 239.5,292.5 0,212"
         inkscape:connector-curvature="0"
         style="stroke:#000000;stroke-width:1" />
      <path
         id="path24"
         d="m 292.5,27.5 0,212"
         inkscape:connector-curvature="0"
         style="stroke:#000000;stroke-width:1" />
      <path
         id="path26"
         d="m 292.5,292.5 0,212"
         inkscape:connector-curvature="0"
         style="stroke:#000000;stroke-width:1" />
      <path
         id="path28"
         d="m 345.5,27.5 0,212"
         inkscape:connector-curvature="0"
         style="stroke:#000000;stroke-width:1" />
      <path
         id="path30"
         d="m 345.5,292.5 0,212"
         inkscape:connector-curvature="0"
         style="stroke:#000000;stroke-width:1" />
      <path
         id="path32"
         d="m 398.5,27.5 0,212"
         inkscape:connector-curvature="0"
         style="stroke:#000000;stroke-width:1" />
      <path
         id="path34"
         d="m 398.5,292.5 0,212"
         inkscape:connector-curvature="0"
         style="stroke:#000000;stroke-width:1" />
      <path
         id="path36"
         d="m 451.5,27.5 0,477"
         inkscape:connector-curvature="0"
         style="stroke:#000000;stroke-width:1" />
      <path
         id="path38"
         d="m 27.5,27.5 424,0"
         inkscape:connector-curvature="0"
         style="stroke:#000000;stroke-width:1" />
      <path
         id="path40"
         d="m 27.5,80.5 424,0"
         inkscape:connector-curvature="0"
         style="stroke:#000000;stroke-width:1" />
      <path
         id="path42"
         d="m 27.5,133.5 424,0"
         inkscape:connector-curvature="0"
         style="stroke:#000000;stroke-width:1" />
      <path
         id="path44"
         d="m 27.5,186.5 424,0"
         inkscape:connector-curvature="0"
         style="stroke:#000000;stroke-width:1" />
      <path
         id="path46"
         d="m 27.5,239.5 424,0"
         inkscape:connector-curvature="0"
         style="stroke:#000000;stroke-width:1" />
      <path
         id="path48"
         d="m 27.5,292.5 424,0"
         inkscape:connector-curvature="0"
         style="stroke:#000000;stroke-width:1" />
      <path
         id="path50"
         d="m 27.5,345.5 424,0"
         inkscape:connector-curvature="0"
         style="stroke:#000000;stroke-width:1" />
      <path
         id="path52"
         d="m 27.5,398.5 424,0"
         inkscape:connector-curvature="0"
         style="stroke:#000000;stroke-width:1" />
      <path
         id="path54"
         d="m 27.5,451.5 424,0"
         inkscape:connector-curvature="0"
         style="stroke:#000000;stroke-width:1" />
      <path
         id="path56"
         d="m 27.5,504.5 424,0"
         inkscape:connector-curvature="0"
         style="stroke:#000000;stroke-width:1" />
      <path
         id="path58"
         d="m 186.5,27.5 106,106"
         inkscape:connector-curvature="0"
         style="stroke:#000000;stroke-width:1" />
      <path
         id="path60"
         d="m 186.5,133.5 106,-106"
         inkscape:connector-curvature="0"
         style="stroke:#000000;stroke-width:1" />
      <path
         id="path62"
         d="m 186.5,398.5 106,106"
         inkscape:connector-curvature="0"
         style="stroke:#000000;stroke-width:1" />
      <path
         id="path64"
         d="m 186.5,504.5 106,-106"
         inkscape:connector-curvature="0"
         style="stroke:#000000;stroke-width:1" />
    </g>
    <g
       id="g3122">
      <path
         inkscape:connector-curvature="0"
         id="path3095"
         style="font-size:33px;font-style:normal;font-variant:normal;font-weight:normal;font-stretch:normal;text-align:start;line-height:125%;letter-spacing:0px;word-spacing:0px;writing-mode:lr-tb;text-anchor:start;fill:#000000;fill-opacity:1;stroke:none;font-family:AR PL UKai CN;-inkscape-font-specification:AR PL UKai CN"
         d="m 30.379493,9.607516 0,17.24121 c -10e-6,1.18165 1.18163,1.77247 3.54492,1.77246 l 0,0.90235 -9.41016,0 0,-0.90235 c 2.36328,10e-6 3.54492,-0.59081 3.54492,-1.77246 l 0,-13.59961 c 0,-1.03123 -1.16016,-1.54685 -3.48047,-1.54687 l 0,-0.70899 5.44629,-1.38574 0.3545,0" />
      <path
         inkscape:connector-curvature="0"
         id="path3097"
         style="font-size:33px;font-style:normal;font-variant:normal;font-weight:normal;font-stretch:normal;text-align:start;line-height:125%;letter-spacing:0px;word-spacing:0px;writing-mode:lr-tb;text-anchor:start;fill:#000000;fill-opacity:1;stroke:none;font-family:AR PL UKai CN;-inkscape-font-specification:AR PL UKai CN"
         d="m 83.386445,21.080176 c -2.29884,1.46094 -3.96387,2.86817 -4.99512,4.22168 -0.6875,0.75196 -1.12793,1.67578 -1.32129,2.77148 l 5.89746,0 c 2.10546,0 3.79198,-0.87011 5.05957,-2.61035 l 0.54786,0.25781 -1.38575,3.80274 -11.82715,0 c 0,-1.71875 0.46192,-3.13672 1.38575,-4.25391 1.03124,-1.52538 2.85741,-3.2119 5.47851,-5.05957 2.72851,-1.93358 4.09276,-3.71678 4.09278,-5.34961 -2e-5,-1.39647 -0.5049,-2.57811 -1.51465,-3.54492 -0.77345,-0.73045 -1.67579,-1.09568 -2.70703,-1.0957 -1.00978,2e-5 -1.91212,0.3008 -2.70703,0.90234 -0.79493,0.5801 -1.19239,1.07424 -1.19239,1.48242 0,0.38674 0.0859,0.69826 0.25781,0.93457 0.30078,0.40822 0.45117,0.85939 0.45118,1.35352 -1e-5,0.25783 -0.1504,0.54786 -0.45118,0.87011 -0.30078,0.32229 -0.67676,0.48342 -1.12792,0.4834 -0.53712,2e-5 -0.97755,-0.16111 -1.32129,-0.4834 -0.38672,-0.36521 -0.58008,-0.81639 -0.58008,-1.35351 0,-1.31053 0.6875,-2.51365 2.0625,-3.60938 1.20312,-0.98826 2.74999,-1.4824 4.64062,-1.48242 1.89062,2e-5 3.48046,0.52639 4.76953,1.5791 1.24608,1.00979 1.86913,2.33108 1.86914,3.96387 -1e-5,1.86916 -1.79395,3.9424 -5.38183,6.21973" />
      <path
         inkscape:connector-curvature="0"
         id="path3099"
         style="font-size:33px;font-style:normal;font-variant:normal;font-weight:normal;font-stretch:normal;text-align:start;line-height:125%;letter-spacing:0px;word-spacing:0px;writing-mode:lr-tb;text-anchor:start;fill:#000000;fill-opacity:1;stroke:none;font-family:AR PL UKai CN;-inkscape-font-specification:AR PL UKai CN"
         d="m 141.68276,24.109476 c -2e-5,1.74024 -0.65529,3.09375 -1.96582,4.06055 -1.22462,0.90234 -2.68556,1.35351 -4.38281,1.35351 -2.08399,0 -3.77052,-0.52636 -5.05957,-1.5791 -1.16016,-0.94531 -1.74024,-2.01953 -1.74024,-3.22266 0,-0.51561 0.17187,-0.9453 0.51563,-1.28906 0.34374,-0.32226 0.75195,-0.48339 1.22461,-0.4834 0.36523,10e-6 0.70898,0.16114 1.03125,0.4834 0.32226,0.32227 0.48339,0.75196 0.48339,1.28906 0,0.25782 -0.0967,0.48341 -0.29004,0.67676 -0.12891,0.12891 -0.22559,0.37598 -0.29003,0.74121 -0.043,0.21485 0.35448,0.69825 1.19238,1.4502 0.77343,0.6875 1.75097,1.03125 2.93262,1.03125 0.90233,0 1.81542,-0.37598 2.73925,-1.12793 0.77343,-0.62304 1.16015,-1.75097 1.16016,-3.38379 -1e-5,-1.56835 -0.39747,-2.71776 -1.19238,-3.44824 -0.58009,-0.5371 -1.46095,-0.80566 -2.64258,-0.80567 l -1.61133,0 0,-1.28906 1.61133,0 c 0.64452,10e-6 1.26757,-0.32225 1.86914,-0.9668 0.88085,-0.94529 1.32128,-2.12693 1.32129,-3.54492 -1e-5,-1.41795 -0.37599,-2.48142 -1.12793,-3.19043 -0.68751,-0.64451 -1.46095,-0.96677 -2.32031,-0.96679 -1.13868,2e-5 -2.03028,0.41896 -2.67481,1.25683 -0.58008,0.75197 -0.74121,1.2676 -0.4834,1.54688 0.34375,0.36525 0.51562,0.75197 0.51563,1.16015 -1e-5,0.53713 -0.1504,0.97756 -0.45117,1.32129 -0.30079,0.34377 -0.68751,0.51564 -1.16016,0.51563 -0.42969,10e-6 -0.80567,-0.17186 -1.12793,-0.51563 -0.34375,-0.36522 -0.51563,-0.80565 -0.51562,-1.32129 -1e-5,-1.18162 0.63378,-2.34177 1.90136,-3.48047 1.03125,-0.9238 2.36328,-1.38572 3.9961,-1.38574 1.6328,2e-5 3.01854,0.44045 4.15722,1.32129 1.16015,0.88088 1.74022,2.12697 1.74024,3.73828 -2e-5,1.99806 -0.9883,3.49123 -2.96485,4.47949 -0.34376,0.17189 -0.64454,0.33302 -0.90234,0.4834 0.40819,0.10744 0.83788,0.23634 1.28906,0.38672 2.14843,0.75197 3.22264,2.32032 3.22266,4.70508" />
      <path
         inkscape:connector-curvature="0"
         id="path3101"
         style="font-size:33px;font-style:normal;font-variant:normal;font-weight:normal;font-stretch:normal;text-align:start;line-height:125%;letter-spacing:0px;word-spacing:0px;writing-mode:lr-tb;text-anchor:start;fill:#000000;fill-opacity:1;stroke:none;font-family:AR PL UKai CN;-inkscape-font-specification:AR PL UKai CN"
         d="m 191.55765,24.399506 3.7705,0 0,0.90235 -3.7705,0 0,1.83691 c 0.0215,0.98829 0.78416,1.48243 2.28808,1.48242 l 0,0.90235 -6.86426,0 0,-0.90235 c 1.5039,10e-6 2.25585,-0.49413 2.25586,-1.48242 l 0,-1.83691 -8.28222,0 0,-1.12793 9.53906,-14.56641 1.06348,0 0,14.79199 m -2.32032,0 0,-11.21484 -7.21875,11.21484 7.21875,0" />
      <path
         inkscape:connector-curvature="0"
         id="path3103"
         style="font-size:33px;font-style:normal;font-variant:normal;font-weight:normal;font-stretch:normal;text-align:start;line-height:125%;letter-spacing:0px;word-spacing:0px;writing-mode:lr-tb;text-anchor:start;fill:#000000;fill-opacity:1;stroke:none;font-family:AR PL UKai CN;-inkscape-font-specification:AR PL UKai CN"
         d="m 246.80713,9.285256 -0.70898,1.61133 -8.76562,0 0,7.41211 c 1.33203,-0.77343 2.81444,-1.16014 4.44727,-1.16016 1.54686,2e-5 2.8574,0.46193 3.93163,1.38574 1.46092,1.22463 2.1914,2.94337 2.1914,5.15625 -1e-5,1.84767 -0.68751,3.3086 -2.0625,4.38282 -1.2461,0.9668 -2.77149,1.45019 -4.57617,1.45019 -1.80469,0 -3.48047,-0.51562 -5.02734,-1.54687 -1.16016,-0.75195 -1.74024,-1.53613 -1.74024,-2.35254 0,-0.51562 0.17188,-0.93457 0.51563,-1.25684 0.25781,-0.27929 0.62304,-0.41894 1.0957,-0.41894 0.45117,0 0.83789,0.18262 1.16016,0.54785 0.34374,0.34375 0.51562,0.71973 0.51562,1.12793 0,0.17188 -0.0859,0.32227 -0.25781,0.45117 -0.17188,0.1504 -0.23633,0.30079 -0.19336,0.45117 0.10742,0.34376 0.45117,0.69825 1.03125,1.06348 1.11718,0.6875 2.08398,1.03125 2.90039,1.03125 0.94531,0 1.84765,-0.38672 2.70703,-1.16016 0.98827,-0.90234 1.48241,-2.15917 1.48243,-3.77051 -2e-5,-1.9121 -0.55861,-3.40526 -1.67579,-4.47949 -0.77344,-0.77342 -1.71875,-1.16014 -2.83593,-1.16015 -1.33204,1e-5 -2.77149,0.50489 -4.31836,1.51464 l -0.32227,-0.41894 0,-9.86133 10.50586,0" />
      <path
         inkscape:connector-curvature="0"
         id="path3105"
         style="font-size:33px;font-style:normal;font-variant:normal;font-weight:normal;font-stretch:normal;text-align:start;line-height:125%;letter-spacing:0px;word-spacing:0px;writing-mode:lr-tb;text-anchor:start;fill:#000000;fill-opacity:1;stroke:none;font-family:AR PL UKai CN;-inkscape-font-specification:AR PL UKai CN"
         d="m 289.87692,12.217876 c 1.41796,-2.14842 3.20116,-3.22264 5.34961,-3.22266 1.28905,2e-5 2.38475,0.34377 3.28711,1.03125 1.05272,0.79494 1.57907,1.63283 1.5791,2.51367 -3e-5,0.45119 -0.18264,0.83791 -0.54785,1.16016 -0.38674,0.23635 -0.71974,0.35451 -0.99903,0.35449 -0.36525,2e-5 -0.69825,-0.13963 -0.99902,-0.41894 -0.34376,-0.32225 -0.51564,-0.68748 -0.51563,-1.09571 -10e-6,-0.36521 0.0967,-0.65525 0.29004,-0.87011 0.1289,-0.15037 -0.0107,-0.47264 -0.41894,-0.9668 -0.45119,-0.53709 -0.99904,-0.80564 -1.64356,-0.80566 -1.35352,2e-5 -2.52442,0.80568 -3.51269,2.41699 -1.05275,1.69728 -1.64356,3.89943 -1.77247,6.60644 1.78319,-1.4824 3.4912,-2.22362 5.12402,-2.22363 1.5039,10e-6 2.78221,0.47267 3.83496,1.41797 1.24608,1.1172 1.86913,2.8252 1.86914,5.12402 0,1.86915 -0.66602,3.40528 -1.99804,4.6084 -1.2461,1.11719 -2.80372,1.67578 -4.67285,1.67578 -1.84766,0 -3.42676,-0.80566 -4.7373,-2.41699 -1.26758,-1.56835 -1.90137,-3.64159 -1.90137,-6.21973 0,-3.37303 0.79492,-6.26268 2.38477,-8.66894 m 0.0644,8.66894 c 0,2.7715 0.39746,4.74806 1.19238,5.92969 0.8164,1.20313 1.81543,1.80469 2.99707,1.80469 1.35351,0 2.37402,-0.41894 3.06153,-1.25684 0.77342,-0.94531 1.16014,-2.3203 1.16015,-4.125 -10e-6,-1.97655 -0.34376,-3.34081 -1.03125,-4.09277 -0.73048,-0.79491 -1.67579,-1.19237 -2.83593,-1.19238 -1.09571,10e-6 -2.61036,0.69825 -4.54395,2.09472 l 0,0.83789" />
      <path
         inkscape:connector-curvature="0"
         id="path3107"
         style="font-size:33px;font-style:normal;font-variant:normal;font-weight:normal;font-stretch:normal;text-align:start;line-height:125%;letter-spacing:0px;word-spacing:0px;writing-mode:lr-tb;text-anchor:start;fill:#000000;fill-opacity:1;stroke:none;font-family:AR PL UKai CN;-inkscape-font-specification:AR PL UKai CN"
         d="m 347.03137,28.298926 c -10e-6,0.34376 -0.11817,0.63379 -0.3545,0.87012 -0.23633,0.23633 -0.52637,0.35449 -0.87011,0.35449 -0.34376,0 -0.6338,-0.11816 -0.87012,-0.35449 -0.23633,-0.23633 -0.3545,-0.52636 -0.35449,-0.87012 -1e-5,-2.90038 0.49413,-5.58593 1.48242,-8.05664 0.90234,-2.16991 2.95409,-5.28514 6.15527,-9.3457 l -3.38379,0 c -2.04102,2e-5 -3.56641,0.27932 -4.57617,0.83789 -0.79492,0.45119 -1.7832,1.90138 -2.96484,4.35059 l -0.74121,-0.54786 1.80469,-6.25195 11.47265,0 0,0.90234 c -2.6211,3.37307 -4.38282,6.19826 -5.28515,8.47559 -1.00978,2.53517 -1.51466,5.74708 -1.51465,9.63574" />
      <path
         inkscape:connector-curvature="0"
         id="path3109"
         style="font-size:33px;font-style:normal;font-variant:normal;font-weight:normal;font-stretch:normal;text-align:start;line-height:125%;letter-spacing:0px;word-spacing:0px;writing-mode:lr-tb;text-anchor:start;fill:#000000;fill-opacity:1;stroke:none;font-family:AR PL UKai CN;-inkscape-font-specification:AR PL UKai CN"
         d="m 400.32598,29.523536 c -2.0625,0 -3.80274,-0.5371 -5.2207,-1.61133 -1.28906,-0.96679 -1.9336,-2.16991 -1.93359,-3.60937 -1e-5,-0.83788 0.34374,-1.75097 1.03125,-2.73926 0.60156,-0.85936 1.82616,-1.72948 3.67382,-2.61035 -1.22461,-0.70897 -2.10547,-1.39647 -2.64257,-2.0625 -0.77344,-0.9453 -1.16016,-1.91209 -1.16016,-2.90039 0,-1.46092 0.6123,-2.68553 1.83691,-3.67383 1.07422,-0.88084 2.4707,-1.32127 4.18946,-1.32129 1.41796,2e-5 2.64256,0.38674 3.67382,1.16016 1.41796,1.05275 2.12694,2.20217 2.12696,3.44824 -2e-5,0.75197 -0.25783,1.48244 -0.77344,2.19141 -0.51564,0.73048 -1.70802,1.61134 -3.57715,2.64257 2.14843,0.94533 3.66307,1.94435 4.54395,2.99707 0.70897,0.8379 1.06346,1.68654 1.06347,2.5459 -10e-6,1.41798 -0.59083,2.65333 -1.77246,3.70606 -1.39649,1.22461 -3.08302,1.83691 -5.05957,1.83691 m 3.57715,-7.08984 c -0.49415,-0.58007 -1.78321,-1.38573 -3.86719,-2.41699 -0.30079,-0.15038 -0.5586,-0.26855 -0.77343,-0.3545 -1.5254,0.81642 -2.48145,1.54689 -2.86817,2.19141 -0.51563,0.8379 -0.77344,1.6543 -0.77344,2.44922 0,1.20313 0.4082,2.18067 1.22461,2.93262 1.00976,0.92383 2.16992,1.38574 3.48047,1.38574 1.05273,0 2.06249,-0.38672 3.0293,-1.16016 0.90233,-0.73046 1.3535,-1.75097 1.35352,-3.06152 -2e-5,-0.66601 -0.26857,-1.32128 -0.80567,-1.96582 m -6.92871,-6.73535 c 0.5371,0.64454 1.62206,1.36427 3.25488,2.15918 1.31054,-0.68749 2.23437,-1.38573 2.77149,-2.09473 0.58006,-0.79491 0.8701,-1.62205 0.87011,-2.48145 -1e-5,-1.00974 -0.38673,-1.83689 -1.16015,-2.48144 -0.73048,-0.60154 -1.65431,-0.90232 -2.77149,-0.90234 -1.05274,2e-5 -1.96582,0.34377 -2.73925,1.03125 -0.73048,0.64455 -1.09571,1.48244 -1.09571,2.51367 0,0.79494 0.29004,1.54689 0.87012,2.25586" />
      <path
         inkscape:connector-curvature="0"
         id="path3111"
         style="font-size:33px;font-style:normal;font-variant:normal;font-weight:normal;font-stretch:normal;text-align:start;line-height:125%;letter-spacing:0px;word-spacing:0px;writing-mode:lr-tb;text-anchor:start;fill:#000000;fill-opacity:1;stroke:none;font-family:AR PL UKai CN;-inkscape-font-specification:AR PL UKai CN"
         d="m 457.60235,26.687596 c -1.3105,1.89063 -3.1689,2.83594 -5.57518,2.83594 -1.43946,0 -2.65332,-0.34375 -3.6416,-1.03125 -1.03125,-0.70898 -1.54688,-1.38574 -1.54687,-2.03027 -1e-5,-0.55859 0.10742,-0.988279 0.32225,-1.28906 0.23634,-0.32226 0.59083,-0.4834 1.06349,-0.4834 0.45117,0 0.85937,0.17188 1.22461,0.51562 0.32226,0.30079 0.48338,0.8379 0.4834,1.61133 -1e-5,0.38672 0.16112,0.78418 0.4834,1.19238 0.32226,0.40821 0.85936,0.61231 1.61132,0.61231 1.26757,0 2.44918,-0.75195 3.54488,-2.25586 1.03129,-1.41796 1.62209,-3.59863 1.77249,-6.54199 -1.418,1.61133 -3.00779,2.417 -4.76952,2.41699 -1.84767,10e-6 -3.35157,-0.60155 -4.51171,-1.80469 -1.11719,-1.16014 -1.67579,-2.73924 -1.67579,-4.7373 0,-1.9121 0.67676,-3.55565 2.03028,-4.93067 1.16014,-1.18162 2.6533,-1.77244 4.47949,-1.77246 2.06245,2e-5 3.78125,0.82717 5.15625,2.48145 1.1601,1.41798 1.7402,3.85646 1.7402,7.31543 0,3.15821 -0.7305,5.79004 -2.19139,7.8955 m -7.60546,-15.27539 c -0.77344,1.07424 -1.16016,2.50295 -1.16016,4.28614 0,1.84767 0.37599,3.26563 1.12793,4.2539 0.70898,0.92384 1.51465,1.38576 2.417,1.38574 1.26756,2e-5 2.42768,-0.37596 3.48048,-1.12792 0.3222,-0.23632 0.8164,-0.69823 1.4824,-1.38575 0,-3.5449 -0.3867,-5.89744 -1.1602,-7.05761 -0.8379,-1.24608 -1.9228,-1.86912 -3.25483,-1.86914 -1.22462,2e-5 -2.20216,0.5049 -2.93262,1.51464" />
    </g>
    <g
       transform="translate(0,635.21413)"
       id="g3133">
      <path
         d="m 454.25079,-61.685377 0,17.24121 c -10e-6,1.18165 1.18163,1.77247 3.54492,1.77246 l 0,0.90235 -9.41016,0 0,-0.90235 c 2.36328,10e-6 3.54492,-0.59081 3.54492,-1.77246 l 0,-13.59961 c 0,-1.03123 -1.16016,-1.54685 -3.48047,-1.54687 l 0,-0.70899 5.44629,-1.38574 0.3545,0"
         style="font-size:33px;font-style:normal;font-variant:normal;font-weight:normal;font-stretch:normal;text-align:start;line-height:125%;letter-spacing:0px;word-spacing:0px;writing-mode:lr-tb;text-anchor:start;fill:#000000;fill-opacity:1;stroke:none;font-family:AR PL UKai CN;-inkscape-font-specification:AR PL UKai CN"
         id="path3086"
         inkscape:connector-curvature="0" />
      <path
         d="m 401.48614,-50.212717 c -2.29884,1.46094 -3.96387,2.86817 -4.99512,4.22168 -0.6875,0.75196 -1.12793,1.67578 -1.32129,2.77148 l 5.89746,0 c 2.10546,0 3.79198,-0.87011 5.05957,-2.61035 l 0.54786,0.25781 -1.38575,3.80274 -11.82715,0 c 0,-1.71875 0.46192,-3.13672 1.38575,-4.25391 1.03124,-1.52538 2.85741,-3.2119 5.47851,-5.05957 2.72851,-1.93358 4.09276,-3.71678 4.09278,-5.34961 -2e-5,-1.39647 -0.5049,-2.57811 -1.51465,-3.54492 -0.77345,-0.73045 -1.67579,-1.09568 -2.70703,-1.0957 -1.00978,2e-5 -1.91212,0.3008 -2.70703,0.90234 -0.79493,0.5801 -1.19239,1.07424 -1.19239,1.48242 0,0.38674 0.0859,0.69826 0.25781,0.93457 0.30078,0.40822 0.45117,0.85939 0.45118,1.35352 -10e-6,0.25783 -0.1504,0.54786 -0.45118,0.87011 -0.30078,0.32229 -0.67676,0.48342 -1.12792,0.4834 -0.53712,2e-5 -0.97755,-0.16111 -1.32129,-0.4834 -0.38672,-0.36521 -0.58008,-0.81639 -0.58008,-1.35351 0,-1.31053 0.6875,-2.51365 2.0625,-3.60938 1.20312,-0.98826 2.74999,-1.4824 4.64062,-1.48242 1.89062,2e-5 3.48046,0.52639 4.76953,1.5791 1.24608,1.00979 1.86913,2.33108 1.86914,3.96387 -1e-5,1.86916 -1.79395,3.9424 -5.38183,6.21973"
         style="font-size:33px;font-style:normal;font-variant:normal;font-weight:normal;font-stretch:normal;text-align:start;line-height:125%;letter-spacing:0px;word-spacing:0px;writing-mode:lr-tb;text-anchor:start;fill:#000000;fill-opacity:1;stroke:none;font-family:AR PL UKai CN;-inkscape-font-specification:AR PL UKai CN"
         id="path3088"
         inkscape:connector-curvature="0" />
      <path
         d="m 353.76672,-47.183417 c -2e-5,1.74024 -0.65529,3.09375 -1.96582,4.06055 -1.22462,0.90234 -2.68556,1.35351 -4.38281,1.35351 -2.08399,0 -3.77052,-0.52636 -5.05957,-1.5791 -1.16016,-0.94531 -1.74024,-2.01953 -1.74024,-3.22266 0,-0.51561 0.17187,-0.9453 0.51563,-1.28906 0.34374,-0.32226 0.75195,-0.48339 1.22461,-0.4834 0.36523,1e-5 0.70898,0.16114 1.03125,0.4834 0.32226,0.32227 0.48339,0.75196 0.48339,1.28906 0,0.25782 -0.0967,0.48341 -0.29004,0.67676 -0.12891,0.12891 -0.22559,0.37598 -0.29003,0.74121 -0.043,0.21485 0.35448,0.69825 1.19238,1.4502 0.77343,0.6875 1.75097,1.03125 2.93262,1.03125 0.90233,0 1.81542,-0.37598 2.73925,-1.12793 0.77343,-0.62304 1.16015,-1.75097 1.16016,-3.38379 -10e-6,-1.56835 -0.39747,-2.71776 -1.19238,-3.44824 -0.58009,-0.5371 -1.46095,-0.80566 -2.64258,-0.80567 l -1.61133,0 0,-1.28906 1.61133,0 c 0.64452,1e-5 1.26757,-0.32225 1.86914,-0.9668 0.88085,-0.94529 1.32128,-2.12693 1.32129,-3.54492 -1e-5,-1.41795 -0.37599,-2.48142 -1.12793,-3.19043 -0.68751,-0.64451 -1.46095,-0.96677 -2.32031,-0.96679 -1.13868,2e-5 -2.03028,0.41896 -2.67481,1.25683 -0.58008,0.75197 -0.74121,1.2676 -0.4834,1.54688 0.34375,0.36525 0.51562,0.75197 0.51563,1.16015 -1e-5,0.53713 -0.1504,0.97756 -0.45117,1.32129 -0.30079,0.34377 -0.68751,0.51564 -1.16016,0.51563 -0.42969,10e-6 -0.80567,-0.17186 -1.12793,-0.51563 -0.34375,-0.36522 -0.51563,-0.80565 -0.51562,-1.32129 -10e-6,-1.18162 0.63378,-2.34177 1.90136,-3.48047 1.03125,-0.9238 2.36328,-1.38572 3.9961,-1.38574 1.6328,2e-5 3.01854,0.44045 4.15722,1.32129 1.16015,0.88088 1.74022,2.12697 1.74024,3.73828 -2e-5,1.99806 -0.9883,3.49123 -2.96485,4.47949 -0.34376,0.17189 -0.64454,0.33302 -0.90234,0.4834 0.40819,0.10744 0.83788,0.23634 1.28906,0.38672 2.14843,0.75197 3.22264,2.32032 3.22266,4.70508"
         style="font-size:33px;font-style:normal;font-variant:normal;font-weight:normal;font-stretch:normal;text-align:start;line-height:125%;letter-spacing:0px;word-spacing:0px;writing-mode:lr-tb;text-anchor:start;fill:#000000;fill-opacity:1;stroke:none;font-family:AR PL UKai CN;-inkscape-font-specification:AR PL UKai CN"
         id="path3090"
         inkscape:connector-curvature="0" />
      <path
         d="m 297.56295,-46.893387 3.7705,0 0,0.90235 -3.7705,0 0,1.83691 c 0.0215,0.98829 0.78416,1.48243 2.28808,1.48242 l 0,0.90235 -6.86426,0 0,-0.90235 c 1.5039,10e-6 2.25585,-0.49413 2.25586,-1.48242 l 0,-1.83691 -8.28222,0 0,-1.12793 9.53906,-14.56641 1.06348,0 0,14.79199 m -2.32032,0 0,-11.21484 -7.21875,11.21484 7.21875,0"
         style="font-size:33px;font-style:normal;font-variant:normal;font-weight:normal;font-stretch:normal;text-align:start;line-height:125%;letter-spacing:0px;word-spacing:0px;writing-mode:lr-tb;text-anchor:start;fill:#000000;fill-opacity:1;stroke:none;font-family:AR PL UKai CN;-inkscape-font-specification:AR PL UKai CN"
         id="path3092"
         inkscape:connector-curvature="0" />
      <path
         d="m 246.80713,-62.007637 -0.70898,1.61133 -8.76562,0 0,7.41211 c 1.33203,-0.77343 2.81444,-1.16014 4.44727,-1.16016 1.54686,2e-5 2.8574,0.46193 3.93163,1.38574 1.46092,1.22463 2.1914,2.94337 2.1914,5.15625 -1e-5,1.84767 -0.68751,3.3086 -2.0625,4.38282 -1.2461,0.9668 -2.77149,1.45019 -4.57617,1.45019 -1.80469,0 -3.48047,-0.51562 -5.02734,-1.54687 -1.16016,-0.75195 -1.74024,-1.53613 -1.74024,-2.35254 0,-0.51562 0.17188,-0.93457 0.51563,-1.25684 0.25781,-0.27929 0.62304,-0.41894 1.0957,-0.41894 0.45117,0 0.83789,0.18262 1.16016,0.54785 0.34374,0.34375 0.51562,0.71973 0.51562,1.12793 0,0.17188 -0.0859,0.32227 -0.25781,0.45117 -0.17188,0.1504 -0.23633,0.30079 -0.19336,0.45117 0.10742,0.34376 0.45117,0.69825 1.03125,1.06348 1.11718,0.6875 2.08398,1.03125 2.90039,1.03125 0.94531,0 1.84765,-0.38672 2.70703,-1.16016 0.98827,-0.90234 1.48241,-2.15917 1.48243,-3.77051 -2e-5,-1.9121 -0.55861,-3.40526 -1.67579,-4.47949 -0.77344,-0.77342 -1.71875,-1.16014 -2.83593,-1.16015 -1.33204,1e-5 -2.77149,0.50489 -4.31836,1.51464 l -0.32227,-0.41894 0,-9.86133 10.50586,0"
         style="font-size:33px;font-style:normal;font-variant:normal;font-weight:normal;font-stretch:normal;text-align:start;line-height:125%;letter-spacing:0px;word-spacing:0px;writing-mode:lr-tb;text-anchor:start;fill:#000000;fill-opacity:1;stroke:none;font-family:AR PL UKai CN;-inkscape-font-specification:AR PL UKai CN"
         id="path3094"
         inkscape:connector-curvature="0" />
      <path
         d="m 183.87162,-59.075017 c 1.41796,-2.14842 3.20116,-3.22264 5.34961,-3.22266 1.28905,2e-5 2.38475,0.34377 3.28711,1.03125 1.05272,0.79494 1.57907,1.63283 1.5791,2.51367 -3e-5,0.45119 -0.18264,0.83791 -0.54785,1.16016 -0.38674,0.23635 -0.71974,0.35451 -0.99903,0.35449 -0.36525,2e-5 -0.69825,-0.13963 -0.99902,-0.41894 -0.34376,-0.32225 -0.51564,-0.68748 -0.51563,-1.09571 -1e-5,-0.36521 0.0967,-0.65525 0.29004,-0.87011 0.1289,-0.15037 -0.0107,-0.47264 -0.41894,-0.9668 -0.45119,-0.53709 -0.99904,-0.80564 -1.64356,-0.80566 -1.35352,2e-5 -2.52442,0.80568 -3.51269,2.41699 -1.05275,1.69728 -1.64356,3.89943 -1.77247,6.60644 1.78319,-1.4824 3.4912,-2.22362 5.12402,-2.22363 1.5039,10e-6 2.78221,0.47267 3.83496,1.41797 1.24608,1.1172 1.86913,2.8252 1.86914,5.12402 0,1.86915 -0.66602,3.40528 -1.99804,4.6084 -1.2461,1.11719 -2.80372,1.67578 -4.67285,1.67578 -1.84766,0 -3.42676,-0.80566 -4.7373,-2.41699 -1.26758,-1.56835 -1.90137,-3.64159 -1.90137,-6.21973 0,-3.37303 0.79492,-6.26268 2.38477,-8.66894 m 0.0644,8.66894 c 0,2.7715 0.39746,4.74806 1.19238,5.92969 0.8164,1.20313 1.81543,1.80469 2.99707,1.80469 1.35351,0 2.37402,-0.41894 3.06153,-1.25684 0.77342,-0.94531 1.16014,-2.3203 1.16015,-4.125 -1e-5,-1.97655 -0.34376,-3.34081 -1.03125,-4.09277 -0.73048,-0.79491 -1.67579,-1.19237 -2.83593,-1.19238 -1.09571,1e-5 -2.61036,0.69825 -4.54395,2.09472 l 0,0.83789"
         style="font-size:33px;font-style:normal;font-variant:normal;font-weight:normal;font-stretch:normal;text-align:start;line-height:125%;letter-spacing:0px;word-spacing:0px;writing-mode:lr-tb;text-anchor:start;fill:#000000;fill-opacity:1;stroke:none;font-family:AR PL UKai CN;-inkscape-font-specification:AR PL UKai CN"
         id="path3096"
         inkscape:connector-curvature="0" />
      <path
         d="m 134.94741,-42.993967 c -1e-5,0.34376 -0.11817,0.63379 -0.3545,0.87012 -0.23633,0.23633 -0.52637,0.35449 -0.87011,0.35449 -0.34376,0 -0.6338,-0.11816 -0.87012,-0.35449 -0.23633,-0.23633 -0.3545,-0.52636 -0.35449,-0.87012 -1e-5,-2.90038 0.49413,-5.58593 1.48242,-8.05664 0.90234,-2.16991 2.95409,-5.28514 6.15527,-9.3457 l -3.38379,0 c -2.04102,2e-5 -3.56641,0.27932 -4.57617,0.83789 -0.79492,0.45119 -1.7832,1.90138 -2.96484,4.35059 l -0.74121,-0.54786 1.80469,-6.25195 11.47265,0 0,0.90234 c -2.6211,3.37307 -4.38282,6.19826 -5.28515,8.47559 -1.00978,2.53517 -1.51466,5.74708 -1.51465,9.63574"
         style="font-size:33px;font-style:normal;font-variant:normal;font-weight:normal;font-stretch:normal;text-align:start;line-height:125%;letter-spacing:0px;word-spacing:0px;writing-mode:lr-tb;text-anchor:start;fill:#000000;fill-opacity:1;stroke:none;font-family:AR PL UKai CN;-inkscape-font-specification:AR PL UKai CN"
         id="path3098"
         inkscape:connector-curvature="0" />
      <path
         d="m 82.226278,-41.769357 c -2.0625,0 -3.80274,-0.5371 -5.2207,-1.61133 -1.28906,-0.96679 -1.9336,-2.16991 -1.93359,-3.60937 -1e-5,-0.83788 0.34374,-1.75097 1.03125,-2.73926 0.60156,-0.85936 1.82616,-1.72948 3.67382,-2.61035 -1.22461,-0.70897 -2.10547,-1.39647 -2.64257,-2.0625 -0.77344,-0.9453 -1.16016,-1.91209 -1.16016,-2.90039 0,-1.46092 0.6123,-2.68553 1.83691,-3.67383 1.07422,-0.88084 2.4707,-1.32127 4.18946,-1.32129 1.41796,2e-5 2.64256,0.38674 3.67382,1.16016 1.41796,1.05275 2.126944,2.20217 2.126964,3.44824 -2e-5,0.75197 -0.257834,1.48244 -0.773444,2.19141 -0.51564,0.73048 -1.70802,1.61134 -3.57715,2.64257 2.14843,0.94533 3.66307,1.94435 4.543954,2.99707 0.70897,0.8379 1.06346,1.68654 1.06347,2.5459 -1e-5,1.41798 -0.59083,2.65333 -1.772464,3.70606 -1.39649,1.22461 -3.08302,1.83691 -5.05957,1.83691 m 3.57715,-7.08984 c -0.49415,-0.58007 -1.78321,-1.38573 -3.86719,-2.41699 -0.30079,-0.15038 -0.5586,-0.26855 -0.77343,-0.3545 -1.5254,0.81642 -2.48145,1.54689 -2.86817,2.19141 -0.51563,0.8379 -0.77344,1.6543 -0.77344,2.44922 0,1.20313 0.4082,2.18067 1.22461,2.93262 1.00976,0.92383 2.16992,1.38574 3.48047,1.38574 1.05273,0 2.06249,-0.38672 3.0293,-1.16016 0.90233,-0.73046 1.3535,-1.75097 1.35352,-3.06152 -2e-5,-0.66601 -0.26857,-1.32128 -0.80567,-1.96582 m -6.92871,-6.73535 c 0.5371,0.64454 1.62206,1.36427 3.25488,2.15918 1.31054,-0.68749 2.23437,-1.38573 2.77149,-2.09473 0.58006,-0.79491 0.8701,-1.62205 0.87011,-2.48145 -1e-5,-1.00974 -0.38673,-1.83689 -1.16015,-2.48144 -0.73048,-0.60154 -1.65431,-0.90232 -2.77149,-0.90234 -1.05274,2e-5 -1.96582,0.34377 -2.73925,1.03125 -0.73048,0.64455 -1.09571,1.48244 -1.09571,2.51367 0,0.79494 0.29004,1.54689 0.87012,2.25586"
         style="font-size:33px;font-style:normal;font-variant:normal;font-weight:normal;font-stretch:normal;text-align:start;line-height:125%;letter-spacing:0px;word-spacing:0px;writing-mode:lr-tb;text-anchor:start;fill:#000000;fill-opacity:1;stroke:none;font-family:AR PL UKai CN;-inkscape-font-specification:AR PL UKai CN"
         id="path3100"
         inkscape:connector-curvature="0" />
      <path
         d="m 33.731053,-44.605297 c -1.3105,1.89063 -3.1689,2.83594 -5.57518,2.83594 -1.43946,0 -2.65332,-0.34375 -3.6416,-1.03125 -1.03125,-0.70898 -1.54688,-1.38574 -1.54687,-2.03027 -10e-6,-0.55859 0.10742,-0.988279 0.32225,-1.28906 0.23634,-0.32226 0.59083,-0.4834 1.06349,-0.4834 0.45117,0 0.85937,0.17188 1.22461,0.51562 0.32226,0.30079 0.48338,0.8379 0.4834,1.61133 -10e-6,0.38672 0.16112,0.78418 0.4834,1.19238 0.32226,0.40821 0.85936,0.61231 1.61132,0.61231 1.26757,0 2.44918,-0.75195 3.54488,-2.25586 1.03129,-1.41796 1.62209,-3.59863 1.77249,-6.54199 -1.418,1.61133 -3.00779,2.417 -4.76952,2.41699 -1.84767,1e-5 -3.35157,-0.60155 -4.51171,-1.80469 -1.11719,-1.16014 -1.67579,-2.73924 -1.67579,-4.7373 0,-1.9121 0.67676,-3.55565 2.03028,-4.93067 1.16014,-1.18162 2.6533,-1.77244 4.47949,-1.77246 2.06245,2e-5 3.78125,0.82717 5.15625,2.48145 1.1601,1.41798 1.7402,3.85646 1.7402,7.31543 0,3.15821 -0.7305,5.79004 -2.19139,7.8955 m -7.60546,-15.27539 c -0.77344,1.07424 -1.16016,2.50295 -1.16016,4.28614 0,1.84767 0.37599,3.26563 1.12793,4.2539 0.70898,0.92384 1.51465,1.38576 2.417,1.38574 1.26756,2e-5 2.42768,-0.37596 3.48048,-1.12792 0.3222,-0.23632 0.8164,-0.69823 1.4824,-1.38575 0,-3.5449 -0.3867,-5.89744 -1.1602,-7.05761 -0.8379,-1.24608 -1.9228,-1.86912 -3.25483,-1.86914 -1.22462,2e-5 -2.20216,0.5049 -2.93262,1.51464"
         style="font-size:33px;font-style:normal;font-variant:normal;font-weight:normal;font-stretch:normal;text-align:start;line-height:125%;letter-spacing:0px;word-spacing:0px;writing-mode:lr-tb;text-anchor:start;fill:#000000;fill-opacity:1;stroke:none;font-family:AR PL UKai CN;-inkscape-font-specification:AR PL UKai CN"
         id="path3102"
         inkscape:connector-curvature="0" />
    </g>
  </g>
</svg>
