<?xml version="1.0" encoding="UTF-8" standalone="no"?>
<!-- Created with Inkscape (http://www.inkscape.org/) -->

<svg
   xmlns:dc="http://purl.org/dc/elements/1.1/"
   xmlns:cc="http://creativecommons.org/ns#"
   xmlns:rdf="http://www.w3.org/1999/02/22-rdf-syntax-ns#"
   xmlns:svg="http://www.w3.org/2000/svg"
   xmlns="http://www.w3.org/2000/svg"
   xmlns:sodipodi="http://sodipodi.sourceforge.net/DTD/sodipodi-0.dtd"
   xmlns:inkscape="http://www.inkscape.org/namespaces/inkscape"
   version="1.1"
   width="408.37808"
   height="408.59109"
   id="svg2"
   xml:space="preserve"
   inkscape:version="0.48.4 r9939"
   sodipodi:docname="black_horse.svg"><sodipodi:namedview
     pagecolor="#ffffff"
     bordercolor="#666666"
     borderopacity="1"
     objecttolerance="10"
     gridtolerance="10"
     guidetolerance="10"
     inkscape:pageopacity="0"
     inkscape:pageshadow="2"
     inkscape:window-width="1920"
     inkscape:window-height="1024"
     id="namedview9"
     showgrid="false"
     inkscape:zoom="0.84426751"
     inkscape:cx="265.3226"
     inkscape:cy="183.71842"
     inkscape:window-x="0"
     inkscape:window-y="0"
     inkscape:window-maximized="1"
     inkscape:current-layer="svg2"
     fit-margin-top="0"
     fit-margin-left="0"
     fit-margin-right="0"
     fit-margin-bottom="0" /><metadata
     id="metadata8"><rdf:RDF><cc:Work
         rdf:about=""><dc:format>image/svg+xml</dc:format><dc:type
           rdf:resource="http://purl.org/dc/dcmitype/StillImage" /><dc:title /></cc:Work></rdf:RDF></metadata><defs
     id="defs6" /><path
     sodipodi:type="arc"
     style="color:#000000;fill:#ffffff;fill-opacity:1;fill-rule:nonzero;stroke:none;stroke-width:1;marker:none;visibility:visible;display:inline;overflow:visible;enable-background:accumulate"
     id="path2982"
     sodipodi:cx="197.80461"
     sodipodi:cy="196.95726"
     sodipodi:rx="197.80461"
     sodipodi:ry="197.80461"
     d="m 395.60922,196.95726 a 197.80461,197.80461 0 1 1 -395.60922,0 197.80461,197.80461 0 1 1 395.60922,0 z"
     transform="translate(6.3844299,7.3382874)" /><path
     id="path3033"
     style="fill:#000000;fill-opacity:1;fill-rule:nonzero;stroke:none"
     d="m 138.0191,185.18727 0,-10.78125 50.5863,0 0,14.23875 -10.7813,0 -10.9175,3.59375 -10.9187,3.73 -17.9688,0 0,-10.78125 z m 0,-43.555 0,-10.78125 43.2625,0 0,21.5625 -43.2625,0 0,-10.78125 z m 41.8163,-61.386248 c 0.5862,-0.195 0.9675,-0.2925 1.1525,-0.2925 l 0.43,0 0,28.906248 -36.0738,0 0,-21.562498 1.2888,0 c 6.235,0 14.2862,-1.00625 24.16,-3.0275 l 3.3012,-0.56625 1.015,-0.86 c 1.6263,-1.3375 3.2025,-2.20625 4.7263,-2.5975 z m -38.3788,164.882498 -10.7812,-5.46875 -7.3238,0 c -4.8825,0 -7.325,0.0537 -7.325,0.15625 1.6263,4.405 3.4425,9.23875 5.45,14.5125 l 5.3313,14.375 7.325,7.48 7.3237,7.32375 18.3988,0 0,-25.585 -3.7313,-3.73125 -3.73,-3.75 -10.9375,-5.3125 z m 54.6288,-9.0625 -7.1875,-3.59375 -21.9913,0 0,10.9375 9.0625,9.2 9.1988,9.19875 0.5662,1.5825 c 1.6262,4.11625 2.5825,7.85125 2.8713,11.21 l 0,1.71875 22.1487,0 0,-36.66 -7.4812,0 -7.1875,-3.59375 z m -101.777504,28.18375 0,-31.7775 -21.835,0 0,2.305 c -0.3038,6.32875 -1.0263,12.84625 -2.1688,19.55125 -0.8587,4.50625 -1.3862,6.9525 -1.5812,7.34375 -0.665,1.3425 -2.0075,3.0175 -4.0238,5.01875 -2.2025,2.305 -4.2575,3.60375 -6.1725,3.8875 l -0.585,0.13625 0,34.51125 25.4488,0 5.4687,-4.60875 5.4488,-4.45375 0,-31.91375 z m 133.691204,-37.94875 -3.0262,-1.1525 -7.1875,0 0,10.9175 9.0625,9.2 9.1987,9.0625 0.86,2.30375 c 1.7275,4.3125 2.5975,8.19375 2.5975,11.64125 l 0,0.7225 29.3163,0 0,-27.46125 c -0.092,0 -0.3326,0.0975 -0.7225,0.29375 -0.9525,0.4825 -1.9538,0.4825 -3.0088,0 -0.4825,-0.19625 -0.8687,-0.5325 -1.1525,-1.01625 -1.0537,-1.3375 -1.7712,-2.68 -2.1475,-4.02375 -0.195,-0.4775 -0.3475,-0.7225 -0.45,-0.7225 -0.092,0 -0.3075,-0.0437 -0.6437,-0.13625 -0.3275,-0.0875 -0.7813,-0.205 -1.3675,-0.35125 -0.5763,-0.1425 -1.0938,-0.26375 -1.5625,-0.37125 -11.4063,-2.57875 -21.3288,-5.5475 -29.7663,-8.90625 z M 266.0854,54.367272 c -0.9513,-0.57125 -1.9825,-1.1625 -3.0863,-1.7775 -1.0925,-0.625 -1.9812,-1.08375 -2.655,-1.38625 l -0.86,-0.56625 c -0.5762,0 -1.3425,0.24375 -2.305,0.7225 -0.092,0.0925 -0.3512,0.33125 -0.7812,0.7225 -0.4288,0.38125 -0.795,0.7125 -1.0938,0.99625 l -1.2887,1.28875 -32.48,3.59375 -32.5,3.59375 -21.8363,3.59375 -21.855,3.59375 -0.86,1.1525 c -0.9662,1.25 -1.9725,2.065 -3.0275,2.44125 -0.3812,0.1075 -0.6637,0.0588 -0.8587,-0.13625 -0.8601,-0.86 -2.0075,-2.6275 -3.4375,-5.3125 l -1.0163,-1.73875 -20.1175,0 0,63.983748 c 0,42.6475 -0.098,64.21 -0.2925,64.6875 -0.5762,2.0075 -2.2563,4.405 -5.0388,7.1875 l -2.0124,2.14875 0,3.59375 0.5862,0 c 2.0025,0.48375 4.0138,2.53875 6.035,6.1725 l 0.7225,1.445 0,10.9175 c 0.089,0 18.2475,-4.49625 54.4725,-13.49625 l 32.9112,-8.2025 83.535,0 5.1751,6.3275 c 0.7525,0.86 1.5874,1.87125 2.5,3.0275 0.9087,1.1475 1.6075,2.0075 2.09,2.57875 l 0.7225,0.85875 c 0.1962,0.28875 0.2399,1.01125 0.1374,2.16875 -0.5762,6.1325 -2.0124,11.21 -4.3162,15.23375 -0.9525,1.71875 -1.7675,3.6825 -2.4425,5.87875 l -0.2725,1.30875 -0.1563,21.27 0,21.26875 -5.4499,10.9375 -5.4688,10.78125 -1.445,1.42625 c -2.49,2.305 -4.9312,4.03375 -7.3237,5.17625 -1.1475,0.39 -2.92,0.2925 -5.3125,-0.29375 -5.1863,-1.5225 -10.9375,-3.535 -17.2663,-6.035 l -1.1325,-0.43 -7.48,0 0,18.2625 9.0625,9.0625 c 5.9375,5.85 9.145,9.19875 9.6288,10.05875 2.1087,4.79 3.1637,9.00875 3.1637,12.65625 l 0,0.99625 10.0588,0 c 6.7037,0 10.0587,-0.0487 10.0587,-0.1375 0,-0.39 0.5275,-1.30375 1.5813,-2.73375 1.4312,-1.915 5.2637,-5.99125 11.5037,-12.2275 l 6.895,-6.89375 3.5938,-10.91875 3.7312,-10.9375 3.5925,-7.32375 c 2.5,-4.8825 3.795,-7.66125 3.8875,-8.34 1.7288,-10.635 6.3325,-34.73625 13.8088,-72.305 l 4.16,-20.83875 0,-14.805 -14.6688,0 -13.3587,-3.59375 -13.5163,-3.59375 -12.2262,0 -2.4413,0.56625 c -0.2875,0.0925 -1.2012,0.3325 -2.7337,0.7225 -1.5238,0.38125 -3.4375,0.835 -5.7425,1.3675 -2.305,0.5225 -4.4625,1.025 -6.465,1.50375 l -12.5,3.0275 -39.8238,0 0,-21.5625 21.6988,-3.59375 21.855,-3.59375 21.7,0 0,-14.66875 -1.4263,-0.2925 c -2.7875,-0.66375 -8.35,-2.52875 -16.68,-5.605 l -3.73,-1.42625 -14.9612,0 -1.4251,0.27375 c -4.7949,1.5375 -10.1125,3.4075 -15.9575,5.605 l -3.8862,1.445 -7.1875,0 0,-7.1875 c 0,-4.79 0.044,-7.1875 0.1362,-7.1875 1.445,0 3.6963,-0.23875 6.7575,-0.7225 6.1338,-0.94625 14.9463,-2.62125 26.4463,-5.01875 l 6.4837,-1.44625 18.2425,0 0,-11.21 -5.45,-5.46875 -5.605,-5.46875 -32.6362,0 -2.1687,1.58125 c -0.4688,0.30375 -1.3763,0.90875 -2.715,1.81625 -1.3426,0.89875 -2.2063,1.495 -2.5975,1.7775 l -3.3001,2.0125 -3.5937,0 0,-28.749998 39.8237,0 10.9175,-3.73125 10.9188,-3.59375 10.9375,0 0,-14.6675 -10.9375,0 -6.3288,-3.59375 z M 201.8479,0.03102234 c 1.3375,-0.0875 5.605,0.01 12.7925,0.29375 21.3675,1.14749996 41.5825,5.31249996 60.645,12.49999966 15.1412,5.66375 29.8087,13.47625 44.0037,23.4375 18.7738,13.32 35.4487,29.52125 50.0188,48.59375 23.0962,30.663748 35.9375,65.263748 38.5162,103.788748 2.2113,31.81125 -2.1975,61.3225 -13.2225,88.535 -9.1025,22.905 -22.8075,44.375 -41.1137,64.41375 -12.1625,13.40875 -26.2013,25.195 -42.1088,35.35125 -27.8037,17.93 -57.945,28.2325 -90.43,30.91875 -15.3275,1.235 -30.0787,0.89875 -44.2575,-1.01625 -38.4375,-4.8825 -72.6562,-20.26375 -102.656204,-46.1325 -18.1163,-15.625 -32.9638,-32.8325 -44.5513,-51.62125 -17.06,-27.305 -26.6900002,-57.485 -28.88620019,-90.54625 -1.5388,-21.1825 -0.1075,-41.40625 4.29619999,-60.665 7.2900002,-32.5875 22.7738002,-62.011248 46.4450002,-88.261248 1.5238,-1.72875 4.5363,-4.84875 9.0438,-9.355 4.5012,-4.5025 7.6212,-7.525 9.355,-9.0625 22.9937,-20.9775 48.383704,-35.39625 76.172504,-43.2624997 16.5862,-4.8825 35.2337,-7.51874996 55.9375,-7.90999996 z"
     inkscape:connector-curvature="0" /></svg>