<?xml version="1.0" encoding="UTF-8" standalone="no"?>
<!-- Created with Inkscape (http://www.inkscape.org/) -->

<svg
   xmlns:dc="http://purl.org/dc/elements/1.1/"
   xmlns:cc="http://creativecommons.org/ns#"
   xmlns:rdf="http://www.w3.org/1999/02/22-rdf-syntax-ns#"
   xmlns:svg="http://www.w3.org/2000/svg"
   xmlns="http://www.w3.org/2000/svg"
   xmlns:sodipodi="http://sodipodi.sourceforge.net/DTD/sodipodi-0.dtd"
   xmlns:inkscape="http://www.inkscape.org/namespaces/inkscape"
   version="1.1"
   width="406.40924"
   height="406.60645"
   id="svg2"
   xml:space="preserve"
   inkscape:version="0.48.4 r9939"
   sodipodi:docname="black_advisor.svg"><sodipodi:namedview
     pagecolor="#ffffff"
     bordercolor="#666666"
     borderopacity="1"
     objecttolerance="10"
     gridtolerance="10"
     guidetolerance="10"
     inkscape:pageopacity="0"
     inkscape:pageshadow="2"
     inkscape:window-width="1920"
     inkscape:window-height="1024"
     id="namedview9"
     showgrid="false"
     inkscape:zoom="0.42213375"
     inkscape:cx="391.07439"
     inkscape:cy="164.31051"
     inkscape:window-x="0"
     inkscape:window-y="0"
     inkscape:window-maximized="1"
     inkscape:current-layer="svg2"
     fit-margin-top="0"
     fit-margin-left="0"
     fit-margin-right="0"
     fit-margin-bottom="0" /><metadata
     id="metadata8"><rdf:RDF><cc:Work
         rdf:about=""><dc:format>image/svg+xml</dc:format><dc:type
           rdf:resource="http://purl.org/dc/dcmitype/StillImage" /><dc:title /></cc:Work></rdf:RDF></metadata><defs
     id="defs6" /><path
     sodipodi:type="arc"
     style="opacity:1;color:#000000;fill:#ffffff;fill-opacity:1;fill-rule:nonzero;stroke:none;stroke-width:1;stroke-linecap:round;stroke-linejoin:miter;stroke-miterlimit:4;stroke-opacity:1;stroke-dasharray:none;stroke-dashoffset:0;marker:none;visibility:visible;display:inline;overflow:visible;enable-background:accumulate"
     id="path2982"
     sodipodi:cx="197.80461"
     sodipodi:cy="196.95726"
     sodipodi:rx="197.80461"
     sodipodi:ry="197.80461"
     d="m 395.60922,196.95726 a 197.80461,197.80461 0 1 1 -395.60922,0 197.80461,197.80461 0 1 1 395.60922,0 z"
     transform="translate(5.4000092,6.3459625)" /><path
     id="path3017"
     style="fill:#000000;fill-opacity:1;fill-rule:nonzero;stroke:none"
     d="m 197.2262,59.200066 -1.4262,-1.445 -18.125,0 -5.4488,6.89375 -5.4687,6.7575 0.86,1.1525 c 0.1025,0.0937 0.5125,0.62 1.23,1.5825 0.7125,0.96625 1.6212,2.1875 2.715,3.67125 1.1037,1.485 2.1875,2.90125 3.2425,4.23875 l 6.4637,8.47625 0,98.183754 -29.0225,0 c -19.7412,0 -30.0937,0.0488 -31.055,0.1375 -5.7575,0.4825 -11.6987,1.49375 -17.8325,3.02625 -2.295,0.48375 -7.3725,1.10875 -15.2337,1.875 -13.8038,1.34375 -24.585,2.06125 -32.3438,2.14875 l -5.3125,0 0,11.075 9.1988,9.0425 9.2,9.19875 25.2925,0 21.855,-5.44875 c 14.4637,-3.6425 22.5637,-5.80125 24.2975,-6.465 1.8212,-0.76625 4.2187,-1.5325 7.1875,-2.305 0.6637,-0.1025 6.5087,-0.2 17.5387,-0.2925 l 16.23,0 0,87.10875 -1.425,0 c -5.2737,0.39125 -23.2425,2.4025 -53.9063,6.03625 l -9.4924,1.15125 -11.2113,0 c -7.3825,0 -11.0738,0.0538 -11.0738,0.15625 0,0.38125 0.7226,1.71875 2.1675,4.02375 2.0025,3.4525 3.6775,5.70375 5.02,6.7575 0.2838,0.28875 4.1213,2.15875 11.5038,5.60625 l 11.2112,5.44875 14.0813,0 7.3438,-1.1525 c 12.9299,-2.19625 22.5587,-3.96875 28.8874,-5.3125 3.2513,-0.66375 5.6488,-1.045 7.1875,-1.1525 9.3851,-1.05375 17.485,-2.34375 24.2963,-3.86625 4.3075,-1.055 9.2875,-1.96375 14.9412,-2.735 1.25,-0.1025 15.625,-0.2 43.125,-0.2925 l 40.9776,0 0,-21.9925 -4.0238,0 -3.8863,-0.13625 -2.4425,-0.7225 c -4.7937,-1.62625 -8.7687,-3.4475 -11.9325,-5.46875 l -1.29,-0.86 -13.9449,0 -9.0625,2.01125 c -10.7326,2.3975 -17.3926,3.92625 -19.98,4.59 l -2.4413,0.58625 -25.45,0 0,-79.785 7.0512,0 7.3238,-3.73 7.3437,-3.59375 123.6138,0 0,-21.9925 -0.86,0 c -3.3488,0 -7.4163,-0.9625 -12.2062,-2.89125 l -1.4463,-0.7025 -5.8975,-5.46875 -5.8788,-5.46875 -2.5987,0 c -6.3275,0.2875 -12.9875,1.3425 -19.98,3.16375 -12.9438,3.16375 -30.195,6.71375 -51.7575,10.645 l -4.59,0.7225 -40.1175,0 0,-32.07 c 0.1025,-21.455 0.2,-32.4275 0.2937,-32.91125 0.6738,-2.485 1.63,-4.73625 2.87,-6.7575 0.4788,-0.96125 2.4463,-6.09375 5.8988,-15.390004 l 5.4687,-14.5125 0,-7.48 -0.7224,0 c -1.0551,0 -2.7338,-0.185 -5.0388,-0.56625 -7.3737,-1.43125 -14.7025,-5.59625 -21.9925,-12.5 z m -2.715,-59.08249988 c 5.65,-0.195 12.4025,-0.14625 20.2538,0.1375 11.0262,0.67875 21.0937,1.97249998 30.1962,3.88624998 26.3525,5.27375 50.8838,16.0062499 73.5938,32.1874999 16.1025,11.51375 30.4775,24.98 43.125,40.41 26.7424,32.773754 41.455,69.912504 44.14,111.406254 0.9475,12.93 0.7525,25.24375 -0.5863,36.93375 -0.8587,10.15625 -2.6312,20.17125 -5.3125,30.03875 -8.1537,31.25 -23.725,59.4725 -46.7187,84.66875 -5.2725,5.94625 -11.65,12.13375 -19.1213,18.55375 -33.74,28.94625 -72.4012,44.84875 -115.995,47.715 -19.2725,1.33875 -37.8662,0.24 -55.7812,-3.3 -33.545,-6.61625 -63.78,-21.66125 -90.7038,-45.1375 -8.35,-7.28 -16.3037,-15.3225 -23.8675,-24.14 C 19.4625,300.40632 3.75,262.69132 0.5862,220.33257 0.195,216.22132 0,210.51882 0,203.22382 c 0,-7.1875 0.195,-12.88125 0.5862,-17.09 3.1638,-42.745 18.8763,-80.36125 47.1475,-112.852504 7.7588,-8.8125 15.615,-16.71875 23.575,-23.71 18.6813,-16.7675 39.0475,-29.185 61.0938,-37.24625 18.7887,-7.0799999 39.4912,-11.1524999 62.1087,-12.20749988 z"
     inkscape:connector-curvature="0" /></svg>