<?xml version="1.0" encoding="UTF-8" standalone="no"?>
<!-- Created with Inkscape (http://www.inkscape.org/) -->

<svg
   xmlns:dc="http://purl.org/dc/elements/1.1/"
   xmlns:cc="http://creativecommons.org/ns#"
   xmlns:rdf="http://www.w3.org/1999/02/22-rdf-syntax-ns#"
   xmlns:svg="http://www.w3.org/2000/svg"
   xmlns="http://www.w3.org/2000/svg"
   xmlns:sodipodi="http://sodipodi.sourceforge.net/DTD/sodipodi-0.dtd"
   xmlns:inkscape="http://www.inkscape.org/namespaces/inkscape"
   version="1.1"
   width="408.20135"
   height="408.49631"
   id="svg2"
   xml:space="preserve"
   inkscape:version="0.48.4 r9939"
   sodipodi:docname="black_chariot.svg"><sodipodi:namedview
     pagecolor="#ffffff"
     bordercolor="#666666"
     borderopacity="1"
     objecttolerance="10"
     gridtolerance="10"
     guidetolerance="10"
     inkscape:pageopacity="0"
     inkscape:pageshadow="2"
     inkscape:window-width="1920"
     inkscape:window-height="1024"
     id="namedview9"
     showgrid="false"
     fit-margin-top="0"
     fit-margin-left="0"
     fit-margin-right="0"
     fit-margin-bottom="0"
     inkscape:zoom="0.84426752"
     inkscape:cx="268.49797"
     inkscape:cy="212.60134"
     inkscape:window-x="0"
     inkscape:window-y="0"
     inkscape:window-maximized="1"
     inkscape:current-layer="svg2" /><metadata
     id="metadata8"><rdf:RDF><cc:Work
         rdf:about=""><dc:format>image/svg+xml</dc:format><dc:type
           rdf:resource="http://purl.org/dc/dcmitype/StillImage" /><dc:title /></cc:Work></rdf:RDF></metadata><defs
     id="defs6" /><path
     sodipodi:type="arc"
     style="color:#000000;fill:#ffffff;fill-opacity:1;fill-rule:nonzero;stroke:none;stroke-width:1;marker:none;visibility:visible;display:inline;overflow:visible;enable-background:accumulate"
     id="path2982"
     sodipodi:cx="197.80461"
     sodipodi:cy="196.95726"
     sodipodi:rx="197.80461"
     sodipodi:ry="197.80461"
     d="m 395.60922,196.95726 a 197.80461,197.80461 0 1 1 -395.60922,0 197.80461,197.80461 0 1 1 395.60922,0 z"
     transform="translate(6.2960663,7.2908936)" /><path
     id="path3051"
     style="fill:#000000;fill-opacity:1;fill-rule:nonzero;stroke:none"
     d="m 145.29134,199.63007 0,-10.78125 43.26125,0 0,21.5625 -43.26125,0 0,-10.78125 z m 65.41,-7.1875 0,-10.78125 43.26125,0 0,10.78125 -4.4525,5.46875 -4.45375,5.3125 -34.355,0 0,-10.78125 z m -72.735,-40.82125 0,-6.3275 50.58625,0 0,21.71875 -39.6675,0 -5.46875,-4.61 -5.45,-4.4525 0,-6.32875 z m 103.49625,-13.35875 c 0.0888,-0.1025 3.4425,-0.15625 10.05875,-0.15625 l 9.785,0 0,28.75 -0.7225,0 c -1.82625,-0.28375 -3.60375,-1.1425 -5.3325,-2.57875 l -1.1325,-0.85875 0,-3.75 -43.4175,0 0,-14.375 2.5775,-0.1375 c 4.415,-0.2825 9.6875,-1.19625 15.82125,-2.73375 1.3375,-0.28375 2.5825,-0.615 3.73,-0.99625 1.3375,-0.96125 2.87625,-1.72875 4.60875,-2.305 2.0025,-0.4775 3.345,-0.76625 4.02375,-0.85875 z m -30.76125,-84.101254 0,-18.10625 -36.66,0 0.13625,0.70375 c 0.195,1.92875 1.10375,3.89625 2.735,5.8975 l 0.85875,0.72375 3.59375,14.6675 c 2.3925,9.765 3.735,14.8 4.02375,15.0975 1.64,1.43625 2.64625,3.20375 3.0275,5.3125 0.195,0.77125 0.0975,1.20125 -0.29375,1.28875 -0.2875,0 -1.3425,0 -3.16375,0 l -3.59375,0 -7.1875,3.59375 -7.32375,3.73125 -50.87875,0 0,14.667504 1.28875,0.2925 c 1.82125,0.48375 7.3825,2.305 16.68,5.46875 l 3.86625,1.42625 4.02375,0 c 2.78375,0 4.805,-0.14125 6.055,-0.43 4.02375,-0.66375 12.11375,-2.485 24.2775,-5.46875 l 5.605,-1.28875 10.78125,0 0,28.75 -79.92125,0 0,10.9375 1.15125,3.0075 c 7.27625,19.9375 12.79375,40.78125 16.54375,62.54 l 1.28875,6.89375 c 1.91375,7.95875 2.87125,13.76 2.87125,17.4025 l 0,1.28875 58.06625,0 0,21.5625 -116.132497,0 -7.34375,3.59375 -7.325,3.73125 -7.1875,0 0,14.6675 1.71875,0 c 2.87625,0.0925 5.99625,0.81125 9.35625,2.14875 0.46875,0.195 0.77125,0.3225 0.9175,0.37125 0.1425,0.0387 0.38125,0.13125 0.7225,0.2725 0.3375,0.1475 0.57625,0.26875 0.7225,0.37125 0.1425,0.0937 0.3325,0.19125 0.5675,0.29375 0.24375,0.0925 0.4875,0.23375 0.7225,0.42875 0.24375,0.18625 0.45875,0.3475 0.64375,0.48875 0.19625,0.14625 0.47875,0.41 0.86,0.80125 0.39,0.38 0.7025,0.7125 0.9375,0.99625 0.24375,0.2875 0.67375,0.74125 1.28875,1.36625 0.625,0.625 1.1775,1.13375 1.66,1.52375 l 5.3325,5.44875 5.605,0 8.47625,-3.3 c 12.173747,-4.985 18.306247,-7.48125 18.398747,-7.48125 0.28375,-0.2825 1.09875,-0.7125 2.44125,-1.28875 0.9625,-0.57125 2.06125,-1.055 3.30125,-1.445 1.53375,-0.46875 3.69125,-0.7475 6.465,-0.84 2.7825,-0.1025 13.715,-0.15625 32.7925,-0.15625 l 35.05875,0 0,94.59 14.805,0 0,-80.07875 3.75,-7.32375 3.59375,-7.32375 0,-7.1875 61.52375,0 8.6325,-3.59375 8.47625,-3.59375 6.465,0 0.99625,0.7025 c 2.87625,1.82625 6.52375,3.6475 10.9375,5.46875 l 2.44125,1.01625 45.7025,0 0,-18.2625 -3.73,-3.75 -3.73,-3.73 -10.645,-5.3125 -10.645,-5.3325 -2.285,0 c -5.75625,0.30375 -11.60125,1.30875 -17.53875,3.0275 -6.42125,1.71875 -17.925,3.68625 -34.51125,5.89875 -6.03,0.85875 -11.39625,1.435 -16.09375,1.71875 -1.53875,0.0925 -3.50625,0.38125 -5.89875,0.85875 -8.6225,2.0225 -14.0825,3.0275 -16.38625,3.0275 l -23.71125,0 0,-21.5625 25.15625,0 2.01125,0.99625 c 4.02375,1.92875 9.4825,3.8475 16.3875,5.7625 l 1.58125,0.42875 10.91875,0 0,-0.2925 c 0.1025,-0.0875 0.15625,-0.37625 0.15625,-0.86 0.2825,-1.7275 1.67,-3.5 4.16,-5.3125 l 1.28875,-0.87875 3.59375,-11.05375 3.59375,-11.075 0.15625,-3.45625 c 0.66375,-17.34375 5.16125,-32.14875 13.49625,-44.415 2.695,-4.0225 5.85875,-7.85625 9.4925,-11.50375 l 2.30375,-2.285 0,-7.63625 -0.42875,-0.86 c -1.1475,-2.29 -5.17125,-5.25875 -12.07125,-8.90625 -4.50625,-2.3925 -9.63875,-4.8875 -15.39,-7.48 l -1.28875,-0.56625 -11.64125,0 -11.50375,0.13625 -3.16375,0.58625 c -7.47625,1.63125 -15.3325,3.39875 -23.575,5.3125 l -4.4525,1.1525 -10.78125,0 0,-17.96875 4.4525,-5.468754 4.61,-5.3125 63.37875,0 0,-21.9925 -72.44125,0 0,-18.26125 z M 194.74384,0.11756612 c 5.65,-0.195 12.35375,-0.14625 20.1175,0.1375 18.59375,1.14749998 35.98625,4.35499998 52.1875,9.62874998 29.32125,9.5849999 56.00625,26.2599999 80.05875,50.0187499 36.61125,36.045 56.7875,78.262504 60.5275,126.660004 0.37625,3.92125 0.56625,9.5275 0.56625,16.8175 0,6.99125 -0.19,12.5 -0.56625,16.5225 -0.86,11.9825 -2.6325,23.10125 -5.3125,33.36 -8.35,32.67125 -24.9325,62.42125 -49.74625,89.2575 -9.39,10.15625 -20.36125,19.79 -32.91,28.90625 -6.905,4.6875 -12.55875,8.28125 -16.9725,10.78125 -30.46875,17.525 -63.62875,26.28875 -99.47375,26.28875 -40.15625,0 -76.38125,-10.7325 -108.671247,-32.1875 -7.3825,-5.0775 -14.23875,-10.3025 -20.56625,-15.66375 -10.15625,-8.725 -19.16,-17.87625 -27.0125,-27.46125 -28.085,-33.54 -43.5637498,-71.82625 -46.42499977,-114.8625 -0.77125,-11.01625 -0.7225,-21.74375 0.13625,-32.1875 C 4.0263432,142.71007 20.222593,104.56632 49.275093,71.700066 c 8.33,-9.385 16.86125,-17.77375 25.58625,-25.15625 7.65625,-6.52375 15.1275,-12.08 22.42125,-16.68 28.749997,-18.305 61.236247,-28.2224999 97.461247,-29.74624988 z"
     inkscape:connector-curvature="0" /></svg>