<?xml version="1.0" encoding="UTF-8" standalone="no"?>
<!-- Created with Inkscape (http://www.inkscape.org/) -->

<svg
   xmlns:dc="http://purl.org/dc/elements/1.1/"
   xmlns:cc="http://creativecommons.org/ns#"
   xmlns:rdf="http://www.w3.org/1999/02/22-rdf-syntax-ns#"
   xmlns:svg="http://www.w3.org/2000/svg"
   xmlns="http://www.w3.org/2000/svg"
   xmlns:sodipodi="http://sodipodi.sourceforge.net/DTD/sodipodi-0.dtd"
   xmlns:inkscape="http://www.inkscape.org/namespaces/inkscape"
   version="1.1"
   width="408.32034"
   height="408.53659"
   id="svg2"
   xml:space="preserve"
   inkscape:version="0.48.4 r9939"
   sodipodi:docname="red_king.svg"><sodipodi:namedview
     pagecolor="#ffffff"
     bordercolor="#666666"
     borderopacity="1"
     objecttolerance="10"
     gridtolerance="10"
     guidetolerance="10"
     inkscape:pageopacity="0"
     inkscape:pageshadow="2"
     inkscape:window-width="1920"
     inkscape:window-height="1024"
     id="namedview9"
     showgrid="false"
     inkscape:zoom="0.42213375"
     inkscape:cx="285.62261"
     inkscape:cy="168.00344"
     inkscape:window-x="0"
     inkscape:window-y="0"
     inkscape:window-maximized="1"
     inkscape:current-layer="svg2"
     fit-margin-top="0"
     fit-margin-left="0"
     fit-margin-right="0"
     fit-margin-bottom="0" /><metadata
     id="metadata8"><rdf:RDF><cc:Work
         rdf:about=""><dc:format>image/svg+xml</dc:format><dc:type
           rdf:resource="http://purl.org/dc/dcmitype/StillImage" /><dc:title /></cc:Work></rdf:RDF></metadata><defs
     id="defs6" /><path
     sodipodi:type="arc"
     style="color:#000000;fill:#ffffff;fill-opacity:1;fill-rule:nonzero;stroke:none;stroke-width:1;marker:none;visibility:visible;display:inline;overflow:visible;enable-background:accumulate"
     id="path2982"
     sodipodi:cx="197.80461"
     sodipodi:cy="196.95726"
     sodipodi:rx="197.80461"
     sodipodi:ry="197.80461"
     d="m 395.60922,196.95726 a 197.80461,197.80461 0 1 1 -395.60922,0 197.80461,197.80461 0 1 1 395.60922,0 z"
     transform="translate(6.3555603,7.3110352)" /><path
     id="path3096"
     style="fill:#000000;fill-opacity:1;fill-rule:nonzero;stroke:none"
     d="m 154.38898,237.05278 c -1.3425,-0.37625 -3.5938,-0.37625 -6.7575,0 -2.3975,0.0925 -5.4638,0.57625 -9.2,1.445 -6.045,1.24 -14.2375,2.3825 -24.59,3.4375 -0.8588,0.1075 -1.9863,0.1325 -3.3788,0.0788 -1.3812,-0.0488 -2.3625,-0.1225 -2.9487,-0.215 l -0.43,0 0,1.1525 c -0.092,0.4825 -0.2338,2.63625 -0.43,6.46375 -0.38,11.5925 -0.8538,20.60125 -1.425,27.03125 l 0,1.29 0.8587,0 c 0.2838,-0.1025 1.5288,-0.245 3.7313,-0.43 9.6725,-0.67375 19.4525,-1.72875 29.335,-3.16375 2.4862,-0.28375 4.6875,-0.66875 6.6025,-1.1525 0.4787,-0.0875 1.0537,-0.235 1.7187,-0.43 0.6738,-0.195 1.3713,-0.36125 2.09,-0.5075 0.7125,-0.14125 1.1713,-0.25875 1.3663,-0.35125 1.6262,-0.19625 2.4412,-0.39125 2.4412,-0.58625 0.1963,-0.37625 0.675,-5.5525 1.4463,-15.5275 0.088,-0.9475 0.205,-2.2125 0.3512,-3.78875 0.1413,-1.5875 0.215,-2.525 0.215,-2.8125 0,-0.28375 0.024,-0.7625 0.077,-1.42625 0.049,-0.67375 0.097,-1.51375 0.1375,-2.52 0.049,-1.015 0.077,-1.855 0.077,-2.51875 0,-3.07125 -0.097,-4.7075 -0.2925,-4.9025 -0.1862,-0.37625 -0.5175,-0.56625 -0.9962,-0.56625 z m 0,-77.77375 c -0.5763,-0.2825 -2.2075,-0.3325 -4.9025,-0.13625 l -2.715,0.13625 c -1.8263,0 -3.4075,0 -4.7463,0 l -6.035,0.15625 -6.6212,1.1325 c -9.6776,1.53875 -15.7125,2.305 -18.105,2.305 l -2.0113,0 0,0.58625 -0.2937,10.35125 c -0.195,7.085 -0.2925,12.63625 -0.2925,16.66 l -0.1375,7.1875 c 2.305,-0.18 4.3175,-0.37125 6.0362,-0.56625 6.22,-0.76625 13.6963,-2.25125 22.4213,-4.4525 3.0712,-0.87 6.9537,-1.73875 11.6412,-2.59875 1.25,-0.18 1.9725,-0.32125 2.1675,-0.42875 0.088,0 0.4738,-1.29375 1.1525,-3.8875 1.43,-6.415 2.3338,-11.3525 2.715,-14.80375 0.195,-2.96875 0.4338,-5.36125 0.7225,-7.1875 0.195,-2.29 0.195,-3.58 0,-3.8675 -0.1862,-0.195 -0.5175,-0.39125 -0.9962,-0.58625 z m -24.4338,-74.316251 c 0.2838,-0.0875 0.8788,-0.1075 1.7775,-0.0588 0.9075,0.0387 1.66,0.1075 2.2463,0.195 2.4849,0.48375 5.9375,1.68 10.3512,3.59375 1.6263,0.58625 3.345,1.5 5.1563,2.735 3.8375,2.5 6.1912,4.6575 7.0512,6.465 0.2825,0.585 0.4288,1.16625 0.4288,1.7375 0,0.576251 -0.1901,1.290001 -0.5663,2.148751 -0.6787,1.53875 -1.8312,2.69 -3.4562,3.4575 -1.915,1.05375 -4.0725,3.16375 -6.465,6.3275 -2.11,2.96875 -3.6913,5.26875 -4.7463,6.895 -0.3812,0.77125 -2.4362,3.31 -6.1725,7.6175 -4.4137,5.17 -11.2687,12.695 -20.5662,22.5775 -2.3975,2.49 -4.17,4.11625 -5.3125,4.8825 l -1.445,0.99625 c 0,0.1075 0.1412,0.1075 0.43,0 0.1025,0 1.6837,-0.185 4.7462,-0.56625 8.6325,-0.96125 15.1463,-1.9725 19.55,-3.0275 7.2763,-1.52375 14.7512,-4.00875 22.4225,-7.46125 2.5875,-1.25 4.2675,-1.875 5.0388,-1.875 2.7737,0 8.135,1.72875 16.0937,5.17625 5.7525,2.5925 8.775,5.23 9.0625,7.91 0.195,2.2025 -1.2012,4.83375 -4.18,7.89125 -1.5225,1.64 -2.8125,3.4175 -3.8662,5.33125 -1.8263,3.0625 -3.2188,5.98625 -4.18,8.77 -4.405,11.875 -6.5138,17.8125 -6.3288,17.8125 0.1025,0 0.5125,0.34125 1.2313,1.015 0.7125,0.665 1.1712,1.1925 1.3662,1.5825 0.665,1.055 0.9963,2.2075 0.9963,3.4575 0,1.3425 -0.38,2.20125 -1.1325,2.5775 -0.39,0.195 -1.8313,0.29375 -4.3163,0.29375 -3.935,0 -8.6325,0.14625 -14.1012,0.42875 -2.3975,0.38125 -7.2813,0.99625 -14.6488,1.85625 -1.7337,0.3025 -3.8962,0.62 -6.485,0.95625 -2.5775,0.3275 -4.4912,0.58625 -5.7412,0.78125 -1.25,0.19625 -1.9688,0.29375 -2.1488,0.29375 -0.2887,0 -0.7225,0.0488 -1.3087,0.13625 -0.5763,0.0925 -1.27,0.19 -2.09,0.2925 -0.81,0.0937 -1.4988,0.18625 -2.07,0.27375 -2.2025,0.28875 -4.0725,0.43 -5.605,0.43 -0.2888,0 -0.6013,-0.02 -0.9375,-0.0588 -0.3425,-0.0488 -0.625,-0.0975 -0.86,-0.13625 -0.2338,-0.0488 -0.405,-0.0788 -0.5075,-0.0788 l -0.5663,0 -0.1562,6.465 c 0,1.055 -0.049,3.06625 -0.1375,6.035 -0.093,2.96875 -0.19,5.03 -0.2925,6.1725 0,0.96625 -0.029,1.92875 -0.079,2.89 -0.039,0.9525 -0.057,1.7675 -0.057,2.44125 l 0,0.86 c 0,0.195 0.1163,0.2925 0.3513,0.2925 0.2437,0 1.3275,-0.14125 3.2425,-0.43 4.4137,-0.76625 9.8287,-2.06 16.25,-3.88625 0.8587,-0.2825 2.8162,-0.85875 5.8787,-1.71875 8.6325,-2.10875 16.1563,-4.41375 22.5775,-6.91375 2.5875,-1.055 4.6975,-1.485 6.3288,-1.28875 2.875,0.38 7.8125,2.06 14.8037,5.03875 2.9688,1.3425 5.22,2.77375 6.7588,4.29625 2.0012,2.0225 2.3875,4.37 1.1525,7.05125 -1.25,2.2025 -2.305,3.8275 -3.165,4.8825 -2.5,2.68625 -4.37,6.23125 -5.605,10.645 -0.2888,0.85875 -0.9138,3.0175 -1.875,6.465 -0.9663,3.45125 -1.875,6.68875 -2.735,9.70625 -0.8588,3.0225 -1.3376,4.7225 -1.425,5.0975 l -0.43,1.5825 c 0.3762,0.1075 0.7525,0.24875 1.1325,0.43 3.6425,1.91375 5.4687,4.17 5.4687,6.7575 0,0.39125 -0.1463,0.635 -0.4287,0.7225 -0.5763,0.195 -5.03,0.44 -13.36,0.7225 -5.7563,0.19625 -13.6675,1.01125 -23.73,2.44125 -10.5375,1.53875 -15.9963,2.35375 -16.3875,2.4425 -3.545,0.57625 -6.7525,0.9125 -9.6288,1.015 -3.2562,0 -5.84,-0.14625 -7.7537,-0.44875 l -0.5863,0 -0.1362,1.015 c -0.2888,3.07625 -0.7225,5.56625 -1.3088,7.48125 -0.7562,2.20125 -1.5187,3.68625 -2.285,4.4525 -0.6787,0.77125 -1.69,1.1525 -3.0275,1.1525 -4.0237,-0.47875 -6.895,-2.305 -8.6137,-5.46875 -2.3975,-4.595 -3.9788,-9.0475 -4.745,-13.36 -0.7725,-3.55375 -0.9675,-5.66375 -0.5863,-6.3275 0.195,-0.39125 0.2925,-0.96625 0.2925,-1.73875 0.2838,-1.80625 0.5275,-3.0075 0.7225,-3.59375 0.9475,-3.44625 1.665,-6.3175 2.1488,-8.6125 2.1975,-10.92375 3.6375,-29.5175 4.3162,-55.78125 0.5713,-19.165 0.6688,-30.615 0.2938,-34.35625 -0.2888,-2.5875 -0.625,-4.8875 -1.0163,-6.89375 -1.3425,-6.23625 -3.355,-10.59625 -6.035,-13.08625 -0.6637,-0.9625 -1.0937,-1.5875 -1.2887,-1.875 -0.2888,-0.57125 -0.43,-1.24 -0.43,-2.01125 0.2837,-2.57875 1.7675,-4.0625 4.4525,-4.45375 2.8762,-0.47875 6.2312,-0.0488 10.0587,1.28875 1.6262,0.39125 3.54,1.26 5.7425,2.5975 0.4788,0.19625 4.0288,-6.17625 10.645,-19.12 4.79,-9.205 8.2413,-17.0175 10.3513,-23.4375 1.9137,-5.9375 3.0124,-11.113751 3.3012,-15.527501 0.1025,-1.915 0.2438,-3.0125 0.4288,-3.30125 0.4787,-1.3375 1.2987,-2.15375 2.4612,-2.44125 z m 115.1363,-7.1875 c 0.4787,-0.195 1.68,-0.2925 3.5937,-0.2925 2.7738,0.195 5.2638,0.53625 7.4813,1.015 3.6325,0.66375 7.0312,1.71875 10.195,3.16375 0.7662,0.28875 1.5825,0.47875 2.4412,0.56625 5.845,1.055 8.77,3.12125 8.77,6.1925 0.195,1.435 -0.3325,4.58875 -1.5825,9.4725 -1.435,4.218751 -2.4362,11.503751 -3.0075,21.855001 0,0.1075 -0.097,7.57875 -0.2925,22.4225 0,13.03625 0.097,19.55 0.2925,19.55 0.5713,0 1.6263,-0.14125 3.1638,-0.43 13.6962,-2.10875 23.8087,-4.12 30.3325,-6.035 1.055,-0.4775 2.68,-0.76625 4.8825,-0.85875 0.2837,-0.0875 1.3862,-0.235 3.3012,-0.43 2.0163,-0.0875 3.8863,0.195 5.605,0.86 2.11,0.77125 4.9075,2.1625 8.3988,4.17875 3.5012,2.0075 5.9224,3.585 7.265,4.7275 3.9312,3.35875 6.04,5.95125 6.3287,7.7725 0,1.53875 -0.8162,4.03375 -2.4412,7.48125 -0.665,1.1475 -1.0938,2.1475 -1.29,3.0075 -1.1475,3.74 -1.87,7.76375 -2.1675,12.07 0,0.57625 -0.1463,5.9475 -0.43,16.11375 -0.2875,10.15625 -0.4288,16.24 -0.4288,18.2425 -0.3812,13.99875 -2.6762,23.77875 -6.895,29.335 -3.4525,4.6 -6.5625,7.6125 -9.3362,9.04375 -1.25,0.67875 -2.7875,1.015 -4.6088,1.015 -1.7187,-0.0875 -3.2037,-0.43 -4.4537,-1.015 -0.6788,-0.28375 -2.1625,-1.81625 -4.4525,-4.59 -6.9925,-8.15 -12.7938,-13.755 -17.4025,-16.81625 -1.6313,-1.1425 -2.8276,-2.15375 -3.5938,-3.0275 -0.4838,-0.57125 -0.6737,-1.09875 -0.5662,-1.5825 0.088,-0.9475 0.4737,-1.80625 1.1525,-2.5775 l 0.5662,-0.43 0.8588,0.13625 c 1.3387,0.28875 2.9737,0.91375 4.9025,1.875 1.1425,0.57625 2.9149,1.1475 5.3125,1.71875 4.595,1.1475 7.7587,1.81625 9.4925,2.0125 0.8587,0.195 1.6212,-0.0438 2.285,-0.7225 1.055,-1.1425 1.7237,-3.30125 2.0112,-6.465 0.87,-7.66625 1.495,-17.1975 1.875,-28.59375 0.5713,-15.245 0.6688,-24.595 0.2938,-28.0475 -0.3913,-2.68 -0.875,-4.83375 -1.4463,-6.465 l -0.4287,-1.58125 -0.7225,-0.1375 c -2.4913,-0.4775 -5.215,-0.67375 -8.1838,-0.585 -5.3662,0.195 -12.8425,0.4875 -22.4225,0.87875 l -7.1875,0.13625 c 0,16.09375 -0.054,33.965 -0.1562,53.61375 0,7.3825 -0.029,16.27875 -0.077,26.67875 -0.04,10.39125 -0.089,18.125 -0.1375,23.20375 -0.039,5.0775 -0.059,8.04625 -0.059,8.90625 -0.3025,11.40625 -1.1662,21.9525 -2.5975,31.64 -0.093,0.665 -0.2337,1.71875 -0.4287,3.165 -0.1963,1.435 -0.2938,2.33875 -0.2938,2.715 -0.8587,10.54625 -2.5337,18.745 -5.0187,24.5887 -0.2888,0.7675 -0.87,1.7238 -1.7388,2.8713 -1.9137,2.3925 -3.4475,3.5937 -4.59,3.5937 -0.5762,0 -1.5325,-1.005 -2.8712,-3.0075 -1.25,-2.1087 -2.0213,-4.175 -2.305,-6.1912 -0.6788,-3.1638 -1.205,-7.85625 -1.5813,-14.0825 -0.195,-2.30375 -0.2937,-28.36875 -0.2937,-78.2025 l 0,-75.7625 -8.4763,1.875 -8.34,1.875 -4.4525,0 c -2.9687,0 -4.4537,0.0987 -4.4537,0.29375 0,0.185 -0.098,0.65875 -0.2925,1.425 -0.7713,2.305 -1.1525,5.42 -1.1525,9.33625 0,4.21875 -0.5275,12.2225 -1.5825,24.00375 -1.3425,15.91375 -3.1588,27.12875 -5.4488,33.6525 -0.5862,2.11 -1.64,4.2675 -3.1637,6.465 -1.055,1.71875 -2.1638,2.87125 -3.32,3.4575 -0.9525,0.46875 -2.0076,0.46875 -3.165,0 -1.435,-0.7675 -3.0075,-2.735 -4.7263,-5.89875 -2.8812,-5.07875 -4.56,-9.2475 -5.0387,-12.52 -0.3913,-1.91375 -0.2938,-3.8275 0.2925,-5.74125 0.3762,-1.25 0.9475,-2.545 1.7187,-3.8875 2.305,-3.91625 3.74,-7.7 4.3163,-11.3475 0,-0.0875 0.089,-0.47375 0.2737,-1.1525 0.195,-0.67375 0.3425,-1.20125 0.4488,-1.58125 1.4312,-4.595 2.1487,-10.3425 2.1487,-17.24625 0,-10.3525 -1.2988,-17.295 -3.8862,-20.84 -0.7713,-0.9625 -1.4413,-2.5975 -2.0125,-4.9025 -0.4825,-2.0025 -0.4825,-3.67625 0,-5.02 0.4787,-1.05375 1.3925,-1.82125 2.735,-2.30375 0.5712,-0.19625 1.67,-0.29375 3.3012,-0.29375 2.1088,0.28875 3.2125,0.43 3.32,0.43 2.29,0.39 4.59,1.30375 6.8938,2.73375 l 0.86,0.58625 8.34,-1.015 c 4.595,-0.57125 12.6412,-1.5725 24.14,-3.00875 l 0.7225,-0.15625 0,-20.2725 c 0,-16.7675 -0.1901,-26.875 -0.5663,-30.3125 -0.7713,-8.63375 -2.255,-15.870001 -4.4525,-21.718751 -0.5862,-1.53375 -1.025,-2.735 -1.3087,-3.59375 -0.1863,-0.57125 -0.6588,-1.62625 -1.4263,-3.165 l -0.8587,-1.71875 0,-1.015 c 0.2825,-2.77375 1.3862,-4.54125 3.3,-5.3125 z m -34.0625,-61.52375 c -7.5775,-0.2825 -14.8625,-0.14125 -21.855,0.43 -15.1463,0.96625 -29.9513,3.8425 -44.4138,8.6325 -25.21,8.335 -48.0225,22.27625 -68.4375,41.81625 -17.5387,16.485 -31.245,34.507501 -41.1137,54.062501 -13.2175,25.9675 -19.59,54.2875 -19.1213,84.96125 0.1025,6.9925 0.5375,13.41375 1.3088,19.2575 4.0237,36.71 18.6812,69.82 43.985,99.33625 7.1875,8.62375 15.2337,16.7675 24.14,24.4337 33.4475,28.8376 72.74,43.2613 117.8712,43.2613 48.11,0 90.235,-16.8162 126.3675,-50.4488 38.0463,-35.4537 58.6963,-76.9037 61.9525,-124.35495 2.0175,-27.2125 -1.3375,-52.79875 -10.0587,-76.75875 -9.1013,-25.1025 -24.1988,-48.051251 -45.2925,-68.847501 -35.9375,-35.36125 -77.715,-53.955 -125.3325,-55.78125 z m -16.25,-16.09374955 c 0.3762,0 1.5237,-0.0237 3.4375,-0.0775 1.9237,-0.0488 3.365,-0.0788 4.3175,-0.0788 50.415,-0.18 94.5937,16.06499955 132.5387,48.73124955 7.5775,6.5225 15.2438,14.0525 23.0075,22.5775 30.1813,34.023751 46.7575,73.076251 49.7263,117.148751 0.87,12.85125 0.6349,25.6975 -0.7025,38.535 -2.0213,18.39875 -6.5238,35.98625 -13.5163,52.75375 -9.2088,21.94375 -22.4363,42.4025 -39.6875,61.38625 -12.07,13.2137 -25.7762,24.8538 -41.1125,34.9226 -32.8662,21.65 -69.375,32.48 -109.5312,32.48 -21.7588,0 -42.5538,-3.2126 -62.3838,-9.6288 -25.405,-8.4275 -48.5487,-21.9337 -69.4325,-40.5276 -10.0687,-8.92 -19.2675,-18.5987 -27.5987,-29.04245 -25.8738,-32.1975 -40.2487997,-68.52 -43.12499974,-108.965 -2.02129996,-25.78125 0.235,-50.06875 6.75870004,-72.87125 C 15.71648,117.98523 31.00018,91.290229 53.33398,67.423979 c 4.8825,-5.16625 9.815,-10.1025 14.805,-14.805 10.82,-9.96125 22.0312,-18.4425 33.6325,-25.44875 27.7837,-16.7675 58.7887,-25.7724995 93.0075,-27.01249955 z"
     inkscape:connector-curvature="0" /></svg>