<?xml version="1.0" encoding="UTF-8" standalone="no"?>
<!-- Created with Inkscape (http://www.inkscape.org/) -->

<svg
   xmlns:dc="http://purl.org/dc/elements/1.1/"
   xmlns:cc="http://creativecommons.org/ns#"
   xmlns:rdf="http://www.w3.org/1999/02/22-rdf-syntax-ns#"
   xmlns:svg="http://www.w3.org/2000/svg"
   xmlns="http://www.w3.org/2000/svg"
   xmlns:sodipodi="http://sodipodi.sourceforge.net/DTD/sodipodi-0.dtd"
   xmlns:inkscape="http://www.inkscape.org/namespaces/inkscape"
   version="1.1"
   width="406.56708"
   height="406.62564"
   id="svg2"
   xml:space="preserve"
   inkscape:version="0.48.4 r9939"
   sodipodi:docname="red_horse.svg"><sodipodi:namedview
     pagecolor="#ffffff"
     bordercolor="#666666"
     borderopacity="1"
     objecttolerance="10"
     gridtolerance="10"
     guidetolerance="10"
     inkscape:pageopacity="0"
     inkscape:pageshadow="2"
     inkscape:window-width="1920"
     inkscape:window-height="1024"
     id="namedview9"
     showgrid="false"
     inkscape:zoom="0.59698729"
     inkscape:cx="410.34488"
     inkscape:cy="220.39693"
     inkscape:window-x="0"
     inkscape:window-y="0"
     inkscape:window-maximized="1"
     inkscape:current-layer="svg2"
     fit-margin-top="0"
     fit-margin-left="0"
     fit-margin-right="0"
     fit-margin-bottom="0" /><metadata
     id="metadata8"><rdf:RDF><cc:Work
         rdf:about=""><dc:format>image/svg+xml</dc:format><dc:type
           rdf:resource="http://purl.org/dc/dcmitype/StillImage" /><dc:title /></cc:Work></rdf:RDF></metadata><defs
     id="defs6" /><path
     sodipodi:type="arc"
     style="color:#000000;fill:#ffffff;fill-opacity:1;fill-rule:nonzero;stroke:none;stroke-width:1;marker:none;visibility:visible;display:inline;overflow:visible;enable-background:accumulate"
     id="path2982"
     sodipodi:cx="197.80461"
     sodipodi:cy="196.95726"
     sodipodi:rx="197.80461"
     sodipodi:ry="197.80461"
     d="m 395.60922,196.95726 a 197.80461,197.80461 0 1 1 -395.60922,0 197.80461,197.80461 0 1 1 395.60922,0 z"
     transform="translate(5.4789276,6.3555603)" /><path
     id="path3130"
     style="fill:#000000;fill-opacity:1;fill-rule:nonzero;stroke:none"
     d="m 127.25037,237.5631 c 1.7188,-0.86 4.7313,-0.185 9.0438,2.01125 1.625,0.67875 3.4025,1.40125 5.3312,2.16875 3.6326,1.1475 7.6563,2.72875 12.0701,4.74625 1.7187,0.85875 2.7737,1.57625 3.165,2.1475 1.625,1.915 2.8212,4.02375 3.5937,6.32875 1.43,4.31125 1.5713,8.29125 0.4288,11.93375 -0.8588,3.06125 -2.9688,5.02875 -6.3275,5.8975 -0.5763,0.18625 -1.7726,0.27375 -3.5938,0.27375 -2.3975,0 -4.2675,-0.33125 -5.605,-0.99625 -0.7725,-0.39 -1.485,-0.96625 -2.1488,-1.7375 -3.74,-4.11125 -8.2962,-11.10375 -13.6725,-20.9775 -1.1475,-2.01625 -2.1975,-3.8375 -3.1437,-5.46875 -0.7725,-1.235 -1.1088,-2.09375 -1.0163,-2.5775 0.2838,-2.01625 0.9088,-3.26625 1.875,-3.75 z m 52.4613,-5.44875 c 1.43,-0.87 4.6388,-0.0588 9.6288,2.44125 0.5712,0.195 1.9624,0.7225 4.18,1.58125 4.6875,1.43625 9.4775,3.16 14.375,5.17625 2.1087,0.9525 3.4475,1.67 4.0237,2.14875 2.9675,2.88 4.5938,7.045 4.8825,12.5 0.195,2.10875 0.049,3.88625 -0.43,5.33125 -0.7712,3.545 -2.925,5.69875 -6.465,6.465 -3.0762,0.86 -6.435,0.57625 -10.0775,-0.85875 -0.665,-0.28375 -1.3825,-0.81125 -2.1487,-1.5825 -5.0788,-5.75125 -10.7325,-13.80875 -16.9538,-24.16 -1.1612,-1.80625 -1.9287,-2.91 -2.3038,-3.30125 l -1.0162,-0.99625 0.1562,-1.015 c 0.2838,-1.91375 1.0013,-3.15375 2.1488,-3.73 z m -90.566301,-4.61 c 0.4788,-0.57125 1.1038,-0.7125 1.875,-0.43 0.9613,0.39125 1.875,1.83125 2.7338,4.31625 0.089,0.57625 0.5663,1.8175 1.4263,3.73125 2.305,5.46875 3.8862,9.8775 4.7462,13.2225 0.571201,2.88125 0.478801,6.855 -0.2738,11.93375 -0.6787,4.99 -1.9724,10.5025 -3.8862,16.5425 -0.5762,1.71875 -1.0063,3.155 -1.29,4.2975 -1.445,5.46875 -3.8963,9.975 -7.3438,13.515 -2.295,2.2175 -4.4475,3.27125 -6.4637,3.16375 -4.0238,-0.2825 -7.335,-2.1525 -9.9225,-5.605 -1.055,-1.71875 -1.8263,-4.2575 -2.305,-7.6175 -0.2875,-1.3375 -0.4588,-2.7975 -0.5075,-4.375 -0.039,-1.58625 0.039,-2.5675 0.235,-2.94875 0.18,-0.28375 0.5125,-1.62625 0.995,-4.02375 l 0.7225,-3.45625 3.0275,-6.1725 c 8.0475,-16.48375 12.5,-25.97625 13.36,-28.47625 0.2825,-0.86 0.4788,-1.52875 0.5862,-2.0125 0.2825,-2.00125 1.045,-3.87125 2.285,-5.605 z M 229.88667,225.4931 c 1.2362,-0.19625 3.2475,0.0488 6.0362,0.7225 1.1426,0.195 3.0563,0.82 5.7413,1.875 0.86,0.2875 1.8662,0.62 3.0275,0.99625 4.9863,1.25 9.6775,2.86125 14.0825,4.82375 4.4137,1.9675 7.675,3.955 9.785,5.9575 2.6813,2.685 4.2088,5.99125 4.59,9.92125 0.2825,2.305 0.185,4.31625 -0.2925,6.035 -0.86,3.4525 -3.0187,5.60625 -6.465,6.465 -1.915,0.48375 -4.3562,0.58125 -7.325,0.29375 -2.9687,-0.28375 -4.98,-0.81125 -6.035,-1.5825 -5.3662,-4.11125 -12.7487,-12.78375 -22.1487,-26.01625 -0.2875,-0.39 -0.625,-0.84375 -1.015,-1.36625 -0.3813,-0.5175 -0.7375,-0.99625 -1.0738,-1.42625 -0.3275,-0.43875 -0.5425,-0.7075 -0.645,-0.80125 l -0.9962,-0.85875 0.1362,-0.7225 c 0.3913,-2.5875 1.255,-4.02875 2.5975,-4.31625 z m -37.8125,-52.1875 0,-2.87125 -0.4288,0 c -0.4837,0 -0.7712,0.0538 -0.86,0.15625 -0.4825,0.0925 -4.99,0.56625 -13.515,1.425 -9.2975,1.055 -16.485,1.44125 -21.5625,1.1525 -4.8837,-0.195 -8.5262,-0.4775 -10.9187,-0.85875 -0.195,-0.0875 -0.4388,-0.1375 -0.7225,-0.1375 l -0.1563,1.71875 c 0,1.1475 -0.072,3.21375 -0.215,6.1925 -0.1462,2.96875 -0.3075,6.08375 -0.4875,9.335 -0.1962,4.3125 -0.2487,7.04125 -0.1562,8.18375 0.1025,1.53875 0.4875,2.69125 1.1525,3.4575 0.1025,0.48375 1.1325,0.625 3.085,0.43 1.9638,-0.19625 9.1312,-1.1525 21.505,-2.87125 l 23.28,-3.4575 0.2937,0 0,-9.4925 c 0,-1.3375 -0.03,-2.9875 -0.079,-4.94125 -0.054,-1.9625 -0.1075,-3.57375 -0.1563,-4.82375 -0.039,-1.25 -0.059,-2.115 -0.059,-2.5975 z m -0.2925,-32.05125 0,-7.03125 -0.5662,0 c -0.3913,0 -0.9663,0.0925 -1.7188,0.27375 -5.7562,0.87375 -12.4712,1.68875 -20.1362,2.44125 -4.5075,0.48375 -8.575,0.58125 -12.2075,0.2925 -5.7563,-0.375 -9.1163,-0.7075 -10.0788,-0.99625 -0.4675,-0.1025 -0.7562,-0.1025 -0.8587,0 -0.093,0.0937 -0.4788,5.79125 -1.1525,17.09 -0.2875,5.09375 -0.3313,7.6375 -0.1363,7.6375 1.6263,-0.58625 5.605,-1.065 11.9338,-1.44625 3.3437,-0.2825 7.7,-0.6875 13.0662,-1.21 5.3763,-0.5325 9.4038,-0.89875 12.09,-1.09375 l 9.6288,-1.1525 0.2924,0 0,-3.8675 c 0,-4.6975 -0.054,-8.345 -0.1562,-10.9375 z m -4.59,-46.288747 -0.7225,-1.71875 -0.5662,0 c -0.9663,0 -2.3588,0.14625 -4.18,0.43 -11.5913,1.05375 -20.6925,1.245 -27.3038,0.56625 -0.875,-0.0888 -1.4562,-0.1375 -1.7387,-0.1375 -0.2888,0 -0.4788,0.0538 -0.5663,0.15625 -0.092,0.0937 -0.235,0.3275 -0.43,0.70375 -0.092,0.2875 -0.4787,1.245 -1.1525,2.87125 -0.5762,1.25 -1.0062,2.928747 -1.2887,5.038747 -0.4838,3.16375 -0.9675,7.67125 -1.445,13.515 -0.5763,5.7575 -0.86,8.6825 -0.86,8.77 0.86,-0.195 1.7675,-0.39 2.735,-0.58625 2.485,-0.375 5.7412,-0.75125 9.765,-1.1325 21.3775,-2.305 32.115,-3.50125 32.2075,-3.59375 0,-2.305 -0.049,-4.8925 -0.1375,-7.77375 -0.1075,-5.165 -0.2488,-8.09 -0.4288,-8.76875 -0.3913,-1.53375 -1.2112,-3.403747 -2.4612,-5.606247 -0.092,-0.195 -0.5663,-1.1025 -1.4263,-2.73375 z m 70.43,-26.5825 c 3.0713,-0.76625 5.5662,-0.96125 7.48,-0.58625 4.1113,0.86 7.6612,1.96875 10.645,3.32125 2.3925,0.95125 4.165,2.24125 5.3125,3.86625 0.9475,1.915 1.1912,3.355 0.7225,4.3175 -0.6787,1.25 -3.0762,2.1625 -7.1875,2.73375 -1.5375,0.195 -2.4025,0.3425 -2.5975,0.43 -1.3425,0.2875 -4.8388,0.9125 -10.4887,1.875 -2.685,0.46875 -5.1263,0.8 -7.3238,0.99625 -5.5613,0.85875 -12.3187,1.63 -20.2737,2.30375 -2.685,0.19625 -5.4638,0.5275 -8.34,0.99625 -0.5763,0.1075 -1.9863,0.28375 -4.2376,0.5275 -2.2562,0.235 -3.8087,0.40125 -4.6687,0.48875 -3.2712,0.38125 -4.9025,0.66375 -4.9025,0.85875 0,0 0.2937,0.0975 0.88,0.29375 2.7725,1.05375 4.3013,3.0225 4.59,5.8975 0.088,0.86 -0.054,2.24625 -0.43,4.161247 -1.055,4.50625 -1.6313,8.29 -1.7188,11.3475 0,0.39 -0.03,0.8975 -0.079,1.5225 -0.054,0.625 -0.1075,1.12875 -0.1563,1.505 -0.039,0.38 -0.059,0.66375 -0.059,0.85875 l 0,0.86 0.5675,0 c 12.7437,-1.8075 20.415,-3.0525 23.0075,-3.73125 5.0775,-1.43 8.4275,-2.14875 10.0587,-2.14875 1.3375,0 5.3175,0.47875 11.9338,1.42625 2.7725,0.48375 4.785,1.01125 6.035,1.5825 5.18,2.10875 8.0562,3.935 8.6325,5.46875 0.2825,0.85875 -0.054,1.7475 -1.0163,2.65625 -0.9512,0.9125 -2.3925,1.69875 -4.3162,2.3625 -2.49,0.9675 -6.4163,1.73375 -11.7775,2.305 -6.5225,0.48375 -12.71,1.10875 -18.5538,1.875 -1.5237,0.38125 -2.4325,0.47875 -2.715,0.2925 -0.7712,0 -1.7337,0.19125 -2.8912,0.5675 -3.8275,0.77125 -7.275,1.20125 -10.3313,1.28875 -5.85,0.39 -8.965,0.77625 -9.3562,1.1525 -0.092,0.1075 -0.3313,3.6525 -0.7225,10.64375 -0.3813,6.9925 -0.5663,10.635 -0.5663,10.91875 0.8588,0 6.65,-0.7675 17.3825,-2.305 4.4138,-0.57125 10.1175,-1.7675 17.11,-3.59375 1.6263,-0.57125 2.7775,-0.86 3.4563,-0.86 0.1962,0 4.6975,0.72375 13.5162,2.16875 1.9138,0.2875 3.54,0.7175 4.8825,1.28875 5.1663,2.305 7.9938,4.13125 8.4763,5.46875 0.3912,0.7575 0.1025,1.5725 -0.8588,2.44125 -0.86,0.86 -2.5387,1.71875 -5.0387,2.57875 -2.7738,0.77125 -9.4825,1.82625 -20.1175,3.16375 -9.78,1.1475 -15.2438,1.81625 -16.3875,2.01125 -5.4588,0.67875 -9.0525,1.10875 -10.78,1.29 -0.5763,0 -1.3188,0.0537 -2.2275,0.15625 -0.9125,0.0925 -1.4163,0.13625 -1.5038,0.13625 -0.2875,0.0925 -1.87,0.3325 -4.7462,0.7225 -0.6788,0 -1.3275,0.0538 -1.9525,0.15625 -0.615,0.0925 -1.1138,0.18625 -1.5038,0.27375 l -0.5662,0 -1.4462,23.8675 0.7225,0 c 0.3762,-0.1025 0.9475,-0.20125 1.7187,-0.29375 0.7675,-0.0875 1.49,-0.185 2.1687,-0.2925 16.0938,-1.82125 27.8763,-2.77875 35.3513,-2.87125 2.9687,0 6.8012,-0.3325 11.5037,-0.99625 11.0163,-1.3375 19.1113,-2.53875 24.2975,-3.59375 1.7188,-0.2975 5.2138,-0.635 10.4876,-1.015 2.8762,0 4.6975,-0.0987 5.4687,-0.29375 1.1425,-0.0875 2.725,0.29375 4.7462,1.1525 2.6813,0.9675 6.6601,2.78875 11.9338,5.46875 1.9138,0.9525 4.4525,2.14875 7.6175,3.59375 6.22,2.68625 9.8625,5.07875 10.9175,7.1875 0.2838,0.57625 0.1413,1.72875 -0.43,3.4575 -1.5375,4.11625 -2.69,6.655 -3.4563,7.61625 -1.6312,2.2025 -3.16,5.215 -4.59,9.04375 -1.9137,5.75625 -3.0662,12.94375 -3.4575,21.5625 -0.7712,15.625 -2.7337,29.6675 -5.8987,42.12875 -2.2938,8.81875 -4.5888,15.9525 -6.8938,21.40625 -4.8825,11.60125 -13.315,20.75625 -25.2937,27.46125 -5.6638,3.07625 -9.8825,4.56 -12.655,4.4525 -1.055,-0.18 -1.8263,-0.37125 -2.305,-0.56625 -1.6313,-0.76625 -3.2138,-2.01125 -4.7463,-3.73 -1.9137,-1.92375 -3.2037,-3.50625 -3.8675,-4.74625 -2.0212,-3.4475 -7.1975,-11.3575 -15.5275,-23.73125 l -3.75,-5.44875 0,-1.1525 c 0.1025,-1.25 0.44,-2.21125 1.0163,-2.89 0.5712,-0.57125 1.5812,-0.5175 3.0275,0.15625 10.7275,4.31125 17.8612,7.04125 21.4062,8.18375 2.0163,0.67875 3.935,0.53625 5.7613,-0.43 1.6262,-1.055 4.3062,-3.30625 8.0475,-6.7575 4.5012,-4.205 7.7587,-8.41875 9.765,-12.6375 2.5,-4.79 4.365,-11.45 5.605,-19.98 2.305,-15.24375 3.7412,-30.77125 4.3175,-46.5825 0.088,-3.4475 0.088,-5.605 0,-6.465 -0.2888,-1.445 -0.7725,-2.73875 -1.4463,-3.88625 -1.435,-2.1975 -4.0187,-3.68125 -7.7537,-4.45375 -1.9138,-0.2825 -10.1125,-0.14125 -24.59,0.43 -24.4288,0.77125 -51.0688,2.2075 -79.9213,4.31625 l -5.8787,0.43 -12.52,3.0075 c -13.6088,3.165 -21.3675,5.23 -23.2813,6.19125 -1.3425,0.7725 -3.0225,1.44125 -5.0387,2.0125 -0.2888,0 -1.2013,0.33125 -2.735,0.99625 -2.9688,1.5375 -5.5563,2.30375 -7.7538,2.30375 -1.435,-0.0875 -2.8225,-0.76125 -4.16,-2.01125 -1.3425,-1.3375 -2.7337,-3.25125 -4.18,-5.7425 -2.9687,-4.69625 -4.5987,-8.8175 -4.8825,-12.3625 l 0,-1.1525 0.7225,-1.5825 c 2.6813,-5.36125 4.8825,-12.3625 6.6013,-20.99625 1.8212,-9.18875 2.8762,-19.00875 3.165,-29.4525 0,-4.79 0.1412,-12.2175 0.4287,-22.285 0.2838,-13.60375 0.24,-21.84625 -0.1362,-24.7275 -0.5763,-3.358747 -1.5825,-6.424997 -3.0275,-9.198747 -0.5763,-1.1425 -1.245,-2.295 -2.0113,-3.4575 -1.7187,-2.875 -2.5787,-4.6475 -2.5787,-5.3125 0,-1.91375 0.5275,-3.59375 1.5825,-5.03875 1.235,-1.3375 3.2912,-1.81625 6.1712,-1.425 2.8763,0.38 5.8988,1.47875 9.0625,3.3 0.9625,0.67875 2.115,1.20625 3.4575,1.5825 0.6638,0.195 1.5675,0.48375 2.715,0.85875 l 0.8788,0.43 3.145,-0.7225 c 2.0162,-0.37625 3.935,-0.56625 5.7612,-0.56625 1.055,0 5.8888,-0.14125 14.5113,-0.43 13.5162,-0.76625 27.505,-2.2075 41.9725,-4.31625 10.7425,-1.71875 23.3887,-4.2575 37.95,-7.6175 3.735,-0.96125 6.3725,-1.5325 7.91,-1.71875 z m -43.4175,-52.05 c -7.2812,-0.28375 -13.6037,-0.3325 -18.965,-0.1375 -13.125,0.57625 -25.9187,2.44125 -38.3787,5.60625 -25.875,6.5225 -49.7363,18.935 -71.582501,37.22625 -11.9825,10.15625 -22.3825,20.9375 -31.2113,32.34375 -22.3187,28.857497 -34.775,61.342497 -37.3625,97.461247 -0.7725,10.54625 -0.7225,20.7125 0.1363,30.4875 3.1637,40.445 18.7887,76.24 46.875,107.3825 7.7587,8.62375 16.235,16.62125 25.43,24.00495 29.423701,23.5638 62.723701,36.6451 99.902501,39.2375 46.4837,3.3601 87.6462,-8.4324 123.4962,-35.3712 21.5625,-16.18125 39.0475,-35.35125 52.46,-57.5 2.8763,-5.0775 5.1275,-9.2425 6.7575,-12.5 7.8625,-15.625 13.1838,-31.82125 15.9575,-48.59375 1.5338,-9.10125 2.4463,-19.11125 2.735,-30.03875 0.7663,-47.14875 -14.4725,-88.49625 -45.7225,-124.042497 -6.5137,-7.29 -13.2187,-13.955 -20.1175,-20 -22.8125,-20.205 -48.2137,-33.71625 -76.1912,-40.5275 -10.5375,-2.485 -21.9438,-4.165 -34.2188,-5.03875 z M 196.52797,0.10185263 c 1.1574,-0.10250000219 4.18,-0.12625 9.0625,-0.0775 4.8825,0.0538 7.9937,0.12625 9.3362,0.215 14.4775,0.85874997 27.3237,2.77249997 38.535,5.74124997 30.8588,7.5787504 58.8863,22.7737504 84.0825,45.5862504 39.58,35.64 62.1088,77.944997 67.5775,126.913747 2.3925,20.50875 1.8162,41.07 -1.7387,61.68 -6.3275,36.22625 -22.3338,68.6675 -48.0076,97.32375 -15.5224,17.525 -32.9199,31.8462 -52.1875,42.9687 -30.2737,17.4476 -63.5737,26.1726 -99.9024,26.1726 -25.4975,0 -49.3113,-4.2188 -71.445,-12.6563 -18.6863,-6.9925 -36.073801,-16.9625 -52.167501,-29.9025 -19.2725,-15.43 -35.2838,-32.87125 -48.0276,-52.32375 -18.2037,-27.69625 -28.5062001,-58.21375 -30.89870011,-91.5625 -0.39,-4.21875 -0.635,-8.91125 -0.7225,-14.0825 -0.7712,-53.76 16.91370011,-99.9075 53.04630011,-138.437497 4.6975,-5.18 9.9225,-10.35625 15.665,-15.5275 9.2962,-8.525 18.305,-15.57125 27.0312,-21.1325 26.835001,-17.6275 56.923801,-27.7387504 90.272501,-30.33250037 2.11,-0.2825 5.6062,-0.47375 10.4888,-0.56625 z"
     inkscape:connector-curvature="0" /></svg>