<?xml version="1.0" encoding="UTF-8" standalone="no"?>
<!-- Created with Inkscape (http://www.inkscape.org/) -->

<svg
   xmlns:dc="http://purl.org/dc/elements/1.1/"
   xmlns:cc="http://creativecommons.org/ns#"
   xmlns:rdf="http://www.w3.org/1999/02/22-rdf-syntax-ns#"
   xmlns:svg="http://www.w3.org/2000/svg"
   xmlns="http://www.w3.org/2000/svg"
   xmlns:sodipodi="http://sodipodi.sourceforge.net/DTD/sodipodi-0.dtd"
   xmlns:inkscape="http://www.inkscape.org/namespaces/inkscape"
   width="85.090012"
   height="85.090012"
   id="svg2"
   version="1.1"
   inkscape:version="0.48.5 r10040"
   sodipodi:docname="black_pawn.svg">
  <defs
     id="defs4" />
  <sodipodi:namedview
     id="base"
     pagecolor="#ffffff"
     bordercolor="#666666"
     borderopacity="1.0"
     inkscape:pageopacity="0.0"
     inkscape:pageshadow="2"
     inkscape:zoom="9.918908"
     inkscape:cx="42.545006"
     inkscape:cy="42.545006"
     inkscape:document-units="px"
     inkscape:current-layer="layer1"
     showgrid="false"
     fit-margin-top="0"
     fit-margin-left="0"
     fit-margin-right="0"
     fit-margin-bottom="0"
     inkscape:window-width="1920"
     inkscape:window-height="1024"
     inkscape:window-x="0"
     inkscape:window-y="0"
     inkscape:window-maximized="1" />
  <metadata
     id="metadata7">
    <rdf:RDF>
      <cc:Work
         rdf:about="">
        <dc:format>image/svg+xml</dc:format>
        <dc:type
           rdf:resource="http://purl.org/dc/dcmitype/StillImage" />
        <dc:title />
      </cc:Work>
    </rdf:RDF>
  </metadata>
  <g
     inkscape:label="Layer 1"
     inkscape:groupmode="layer"
     id="layer1"
     transform="translate(-964.04889,-1052.8219)">
    <g
       id="g4620">
      <path
         sodipodi:type="arc"
         style="color:#000000;fill:#000000;fill-opacity:1;fill-rule:nonzero;stroke:none;stroke-width:3.29999995;marker:none;visibility:visible;display:inline;overflow:visible;enable-background:accumulate"
         id="path4503"
         sodipodi:cx="250.6218"
         sodipodi:cy="781.79041"
         sodipodi:rx="42.545006"
         sodipodi:ry="42.545006"
         d="m 293.1668,781.79041 c 0,23.49695 -19.04805,42.545 -42.545,42.545 -23.49696,0 -42.54501,-19.04805 -42.54501,-42.545 0,-23.49696 19.04805,-42.54501 42.54501,-42.54501 23.49695,0 42.545,19.04805 42.545,42.54501 z"
         transform="translate(755.9721,313.57647)" />
      <path
         d="m 980.30398,1071.6506 23.36262,0 c -0.7001,-1.75 -1.575,-3.4125 -2.625,-4.9876 l 4.9874,-1.575 c 1.575,1.9252 2.8876,4.1127 3.9376,6.5626 l 22.8374,0 0,4.9874 -52.50002,0 0,-4.9874 m 13.125,6.3 5.51251,1.3124 c -0.7001,2.2751 -1.66247,4.4626 -2.88751,6.5626 3.32501,2.2751 6.47512,4.9001 9.45002,7.875 l -3.675,4.2 c -2.62511,-2.9751 -5.33754,-5.5125 -8.13752,-7.6126 -2.97501,4.5501 -6.125,8.2251 -9.45,11.025 l -3.675,-3.9374 c 5.6,-5.0751 9.88749,-11.55 12.8625,-19.425 m 26.25002,0 4.9876,1.05 c -0.875,2.8001 -1.925,5.4251 -3.15,7.875 4.0249,2.625 7.7874,5.6 11.2874,8.925 l -3.675,3.9374 c -3.15,-3.3249 -6.5624,-6.2124 -10.2374,-8.6624 -2.1,3.3249 -4.4626,6.2125 -7.0876,8.6624 l -3.4124,-3.9374 c 4.9,-4.725 8.6624,-10.675 11.2874,-17.85 m -43.05002,25.725 27.56262,0 0,-4.9876 5.25,0 0,4.9876 26.5124,0 0,4.9874 -26.5124,0 0,17.5876 -5.25,0 0,-17.5876 -27.56262,0 0,-4.9874"
         style="font-size:56px;font-style:normal;font-variant:normal;font-weight:normal;font-stretch:normal;text-align:start;line-height:125%;letter-spacing:0px;word-spacing:0px;writing-mode:lr-tb;text-anchor:start;fill:#ffffff;fill-opacity:1;stroke:none;font-family:WenQuanYi Micro Hei Mono;-inkscape-font-specification:WenQuanYi Micro Hei Mono"
         id="path4309"
         inkscape:connector-curvature="0" />
    </g>
    <flowRoot
       xml:space="preserve"
       id="flowRoot4531"
       style="font-size:40px;font-style:normal;font-weight:normal;line-height:125%;letter-spacing:0px;word-spacing:0px;fill:#000000;fill-opacity:1;stroke:none;font-family:Sans"><flowRegion
         id="flowRegion4533"><rect
           id="rect4535"
           width="3112.199"
           height="1194.5059"
           x="-1251.8622"
           y="-172.0687" /></flowRegion><flowPara
         id="flowPara4537" /></flowRoot>    <flowRoot
       xml:space="preserve"
       id="flowRoot4539"
       style="font-size:40px;font-style:normal;font-weight:normal;line-height:125%;letter-spacing:0px;word-spacing:0px;fill:#000000;fill-opacity:1;stroke:none;font-family:Sans"><flowRegion
         id="flowRegion4541"><rect
           id="rect4543"
           width="3249.3552"
           height="1269.3184"
           x="-1416.4496"
           y="-226.93118" /></flowRegion><flowPara
         id="flowPara4545" /></flowRoot>  </g>
</svg>
