<?xml version="1.0" encoding="UTF-8" standalone="no"?>
<!-- Created with Inkscape (http://www.inkscape.org/) -->

<svg
   xmlns:dc="http://purl.org/dc/elements/1.1/"
   xmlns:cc="http://creativecommons.org/ns#"
   xmlns:rdf="http://www.w3.org/1999/02/22-rdf-syntax-ns#"
   xmlns:svg="http://www.w3.org/2000/svg"
   xmlns="http://www.w3.org/2000/svg"
   xmlns:sodipodi="http://sodipodi.sourceforge.net/DTD/sodipodi-0.dtd"
   xmlns:inkscape="http://www.inkscape.org/namespaces/inkscape"
   width="85.090012"
   height="85.090012"
   id="svg2"
   version="1.1"
   inkscape:version="0.48.5 r10040"
   sodipodi:docname="black_cannon.svg">
  <defs
     id="defs4" />
  <sodipodi:namedview
     id="base"
     pagecolor="#ffffff"
     bordercolor="#666666"
     borderopacity="1.0"
     inkscape:pageopacity="0.0"
     inkscape:pageshadow="2"
     inkscape:zoom="1"
     inkscape:cx="42.545006"
     inkscape:cy="42.545006"
     inkscape:document-units="px"
     inkscape:current-layer="layer1"
     showgrid="false"
     fit-margin-top="0"
     fit-margin-left="0"
     fit-margin-right="0"
     fit-margin-bottom="0"
     inkscape:window-width="1920"
     inkscape:window-height="1024"
     inkscape:window-x="0"
     inkscape:window-y="0"
     inkscape:window-maximized="1" />
  <metadata
     id="metadata7">
    <rdf:RDF>
      <cc:Work
         rdf:about="">
        <dc:format>image/svg+xml</dc:format>
        <dc:type
           rdf:resource="http://purl.org/dc/dcmitype/StillImage" />
        <dc:title />
      </cc:Work>
    </rdf:RDF>
  </metadata>
  <g
     inkscape:label="Layer 1"
     inkscape:groupmode="layer"
     id="layer1"
     transform="translate(-697.78349,-1051.9402)">
    <g
       id="g4608">
      <path
         transform="translate(489.7067,312.6948)"
         d="m 293.1668,781.79041 c 0,23.49695 -19.04805,42.545 -42.545,42.545 -23.49696,0 -42.54501,-19.04805 -42.54501,-42.545 0,-23.49696 19.04805,-42.54501 42.54501,-42.54501 23.49695,0 42.545,19.04805 42.545,42.54501 z"
         sodipodi:ry="42.545006"
         sodipodi:rx="42.545006"
         sodipodi:cy="781.79041"
         sodipodi:cx="250.6218"
         id="path4497"
         style="color:#000000;fill:#000000;fill-opacity:1;fill-rule:nonzero;stroke:none;stroke-width:3.29999995;marker:none;visibility:visible;display:inline;overflow:visible;enable-background:accumulate"
         sodipodi:type="arc" />
      <path
         inkscape:connector-curvature="0"
         id="path4460"
         style="font-size:56px;font-style:normal;font-variant:normal;font-weight:normal;font-stretch:normal;text-align:start;line-height:125%;letter-spacing:0px;word-spacing:0px;writing-mode:lr-tb;text-anchor:start;fill:#ffffff;fill-opacity:1;stroke:none;font-family:WenQuanYi Micro Hei Mono;-inkscape-font-specification:WenQuanYi Micro Hei Mono"
         d="m 722.22845,1064.287 4.48875,0 0,12.7182 c 2.49373,-2.3276 4.48873,-4.7382 5.985,-7.232 l 3.74063,2.9925 c -2.49377,3.8238 -5.73565,7.232 -9.72563,10.2245 l 0,7.2318 c -2e-5,2.9925 -0.16627,5.985 -0.49875,8.9775 3.49123,4.4887 6.56686,8.8112 9.22688,12.9675 l -3.24188,4.7382 c -2.32751,-4.4888 -4.73814,-8.562 -7.23187,-12.2195 -1.99501,6.8163 -4.98751,12.3856 -8.9775,16.7082 l -4.23938,-3.2419 c 6.98249,-7.6475 10.47374,-16.9575 10.47375,-27.93 l 0,-25.935 m -7.23187,11.2219 4.73812,0.9975 c -0.49876,7.3149 -1.74563,13.7156 -3.74062,19.2018 l -4.48875,-2.743 c 1.82875,-5.1539 2.9925,-10.9725 3.49125,-17.4563 m 25.935,-11.4712 4.23937,0.9975 c -0.33254,1.995 -0.74815,3.9068 -1.24687,5.7355 l 22.44375,0 c -6e-5,18.1213 -0.49881,28.8028 -1.49625,32.0447 -0.99756,3.2418 -2.8263,4.8628 -5.48625,4.8628 -0.66505,0 -1.33005,-0.084 -1.995,-0.2493 l -1.24688,-4.7382 c 1.49621,0.1663 2.57683,0.2495 3.24188,0.2495 0.66495,0 1.1637,-1.1639 1.49625,-3.4913 0.33245,-2.3276 0.49869,-10.3076 0.49875,-23.94 l -19.45125,0 c -1.99503,4.9875 -4.15628,8.9775 -6.48375,11.97 l -3.74063,-3.4912 c 4.15623,-5.3201 7.23185,-11.97 9.22688,-19.95 m 14.71312,19.4512 0,18.4538 -11.97,0 0,12.2193 c -3e-5,0.8312 0.33247,1.33 0.9975,1.4962 0.66496,0.1663 3.57434,0.2495 8.72813,0.2495 6.1512,0 9.60089,-0.3742 10.34906,-1.1223 0.74808,-0.7482 1.20526,-2.7016 1.37156,-5.8602 l 4.9875,1.7455 c -0.66505,4.1563 -1.66255,6.8994 -2.9925,8.2295 -1.1638,1.1636 -5.73568,1.7455 -13.71562,1.7455 -7.31504,0 -11.59597,-0.3325 -12.84282,-0.9975 -1.2469,-0.665 -1.87034,-2.1612 -1.87031,-4.4887 l 0,-31.6706 16.9575,0 m -11.97,13.965 6.9825,0 0,-9.2269 -6.9825,0 0,9.2269" />
    </g>
    <flowRoot
       xml:space="preserve"
       id="flowRoot4531"
       style="font-size:40px;font-style:normal;font-weight:normal;line-height:125%;letter-spacing:0px;word-spacing:0px;fill:#000000;fill-opacity:1;stroke:none;font-family:Sans"><flowRegion
         id="flowRegion4533"><rect
           id="rect4535"
           width="3112.199"
           height="1194.5059"
           x="-1251.8622"
           y="-172.0687" /></flowRegion><flowPara
         id="flowPara4537" /></flowRoot>    <flowRoot
       xml:space="preserve"
       id="flowRoot4539"
       style="font-size:40px;font-style:normal;font-weight:normal;line-height:125%;letter-spacing:0px;word-spacing:0px;fill:#000000;fill-opacity:1;stroke:none;font-family:Sans"><flowRegion
         id="flowRegion4541"><rect
           id="rect4543"
           width="3249.3552"
           height="1269.3184"
           x="-1416.4496"
           y="-226.93118" /></flowRegion><flowPara
         id="flowPara4545" /></flowRoot>  </g>
</svg>
