<?xml version="1.0" encoding="UTF-8" standalone="no"?>
<!-- Created with Inkscape (http://www.inkscape.org/) -->

<svg
   xmlns:dc="http://purl.org/dc/elements/1.1/"
   xmlns:cc="http://creativecommons.org/ns#"
   xmlns:rdf="http://www.w3.org/1999/02/22-rdf-syntax-ns#"
   xmlns:svg="http://www.w3.org/2000/svg"
   xmlns="http://www.w3.org/2000/svg"
   xmlns:sodipodi="http://sodipodi.sourceforge.net/DTD/sodipodi-0.dtd"
   xmlns:inkscape="http://www.inkscape.org/namespaces/inkscape"
   width="83.09375"
   height="83.09375"
   id="svg2"
   version="1.1"
   inkscape:version="0.48.5 r10040"
   sodipodi:docname="red_cannon.svg">
  <defs
     id="defs4" />
  <sodipodi:namedview
     id="base"
     pagecolor="#ffffff"
     bordercolor="#666666"
     borderopacity="1.0"
     inkscape:pageopacity="0.0"
     inkscape:pageshadow="2"
     inkscape:zoom="8"
     inkscape:cx="86.538349"
     inkscape:cy="45.3453"
     inkscape:document-units="px"
     inkscape:current-layer="layer1"
     showgrid="false"
     fit-margin-top="0"
     fit-margin-left="0"
     fit-margin-right="0"
     fit-margin-bottom="0"
     inkscape:window-width="1920"
     inkscape:window-height="1024"
     inkscape:window-x="0"
     inkscape:window-y="0"
     inkscape:window-maximized="1" />
  <metadata
     id="metadata7">
    <rdf:RDF>
      <cc:Work
         rdf:about="">
        <dc:format>image/svg+xml</dc:format>
        <dc:type
           rdf:resource="http://purl.org/dc/dcmitype/StillImage" />
        <dc:title />
      </cc:Work>
    </rdf:RDF>
  </metadata>
  <g
     inkscape:label="Layer 1"
     inkscape:groupmode="layer"
     id="layer1"
     transform="translate(-85.54731,-1053.31)">
    <g
       id="g4580">
      <path
         sodipodi:type="arc"
         style="color:#000000;fill:#ffffff;fill-opacity:1;fill-rule:nonzero;stroke:#000000;stroke-width:3.29999995;stroke-miterlimit:4;stroke-opacity:1;stroke-dasharray:none;marker:none;visibility:visible;display:inline;overflow:visible;enable-background:accumulate"
         id="path4481"
         sodipodi:cx="250.6218"
         sodipodi:cy="781.79041"
         sodipodi:rx="39.899986"
         sodipodi:ry="39.899986"
         d="m 290.52178,781.79041 c 0,22.03615 -17.86383,39.89998 -39.89998,39.89998 -22.03616,0 -39.89999,-17.86383 -39.89999,-39.89998 0,-22.03616 17.86383,-39.89999 39.89999,-39.89999 22.03615,0 39.89998,17.86383 39.89998,39.89999 z"
         transform="translate(-123.51519,313.05999)" />
      <path
         d="m 107.31238,1066.4217 4.48875,0 0,12.718 c 2.49375,-2.3274 4.48875,-4.738 5.985,-7.2318 l 3.74069,2.9925 c -2.49375,3.8238 -5.73569,7.2318 -9.72569,10.2244 l 0,7.2319 c 0,2.9925 -0.16621,5.985 -0.49875,8.9775 3.49125,4.4887 6.56686,8.8111 9.22694,12.9675 l -3.24194,4.738 c -2.32753,-4.4888 -4.73806,-8.5618 -7.23181,-12.2193 -1.995,6.8162 -4.9875,12.3855 -8.9775,16.7081 l -4.23944,-3.2418 c 6.9825,-7.6476 10.47375,-16.9575 10.47375,-27.93 l 0,-25.935 m -7.23182,11.2218 4.73807,0.9975 c -0.49875,7.315 -1.74556,13.7157 -3.74056,19.2019 l -4.488758,-2.7431 c 1.828674,-5.1538 2.992498,-10.9726 3.491248,-17.4563 m 25.93501,-11.4712 4.23931,0.9974 c -0.33253,1.9952 -0.74818,3.907 -1.24681,5.7357 l 22.44375,0 c -1.2e-4,18.1213 -0.49887,28.8028 -1.49625,32.0446 -0.99762,3.2419 -2.82629,4.8629 -5.48625,4.8629 -0.66508,0 -1.33004,-0.084 -1.995,-0.2495 l -1.24694,-4.738 c 1.49625,0.1663 2.57686,0.2494 3.24194,0.2494 0.66496,0 1.16371,-1.1638 1.49625,-3.4914 0.33242,-2.3274 0.49863,-10.3074 0.49875,-23.9399 l -19.45125,0 c -1.99512,4.9875 -4.15633,8.9774 -6.48375,11.9699 l -3.74069,-3.4911 c 4.15622,-5.32 7.23182,-11.9699 9.22694,-19.95 m 14.71306,19.4511 0,18.4538 -11.97,0 0,12.2195 c 0,0.8311 0.33254,1.3299 0.9975,1.4962 0.66497,0.1663 3.57436,0.2493 8.72819,0.2493 6.15121,0 9.60085,-0.374 10.34903,-1.1222 0.74807,-0.7481 1.20521,-2.7016 1.37153,-5.8602 l 4.9875,1.7456 c -0.66507,4.1563 -1.66257,6.8993 -2.9925,8.2294 -1.16382,1.1636 -5.73568,1.7456 -13.71556,1.7456 -7.31504,0 -11.59597,-0.3325 -12.8429,-0.9975 -1.24682,-0.6651 -1.87029,-2.1613 -1.87029,-4.4887 l 0,-31.6708 16.9575,0 m -11.97,13.965 6.9825,0 0,-9.2267 -6.9825,0 0,9.2267"
         style="font-size:56px;font-style:normal;font-variant:normal;font-weight:normal;font-stretch:normal;text-align:start;line-height:125%;letter-spacing:0px;word-spacing:0px;writing-mode:lr-tb;text-anchor:start;fill:#000000;fill-opacity:1;stroke:none;font-family:WenQuanYi Micro Hei Mono;-inkscape-font-specification:WenQuanYi Micro Hei Mono"
         id="path4263"
         inkscape:connector-curvature="0" />
    </g>
    <flowRoot
       xml:space="preserve"
       id="flowRoot4531"
       style="font-size:40px;font-style:normal;font-weight:normal;line-height:125%;letter-spacing:0px;word-spacing:0px;fill:#000000;fill-opacity:1;stroke:none;font-family:Sans"><flowRegion
         id="flowRegion4533"><rect
           id="rect4535"
           width="3112.199"
           height="1194.5059"
           x="-1251.8622"
           y="-172.0687" /></flowRegion><flowPara
         id="flowPara4537" /></flowRoot>    <flowRoot
       xml:space="preserve"
       id="flowRoot4539"
       style="font-size:40px;font-style:normal;font-weight:normal;line-height:125%;letter-spacing:0px;word-spacing:0px;fill:#000000;fill-opacity:1;stroke:none;font-family:Sans"><flowRegion
         id="flowRegion4541"><rect
           id="rect4543"
           width="3249.3552"
           height="1269.3184"
           x="-1416.4496"
           y="-226.93118" /></flowRegion><flowPara
         id="flowPara4545" /></flowRoot>  </g>
</svg>
