<?xml version="1.0" encoding="UTF-8" standalone="no"?>
<!-- Created with Inkscape (http://www.inkscape.org/) -->

<svg
   xmlns:dc="http://purl.org/dc/elements/1.1/"
   xmlns:cc="http://creativecommons.org/ns#"
   xmlns:rdf="http://www.w3.org/1999/02/22-rdf-syntax-ns#"
   xmlns:svg="http://www.w3.org/2000/svg"
   xmlns="http://www.w3.org/2000/svg"
   xmlns:sodipodi="http://sodipodi.sourceforge.net/DTD/sodipodi-0.dtd"
   xmlns:inkscape="http://www.inkscape.org/namespaces/inkscape"
   width="83.09375"
   height="83.09375"
   id="svg2"
   version="1.1"
   inkscape:version="0.48.5 r10040"
   sodipodi:docname="red_horse.svg">
  <defs
     id="defs4" />
  <sodipodi:namedview
     id="base"
     pagecolor="#ffffff"
     bordercolor="#666666"
     borderopacity="1.0"
     inkscape:pageopacity="0.0"
     inkscape:pageshadow="2"
     inkscape:zoom="0.80200525"
     inkscape:cx="521.71822"
     inkscape:cy="54.1577"
     inkscape:document-units="px"
     inkscape:current-layer="layer1"
     showgrid="false"
     fit-margin-top="0"
     fit-margin-left="0"
     fit-margin-right="0"
     fit-margin-bottom="0"
     inkscape:window-width="1920"
     inkscape:window-height="1024"
     inkscape:window-x="0"
     inkscape:window-y="0"
     inkscape:window-maximized="1" />
  <metadata
     id="metadata7">
    <rdf:RDF>
      <cc:Work
         rdf:about="">
        <dc:format>image/svg+xml</dc:format>
        <dc:type
           rdf:resource="http://purl.org/dc/dcmitype/StillImage" />
        <dc:title></dc:title>
      </cc:Work>
    </rdf:RDF>
  </metadata>
  <g
     inkscape:label="Layer 1"
     inkscape:groupmode="layer"
     id="layer1"
     transform="translate(-173.45197,-1052.0631)">
    <g
       id="g4584">
      <path
         transform="translate(-35.610529,311.81312)"
         d="m 290.52178,781.79041 c 0,22.03615 -17.86383,39.89998 -39.89998,39.89998 -22.03616,0 -39.89999,-17.86383 -39.89999,-39.89998 0,-22.03616 17.86383,-39.89999 39.89999,-39.89999 22.03615,0 39.89998,17.86383 39.89998,39.89999 z"
         sodipodi:ry="39.899986"
         sodipodi:rx="39.899986"
         sodipodi:cy="781.79041"
         sodipodi:cx="250.6218"
         id="path4483"
         style="color:#000000;fill:#ffffff;fill-opacity:1;fill-rule:nonzero;stroke:#000000;stroke-width:3.29999995;stroke-miterlimit:4;stroke-opacity:1;stroke-dasharray:none;marker:none;visibility:visible;display:inline;overflow:visible;enable-background:accumulate"
         sodipodi:type="arc" />
      <path
         d="m 192.04255,1065.7128 41.475,0 -2.88756,27.3 11.55,0 c -0.70008,14.5251 -1.83756,23.3188 -3.41244,26.3813 -1.57512,3.0624 -4.2876,4.5938 -8.13756,4.5938 -1.92504,0 -4.28748,-0.088 -7.08744,-0.2626 l -1.05,-5.5125 c 3.49992,0.175 6.2124,0.2625 8.13744,0.2625 1.575,0 2.75616,-1.0937 3.54372,-3.2812 0.78744,-2.1876 1.35624,-7.9188 1.70628,-17.1938 l -38.58744,0 2.1,-23.625 5.51244,0.525 -1.575,18.1125 22.05,0 2.1,-22.3125 -35.43744,0 0,-4.9875 m -4.2,40.9501 40.425,0 0,4.9874 -40.425,0 0,-4.9874"
         style="font-size:56px;font-style:normal;font-variant:normal;font-weight:normal;font-stretch:normal;text-align:start;line-height:125%;letter-spacing:0px;word-spacing:0px;writing-mode:lr-tb;text-anchor:start;fill:#000000;fill-opacity:1;stroke:none;font-family:WenQuanYi Micro Hei Mono;-inkscape-font-specification:WenQuanYi Micro Hei Mono"
         id="path4125"
         inkscape:connector-curvature="0" />
    </g>
    <flowRoot
       xml:space="preserve"
       id="flowRoot4531"
       style="font-size:40px;font-style:normal;font-weight:normal;line-height:125%;letter-spacing:0px;word-spacing:0px;fill:#000000;fill-opacity:1;stroke:none;font-family:Sans"><flowRegion
         id="flowRegion4533"><rect
           id="rect4535"
           width="3112.199"
           height="1194.5059"
           x="-1251.8622"
           y="-172.0687" /></flowRegion><flowPara
         id="flowPara4537"></flowPara></flowRoot>    <flowRoot
       xml:space="preserve"
       id="flowRoot4539"
       style="font-size:40px;font-style:normal;font-weight:normal;line-height:125%;letter-spacing:0px;word-spacing:0px;fill:#000000;fill-opacity:1;stroke:none;font-family:Sans"><flowRegion
         id="flowRegion4541"><rect
           id="rect4543"
           width="3249.3552"
           height="1269.3184"
           x="-1416.4496"
           y="-226.93118" /></flowRegion><flowPara
         id="flowPara4545"></flowPara></flowRoot>  </g>
</svg>
