<?xml version="1.0" encoding="UTF-8" standalone="no"?>
<!-- Created with Inkscape (http://www.inkscape.org/) -->

<svg
   xmlns:dc="http://purl.org/dc/elements/1.1/"
   xmlns:cc="http://creativecommons.org/ns#"
   xmlns:rdf="http://www.w3.org/1999/02/22-rdf-syntax-ns#"
   xmlns:svg="http://www.w3.org/2000/svg"
   xmlns="http://www.w3.org/2000/svg"
   xmlns:sodipodi="http://sodipodi.sourceforge.net/DTD/sodipodi-0.dtd"
   xmlns:inkscape="http://www.inkscape.org/namespaces/inkscape"
   width="83.09375"
   height="83.09375"
   id="svg2"
   version="1.1"
   inkscape:version="0.48.5 r10040"
   sodipodi:docname="red_elephant.svg">
  <defs
     id="defs4" />
  <sodipodi:namedview
     id="base"
     pagecolor="#ffffff"
     bordercolor="#666666"
     borderopacity="1.0"
     inkscape:pageopacity="0.0"
     inkscape:pageshadow="2"
     inkscape:zoom="0.5"
     inkscape:cx="41.559296"
     inkscape:cy="41.553355"
     inkscape:document-units="px"
     inkscape:current-layer="layer1"
     showgrid="false"
     fit-margin-top="0"
     fit-margin-left="0"
     fit-margin-right="0"
     fit-margin-bottom="0"
     inkscape:window-width="1920"
     inkscape:window-height="1024"
     inkscape:window-x="0"
     inkscape:window-y="0"
     inkscape:window-maximized="1" />
  <metadata
     id="metadata7">
    <rdf:RDF>
      <cc:Work
         rdf:about="">
        <dc:format>image/svg+xml</dc:format>
        <dc:type
           rdf:resource="http://purl.org/dc/dcmitype/StillImage" />
        <dc:title />
      </cc:Work>
    </rdf:RDF>
  </metadata>
  <g
     inkscape:label="Layer 1"
     inkscape:groupmode="layer"
     id="layer1"
     transform="translate(1.73391,-1053.31)">
    <g
       id="g4576">
      <path
         transform="translate(-210.79641,313.05999)"
         d="m 290.52178,781.79041 c 0,22.03615 -17.86383,39.89998 -39.89998,39.89998 -22.03616,0 -39.89999,-17.86383 -39.89999,-39.89998 0,-22.03616 17.86383,-39.89999 39.89999,-39.89999 22.03615,0 39.89998,17.86383 39.89998,39.89999 z"
         sodipodi:ry="39.899986"
         sodipodi:rx="39.899986"
         sodipodi:cy="781.79041"
         sodipodi:cx="250.6218"
         id="path4479"
         style="color:#000000;fill:#ffffff;fill-opacity:1;fill-rule:nonzero;stroke:#000000;stroke-width:3.29999995;stroke-miterlimit:4;stroke-opacity:1;stroke-dasharray:none;marker:none;visibility:visible;display:inline;overflow:visible;enable-background:accumulate"
         sodipodi:type="arc" />
      <path
         d="m 10.537124,1077.2157 9.226935,0 0,-11.4711 4.9875,0 0,11.4711 8.728068,0 0,4.7382 -8.728068,0 0,2.4937 c 3.657462,3.99 6.816174,7.8969 9.47625,11.7206 l -3.241932,4.7382 c -2.161212,-3.6575 -4.239318,-6.8994 -6.234318,-9.7257 l 0,31.9201 -4.9875,0 0,-28.1794 c -1.995,5.6526 -4.738182,10.5568 -8.229434,14.7131 l -3.4912537,-3.4913 c 5.4862557,-6.8162 9.2269377,-14.8793 11.2219377,-24.1893 l -8.728185,0 0,-4.7382 m 54.114435,-8.4787 0,54.3638 -4.738182,0 0,-5.4863 -19.45125,0 0,5.4863 -4.738068,0 0,-54.3638 28.9275,0 m -24.189432,14.7131 19.45125,0 0,-10.2243 -19.45125,0 0,10.2243 m 0,14.7132 19.45125,0 0,-10.2244 -19.45125,0 0,10.2244 m 0,14.9625 19.45125,0 0,-10.4738 -19.45125,0 0,10.4738"
         style="font-size:56px;font-style:normal;font-variant:normal;font-weight:normal;font-stretch:normal;text-align:start;line-height:125%;letter-spacing:0px;word-spacing:0px;writing-mode:lr-tb;text-anchor:start;fill:#000000;fill-opacity:1;stroke:none;font-family:WenQuanYi Micro Hei Mono;-inkscape-font-specification:WenQuanYi Micro Hei Mono"
         id="path4159"
         inkscape:connector-curvature="0" />
    </g>
    <flowRoot
       xml:space="preserve"
       id="flowRoot4531"
       style="font-size:40px;font-style:normal;font-weight:normal;line-height:125%;letter-spacing:0px;word-spacing:0px;fill:#000000;fill-opacity:1;stroke:none;font-family:Sans"><flowRegion
         id="flowRegion4533"><rect
           id="rect4535"
           width="3112.199"
           height="1194.5059"
           x="-1251.8622"
           y="-172.0687" /></flowRegion><flowPara
         id="flowPara4537" /></flowRoot>    <flowRoot
       xml:space="preserve"
       id="flowRoot4539"
       style="font-size:40px;font-style:normal;font-weight:normal;line-height:125%;letter-spacing:0px;word-spacing:0px;fill:#000000;fill-opacity:1;stroke:none;font-family:Sans"><flowRegion
         id="flowRegion4541"><rect
           id="rect4543"
           width="3249.3552"
           height="1269.3184"
           x="-1416.4496"
           y="-226.93118" /></flowRegion><flowPara
         id="flowPara4545" /></flowRoot>  </g>
</svg>
