<?xml version="1.0" encoding="UTF-8" standalone="no"?>
<!-- Created with Inkscape (http://www.inkscape.org/) -->

<svg
   xmlns:dc="http://purl.org/dc/elements/1.1/"
   xmlns:cc="http://creativecommons.org/ns#"
   xmlns:rdf="http://www.w3.org/1999/02/22-rdf-syntax-ns#"
   xmlns:svg="http://www.w3.org/2000/svg"
   xmlns="http://www.w3.org/2000/svg"
   xmlns:sodipodi="http://sodipodi.sourceforge.net/DTD/sodipodi-0.dtd"
   xmlns:inkscape="http://www.inkscape.org/namespaces/inkscape"
   width="83.09375"
   height="83.09375"
   id="svg2"
   version="1.1"
   inkscape:version="0.48.5 r10040"
   sodipodi:docname="red_king.svg">
  <defs
     id="defs4" />
  <sodipodi:namedview
     id="base"
     pagecolor="#ffffff"
     bordercolor="#666666"
     borderopacity="1.0"
     inkscape:pageopacity="0.0"
     inkscape:pageshadow="2"
     inkscape:zoom="0.80200525"
     inkscape:cx="761.56295"
     inkscape:cy="146.75677"
     inkscape:document-units="px"
     inkscape:current-layer="layer1"
     showgrid="false"
     fit-margin-top="0"
     fit-margin-left="0"
     fit-margin-right="0"
     fit-margin-bottom="0"
     inkscape:window-width="1920"
     inkscape:window-height="1024"
     inkscape:window-x="0"
     inkscape:window-y="0"
     inkscape:window-maximized="1" />
  <metadata
     id="metadata7">
    <rdf:RDF>
      <cc:Work
         rdf:about="">
        <dc:format>image/svg+xml</dc:format>
        <dc:type
           rdf:resource="http://purl.org/dc/dcmitype/StillImage" />
        <dc:title></dc:title>
      </cc:Work>
    </rdf:RDF>
  </metadata>
  <g
     inkscape:label="Layer 1"
     inkscape:groupmode="layer"
     id="layer1"
     transform="translate(178.16667,-1052.5569)">
    <g
       id="g4568">
      <path
         sodipodi:type="arc"
         style="color:#000000;fill:#ffffff;fill-opacity:1;fill-rule:nonzero;stroke:#000000;stroke-width:3.29999995;stroke-miterlimit:4;stroke-opacity:1;stroke-dasharray:none;marker:none;visibility:visible;display:inline;overflow:visible;enable-background:accumulate"
         id="path4489"
         sodipodi:cx="250.6218"
         sodipodi:cy="781.79041"
         sodipodi:rx="39.899986"
         sodipodi:ry="39.899986"
         d="m 290.52178,781.79041 c 0,22.03615 -17.86383,39.89998 -39.89998,39.89998 -22.03616,0 -39.89999,-17.86383 -39.89999,-39.89998 0,-22.03616 17.86383,-39.89999 39.89999,-39.89999 22.03615,0 39.89998,17.86383 39.89998,39.89999 z"
         transform="translate(-387.22917,312.30687)" />
      <path
         d="m -127.94487,1065.0254 5.25,0 0,9.7125 13.125,0 0,32.55 c -1.2e-4,2.275 -0.52512,3.9375 -1.575,4.9875 -1.05012,1.05 -2.62512,1.575 -4.725,1.575 -1.05012,0 -2.36256,-0.088 -3.93756,-0.2625 l -1.31244,-5.25 c 2.27496,0.175 3.93744,0.2626 4.98744,0.2625 0.87492,10e-5 1.31244,-0.8749 1.31256,-2.625 l 0,-26.25 -7.875,0 0,45.9375 -5.25,0 0,-45.9375 -7.61256,0 0,33.8625 -5.25,0 0,-38.85 12.86256,0 0,-9.7125 m -24.41256,0.2625 5.25,0 0,29.925 c 0,12.4251 -3.84996,22.575 -11.55,30.45 l -4.2,-3.4125 c 6.99996,-7.35 10.5,-16.3625 10.5,-27.0375 l 0,-29.925 m -11.28744,5.5125 5.25,0 0,37.8 -5.25,0 0,-37.8"
         style="font-size:56px;font-style:normal;font-variant:normal;font-weight:normal;font-stretch:normal;text-align:start;line-height:125%;letter-spacing:0px;word-spacing:0px;writing-mode:lr-tb;text-anchor:start;fill:#000000;fill-opacity:1;stroke:none;font-family:WenQuanYi Micro Hei Mono;-inkscape-font-specification:WenQuanYi Micro Hei Mono"
         id="path4233"
         inkscape:connector-curvature="0" />
    </g>
    <flowRoot
       xml:space="preserve"
       id="flowRoot4531"
       style="font-size:40px;font-style:normal;font-weight:normal;line-height:125%;letter-spacing:0px;word-spacing:0px;fill:#000000;fill-opacity:1;stroke:none;font-family:Sans"><flowRegion
         id="flowRegion4533"><rect
           id="rect4535"
           width="3112.199"
           height="1194.5059"
           x="-1251.8622"
           y="-172.0687" /></flowRegion><flowPara
         id="flowPara4537"></flowPara></flowRoot>    <flowRoot
       xml:space="preserve"
       id="flowRoot4539"
       style="font-size:40px;font-style:normal;font-weight:normal;line-height:125%;letter-spacing:0px;word-spacing:0px;fill:#000000;fill-opacity:1;stroke:none;font-family:Sans"><flowRegion
         id="flowRegion4541"><rect
           id="rect4543"
           width="3249.3552"
           height="1269.3184"
           x="-1416.4496"
           y="-226.93118" /></flowRegion><flowPara
         id="flowPara4545"></flowPara></flowRoot>  </g>
</svg>
