<?xml version="1.0" encoding="UTF-8" standalone="no"?>
<!-- Created with Inkscape (http://www.inkscape.org/) -->

<svg
   xmlns:dc="http://purl.org/dc/elements/1.1/"
   xmlns:cc="http://creativecommons.org/ns#"
   xmlns:rdf="http://www.w3.org/1999/02/22-rdf-syntax-ns#"
   xmlns:svg="http://www.w3.org/2000/svg"
   xmlns="http://www.w3.org/2000/svg"
   xmlns:xlink="http://www.w3.org/1999/xlink"
   xmlns:sodipodi="http://sodipodi.sourceforge.net/DTD/sodipodi-0.dtd"
   xmlns:inkscape="http://www.inkscape.org/namespaces/inkscape"
   version="1.0"
   width="100.04163"
   height="99.995232"
   id="svg2"
   sodipodi:version="0.32"
   inkscape:version="0.48.4 r9939"
   sodipodi:docname="black_elephant.svg"
   inkscape:output_extension="org.inkscape.output.svg.inkscape">
  <metadata
     id="metadata11">
    <rdf:RDF>
      <cc:Work
         rdf:about="">
        <dc:format>image/svg+xml</dc:format>
        <dc:type
           rdf:resource="http://purl.org/dc/dcmitype/StillImage" />
        <dc:title></dc:title>
      </cc:Work>
    </rdf:RDF>
  </metadata>
  <sodipodi:namedview
     inkscape:window-height="979"
     inkscape:window-width="1679"
     inkscape:pageshadow="2"
     inkscape:pageopacity="0.0"
     guidetolerance="10.0"
     gridtolerance="10.0"
     objecttolerance="10.0"
     borderopacity="1.0"
     bordercolor="#666666"
     pagecolor="#ffffff"
     id="base"
     inkscape:zoom="0.49"
     inkscape:cx="13.087568"
     inkscape:cy="5.8550876"
     inkscape:window-x="0"
     inkscape:window-y="42"
     inkscape:current-layer="layer3"
     showgrid="false"
     height="1052.36px"
     width="744px"
     units="mm"
     inkscape:window-maximized="0"
     fit-margin-top="0"
     fit-margin-left="0"
     fit-margin-right="0"
     fit-margin-bottom="0" />
  <defs
     id="defs3">
    <inkscape:perspective
       sodipodi:type="inkscape:persp3d"
       inkscape:vp_x="0 : 526.18109 : 1"
       inkscape:vp_y="0 : 1000 : 0"
       inkscape:vp_z="744.09448 : 526.18109 : 1"
       inkscape:persp3d-origin="372.04724 : 350.78739 : 1"
       id="perspective153" />
    <linearGradient
       id="linearGradient6462">
      <stop
         style="stop-color:black;stop-opacity:1;"
         offset="0"
         id="stop6464" />
      <stop
         style="stop-color:black;stop-opacity:0;"
         offset="1"
         id="stop6466" />
    </linearGradient>
    <linearGradient
       inkscape:collect="always"
       xlink:href="#linearGradient6462"
       id="linearGradient6468"
       x1="24"
       y1="229.36218"
       x2="90"
       y2="229.36218"
       gradientUnits="userSpaceOnUse" />
    <linearGradient
       inkscape:collect="always"
       xlink:href="#linearGradient6462"
       id="linearGradient3442"
       gradientUnits="userSpaceOnUse"
       x1="24"
       y1="229.36218"
       x2="90"
       y2="229.36218" />
  </defs>
  <g
     inkscape:groupmode="layer"
     id="layer1"
     inkscape:label="stones"
     style="display:inline"
     transform="translate(-393.94702,-434.36034)" />
  <g
     inkscape:groupmode="layer"
     id="layer3"
     inkscape:label="pieces"
     style="display:inline"
     transform="translate(-393.94702,-434.36034)">
    <path
       d="m 89,229.36218 c 0,17.67311 -14.326888,32 -32,32 -17.673112,0 -32,-14.32689 -32,-32 0,-17.67311 14.326888,-32 32,-32 17.673112,0 32,14.32689 32,32 z"
       sodipodi:ry="32"
       sodipodi:rx="32"
       sodipodi:cy="229.36218"
       sodipodi:cx="57"
       id="path17576"
       style="fill:#ffeda2;fill-opacity:1;stroke:#000000;stroke-width:3.36734796;stroke-miterlimit:4;stroke-opacity:1;stroke-dasharray:none;display:inline"
       sodipodi:type="arc"
       transform="matrix(1.484848,0,0,1.484848,359.3315,143.79415)" />
    <path
       style="font-size:64px;font-style:normal;font-variant:normal;font-weight:normal;font-stretch:normal;line-height:100%;writing-mode:lr-tb;text-anchor:start;fill:#000000;fill-opacity:1;stroke:none;display:inline;font-family:AR PL ZenKai Uni"
       d="m 448.03186,491.64182 c 2.74996,2.87501 5.58329,5.625 8.5,8.25 1.04162,0.91667 2.43745,1.35417 4.1875,1.3125 3.12495,-0.125 6.27078,-0.625 9.4375,-1.5 0.79161,-0.16666 1.22911,-0.35416 1.3125,-0.5625 0.0416,-0.29166 -0.25006,-0.5625 -0.875,-0.8125 -8.29172,-1.875 -14.54171,-4.12499 -18.75,-6.75 -0.50004,-0.29166 -0.97921,-0.60416 -1.4375,-0.9375 -1.6667,-1.16665 -2.89587,-1.99999 -3.6875,-2.5 -0.2917,-0.62499 -0.6042,-1.08332 -0.9375,-1.375 4.12496,-2.24998 7.16663,-3.74998 9.125,-4.5 0.79162,-0.12498 1.14579,-0.43748 1.0625,-0.9375 -0.16671,-0.74998 -0.62504,-1.58331 -1.375,-2.5 -0.75004,-0.91664 -1.62504,-1.47914 -2.625,-1.6875 -0.66671,-0.0416 -1.02087,0.35419 -1.0625,1.1875 0.0416,1.00002 -1.95837,3.47919 -6,7.4375 -2.25003,-2.54165 -5.00003,-4.27081 -8.25,-5.1875 0.87497,-0.91664 1.68747,-1.49998 2.4375,-1.75 0.29164,-0.0416 0.45831,-0.27081 0.5,-0.6875 0.0416,-0.62498 -0.25003,-1.27081 -0.875,-1.9375 3.12497,-0.41664 6.93747,-0.79164 11.4375,-1.125 l 0.0625,0.0625 c 0.12496,0.66669 0.45829,1.02086 1,1.0625 0.66663,-0.0416 1.72913,-0.93747 3.1875,-2.6875 0.87496,-2.04164 2.12496,-3.6458 3.75,-4.8125 0.87495,-0.54163 0.99995,-1.18747 0.375,-1.9375 -0.66671,-0.79163 -2.00004,-1.8333 -4,-3.125 -0.66671,-0.49996 -1.43754,-0.62496 -2.3125,-0.375 -1.54171,0.2917 -3.27087,0.58337 -5.1875,0.875 -1.1667,0.12504 -2.2917,0.2917 -3.375,0.5 4.37496,-3.74996 7.06246,-5.85412 8.0625,-6.3125 0.74996,-0.41662 0.89579,-0.91662 0.4375,-1.5 -0.54171,-0.54162 -1.56254,-1.29162 -3.0625,-2.25 -0.6667,-0.29162 -1.31254,-0.24995 -1.9375,0.125 -0.37504,0.16671 -2.0417,0.68755 -5,1.5625 -0.75003,0.16671 -1.50003,0.31254 -2.25,0.4375 -3e-5,-0.41662 -0.31253,-1.12495 -0.9375,-2.125 -0.62503,-0.79162 -1.20836,-1.29162 -1.75,-1.5 -0.62503,-0.12495 -0.91669,0.18755 -0.875,0.9375 0.16664,1.04171 -1.16669,2.89588 -4,5.5625 -1.37502,1.16671 -2.91668,2.35421 -4.625,3.5625 -0.41668,0.1667 -0.68752,0.3542 -0.8125,0.5625 -0.16668,0.2917 -0.0417,0.4792 0.375,0.5625 1.87498,0.25004 5.24998,-1.52079 10.125,-5.3125 0.49997,-0.41662 0.99997,-0.74996 1.5,-1 0.87497,0.37504 2.79164,0.31254 5.75,-0.1875 0.62497,-0.24996 1.04163,-0.27079 1.25,-0.0625 0.12497,0.12504 0.0625,0.35421 -0.1875,0.6875 -0.75003,1.25004 -2.12503,3.41671 -4.125,6.5 -2.29169,0.2917 -4.45836,0.64587 -6.5,1.0625 -4.00002,0.75003 -7.29168,1.12503 -9.875,1.125 -0.54168,-0.0416 -0.85418,0.0417 -0.9375,0.25 -0.25001,0.2917 -0.14585,0.7292 0.3125,1.3125 1.16665,1.6667 2.24998,3.95836 3.25,6.875 0.24998,0.87502 0.68748,1.58336 1.3125,2.125 0.79165,0.79169 1.27081,0.85419 1.4375,0.1875 0.0417,-0.16664 0.0625,-0.35414 0.0625,-0.5625 0.0417,2e-5 1.68748,-0.20831 4.9375,-0.625 -0.0417,0.0417 -0.0834,0.14586 -0.125,0.3125 -2.66669,3.50002 -7.25002,6.64585 -13.75,9.4375 -0.29168,0.0417 -0.31251,0.18751 -0.0625,0.4375 2.12499,0.41668 5.33332,-0.49998 9.625,-2.75 0.12498,-0.12498 1.45831,-0.97915 4,-2.5625 0.12498,0.25002 0.49998,0.56252 1.125,0.9375 -1.41669,3.25002 -5.95835,7.14585 -13.625,11.6875 -0.75001,0.41667 -0.66668,0.60417 0.25,0.5625 2.79165,0.12501 7.06248,-2.14582 12.8125,-6.8125 1.04164,-1.12499 2.35414,-2.22915 3.9375,-3.3125 -3e-5,-0.0417 0.0208,-0.0625 0.0625,-0.0625 0.66664,0.50002 1.29164,1.04168 1.875,1.625 -3.62503,5.75001 -9.93752,11.45834 -18.9375,17.125 -0.62501,0.41666 -0.72918,0.70833 -0.3125,0.875 0.37499,0.25 0.83332,0.27083 1.375,0.0625 5.62498,-1.41667 11.37498,-5.35416 17.25,-11.8125 1.87497,-1.99999 2.79163,-3.06249 2.75,-3.1875 0.0416,-0.0417 0.0625,-0.10415 0.0625,-0.1875 1.49997,2.62501 1.66663,6.47917 0.5,11.5625 -0.37503,1.54167 -0.81253,2.4375 -1.3125,2.6875 -0.5417,0.29166 -2.08336,0.27083 -4.625,-0.0625 -2.12502,-0.375 -3.20836,-0.375 -3.25,0 -0.0417,0.375 0.24998,0.8125 0.875,1.3125 2.91664,2.04166 5.04164,3.79166 6.375,5.25 0.62497,0.79166 1.24997,1.06249 1.875,0.8125 0.79163,-0.29168 1.5833,-1.08334 2.375,-2.375 0.79163,-1.66667 1.37496,-3.83334 1.75,-6.5 0.41663,-3.66666 0.3958,-6.58333 -0.0625,-8.75 -0.12504,-0.41666 -0.25004,-0.85416 -0.375,-1.3125 m 1.4375,-18.9375 c -0.62504,-0.37497 -1.5417,-0.41664 -2.75,-0.125 -1.6667,0.37503 -3.31253,0.72919 -4.9375,1.0625 0.24997,-3.7083 0.37497,-5.5833 0.375,-5.625 -0.37503,-0.41663 -0.75003,-0.7708 -1.125,-1.0625 6.49996,-1.16663 10.33329,-1.43746 11.5,-0.8125 0.16663,0.1667 0.16663,0.6667 0,1.5 -0.91671,3.00003 -1.56254,4.77086 -1.9375,5.3125 -0.0417,0.12503 -0.12504,0.27086 -0.25,0.4375 -0.25004,-0.16664 -0.5417,-0.3958 -0.875,-0.6875 m -19,2.6875 c -0.54169,-1.62497 -1.04168,-3.6458 -1.5,-6.0625 2.29165,-0.74997 5.47914,-1.41663 9.5625,-2 0.0416,0.12503 0.29164,2.39586 0.75,6.8125 -3.25002,0.50003 -6.18752,0.91669 -8.8125,1.25"
       id="text17584"
       inkscape:connector-curvature="0" />
  </g>
</svg>
