<?xml version="1.0" encoding="UTF-8" standalone="no"?>
<!-- Created with Inkscape (http://www.inkscape.org/) -->

<svg
   xmlns:dc="http://purl.org/dc/elements/1.1/"
   xmlns:cc="http://creativecommons.org/ns#"
   xmlns:rdf="http://www.w3.org/1999/02/22-rdf-syntax-ns#"
   xmlns:svg="http://www.w3.org/2000/svg"
   xmlns="http://www.w3.org/2000/svg"
   xmlns:xlink="http://www.w3.org/1999/xlink"
   xmlns:sodipodi="http://sodipodi.sourceforge.net/DTD/sodipodi-0.dtd"
   xmlns:inkscape="http://www.inkscape.org/namespaces/inkscape"
   version="1.0"
   width="100.04163"
   height="99.995232"
   id="svg2"
   sodipodi:version="0.32"
   inkscape:version="0.48.4 r9939"
   sodipodi:docname="black_advisor.svg"
   inkscape:output_extension="org.inkscape.output.svg.inkscape">
  <metadata
     id="metadata11">
    <rdf:RDF>
      <cc:Work
         rdf:about="">
        <dc:format>image/svg+xml</dc:format>
        <dc:type
           rdf:resource="http://purl.org/dc/dcmitype/StillImage" />
        <dc:title></dc:title>
      </cc:Work>
    </rdf:RDF>
  </metadata>
  <sodipodi:namedview
     inkscape:window-height="979"
     inkscape:window-width="1679"
     inkscape:pageshadow="2"
     inkscape:pageopacity="0.0"
     guidetolerance="10.0"
     gridtolerance="10.0"
     objecttolerance="10.0"
     borderopacity="1.0"
     bordercolor="#666666"
     pagecolor="#ffffff"
     id="base"
     inkscape:zoom="0.49"
     inkscape:cx="800.98161"
     inkscape:cy="-350.85616"
     inkscape:window-x="0"
     inkscape:window-y="42"
     inkscape:current-layer="layer3"
     showgrid="false"
     height="1052.36px"
     width="744px"
     units="mm"
     inkscape:window-maximized="0"
     fit-margin-top="0"
     fit-margin-left="0"
     fit-margin-right="0"
     fit-margin-bottom="0" />
  <defs
     id="defs3">
    <inkscape:perspective
       sodipodi:type="inkscape:persp3d"
       inkscape:vp_x="0 : 526.18109 : 1"
       inkscape:vp_y="0 : 1000 : 0"
       inkscape:vp_z="744.09448 : 526.18109 : 1"
       inkscape:persp3d-origin="372.04724 : 350.78739 : 1"
       id="perspective153" />
    <linearGradient
       id="linearGradient6462">
      <stop
         style="stop-color:black;stop-opacity:1;"
         offset="0"
         id="stop6464" />
      <stop
         style="stop-color:black;stop-opacity:0;"
         offset="1"
         id="stop6466" />
    </linearGradient>
    <linearGradient
       inkscape:collect="always"
       xlink:href="#linearGradient6462"
       id="linearGradient6468"
       x1="24"
       y1="229.36218"
       x2="90"
       y2="229.36218"
       gradientUnits="userSpaceOnUse" />
    <linearGradient
       inkscape:collect="always"
       xlink:href="#linearGradient6462"
       id="linearGradient3442"
       gradientUnits="userSpaceOnUse"
       x1="24"
       y1="229.36218"
       x2="90"
       y2="229.36218" />
  </defs>
  <g
     inkscape:groupmode="layer"
     id="layer1"
     inkscape:label="stones"
     style="display:inline"
     transform="translate(-393.94702,-174.87951)" />
  <g
     inkscape:groupmode="layer"
     id="layer3"
     inkscape:label="pieces"
     style="display:inline"
     transform="translate(-393.94702,-174.87951)">
    <path
       transform="matrix(1.484848,0,0,1.484848,359.3315,-115.68668)"
       sodipodi:type="arc"
       style="fill:#ffeda2;fill-opacity:1;stroke:#000000;stroke-width:3.36734796;stroke-miterlimit:4;stroke-opacity:1;stroke-dasharray:none;display:inline"
       id="path17528"
       sodipodi:cx="57"
       sodipodi:cy="229.36218"
       sodipodi:rx="32"
       sodipodi:ry="32"
       d="m 89,229.36218 c 0,17.67311 -14.326888,32 -32,32 -17.673112,0 -32,-14.32689 -32,-32 0,-17.67311 14.326888,-32 32,-32 17.673112,0 32,14.32689 32,32 z" />
    <path
       style="font-size:64px;font-style:normal;font-variant:normal;font-weight:normal;font-stretch:normal;line-height:100%;writing-mode:lr-tb;text-anchor:start;fill:#000000;fill-opacity:1;stroke:none;display:inline;font-family:AR PL ZenKai Uni"
       d="m 441.65585,241.72351 c -4.54169,0.54167 -9.35418,1.14584 -14.4375,1.8125 -1.04168,0.12501 -1.18751,0.60417 -0.4375,1.4375 1.41665,1.41667 3.33332,1.85417 5.75,1.3125 5.66664,-1.41666 14.29163,-2.12499 25.875,-2.125 0.66662,1e-5 1.33329,0.0208 2,0.0625 0.99995,1e-5 1.60412,-0.20833 1.8125,-0.625 0.29162,-0.54166 0.0416,-1.16666 -0.75,-1.875 -2.66671,-1.99999 -5.41671,-2.66666 -8.25,-2 -2.2917,0.41668 -5.00003,0.91668 -8.125,1.5 0.16664,-6.29165 0.29164,-12.29165 0.375,-18 8.87496,-1.12497 16.99995,-1.27081 24.375,-0.4375 1.12494,0.12503 1.83328,-0.0208 2.125,-0.4375 0.29161,-0.66664 0.16661,-1.24997 -0.375,-1.75 -1.41672,-1.29164 -3.14589,-2.37497 -5.1875,-3.25 -0.66672,-0.29163 -1.60422,-0.22913 -2.8125,0.1875 -1.54171,0.4167 -7.56254,1.31253 -18.0625,2.6875 -3e-5,-8.66663 0.41664,-14.35412 1.25,-17.0625 0.54163,-0.99995 0.47913,-1.81245 -0.1875,-2.4375 -1.75003,-1.37495 -3.33336,-2.27078 -4.75,-2.6875 -0.75003,-0.16662 -1.47919,0.0625 -2.1875,0.6875 -0.29169,0.37505 -0.29169,0.83338 0,1.375 1.37497,2.25005 2.04164,4.64588 2,7.1875 -3e-5,4.2917 -3e-5,8.77087 0,13.4375 -4.79169,0.54169 -8.93752,1.08336 -12.4375,1.625 -4.16668,0.66669 -7.83334,1.00003 -11,1 -0.66667,3e-5 -1.02084,0.27086 -1.0625,0.8125 0,0.54169 0.4375,1.14586 1.3125,1.8125 1.87499,1.25002 3.89583,1.62502 6.0625,1.125 3.99999,-1.49998 9.70831,-2.62498 17.125,-3.375 -3e-5,5.79169 -3e-5,11.79168 0,18"
       id="text17536"
       inkscape:connector-curvature="0" />
  </g>
</svg>
