<?xml version="1.0" encoding="UTF-8" standalone="no"?>
<!-- Created with Inkscape (http://www.inkscape.org/) -->

<svg
   xmlns:dc="http://purl.org/dc/elements/1.1/"
   xmlns:cc="http://creativecommons.org/ns#"
   xmlns:rdf="http://www.w3.org/1999/02/22-rdf-syntax-ns#"
   xmlns:svg="http://www.w3.org/2000/svg"
   xmlns="http://www.w3.org/2000/svg"
   xmlns:xlink="http://www.w3.org/1999/xlink"
   xmlns:sodipodi="http://sodipodi.sourceforge.net/DTD/sodipodi-0.dtd"
   xmlns:inkscape="http://www.inkscape.org/namespaces/inkscape"
   version="1.0"
   width="100.04163"
   height="99.995232"
   id="svg2"
   sodipodi:version="0.32"
   inkscape:version="0.48.4 r9939"
   sodipodi:docname="black_cannon.svg"
   inkscape:output_extension="org.inkscape.output.svg.inkscape">
  <metadata
     id="metadata11">
    <rdf:RDF>
      <cc:Work
         rdf:about="">
        <dc:format>image/svg+xml</dc:format>
        <dc:type
           rdf:resource="http://purl.org/dc/dcmitype/StillImage" />
        <dc:title></dc:title>
      </cc:Work>
    </rdf:RDF>
  </metadata>
  <sodipodi:namedview
     inkscape:window-height="979"
     inkscape:window-width="1679"
     inkscape:pageshadow="2"
     inkscape:pageopacity="0.0"
     guidetolerance="10.0"
     gridtolerance="10.0"
     objecttolerance="10.0"
     borderopacity="1.0"
     bordercolor="#666666"
     pagecolor="#ffffff"
     id="base"
     inkscape:zoom="0.49"
     inkscape:cx="955.80577"
     inkscape:cy="310.48442"
     inkscape:window-x="0"
     inkscape:window-y="42"
     inkscape:current-layer="layer3"
     showgrid="false"
     height="1052.36px"
     width="744px"
     units="mm"
     inkscape:window-maximized="0"
     fit-margin-top="0"
     fit-margin-left="0"
     fit-margin-right="0"
     fit-margin-bottom="0" />
  <defs
     id="defs3">
    <inkscape:perspective
       sodipodi:type="inkscape:persp3d"
       inkscape:vp_x="0 : 526.18109 : 1"
       inkscape:vp_y="0 : 1000 : 0"
       inkscape:vp_z="744.09448 : 526.18109 : 1"
       inkscape:persp3d-origin="372.04724 : 350.78739 : 1"
       id="perspective153" />
    <linearGradient
       id="linearGradient6462">
      <stop
         style="stop-color:black;stop-opacity:1;"
         offset="0"
         id="stop6464" />
      <stop
         style="stop-color:black;stop-opacity:0;"
         offset="1"
         id="stop6466" />
    </linearGradient>
    <linearGradient
       inkscape:collect="always"
       xlink:href="#linearGradient6462"
       id="linearGradient6468"
       x1="24"
       y1="229.36218"
       x2="90"
       y2="229.36218"
       gradientUnits="userSpaceOnUse" />
    <linearGradient
       inkscape:collect="always"
       xlink:href="#linearGradient6462"
       id="linearGradient3442"
       gradientUnits="userSpaceOnUse"
       x1="24"
       y1="229.36218"
       x2="90"
       y2="229.36218" />
  </defs>
  <g
     inkscape:groupmode="layer"
     id="layer1"
     inkscape:label="stones"
     style="display:inline"
     transform="translate(-393.94702,-694.09783)" />
  <g
     inkscape:groupmode="layer"
     id="layer3"
     inkscape:label="pieces"
     style="display:inline"
     transform="translate(-393.94702,-694.09783)">
    <path
       d="m 89,229.36218 c 0,17.67311 -14.326888,32 -32,32 -17.673112,0 -32,-14.32689 -32,-32 0,-17.67311 14.326888,-32 32,-32 17.673112,0 32,14.32689 32,32 z"
       sodipodi:ry="32"
       sodipodi:rx="32"
       sodipodi:cy="229.36218"
       sodipodi:cx="57"
       id="path17544"
       style="fill:#ffeda2;fill-opacity:1;stroke:#000000;stroke-width:3.36734796;stroke-miterlimit:4;stroke-opacity:1;stroke-dasharray:none;display:inline"
       sodipodi:type="arc"
       transform="matrix(1.484848,0,0,1.484848,359.3315,403.53164)" />
    <path
       style="font-size:64px;font-style:normal;font-variant:normal;font-weight:normal;font-stretch:normal;line-height:100%;writing-mode:lr-tb;text-anchor:start;fill:#000000;fill-opacity:1;stroke:none;display:inline;font-family:AR PL ZenKai Uni"
       d="m 426.37308,753.56641 c 0.37498,0.0417 0.79165,10e-6 1.25,-0.125 1.62498,-0.49999 4.18748,-1.02082 7.6875,-1.5625 0.41664,-0.0417 0.64581,-0.27082 0.6875,-0.6875 -3e-5,-0.29166 -0.52086,-0.70832 -1.5625,-1.25 0.79164,-2.99998 1.64581,-4.93748 2.5625,-5.8125 0.87497,-0.99998 0.85414,-1.77081 -0.0625,-2.3125 -0.75003,-0.41665 -1.64586,-0.97915 -2.6875,-1.6875 -0.75003,-0.49998 -1.97919,-0.20831 -3.6875,0.875 -1.62502,0.62502 -3.41669,1.20835 -5.375,1.75 1.12498,-2.37498 2.41665,-5.41664 3.875,-9.125 0.54164,-1.49997 0.83331,-2.29164 0.875,-2.375 -0.41669,-0.74997 -1.02085,-1.2083 -1.8125,-1.375 6.62497,-1.87497 10.06247,-2.91663 10.3125,-3.125 0.37497,-0.37496 0.43747,-0.72913 0.1875,-1.0625 -0.2917,-0.49996 -1.08336,-0.85413 -2.375,-1.0625 -1.29169,-0.16663 -2.56253,0.0417 -3.8125,0.625 -1.66669,0.6667 -3.41669,1.2917 -5.25,1.875 -2.04168,0.5417 -4.25002,1.00003 -6.625,1.375 -1.54168,0.37503 -1.72918,0.87503 -0.5625,1.5 1.12499,0.62503 2.70832,0.87503 4.75,0.75 0.62498,2.12503 -0.12502,5.87503 -2.25,11.25 -0.12501,-0.0417 -0.27085,-0.0833 -0.4375,-0.125 -0.50001,-0.12498 -0.79168,-0.0833 -0.875,0.125 -0.25001,0.16669 -0.22918,0.58335 0.0625,1.25 0.0417,0.16669 0.14582,0.43752 0.3125,0.8125 -2.75001,4.50001 -5.50001,8.56251 -8.25,12.1875 -0.29167,0.25001 -0.20834,0.39584 0.25,0.4375 2.24999,-0.74999 5.20832,-3.74999 8.875,-9 -1e-5,-0.12499 0.0625,-0.22915 0.1875,-0.3125 0.41665,1.75001 0.81248,3.81251 1.1875,6.1875 0.0417,1.29167 0.43748,2.35417 1.1875,3.1875 0.62498,0.875 1.04165,1 1.25,0.375 0.29165,-0.79166 0.33331,-1.97916 0.125,-3.5625 m 4.625,-3.6875 c -1.79169,0.66668 -3.43752,1.20834 -4.9375,1.625 -0.54168,-3.37499 -0.87502,-5.68748 -1,-6.9375 0.24998,-0.0417 0.54165,-0.12498 0.875,-0.25 1.66665,-0.41665 3.24998,-0.81248 4.75,-1.1875 0.99998,-0.24998 1.60414,-0.18748 1.8125,0.1875 0.29164,0.25002 0.27081,1.04168 -0.0625,2.375 -0.29169,1.25002 -0.62502,2.60418 -1,4.0625 -0.16669,10e-6 -0.31252,0.0417 -0.4375,0.125 m 12.8125,-19.75 c 0.24996,0.1667 0.60413,0.3542 1.0625,0.5625 0.91663,0.5417 1.74996,0.68753 2.5,0.4375 7.87495,-2.24997 12.06245,-3.04163 12.5625,-2.375 0.41661,0.5417 0.56245,1.6042 0.4375,3.1875 -0.16672,4.25003 -0.72922,7.33336 -1.6875,9.25 -0.66672,1.29169 -1.56255,1.87502 -2.6875,1.75 -0.50005,2e-5 -0.97921,-0.0208 -1.4375,-0.0625 -1.04171,-0.29165 -1.18755,0.0417 -0.4375,1 1.16662,1.50002 2.02078,2.79168 2.5625,3.875 0.79162,0.79168 1.56245,0.83335 2.3125,0.125 2.37495,-1.74998 3.95828,-5.68748 4.75,-11.8125 0.16661,-3.99997 0.68744,-6.5208 1.5625,-7.5625 0.49994,-0.54163 0.60411,-1.0208 0.3125,-1.4375 -0.37506,-0.41663 -1.62506,-1.06246 -3.75,-1.9375 -0.79172,-0.29163 -1.58339,-0.16663 -2.375,0.375 -0.79172,0.50004 -2.77088,1.14587 -5.9375,1.9375 -3.16671,0.7917 -6.10421,1.31253 -8.8125,1.5625 1.54163,-1.91663 3.20829,-4.29163 5,-7.125 0.74996,-1.41662 1.45829,-2.45829 2.125,-3.125 0.41662,-0.49996 0.49996,-1.02079 0.25,-1.5625 -0.16671,-0.54162 -0.87504,-1.27079 -2.125,-2.1875 -1.16671,-0.74995 -2.14587,-1.10412 -2.9375,-1.0625 -0.79171,0.12505 -1.00004,0.64588 -0.625,1.5625 0.49996,0.91671 0.58329,1.77088 0.25,2.5625 -0.9167,2.75004 -2.1042,5.41671 -3.5625,8 -1.4167,2.50003 -3.12503,5.12503 -5.125,7.875 -0.4167,0.41669 -0.6667,0.79169 -0.75,1.125 -0.12503,0.41669 0.10414,0.58336 0.6875,0.5 1.04164,-0.24997 2.99997,-2.06247 5.875,-5.4375 m -1.125,8.0625 c -0.4167,-0.37498 -0.95837,-0.68748 -1.625,-0.9375 -0.5417,-0.16664 -0.95837,-0.14581 -1.25,0.0625 -0.2917,0.16669 -0.33337,0.60419 -0.125,1.3125 0.49997,1.54169 0.68747,3.04169 0.5625,4.5 -0.62503,8.62501 -0.56253,14.14584 0.1875,16.5625 0.16663,1.25 0.85413,2.39583 2.0625,3.4375 3.74996,3.125 10.08329,4.10416 19,2.9375 0.79161,-0.16667 1.64578,-0.35417 2.5625,-0.5625 2.16661,-0.625 4.31244,-1.66667 6.4375,-3.125 0.87494,-0.66667 1.02077,-1.5625 0.4375,-2.6875 -0.54173,-0.875 -1.2084,-2.70833 -2,-5.5 -0.0417,-0.66666 -0.20839,-1.12499 -0.5,-1.375 -0.25006,-0.16666 -0.47923,0.14584 -0.6875,0.9375 -1.25006,3.04167 -2.22922,5.02084 -2.9375,5.9375 -0.75006,0.91667 -2.22922,1.66667 -4.4375,2.25 -5.12505,1.25 -9.79171,1.04167 -14,-0.625 -1.6667,-0.79166 -2.70837,-1.70833 -3.125,-2.75 -1.00003,-2.12499 -1.25003,-5.68749 -0.75,-10.6875 0.54163,0.25001 1.16663,0.31251 1.875,0.1875 1.62496,-0.37499 4.16663,-0.72915 7.625,-1.0625 0.41662,-0.0417 0.62496,-0.24998 0.625,-0.625 -4e-5,-0.29165 -0.43754,-0.70832 -1.3125,-1.25 0.79162,-2.87498 1.62495,-4.74998 2.5,-5.625 0.79162,-0.91664 0.79162,-1.64581 0,-2.1875 -0.66671,-0.41664 -1.52088,-0.95831 -2.5625,-1.625 -0.66671,-0.37497 -1.35421,-0.35414 -2.0625,0.0625 -0.87504,0.54169 -1.89587,1.02086 -3.0625,1.4375 -1.0417,0.29169 -2.18754,0.62502 -3.4375,1 m 0.875,2.0625 c 0.0416,-0.16664 0.0625,-0.35414 0.0625,-0.5625 0.12496,-0.12498 1.60413,-0.49998 4.4375,-1.125 0.87496,-0.16664 1.41662,-0.10414 1.625,0.1875 0.24996,0.25002 0.20829,0.97919 -0.125,2.1875 -0.29171,1.16669 -0.64587,2.43752 -1.0625,3.8125 -0.12504,2e-5 -0.25004,0.0417 -0.375,0.125 -2.0417,0.62502 -3.8542,1.10418 -5.4375,1.4375 0.16663,-1.91665 0.4583,-3.93748 0.875,-6.0625"
       id="text17552"
       inkscape:connector-curvature="0" />
  </g>
</svg>
