<?xml version="1.0" encoding="UTF-8" standalone="no"?>
<!-- Created with Inkscape (http://www.inkscape.org/) -->

<svg
   xmlns:dc="http://purl.org/dc/elements/1.1/"
   xmlns:cc="http://creativecommons.org/ns#"
   xmlns:rdf="http://www.w3.org/1999/02/22-rdf-syntax-ns#"
   xmlns:svg="http://www.w3.org/2000/svg"
   xmlns="http://www.w3.org/2000/svg"
   xmlns:xlink="http://www.w3.org/1999/xlink"
   xmlns:sodipodi="http://sodipodi.sourceforge.net/DTD/sodipodi-0.dtd"
   xmlns:inkscape="http://www.inkscape.org/namespaces/inkscape"
   version="1.0"
   width="100.04163"
   height="99.995232"
   id="svg2"
   sodipodi:version="0.32"
   inkscape:version="0.48.4 r9939"
   sodipodi:docname="black_pawn.svg"
   inkscape:output_extension="org.inkscape.output.svg.inkscape">
  <metadata
     id="metadata11">
    <rdf:RDF>
      <cc:Work
         rdf:about="">
        <dc:format>image/svg+xml</dc:format>
        <dc:type
           rdf:resource="http://purl.org/dc/dcmitype/StillImage" />
        <dc:title></dc:title>
      </cc:Work>
    </rdf:RDF>
  </metadata>
  <sodipodi:namedview
     inkscape:window-height="979"
     inkscape:window-width="1679"
     inkscape:pageshadow="2"
     inkscape:pageopacity="0.0"
     guidetolerance="10.0"
     gridtolerance="10.0"
     objecttolerance="10.0"
     borderopacity="1.0"
     bordercolor="#666666"
     pagecolor="#ffffff"
     id="base"
     inkscape:zoom="0.49"
     inkscape:cx="561.85876"
     inkscape:cy="249.34269"
     inkscape:window-x="0"
     inkscape:window-y="42"
     inkscape:current-layer="layer3"
     showgrid="false"
     height="1052.36px"
     width="744px"
     units="mm"
     inkscape:window-maximized="0"
     fit-margin-top="0"
     fit-margin-left="0"
     fit-margin-right="0"
     fit-margin-bottom="0" />
  <defs
     id="defs3">
    <inkscape:perspective
       sodipodi:type="inkscape:persp3d"
       inkscape:vp_x="0 : 526.18109 : 1"
       inkscape:vp_y="0 : 1000 : 0"
       inkscape:vp_z="744.09448 : 526.18109 : 1"
       inkscape:persp3d-origin="372.04724 : 350.78739 : 1"
       id="perspective153" />
    <linearGradient
       id="linearGradient6462">
      <stop
         style="stop-color:black;stop-opacity:1;"
         offset="0"
         id="stop6464" />
      <stop
         style="stop-color:black;stop-opacity:0;"
         offset="1"
         id="stop6466" />
    </linearGradient>
    <linearGradient
       inkscape:collect="always"
       xlink:href="#linearGradient6462"
       id="linearGradient6468"
       x1="24"
       y1="229.36218"
       x2="90"
       y2="229.36218"
       gradientUnits="userSpaceOnUse" />
    <linearGradient
       inkscape:collect="always"
       xlink:href="#linearGradient6462"
       id="linearGradient3442"
       gradientUnits="userSpaceOnUse"
       x1="24"
       y1="229.36218"
       x2="90"
       y2="229.36218" />
  </defs>
  <g
     inkscape:groupmode="layer"
     id="layer1"
     inkscape:label="stones"
     style="display:inline"
     transform="translate(-393.94702,-823.9024)" />
  <g
     inkscape:groupmode="layer"
     id="layer3"
     inkscape:label="pieces"
     style="display:inline"
     transform="translate(-393.94702,-823.9024)">
    <path
       transform="matrix(1.484848,0,0,1.484848,359.3315,533.33621)"
       sodipodi:type="arc"
       style="fill:#ffeda2;fill-opacity:1;stroke:#000000;stroke-width:3.36734796;stroke-miterlimit:4;stroke-opacity:1;stroke-dasharray:none;display:inline"
       id="path9158"
       sodipodi:cx="57"
       sodipodi:cy="229.36218"
       sodipodi:rx="32"
       sodipodi:ry="32"
       d="m 89,229.36218 c 0,17.67311 -14.326888,32 -32,32 -17.673112,0 -32,-14.32689 -32,-32 0,-17.67311 14.326888,-32 32,-32 17.673112,0 32,14.32689 32,32 z" />
    <path
       style="font-size:64px;font-style:normal;font-variant:normal;font-weight:normal;font-stretch:normal;line-height:100%;writing-mode:lr-tb;text-anchor:start;fill:#000000;fill-opacity:1;stroke:none;display:inline;font-family:AR PL ZenKai Uni"
       d="m 440.81107,846.27869 c 2.12496,2.00005 3.85413,3.18754 5.1875,3.5625 0.66663,0.0417 1.18746,-0.22912 1.5625,-0.8125 0.16663,-0.62495 0.16663,-1.29162 0,-2 -0.75004,-1.74995 -2.81254,-2.87495 -6.1875,-3.375 -0.75003,-0.16662 -1.31253,-0.14578 -1.6875,0.0625 -0.2917,0.12505 -0.3542,0.43755 -0.1875,0.9375 0.12497,0.54172 0.56247,1.08338 1.3125,1.625 m -11.4375,7.9375 c -1.54169,0.16671 -1.79169,0.64587 -0.75,1.4375 1.87498,1.1667 3.93747,1.52087 6.1875,1.0625 6.54163,-0.91663 13.20829,-1.89579 20,-2.9375 3.12495,-0.54163 4.91661,-1.02079 5.375,-1.4375 0.41661,-0.29162 0.52078,-0.64579 0.3125,-1.0625 -0.25005,-0.54162 -0.97922,-0.99996 -2.1875,-1.375 -1.41672,-0.37496 -3.91671,0.0209 -7.5,1.1875 -8.00004,1.79171 -15.14586,2.83337 -21.4375,3.125 m 3.75,12.8125 c 0.16664,0.37503 0.60414,0.87503 1.3125,1.5 0.79164,0.91669 1.60414,1.91669 2.4375,3 0.41664,0.50002 0.8958,0.77086 1.4375,0.8125 0.37497,2e-5 0.66663,-0.20831 0.875,-0.625 0.24997,-0.49998 0.29163,-1.24998 0.125,-2.25 -0.1667,-1.04164 -1.77086,-2.16664 -4.8125,-3.375 -0.25003,-0.0416 -0.43753,-0.0833 -0.5625,-0.125 -3e-5,-0.24997 1.06247,-1.74997 3.1875,-4.5 0.41664,-0.49997 0.35414,-1.0208 -0.1875,-1.5625 -1.62503,-1.37496 -2.91669,-1.99996 -3.875,-1.875 -0.41669,0.0417 -0.60419,0.3542 -0.5625,0.9375 0.37497,3.50003 -1.29169,7.14586 -5,10.9375 -0.91669,0.91669 -1.60419,1.64586 -2.0625,2.1875 -0.29169,0.54169 -0.16669,0.75002 0.375,0.625 0.62498,-0.0417 1.35415,-0.37498 2.1875,-1 2.04164,-1.41664 3.74997,-2.97914 5.125,-4.6875 m 8.75,12.3125 c -4e-5,14.04167 0.2708,21.56249 0.8125,22.5625 0.0416,0.12499 0.12496,0.27083 0.25,0.4375 0.24996,0.29166 0.54163,0.39582 0.875,0.3125 0.74996,-0.37501 1.24996,-1.91667 1.5,-4.625 0.29163,-2.41667 0.41663,-4.83333 0.375,-7.25 -0.0417,-1.79166 0.0208,-5.70832 0.1875,-11.75 2.24996,-0.12498 9.83328,-0.20832 22.75,-0.25 1.0416,0.0417 1.68744,-0.16665 1.9375,-0.625 0.2916,-0.62498 0.0208,-1.29165 -0.8125,-2 -3.37506,-2.49998 -6.00006,-3.29165 -7.875,-2.375 -4.16672,0.66669 -9.47921,1.47919 -15.9375,2.4375 -4e-5,-0.12498 0.0208,-0.22915 0.0625,-0.3125 0.0416,-1.37498 0.22913,-2.68748 0.5625,-3.9375 0.16663,-0.79164 -0.0834,-1.41664 -0.75,-1.875 -0.54171,-0.37498 -1.00004,-0.66664 -1.375,-0.875 1.54163,-0.62497 3.49996,-2.14581 5.875,-4.5625 0.16662,0.2917 0.60412,0.7292 1.3125,1.3125 1.66662,1.29169 3.37495,2.75003 5.125,4.375 0.41662,0.41669 0.89578,0.60419 1.4375,0.5625 0.37495,2e-5 0.62495,-0.22914 0.75,-0.6875 0.16661,-0.41664 0.10411,-1.12498 -0.1875,-2.125 -0.37505,-1.62497 -2.81255,-3.10414 -7.3125,-4.4375 -0.12504,-0.0416 -0.20838,-0.0416 -0.25,0 1.12495,-1.74997 2.43745,-3.56247 3.9375,-5.4375 0.41662,-0.49996 0.35412,-1.0208 -0.1875,-1.5625 -1.62505,-1.37496 -2.91671,-1.99996 -3.875,-1.875 -0.41671,0.0417 -0.60421,0.37504 -0.5625,1 0.29162,2.7917 -1.25004,6.2917 -4.625,10.5 -0.25004,3e-5 -1.02087,0.83336 -2.3125,2.5 -0.37504,-0.24997 -0.70837,-0.37497 -1,-0.375 -0.5417,-0.24997 -1.18753,-0.16664 -1.9375,0.25 -0.4167,0.41669 -0.45837,0.85419 -0.125,1.3125 0.79163,1.37502 1.2083,3.33335 1.25,5.875 -4e-5,0.25002 0.0208,0.54168 0.0625,0.875 -7.62503,0.79168 -15.93752,1.66668 -24.9375,2.625 -1.04168,0.0417 -1.18751,0.54168 -0.4375,1.5 1.54166,1.54168 3.33332,2.10418 5.375,1.6875 6.74998,-1.74999 13.43747,-2.81249 20.0625,-3.1875"
       id="text1888"
       inkscape:connector-curvature="0" />
  </g>
</svg>
