<?xml version="1.0" encoding="UTF-8" standalone="no"?>
<!-- Created with Inkscape (http://www.inkscape.org/) -->

<svg
   xmlns:dc="http://purl.org/dc/elements/1.1/"
   xmlns:cc="http://creativecommons.org/ns#"
   xmlns:rdf="http://www.w3.org/1999/02/22-rdf-syntax-ns#"
   xmlns:svg="http://www.w3.org/2000/svg"
   xmlns="http://www.w3.org/2000/svg"
   xmlns:xlink="http://www.w3.org/1999/xlink"
   xmlns:sodipodi="http://sodipodi.sourceforge.net/DTD/sodipodi-0.dtd"
   xmlns:inkscape="http://www.inkscape.org/namespaces/inkscape"
   version="1.0"
   width="100.04163"
   height="99.995232"
   id="svg2"
   sodipodi:version="0.32"
   inkscape:version="0.48.4 r9939"
   sodipodi:docname="black_horse.svg"
   inkscape:output_extension="org.inkscape.output.svg.inkscape">
  <metadata
     id="metadata11">
    <rdf:RDF>
      <cc:Work
         rdf:about="">
        <dc:format>image/svg+xml</dc:format>
        <dc:type
           rdf:resource="http://purl.org/dc/dcmitype/StillImage" />
        <dc:title></dc:title>
      </cc:Work>
    </rdf:RDF>
  </metadata>
  <sodipodi:namedview
     inkscape:window-height="979"
     inkscape:window-width="1679"
     inkscape:pageshadow="2"
     inkscape:pageopacity="0.0"
     guidetolerance="10.0"
     gridtolerance="10.0"
     objecttolerance="10.0"
     borderopacity="1.0"
     bordercolor="#666666"
     pagecolor="#ffffff"
     id="base"
     inkscape:zoom="0.49"
     inkscape:cx="407.03459"
     inkscape:cy="-33.257038"
     inkscape:window-x="0"
     inkscape:window-y="42"
     inkscape:current-layer="layer3"
     showgrid="false"
     height="1052.36px"
     width="744px"
     units="mm"
     inkscape:window-maximized="0"
     fit-margin-top="0"
     fit-margin-left="0"
     fit-margin-right="0"
     fit-margin-bottom="0" />
  <defs
     id="defs3">
    <inkscape:perspective
       sodipodi:type="inkscape:persp3d"
       inkscape:vp_x="0 : 526.18109 : 1"
       inkscape:vp_y="0 : 1000 : 0"
       inkscape:vp_z="744.09448 : 526.18109 : 1"
       inkscape:persp3d-origin="372.04724 : 350.78739 : 1"
       id="perspective153" />
    <linearGradient
       id="linearGradient6462">
      <stop
         style="stop-color:black;stop-opacity:1;"
         offset="0"
         id="stop6464" />
      <stop
         style="stop-color:black;stop-opacity:0;"
         offset="1"
         id="stop6466" />
    </linearGradient>
    <linearGradient
       inkscape:collect="always"
       xlink:href="#linearGradient6462"
       id="linearGradient6468"
       x1="24"
       y1="229.36218"
       x2="90"
       y2="229.36218"
       gradientUnits="userSpaceOnUse" />
    <linearGradient
       inkscape:collect="always"
       xlink:href="#linearGradient6462"
       id="linearGradient3442"
       gradientUnits="userSpaceOnUse"
       x1="24"
       y1="229.36218"
       x2="90"
       y2="229.36218" />
  </defs>
  <g
     inkscape:groupmode="layer"
     id="layer1"
     inkscape:label="stones"
     style="display:inline"
     transform="translate(-393.94702,-304.68408)" />
  <g
     inkscape:groupmode="layer"
     id="layer3"
     inkscape:label="pieces"
     style="display:inline"
     transform="translate(-393.94702,-304.68408)">
    <path
       transform="matrix(1.484848,0,0,1.484848,359.3315,14.117885)"
       sodipodi:type="arc"
       style="fill:#ffeda2;fill-opacity:1;stroke:#000000;stroke-width:3.36734796;stroke-miterlimit:4;stroke-opacity:1;stroke-dasharray:none;display:inline"
       id="path17504"
       sodipodi:cx="57"
       sodipodi:cy="229.36218"
       sodipodi:rx="32"
       sodipodi:ry="32"
       d="m 89,229.36218 c 0,17.67311 -14.326888,32 -32,32 -17.673112,0 -32,-14.32689 -32,-32 0,-17.67311 14.326888,-32 32,-32 17.673112,0 32,14.32689 32,32 z" />
    <path
       style="font-size:64px;font-style:normal;font-variant:normal;font-weight:normal;font-stretch:normal;line-height:100%;writing-mode:lr-tb;text-anchor:start;fill:#000000;fill-opacity:1;stroke:none;display:inline;font-family:AR PL ZenKai Uni"
       d="m 445.34232,344.5296 c 0.0416,-1.87496 0.12496,-3.62496 0.25,-5.25 4.29162,-1.12496 6.47912,-1.70829 6.5625,-1.75 0.29162,-0.29162 0.37495,-0.58329 0.25,-0.875 -0.29171,-0.37495 -0.91671,-0.66662 -1.875,-0.875 -1.25004,-0.24995 -2.87504,0.0834 -4.875,1 -4e-5,-0.74995 0.0625,-1.68745 0.1875,-2.8125 0.29163,-0.87495 -0.14587,-1.79162 -1.3125,-2.75 l -0.0625,-0.0625 c 7.87495,-1.49995 11.91662,-2.31245 12.125,-2.4375 0.29162,-0.29161 0.37495,-0.60411 0.25,-0.9375 -0.25005,-0.49995 -0.91672,-0.89578 -2,-1.1875 -0.87505,-0.24994 -3.62505,0.25005 -8.25,1.5 -4.87504,1.00005 -9.37503,1.64588 -13.5,1.9375 -0.12503,5e-5 -0.22919,0.0417 -0.3125,0.125 -0.16669,-0.16662 -0.39586,-0.33328 -0.6875,-0.5 -1.54169,-1.04161 -2.72919,-1.62495 -3.5625,-1.75 -0.62502,0.0417 -1.00002,0.29172 -1.125,0.75 -0.12502,0.50005 0.0208,0.93755 0.4375,1.3125 0.66664,1.12505 1.08331,2.12505 1.25,3 0.62498,6.66671 0.29164,13.64587 -1,20.9375 -0.29169,1.04169 -0.41669,1.66669 -0.375,1.875 0.0416,0.41669 0.37498,0.87502 1,1.375 0.66664,0.54169 1.14581,0.85419 1.4375,0.9375 7.37497,-2.74997 16.66663,-4.37497 27.875,-4.875 0.62495,0.0417 1.29161,0.25003 2,0.625 0.54161,0.41669 0.77078,1.02086 0.6875,1.8125 0.0416,0.75002 -0.50005,4.37502 -1.625,10.875 -0.87505,3.87501 -1.77088,6.52084 -2.6875,7.9375 -0.41672,0.91667 -1.16672,1.33334 -2.25,1.25 -1.16671,-0.37499 -2.33338,-0.70833 -3.5,-1 -0.79171,-0.29166 -1.27088,-0.35416 -1.4375,-0.1875 -0.16671,0.25001 0.10412,0.64584 0.8125,1.1875 2.54162,3.29167 3.89579,5.4375 4.0625,6.4375 0.16662,0.41667 0.47912,0.66667 0.9375,0.75 0.74995,0.16666 1.87495,-0.47917 3.375,-1.9375 1.41661,-1.41666 2.37495,-3.04166 2.875,-4.875 2.66661,-13.41665 4.47911,-20.45831 5.4375,-21.125 0.41661,-0.29164 0.60411,-0.60414 0.5625,-0.9375 0.0416,-0.37497 -0.66673,-1.12497 -2.125,-2.25 -2.00006,-1.24997 -3.64589,-1.66664 -4.9375,-1.25 -1.00005,0.12503 -2.04172,0.25003 -3.125,0.375 -3.37505,3e-5 -7.35421,0.45836 -11.9375,1.375 0.0416,-1.87497 0.0833,-3.6458 0.125,-5.3125 1.54163,-0.41663 3.14579,-0.79163 4.8125,-1.125 1.37495,-0.37496 2.14579,-0.6458 2.3125,-0.8125 0.29162,-0.29163 0.37495,-0.5833 0.25,-0.875 -0.29171,-0.37496 -0.91671,-0.66663 -1.875,-0.875 -1.00004,-0.16663 -2.81254,0.25004 -5.4375,1.25 m -3.0625,0.8125 c -1.75003,0.2917 -3.56253,0.58337 -5.4375,0.875 -1.1667,0.1667 -1.33336,0.5417 -0.5,1.125 1.12497,0.5417 3.04163,0.62503 5.75,0.25 0.0416,3e-5 0.10413,3e-5 0.1875,0 0.0416,1.5417 0.0625,3.2292 0.0625,5.0625 -3.0417,0.37503 -5.58336,0.83336 -7.625,1.375 -1.54169,0.16669 -2.35419,-0.31247 -2.4375,-1.4375 -0.16669,-1.16664 -0.12503,-4.87497 0.125,-11.125 0.41664,-5.16662 0.79164,-7.99995 1.125,-8.5 0.16664,-0.29162 0.31247,-0.60412 0.4375,-0.9375 0.66664,0.16672 2.9583,0.0625 6.875,-0.3125 0.12496,-0.0416 0.29163,-0.0625 0.5,-0.0625 0.41663,0.75005 0.72913,2.77088 0.9375,6.0625 -1.4167,0.29171 -2.9792,0.54171 -4.6875,0.75 -1.1667,0.25004 -1.33336,0.64588 -0.5,1.1875 1.37497,0.75004 3.0208,0.87504 4.9375,0.375 0.0416,-0.0416 0.12496,-0.0416 0.25,0 -4e-5,1.41671 -4e-5,3.18754 0,5.3125 m -20.5625,15.1875 c -0.41668,2.41669 -1.08335,4.79168 -2,7.125 -0.50001,1.54168 -0.20835,2.97918 0.875,4.3125 0.49998,0.66668 1.12498,0.62501 1.875,-0.125 0.79165,-0.91666 1.33332,-2.10416 1.625,-3.5625 0.29165,-1.66665 0.31248,-3.16665 0.0625,-4.5 -0.0417,-1.41665 -0.35418,-2.62498 -0.9375,-3.625 -0.29168,-0.29165 -0.56252,-0.43748 -0.8125,-0.4375 -0.37502,0.16669 -0.60418,0.43752 -0.6875,0.8125 m 7.5,2.875 c 0.41664,2.50002 0.97914,4.18751 1.6875,5.0625 0.37497,0.37501 0.81247,0.43751 1.3125,0.1875 0.41664,-0.24999 0.74997,-0.64582 1,-1.1875 0.29164,-1.62498 -0.43753,-3.35415 -2.1875,-5.1875 -0.0417,-0.12498 -0.10419,-0.20831 -0.1875,-0.25 -0.41669,-0.41665 -0.79169,-0.66665 -1.125,-0.75 -0.16669,-0.0417 -0.33336,0.12502 -0.5,0.5 -0.16669,0.37502 -0.16669,0.91669 0,1.625 m 7.4375,-1.4375 c 0.74997,2.04168 1.62497,3.58335 2.625,4.625 0.49997,0.29168 0.97913,0.25001 1.4375,-0.125 0.37496,-0.37498 0.60413,-0.85415 0.6875,-1.4375 0.0416,-0.91665 -0.14587,-1.70832 -0.5625,-2.375 -0.62503,-0.87498 -1.58337,-1.68748 -2.875,-2.4375 -0.50003,-0.37498 -0.93753,-0.54164 -1.3125,-0.5 -0.25003,-0.0416 -0.39586,0.16669 -0.4375,0.625 -0.0417,0.41669 0.10414,0.95835 0.4375,1.625 m 8.875,-2.0625 c 1.16663,2.62502 2.35412,4.45835 3.5625,5.5 0.54162,0.29168 1.06246,0.22918 1.5625,-0.1875 0.41662,-0.41665 0.66662,-0.97915 0.75,-1.6875 -5e-5,-1.74998 -1.47921,-3.60415 -4.4375,-5.5625 l -0.0625,-0.0625 c -0.54171,-0.37498 -1.04171,-0.54164 -1.5,-0.5 -0.25004,2e-5 -0.39587,0.25002 -0.4375,0.75 -0.0417,0.41669 0.14579,1.00002 0.5625,1.75"
       id="text17512"
       inkscape:connector-curvature="0" />
  </g>
</svg>
