<?xml version="1.0" encoding="UTF-8" standalone="no"?>
<!-- Created with Inkscape (http://www.inkscape.org/) -->

<svg
   xmlns:dc="http://purl.org/dc/elements/1.1/"
   xmlns:cc="http://creativecommons.org/ns#"
   xmlns:rdf="http://www.w3.org/1999/02/22-rdf-syntax-ns#"
   xmlns:svg="http://www.w3.org/2000/svg"
   xmlns="http://www.w3.org/2000/svg"
   xmlns:xlink="http://www.w3.org/1999/xlink"
   xmlns:sodipodi="http://sodipodi.sourceforge.net/DTD/sodipodi-0.dtd"
   xmlns:inkscape="http://www.inkscape.org/namespaces/inkscape"
   version="1.0"
   width="100.04163"
   height="99.995232"
   id="svg2"
   sodipodi:version="0.32"
   inkscape:version="0.48.4 r9939"
   sodipodi:docname="red_pawn.svg"
   inkscape:output_extension="org.inkscape.output.svg.inkscape">
  <metadata
     id="metadata11">
    <rdf:RDF>
      <cc:Work
         rdf:about="">
        <dc:format>image/svg+xml</dc:format>
        <dc:type
           rdf:resource="http://purl.org/dc/dcmitype/StillImage" />
        <dc:title></dc:title>
      </cc:Work>
    </rdf:RDF>
  </metadata>
  <sodipodi:namedview
     inkscape:window-height="979"
     inkscape:window-width="1679"
     inkscape:pageshadow="2"
     inkscape:pageopacity="0.0"
     guidetolerance="10.0"
     gridtolerance="10.0"
     objecttolerance="10.0"
     borderopacity="1.0"
     bordercolor="#666666"
     pagecolor="#ffffff"
     id="base"
     inkscape:zoom="0.49"
     inkscape:cx="-780.58158"
     inkscape:cy="359.30846"
     inkscape:window-x="0"
     inkscape:window-y="42"
     inkscape:current-layer="layer3"
     showgrid="false"
     height="1052.36px"
     width="744px"
     units="mm"
     inkscape:window-maximized="0"
     fit-margin-top="0"
     fit-margin-left="0"
     fit-margin-right="0"
     fit-margin-bottom="0" />
  <defs
     id="defs3">
    <inkscape:perspective
       sodipodi:type="inkscape:persp3d"
       inkscape:vp_x="0 : 526.18109 : 1"
       inkscape:vp_y="0 : 1000 : 0"
       inkscape:vp_z="744.09448 : 526.18109 : 1"
       inkscape:persp3d-origin="372.04724 : 350.78739 : 1"
       id="perspective153" />
    <linearGradient
       id="linearGradient6462">
      <stop
         style="stop-color:black;stop-opacity:1;"
         offset="0"
         id="stop6464" />
      <stop
         style="stop-color:black;stop-opacity:0;"
         offset="1"
         id="stop6466" />
    </linearGradient>
    <linearGradient
       inkscape:collect="always"
       xlink:href="#linearGradient6462"
       id="linearGradient6468"
       x1="24"
       y1="229.36218"
       x2="90"
       y2="229.36218"
       gradientUnits="userSpaceOnUse" />
    <linearGradient
       inkscape:collect="always"
       xlink:href="#linearGradient6462"
       id="linearGradient3442"
       gradientUnits="userSpaceOnUse"
       x1="24"
       y1="229.36218"
       x2="90"
       y2="229.36218" />
  </defs>
  <g
     inkscape:groupmode="layer"
     id="layer1"
     inkscape:label="stones"
     style="display:inline"
     transform="translate(-107.94702,-823.9024)" />
  <g
     inkscape:groupmode="layer"
     id="layer3"
     inkscape:label="pieces"
     style="display:inline"
     transform="translate(-107.94702,-823.9024)">
    <path
       d="m 89,229.36218 c 0,17.67311 -14.326888,32 -32,32 -17.673112,0 -32,-14.32689 -32,-32 0,-17.67311 14.326888,-32 32,-32 17.673112,0 32,14.32689 32,32 z"
       sodipodi:ry="32"
       sodipodi:rx="32"
       sodipodi:cy="229.36218"
       sodipodi:cx="57"
       id="path8269"
       style="fill:#ffeda2;fill-opacity:1;stroke:#cc0000;stroke-width:3.36734796;stroke-miterlimit:4;stroke-opacity:1;stroke-dasharray:none;display:inline"
       sodipodi:type="arc"
       transform="matrix(1.484848,0,0,1.484848,73.331497,533.33621)" />
    <path
       style="font-size:64px;font-style:normal;font-variant:normal;font-weight:normal;font-stretch:normal;text-align:start;line-height:100%;writing-mode:lr-tb;text-anchor:start;fill:#cc0000;fill-opacity:1;stroke:none;display:inline;font-family:AR PL UKai TW;-inkscape-font-specification:AR PL UKai TW"
       d="m 146.56057,877.62146 c -4.91668,0.41669 -10.04168,0.95835 -15.375,1.625 -0.91667,0.0417 -1.04167,0.47918 -0.375,1.3125 0.66666,0.66668 1.39583,1.12502 2.1875,1.375 0.99999,0.25002 1.85416,0.27085 2.5625,0.0625 10.37498,-2.62498 24.3958,-3.95831 42.0625,-4 1.04161,2e-5 2.08328,0.0208 3.125,0.0625 0.91661,0.0417 1.49994,-0.14581 1.75,-0.5625 0.24994,-0.54165 -6e-5,-1.12498 -0.75,-1.75 -2.41672,-1.87498 -4.47922,-2.62498 -6.1875,-2.25 -3.66671,0.66669 -8.29171,1.43752 -13.875,2.3125 1.37496,-4.99997 2.33329,-7.97914 2.875,-8.9375 0.16663,-0.41664 -0.0834,-0.9583 -0.75,-1.625 -0.41671,-0.29163 -0.81254,-0.56247 -1.1875,-0.8125 6.12496,-1.24997 9.31245,-1.97913 9.5625,-2.1875 0.41662,-0.37496 0.52078,-0.74996 0.3125,-1.125 -0.29171,-0.54163 -1.12505,-1.0208 -2.5,-1.4375 -1.12504,-0.24996 -3.95838,0.25004 -8.5,1.5 -4.37503,1.0417 -8.6667,1.7917 -12.875,2.25 -0.0417,-2.87496 -0.0209,-4.70829 0.0625,-5.5 0.0416,-0.54163 -0.0209,-1.04163 -0.1875,-1.5 5.87497,-1.37496 10.22913,-2.66662 13.0625,-3.875 2.16663,-0.74995 4.18746,-1.24995 6.0625,-1.5 0.79162,5e-5 1.29162,-0.18745 1.5,-0.5625 0.16662,-0.49995 -4e-5,-1.04162 -0.5,-1.625 -0.91671,-0.79162 -2.41671,-1.64578 -4.5,-2.5625 -0.66671,-0.41662 -1.33337,-0.60411 -2,-0.5625 -0.37504,0.16672 -0.58337,0.50005 -0.625,1 -0.1667,1.66672 -4.81253,4.47921 -13.9375,8.4375 -1.16669,-0.91662 -2.45835,-1.54162 -3.875,-1.875 -0.75002,-0.24996 -1.33335,-0.20829 -1.75,0.125 -0.41668,0.29171 -0.43752,0.85421 -0.0625,1.6875 1.16665,1.91671 2.02081,3.93754 2.5625,6.0625 0.41665,2.1667 1.12498,7.64586 2.125,16.4375 m 9.0625,-1.0625 c -1.9167,0.16669 -3.89586,0.41669 -5.9375,0.75 -0.41669,-4.54164 -0.72919,-8.37497 -0.9375,-11.5 1.79164,0.25003 4.2083,0.1667 7.25,-0.25 0.99997,-0.16663 2.0833,-0.35413 3.25,-0.5625 0.49996,1.12503 0.43746,4.83336 -0.1875,11.125 -1.1667,0.12502 -2.31253,0.27085 -3.4375,0.4375 m -9.125,8.375 c -3.16669,3.16668 -7.29168,6.47917 -12.375,9.9375 -0.62501,0.54167 -0.58334,0.95833 0.125,1.25 1.99999,0 5.93748,-1.8125 11.8125,-5.4375 2.49998,-1.87499 4.22914,-2.91666 5.1875,-3.125 0.91664,-0.29166 1.27081,-0.87499 1.0625,-1.75 -0.29169,-0.74999 -1.18753,-1.83332 -2.6875,-3.25 -0.50002,-0.49998 -1.02086,-0.70832 -1.5625,-0.625 -0.75002,0.16668 -1.04169,0.58335 -0.875,1.25 0.16664,0.66668 -0.0625,1.25001 -0.6875,1.75 m 14.6875,-0.6875 c 3.16663,3.04168 6.58329,6.72917 10.25,11.0625 0.74995,1 1.49995,1.625 2.25,1.875 0.41662,0.0417 0.81245,-0.16667 1.1875,-0.625 0.66662,-0.625 0.72912,-2.02083 0.1875,-4.1875 -0.62505,-2.87499 -5.18755,-6.33332 -13.6875,-10.375 -0.4167,-0.29165 -0.68754,-0.12498 -0.8125,0.5 -0.0417,0.66668 0.16663,1.25001 0.625,1.75"
       id="text1965"
       inkscape:connector-curvature="0" />
  </g>
</svg>
