<?xml version="1.0" encoding="UTF-8" standalone="no"?>
<!-- Created with Inkscape (http://www.inkscape.org/) -->

<svg
   xmlns:dc="http://purl.org/dc/elements/1.1/"
   xmlns:cc="http://creativecommons.org/ns#"
   xmlns:rdf="http://www.w3.org/1999/02/22-rdf-syntax-ns#"
   xmlns:svg="http://www.w3.org/2000/svg"
   xmlns="http://www.w3.org/2000/svg"
   xmlns:xlink="http://www.w3.org/1999/xlink"
   xmlns:sodipodi="http://sodipodi.sourceforge.net/DTD/sodipodi-0.dtd"
   xmlns:inkscape="http://www.inkscape.org/namespaces/inkscape"
   version="1.0"
   width="100.04163"
   height="99.995232"
   id="svg2"
   sodipodi:version="0.32"
   inkscape:version="0.48.4 r9939"
   sodipodi:docname="red_cannon.svg"
   inkscape:output_extension="org.inkscape.output.svg.inkscape">
  <metadata
     id="metadata11">
    <rdf:RDF>
      <cc:Work
         rdf:about="">
        <dc:format>image/svg+xml</dc:format>
        <dc:type
           rdf:resource="http://purl.org/dc/dcmitype/StillImage" />
        <dc:title></dc:title>
      </cc:Work>
    </rdf:RDF>
  </metadata>
  <sodipodi:namedview
     inkscape:window-height="979"
     inkscape:window-width="1679"
     inkscape:pageshadow="2"
     inkscape:pageopacity="0.0"
     guidetolerance="10.0"
     gridtolerance="10.0"
     objecttolerance="10.0"
     borderopacity="1.0"
     bordercolor="#666666"
     pagecolor="#ffffff"
     id="base"
     inkscape:zoom="0.49"
     inkscape:cx="-672.63456"
     inkscape:cy="12.286925"
     inkscape:window-x="0"
     inkscape:window-y="42"
     inkscape:current-layer="layer3"
     showgrid="false"
     height="1052.36px"
     width="744px"
     units="mm"
     inkscape:window-maximized="0"
     fit-margin-top="0"
     fit-margin-left="0"
     fit-margin-right="0"
     fit-margin-bottom="0" />
  <defs
     id="defs3">
    <inkscape:perspective
       sodipodi:type="inkscape:persp3d"
       inkscape:vp_x="0 : 526.18109 : 1"
       inkscape:vp_y="0 : 1000 : 0"
       inkscape:vp_z="744.09448 : 526.18109 : 1"
       inkscape:persp3d-origin="372.04724 : 350.78739 : 1"
       id="perspective153" />
    <linearGradient
       id="linearGradient6462">
      <stop
         style="stop-color:black;stop-opacity:1;"
         offset="0"
         id="stop6464" />
      <stop
         style="stop-color:black;stop-opacity:0;"
         offset="1"
         id="stop6466" />
    </linearGradient>
    <linearGradient
       inkscape:collect="always"
       xlink:href="#linearGradient6462"
       id="linearGradient6468"
       x1="24"
       y1="229.36218"
       x2="90"
       y2="229.36218"
       gradientUnits="userSpaceOnUse" />
    <linearGradient
       inkscape:collect="always"
       xlink:href="#linearGradient6462"
       id="linearGradient3442"
       gradientUnits="userSpaceOnUse"
       x1="24"
       y1="229.36218"
       x2="90"
       y2="229.36218" />
  </defs>
  <g
     inkscape:groupmode="layer"
     id="layer1"
     inkscape:label="stones"
     style="display:inline"
     transform="translate(-107.94702,-694.09783)" />
  <g
     inkscape:groupmode="layer"
     id="layer3"
     inkscape:label="pieces"
     style="display:inline"
     transform="translate(-107.94702,-694.09783)">
    <path
       transform="matrix(1.484848,0,0,1.484848,73.331497,403.53164)"
       sodipodi:type="arc"
       style="fill:#ffeda2;fill-opacity:1;stroke:#cc0000;stroke-width:3.36734796;stroke-miterlimit:4;stroke-opacity:1;stroke-dasharray:none;display:inline"
       id="path17548"
       sodipodi:cx="57"
       sodipodi:cy="229.36218"
       sodipodi:rx="32"
       sodipodi:ry="32"
       d="m 89,229.36218 c 0,17.67311 -14.326888,32 -32,32 -17.673112,0 -32,-14.32689 -32,-32 0,-17.67311 14.326888,-32 32,-32 17.673112,0 32,14.32689 32,32 z" />
    <path
       style="font-size:64px;font-style:normal;font-variant:normal;font-weight:normal;font-stretch:normal;text-align:start;line-height:100%;writing-mode:lr-tb;text-anchor:start;fill:#cc0000;fill-opacity:1;stroke:none;display:inline;font-family:AR PL UKai TW;-inkscape-font-specification:AR PL UKai TW"
       d="m 157.65533,730.16016 c 1.41663,1.0417 2.70829,1.37503 3.875,1 6.99995,-2.16663 10.74995,-2.81247 11.25,-1.9375 0.37495,0.6667 0.49995,1.87503 0.375,3.625 -0.25005,5.29169 -0.93755,9.14585 -2.0625,11.5625 -0.54172,1.16668 -1.31255,1.72918 -2.3125,1.6875 -0.75005,-0.16665 -1.45838,-0.37498 -2.125,-0.625 -1.00004,-0.41665 -1.16671,-0.0833 -0.5,1 1.49995,1.75001 2.58329,3.29168 3.25,4.625 0.99995,0.91668 1.87495,0.91668 2.625,0 1.29161,-1.12499 2.33328,-2.62499 3.125,-4.5 0.91661,-2.16665 1.45828,-6.49998 1.625,-13 0.0416,-2.29164 0.43744,-4.0208 1.1875,-5.1875 0.49994,-0.54163 0.60411,-1.04163 0.3125,-1.5 -0.41672,-0.41663 -1.75005,-1.06246 -4,-1.9375 -0.91672,-0.29163 -1.75005,-0.1458 -2.5,0.4375 -0.75005,0.4167 -2.54171,1.02087 -5.375,1.8125 -2.79171,0.7917 -5.37504,1.33337 -7.75,1.625 0.0416,-0.12497 0.12496,-0.24997 0.25,-0.375 1.41663,-1.91663 2.91663,-4.3333 4.5,-7.25 0.62496,-1.37496 1.22912,-2.39579 1.8125,-3.0625 0.37496,-0.49996 0.43746,-1.02079 0.1875,-1.5625 -0.25004,-0.54162 -1.02088,-1.22912 -2.3125,-2.0625 -1.16671,-0.66662 -2.16671,-0.93745 -3,-0.8125 -0.7917,0.16671 -0.95837,0.68755 -0.5,1.5625 0.87496,1.37505 0.0833,4.77088 -2.375,10.1875 -1.1667,2.4167 -2.58337,5.00003 -4.25,7.75 -0.4167,0.50003 -0.64586,0.87503 -0.6875,1.125 -0.12503,0.50003 0.12497,0.66669 0.75,0.5 1.12497,-0.49997 2.66663,-2.06247 4.625,-4.6875 m -3.4375,8.25 c -0.4167,-0.37498 -0.93753,-0.64581 -1.5625,-0.8125 -0.50003,-0.16664 -0.89586,-0.14581 -1.1875,0.0625 -0.25003,0.12502 -0.27086,0.52086 -0.0625,1.1875 0.49997,1.50002 0.68747,2.93752 0.5625,4.3125 -0.50003,8.54168 -0.37503,13.97917 0.375,16.3125 0.16664,1.29167 0.8958,2.47917 2.1875,3.5625 4.74996,3.41666 11.97912,4.14583 21.6875,2.1875 0.29161,-0.125 0.64578,-0.20834 1.0625,-0.25 2.29161,-0.66667 4.56244,-1.77083 6.8125,-3.3125 0.7916,-0.54167 0.95827,-1.375 0.5,-2.5 -0.50006,-1.41666 -0.9584,-4.22916 -1.375,-8.4375 -6e-5,-0.66665 -0.14589,-1.12499 -0.4375,-1.375 -0.25006,-0.16665 -0.50006,0.12501 -0.75,0.875 -1.41673,4.41667 -2.58339,7.29167 -3.5,8.625 -0.87506,1.04167 -2.50005,1.89583 -4.875,2.5625 -5.50005,1.41667 -10.58337,1.35417 -15.25,-0.1875 -1.7917,-0.79167 -2.9167,-1.72916 -3.375,-2.8125 -1.12503,-2.24999 -1.4167,-5.64582 -0.875,-10.1875 0.54163,0.25001 1.1458,0.27085 1.8125,0.0625 1.66663,-0.41665 4.37496,-0.83332 8.125,-1.25 0.41662,-0.0417 0.64579,-0.24998 0.6875,-0.625 -4e-5,-0.29165 -0.47921,-0.70832 -1.4375,-1.25 0.79162,-2.54165 1.60412,-4.18748 2.4375,-4.9375 0.91662,-0.99998 0.91662,-1.79164 0,-2.375 -0.75004,-0.41664 -1.64588,-0.97914 -2.6875,-1.6875 -0.75004,-0.41664 -2.00004,-0.14581 -3.75,0.8125 -1.62504,0.62502 -3.33337,1.10419 -5.125,1.4375 m 0.9375,2 c -3e-5,-0.12498 -3e-5,-0.22914 0,-0.3125 0.41663,-0.12498 1.9583,-0.47914 4.625,-1.0625 0.79163,-0.16664 1.31246,-0.0833 1.5625,0.25 0.12496,0.12502 -0.22921,2.02085 -1.0625,5.6875 -2.1667,0.62502 -4.1667,1.14585 -6,1.5625 0.16663,-1.91665 0.4583,-3.95831 0.875,-6.125 m -21.3125,-10.5 c -0.25001,2.5417 -0.72918,5.00003 -1.4375,7.375 -0.50001,1.37502 -0.18751,2.66669 0.9375,3.875 0.49999,0.62502 1.08332,0.56252 1.75,-0.1875 1.62498,-2.12498 2.02082,-4.85414 1.1875,-8.1875 -0.16668,-1.29164 -0.52085,-2.37497 -1.0625,-3.25 -0.29168,-0.29163 -0.54168,-0.41663 -0.75,-0.375 -0.29168,0.1667 -0.50001,0.4167 -0.625,0.75 m 8.875,17.0625 c 0.16665,0.29168 0.49998,0.66668 1,1.125 1.16664,1.25001 2.39581,2.62501 3.6875,4.125 0.37497,0.41668 0.81247,0.66668 1.3125,0.75 0.29164,0.0417 0.56247,-0.14582 0.8125,-0.5625 0.24997,-0.41666 0.29164,-1.12499 0.125,-2.125 -0.12503,-0.91665 -0.77086,-1.77082 -1.9375,-2.5625 -2.79169,-1.54165 -4.39586,-2.24998 -4.8125,-2.125 0.37498,-2.66665 0.66664,-6.87498 0.875,-12.625 1.54164,-0.87497 2.79164,-1.60414 3.75,-2.1875 1.87497,-1.49997 3.3333,-2.41663 4.375,-2.75 0.74997,-0.29163 0.93747,-0.74997 0.5625,-1.375 -0.4167,-0.54163 -1.0417,-1.0833 -1.875,-1.625 -0.79169,-0.49996 -1.39586,-0.7083 -1.8125,-0.625 -0.41669,0.0417 -0.56253,0.2917 -0.4375,0.75 0.0416,1.0417 -0.79169,2.4792 -2.5,4.3125 -0.66669,0.6667 -1.31252,1.39586 -1.9375,2.1875 0.0416,-4.91663 0.56248,-8.62496 1.5625,-11.125 0.29164,-0.54162 0.20831,-1.04162 -0.25,-1.5 -0.91669,-0.74996 -2.14585,-1.33329 -3.6875,-1.75 -1.00002,-0.24996 -1.66668,-0.22912 -2,0.0625 -0.37502,0.29171 -0.39585,0.66671 -0.0625,1.125 2.41665,3.75004 2.58331,12.89586 0.5,27.4375 -1.37502,5.41668 -2.79168,9.27084 -4.25,11.5625 -1.16668,1.625 -2.64584,3.3125 -4.4375,5.0625 -0.41668,0.375 -0.60418,0.64583 -0.5625,0.8125 0.0417,0.16667 0.29166,0.20833 0.75,0.125 0.49999,0.16666 1.35416,-0.10417 2.5625,-0.8125 4.49998,-2.41666 7.39581,-7.64583 8.6875,-15.6875"
       id="text17556"
       inkscape:connector-curvature="0" />
  </g>
</svg>
