<?xml version="1.0" encoding="UTF-8" standalone="no"?>
<!-- Created with Inkscape (http://www.inkscape.org/) -->

<svg
   xmlns:dc="http://purl.org/dc/elements/1.1/"
   xmlns:cc="http://creativecommons.org/ns#"
   xmlns:rdf="http://www.w3.org/1999/02/22-rdf-syntax-ns#"
   xmlns:svg="http://www.w3.org/2000/svg"
   xmlns="http://www.w3.org/2000/svg"
   xmlns:sodipodi="http://sodipodi.sourceforge.net/DTD/sodipodi-0.dtd"
   xmlns:inkscape="http://www.inkscape.org/namespaces/inkscape"
   version="1.1"
   width="406.88083"
   height="406.896"
   id="svg2"
   xml:space="preserve"
   inkscape:version="0.48.4 r9939"
   sodipodi:docname="black_cannon.svg"><sodipodi:namedview
     pagecolor="#ffffff"
     bordercolor="#666666"
     borderopacity="1"
     objecttolerance="10"
     gridtolerance="10"
     guidetolerance="10"
     inkscape:pageopacity="0"
     inkscape:pageshadow="2"
     inkscape:window-width="1920"
     inkscape:window-height="1024"
     id="namedview9"
     showgrid="false"
     inkscape:zoom="0.21106688"
     inkscape:cx="-1669.8688"
     inkscape:cy="-29.334398"
     inkscape:window-x="0"
     inkscape:window-y="0"
     inkscape:window-maximized="1"
     inkscape:current-layer="svg2"
     fit-margin-top="0"
     fit-margin-left="0"
     fit-margin-right="0"
     fit-margin-bottom="0" /><metadata
     id="metadata8"><rdf:RDF><cc:Work
         rdf:about=""><dc:format>image/svg+xml</dc:format><dc:type
           rdf:resource="http://purl.org/dc/dcmitype/StillImage" /><dc:title></dc:title></cc:Work></rdf:RDF></metadata><defs
     id="defs6" /><path
     transform="translate(-495.06688,-133.5313)"
     d="m 891.14124,336.97931 a 192.63391,192.63391 0 1 1 -385.26783,0 192.63391,192.63391 0 1 1 385.26783,0 z"
     sodipodi:ry="192.63391"
     sodipodi:rx="192.63391"
     sodipodi:cy="336.97931"
     sodipodi:cx="698.50732"
     id="path3961"
     style="color:#000000;fill:#ffffff;fill-opacity:1;fill-rule:nonzero;stroke:none;stroke-width:0;marker:none;visibility:visible;display:inline;overflow:visible;enable-background:accumulate"
     sodipodi:type="arc" /><path
     id="path3001"
     style="fill:#000000;fill-opacity:1;fill-rule:nonzero;stroke:none"
     d="m 187.87782,238.3612 c 0,-1.53375 0.3325,-2.93 0.9962,-4.18 0.1025,-0.18125 0.3175,-0.44 0.645,-0.78125 0.3362,-0.3375 0.605,-0.65 0.8,-0.9375 0.1963,-0.28375 0.2938,-0.57125 0.2938,-0.86 0.088,-0.57125 0.2537,-1.66875 0.4875,-3.3 0.245,-1.62625 0.4687,-2.87625 0.665,-3.75 0.5712,-2.96875 1.9575,-6.895 4.16,-11.7775 1.3375,-3.36 2.5387,-5.66375 3.5937,-6.91375 0.4788,-0.57125 1.8213,-1.33375 4.0225,-2.285 0.5725,-0.28375 1.4113,-0.78625 2.52,-1.505 1.1038,-0.7275 2.11,-1.3275 3.0075,-1.79625 0.9088,-0.47875 1.7487,-0.86375 2.52,-1.1525 l 0,32.91 c -2.2025,0.28875 -5.2437,1.29875 -9.1213,3.0275 -3.8812,1.71875 -6.7337,2.76875 -8.5549,3.145 -0.38,0.1075 -2.3926,0.15625 -6.035,0.15625 z m -114.7063,-78.63375 0,12.93 c 0,4.795 0.2337,8.10125 0.7025,9.9225 3.1638,10.835 8.34,19.07625 15.5275,24.72625 2.1088,1.63125 4.0288,2.87125 5.7613,3.73 1.1425,0.67875 1.9049,1.065 2.285,1.1525 0.7675,0.1075 1.5337,-0.01 2.305,-0.35125 0.7662,-0.3375 1.3387,-0.66875 1.7187,-0.99625 0.3913,-0.33625 0.9425,-0.9075 1.66,-1.71875 0.7138,-0.82 1.2163,-1.37625 1.5038,-1.68 0.1962,-0.18 0.675,-0.605 1.4462,-1.26875 0.7663,-0.67375 1.3913,-1.29875 1.875,-1.875 0.4788,-0.58625 0.8637,-1.11375 1.1525,-1.5825 0.088,-0.195 0.1363,-1.875 0.1363,-5.03875 l 0,-10.78125 c 0,-2.87625 -0.098,-4.5025 -0.2925,-4.8825 -0.3813,-0.87 -0.9338,-1.685 -1.6613,-2.4425 -0.7175,-0.76625 -1.3612,-1.435 -1.9325,-2.01125 -0.5762,-0.58625 -1.4412,-1.235 -2.5987,-1.9525 -1.1463,-0.71375 -1.9863,-1.21625 -2.5188,-1.505 -0.5225,-0.2825 -1.455,-0.785 -2.7937,-1.50375 -1.3426,-0.7275 -2.1575,-1.18125 -2.4413,-1.36625 -0.185,-0.1025 -0.8,-0.39125 -1.855,-0.86 -1.055,-0.47875 -1.8262,-0.9175 -2.305,-1.30875 -0.8587,-0.76625 -2.0112,-1.9625 -3.4562,-3.59375 -1.4363,-1.62625 -2.295,-2.62625 -2.5788,-3.0075 -0.1075,-0.1025 -0.4437,-0.5125 -1.015,-1.23 -0.5762,-0.71375 -1.05,-1.1725 -1.4262,-1.3675 -0.195,-0.0875 -1.1088,-0.1375 -2.735,-0.1375 l -6.4638,0 z m 204.6875,-13.085 0.1563,0.15625 -0.1563,-0.15625 z m -138.145,-72.305002 -30.605,0 0,6.465 c 0.088,0.57625 0.2975,1.20125 0.625,1.875 0.3362,0.66375 0.7225,1.40625 1.1513,2.22625 0.44,0.82 0.7525,1.42125 0.9375,1.7975 0.5862,1.435 1.5237,3.56875 2.8125,6.40625 1.29,2.82625 2.2712,4.955 2.95,6.38625 0.1949,0.48375 0.595,1.278752 1.2112,2.382502 0.625,1.09375 1.1513,2.1 1.5813,3.0075 0.43,0.91375 0.6937,1.75375 0.8012,2.52 0.195,1.1475 0.2925,2.4175 0.2925,3.80875 0,1.39625 -0.054,2.95875 -0.1562,4.6875 -0.092,1.71875 -0.1363,3.0075 -0.1363,3.8675 l 0,55.625 c 0,1.1475 0.044,2.75375 0.1363,4.82375 0.1024,2.06125 0.1562,3.955 0.1562,5.68375 0,1.71875 -0.098,3.29625 -0.2925,4.72625 -0.1075,0.9675 -0.635,3.07625 -1.5825,6.32875 -1.1475,4.795 -1.9625,8.38875 -2.4413,10.78125 -1.9137,8.4375 -3.1637,14.14 -3.75,17.10875 0,0.195 -0.1462,1.20625 -0.4299,3.0275 -0.2875,1.81125 -0.5763,3.19875 -0.8588,4.16 -0.4838,1.71875 -1.465,4.0925 -2.95,7.11 -1.4837,3.0225 -2.4162,5.05875 -2.7925,6.1125 -1.055,2.78875 -2.09,5.79125 -3.105,9.00375 -1.0062,3.20375 -2.08,6.7975 -3.2225,10.78125 -1.1475,3.975 -2.0612,7.0075 -2.735,9.1025 -0.2875,0.87375 -0.6975,2.1475 -1.23,3.8275 -0.5225,1.67 -0.9275,2.94 -1.2112,3.80875 -0.6788,2.1 -1.25,3.4375 -1.7188,4.02375 -2.5925,2.96875 -5.3275,4.74125 -8.2037,5.3125 l -5.8975,0 c 0,3.16375 -0.5763,6.3275 -1.7188,9.4925 -0.665,2.10875 -1.1912,3.3975 -1.5825,3.86625 -0.5762,0.7725 -2.5875,2.97875 -6.035,6.62125 -0.195,0.195 -0.5075,0.5075 -0.9375,0.9375 -0.43,0.43 -0.7912,0.81625 -1.0737,1.1525 -0.2888,0.3275 -0.5275,0.68375 -0.7238,1.07375 -0.092,0.19625 -0.1363,1.20125 -0.1363,3.00875 l 0,6.62125 c 0.7663,-0.19625 1.5826,-0.5275 2.4413,-0.99625 0.86,-0.47875 1.7875,-1.035 2.7938,-1.66 1.0149,-0.625 1.8062,-1.08 2.3825,-1.3675 1.5325,-0.76625 3.8087,-1.9625 6.8162,-3.59375 3.0175,-1.62625 5.2975,-2.87125 6.8363,-3.73125 2.1087,-1.05375 4.17,-2.1575 6.1912,-3.32 1.5238,-0.66375 2.5688,-1.235 3.1438,-1.71875 0.3912,-0.37625 1.5437,-2.52875 3.4574,-6.465 l 7.7738,-13.80875 c 5.9375,-10.24375 10.6738,-17.5775 14.2188,-21.99125 3.2512,-4.11125 5.7025,-6.31375 7.3437,-6.6025 0.6637,-0.1025 1.425,0.27375 2.285,1.13375 1.25,1.3575 2.4025,2.7925 3.4575,4.31625 1.7188,2.5925 4.2575,7.1975 7.6163,13.80875 0.1962,0.38 0.455,1.05 0.7812,2.01125 0.3375,0.9525 0.6938,1.7925 1.075,2.52 0.39,0.7175 0.7813,1.26375 1.1713,1.64 0.1812,0.195 1.6649,0.29375 4.4537,0.29375 l 12.6362,0 0,-30.89875 c -0.1849,0.0925 -0.4,0.21 -0.6449,0.35125 -0.2338,0.14625 -0.4775,0.26875 -0.7225,0.37125 -0.2338,0.0925 -0.4975,0.13625 -0.7813,0.13625 -0.6787,0.0937 -1.3037,-0.12125 -1.875,-0.64375 -0.5762,-0.5325 -0.9562,-1.035 -1.1525,-1.50375 -0.185,-0.47875 -0.4187,-1.1575 -0.7025,-2.03125 -0.4838,-1.1425 -0.82,-1.76375 -1.0162,-1.85625 -0.575,-0.195 -2.7725,-0.67375 -6.6013,-1.445 -5.8487,-1.055 -11.5038,-1.5825 -16.9725,-1.5825 0,-2.00125 0.1663,-4.10625 0.5075,-6.30875 0.3375,-2.21125 0.8112,-4.70625 1.4263,-7.48 0.625,-2.7825 1.0787,-4.84875 1.3675,-6.19125 0.6737,-3.82875 1.7812,-12.4025 3.32,-25.7225 0.1812,-1.53375 0.4587,-3.81375 0.84,-6.83625 0.39,-3.0175 0.6837,-5.2975 0.8787,-6.83625 0.088,-0.375 0.1613,-1.1125 0.215,-2.20625 0.049,-1.10375 0.1463,-2.06125 0.2925,-2.87125 0.1425,-0.82 0.3563,-1.52375 0.645,-2.11 4.5013,-8.24125 11.4938,-12.3625 20.9762,-12.3625 l 0,-13.2225 17.6951,0 0,-11.34875 c 0,-3.16375 -0.054,-4.84375 -0.1563,-5.03875 -0.093,-0.37625 -0.3312,-0.805 -0.7225,-1.28875 -0.38,-0.47875 -0.9075,-1.00625 -1.5812,-1.5825 -0.665,-0.57125 -1.045,-0.9025 -1.1338,-0.99625 -0.7713,-0.76625 -1.5912,-1.48375 -2.46,-2.1475 -0.86,-0.67375 -1.8662,-1.3725 -3.0087,-2.09 -1.1475,-0.7275 -2.06,-1.28 -2.7338,-1.66 -0.6637,-0.39125 -1.7487,-0.9625 -3.2425,-1.71875 -1.4837,-0.7675 -2.4612,-1.29375 -2.93,-1.5825 -0.39,-0.195 -1.015,-0.57625 -1.875,-1.1525 -0.8587,-0.57125 -1.655,-1.045 -2.3825,-1.425 -0.7175,-0.39125 -1.4063,-0.635 -2.07,-0.7425 l -2.735,7.77375 -6.1712,16.81625 -2.8913,8.04625 0,6.7575 -5.605,0 0,-34.785 c 0,-1.25 -0.049,-3.04625 -0.1362,-5.39 -0.094,-2.35375 -0.1375,-4.5125 -0.1375,-6.465 0,-1.9625 0.089,-3.76 0.2737,-5.39125 0.1025,-0.4775 0.63,-1.3475 1.5825,-2.5975 0.195,-0.2825 0.5763,-0.81 1.1513,-1.58125 0.5712,-0.7675 1.0449,-1.41125 1.4262,-1.93375 0.3913,-0.5325 0.7525,-1.1575 1.0937,-1.875002 0.3376,-0.7125 0.5076,-1.3575 0.5076,-1.93375 0,-4.21875 -0.2438,-6.80625 -0.7225,-7.77375 -0.195,-0.37625 -0.6538,-0.89875 -1.3675,-1.5625 -0.7176,-0.67375 -1.1713,-1.255 -1.3663,-1.7375 -1.5388,-3.73625 -2.305,-7.8575 -2.305,-12.36375 z m 77.91,65.410002 c 0,-1.62625 0.049,-2.5825 0.1562,-2.87125 0.088,-0.39 0.8601,-1.29875 2.3051,-2.73375 0.4687,-0.47875 1.1575,-1.25 2.0699,-2.305 0.9088,-1.055 1.6063,-1.82125 2.0901,-2.305 1.5337,-1.52375 2.3925,-2.52375 2.5775,-3.0075 0.2987,-0.76625 0.6112,-1.9625 0.9375,-3.59375 0.3375,-1.62625 0.5525,-2.63625 0.6449,-3.0275 l 2.8913,-13.08625 c 0.8587,-3.54 1.3325,-5.45375 1.425,-5.74125 0.2837,-0.57125 0.9575,-1.387502 2.0125,-2.442502 1.9138,-2.30375 3.3975,-3.98375 4.4525,-5.03875 1.5338,-1.52375 2.3538,-2.62125 2.4613,-3.3 0.2825,-3.2525 0.2337,-5.36125 -0.1563,-6.32875 -0.093,-0.37625 -0.9525,-1.475 -2.5787,-3.30125 l -6.035,-7.32375 c -1.25,-1.64 -2.3588,-2.98875 -3.32,-4.0425 -0.7713,-0.9475 -1.25,-1.47 -1.445,-1.5625 -0.1863,-0.1025 -1.8113,-0.15625 -4.8838,-0.15625 l -11.64,0 0,33.066252 c -0.185,0.77125 -0.5425,1.5625 -1.0737,2.3825 -0.5225,0.81125 -1.1238,1.71875 -1.7976,2.735 -0.6637,1.005 -1.1475,1.7375 -1.4449,2.20625 -2.5788,4.21875 -5.3513,9.20875 -8.32,14.96125 -8.35,15.81 -15.9725,33.35 -22.8713,52.6175 -0.092,0.2875 -0.5225,1.7725 -1.29,4.4525 -0.7713,2.68625 -1.4837,4.6 -2.1475,5.7425 -0.1075,0.0925 -0.635,0.5225 -1.5825,1.28875 -0.7712,0.67875 -1.2987,1.5925 -1.5825,2.735 -0.1062,0.4825 -0.1562,2.20625 -0.1562,5.175 0,1.44625 0.05,2.26125 0.1562,2.44125 0.5725,1.44625 1.8175,3.41375 3.7313,5.89875 1.1425,1.43625 1.7675,2.295 1.875,2.57875 0.088,0.195 0.1362,1.30375 0.1362,3.32 l 0,39.805 c 0,1.16125 0.025,2.86625 0.079,5.11625 0.049,2.25625 0.077,4.3175 0.077,6.1925 0,1.865 -0.054,3.56375 -0.1563,5.0975 -0.2875,2.3975 -1.5325,5.795 -3.73,10.195 -0.195,0.2875 -0.4887,0.7425 -0.8787,1.3675 -0.3813,0.625 -0.6938,1.20625 -0.9375,1.7375 -0.235,0.5225 -0.3525,1.02625 -0.3525,1.50375 l 0,4.2975 2.5987,8.2025 c 2.1963,8.2425 3.3,14.2775 3.3,18.10625 l 12.52,0 0,13.08625 c 0.3763,0 0.9663,-0.02 1.7775,-0.0587 0.82,-0.0487 1.5425,-0.0788 2.1675,-0.0788 0.625,0 1.1775,0.0488 1.66,0.1375 0.089,0 2.3875,0.9125 6.895,2.73375 2.5875,1.055 6.5675,2.44125 11.9338,4.16 5.1662,1.53875 9.0912,2.5 11.7775,2.89125 0.6737,0.0925 1.6837,0.13625 3.0262,0.13625 1.3387,0 2.295,0.0487 2.8713,0.13625 1.25,0.19625 3.1887,0.655 5.8212,1.3675 2.6263,0.7175 4.6675,1.1725 6.1125,1.3675 2.1975,0.2875 6.705,0.43 13.5163,0.43 l 8.4762,0 c 4.595,-0.47875 11.1325,-1.60625 19.6088,-3.37875 8.4875,-1.7675 13.6437,-2.79875 15.4687,-3.08625 9.4775,-1.53375 14.8888,-2.44625 16.2313,-2.735 0.1025,0 0.8,-0.0875 2.09,-0.2725 1.2987,-0.19625 2.1875,-0.39125 2.6562,-0.58625 0.195,-0.0875 1.3475,-1.19125 3.4563,-3.30125 0.7675,-0.76625 1.9387,-1.91875 3.5162,-3.45625 1.5863,-1.53375 2.7637,-2.68625 3.535,-3.4575 1.235,-1.1425 3.0513,-2.915 5.4488,-5.3125 1.4462,-1.3375 2.1687,-2.11 2.1687,-2.305 l 0,-11.3475 c 0,-2.305 -0.097,-3.59875 -0.2937,-3.88625 -0.8588,-1.1425 -2.3975,-2.7 -4.6088,-4.66875 -2.2025,-1.9625 -3.4912,-3.13375 -3.8675,-3.515 -0.195,-0.195 -0.5375,-0.47875 -1.015,-0.86 -0.4837,-0.39 -0.8937,-0.74625 -1.2312,-1.07375 -0.3263,-0.3375 -0.5363,-0.70375 -0.625,-1.09375 -0.1075,-0.195 -0.1563,-1.3475 -0.1563,-3.4575 l 0,-34.0625 -12.3625,0 c -0.2888,2.11 -1.5337,9.6825 -3.7312,22.715 -1.3425,8.72625 -2.7338,14.9025 -4.18,18.535 -0.2875,0.875 -0.7176,2.125 -1.2888,3.75 -0.5762,1.63125 -1.005,2.87125 -1.2887,3.73125 -0.093,0.195 -0.21,0.56125 -0.3513,1.09375 -0.1462,0.5225 -0.3125,0.97625 -0.5087,1.36625 -0.195,0.38125 -0.39,0.71375 -0.585,0.99625 -0.3813,0.48375 -1.4801,1.10375 -3.3013,1.85625 -0.7712,0.4825 -1.895,1.1325 -3.3787,1.9525 -1.485,0.81125 -2.6126,1.40625 -3.3788,1.7975 -1.055,0.57625 -2.6125,1.41625 -4.6687,2.51875 -2.06,1.09375 -3.5688,1.92875 -4.5313,2.5 -2.3037,1.44625 -3.8863,2.26625 -4.745,2.46125 -0.2888,0.0925 -1.5337,0.13625 -3.7312,0.13625 l -63.105,0 c -1.445,0 -2.315,-0.0975 -2.5975,-0.2925 -0.5763,-0.37625 -1.1288,-0.85 -1.66,-1.42625 -0.5225,-0.585 -1.0938,-1.27875 -1.7188,-2.08875 -0.6162,-0.82125 -1.1137,-1.41625 -1.505,-1.7975 -5.6537,-6.1325 -9.0525,-9.8675 -10.195,-11.21125 -0.39,-0.4775 -0.9962,-1.1525 -1.8163,-2.01125 -0.8099,-0.86 -1.4012,-1.485 -1.7774,-1.875 -1.055,-1.055 -1.635,-1.7675 -1.7375,-2.14875 -0.094,-0.195 -0.1375,-1.72875 -0.1375,-4.60875 l 0,-18.2625 c 0,-2.00125 0.098,-3.14875 0.2937,-3.4375 0.375,-0.57125 1.04,-1.41125 1.9913,-2.51875 0.9625,-1.10375 1.5437,-1.74875 1.7387,-1.93375 1.055,-1.25 1.7238,-1.9725 2.0113,-2.16875 0.6737,-0.375 1.4462,-0.66375 2.3049,-0.85875 0.8601,-0.195 1.8363,-0.41 2.9301,-0.645 1.1037,-0.23375 1.8987,-0.4 2.3824,-0.5075 1.7288,-0.47875 4.3163,-1.17125 7.7538,-2.07 3.4475,-0.90875 6.04,-1.60625 7.7738,-2.09 0.4787,-0.195 1.1962,-0.5075 2.1487,-0.9375 0.9612,-0.43 1.7288,-0.7425 2.3038,-0.9375 2.5887,-0.9625 5.4162,-1.445 8.4775,-1.445 0,-4.595 0.4337,-10.245 1.3087,-16.95375 1.235,-10.25875 3.7737,-18.2125 7.6163,-23.8675 2.11,-3.05625 4.9812,-5.98125 8.6137,-8.76875 l 0,-0.1375 c -1.1475,-1.25 -2.9,-3.16375 -5.2537,-5.74125 -2.3438,-2.58875 -4.0925,-4.5125 -5.235,-5.7625 -0.2875,-0.2825 -0.7176,-0.81 -1.2888,-1.58125 -0.5762,-0.7675 -1.1275,-1.41125 -1.66,-1.93375 -0.5225,-0.5325 -1.025,-0.9425 -1.5037,-1.23125 -0.195,-0.0875 -1.4938,-0.13625 -3.8875,-0.13625 -3.0613,0 -4.785,0.0487 -5.175,0.13625 -0.7713,0.19625 -2.735,1.01125 -5.8988,2.4425 -7.28,3.27125 -12.7438,5.66375 -16.3862,7.1875 -4.3113,2.02125 -6.8513,3.125 -7.6175,3.32 -0.3813,0.0925 -2.295,0.13625 -5.7425,0.13625 l 0,-6.89375 c 0,-1.82125 0.044,-2.8325 0.1375,-3.0275 0.195,-0.47875 0.5075,-0.9575 0.9375,-1.42625 0.4287,-0.47875 0.9275,-0.98125 1.5037,-1.50375 0.585,-0.5325 1.02,-0.9425 1.3088,-1.23 2.8612,-3.2675 5.0625,-5.71375 6.6012,-7.34375 2.68,-2.96875 4.1213,-4.595 4.3163,-4.88375 1.8212,-2.875 2.7337,-7.23625 2.7337,-13.085 1.8225,0 2.8225,0.0975 3.0088,0.2925 0.1025,0.0925 0.8975,1.22125 2.3825,3.37875 1.4837,2.16375 2.895,3.19375 4.2387,3.08625 0.195,0 1.8213,-0.43 4.8825,-1.28875 1.25,-0.28375 3.1438,-0.7625 5.6838,-1.42625 2.5387,-0.67375 4.4337,-1.1575 5.6837,-1.445 2.68,-0.67375 6.7225,-1.72875 12.1288,-3.165 5.415,-1.43 9.4625,-2.485 12.1475,-3.16375 l 9.9225,-2.5775 c 1.1575,-0.19625 2.4262,-0.29375 3.8087,-0.29375 1.3912,0 2.9488,0.0537 4.6675,0.15625 1.7288,0.0937 3.0275,0.1375 3.8875,0.1375 l 0,26.445 c 0,0.9525 0.024,2.31875 0.077,4.10125 0.049,1.7725 0.079,3.37375 0.079,4.805 0,1.435 -0.054,2.77375 -0.1563,4.02375 0,0.39 -0.86,3.125 -2.5788,8.2025 -1.9137,6.51375 -3.3099,11.39625 -4.1799,14.64875 l -1.7188,6.91375 c -0.093,0.18625 -0.19,0.66 -0.2925,1.42625 -0.093,0.77125 -0.235,1.29875 -0.43,1.58125 -0.38,0.86 -0.9325,1.7 -1.66,2.52 -0.7175,0.82 -1.5575,1.7875 -2.52,2.89125 -0.9512,1.09375 -1.615,1.88375 -1.9912,2.3625 -0.1075,0.18625 -1.065,1.42625 -2.8713,3.73125 l -1.445,1.445 c -2.11,0.85875 -4.2187,-0.57625 -6.3288,-4.31625 -0.6637,-1.33875 -1.05,-2.06125 -1.1524,-2.16875 -0.195,-0.0875 -1.055,-0.13625 -2.5775,-0.13625 l -6.6213,0 0,6.895 c 0,1.92875 0.049,2.9825 0.1563,3.16375 0.18,0.39 0.8,1.1125 1.855,2.1675 0.4787,0.57625 2.0612,2.34375 4.7462,5.3125 1.3375,1.3425 2.11,2.25625 2.305,2.735 0.195,0.2875 0.82,1.91375 1.875,4.8825 1.7188,4.21875 3.4863,7.57375 5.3125,10.05875 1.8213,2.305 3.305,3.70125 4.4525,4.18 0.3762,0.185 1.9588,0.2725 4.7463,0.2725 l 11.075,0 c 0,-3.54 0.5262,-8.03625 1.5812,-13.49625 0.4688,-3.35875 0.845,-5.32125 1.1325,-5.8975 0.4787,-0.9625 1.5338,-2.1875 3.165,-3.6725 1.625,-1.48375 2.68,-2.6075 3.1638,-3.37875 0.2837,-0.47875 0.6687,-1.68 1.1525,-3.59375 0.1949,-0.66375 0.5074,-1.665 0.9375,-3.0075 0.43,-1.3375 0.7425,-2.34875 0.9375,-3.0275 1.5325,-4.985 2.49,-8.2425 2.8712,-9.76625 0.6738,-3.16375 1.445,-7.7625 2.3038,-13.8075 0.86,-6.04 1.4312,-9.87375 1.7187,-11.505 0.089,-0.4775 0.4938,-2.705 1.2113,-6.67875 0.7274,-3.97 1.3337,-6.96375 1.8162,-8.985 1.4313,-5.64875 2.1487,-8.57375 2.1487,-8.76875 l 0,-26.30875 c 0,-0.37625 0.044,-1.04 0.1363,-1.9925 0.1025,-0.9625 0.1275,-1.80125 0.079,-2.52 -0.054,-0.7275 -0.1713,-1.3325 -0.3513,-1.81625 -0.1075,-0.2825 -0.875,-1.28875 -2.305,-3.0075 l -5.3125,-6.465 -4.3162,-5.03875 c -0.86,-1.25 -1.485,-1.91875 -1.875,-2.0125 -0.9526,-0.0875 -1.67,-0.13625 -2.1488,-0.13625 -0.4837,0 -1.2063,0.17125 -2.1675,0.5075 -0.9525,0.3275 -1.67,0.58625 -2.1487,0.78125 -0.4838,0.19625 -1.1526,0.5375 -2.0113,1.01625 -0.86,0.46875 -1.485,0.8 -1.875,0.99625 -0.1862,0.0925 -4.0187,1.57625 -11.505,4.4525 -7.1875,2.5925 -15.2825,5.08875 -24.2762,7.48125 -9.21,2.685 -15.3425,4.17 -18.3988,4.4525 l -6.055,0 z M 197.80032,0.1574482 c 2.485,-0.2825 7.9487,-0.185 16.3862,0.29375 13.7988,0.57625 27.1188,2.49 39.9613,5.74125 18.3987,4.6099998 35.8837,11.9724998 52.4612,22.0899998 16.5862,10.1075 31.5425,22.34375 44.8625,36.71875 15.7138,16.7725 27.8813,34.2575 36.5038,52.461252 11.2987,23.8675 17.5299,49.40875 18.6912,76.62125 1.3387,30.85875 -3.5937,59.8 -14.8037,86.81625 -13.8038,32.7875 -35.1326,60.5075 -63.985,83.16375 -28.8425,22.66625 -60.6588,36.29875 -95.4488,40.89875 -38.14,4.8825 -73.5937,0.5175 -106.3675,-13.08625 -25.39,-10.82 -48.34,-26.92375 -68.8475,-48.3 C 38.33152,323.94245 24.19152,302.67245 14.79152,279.76745 3.7765198,253.1162 -1.0871802,224.8162 0.20281977,194.86495 1.5015198,164.9187 8.7177198,137.2037 21.84272,111.71995 c 9.1013,-17.538752 21.8951,-34.550002 38.3788,-51.035002 24.815,-24.81375 51.5525,-41.82625 80.215,-51.0349998 12.1725,-3.93125 24.6337,-6.61125 37.3825,-8.0475 5.9375,-0.57125 10.3913,-0.95625 13.36,-1.15125 0.4788,0 1.4838,-0.02 3.0075,-0.0588 1.5338,-0.0487 2.74,-0.1275 3.6138,-0.235 z"
     inkscape:connector-curvature="0" /></svg>