<?xml version="1.0" encoding="UTF-8" standalone="no"?>
<!-- Created with Inkscape (http://www.inkscape.org/) -->

<svg
   xmlns:dc="http://purl.org/dc/elements/1.1/"
   xmlns:cc="http://creativecommons.org/ns#"
   xmlns:rdf="http://www.w3.org/1999/02/22-rdf-syntax-ns#"
   xmlns:svg="http://www.w3.org/2000/svg"
   xmlns="http://www.w3.org/2000/svg"
   xmlns:sodipodi="http://sodipodi.sourceforge.net/DTD/sodipodi-0.dtd"
   xmlns:inkscape="http://www.inkscape.org/namespaces/inkscape"
   version="1.1"
   width="408.39362"
   height="408.80261"
   id="svg2"
   xml:space="preserve"
   inkscape:version="0.48.4 r9939"
   sodipodi:docname="black_elephant.svg"><sodipodi:namedview
     pagecolor="#ffffff"
     bordercolor="#666666"
     borderopacity="1"
     objecttolerance="10"
     gridtolerance="10"
     guidetolerance="10"
     inkscape:pageopacity="0"
     inkscape:pageshadow="2"
     inkscape:window-width="1920"
     inkscape:window-height="1024"
     id="namedview9"
     showgrid="false"
     inkscape:zoom="0.21106688"
     inkscape:cx="147.33851"
     inkscape:cy="53.99759"
     inkscape:window-x="0"
     inkscape:window-y="0"
     inkscape:window-maximized="1"
     inkscape:current-layer="svg2"
     fit-margin-top="0"
     fit-margin-left="0"
     fit-margin-right="0"
     fit-margin-bottom="0" /><metadata
     id="metadata8"><rdf:RDF><cc:Work
         rdf:about=""><dc:format>image/svg+xml</dc:format><dc:type
           rdf:resource="http://purl.org/dc/dcmitype/StillImage" /><dc:title></dc:title></cc:Work></rdf:RDF></metadata><defs
     id="defs6" /><path
     sodipodi:type="arc"
     style="color:#000000;fill:#ffffff;fill-opacity:1;fill-rule:nonzero;stroke:none;stroke-width:0;marker:none;visibility:visible;display:inline;overflow:visible;enable-background:accumulate"
     id="path3955"
     sodipodi:cx="698.50732"
     sodipodi:cy="336.97931"
     sodipodi:rx="192.63391"
     sodipodi:ry="192.63391"
     d="m 891.14124,336.97931 a 192.63391,192.63391 0 1 1 -385.26783,0 192.63391,192.63391 0 1 1 385.26783,0 z"
     transform="translate(-494.31048,-132.578)" /><path
     id="path3025"
     style="fill:#000000;fill-opacity:1;fill-rule:nonzero;stroke:none"
     d="m 188.53902,218.08745 0.1562,0.13625 -0.1562,-0.13625 z m -21.8363,-21.855 0.1362,0.15625 -0.1362,-0.15625 z m 21.9925,-28.8875 22.1287,0 c 0.7663,0 1.8938,-0.0437 3.3788,-0.13625 1.4837,-0.1025 2.8225,-0.15625 4.0238,-0.15625 1.1962,0 2.3237,0.0975 3.3787,0.2925 0.195,0 1.9725,0.57625 5.3313,1.71875 8.9949,3.16375 14.405,4.94125 16.2312,5.3325 0.9612,0.185 2.06,0.3025 3.3,0.35125 1.25,0.0537 2.6612,0.0337 4.2388,-0.0588 1.5875,-0.1025 2.72,-0.15625 3.3987,-0.15625 0,10.7325 -4.5075,18.975 -13.5162,24.72625 -1.5375,0.9675 -6.045,3.0225 -13.515,6.1725 -0.9675,0.48375 -2.4325,1.1625 -4.395,2.03125 -1.9525,0.85875 -3.4125,1.48 -4.375,1.855 -1.7338,1.055 -2.8313,1.485 -3.3,1.29 -0.2888,-0.0887 -0.7238,-0.45 -1.3088,-1.075 -0.5763,-0.625 -0.9088,-0.98125 -0.9963,-1.07375 -0.6787,-0.57125 -1.6412,-1.455 -2.8912,-2.65625 -1.24,-1.19625 -2.1437,-2.08 -2.715,-2.65625 -4.5988,-4.32125 -6.9475,-6.52875 -7.05,-6.62125 -2.3975,-2.3925 -3.8388,-3.735 -4.3163,-4.02375 -3.8287,-2.3925 -8.57,-3.59375 -14.2187,-3.59375 0.5713,-1.3375 1.4737,-3.2275 2.715,-5.66375 1.25,-2.44625 2.0162,-3.965 2.3037,-4.55125 1.25,-2.29 1.9188,-3.6325 2.0125,-4.0225 0.195,-0.665 0.3125,-1.3975 0.3513,-2.2075 0.049,-0.82 0.029,-1.7825 -0.059,-2.89125 -0.093,-1.1025 -0.1362,-1.845 -0.1362,-2.22625 z m -57.93,-7.6175 0,-12.3625 0.1362,-5.60625 2.0125,-2.5975 4.4525,-5.44875 2.4413,-2.5975 3.165,-0.1375 31.0537,0 0,12.36375 -0.1362,5.605 -2.0113,2.57875 -4.4737,5.46875 -2.4413,2.5975 -3.1637,0.13625 -31.035,0 z m 65.2538,-35.9375 50.8987,0 c -0.1075,2.88125 -1.24,6.7875 -3.3987,11.71875 -2.1488,4.9375 -3.4126,8.2625 -3.7888,9.98125 -0.1075,0.39 -0.1563,2.74375 -0.1563,7.05 -2.4899,-0.39 -5.0737,-1.7275 -7.7537,-4.0225 -0.1962,-0.19625 -0.5375,-0.57625 -1.0163,-1.1525 -0.4837,-0.57125 -0.9662,-1.045 -1.445,-1.42625 -0.4687,-0.39 -0.8987,-0.58625 -1.2887,-0.58625 -2.2025,-0.195 -5.3125,0.38125 -9.3363,1.71875 -0.4837,0.19625 -2.6462,1.01625 -6.485,2.46125 -3.8275,1.43625 -6.7475,2.3925 -8.75,2.87125 -0.39,0.0925 -2.885,0.13625 -7.4799,0.13625 l 0,-28.75 z m -79.7851,-14.51125 c 3.3588,0 6.9525,-0.7225 10.7813,-2.1675 2.2113,-0.9475 3.3637,-1.475 3.4575,-1.5825 0.2825,-0.195 0.5713,-0.64875 0.8588,-1.3675 0.2837,-0.7125 0.5274,-1.17125 0.7224,-1.36625 0.7663,-0.9475 2.295,-2.1925 4.5901,-3.731252 5.9475,-4.02375 13.3787,-7.85625 22.2849,-11.50375 0.4788,-0.195 1.5338,-0.2925 3.1638,-0.2925 l 26.4462,0 c 0,2.10875 -0.049,3.26125 -0.1375,3.45625 l -1.2887,1.29 c -0.8587,0.87375 -1.6313,1.78625 -2.305,2.73375 -1.1475,1.91375 -1.9625,3.39875 -2.4413,4.45375 -0.5762,1.445002 -0.9562,2.260002 -1.1525,2.441252 -0.2875,0.3025 -1.3425,0.83 -3.1637,1.58125 -3.2563,1.34375 -5.6987,2.305 -7.3237,2.89125 -15.5376,5.45875 -30.01,8.8575 -43.4188,10.195 l -11.0737,0 0,-7.03125 z m 72.4613,-43.847502 c 0,-2.11 0.044,-3.26125 0.1363,-3.4575 0.4787,-0.94625 1.6499,-2.1675 3.5162,-3.6525 1.875,-1.49375 3.0513,-2.71875 3.535,-3.67125 0.088,-0.195 0.1363,-0.9175 0.1363,-2.1675 l 0,-4.74625 c -0.093,-0.46875 -0.5663,-1.1375 -1.4263,-2.0125 l -3.5938,-3.59375 -3.8862,-3.86625 c -1.055,-1.1575 -1.7288,-1.7825 -2.0112,-1.875 -0.1963,-0.0888 -1.6801,-0.1375 -4.4538,-0.1375 l -10.0775,0 c -2.3975,0 -3.8288,0.14625 -4.2975,0.43 -0.6787,0.38125 -1.4013,0.835 -2.1675,1.3675 -0.7712,0.5225 -1.6362,1.1225 -2.5975,1.79625 -0.9525,0.66375 -1.67,1.19125 -2.1488,1.5825 -2.0074,1.1475 -3.1049,1.865 -3.3012,2.14875 -0.2875,0.57625 -0.5275,1.58125 -0.7225,3.02625 -0.185,1.43625 -0.3713,2.39375 -0.5662,2.87125 -1.3426,4.3125 -3.31,8.19375 -5.8988,11.64125 -1.7188,2.10875 -2.9638,3.4525 -3.73,4.02375 -0.5763,0.4825 -1.5575,1.01 -2.9487,1.58125 -1.3975,0.57625 -2.335,1.055 -2.8125,1.445 -2.4913,2.0075 -4.7413,4.35125 -6.7588,7.03125 -1.3425,1.73375 -3.5937,5.235 -6.7575,10.50875 -1.6312,3.25625 -2.49,4.93125 -2.5775,5.01875 -0.4837,0.39125 -1.68,0.875 -3.5937,1.44625 -3.4525,1.435 -7.09,2.1475 -10.9188,2.1475 0,0.48375 0.044,1.30375 0.1375,2.46125 0.087,1.1475 0.1063,2.14875 0.057,3.0075 -0.039,0.860002 -0.1562,1.631252 -0.3512,2.305002 -0.4838,1.3425 -1.3963,3.28125 -2.7338,5.82 -1.3437,2.54 -2.105,4 -2.285,4.375 -1.25,2.2025 -1.925,3.59375 -2.0125,4.18 -0.2875,0.7575 -0.3412,1.92875 -0.1562,3.51625 0.195,1.57625 0.3125,2.72875 0.3512,3.45625 0.049,0.7175 0.2938,1.89 0.7238,3.51625 0.4387,1.63 0.7812,2.7825 1.015,3.45625 0.235,0.665 0.61,1.7925 1.1325,3.37875 0.5325,1.5775 0.8987,2.69625 1.0937,3.36 1.7288,4.99 2.93,8.725 3.5938,11.21125 1.915,7.295 2.9687,11.1275 3.165,11.50375 0.375,1.055 1.7187,3.78875 4.0225,8.2025 2.1975,4.405 4.2625,7.90125 6.1912,10.48875 0.1813,0.195 0.44,0.58125 0.7813,1.1525 0.3375,0.57625 0.67,1.055 0.9962,1.445 0.3375,0.38125 0.65,0.615 0.9375,0.70375 0.3913,0.39 0.9188,0.42 1.5825,0.0775 0.6738,-0.33625 1.1325,-0.5075 1.3675,-0.5075 0.2438,0 0.6738,-0.3025 1.2888,-0.91875 0.625,-0.625 1.0062,-1.035 1.1525,-1.23 0.1412,-0.195 0.4737,-0.625 0.9962,-1.28875 0.5313,-0.67375 0.8488,-1.06 0.9563,-1.1525 0.7675,-1.25 1.3875,-1.9725 1.8562,-2.1675 0.195,-0.0887 1.9725,-0.1375 5.3313,-0.1375 l 12.3637,0 0,4.8825 c 0,1.25 -0.054,1.97375 -0.1562,2.16875 -0.1863,0.38125 -1.5725,1.19125 -4.16,2.44125 -1.1475,0.66375 -2.8475,1.65 -5.0975,2.94875 -2.2563,1.29 -3.96,2.2225 -5.1175,2.79375 -18.3988,10.35125 -32.2463,18.06625 -41.542502,23.14375 -1.3438,0.67875 -3.355,1.7775 -6.0363,3.30125 -1.8262,1.055 -2.9237,1.63625 -3.3,1.73875 l -5.1762,0 c -1.1475,0 -1.7725,0.0925 -1.875,0.2725 -0.092,0.1075 -0.1363,0.7325 -0.1363,1.875 l 0,5.3125 19.6875,0 c 0.673802,0 1.683802,0.0537 3.027502,0.15625 1.3375,0.0937 2.5388,0.1375 3.5938,0.1375 1.0537,0 2.0112,-0.0975 2.8712,-0.29375 0.195,0 1.9188,-0.76125 5.175,-2.285 4.1113,-1.72875 8.0375,-3.69625 11.7775,-5.89875 4.4138,-2.30375 7.5788,-4.31625 9.4925,-6.035 1.6263,-1.625 2.49,-2.96875 2.5975,-4.0225 0.9475,-0.1025 3.8188,-1.06 8.6138,-2.87125 7.0937,-2.2125 11.3125,-3.60375 12.6562,-4.18 0.4775,-0.195 1.5325,-0.86375 3.1638,-2.01125 1.6262,-1.1425 3.0662,-1.71875 4.3162,-1.71875 -0.2887,0.2875 -3.7887,5.5075 -10.5075,15.66375 -2.11,3.35875 -3.355,5.27375 -3.7312,5.7425 -0.6638,0.67875 -1.8888,1.5175 -3.6713,2.51875 -1.7725,1.00625 -2.9012,1.7 -3.3787,2.09 -3.7413,2.5925 -7.7638,5.89875 -12.0713,9.9225 -2.3975,2.295 -4.6962,4.73625 -6.8937,7.32375 -0.092,0.0925 -0.5225,0.645 -1.2888,1.66 -0.7725,1.00625 -1.3975,1.695 -1.875,2.07 -0.3812,0.30375 -1.3387,0.68375 -2.8712,1.1525 l -6.465,2.5975 c -9.2088,3.63375 -16.108802,6.41625 -20.703802,8.34 -0.195,0.0925 -1.0887,0.425 -2.675,0.99625 -1.5775,0.57625 -2.75,1.10375 -3.5162,1.5825 -0.2875,0.195 -1.7288,1.59125 -4.3163,4.17875 -1.8112,1.8125 -2.7687,2.8125 -2.8712,3.00875 -0.092,0.195 -0.1363,1.29875 -0.1363,3.3 l 0,7.77375 10.0588,0 c 2.875,0 4.4575,-0.0438 4.7462,-0.13625 0.4775,-0.1025 1.63,-0.7275 3.4563,-1.875 0.6637,-0.28375 1.6412,-0.81125 2.930002,-1.5825 1.2987,-0.76625 2.285,-1.29375 2.9487,-1.5825 2.0175,-1.1425 5.0838,-2.84125 9.2,-5.0975 4.125,-2.25 7.1925,-3.955 9.1988,-5.11625 6.8062,-3.63375 16.9187,-9.185 30.3325,-16.66125 0.8687,-0.4775 2.3825,-1.26875 4.5312,-2.3625 2.1575,-1.10375 4.0038,-2.09 5.5275,-2.95 1.5325,-0.86875 2.9725,-1.78625 4.3163,-2.75375 2.5875,-1.71875 6.21,-4.6575 10.8587,-8.8275 4.6488,-4.165 8.2125,-7.15875 10.7038,-8.985 -0.7575,1.915 -1.6163,4.76625 -2.5788,8.555 -0.9662,3.78 -2.0212,7.12875 -3.1637,10.05875 -1.1475,2.92 -2.6325,5.48375 -4.4538,7.695 -0.5762,0.66375 -1.225,1.19125 -1.9525,1.5825 -0.7175,0.38125 -1.675,0.76125 -2.8712,1.1525 -1.2013,0.38 -1.9875,0.615 -2.3638,0.7025 -7.1875,2.5925 -11.2637,4.03375 -12.2262,4.31625 -3.545,1.1475 -5.7425,1.7725 -6.6013,1.875 0,3.2575 -1.6362,7.90625 -4.9025,13.94625 -1.5237,2.7725 -2.3387,4.21375 -2.4412,4.31625 -0.7713,0.66375 -2.09,1.40625 -3.965,2.22625 -1.865,0.81 -2.8863,1.265 -3.0663,1.3675 -1.445,0.85875 -4.2337,2.3925 -8.36,4.59 -4.1162,2.20125 -7.275,3.925 -9.4725,5.175 -4.3112,2.5925 -7.1875,4.41375 -8.6325,5.46875 -0.185,0.18625 -0.8012,0.7575 -1.855,1.71875 -1.055,0.9675 -1.9687,1.5925 -2.735,1.875 l -13.515002,4.45375 c -4.1162,1.435 -6.2262,2.20125 -6.3287,2.30375 -0.2875,0.18625 -1.4838,1.32875 -3.5938,3.4375 -0.185,0.19625 -0.4975,0.48875 -0.9375,0.88 -0.43,0.38 -0.7912,0.6925 -1.0737,0.9375 -0.2888,0.23375 -0.5763,0.54625 -0.86,0.9375 -0.2875,0.38 -0.5275,0.7125 -0.7225,0.995 -0.092,0.18625 -0.1363,1.85625 -0.1363,5.02 l 0,4.31625 c 0,0.9675 0.098,1.495 0.2925,1.5825 0.087,0.0925 0.8063,0.13625 2.1488,0.13625 3.2512,0 5.2637,-0.14125 6.035,-0.43 2.485,-1.05375 6.0987,-2.485 10.84,-4.29625 4.751202,-1.82125 7.992502,-3.07125 9.726202,-3.75 3.2525,-1.25 8.1888,-3.16375 14.805,-5.7425 6.6113,-2.5875 11.5475,-4.51125 14.805,-5.76125 12.9288,-4.97125 22.5588,-9.61875 28.8863,-13.945 6.3287,-4.4 12.2162,-9.5225 17.6762,-15.37125 1.8213,-1.915 3.5,-3.8775 5.0388,-5.89875 1.5325,-1.91375 2.3487,-2.87125 2.4412,-2.87125 0.195,-0.0875 1.25,-0.13625 3.1638,-0.13625 l 7.6175,0 0,9.9025 c 0,2.7875 -0.049,4.32625 -0.1363,4.60875 -0.2887,0.77125 -0.625,1.5625 -1.0162,2.3825 -0.3813,0.81125 -0.835,1.695 -1.3675,2.65625 -0.5225,0.9525 -0.9275,1.67 -1.21,2.14875 l -7.0513,14.23875 c -0.195,0.46875 -0.6537,1.26 -1.3675,2.3625 -0.7175,1.10875 -1.2687,2.09 -1.66,2.95 -0.3812,0.85875 -0.6637,1.675 -0.8587,2.44125 -0.094,0.66375 -0.1375,1.40625 -0.1375,2.22625 0,0.82 0.02,1.71375 0.059,2.67625 0.049,0.95125 0.079,1.67 0.079,2.1475 l -9.7663,0 c -2.8812,0 -4.4625,-0.0487 -4.7462,-0.15625 -0.4825,-0.0875 -1.5375,-0.615 -3.1638,-1.58125 -0.8587,-0.37625 -2.105,-0.9675 -3.73,-1.7775 -1.6312,-0.82 -2.8275,-1.42625 -3.5937,-1.81625 -2.0225,-1.1425 -3.3163,-1.7625 -3.8875,-1.85625 -0.6638,-0.195 -1.4063,-0.3125 -2.2263,-0.35125 -0.82,-0.0487 -1.7875,-0.0288 -2.89,0.0588 -1.0937,0.0925 -1.8312,0.13625 -2.2075,0.13625 l 0,7.77375 c 0,2.0075 0.044,3.10625 0.1363,3.30125 0.1962,0.38125 0.5087,0.81 0.9375,1.28875 0.43,0.48375 0.9575,0.99125 1.5825,1.52375 0.625,0.5225 1.025,0.87875 1.2112,1.07375 2.0163,2.11 5.0388,5.17625 9.0625,9.2 l 17.675,17.675 c 1.055,1.055 1.7238,1.68 2.0125,1.875 0.195,0.0888 1.015,0.1375 2.46,0.1375 l 5.45,0 c 0.6738,0 1.8013,0.0438 3.3788,0.13625 1.5862,0.1025 2.9787,0.1275 4.18,0.0775 1.1962,-0.0525 2.3237,-0.17 3.3787,-0.35125 3.6325,-0.67875 7.1288,-3.07625 10.4875,-7.1875 l 2.305,-4.60875 4.7263,-9.4925 c 0.1962,-0.46875 0.65,-1.255 1.3675,-2.36375 0.7275,-1.1025 1.28,-2.09 1.66,-2.94875 0.3762,-0.86 0.665,-1.67 0.86,-2.44125 l 0,-72.5975 c 7.9537,4.8975 15.3125,10.795 22.07,17.695 6.7575,6.89 14.16,15.36625 22.2075,25.43 5.4687,6.70875 9.6337,12.02625 12.5,15.95625 0.39,0.48375 0.9662,1.22625 1.7375,2.2275 0.7675,1.005 1.3387,1.7475 1.7187,2.22625 0.86,1.1625 1.3875,1.7375 1.5825,1.7375 0.195,0.0937 1.7288,0.1375 4.6088,0.1375 l 27.305,0 c 5.1662,0 7.9937,-0.0438 8.4762,-0.1375 1.7288,-0.39 3.5013,-0.86875 5.3125,-1.445 1.8213,-0.57125 3.955,-1.31375 6.4063,-2.22625 2.4462,-0.90875 4.1462,-1.50875 5.0987,-1.7975 2.3925,-0.96125 3.8763,-1.48875 4.4525,-1.58125 0.3913,-0.0875 2.7838,-0.1375 7.1875,-0.1375 l 0,-0.15625 c -1.5237,-0.4775 -5.4487,-2.1525 -11.7775,-5.01875 -7.7637,-3.4475 -14.805,-6.80625 -21.1325,-10.07875 -26.9287,-14.2675 -48.155,-29.55 -63.6725,-45.84 -4.99,-5.0775 -9.78,-11.02 -14.375,-17.83125 -2.5925,-3.93125 -4.2725,-6.70875 -5.0387,-8.34 0.3762,0 1.0937,0.0537 2.1487,0.15625 1.055,0.0925 1.9825,0.1125 2.7925,0.0588 0.8213,-0.0488 1.5238,-0.16625 2.11,-0.35125 0.3763,-0.1025 0.7325,-0.3425 1.0738,-0.72375 0.3375,-0.39 0.7225,-0.82 1.1525,-1.28875 0.43,-0.47875 0.7325,-0.82 0.9175,-1.015 2.2125,-2.0025 4.375,-3.6775 6.485,-5.02 5.4537,-3.4475 11.8262,-6.18125 19.1212,-8.2025 0.6638,-0.19625 1.7375,-0.455 3.2225,-0.78125 1.4838,-0.3375 2.6075,-0.60625 3.3788,-0.80125 0.7662,-0.195 1.6987,-0.5275 2.7925,-0.99625 1.1037,-0.47875 2.09,-1.07875 2.95,-1.79625 0.8687,-0.7275 1.64,-1.5675 2.305,-2.52 0.195,-0.39125 0.2925,-1.64125 0.2925,-3.75 l 0,-9.33625 c -0.3813,0 -1.0938,0.0538 -2.1488,0.15625 -1.055,0.0925 -1.9925,0.1125 -2.8125,0.0588 -0.81,-0.0488 -1.5525,-0.16625 -2.2262,-0.35125 -1.7188,-0.47875 -4.16,-1.65 -7.3238,-3.51625 -3.165,-1.875 -5.6162,-3.05125 -7.3437,-3.535 -0.2888,-0.0875 -1.8713,-0.13625 -4.7463,-0.13625 l -9.7662,0 c 0.088,-0.47875 0.1612,-1.12375 0.215,-1.93375 0.049,-0.82 0.079,-1.3725 0.079,-1.66 0.2825,-2.2125 0.8588,-4.41875 1.7188,-6.62125 0.7662,-2.3925 2.6362,-6.035 5.605,-10.9175 2.7737,-4.79 6.1225,-9.77625 10.0587,-14.96125 2.3925,-3.16375 4.8875,-5.88875 7.48,-8.18375 0.195,-0.195 0.82,-0.625 1.875,-1.28875 1.055,-0.67375 1.67,-1.20125 1.8563,-1.5825 0.1025,-0.195 0.1562,-1.9725 0.1562,-5.3325 l 0,-12.7925 -7.1875,0 c -0.6787,-0.195 -1.3775,-0.45375 -2.09,-0.78125 -0.7187,-0.33625 -1.5337,-0.76625 -2.4412,-1.28875 -0.9138,-0.5325 -1.5625,-0.89875 -1.9538,-1.09375 -1.6312,-0.76625 -4.1212,-1.9625 -7.48,-3.59375 -3.35,-1.62625 -5.8787,-2.822502 -7.5975,-3.593752 -0.7725,-0.37625 -1.925,-0.9225 -3.4575,-1.64125 -1.5387,-0.7275 -2.735,-1.27875 -3.5937,-1.66 -1.8263,-0.76625 -2.8325,-1.1525 -3.0275,-1.1525 -2.9688,0 -7.1388,1.29875 -12.5,3.8875 -7.1,3.451252 -12.4613,5.947502 -16.0938,7.480002 -5.185,2.295 -9.355,3.4375 -12.52,3.4375 0.1025,-3.345 2.9788,-7.3675 8.6338,-12.070002 3.54,-2.96875 8.09,-6.1325 13.6525,-9.4925 8.525,-4.985 15.6687,-7.48 21.425,-7.48 l 0,-7.46125 c 0,-2.11 -0.049,-3.26125 -0.1363,-3.4575 -0.1075,-0.375 -0.3512,-0.78125 -0.7425,-1.21 -0.3812,-0.44 -0.855,-0.89875 -1.4262,-1.3675 -0.5763,-0.47875 -0.9563,-0.82 -1.1513,-1.01625 -2.3975,-2.3925 -3.6875,-3.6375 -3.8675,-3.73 -0.5862,-0.39125 -1.7387,-0.9175 -3.4575,-1.5825 -3.0762,-1.5325 -5.3275,-2.73375 -6.7575,-3.59375 -1.7187,-0.96125 -3.6862,-2.30375 -5.8987,-4.0225 -0.092,-0.1025 -0.3075,-0.3175 -0.6438,-0.645 -0.3425,-0.3375 -0.655,-0.57625 -0.9375,-0.7225 -0.2887,-0.14125 -0.5275,-0.215 -0.7237,-0.215 -0.4688,0.0925 -1.4738,1.05 -3.0075,2.87125 -0.092,0.0925 -1.05,0.66375 -2.8713,1.71875 l -13.3787,6.62125 c -0.4838,0.195 -1.1325,0.56125 -1.9525,1.09375 -0.8113,0.5225 -1.5725,0.95125 -2.285,1.28875 -0.7188,0.3275 -1.4163,0.58625 -2.09,0.78125 l -7.0313,0 z m 8.7688,-65.2737498 c 2.4862,-0.2825 7.95,-0.185 16.3875,0.29375 14.555,0.57625 28.8762,2.72875 42.9687,6.46375 33.735,8.9212498 64.2087,26.9874998 91.425,54.1999998 19.2675,19.2575 33.8388,40.053752 43.7113,62.382502 9.775,21.95375 15.185,45.58125 16.23,70.87875 1.25,29.13125 -3.1588,56.485 -13.2225,82.07 -13.4125,34.11625 -34.975,63.17875 -64.6875,87.1875 -29.7013,24.01 -62.475,38.40875 -98.32,43.20375 -41.3963,5.45375 -79.9175,-0.44375 -115.5663,-17.695 -16.967502,-8.2325 -33.788702,-20.1125 -50.468702,-35.645 -23.6725,-22.04125 -41.1138,-47.24625 -52.3238,-75.605 C 3.8315182,252.96995 -0.67478183,226.7587 0.08151817,199.2587 c 0.7662,-30.2825 7.05120003,-57.695 18.84749983,-82.22625 9.4775,-19.648752 23.1837,-38.427502 41.1137,-56.347502 24.7113,-24.72625 51.737502,-41.83625 81.073802,-51.3274998 12.8375,-4.11125 25.82,-6.7975 38.945,-8.0475 7.095,-0.57125 10.7425,-0.85875 10.9375,-0.85875 0.4687,0 1.4462,-0.02 2.93,-0.0588 1.485,-0.0487 2.6612,-0.1275 3.535,-0.235 z"
     inkscape:connector-curvature="0" /></svg>