<?xml version="1.0" encoding="UTF-8" standalone="no"?>
<!-- Created with Inkscape (http://www.inkscape.org/) -->

<svg
   xmlns:dc="http://purl.org/dc/elements/1.1/"
   xmlns:cc="http://creativecommons.org/ns#"
   xmlns:rdf="http://www.w3.org/1999/02/22-rdf-syntax-ns#"
   xmlns:svg="http://www.w3.org/2000/svg"
   xmlns="http://www.w3.org/2000/svg"
   xmlns:sodipodi="http://sodipodi.sourceforge.net/DTD/sodipodi-0.dtd"
   xmlns:inkscape="http://www.inkscape.org/namespaces/inkscape"
   version="1.1"
   width="408.54919"
   height="408.92041"
   id="svg2"
   xml:space="preserve"
   inkscape:version="0.48.4 r9939"
   sodipodi:docname="black_king.svg"><sodipodi:namedview
     pagecolor="#ffffff"
     bordercolor="#666666"
     borderopacity="1"
     objecttolerance="10"
     gridtolerance="10"
     guidetolerance="10"
     inkscape:pageopacity="0"
     inkscape:pageshadow="2"
     inkscape:window-width="1920"
     inkscape:window-height="1024"
     id="namedview9"
     showgrid="false"
     inkscape:zoom="0.21106688"
     inkscape:cx="-1612.0735"
     inkscape:cy="-436.69729"
     inkscape:window-x="0"
     inkscape:window-y="0"
     inkscape:window-maximized="1"
     inkscape:current-layer="svg2"
     fit-margin-top="0"
     fit-margin-left="0"
     fit-margin-right="0"
     fit-margin-bottom="0" /><metadata
     id="metadata8"><rdf:RDF><cc:Work
         rdf:about=""><dc:format>image/svg+xml</dc:format><dc:type
           rdf:resource="http://purl.org/dc/dcmitype/StillImage" /><dc:title></dc:title></cc:Work></rdf:RDF></metadata><defs
     id="defs6" /><path
     sodipodi:type="arc"
     style="color:#000000;fill:#ffffff;fill-opacity:1;fill-rule:nonzero;stroke:none;stroke-width:0;marker:none;visibility:visible;display:inline;overflow:visible;enable-background:accumulate"
     id="path3959"
     sodipodi:cx="698.50732"
     sodipodi:cy="336.97931"
     sodipodi:rx="192.63391"
     sodipodi:ry="192.63391"
     d="m 891.14124,336.97931 a 192.63391,192.63391 0 1 1 -385.26783,0 192.63391,192.63391 0 1 1 385.26783,0 z"
     transform="translate(-494.23277,-132.51911)" /><path
     id="path3013"
     style="fill:#000000;fill-opacity:1;fill-rule:nonzero;stroke:none"
     d="m 215.29803,192.79495 c 0.5713,0 1.5275,0.0488 2.87,0.13625 1.3388,0.0925 2.54,0.13625 3.5938,0.13625 1.055,0 2.0125,-0.0875 2.8712,-0.2725 0.7675,-0.19625 1.7975,-0.625 3.0863,-1.29 1.2987,-0.67375 2.095,-1.05875 2.3825,-1.1525 4.2187,-1.92375 8.34,-3.8475 12.3637,-5.76125 1.8213,-0.76625 2.92,-1.38625 3.3013,-1.855 0.195,-0.1025 0.3125,-0.3425 0.3512,-0.7225 0.049,-0.39125 0.1263,-0.63 0.2338,-0.72375 0.2837,-1.25 1.1425,-1.9625 2.5787,-2.1475 0.2825,0 0.5713,0.0975 0.8588,0.2925 0.2837,0.18625 0.4987,0.42 0.645,0.70375 0.1562,0.2875 0.3512,0.64375 0.5862,1.07375 0.2338,0.43 0.4,0.69875 0.5075,0.80125 2.3925,3.6325 4.595,5.5025 6.6013,5.605 l 0,12.07 -42.8313,0.1375 0,-7.03125 z m 18.6913,-82.65625 42.4025,0 0,7.03125 c 0,2.02125 -0.049,3.125 -0.1375,3.32 -0.2875,0.77125 -1.3963,2.10875 -3.32,4.02375 -3.2575,3.25625 -6.1275,5.17 -8.6138,5.74125 -0.39,0.0937 -2.4562,0.1375 -6.1912,0.1375 0,3.07625 -0.5763,6.57625 -1.7188,10.5075 -0.8587,2.2025 -1.3425,3.39875 -1.445,3.59375 -0.6637,1.055 -1.9087,2.3 -3.73,3.73 -1.7187,1.53875 -3.3987,2.495 -5.04,2.87125 0,-2.29 0.049,-3.535 0.1563,-3.73 0.3762,-0.76625 1.3337,-1.84125 2.8712,-3.2225 1.5338,-1.3925 2.4463,-2.56875 2.735,-3.535 0.088,-0.28375 0.1363,-2.05625 0.1363,-5.3125 l 0,-11.7975 c -5.5613,0 -9.5851,-1.00125 -12.07,-3.0075 -0.2888,-0.195 -0.9138,-1.00625 -1.875,-2.44125 -1.8263,-2.58875 -3.2138,-5.225 -4.16,-7.91 z m 18.105,-14.238752 c 0,-1.91375 0.049,-2.96875 0.1562,-3.16375 0.3763,-0.7675 1.1625,-1.7975 2.3638,-3.08625 1.1962,-1.28875 1.84,-1.9825 1.9337,-2.09 1.0538,-0.9475 1.63,-1.665 1.7375,-2.14875 l 0,-4.60875 c 0,-1.235 -0.054,-1.95375 -0.1562,-2.14875 -0.185,-0.67375 -1.67,-2.7825 -4.4525,-6.3275 -0.094,-0.0888 -0.3525,-0.5175 -0.7813,-1.29 -0.43,-0.76625 -0.84,-1.39125 -1.2312,-1.875 -0.38,-0.4775 -0.7613,-0.76625 -1.1525,-0.85875 -0.195,-0.0875 -1.87,-0.1375 -5.0188,-0.1375 l -11.66,0 c 0,1.24125 -0.245,2.59875 -0.7225,4.0825 -0.4687,1.485 -0.8987,2.6125 -1.29,3.37875 -0.38,0.77125 -1.0937,2.16375 -2.1475,4.18 -1.055,2.00625 -1.6312,3.105 -1.7187,3.30125 -1.9288,3.8275 -5.43,10.00875 -10.5088,18.535002 -0.2875,0.585 -0.7713,1.50375 -1.445,2.75375 -0.6637,1.24 -1.2837,2.31375 -1.855,3.2225 -0.5762,0.9125 -1.2012,1.69875 -1.875,2.36375 -0.2887,0.2875 -0.645,0.58 -1.075,0.87875 -0.4287,0.2875 -0.9125,0.54625 -1.445,0.78125 -0.5225,0.23375 -0.9275,0.44875 -1.2112,0.64375 -5.2725,2.88125 -9.1551,4.31625 -11.64,4.31625 l -0.1375,7.05125 -5.7613,14.21875 c 0.6738,-0.0875 2.2563,-0.615 4.7463,-1.5825 2.0162,-0.76625 5.0387,-2.01125 9.0625,-3.73 2.1975,-1.1425 3.73,-1.81625 4.59,-2.01125 l 8.6325,0 c 2.11,0 3.2525,0.0488 3.4375,0.13625 0.7662,0.39125 1.7975,1.26 3.0862,2.5975 1.2988,1.3425 2.095,2.105 2.3825,2.285 0.195,0.19625 0.7913,0.58125 1.7975,1.1525 1,0.57625 1.65,1.055 1.9525,1.445 0.7525,0.9675 1.9975,3.55 3.73,7.755 0.1963,0.2875 0.625,1.20125 1.29,2.73375 0.6738,1.53875 1.25,2.69 1.7188,3.4575 0.195,0.195 0.5512,0.635 1.0737,1.30875 0.5325,0.66375 0.8988,1.18625 1.0938,1.5625 -1.1476,0.67875 -2.3438,2.11875 -3.5938,4.31625 -1.445,2.88 -2.1675,7.1875 -2.1675,12.92875 l -12.0712,0 c 4.9862,-7.08 7.7637,-11.005 8.34,-11.77625 0.1962,-0.19625 0.625,-0.72375 1.29,-1.5825 0.6737,-0.86 1.23,-1.60125 1.66,-2.22625 0.4287,-0.625 0.6875,-1.22125 0.7812,-1.7975 0.1025,-0.2825 0.1563,-1.5325 0.1563,-3.75 l -49.3163,0.15625 0,21.1325 c 4.6963,0 8.535,0.90875 11.5038,2.715 0.39,0.30375 0.8,1.05 1.23,2.24625 0.43,1.20125 1.1187,1.84625 2.07,1.93375 1.6412,0 3.13,-1.5825 4.4725,-4.74625 l 0.9962,-2.01125 c 0.1963,-0.0875 1.1525,-0.1375 2.8713,-0.1375 l 7.3437,0 0,13.36 c -2.5,0.0925 -5.815,1.1475 -9.9412,3.16375 -4.1163,2.02125 -6.8463,3.2175 -8.1838,3.59375 -0.2875,0.0925 -2.3,0.1375 -6.035,0.1375 0.4788,2.10875 1.7288,4.56 3.75,7.34375 0.088,0.185 0.395,0.63875 0.9175,1.36625 0.5325,0.71875 0.8988,1.31875 1.0938,1.7975 0.089,0.185 0.1375,1.3275 0.1375,3.4375 l -24.2975,-0.1375 0,-113.417502 c 0.1962,-0.2825 0.7225,-0.66875 1.5825,-1.1525 0.195,-0.0875 0.6737,-0.2775 1.445,-0.56625 0.7662,-0.2975 1.4362,-0.59125 2.0125,-0.87875 0.5712,-0.28375 0.9562,-0.615 1.1512,-0.99625 0.089,-0.0875 0.1375,-0.81 0.1375,-2.1675 0,-0.9475 -0.049,-1.47 -0.1375,-1.5625 -0.1075,-0.29875 -0.2825,-0.59125 -0.5262,-0.87875 -0.235,-0.28375 -0.5225,-0.57125 -0.86,-0.86 -0.3275,-0.2825 -0.5375,-0.5275 -0.625,-0.7225 -0.4838,-0.57125 -0.9913,-1.1425 -1.5238,-1.71875 -0.5225,-0.57125 -1.1225,-1.21625 -1.7962,-1.93375 -0.6638,-0.7125 -1.1913,-1.27 -1.5825,-1.66 -0.092,-0.0875 -0.2638,-0.27875 -0.5075,-0.56625 -0.235,-0.28375 -0.4488,-0.5475 -0.645,-0.78125 -0.185,-0.24375 -0.42,-0.46875 -0.7025,-0.66375 -0.2888,-0.19625 -0.5275,-0.3375 -0.7225,-0.43 -0.4838,-0.195 -1.1088,-0.3125 -1.875,-0.35125 -0.7713,-0.0488 -1.6363,-0.025 -2.5975,0.0775 -0.9525,0.0925 -1.6163,0.13625 -1.9925,0.13625 l -14.9613,0 c 0,0.38125 -0.054,1.12375 -0.1562,2.2275 -0.093,1.09375 -0.1125,2.05 -0.059,2.87125 0.049,0.81 0.1763,1.50375 0.3713,2.08875 0.4687,1.34375 1.275,3.165 2.4225,5.46875 1.1562,2.295 1.8787,3.77 2.1675,4.43375 0.087,0.19625 0.3512,0.7525 0.7812,1.66 0.44,0.91375 0.7075,1.6125 0.8013,2.09 0.195,1.71875 0.2925,3.61375 0.2925,5.683752 0,2.06125 -0.054,4.33125 -0.1563,6.81625 -0.093,2.49125 -0.1362,4.41 -0.1362,5.7625 l 0,36.64 -30.625,0 0,-8.90625 c 0,-2.5875 0.049,-4.0275 0.1562,-4.31625 l 2.285,-4.16 c 2.3925,-4.5025 3.6913,-7.23625 3.8863,-8.20375 0.195,-1.05375 0.195,-2.63625 0,-4.745 -0.093,-0.57125 -0.5226,-1.24125 -1.2888,-2.0125 -0.2887,-0.37625 -0.8162,-1.04 -1.5825,-1.9925 -0.7712,-0.96125 -1.2988,-1.64 -1.5812,-2.03125 l -11.2113,-13.65125 c -0.2887,-0.37625 -0.7712,-0.9775 -1.445,-1.797502 -0.665,-0.82 -1.1925,-1.465 -1.5825,-1.93375 l -1.4262,-1.445 c -0.195,-0.0875 -1.3038,-0.13625 -3.32,-0.13625 l -7.187503,0 c 0,0.38 -0.049,1.1225 -0.1363,2.22625 -0.094,1.09375 -0.1175,2.050002 -0.079,2.871252 0.049,0.82 0.1762,1.51875 0.3712,2.09 0.4788,1.24 1.196203,2.96375 2.148803,5.175 0.9612,2.2025 1.5862,3.6325 1.875,4.2975 1.1425,2.7875 1.7187,4.32625 1.7187,4.60875 0.195,5.27375 0.195,8.82375 0,10.645 -0.2887,1.81125 -0.6737,3.725 -1.1525,5.7425 -0.4687,2.02125 -1.045,4.2725 -1.7187,6.7575 -0.6638,2.49 -1.1475,4.40375 -1.445,5.7425 -0.094,0.4825 -0.3525,1.3225 -0.7813,2.51875 -0.430003,1.20125 -0.698803,2.13875 -0.801203,2.8125 -0.093,0.46875 -0.1363,1.01625 -0.1363,1.64125 0,0.625 0.019,1.3475 0.059,2.1675 0.049,0.81125 0.077,1.40625 0.077,1.7975 l 0,11.21 c 0,0.38125 -0.049,1.12375 -0.1363,2.2275 -0.094,1.1075 -0.1175,2.07 -0.079,2.89 0.049,0.81125 0.1762,1.49875 0.3712,2.07 0.195,0.48375 0.722503,1.1525 1.582503,2.0125 0.375,0.4825 0.9963,1.225 1.855,2.22625 0.8688,1.00625 1.4938,1.7475 1.875,2.22625 0.1025,0.0925 0.4588,0.5475 1.0738,1.3675 0.625,0.81 1.1962,1.455 1.7187,1.93375 0.5325,0.48375 0.9963,0.77125 1.3875,0.85875 1.6263,0.30375 3.6375,-0.65375 6.035,-2.87125 0.5713,-0.4775 1.43,-1.29375 2.5775,-2.44125 1.1575,-1.1425 2.2125,-2.11875 3.165,-2.92875 0.9613,-0.82125 1.875,-1.51375 2.7338,-2.09 0.5712,-0.39125 1.26,-0.67375 2.07,-0.86 0.8212,-0.195 1.7825,-0.41 2.8912,-0.64375 1.1038,-0.245 1.845,-0.42 2.2263,-0.5275 6.3287,-1.8075 11.8362,-3.34 16.5237,-4.59 0.4788,-0.195 0.9613,-0.5525 1.445,-1.075 0.4788,-0.53125 0.8113,-0.84375 0.9963,-0.9375 1.25,-0.96125 2.7837,-1.445 4.61,-1.445 l 0,34.21875 c -0.5763,0 -1.5588,-0.0437 -2.95,-0.13625 -1.3963,-0.1025 -2.6175,-0.1275 -3.6713,-0.0788 -1.055,0.0537 -1.9637,0.17125 -2.715,0.3525 -0.9675,0.2875 -5.2837,1.82625 -12.95,4.60875 -2.9687,1.25 -4.785,1.92375 -5.4487,2.01125 -1.25,0.19625 -2.5975,0.29375 -4.0425,0.29375 -1.4363,0 -3.0375,-0.0438 -4.805,-0.1375 -1.7725,-0.1025 -3.14,-0.15625 -4.1013,-0.15625 l -26.446203,0 0,7.48125 c 0,2.00625 0.045,3.105 0.1375,3.3 0.1025,0.48375 0.7712,1.3 2.0112,2.4425 0.1025,0.0925 0.63,0.6925 1.5825,1.79625 0.9613,1.10875 1.6838,1.895 2.1675,2.36375 0.1813,0.195 1.06,1.23 2.6375,3.105 1.5862,1.865 2.8613,3.17875 3.8275,3.945 2.968803,2.3975 6.992503,3.59375 12.070003,3.59375 -0.2875,0.9675 -1.3862,3.84375 -3.3,8.63375 -2.7887,6.61625 -5.04,11.26375 -6.7587,13.945 -1.537503,2.2025 -2.636303,3.58875 -3.300003,4.16 -0.195,0.195 -0.5813,0.42 -1.1525,0.66375 -0.5763,0.235 -0.9138,0.49875 -1.0163,0.78125 -0.195,0.38125 -0.6737,1.96375 -1.425,4.74625 l -3.0275,9.4725 c -0.7712,3.27125 -1.485,5.3325 -2.1487,6.19125 -1.3425,1.71875 -2.8513,3.545 -4.5313,5.46875 -1.68,1.915 -3.55,4 -5.605,6.25 -2.0612,2.25625 -3.6137,4 -4.6687,5.235 -0.39,0.57625 -1.0438,1.3675 -1.9525,2.3825 -0.9138,1.00625 -1.6113,1.74875 -2.09,2.22625 -1.24,1.53875 -1.855,2.35375 -1.855,2.44125 -0.1075,0.19625 -0.1563,1.3 -0.1563,3.30125 l 10.6438,0 c 3.0712,0 4.6974,-0.0438 4.8837,-0.13625 0.6738,-0.19625 1.3475,-0.5275 2.0113,-0.99625 0.6737,-0.47875 1.4162,-1.035 2.2262,-1.66 0.82,-0.625 1.4163,-1.08 1.7975,-1.3675 4.6088,-3.2525 9.2088,-7.1875 13.808803,-11.7975 6.22,-6.22 11.8262,-13.4075 16.8162,-21.5625 2.875,-4.50125 4.8875,-7.9975 6.035,-10.4875 0.7662,-1.91375 1.65,-4.85375 2.6563,-8.82875 1.015,-3.98375 1.5675,-6.17125 1.66,-6.5625 0.5712,-1.71875 1.6262,-5.35625 3.1637,-10.9175 0.9625,-2.87625 1.49,-4.6 1.5825,-5.17625 0.087,-0.94625 0.1363,-2.02125 0.1363,-3.2225 0,-1.19625 -0.029,-2.49 -0.077,-3.88625 -0.04,-1.39125 -0.059,-2.47125 -0.059,-3.2425 l 18.3988,0 c 0,11.40625 -1.0113,25.015 -3.0275,40.82 -0.1863,1.64125 -0.7138,4.4725 -1.5825,8.49625 -0.8588,4.02375 -1.3813,7.13875 -1.5625,9.33625 -0.1075,0.96625 -0.1563,7.0025 -0.1563,18.105 l 0,11.3675 c 0,3.2575 0.049,4.98 0.1563,5.17625 0.088,0.2875 0.225,0.55625 0.41,0.8 0.195,0.235 0.435,0.47875 0.7225,0.7225 0.2837,0.235 0.4787,0.445 0.5862,0.625 l 3.8863,4.3175 c 0.2837,0.2875 0.665,0.74125 1.1337,1.36625 0.4775,0.625 0.9613,1.1825 1.445,1.66 0.4788,0.46875 0.9613,0.80125 1.445,0.99625 2.485,0.9675 5.6938,-0.5175 9.6288,-4.4525 l 2.1487,-2.14875 c 0.195,-0.1025 1.25,-0.15625 3.1638,-0.15625 l 0,-97.03125 24.2975,0 c 0,7.57875 0.5275,15.48875 1.5812,23.73 0.3763,2.96875 0.7088,5.36625 0.9963,7.1875 0.1962,1.63125 0.435,2.77375 0.7225,3.4375 0,0.1075 0.9575,1.4025 2.8712,3.8875 l 6.3288,7.75375 5.3312,6.62125 c 1.055,1.63125 1.8175,2.53875 2.2863,2.73375 0.195,0.0937 1.8262,0.1375 4.9012,0.1375 l 12.0713,0 0,-34.9225 -9.2,0 c -3.4513,-0.2825 -8.1975,-1.48375 -14.2375,-3.59375 -1.7188,-0.57125 -3.4913,-1.29375 -5.3125,-2.1675 -1.25,-0.47875 -1.9725,-0.865 -2.1688,-1.1525 -0.093,-0.18125 -0.1362,-1.47 -0.1362,-3.8675 l 0,-9.785 55.3512,0 0,82.8125 c -1.8262,0 -2.8312,-0.0488 -3.0275,-0.15625 -0.5762,-0.2825 -1.1475,-0.7125 -1.7187,-1.28875 -0.5763,-0.57125 -1.1713,-1.26 -1.7963,-2.07 -0.625,-0.82125 -1.0837,-1.3725 -1.3675,-1.66125 -0.9662,-0.96125 -1.4937,-1.445 -1.5825,-1.445 -0.4825,-0.195 -1.1075,-0.3125 -1.875,-0.35125 -0.7713,-0.0487 -1.635,-0.025 -2.5975,0.0775 -0.9512,0.0937 -1.6162,0.1375 -1.9912,0.1375 l -14.805,0 c 0.3762,1.63125 1.4062,3.925 3.0862,6.89375 1.6788,2.96875 2.705,5.225 3.085,6.75875 0.1963,0.66375 0.3125,1.40625 0.3525,2.22625 0.049,0.81 0.024,1.7675 -0.079,2.87125 -0.093,1.10875 -0.1363,1.85 -0.1363,2.22625 5.375,0 9.4038,1.055 12.09,3.16375 0.8588,0.67875 1.7188,1.5 2.5775,2.46125 0.86,0.9525 1.7675,2.08 2.735,3.37875 0.9612,1.28875 1.7275,2.2225 2.3038,2.79375 l 5.6062,6.46375 c 1.0538,1.43625 1.7675,2.105 2.1475,2.0125 0.3913,-0.0875 0.9675,-0.5175 1.7388,-1.28875 1.235,-1.055 2.525,-2.305 3.8675,-3.75 4.8925,-5.25875 8.8712,-11.68 11.9337,-19.25875 2.1088,-4.985 3.305,-8.24125 3.5938,-9.765 0.088,-0.58625 0.1362,-1.21125 0.1362,-1.875 0,-0.67375 -0.029,-1.41625 -0.077,-2.22625 -0.04,-0.82125 -0.059,-1.41625 -0.059,-1.7975 l 0,-11.64 c 0,-11.885 -0.097,-18.74125 -0.2938,-20.5675 -0.185,-1.91375 -0.6837,-4.54 -1.5037,-7.89 -0.81,-3.36 -1.3088,-5.61 -1.5038,-6.7575 -1.7337,-11.02625 -2.5975,-21.19125 -2.5975,-30.48875 l 55.0588,0 c 0,-2.00125 0.049,-3.105 0.1562,-3.30125 0.3763,-0.96125 1.3763,-2.20625 3.0075,-3.73 1.6263,-1.5325 2.6363,-2.73375 3.0275,-3.59375 0.088,-0.195 0.1363,-1.25 0.1363,-3.16375 l 0,-7.05125 c -3.545,-0.2825 -8.4325,-1.41125 -14.6675,-3.37875 -6.2263,-1.9625 -10.5375,-3.18875 -12.93,-3.67125 -1.5375,-0.18125 -4.7025,-0.18125 -9.4925,0 -1.3425,0.1075 -3.2563,0.63375 -5.7413,1.58125 -4.0237,1.53875 -7.0025,2.735 -8.9262,3.59375 -0.2875,0.1075 -0.6988,0.3025 -1.23,0.58625 -0.5225,0.2875 -0.9963,0.5275 -1.4263,0.7225 -0.43,0.18625 -0.84,0.3275 -1.23,0.43 -0.3812,0.0925 -2.295,0.13625 -5.7425,0.13625 0,-2.1975 0.049,-3.39875 0.1563,-3.59375 0.3762,-0.85875 1.3087,-1.9825 2.7925,-3.37875 1.485,-1.39125 2.4225,-2.52 2.8125,-3.37875 0.089,-0.28375 0.1375,-2.01125 0.1375,-5.17625 l 0,-11.93375 -18.2625,0 c 0,-2.00125 0.049,-3.105 0.1562,-3.3 0.089,-0.28375 0.7088,-1.00125 1.8563,-2.14875 0.39,-0.39 1.015,-1.04 1.875,-1.9525 0.8587,-0.90875 1.5275,-1.6075 2.0112,-2.09 2.5,-2.48625 6.045,-6.31375 10.645,-11.485 9.8675,-11.40625 17.9688,-21.855 24.2963,-31.3475 2.6812,-4.02375 4.6387,-7.09 5.8787,-9.19875 l 2.305,-4.16 c 0.1025,-0.19625 0.1563,-1.34875 0.1563,-3.4575 l 0,-7.187502 c -6.3275,0 -11.8463,-2.05625 -16.5425,-6.1725 -1.4363,-1.3375 -3.0175,-3.115 -4.7463,-5.33125 -0.093,-0.0875 -0.2637,-0.3225 -0.5075,-0.70375 -0.235,-0.39 -0.4062,-0.65375 -0.5087,-0.8 -0.093,-0.1425 -0.2825,-0.28375 -0.5663,-0.43 -0.2875,-0.14125 -0.5762,-0.215 -0.8587,-0.215 -1.8263,0 -2.8813,0.0488 -3.165,0.13625 -0.6638,0.19625 -1.3376,0.48875 -2.0113,0.88 -0.6637,0.38 -1.455,0.87875 -2.3637,1.50375 -0.9125,0.625 -1.5138,1.03 -1.7963,1.21 -6.4212,3.93625 -10.1125,6.1875 -11.0737,6.75875 -2.9688,1.91375 -4.6,2.925 -4.8838,3.0275 -0.2875,0.0925 -1.5812,0.13625 -3.8862,0.13625 l -8.34,0 z M 197.62183,0.1574482 c 2.485,-0.2825 7.9487,-0.185 16.3862,0.29375 13.6037,0.57625 27.115,2.53875 40.5275,5.8975 33.4475,8.4287498 63.9263,25.8699998 91.4263,52.3249998 20.5075,19.6475 36.1325,41.737502 46.875,66.268752 9.8675,22.80375 15.0875,47.37875 15.6637,73.73125 0.5712,27.6075 -3.8862,53.53 -13.3787,77.7725 -13.6088,34.5075 -35.41,63.71125 -65.41,87.6175 -29.99,23.90625 -63.2375,38.2525 -99.7463,43.0475 -32.3975,4.21875 -63.4525,1.05875 -93.1637,-9.4725 -30.0938,-10.7425 -56.680003,-28.4725 -79.766303,-53.18375 -20.3275,-21.86125 -35.2287,-45.2 -44.7062,-70.02 C 5.3217266,255.9487 1.2930266,234.9137 0.23932661,211.32995 -1.2844734,179.03995 4.4680266,148.6637 17.504327,120.1962 c 10.1562,-21.952502 24.4337,-41.835002 42.8325,-59.647502 8.8137,-8.63375 15.6637,-14.86375 20.5462,-18.69125 18.5012,-14.4775 38.291203,-25.16625 59.375003,-32.0712498 11.9775,-4.0225 24.4387,-6.7475 37.3838,-8.18375 5.9375,-0.57125 10.39,-0.95625 13.3587,-1.15125 0.4788,0 1.485,-0.02 3.0075,-0.0588 1.5338,-0.0487 2.74,-0.1275 3.6138,-0.235 z"
     inkscape:connector-curvature="0" /></svg>