<?xml version="1.0" encoding="UTF-8" standalone="no"?>
<!-- Created with Inkscape (http://www.inkscape.org/) -->

<svg
   xmlns:dc="http://purl.org/dc/elements/1.1/"
   xmlns:cc="http://creativecommons.org/ns#"
   xmlns:rdf="http://www.w3.org/1999/02/22-rdf-syntax-ns#"
   xmlns:svg="http://www.w3.org/2000/svg"
   xmlns="http://www.w3.org/2000/svg"
   xmlns:sodipodi="http://sodipodi.sourceforge.net/DTD/sodipodi-0.dtd"
   xmlns:inkscape="http://www.inkscape.org/namespaces/inkscape"
   version="1.1"
   width="408.58896"
   height="408.64886"
   id="svg2"
   xml:space="preserve"
   inkscape:version="0.48.4 r9939"
   sodipodi:docname="black_horse.svg"><sodipodi:namedview
     pagecolor="#ffffff"
     bordercolor="#666666"
     borderopacity="1"
     objecttolerance="10"
     gridtolerance="10"
     guidetolerance="10"
     inkscape:pageopacity="0"
     inkscape:pageshadow="2"
     inkscape:window-width="1920"
     inkscape:window-height="1024"
     id="namedview9"
     showgrid="false"
     inkscape:zoom="0.21106688"
     inkscape:cx="257.07567"
     inkscape:cy="-914.33641"
     inkscape:window-x="0"
     inkscape:window-y="0"
     inkscape:window-maximized="1"
     inkscape:current-layer="svg2"
     fit-margin-top="0"
     fit-margin-left="0"
     fit-margin-right="0"
     fit-margin-bottom="0" /><metadata
     id="metadata8"><rdf:RDF><cc:Work
         rdf:about=""><dc:format>image/svg+xml</dc:format><dc:type
           rdf:resource="http://purl.org/dc/dcmitype/StillImage" /><dc:title></dc:title></cc:Work></rdf:RDF></metadata><defs
     id="defs6" /><path
     transform="translate(-494.21285,-132.65488)"
     d="m 891.14124,336.97931 a 192.63391,192.63391 0 1 1 -385.26783,0 192.63391,192.63391 0 1 1 385.26783,0 z"
     sodipodi:ry="192.63391"
     sodipodi:rx="192.63391"
     sodipodi:cy="336.97931"
     sodipodi:cx="698.50732"
     id="path3953"
     style="color:#000000;fill:#ffffff;fill-opacity:1;fill-rule:nonzero;stroke:none;stroke-width:0;marker:none;visibility:visible;display:inline;overflow:visible;enable-background:accumulate"
     sodipodi:type="arc" /><path
     id="path3041"
     style="fill:#000000;fill-opacity:1;fill-rule:nonzero;stroke:none"
     d="m 159.99117,283.50619 0,-22.9875 -0.1363,-2.44125 -2.8712,-3.165 -4.4538,-4.31625 -5.0387,-2.5975 -16.6801,-8.34 -14.6487,0 c 0.1812,1.1625 0.5137,2.38375 0.9963,3.6725 0.4787,1.28875 1.055,2.685 1.7187,4.18 0.6737,1.48375 1.1575,2.65625 1.445,3.515 l 4.3175,11.64125 c 1.25,3.6475 2.06,5.7125 2.4412,6.19125 0.4788,0.75625 1.1038,1.5425 1.875,2.3625 0.7663,0.82125 1.6701,1.69 2.715,2.5975 1.0538,0.89875 1.8213,1.5925 2.3038,2.07125 l 5.3325,5.3125 c 1.3375,1.3575 2.1537,2.08 2.4412,2.1675 0.2838,0.0925 2.1538,0.13625 5.6063,0.13625 l 12.6362,0 z m 50.8987,-43.8475 c -0.4837,0 -1.28,0.0537 -2.3837,0.15625 -1.0938,0.0937 -2.08,0.1175 -2.9488,0.0788 -0.86,-0.0488 -1.6212,-0.17625 -2.285,-0.37125 -1.3425,-0.47875 -3.2812,-1.39125 -5.82,-2.735 -2.54,-1.3375 -4.005,-2.10875 -4.395,-2.30375 -2.2025,-1.23625 -3.5887,-1.905 -4.16,-2.0125 l -21.855,0 0,7.6375 c 0,2.00625 0.044,3.105 0.1363,3.3 0.39,0.57625 1.1137,1.3675 2.1675,2.38375 1.055,1.005 1.67,1.59625 1.8562,1.77625 2.0163,2.11 5.0875,5.23 9.2188,9.35625 2.7725,2.77375 4.2575,4.30625 4.4524,4.59 0.088,0.195 0.7088,1.5375 1.8563,4.0225 1.3375,4.02375 2.0112,7.6175 2.0112,10.78125 l 22.1488,0 0,-36.66 z m -116.446197,-7.1875 -21.835,0 c 0,5.7575 -0.6788,12.65625 -2.0313,20.70375 -0.86,4.99 -1.4362,7.8225 -1.7187,8.49625 -1.055,2.09875 -2.5938,4.0375 -4.61,5.82 -2.0063,1.7725 -4.0625,2.84625 -6.1713,3.2225 l 0,34.51125 23.1438,0 c 1.4462,0 2.2562,-0.0487 2.4412,-0.15625 0.2838,-0.0875 0.5713,-0.25375 0.86,-0.4875 0.2825,-0.24375 0.595,-0.5325 0.9375,-0.86 0.3363,-0.33625 0.605,-0.605 0.8,-0.8 l 5.3125,-4.31625 c 1.7288,-1.43125 2.6425,-2.29 2.735,-2.57875 0.088,-0.2975 0.1363,-2.21625 0.1363,-5.76125 l 0,-57.79375 z m 174.512497,9.0625 c -1.3425,0.39125 -2.4713,0.46875 -3.3788,0.235 -0.9137,-0.24375 -1.7487,-1.04 -2.5,-2.3825 -0.1075,-0.19625 -0.23,-0.50875 -0.3712,-0.9375 -0.1463,-0.43 -0.2888,-0.81125 -0.43,-1.1525 -0.1463,-0.3375 -0.3613,-0.65 -0.645,-0.9375 -0.2876,-0.28375 -0.5763,-0.47375 -0.8588,-0.56625 -10.5475,-2.58875 -17.6462,-4.415 -21.2887,-5.46875 -2.2025,-0.665 -5.4113,-1.76375 -9.6288,-3.30125 -0.094,0 -0.7187,-0.25875 -1.875,-0.78125 -1.1475,-0.5325 -2.0512,-0.89875 -2.715,-1.09375 l -7.3437,0 0,7.77375 c 0,2.00625 0.049,3.105 0.1562,3.3 0.2825,0.57625 0.6875,1.1475 1.21,1.71875 0.5325,0.57625 1.2013,1.20125 2.0125,1.875 0.82,0.665 1.3713,1.1425 1.66,1.42625 l 8.4762,8.49625 4.4538,4.4525 c 0.195,0.28875 0.6738,1.43625 1.445,3.4375 1.5325,3.84375 2.305,7.6325 2.305,11.3675 l 29.3163,0 0,-27.46125 z m -130.8013,-67.12875 50.5863,0 0,14.23875 c -0.6638,0 -1.7925,-0.0438 -3.3788,-0.1375 -1.5775,-0.1025 -2.9637,-0.12625 -4.16,-0.0775 -1.2012,0.0387 -2.2812,0.15625 -3.2425,0.35125 -2.3975,0.48375 -5.9675,1.66 -10.7037,3.535 -4.7413,1.86625 -8.3588,3.0375 -10.8588,3.51625 -0.3812,0.0925 -2.3925,0.13625 -6.035,0.13625 l -12.2075,0 0,-21.5625 z m 0,-43.555 43.2625,0 0,21.5625 -43.2625,0 0,-21.5625 z m 7.325,-43.553747 c 9.775,0 19.1688,-1.1525 28.1825,-3.4575 0.2838,-0.0875 1.1925,-0.76125 2.715,-2.01125 1.9238,-1.25 3.6525,-1.875 5.1763,-1.875 l 0,28.906247 -36.0738,0 0,-21.562497 z m 138.0075,-29.33625 -7.6175,0 c -2.2162,0 -3.4125,-0.0437 -3.5937,-0.13625 -0.9663,-0.37625 -1.9538,-0.88 -2.9688,-1.505 -1.0063,-0.625 -2.1287,-1.3175 -3.3787,-2.08875 -1.24,-0.7675 -2.1875,-1.33875 -2.8513,-1.71875 -2.11,-1.25 -3.36,-1.82625 -3.75,-1.73875 -0.9525,0.1075 -1.9538,0.65875 -3.0087,1.66 -1.0538,1.00625 -1.7763,1.60125 -2.1675,1.7975 -0.3813,0.195 -1.0938,0.2925 -2.1488,0.2925 -0.5762,0.0925 -1.4837,0.21 -2.7337,0.35125 -1.25,0.14625 -2.2075,0.26875 -2.8713,0.37125 -29.805,3.06125 -49.0237,5.16625 -57.6562,6.30875 -2.7738,0.39 -6.6988,1.045 -11.7775,1.9525 -5.0788,0.91375 -8.3888,1.46 -9.9213,1.64125 -1.4362,0.2875 -4.6437,0.79625 -9.63,1.52375 -4.99,0.7175 -8.8225,1.40625 -11.5037,2.07 -0.4825,0.1075 -1.1525,0.7325 -2.0113,1.875 -0.86,1.1475 -1.7187,1.71875 -2.5787,1.71875 -0.39,0 -0.9713,-0.5275 -1.7375,-1.5825 -0.5763,-0.85875 -1.3388,-2.1475 -2.285,-3.86625 -0.6788,-1.055 -1.065,-1.5825 -1.1525,-1.5825 -0.3913,-0.195 -0.9475,-0.3125 -1.66,-0.35125 -0.7188,-0.0488 -1.5338,-0.03 -2.4413,0.0588 -0.9137,0.0925 -1.5137,0.13625 -1.7975,0.13625 l -14.0825,0 0,84.961247 c 0,3.16375 0.045,7.62625 0.1375,13.37875 0.087,5.7425 0.1363,10.96625 0.1363,15.66375 0,4.7025 -0.092,9.155 -0.2738,13.36 -0.1075,2.21625 -1.64,4.80375 -4.6087,7.7725 -1.6313,1.63125 -2.495,2.54 -2.5975,2.735 -0.092,0.185 -0.1375,1.425 -0.1375,3.73 1.6262,0.0925 3.2087,1.19125 4.7462,3.30125 1.25,1.63125 2.0613,3.06625 2.4413,4.31625 0.1025,0.2875 0.1562,1.48375 0.1562,3.59375 l 0,7.32375 c 1.2363,-0.18 3.7213,-0.8 7.4613,-1.855 5.6637,-1.3375 10.5075,-2.53875 14.5312,-3.59375 11.875,-2.87625 26.1525,-6.42625 42.8325,-10.645 l 22.4213,-5.605 80.3512,0 c 1.925,0 2.9788,0.0487 3.165,0.13625 0.2825,0.19625 0.5713,0.46375 0.8588,0.80125 0.2987,0.34125 0.635,0.7525 1.0162,1.23 0.3763,0.46875 0.615,0.80125 0.7225,0.99625 l 5.8988,7.05125 c 1.625,1.91375 2.4412,3.06125 2.4412,3.4375 0,4.41375 -1.2012,9.40375 -3.5937,14.96125 -2.305,4.975 -3.555,8.33 -3.75,10.0575 l 0,40.9775 c -0.1863,0.66375 -0.8988,2.09875 -2.1488,4.29625 l -4.61,9.2 c -2.5775,5.2725 -3.9637,8.0075 -4.16,8.2025 -1.0537,1.53875 -2.7825,3.12 -5.175,4.74625 -2.11,1.5375 -3.9362,2.3975 -5.4687,2.5775 -0.5763,0 -2.7738,-0.57125 -6.6013,-1.71875 -0.6787,-0.195 -2.8662,-1.005 -6.5625,-2.44125 -3.6875,-1.445 -6.5337,-2.4025 -8.5362,-2.87125 -0.39,-0.1025 -2.9288,-0.15625 -7.6163,-0.15625 l 0,12.95 c 0,3.35 0.044,5.1175 0.1363,5.3125 0.2837,0.57625 0.6887,1.1475 1.2112,1.71875 0.5325,0.57625 1.1813,1.17125 1.9525,1.79625 0.7675,0.625 1.2938,1.085 1.5825,1.3675 l 8.77,8.77 c 2.7725,2.7875 4.2575,4.32625 4.4525,4.60875 0.2838,0.28875 0.81,1.485 1.5825,3.59375 1.445,3.4475 2.1675,7.09 2.1675,10.91875 l 20.1175,0 c 0.2825,-1.1475 1.8163,-3.2575 4.59,-6.32875 2.3925,-2.5925 6.04,-6.3275 10.9375,-11.21125 0.2825,-0.2825 0.81,-0.76125 1.5813,-1.425 0.7675,-0.67375 1.4112,-1.275 1.9337,-1.7975 0.5325,-0.5325 0.8888,-1.08375 1.075,-1.66 0.9613,-2.305 2.1338,-5.825 3.515,-10.56625 1.3913,-4.73625 2.5688,-8.26125 3.535,-10.56625 0.5713,-1.25 1.7875,-3.545 3.6525,-6.895 1.875,-3.35875 3.0963,-5.99625 3.6725,-7.91 0.195,-0.67375 0.41,-1.685 0.6438,-3.0275 0.2437,-1.3375 0.415,-2.25125 0.5075,-2.73375 0.4787,-2.96875 1.295,-7.4225 2.4412,-13.36 1.25,-6.70375 3.6438,-19.165 7.1875,-37.3825 0.87,-4.595 2.55,-13.16875 5.04,-25.7225 1.5325,-6.70375 2.3488,-10.68375 2.4413,-11.93375 0.088,-1.43125 0.1362,-2.98875 0.1362,-4.6675 0,-1.68 -0.029,-3.545 -0.077,-5.60625 -0.04,-2.055 -0.059,-3.6125 -0.059,-4.6675 l -9.7663,0 c -2.9825,0 -4.6625,-0.0488 -5.0388,-0.15625 -1.8262,-0.37625 -3.7449,-0.80625 -5.7612,-1.28875 -2.0075,-0.47875 -4.2575,-1.08 -6.7575,-1.7975 -2.4912,-0.7125 -4.405,-1.27 -5.7425,-1.66 -5.0787,-1.52375 -8.1937,-2.285 -9.3362,-2.285 l -11.5038,0 c -3.36,0.46875 -8.32,1.67 -14.8825,3.59375 -6.5625,1.91375 -11.5187,3.115 -14.8637,3.59375 -1.25,0.185 -2.6175,0.27375 -4.1013,0.27375 -1.485,0 -3.12,-0.045 -4.9025,-0.1375 -1.7725,-0.0875 -3.135,-0.13625 -4.0825,-0.13625 l -26.7375,0 0,-21.5625 12.3625,-2.0125 30.8988,-5.175 21.9925,0 0,-14.66875 c -2.7738,-0.39 -6.5826,-1.5625 -11.4263,-3.515 -4.8438,-1.9625 -8.2225,-3.18875 -10.1362,-3.6725 -0.3813,-0.0875 -2.105,-0.13625 -5.1763,-0.13625 l -4.8825,-0.15625 c -3.2575,0 -4.8825,0.0537 -4.8825,0.15625 -0.2887,0 -2.3975,0.57625 -6.3288,1.71875 -1.0549,0.38125 -3.3349,1.24 -6.8362,2.57875 -3.4912,1.3425 -6.245,2.30375 -8.2612,2.89 -0.3813,0.0925 -2.8225,0.13625 -7.3238,0.13625 l 0,-14.375 10.4875,-1.28875 20.7038,-4.02375 8.4762,-1.875 18.3988,0 0,-7.91 c 0,-2.00125 -0.049,-3.105 -0.1375,-3.3 -0.092,-0.19625 -0.9075,-1.06 -2.4413,-2.5975 l -5.4687,-5.45 c -1.7188,-1.72875 -2.7288,-2.64125 -3.0275,-2.73375 -0.2875,-0.1025 -1.245,-0.15625 -2.8713,-0.15625 l -29.6087,0 c -0.4838,0.1075 -1.225,0.54125 -2.2263,1.30875 -1.0062,0.77125 -1.5575,1.20125 -1.66,1.28875 -0.2887,0.195 -0.9862,0.7025 -2.09,1.52375 -1.0937,0.81 -2.0262,1.455 -2.7937,1.9325 -0.7713,0.46875 -1.5375,0.80125 -2.3038,0.99625 -0.1862,0.0937 -1.3287,0.1375 -3.4375,0.1375 l 0,-28.749997 26.7375,0 c 0.9475,0 2.31,0.0538 4.0825,0.15625 1.7825,0.0925 3.4175,0.13625 4.9025,0.13625 1.4838,0 2.8513,-0.0975 4.1013,-0.2925 0.1812,0 1.9537,-0.57125 5.3125,-1.71875 1.055,-0.37625 2.7537,-0.99625 5.0975,-1.85625 2.3437,-0.86875 4.4237,-1.59125 6.25,-2.1675 1.8212,-0.57125 3.545,-1.055 5.1762,-1.445 0.9613,-0.18125 2.06,-0.29875 3.3,-0.3525 1.25,-0.0488 2.6613,-0.0238 4.2388,0.0787 1.5875,0.0925 2.72,0.13625 3.3987,0.13625 l 0,-14.6675 z M 203.40867,0.02994288 c 27.315,-0.46875 53.2862,4.56625002 77.91,15.09750012 26.3525,11.12375 50.2199,27.89125 71.6024,50.3125 15.1263,15.71875 27.1963,32.8275 36.2101,51.328747 14.2824,29.52125 20.7037,60.56625 19.2587,93.14375 -0.9525,22.53 -4.4925,42.26625 -10.625,59.21875 -9.21,25.9775 -23.535,49.74625 -42.9888,71.30875 -17.92,19.83 -38.5687,35.59125 -61.9537,47.285 -26.1613,13.135 -54.2863,20.08375 -84.375,20.84 -27.8025,0.7675 -53.8663,-3.73 -78.2025,-13.49625 -22.8125,-9.20875 -43.662497,-22.5775 -62.538797,-40.11625 -20.7962,-19.25875 -36.7975,-40.435 -48.0087,-63.535 -12.8412995,-26.54875 -19.40379955,-55.17625 -19.68749955,-85.88 -0.2875,-30.7125 5.70370005,-59.49125 17.96999955,-86.3275 9.2962,-20.322497 23.6712,-40.214997 43.125,-59.667497 16.9525,-16.95375 34.9212,-30.17625 53.904997,-39.66875 25.4787,-12.7437501 54.9475,-19.36000012 88.3987,-19.84375012 z"
     inkscape:connector-curvature="0" /></svg>