<?xml version="1.0" encoding="UTF-8" standalone="no"?>
<!-- Created with Inkscape (http://www.inkscape.org/) -->

<svg
   xmlns:dc="http://purl.org/dc/elements/1.1/"
   xmlns:cc="http://creativecommons.org/ns#"
   xmlns:rdf="http://www.w3.org/1999/02/22-rdf-syntax-ns#"
   xmlns:svg="http://www.w3.org/2000/svg"
   xmlns="http://www.w3.org/2000/svg"
   xmlns:sodipodi="http://sodipodi.sourceforge.net/DTD/sodipodi-0.dtd"
   xmlns:inkscape="http://www.inkscape.org/namespaces/inkscape"
   version="1.1"
   width="408.56363"
   height="408.86374"
   id="svg2"
   xml:space="preserve"
   inkscape:version="0.48.4 r9939"
   sodipodi:docname="red_king.svg"><sodipodi:namedview
     pagecolor="#ffffff"
     bordercolor="#666666"
     borderopacity="1"
     objecttolerance="10"
     gridtolerance="10"
     guidetolerance="10"
     inkscape:pageopacity="0"
     inkscape:pageshadow="2"
     inkscape:window-width="1920"
     inkscape:window-height="1024"
     id="namedview9"
     showgrid="false"
     inkscape:zoom="0.21106688"
     inkscape:cx="-406.44553"
     inkscape:cy="-46.868915"
     inkscape:window-x="0"
     inkscape:window-y="0"
     inkscape:window-maximized="1"
     inkscape:current-layer="svg2"
     fit-margin-top="0"
     fit-margin-left="0"
     fit-margin-right="0"
     fit-margin-bottom="0" /><metadata
     id="metadata8"><rdf:RDF><cc:Work
         rdf:about=""><dc:format>image/svg+xml</dc:format><dc:type
           rdf:resource="http://purl.org/dc/dcmitype/StillImage" /><dc:title></dc:title></cc:Work></rdf:RDF></metadata><defs
     id="defs6" /><path
     transform="translate(-494.22552,-132.54743)"
     d="m 891.14124,336.97931 a 192.63391,192.63391 0 1 1 -385.26783,0 192.63391,192.63391 0 1 1 385.26783,0 z"
     sodipodi:ry="192.63391"
     sodipodi:rx="192.63391"
     sodipodi:cy="336.97931"
     sodipodi:cx="698.50732"
     id="path3969"
     style="color:#000000;fill:#ffffff;fill-opacity:1;fill-rule:nonzero;stroke:none;stroke-width:0;marker:none;visibility:visible;display:inline;overflow:visible;enable-background:accumulate"
     sodipodi:type="arc" /><path
     id="path3097"
     style="fill:#000000;fill-opacity:1;fill-rule:nonzero;stroke:none"
     d="m 105.32068,277.89245 c 6.5087,-0.19625 18.345,-1.44625 35.5075,-3.75 1.1425,-0.18125 4.2087,-0.85 9.1987,-2.0125 2.0025,-0.375 3.1063,-0.66375 3.3013,-0.85875 0.3762,-0.28375 0.5662,-1.485 0.5662,-3.59375 0.2838,-2.485 0.625,-6.22125 1.0163,-11.21125 0.5712,-9.4775 0.8587,-14.2675 0.8587,-14.375 0,-0.195 0.02,-0.57625 0.059,-1.1525 0.049,-0.57125 0.079,-1.045 0.079,-1.425 0,-0.39125 -0.074,-0.80125 -0.215,-1.23125 -0.1475,-0.43 -0.3612,-0.7425 -0.645,-0.9375 -0.4837,-0.2825 -1.8262,-0.43 -4.0237,-0.43 -2.5926,0 -6.1863,0.48375 -10.7813,1.44625 -13.6075,2.685 -24.6287,3.88125 -33.0662,3.59375 l -1.2888,27.03125 -0.5662,8.90625 z m 3.1637,-80.07875 c 3.2525,0 6.5087,-0.25875 9.7663,-0.78125 3.2512,-0.5325 7.3925,-1.445 12.4212,-2.73375 5.0388,-1.29 8.1838,-2.075 9.4338,-2.36375 3.9162,-0.86875 6.6012,-1.39625 8.0462,-1.5825 1.8213,-0.39 2.7787,-0.62875 2.8713,-0.7225 0.1962,-0.195 0.4787,-1.3475 0.86,-3.45625 1.055,-4.4 1.7237,-7.36875 2.0112,-8.90625 0.195,-0.86 0.6738,-5.22 1.445,-13.08625 0,-0.195 0.045,-0.55125 0.1375,-1.07375 0.1025,-0.5325 0.175,-0.9625 0.215,-1.29 0.049,-0.33625 0.049,-0.7225 0,-1.1525 -0.04,-0.42875 -0.205,-0.74125 -0.4887,-0.9375 -0.4838,-0.39 -1.5913,-0.585 -3.32,-0.585 -0.7713,0 -1.6113,0.0287 -2.52,0.0775 -0.8988,0.0538 -1.9288,0.1325 -3.0863,0.235 -1.1475,0.0925 -2.0062,0.13625 -2.5775,0.13625 -0.7712,0 -2.065,-0.0238 -3.8862,-0.0775 -1.8263,-0.0488 -3.1213,-0.025 -3.8875,0.0775 -1.6313,0.18625 -3.9788,0.5425 -7.05,1.07375 -3.0625,0.5225 -5.2638,0.88 -6.6025,1.075 -6.7963,1.25 -11.1075,1.68 -12.9288,1.28875 -0.1075,0.86 -0.1562,2.11 -0.1562,3.75 0,1.63125 0,2.87125 0,3.73 -0.2888,5.5625 -0.43,11.12375 -0.43,16.68 0,6.03 -0.092,9.57 -0.2738,10.625 z m -5.4687,-48.8675 c 0.195,-0.39 1.0062,-1.825 2.4412,-4.31625 0.4788,-0.94625 1.2938,-2.40625 2.4413,-4.375 1.1425,-1.9625 1.9587,-3.4275 2.4412,-4.39375 6.5238,-12.26625 11.0263,-22.09 13.5163,-29.4725 1.7287,-5.16625 2.7837,-9.477502 3.1637,-12.930002 0,-0.57125 0,-1.19125 0,-1.85625 0,-0.67375 0.02,-1.3475 0.059,-2.01125 0.049,-0.67375 0.1762,-1.3275 0.3712,-1.9525 0.195,-0.625 0.5325,-1.1775 1.015,-1.66125 1.3388,-1.3375 4.0238,-1.38625 8.0475,-0.13625 6.5088,1.71875 11.9725,4.405 16.3863,8.0475 2.8762,2.20125 4.2625,4.21375 4.16,6.035 0,1.053752 -0.2438,1.947502 -0.7225,2.675002 -0.4688,0.71875 -1.3575,1.50375 -2.6563,2.36375 -1.2887,0.85875 -2.0312,1.3375 -2.2262,1.42625 -1.7188,1.445 -3.5888,3.6075 -5.605,6.48375 -0.5763,0.7575 -1.3875,1.95375 -2.4413,3.59375 -1.055,1.63125 -1.8712,2.8275 -2.4425,3.59375 -4.13,5.17125 -12.47,14.4625 -25.0187,27.87125 -1.9138,2.21625 -3.4475,3.79875 -4.59,4.74625 -0.195,0.195 -0.5075,0.42 -0.9375,0.66375 -0.43,0.235 -0.815,0.47875 -1.1525,0.7225 -0.3413,0.235 -0.6538,0.49875 -0.9375,0.78125 0.6737,-0.195 1.4162,-0.33625 2.2262,-0.43 0.8213,-0.1025 1.7287,-0.175 2.735,-0.21375 1.0013,-0.0488 1.7425,-0.1225 2.2263,-0.215 9.4925,-1.3525 15.6737,-2.36375 18.555,-3.0275 5.1662,-1.3375 11.0587,-3.2525 17.675,-5.7425 0.4787,-0.195 1.68,-0.76625 3.5937,-1.71875 1.915,-0.96125 3.4425,-1.5425 4.59,-1.73875 1.4463,-0.195 3.6525,0.235 6.6213,1.29 1.7187,0.4825 4.8287,1.67875 9.3362,3.59375 3.6425,1.445 6.3775,3.07625 8.2025,4.8825 1.915,2.10875 1.9588,4.74625 0.1375,7.91 -0.4838,0.86 -1.3675,2.01125 -2.6562,3.4575 -1.2888,1.435 -2.1775,2.49 -2.6563,3.16375 -1.8262,2.5775 -3.8875,6.84625 -6.1912,12.7925 -0.3813,0.86 -1.67,4.405 -3.8675,10.625 -1.1625,2.69625 -1.7388,4.2775 -1.7388,4.74625 0,0.28875 0.2838,0.67375 0.86,1.1525 0.5863,0.48375 0.9225,0.77125 1.015,0.86 0.7675,0.87375 1.3137,1.9325 1.6413,3.1825 0.3362,1.24125 0.175,2.38375 -0.4888,3.4375 -0.38,0.48375 -1.865,0.72375 -4.4525,0.72375 -1.3437,0 -3.3787,0.0487 -6.1137,0.13625 -2.7338,0.0925 -4.775,0.13625 -6.1138,0.13625 -1.825,0 -5.42,0.44 -10.7812,1.30875 -11.9813,1.63125 -19.355,2.58875 -22.1288,2.87125 -6.045,0.66375 -10.165,0.90875 -12.3625,0.7225 l -0.7225,25.29375 c 1.25,-0.37625 3.0713,-0.7325 5.4688,-1.075 2.3925,-0.33625 4.12,-0.64875 5.175,-0.9375 1.6262,-0.37625 3.8962,-1.02 6.8162,-1.93375 2.93,-0.9075 4.6338,-1.415 5.1175,-1.5225 8.7113,-2.29 13.6425,-3.63375 14.805,-4.02375 4.0238,-1.1425 6.9925,-2.1 8.9063,-2.87125 0.3762,-0.195 1.02,-0.47875 1.9337,-0.86 0.9075,-0.39 1.6988,-0.7025 2.3625,-0.9375 0.6738,-0.23375 1.3525,-0.35125 2.0313,-0.35125 1.5337,-0.1025 3.975,0.37125 7.325,1.42625 6.4162,2.10875 11.0637,4.12125 13.945,6.035 2.485,1.64 3.8725,3.27625 4.16,4.9025 0.3912,1.435 0.012,3.105 -1.1325,5.01875 -0.5863,1.055 -1.5975,2.49625 -3.0275,4.3175 -1.4363,1.82625 -2.4413,3.26125 -3.0275,4.31625 -0.9525,2.00625 -2.1488,5.6 -3.5938,10.78125 -0.3812,1.3425 -0.9075,3.2375 -1.5825,5.68375 -0.6637,2.43625 -1.2838,4.6625 -1.855,6.67875 -0.5762,2.0075 -1.1475,3.92125 -1.7187,5.7425 3.0562,0.86 5.1175,2.53875 6.1725,5.03875 0.375,1.63125 0.4187,2.54 0.1362,2.735 -0.2887,0.2875 -0.6987,0.45875 -1.23,0.5075 -0.5225,0.0387 -1.0937,0.0387 -1.7187,0 -0.6163,-0.0488 -1.065,-0.0775 -1.3488,-0.0775 -1.825,0.2875 -4.4625,0.42875 -7.91,0.42875 -3.4512,0 -5.605,0.0488 -6.465,0.1375 -4.8975,0.39 -12.1875,1.37625 -21.875,2.94875 -9.6775,1.5775 -16.9088,2.515 -21.6987,2.8125 -0.9525,0 -1.9338,-0.0238 -2.9488,-0.0775 -1.0062,-0.0488 -2.1487,-0.1225 -3.4375,-0.215 -1.29,-0.1025 -2.2762,-0.15625 -2.95,-0.15625 0,3.45125 -0.6738,6.81125 -2.0112,10.0775 -0.7713,1.91375 -1.6313,3.16 -2.578799,3.73125 -1.445,0.77125 -3.51,0.52625 -6.1912,-0.72375 -1.1475,-0.57125 -2.1475,-1.28875 -3.0075,-2.1475 -0.8738,-0.7675 -1.9288,-2.68625 -3.1638,-5.7625 -2.11,-4.6875 -3.36,-8.99375 -3.75,-12.92875 -0.093,-1.1425 -0.069,-2.34375 0.077,-3.59375 0.1425,-1.25 0.3025,-2.325 0.4888,-3.22375 0.195,-0.9075 0.4787,-2.06 0.8587,-3.45625 0.3913,-1.39125 0.6838,-2.47125 0.88,-3.2425 1.43,-6.22 2.4413,-12.45125 3.0263,-18.69125 1.8075,-18.97 2.715,-41.5875 2.715,-67.85125 0,-8.90625 -1.245,-16.1375 -3.73,-21.7 -1.5388,-2.7725 -2.4513,-4.355 -2.735,-4.74625 -0.093,-0.18 -0.3313,-0.4875 -0.7225,-0.9175 -0.38,-0.43875 -0.6388,-0.75125 -0.7813,-0.9375 -0.1463,-0.195 -0.3412,-0.5075 -0.585,-0.9375 -0.235,-0.43 -0.3812,-0.78625 -0.43,-1.07375 -0.039,-0.29875 -0.059,-0.665 -0.059,-1.09375 0,-0.43 0.087,-0.88375 0.2737,-1.3675 0.7663,-2.0025 2.8313,-3.0075 6.1913,-3.0075 4.2187,0 8.8675,1.3425 13.944999,4.0225 z m 121.7575,30.625 c 0,0.38125 -0.1263,0.9775 -0.3713,1.7975 -0.2337,0.81 -0.3512,1.3575 -0.3512,1.64 -0.2875,1.34375 -0.5275,3.355 -0.7225,6.03625 -0.9525,22.72375 -2.6263,40.0725 -5.02,52.05 -1.1613,5.7425 -2.885,10.3425 -5.175,13.78875 -1.6413,2.5 -3.2763,3.75 -4.9025,3.75 -1.8113,-0.1025 -3.5838,-1.5425 -5.3125,-4.31625 -3.6475,-5.64875 -5.7575,-10.86875 -6.3288,-15.66375 -0.195,-1.72875 0.045,-3.48125 0.7238,-5.25375 0.6737,-1.7675 1.5625,-3.6575 2.6562,-5.66375 1.1025,-2.0175 1.845,-3.60375 2.2263,-4.76625 0.195,-0.66375 0.41,-1.62125 0.6437,-2.87125 0.245,-1.25 0.415,-2.06 0.5088,-2.44125 1.0537,-3.54 1.625,-5.45375 1.7187,-5.7425 0.8688,-4.41375 1.21,-9.82875 1.015,-16.25 -0.195,-6.5225 -0.9662,-11.35625 -2.305,-14.51125 -0.2875,-0.67375 -0.9125,-1.89875 -1.875,-3.67125 -0.9512,-1.7675 -1.62,-3.32625 -2.0112,-4.66875 -0.3813,-1.3375 -0.3813,-2.68 0,-4.02375 1.055,-3.8375 5.1275,-4.60875 12.2262,-2.30375 0.4787,0.195 1.3188,0.65375 2.52,1.36625 1.1963,0.71875 2.1288,1.12875 2.7925,1.23125 0.6738,0.0925 1.4463,0.0925 2.305,0 0.86,-0.1025 1.8163,-0.24375 2.8713,-0.43 1.055,-0.195 1.8212,-0.34125 2.305,-0.44875 1.7287,-0.19625 4.34,-0.50875 7.8312,-0.9375 3.5012,-0.43 6.1625,-0.7425 7.9888,-0.9375 0.7662,-0.0888 1.9625,-0.225 3.5937,-0.41 1.6263,-0.19625 2.8225,-0.3425 3.5938,-0.45 0.087,0 0.3225,-0.0187 0.7025,-0.0588 0.3912,-0.0487 0.7474,-0.0975 1.075,-0.13625 0.3362,-0.0488 0.5512,-0.17625 0.6437,-0.37125 0.1025,-0.195 0.1563,-1.68 0.1563,-4.4525 l 0,-11.7975 c 0,-1.5325 0.045,-5.27375 0.1375,-11.21125 0.1025,-5.9375 0.1025,-10.24375 0,-12.92875 -0.092,-2.68125 -0.3325,-6.29875 -0.7225,-10.86 -0.3813,-4.555 -0.9963,-8.60375 -1.8563,-12.14875 -0.8587,-3.827502 -2.2462,-8.133752 -4.16,-12.928752 -0.195,-0.39125 -0.4875,-1.04 -0.8787,-1.95375 -0.3813,-0.9075 -0.64,-1.5525 -0.7813,-1.93375 -0.1462,-0.37625 -0.215,-0.9475 -0.215,-1.71875 0,-0.76625 0.1413,-1.5325 0.43,-2.305 0.9613,-2.5875 3.6425,-3.54375 8.0463,-2.87 3.6437,0.38 6.3287,0.81 8.0475,1.28875 1.3375,0.2875 3.305,0.86875 5.8987,1.7375 2.5875,0.86 4.555,1.48 5.8975,1.85625 4.0238,0.85875 6.4162,2.3925 7.1875,4.59 0.1963,1.05375 0.2938,1.7775 0.2938,2.1675 0,0.38125 -0.1513,1.1475 -0.45,2.305 -0.2875,1.1475 -0.4288,1.865 -0.4288,2.14875 -0.1862,1.5375 -0.7137,4.10125 -1.5825,7.695002 -0.8587,3.59375 -1.3812,6.39625 -1.5625,8.39875 -0.4837,4.0225 -0.7962,8.45625 -0.9375,13.3 -0.1462,4.84375 -0.215,8.965 -0.215,12.36375 0,3.39875 0.02,7.94875 0.059,13.6525 0.049,5.7025 0.079,9.95125 0.079,12.73375 0.8588,-0.2825 3.2513,-0.66875 7.1875,-1.1525 5.6487,-1.05375 10.2975,-1.865 13.945,-2.44125 1.3375,-0.2825 4.1888,-0.98125 8.555,-2.09 4.36,-1.1025 7.7388,-1.7475 10.1363,-1.93375 2.9687,-0.2825 4.4975,-0.42875 4.59,-0.42875 2.7825,0.38 6.9037,2.24625 12.3625,5.605 4.2187,2.3975 7.4812,4.83875 9.7862,7.32375 1.5225,1.71875 2.48,3.10625 2.87,4.16125 0.089,0.4825 -0.054,1.59125 -0.4287,3.32 -0.1963,0.38125 -1.065,2.43625 -2.5975,6.17125 -1.6313,3.84375 -2.54,8.49125 -2.735,13.94625 -0.093,2.88 -0.19,5.9275 -0.2925,9.14 -0.094,3.20375 -0.1863,6.7725 -0.2738,10.70375 -0.093,3.92 -0.19,6.9325 -0.2925,9.0425 0,0.48375 -0.03,1.80625 -0.079,3.965 -0.039,2.14875 -0.088,3.58875 -0.1363,4.31625 -0.04,0.7175 -0.1125,2.01125 -0.215,3.88625 -0.093,1.86625 -0.21,3.29625 -0.3512,4.2975 -0.1475,1.00625 -0.3425,2.275 -0.5863,3.80875 -0.235,1.5375 -0.5475,2.95875 -0.9375,4.2575 -0.3812,1.28875 -0.8112,2.55375 -1.2887,3.78875 -1.915,4.99 -4.9813,9.3075 -9.2,12.95 -2.3975,2.20125 -4.6975,3.3 -6.8938,3.3 -2.6862,0 -4.6975,-0.38 -6.0362,-1.1525 -0.7713,-0.4775 -1.5138,-1.1225 -2.2263,-1.93375 -0.7175,-0.82 -1.4837,-1.77625 -2.305,-2.87 -0.82,-1.10375 -1.42,-1.85625 -1.7962,-2.24625 -4.0238,-4.595 -8.1013,-8.565 -12.2263,-11.915 -0.2887,-0.195 -1.0062,-0.6925 -2.1487,-1.50375 -1.1475,-0.82 -2.085,-1.51375 -2.8125,-2.09 -0.7175,-0.585 -1.2888,-1.3075 -1.7188,-2.1675 -0.43,-0.85875 -0.4487,-1.71875 -0.059,-2.5775 0.1812,-0.39125 0.3912,-0.70375 0.625,-0.9375 0.2437,-0.245 0.5375,-0.39125 0.8787,-0.43 0.3375,-0.0487 0.65,-0.0788 0.9375,-0.0788 0.2838,0 0.645,0.0738 1.075,0.215 0.4288,0.14625 0.7613,0.26875 0.995,0.37125 0.245,0.0925 0.6063,0.235 1.075,0.43 0.4788,0.185 0.7713,0.3275 0.8788,0.43 2.5775,1.3425 6.8412,2.5875 12.7925,3.73 2.5787,0.48375 4.2487,0.34125 5.02,-0.43 0.8687,-0.96125 1.4937,-2.7825 1.875,-5.46875 0.2837,-2.485 0.625,-5.88375 1.015,-10.195 0,-0.28375 0.43,-9.2975 1.29,-27.03125 0,-0.86 -0.03,-2.725 -0.079,-5.605 -0.054,-2.87625 0.02,-4.74625 0.215,-5.60625 0.5712,-3.8275 0.3325,-8.09 -0.7225,-12.7925 -0.6637,-2.485 -1.1425,-3.8725 -1.4262,-4.16 -0.195,-0.19625 -1.1075,-0.435 -2.7338,-0.7225 -1.1475,-0.19625 -4.0725,-0.19625 -8.77,0 -8.9212,0.57625 -17.88,0.85875 -26.875,0.85875 0,35.655 -0.097,62.3925 -0.2925,80.215 0,2.685 -0.03,7.475 -0.079,14.375 -0.039,6.90375 -0.1125,12.1775 -0.215,15.82 -0.093,3.6325 -0.2825,8.2325 -0.5663,13.78875 -0.2875,5.5625 -0.6738,10.64 -1.1525,15.235 -0.092,0.96625 -0.3075,2.475 -0.6437,4.53125 -0.3425,2.06 -0.5563,3.61375 -0.645,4.6675 -0.9663,10.15625 -2.3588,17.96875 -4.18,23.4375 -1.1475,3.345 -2.675,5.7862 -4.5888,7.325 -1.3437,1.0537 -2.2562,1.5812 -2.735,1.5812 -0.4837,-0.092 -1.25,-0.81 -2.305,-2.1475 -1.63,-2.305 -2.6312,-4.8 -3.0075,-7.4812 -1.1625,-6.04 -1.7387,-16.68 -1.7387,-31.91375 l 0,-135.70375 -7.1875,1.5825 -9.765,2.1675 -8.77,0 z M 198.17188,16.271198 c -1.25,0.185 -3.1,0.3025 -5.5462,0.35125 -2.4375,0.0538 -4.1313,0.1275 -5.0788,0.215 -10.7425,1.1475 -18.75,2.3 -24.0237,3.4575 -30.185,6.79625 -57.2063,20.54625 -81.073799,41.25 -24.3362,21.27875 -42.11,45.717502 -53.32,73.320002 -8.4375,20.69375 -12.8275,42.71 -13.165,66.055 -0.3262,23.335 3.3888,45.44375 11.1525,66.3275 9.385,25.69375 24.815,49.2675 46.29,70.7225 16.3763,16.39255 33.817499,28.95005 52.323799,37.67625 30.18,14.2675 63.77,19.4925 100.7612,15.6638 21.275,-2.305 41.5675,-8.6088 60.8788,-18.9063 19.3075,-10.3025 36.7237,-23.5937 52.2462,-39.8825 17.6425,-18.39875 30.7725,-38.145 39.395,-59.23875 10.0638,-24.42375 14.4725,-50.635 13.2225,-78.6325 -1.055,-23.565 -6.5187,-46.23 -16.3862,-67.98875 -7.5688,-16.37625 -18.8238,-32.621252 -33.77,-48.730002 -12.5688,-13.51625 -26.5913,-25.06375 -42.07,-34.64875 -15.4688,-9.58 -31.8313,-16.62625 -49.0825,-21.1325 -12.1625,-3.15 -24.6188,-5.02 -37.3625,-5.605 -7.96,-0.46875 -13.0863,-0.5575 -15.3913,-0.27375 z m -0.5662,-16.1137498 c 2.485,-0.2825 7.9487,-0.185 16.3862,0.29375 13.5163,0.57625 27.075,2.53875 40.6838,5.8975 34.6875,8.7262498 65.9762,27.0262498 93.8675,54.9024998 19.0625,19.0775 33.5787,39.825002 43.555,62.246252 10.3512,23.19375 15.81,48.20375 16.3862,75.03875 0.7663,28.6625 -4.0237,55.445 -14.375,80.3525 -13.8962,33.8275 -35.625,62.455 -65.195,85.8788 -29.5612,23.4375 -62.2175,37.5049 -97.9687,42.2062 -35.5475,4.595 -68.8038,0.8113 -99.7663,-11.3475 -25.585,-10.1563 -48.919999,-25.7813 -69.999999,-46.875 -20.7025,-20.68875 -36.1812,-43.4475 -46.425,-68.28125 C 6.1206813,259.7812 1.2768813,236.2612 0.22318127,209.9037 -1.3006187,177.02745 4.9781813,146.02745 19.070681,116.8962 c 9.4775,-19.556252 23.2275,-38.340002 41.25,-56.347502 24.7262,-24.7275 51.562499,-41.73875 80.507499,-51.0349998 12.5487,-3.93125 25.2437,-6.61125 38.0862,-8.0475 2.68,-0.2975 6.7037,-0.635 12.07,-1.015 0.4788,0 1.485,-0.02 3.0075,-0.0588 1.5338,-0.0488 2.74,-0.1275 3.6138,-0.235 z"
     inkscape:connector-curvature="0" /></svg>