<?xml version="1.0" encoding="UTF-8" standalone="no"?>
<!-- Created with Inkscape (http://www.inkscape.org/) -->

<svg
   xmlns:dc="http://purl.org/dc/elements/1.1/"
   xmlns:cc="http://creativecommons.org/ns#"
   xmlns:rdf="http://www.w3.org/1999/02/22-rdf-syntax-ns#"
   xmlns:svg="http://www.w3.org/2000/svg"
   xmlns="http://www.w3.org/2000/svg"
   xmlns:sodipodi="http://sodipodi.sourceforge.net/DTD/sodipodi-0.dtd"
   xmlns:inkscape="http://www.inkscape.org/namespaces/inkscape"
   version="1.1"
   width="408.56079"
   height="408.85037"
   id="svg2"
   xml:space="preserve"
   inkscape:version="0.48.4 r9939"
   sodipodi:docname="red_advisor.svg"><sodipodi:namedview
     pagecolor="#ffffff"
     bordercolor="#666666"
     borderopacity="1"
     objecttolerance="10"
     gridtolerance="10"
     guidetolerance="10"
     inkscape:pageopacity="0"
     inkscape:pageshadow="2"
     inkscape:window-width="1920"
     inkscape:window-height="1024"
     id="namedview9"
     showgrid="false"
     inkscape:zoom="0.21106688"
     inkscape:cx="-359.68241"
     inkscape:cy="74.551087"
     inkscape:window-x="0"
     inkscape:window-y="0"
     inkscape:window-maximized="1"
     inkscape:current-layer="svg2"
     fit-margin-top="0"
     fit-margin-left="0"
     fit-margin-right="0"
     fit-margin-bottom="0" /><metadata
     id="metadata8"><rdf:RDF><cc:Work
         rdf:about=""><dc:format>image/svg+xml</dc:format><dc:type
           rdf:resource="http://purl.org/dc/dcmitype/StillImage" /><dc:title></dc:title></cc:Work></rdf:RDF></metadata><defs
     id="defs6" /><path
     sodipodi:type="arc"
     style="color:#000000;fill:#ffffff;fill-opacity:1;fill-rule:nonzero;stroke:none;stroke-width:0;marker:none;visibility:visible;display:inline;overflow:visible;enable-background:accumulate"
     id="path3971"
     sodipodi:cx="698.50732"
     sodipodi:cy="336.97931"
     sodipodi:rx="192.63391"
     sodipodi:ry="192.63391"
     d="m 891.14124,336.97931 a 192.63391,192.63391 0 1 1 -385.26783,0 192.63391,192.63391 0 1 1 385.26783,0 z"
     transform="translate(-494.2269,-132.55412)" /><path
     id="path3109"
     style="fill:#000000;fill-opacity:1;fill-rule:nonzero;stroke:none"
     d="m 229.9551,206.1537 c -1.1625,0.1075 -2.3825,0.3025 -3.6712,0.58625 -1.29,0.2875 -2.73,0.64375 -4.3175,1.07375 -1.5763,0.43 -2.7488,0.7425 -3.515,0.9375 -2.49,0.57625 -6.1275,1.43625 -10.9175,2.57875 -4.795,1.1475 -8.4375,2.01125 -10.9375,2.5975 -0.86,0.185 -2.515,0.58625 -4.9613,1.21125 -2.4362,0.625 -4.2775,1.035 -5.5275,1.23 -6.1325,0.9525 -11.9337,0.855 -17.4025,-0.2925 -7.7637,-1.53375 -13.5112,-3.975 -17.2462,-7.325 -1.25,-1.1575 -2.065,-2.48 -2.4413,-3.965 -0.3812,-1.48375 0.1025,-2.84125 1.445,-4.08125 1.1425,-0.7675 3.4425,-1.3925 6.895,-1.875 l 11.64,-1.71875 c 19.165,-2.97875 33.155,-5.28375 41.9738,-6.915 1.625,-0.2825 3.9687,-0.7125 7.0312,-1.28875 3.0713,-0.57125 5.42,-1.00125 7.05,-1.28875 2.9788,-0.39125 4.5613,-0.7275 4.7463,-1.01625 0.1024,-0.0875 0.1562,-0.7075 0.1562,-1.855 l 0,-4.31625 c 0,-1.82125 -0.029,-4.575 -0.077,-8.26125 -0.054,-3.69625 -0.079,-6.455 -0.079,-8.28125 0,-24.815 -0.6738,-43.4575 -2.0113,-55.91875 -0.3812,-4.6875 -0.7137,-8.036252 -0.9962,-10.058752 -0.6788,-4.0225 -2.0213,-8.09 -4.0238,-12.20625 -0.2875,-0.58625 -0.84,-1.45 -1.66,-2.5975 -0.81,-1.1425 -1.3625,-2.1 -1.66,-2.87125 -0.5762,-1.62625 -0.2837,-3.975 0.8788,-7.05125 1.9137,-4.985 6.465,-6.3725 13.6525,-4.16 3.54,0.9525 9.2425,3.92125 17.1087,8.90625 2.0025,1.3425 3.4813,2.3775 4.4338,3.105 0.9625,0.71875 2.09,1.84625 3.3787,3.37875 1.2988,1.52375 2.1925,3.10125 2.6763,4.7275 0.4787,0.77125 0.5512,1.92375 0.215,3.45625 -0.3425,1.53875 -0.635,2.6475 -0.8788,3.32125 -0.235,0.66375 -0.6937,1.7375 -1.3675,3.2225 -0.6637,1.483752 -1.1425,2.558752 -1.4262,3.222502 -1.0538,2.7875 -1.9676,7.33875 -2.7338,13.6525 -2.2025,16.9675 -3.3012,39.20875 -3.3012,66.71875 1.9137,-0.47875 4.6687,-1.055 8.2625,-1.71875 3.5937,-0.67375 6.1125,-1.1575 7.5575,-1.44625 3.8287,-0.76625 9.595,-1.9625 17.305,-3.59375 7.72,-1.64 13.5012,-2.89 17.3437,-3.75 5.0788,-1.1425 9.4825,-1.9575 13.2225,-2.44125 5.0788,-0.85875 9.0038,-0.85875 11.7775,0 5.4688,1.915 8.4375,3.0175 8.9063,3.30125 0.7662,0.48375 1.6062,1.10875 2.52,1.875 0.9075,0.77125 1.68,1.44 2.305,2.01125 0.625,0.57625 1.435,1.3875 2.4412,2.44125 1,1.055 1.6988,1.7775 2.09,2.16875 3.6425,3.6325 4.9413,6.50375 3.8863,8.6125 -0.8738,1.82625 -2.9838,3.12125 -6.3288,3.8875 -2.2162,0.48375 -5.4588,0.79625 -9.7262,0.9375 -4.2575,0.14625 -6.9625,0.26375 -8.105,0.35125 -4.795,0.48375 -12.0313,1.1525 -21.7188,2.01125 -9.6775,0.86 -16.9537,1.53375 -21.8362,2.0125 -2.2025,0.195 -6.8263,0.7025 -13.8675,1.52375 -7.045,0.81 -12.4901,1.3575 -16.3275,1.64 l -0.43,36.09375 -0.2738,23.8475 -0.1562,15.82 -0.1363,8.18375 c 1.3375,-0.0875 5.3613,-0.84875 12.07,-2.285 11.025,-2.21125 18.8875,-3.69625 23.575,-4.4525 0.7663,-0.1025 1.9625,-0.3425 3.5938,-0.7225 1.625,-0.39125 3.085,-0.67375 4.375,-0.86 1.2987,-0.195 2.5237,-0.24375 3.6712,-0.15625 0.3913,0.1075 1.685,0.48875 3.8863,1.1525 l 7.325,2.5975 c 1.445,0.57625 3.5062,2.105 6.1912,4.59 3.0563,2.685 5.3125,5.03375 6.7575,7.05125 2.11,2.5775 2.49,4.92125 1.1525,7.03125 -1.445,2.10875 -4.6575,3.26125 -9.6287,3.45625 -2.3975,0.0925 -9.4438,0.62 -21.1325,1.5825 -5.3663,0.57625 -14.9325,1.29875 -28.6913,2.1675 -13.75,0.86 -24.3662,1.7675 -31.8362,2.715 -5.9375,0.77125 -14.2288,2.2075 -24.8638,4.31625 -0.39,0.0925 -1.9525,0.50375 -4.6875,1.23125 -2.725,0.7175 -4.755,1.1225 -6.0937,1.21 -7.9588,0.28875 -15.5275,-2.01125 -22.715,-6.89375 -1.1475,-0.7675 -2.1288,-1.7 -2.9488,-2.79375 -0.81,-1.1025 -1.2112,-2.30375 -1.2112,-3.59375 0,-1.29875 0.6687,-2.43125 2.0125,-3.3975 0.9462,-0.665 3.0512,-1.23625 6.3075,-1.71875 5.0787,-0.7675 8.6237,-1.295 10.645,-1.5825 11.4062,-1.71875 20.7037,-3.20375 27.8912,-4.45375 0.2825,0 2.2263,-0.35625 5.82,-1.07375 3.5938,-0.7125 6.25,-1.1225 7.9688,-1.23 L 229.9553,206.1537 z M 54.857603,231.30995 c 0,-1.91375 1.3913,-4.2575 4.18,-7.03125 0.375,-0.47875 0.9475,-1.17625 1.7188,-2.09 0.7662,-0.9075 1.3375,-1.5625 1.7187,-1.9525 7.5775,-8.995 14.2375,-17.47125 19.98,-25.43 12.4613,-17.44625 22.187497,-32.11 29.179997,-43.985 8.72,-15.24375 16.435,-31.7275 23.1438,-49.4525 4.1262,-11.025002 6.7187,-21.806252 7.7737,-32.343752 0.088,-0.67375 0.1612,-2.01625 0.215,-4.02375 0.049,-2.01625 0.1663,-3.555 0.3513,-4.60875 0.3912,-1.915 1.1574,-3.20875 2.305,-3.8875 1.7287,-0.85875 4.795,-0.0875 9.1987,2.305 5.65,3.4525 10.4888,8.48625 14.5125,15.0975 1.9238,3.2575 2.7437,5.84 2.4613,7.75375 -0.1075,0.67875 -0.3713,1.3775 -0.8013,2.09 -0.43,0.7175 -0.84,1.29875 -1.23,1.73875 -0.3812,0.43 -0.9287,1.03 -1.6412,1.79625 -0.7176,0.7575 -1.2213,1.28 -1.5038,1.5625 -2.305,2.98375 -4.2725,6.29 -5.8988,9.9225 -0.2875,0.77125 -0.6974,1.923752 -1.2299,3.456252 -0.5225,1.53875 -0.9763,2.6375 -1.3675,3.30125 -2.9688,6.32875 -8.9601,17.495 -17.9688,33.49625 -0.5763,0.96625 -1.5825,2.76375 -3.0275,5.39 -1.435,2.6325 -2.705,4.85875 -3.8087,6.68 -1.0938,1.82625 -2.2163,3.55 -3.3588,5.17625 1.055,0.96625 2.295,2.69 3.73,5.175 2.0163,3.2575 3.74,6.32375 5.1763,9.2 1.6262,3.07625 2.49,5.38125 2.5975,6.91375 l -0.8788,7.75375 c -1.24,9.87375 -1.91,15.5225 -2.0125,16.95375 -0.092,1.64 -0.2825,9.31125 -0.5662,23.0075 -0.195,6.225 -0.3213,15.59625 -0.3713,28.105 -0.039,12.5 -0.1562,21.87 -0.3512,28.10625 0,1.435 -0.029,3.47125 -0.077,6.1125 -0.04,2.6325 -0.089,5.03 -0.1375,7.1875 -0.054,2.14875 -0.1263,4.18 -0.215,6.09375 -0.093,0.58625 -0.093,1.48 0,2.67625 0.089,1.20125 0.089,2.12875 0,2.7925 -0.195,2.305 -0.2925,5.5425 -0.2925,9.7075 0,4.17 -0.049,7.4025 -0.1363,9.7075 -0.3812,4.8825 -1.48,10.4875 -3.3012,16.8162 -1.445,5.3613 -2.93,8.5738 -4.4525,9.6288 -0.9675,0.5712 -2.0713,0.615 -3.3213,0.1362 -0.9512,-0.38 -1.8112,-1.0737 -2.5775,-2.09 -0.7712,-1.005 -1.3475,-1.9137 -1.7387,-2.7337 -0.3813,-0.8113 -0.8538,-2.0075 -1.425,-3.5938 -0.5763,-1.5725 -0.9138,-2.5487 -1.0163,-2.93 -0.185,-0.4787 -0.7325,-1.86495 -1.64,-4.15995 -0.9137,-2.305 -1.5625,-3.985 -1.9537,-5.03875 -0.3813,-1.055 -0.7813,-2.49 -1.2113,-4.31625 -0.4287,-1.82125 -0.6437,-3.4475 -0.6437,-4.88375 0,-1.25 0.4287,-3.59875 1.2887,-7.05 0.2825,-1.25 0.6888,-3.165 1.2113,-5.7425 0.5312,-2.5875 0.9425,-4.55625 1.23,-5.89875 1.5337,-7.66625 2.7587,-16.3675 3.6725,-26.09375 0.9075,-9.72625 1.455,-17.41125 1.64,-23.06625 0.195,-5.64875 0.435,-14.41875 0.7225,-26.30875 0,-1.5325 0,-4.50125 0,-8.90625 0,-4.41375 0.049,-7.3875 0.1562,-8.925 0.4688,-11.7825 0.3175,-21.55375 -0.4487,-29.3175 -0.5763,-4.8825 -0.86,-7.42125 -0.86,-7.61625 -0.2875,-2.0175 -0.4788,-3.16875 -0.5663,-3.4575 -0.9662,2.02125 -3.745,6.1425 -8.34,12.36375 -6.3275,8.4375 -13.471197,16.635 -21.424997,24.59 -4.0237,4.0225 -7.09,6.99125 -9.2,8.90625 -3.3487,3.07625 -5.165,4.70125 -5.4487,4.8825 -3.6475,2.5925 -8.4375,5.185 -14.375,7.77375 -0.4838,0.185 -1.6163,0.5175 -3.3988,0.995 -1.7725,0.48375 -3.0862,1.01125 -3.945,1.5825 z M 198.1776,16.271198 c -1.435,0.185 -3.545,0.3275 -6.3275,0.43 -2.7737,0.0925 -4.785,0.185 -6.035,0.2725 -8.14,0.7725 -15.5175,1.875 -22.13,3.32125 -29.6087,6.3175 -56.3037,19.73625 -80.077497,40.25375 -25.1075,21.85 -43.2175,46.478752 -54.3362,73.886252 -8.725,21.3675 -13.135,44.10125 -13.2225,68.20375 -0.093,24.10125 4.0725,46.88875 12.5,68.35875 9.0087,23.28125 23.5787,45.225 43.7112,65.82 15.7125,16.19625 33.299997,29.04375 52.753797,38.53495 30.2837,14.6588 64.1112,19.9813 101.4837,15.9575 21.47,-2.3049 42.0025,-8.7062 61.6025,-19.1987 19.5938,-10.4988 37.06,-23.985 52.4025,-40.46875 17.7188,-19.165 30.8,-39.14625 39.2375,-59.94125 9.4775,-24.14125 13.6425,-49.825 12.5,-77.05125 -1.055,-24.24375 -6.7087,-47.29 -16.9525,-69.14125 -9.21,-19.6475 -22.5787,-37.856252 -40.1175,-54.628752 -25.5862,-24.53125 -53.4712,-40.7225 -83.6525,-48.57375 -12.085,-3.2525 -24.7362,-5.17625 -37.9487,-5.76125 -7.9588,-0.46875 -13.0863,-0.5575 -15.3913,-0.27375 z M 197.6114,0.1574482 c 2.485,-0.2825 7.9487,-0.185 16.3862,0.29375 15.04,0.57625 29.4588,2.7825 43.2625,6.62 35.5563,9.5849998 67.0413,28.7012498 94.4525,57.3437498 18.6825,19.56125 32.5788,40.166252 41.68,61.817502 9.4925,22.8125 14.5213,46.91375 15.0975,72.30375 0.7663,30.38125 -4.6975,58.745 -16.3862,85.0975 -14.375,32.59375 -36.1088,60.1425 -65.195,82.6562 -29.0925,22.5251 -61.075,36.085 -95.9575,40.6838 -36.2263,4.6975 -70.2438,0.5762 -102.0513,-12.3625 -25.9762,-10.5375 -49.218697,-26.495 -69.726197,-47.8713 -19.7413,-20.6887 -34.4488,-42.48995 -44.1213,-65.40995 -8.8275003,-20.9775 -13.7687003,-44.73625 -14.82370033,-71.29 -1.52379997,-32.485 4.56000003,-63.105 18.26120033,-91.855 9.58,-20.220002 23.3838,-39.341252 41.4063,-57.363752 24.9075,-24.90625 52.031197,-42.06 81.367497,-51.4637498 12.8362,-4.11125 25.82,-6.7975 38.945,-8.0475 7.095,-0.57125 10.7425,-0.85875 10.9375,-0.85875 0.4687,0 1.445,-0.02 2.93,-0.0588 1.4837,-0.0488 2.6612,-0.1275 3.535,-0.235 z"
     inkscape:connector-curvature="0" /></svg>