<?xml version="1.0" encoding="UTF-8" standalone="no"?>
<!-- Created with Inkscape (http://www.inkscape.org/) -->

<svg
   xmlns:dc="http://purl.org/dc/elements/1.1/"
   xmlns:cc="http://creativecommons.org/ns#"
   xmlns:rdf="http://www.w3.org/1999/02/22-rdf-syntax-ns#"
   xmlns:svg="http://www.w3.org/2000/svg"
   xmlns="http://www.w3.org/2000/svg"
   xmlns:sodipodi="http://sodipodi.sourceforge.net/DTD/sodipodi-0.dtd"
   xmlns:inkscape="http://www.inkscape.org/namespaces/inkscape"
   version="1.1"
   width="406.67392"
   height="407.0343"
   id="svg2"
   xml:space="preserve"
   inkscape:version="0.48.4 r9939"
   sodipodi:docname="red_horse.svg"><sodipodi:namedview
     pagecolor="#ffffff"
     bordercolor="#666666"
     borderopacity="1"
     objecttolerance="10"
     gridtolerance="10"
     guidetolerance="10"
     inkscape:pageopacity="0"
     inkscape:pageshadow="2"
     inkscape:window-width="1920"
     inkscape:window-height="1024"
     id="namedview9"
     showgrid="false"
     inkscape:zoom="0.21106688"
     inkscape:cx="846.75752"
     inkscape:cy="146.77691"
     inkscape:window-x="0"
     inkscape:window-y="0"
     inkscape:window-maximized="1"
     inkscape:current-layer="svg2"
     fit-margin-top="0"
     fit-margin-left="0"
     fit-margin-right="0"
     fit-margin-bottom="0" /><metadata
     id="metadata8"><rdf:RDF><cc:Work
         rdf:about=""><dc:format>image/svg+xml</dc:format><dc:type
           rdf:resource="http://purl.org/dc/dcmitype/StillImage" /><dc:title></dc:title></cc:Work></rdf:RDF></metadata><defs
     id="defs6" /><path
     sodipodi:type="arc"
     style="color:#000000;fill:#ffffff;fill-opacity:1;fill-rule:nonzero;stroke:none;stroke-width:0;marker:none;visibility:visible;display:inline;overflow:visible;enable-background:accumulate"
     id="path3975"
     sodipodi:cx="698.50732"
     sodipodi:cy="336.97931"
     sodipodi:rx="192.63391"
     sodipodi:ry="192.63391"
     d="m 891.14124,336.97931 a 192.63391,192.63391 0 1 1 -385.26783,0 192.63391,192.63391 0 1 1 385.26783,0 z"
     transform="translate(-495.17036,-133.46215)" /><path
     id="path3131"
     style="fill:#000000;fill-opacity:1;fill-rule:nonzero;stroke:none"
     d="m 127.74177,237.6387 c 0.4787,-0.37625 1.3675,-0.42 2.6562,-0.1375 1.2887,0.28875 2.1725,0.5275 2.6563,0.7225 0.4787,0.18625 1.3375,0.56625 2.5775,1.1525 1.25,0.57625 2.0712,0.9525 2.4612,1.1325 1.1425,0.48375 3.56,1.30375 7.2463,2.46125 3.6962,1.1475 6.67,2.3925 8.9262,3.73125 2.25,1.3425 3.95,3.16375 5.0975,5.46875 1.1425,2.295 1.9038,4.83375 2.285,7.61625 0.39,2.77375 0.059,5.48375 -0.9962,8.125 -1.055,2.6325 -2.925,4.33125 -5.605,5.0975 -4.1163,1.055 -7.6126,0.675 -10.4888,-1.15125 -0.9662,-0.67375 -2.69,-2.74 -5.1762,-6.1925 -2.9688,-4.0225 -6.1325,-9.145 -9.4913,-15.37 -1.3437,-2.5 -2.3437,-4.32125 -3.0087,-5.46875 -0.9663,-1.53375 -1.4938,-2.49125 -1.5813,-2.87125 -0.1075,-0.86 0.082,-1.7675 0.5663,-2.735 0.4787,-0.96125 1.1037,-1.48875 1.875,-1.58125 z m 52.4612,-5.46875 c 1.0538,0 1.7675,-0.045 2.1475,-0.1375 0.3913,-0.0875 1.1575,0.0788 2.305,0.5075 1.1575,0.43 1.9238,0.71875 2.305,0.86 0.39,0.14625 1.1038,0.5025 2.1488,1.07375 1.0537,0.57625 1.6787,0.91375 1.875,1.01625 0.5712,0.2875 1.455,0.57625 2.6562,0.85875 1.1963,0.28875 1.9913,0.5275 2.3825,0.7225 4.0238,1.24125 7.6175,2.57875 10.7813,4.02375 3.8275,1.52375 6.3675,3.39375 7.6175,5.60625 1.25,2.20125 2.0887,4.74125 2.5187,7.61625 0.43,2.88125 0.1375,5.68375 -0.8787,8.41875 -1.0063,2.72375 -2.8463,4.4675 -5.5275,5.23375 -4.4038,1.25 -8.2813,0.82 -11.64,-1.28875 -0.7713,-0.47875 -2.4513,-2.4025 -5.0388,-5.76125 -3.545,-4.595 -7.1387,-9.815 -10.7825,-15.665 -1.5225,-2.68 -2.7237,-4.6475 -3.5925,-5.8975 -0.094,-0.18125 -0.3087,-0.415 -0.645,-0.70375 -0.3425,-0.2975 -0.605,-0.56625 -0.8012,-0.80125 -0.185,-0.23375 -0.3225,-0.4925 -0.41,-0.78125 -0.2875,-0.76625 -0.1263,-1.7225 0.4887,-2.87 0.625,-1.1575 1.3175,-1.83625 2.09,-2.03125 z m -90.409998,-5.02 c 0.18,-0.195 0.39,-0.23875 0.625,-0.13625 0.2438,0.0925 0.4675,0.13625 0.6637,0.13625 0.195,0 0.4101,0.14625 0.6438,0.43 0.235,0.2875 0.3962,0.5025 0.4887,0.64375 0.1026,0.1475 0.2538,0.38625 0.4488,0.7225 0.1963,0.3425 0.3375,0.58125 0.43,0.72375 0.087,0.14625 0.205,0.36125 0.3513,0.64375 0.1425,0.28875 0.215,0.47875 0.215,0.56625 0.3912,1.25 1.3475,3.79875 2.8712,7.6375 1.5338,3.8275 2.5975,6.79625 3.1838,8.90625 0.752498,2.685 0.844998,6.465 0.2737,11.3475 -0.5762,5.45875 -2.0612,11.83125 -4.4537,19.12125 -0.195,0.38 -0.6538,1.7675 -1.3663,4.16 -0.7187,2.3975 -1.3625,4.175 -1.9337,5.33125 -2.5938,5.36625 -5.4688,8.765 -8.6338,10.19625 -1.1475,0.4825 -2.8212,0.53625 -5.0187,0.15625 -3.4525,-0.7675 -6.045,-2.66125 -7.7738,-5.68375 -1.7187,-3.0175 -2.6312,-6.445 -2.735,-10.27375 0,-1.92375 0.3375,-4.4725 1.0163,-7.63625 0,-0.18125 0.087,-0.80125 0.2737,-1.85625 0.195,-1.05375 0.39,-1.82125 0.585,-2.30375 0.1963,-0.37625 1.6313,-3.30125 4.3175,-8.77 5.2725,-10.83 8.525,-17.63625 9.765,-20.41 0.195,-0.67375 0.605,-1.66 1.23,-2.95 0.625,-1.28875 1.0263,-2.27 1.2113,-2.94875 0.1025,-0.47875 0.2737,-1.19625 0.5087,-2.14875 0.2438,-0.96125 0.415,-1.68375 0.5075,-2.1675 0.6638,-1.91375 1.43,-3.05625 2.305,-3.4375 z m 140.584998,-1.5825 c 1.3387,-0.1025 2.6275,-0.0287 3.8675,0.215 1.25,0.235 2.93,0.7625 5.0388,1.5825 2.11,0.81 3.3062,1.265 3.5937,1.3675 1.445,0.57625 3.74,1.3175 6.895,2.22625 3.1637,0.9125 5.7025,1.70875 7.6175,2.3825 1.9238,0.66375 4.0863,1.695 6.4837,3.08625 2.3926,1.38125 4.3563,2.98375 5.8788,4.805 2.2125,2.5925 3.4625,5.8975 3.75,9.92125 0.2838,4.02375 -0.8687,7.28 -3.4563,9.76625 -1.25,0.96625 -2.9787,1.635 -5.1762,2.01125 -4.5063,0.58625 -8.1988,0.15625 -11.0738,-1.28875 -1.2412,-0.665 -3.5362,-2.77375 -6.895,-6.32875 -4.6875,-5.0775 -8.955,-10.34125 -12.7925,-15.8 l -4.7462,-6.465 -0.86,-0.87875 c -0.6638,-0.665 -1.05,-1.1925 -1.1525,-1.5825 -0.185,-0.86 0.059,-1.885 0.7225,-3.08625 0.675,-1.19625 1.4462,-1.84 2.305,-1.93375 z m -38.2425,-54.92125 c -2.3962,0 -5.8,0.3125 -10.2138,0.9375 -4.4049,0.625 -7.0312,0.98625 -7.8912,1.07375 -10.3513,1.055 -20.3225,0.9675 -29.9025,-0.27375 -0.1075,1.52375 -0.2725,4.7375 -0.5075,9.63 -0.235,4.8825 -0.405,8.6225 -0.5075,11.21 0,0.28875 -0.03,0.9325 -0.079,1.93375 -0.039,1.00625 -0.059,1.7725 -0.059,2.305 0,0.5225 0.089,1.1675 0.2737,1.93375 0.195,0.77125 0.5325,1.39625 1.0163,1.875 0.6738,0.66375 1.875,0.81 3.5937,0.43 2.1088,-0.19625 4.8875,-0.57625 8.3388,-1.1525 2.6813,-0.37625 6.49,-0.87875 11.4262,-1.50375 4.9313,-0.625 9.4138,-1.22125 13.4375,-1.7975 4.0238,-0.57125 7.8125,-1.19625 11.3676,-1.875 l -0.2933,-24.72625 z m -0.2925,-36.21125 c -1.1475,0 -3.6325,0.3325 -7.4612,0.99625 -5.4688,0.77125 -9.8338,1.29875 -13.0851,1.5825 -8.2425,0.85875 -16.5825,0.62 -25.02,-0.72375 l -0.5662,8.34 -1.0162,16.54375 c 3.4475,-0.67375 7.09,-1.20125 10.9187,-1.5825 3.8375,-0.39 8.2025,-0.7475 13.085,-1.07375 4.8937,-0.3375 8.5413,-0.65 10.9375,-0.9375 l 9.0437,-0.87875 c 0.195,0 0.5325,-0.02 1.015,-0.0588 0.4788,-0.0488 0.9375,-0.0975 1.3675,-0.1375 0.43,-0.0487 0.6888,-0.175 0.7813,-0.37125 0.1025,-0.0875 0.1562,-0.615 0.1562,-1.58125 l 0,-4.02375 c 0,-1.82125 -0.029,-4.53125 -0.077,-8.125 -0.054,-3.59375 -0.079,-6.25 -0.079,-7.96875 z m -0.1362,-14.23875 c 0,-0.76625 0.019,-2.1775 0.059,-4.2375 0.049,-2.05625 0.049,-3.6575 0,-4.805 -0.04,-1.1575 -0.1325,-2.5775 -0.2737,-4.2575 -0.1463,-1.68 -0.4301,-3.20875 -0.86,-4.59 -0.4288,-1.39125 -0.9863,-2.715002 -1.66,-3.965002 -0.092,-0.195 -0.3513,-0.66875 -0.7813,-1.42625 -0.43,-0.76625 -0.7425,-1.39125 -0.9375,-1.875 -0.2875,-0.85875 -0.5763,-1.3375 -0.8587,-1.445 l -1.7388,0 c -0.092,0 -0.7175,0.0538 -1.875,0.15625 -1.1475,0.0925 -2.0062,0.18625 -2.5775,0.27375 -4.405,0.39 -8.955,0.68375 -13.6525,0.87875 -3.165,0.0925 -6.7575,-0.005 -10.7812,-0.2925 -0.092,0 -0.45,-0.0438 -1.075,-0.1375 -0.625,-0.1025 -1.1325,-0.175 -1.5225,-0.215 -0.3813,-0.0488 -0.7138,0.015 -0.9963,0.19625 -0.195,0.1075 -0.3425,0.3025 -0.43,0.585 -0.092,0.28875 -0.19,0.60125 -0.2925,0.9375 -0.094,0.3425 -0.1912,0.5575 -0.2937,0.645 -0.9513,2.2025 -1.5725,4.453752 -1.855,6.757502 -0.4838,2.77375 -0.9375,6.72875 -1.3676,11.85625 -0.43,5.13125 -0.7425,8.51 -0.9375,10.13625 3.2526,-0.57125 11.7388,-1.5825 25.4488,-3.0275 1.3387,-0.18 3.35,-0.45875 6.0362,-0.84 2.68,-0.39 5.0775,-0.7025 7.1875,-0.9375 2.1088,-0.24375 4.1213,-0.37125 6.035,-0.37125 z m 18.8275,72.59875 c 2.4862,-0.19625 5.1175,-0.435 7.8912,-0.72375 2.7825,-0.2825 5.8788,-0.615 9.2775,-0.995 3.4075,-0.39125 6.025,-0.68375 7.8513,-0.88 2.29,-0.18 5.5662,-0.34125 9.8237,-0.4875 4.2675,-0.15625 7.315,-0.27875 9.1413,-0.37125 2.3037,-0.195 5.635,-0.59625 10,-1.21125 4.36,-0.625 7.07,-0.98625 8.125,-1.09375 1.5237,-0.18 4.2237,-0.63 8.1049,-1.3475 3.8913,-0.7275 6.8851,-1.235 8.9851,-1.52375 0.8687,-0.0875 2.07,-0.16125 3.5937,-0.215 1.5325,-0.0488 2.5438,-0.0775 3.0275,-0.0775 0.4775,0 1.2938,-0.0688 2.4413,-0.215 1.1425,-0.14125 2.0012,-0.23375 2.5774,-0.27375 0.5863,-0.0487 1.4063,-0.0287 2.4613,0.0588 1.8213,0.28875 4.8875,1.53875 9.1988,3.75 1.1424,0.46875 2.8425,1.30375 5.0975,2.5 2.2512,1.20125 3.9512,2.04125 5.0987,2.52 4.79,2.10875 7.4262,3.31 7.91,3.59375 3.6425,2.21625 5.7513,3.8475 6.3275,4.9025 0.4787,0.185 0.5525,0.87375 0.215,2.07 -0.3413,1.20125 -0.5813,1.9925 -0.7225,2.3825 -0.1462,0.38125 -0.5025,1.1675 -1.075,2.36375 -0.575,1.20125 -0.9075,1.845 -0.995,1.93375 -0.3913,0.96625 -1.0888,2.26 -2.09,3.88625 -1.0063,1.63125 -1.7,2.78375 -2.09,3.4575 -1.9138,4.31125 -3.355,9.43375 -4.3163,15.37125 -0.3812,2.5925 -0.6937,6.28375 -0.9375,11.07375 -0.235,4.795 -0.4499,8.1 -0.645,9.92125 -1.6312,17.735 -4.7412,32.8275 -9.3362,45.27375 l -3.4563,9.4925 c -2.2025,4.795 -5.215,9.29625 -9.0437,13.515 -5.38,6.13375 -11.9913,10.88 -19.8438,14.23875 -3.935,1.81125 -7.0012,2.57375 -9.1987,2.285 -3.74,-0.66375 -7.1875,-3.87125 -10.3513,-9.62875 -3.36,-5.7425 -8.0087,-12.73375 -13.9462,-20.97625 -1.3425,-2.11 -2.3962,-3.69125 -3.1637,-4.74625 -1.0538,-1.62625 -1.6301,-2.53875 -1.7188,-2.735 -0.5763,-1.625 -0.2875,-3.0175 0.86,-4.17875 0.4788,-0.46875 1.3375,-0.46875 2.5775,0 1.1575,0.39 2.8813,1.06875 5.1763,2.03125 3.0712,1.24 7.6762,3.0075 13.8087,5.3125 3.4475,1.435 6.1325,1.71875 8.0463,0.85875 0.86,-0.47875 1.67,-1.005 2.4412,-1.58125 0.7675,-0.57125 1.7237,-1.40625 2.8713,-2.5 1.1575,-1.10375 1.8799,-1.75875 2.1687,-1.95375 4.1113,-3.6425 7.2262,-7.23625 9.335,-10.78125 3.2525,-5.36125 5.7038,-13.32 7.3438,-23.8675 1.0549,-6.50875 2.1537,-16.27875 3.3012,-29.31625 0,-0.1025 0.2838,-5.805 0.86,-17.10875 0.195,-4.595 -0.3325,-7.8025 -1.5825,-9.62875 -1.8262,-2.58875 -5.1325,-4.0725 -9.9225,-4.45375 -1.435,-0.1025 -4.545,-0.0588 -9.335,0.13625 l -13.8088,0.43 c -12.3587,0.0925 -28.5062,0.86 -48.4375,2.305 -2.6862,0.185 -6.7087,0.44375 -12.0712,0.78125 -5.365,0.34125 -9.3938,0.605 -12.0888,0.80125 -0.094,0 -1.7675,0.0975 -5.02,0.2925 -3.2562,0.185 -5.6987,0.37125 -7.3237,0.56625 -1.4462,0.195 -6.675,1.44 -15.6838,3.73 -1.3425,0.39125 -3.2812,0.875 -5.8212,1.44625 -2.5388,0.57625 -4.8388,1.1275 -6.8938,1.66 -2.0612,0.5225 -3.9987,1.06875 -5.82,1.64 -0.3912,0.0937 -0.9725,0.36125 -1.7387,0.80125 -0.7563,0.43 -1.3775,0.7425 -1.855,0.9375 -0.4838,0.185 -1.2063,0.4 -2.1688,0.645 -0.9512,0.23375 -1.67,0.44875 -2.1487,0.64375 -0.2875,0.0925 -1.01,0.425 -2.1675,0.99625 -1.1475,0.57625 -2.0313,0.98625 -2.6563,1.23 -0.615,0.235 -1.4012,0.47875 -2.3637,0.72375 -0.9663,0.23375 -1.855,0.26375 -2.675,0.0775 -0.8113,-0.195 -1.5963,-0.5325 -2.3638,-1.015 -1.63,-1.1575 -3.3537,-3.22375 -5.175,-6.1925 -3.4375,-6.025 -5.1125,-10.575 -5.02,-13.65125 0,-0.57125 0.2588,-1.3875 0.7813,-2.4425 0.5325,-1.05375 0.845,-1.67875 0.9375,-1.875 1.445,-3.54 2.5975,-6.70375 3.4575,-9.49125 2.875,-10.245 4.55,-20.645 5.0187,-31.19125 0.1963,-3.54 0.3375,-8.8775 0.43,-16.01625 0.1026,-7.14875 0.2,-12.49 0.2926,-16.035 0,-0.76625 0.099,-2.68125 0.2937,-5.7425 0.195,-3.07125 0.2925,-5.2975 0.2925,-6.68 0,-1.39125 -0.072,-3.24125 -0.215,-5.54625 -0.1462,-2.305 -0.4587,-4.36 -0.9375,-6.1725 -0.7712,-3.163752 -1.8263,-6.040002 -3.1637,-8.632502 -0.2875,-0.37625 -0.7425,-1.045 -1.3675,-2.01125 -0.625,-0.9625 -1.1525,-1.82125 -1.5813,-2.57875 -0.43,-0.76625 -0.7425,-1.48875 -0.9375,-2.1675 -0.665,-2.305 -0.1375,-4.31625 1.5813,-6.035 1.4462,-1.43125 3.6962,-1.81625 6.7587,-1.1525 1.9137,0.2875 4.4963,1.245 7.7538,2.87125 3.2662,1.63125 5.7612,2.63625 7.48,3.0275 0.4787,0.0925 1.1037,0.0675 1.875,-0.0788 0.7662,-0.14125 1.5825,-0.33125 2.4412,-0.56625 0.86,-0.24375 1.485,-0.415 1.875,-0.5075 0.5713,-0.0875 1.6463,-0.1075 3.2225,-0.0587 1.5875,0.0387 2.6663,0.0587 3.2425,0.0587 23.3838,-1.055 42.505,-2.87625 57.3638,-5.46875 9.2812,-1.71875 18.6225,-3.58375 28.0262,-5.60625 10.9238,-2.485 16.5725,-3.77375 16.9538,-3.86625 1.25,-0.19625 3.2612,0.0388 6.035,0.7025 5.5562,1.445 9.4387,2.93 11.6412,4.45375 1.0538,0.77125 1.9375,1.90375 2.6563,3.3975 0.7275,1.485 0.7075,2.71 -0.059,3.6725 -0.7712,0.9525 -2.735,1.67 -5.8987,2.14875 -1.435,0.185 -3.5163,0.54125 -6.25,1.07375 -2.7338,0.5225 -4.775,0.87875 -6.1138,1.07375 l -35.7812,4.3175 c -5.185,0.57625 -8.8275,1.04875 -10.9375,1.425 -2.685,0.28875 -4.3113,0.5275 -4.8825,0.7225 1.6262,0.19625 2.94,0.9475 3.945,2.24625 1.0162,1.28875 1.6112,2.74875 1.7975,4.375 0.1025,0.9525 -0.1125,2.3925 -0.645,4.316252 -0.5225,1.915 -0.7813,2.92 -0.7813,3.00875 -0.5762,3.45125 -0.9562,7.61625 -1.1525,12.5 1.3388,-0.0888 3.1838,-0.3225 5.5275,-0.70375 2.3538,-0.39 3.9113,-0.63 4.6688,-0.7225 5.2725,-0.67375 8.6762,-1.20125 10.2137,-1.5825 0.675,-0.195 2.5,-0.7225 5.47,-1.58125 2.9675,-0.86 5.2625,-1.33875 6.8938,-1.44625 1.3375,-0.0875 2.7787,-0.0388 4.3162,0.15625 1.5338,0.18625 3.2625,0.46875 5.1763,0.86 1.9137,0.38125 3.35,0.62 4.3162,0.7225 4.1113,0.7575 7.895,2.24125 11.3475,4.45375 2.1975,1.5225 2.8225,3.0075 1.875,4.4525 -1.5375,2.2025 -5.7125,3.82875 -12.52,4.8825 -2.1087,0.28875 -5.175,0.60125 -9.1987,0.9375 -4.0238,0.3425 -6.655,0.5575 -7.89,0.645 -2.0225,0.2875 -4.995,0.7175 -8.9263,1.28875 -3.935,0.57625 -6.855,1.01125 -8.77,1.30875 -6.3275,0.57625 -9.585,0.86 -9.765,0.86 -2.11,0.38 -3.2175,0.62 -3.32,0.7225 -0.1862,0.0925 -0.2737,0.56625 -0.2737,1.425 -0.195,1.915 -0.2938,3.355 -0.2938,4.31625 0,1.71875 -0.1462,4.33125 -0.4287,7.8325 -0.2888,3.50625 -0.43,6.11375 -0.43,7.8325 0.8587,0 4.8825,-0.5275 12.07,-1.5825 6.4162,-0.66375 10.5375,-1.235 12.3637,-1.71875 0.6738,-0.195 2.6175,-0.79125 5.82,-1.79625 3.2125,-1.00125 5.6838,-1.55375 7.4025,-1.66125 0.7663,-0.0875 2.1588,0.1075 4.18,0.58625 0.8588,0.0925 2.1725,0.28375 3.945,0.56625 1.7675,0.28875 3.0863,0.5275 3.945,0.7225 4.2188,0.665 8.1938,2.05125 11.9338,4.16125 2.305,1.25 3.4575,2.45125 3.4575,3.59375 -0.092,1.25 -1.245,2.3575 -3.4575,3.32 -2.8663,1.24 -6.7475,2.1975 -11.64,2.87125 -6.1338,0.85875 -14.9325,1.9425 -26.3875,3.24125 -11.445,1.29 -19.6088,2.2225 -24.4913,2.79375 l -1.4462,23.8675 z m -12.5,-176.523752 c -1.9138,0.2875 -4.7413,0.5025 -8.4763,0.64375 -3.74,0.1475 -6.4262,0.3125 -8.0662,0.50875 -11.4988,1.24 -23.2375,3.725 -35.215,7.46 -27.305,8.81875 -52.266298,24.53125 -74.882498,47.14875 -16.1088,16.10875 -28.6138,33.360002 -37.52,51.757502 -11.1225,22.99875 -17.065,47.86625 -17.8313,74.61 -0.7725,26.73375 3.7788,51.89 13.6513,75.46875 9.8687,23.28125 24.385,44.2675 43.555,62.94875 18.11,17.64245 37.563698,30.91875 58.359998,39.82495 28.6562,12.1726 59.8525,16.4888 93.5937,12.9488 21.2738,-2.305 41.5425,-8.4175 60.8,-18.34 19.2575,-9.9213 36.5088,-22.8313 51.7575,-38.73 16.9538,-17.64125 29.7913,-36.62125 38.5163,-56.93375 10.0637,-23.8675 14.81,-49.5025 14.2387,-76.91375 -0.5762,-24.815 -5.5625,-47.76375 -14.9612,-68.8475 -9.2975,-20.98625 -22.7638,-40.298752 -40.3913,-57.930002 -26.25,-26.26 -55.8587,-43.2225 -88.8275,-50.87875 -9.78,-2.2125 -20.8012,-3.70125 -33.0662,-4.4725 -7.8663,-0.46875 -12.945,-0.5575 -15.235,-0.27375 z m -0.4288,-16.1137498 c 2.485,-0.2825 7.9487,-0.185 16.3862,0.29375 14.9463,0.57625 29.6088,2.87 43.9838,6.89375 34.4,9.4924998 64.8737,28.0862498 91.4262,55.7812498 18.4863,19.2575 32.4313,39.815002 41.8363,61.660002 9.6725,22.6175 14.795,47.15875 15.3712,73.61375 0.7663,31.71875 -5.2687,61.61625 -18.1062,89.6875 -14.2863,31.1475 -35.635,57.32875 -64.0425,78.55495 -28.4137,21.2351 -59.4875,34.0526 -93.2225,38.4563 -39.9612,5.1812 -76.9537,-0.039 -110.9775,-15.6638 -20.1312,-9.2962 -39.057498,-22.4212 -56.776198,-39.375 -22.1388,-21.0937 -38.575,-44.90745 -49.3163,-71.44495 C 6.0279718,258.6837 1.3792718,235.77745 0.22177184,209.9037 -1.3020282,176.93495 5.0267718,145.79245 19.206672,116.4662 c 9.3851,-19.267502 22.9926,-37.817502 40.82,-55.645002 25.2975,-25.2975 52.563798,-42.5 81.796298,-51.6012498 13.125,-4.11125 26.3487,-6.79625 39.6687,-8.04625 1.1575,-0.1025 3.6225,-0.225 7.4025,-0.37125 3.7888,-0.14125 6.6888,-0.35625 8.7113,-0.645 z"
     inkscape:connector-curvature="0" /></svg>