<?xml version="1.0" encoding="UTF-8" standalone="no"?>
<!-- Created with Inkscape (http://www.inkscape.org/) -->

<svg
   xmlns:dc="http://purl.org/dc/elements/1.1/"
   xmlns:cc="http://creativecommons.org/ns#"
   xmlns:rdf="http://www.w3.org/1999/02/22-rdf-syntax-ns#"
   xmlns:svg="http://www.w3.org/2000/svg"
   xmlns="http://www.w3.org/2000/svg"
   xmlns:sodipodi="http://sodipodi.sourceforge.net/DTD/sodipodi-0.dtd"
   xmlns:inkscape="http://www.inkscape.org/namespaces/inkscape"
   version="1.1"
   width="408.55634"
   height="410.79291"
   id="svg2"
   xml:space="preserve"
   inkscape:version="0.48.4 r9939"
   sodipodi:docname="red_cannon.svg"><sodipodi:namedview
     pagecolor="#ffffff"
     bordercolor="#666666"
     borderopacity="1"
     objecttolerance="10"
     gridtolerance="10"
     guidetolerance="10"
     inkscape:pageopacity="0"
     inkscape:pageshadow="2"
     inkscape:window-width="1920"
     inkscape:window-height="1024"
     id="namedview9"
     showgrid="false"
     inkscape:zoom="0.21106688"
     inkscape:cx="-1701.0031"
     inkscape:cy="-166.35975"
     inkscape:window-x="0"
     inkscape:window-y="0"
     inkscape:window-maximized="1"
     inkscape:current-layer="svg2"
     fit-margin-top="0"
     fit-margin-left="0"
     fit-margin-right="0"
     fit-margin-bottom="0" /><metadata
     id="metadata8"><rdf:RDF><cc:Work
         rdf:about=""><dc:format>image/svg+xml</dc:format><dc:type
           rdf:resource="http://purl.org/dc/dcmitype/StillImage" /><dc:title></dc:title></cc:Work></rdf:RDF></metadata><defs
     id="defs6" /><path
     sodipodi:type="arc"
     style="color:#000000;fill:#ffffff;fill-opacity:1;fill-rule:nonzero;stroke:none;stroke-width:0;marker:none;visibility:visible;display:inline;overflow:visible;enable-background:accumulate"
     id="path3967"
     sodipodi:cx="698.50732"
     sodipodi:cy="336.97931"
     sodipodi:rx="192.63391"
     sodipodi:ry="192.63391"
     d="m 891.14124,336.97931 a 192.63391,192.63391 0 1 1 -385.26783,0 192.63391,192.63391 0 1 1 385.26783,0 z"
     transform="translate(-494.22915,-131.58285)" /><path
     id="path3083"
     style="fill:#000000;fill-opacity:1;fill-rule:nonzero;stroke:none"
     d="m 192.57295,245.25495 c 8.15,-2.5875 14.5225,-5.02875 19.1212,-7.32375 2.3925,-1.055 3.7363,-1.63125 4.0237,-1.73875 0.088,0 0.3513,-0.0875 0.7813,-0.2725 0.44,-0.19625 0.7525,-0.39125 0.9375,-0.58625 0.1025,-0.18125 0.2,-0.5325 0.2925,-1.055 0.089,-0.5325 0.1375,-0.85 0.1375,-0.9575 l 0.8788,-5.175 c 1.2349,-6.70375 2.0512,-13.0275 2.4412,-18.965 0.088,-0.57125 0.205,-1.455 0.3513,-2.65625 0.1425,-1.19625 0.215,-2.09 0.215,-2.67625 0.195,-1.1425 -0.049,-1.9575 -0.7226,-2.44125 -0.5762,-0.37625 -2.4899,-0.56625 -5.7424,-0.56625 -1.435,0 -3.0176,0.14625 -4.7463,0.43 -1.7187,0.2875 -3.0363,0.55625 -3.945,0.8 -0.9125,0.235 -2.475,0.69375 -4.6875,1.3675 -2.2025,0.66375 -3.5888,1.09375 -4.16,1.28875 0.088,0.57625 -0.097,2.3 -0.5662,5.17625 -0.9663,3.82875 -1.6363,6.69875 -2.0113,8.61375 -1.7337,10.35125 -2.5987,19.2675 -2.5987,26.7375 z m 130.5275,8.20375 c 0.6737,0.0925 1.2012,0.425 1.5825,0.99625 0.3762,0.57625 0.6349,1.10375 0.7812,1.58125 0.1412,0.48375 0.2838,1.22625 0.43,2.2275 0.1563,1.005 0.2338,1.60125 0.2338,1.79625 0.2837,1.53875 0.86,4.775 1.7187,9.7075 0.86,4.93625 1.6263,8.745 2.305,11.425 0.8588,3.165 2.915,8.19875 6.1713,15.0975 2.305,4.88375 3.5449,8.28125 3.7312,10.19625 0.195,2.5925 -0.45,5.15625 -1.9337,7.695 -1.485,2.53875 -3.3788,4.62375 -5.6838,6.25 -6.7087,4.8975 -14.6575,8.975 -23.8475,12.22625 -7.7737,2.68625 -18.32,4.64875 -31.6412,5.89875 -21.5625,2.10875 -41.0638,0.77125 -58.495,-4.02375 -5.655,-1.62625 -8.6238,-2.49 -8.9063,-2.5975 -4.2187,-1.71875 -9.0137,-4.73125 -14.375,-9.0425 -6.2412,-5.08875 -10.5575,-10.07875 -12.95,-14.96125 -2.0062,-4.11125 -3.105,-11.5875 -3.3,-22.4225 -0.094,-5.2725 0.049,-12.81625 0.4288,-22.63625 0.3762,-9.82875 0.5662,-16.855 0.5662,-21.07375 l 0.45,-20.25375 c 0.18,-6.32875 -0.015,-11.11875 -0.5863,-14.375 -0.4837,-2.3925 -0.8149,-4.02875 -0.9962,-4.9025 -0.1075,-0.28375 -0.3712,-1.045 -0.8,-2.285 -0.43,-1.25 -0.7187,-2.2075 -0.86,-2.87125 -0.1462,-0.67375 -0.215,-1.54375 -0.215,-2.5975 0,-1.055 0.24,-1.915 0.7225,-2.57875 0.7675,-1.1575 2.3925,-1.49375 4.8838,-1.015 1.8212,0.4825 3.8762,1.29875 6.1712,2.44125 0.195,0.1075 0.65,0.4 1.3675,0.87875 0.7275,0.46875 1.235,0.75125 1.5238,0.84 0.1799,0 0.8975,-0.1425 2.1475,-0.43 1.25,-0.18125 3.0475,-0.58625 5.3912,-1.21125 2.3438,-0.625 3.9938,-1.035 4.9613,-1.23 0.375,-0.0875 1.835,-0.35125 4.375,-0.78125 2.5387,-0.43 4.4775,-0.9275 5.82,-1.50375 2.6949,-1.3525 4.6575,-2.54875 5.8987,-3.59375 0.1025,-0.1025 0.585,-0.5125 1.445,-1.23125 0.8588,-0.7125 1.5725,-1.215 2.1488,-1.50375 0.5712,-0.2825 1.1962,-0.47875 1.875,-0.58625 0.8587,-0.0875 2.485,0.3425 4.8825,1.29 2.5,0.96625 6.0449,2.885 10.6437,5.76125 0.2838,0.195 0.7425,0.41 1.3675,0.645 0.625,0.23375 1.0987,0.44875 1.4263,0.64375 0.3362,0.19625 0.6937,0.48875 1.0737,0.87875 0.3913,0.38125 0.7275,0.81125 1.0163,1.29 0.4787,0.95125 0.7412,1.90875 0.7812,2.87125 0.049,0.95125 -0.1175,1.9325 -0.5087,2.94875 -0.3801,1.00625 -0.7813,1.89 -1.21,2.65625 -0.43,0.77125 -0.9576,1.68 -1.5826,2.73375 -0.625,1.055 -1.0837,1.87125 -1.3674,2.4425 -0.185,0.38 -1.0938,2.22125 -2.7338,5.52625 -1.6312,3.31125 -2.7738,5.82125 -3.4375,7.54 -0.86,2.3975 -1.89,5.87375 -3.0863,10.42875 -1.2012,4.56125 -2.0412,7.6525 -2.5199,9.2775 1.7187,0.665 3.1062,1.93375 4.1612,3.80875 1.0538,1.865 0.7225,3.41875 -0.9962,4.66875 -0.3913,0.195 -1.4013,0.2925 -3.0275,0.2925 -1.9138,0.2875 -3.7838,0.7175 -5.6063,1.28875 -0.575,0.195 -1.3863,0.58125 -2.4412,1.1525 -1.0538,0.57625 -1.8701,0.9575 -2.4413,1.1525 -1.055,0.38125 -2.2363,0.69375 -3.535,0.9375 -1.2887,0.23375 -2.705,0.44875 -4.2387,0.645 -1.5225,0.185 -2.7238,0.37 -3.5938,0.56625 -8.6225,1.82625 -14.1737,2.73375 -16.66,2.73375 0,2.3975 -0.073,5.87375 -0.215,10.43 -0.1463,4.54625 -0.2137,8.6675 -0.2137,12.36375 0,3.68625 0.185,7.1575 0.5662,10.41 0.7663,7.09875 2.7338,12.6125 5.8975,16.5425 2.0025,2.295 4.9713,4.395 8.9063,6.30875 4.3074,2.21625 7.9987,3.6525 11.075,4.31625 1.7187,0.39125 5.4537,0.82 11.2112,1.28875 7.3825,0.7725 16.0538,1.065 26.015,0.87875 12.1725,-0.39 22.1875,-1.78125 30.0388,-4.17875 9.4,-2.87625 16.7287,-6.61125 21.9924,-11.21125 1.9238,-1.71875 3.5788,-3.60375 4.9613,-5.66375 1.3912,-2.07125 2.5188,-4.7075 3.3788,-7.91 0.8687,-3.21375 1.47,-5.5675 1.7962,-7.05125 0.3375,-1.485 0.7912,-4.38 1.3675,-8.69125 0.5712,-4.32125 0.9087,-6.7675 1.0163,-7.34375 0.088,-0.47875 0.205,-1.39125 0.3512,-2.735 0.1412,-1.3375 0.2588,-2.3875 0.3513,-3.14375 0.1024,-0.7675 0.245,-1.705 0.43,-2.8125 0.195,-1.10375 0.4787,-2.11 0.8587,-3.00875 0.3913,-0.9075 0.8263,-1.7475 1.3088,-2.51875 z M 77.572951,164.9037 c 0.2837,-0.195 1.4362,-0.0975 3.4574,0.2925 2.8763,0.57625 6.1813,2.105 9.9226,4.59 2.3925,1.63125 5.8887,4.2675 10.487499,7.91 3.2524,2.77375 5.1662,4.6875 5.7425,5.7425 1.3375,2.2175 2.2075,6.1475 2.5974,11.7975 0.5713,6.61625 -1.0549,10.87875 -4.8824,12.7925 -4.61,2.2025 -9.023799,0.57625 -13.242599,-4.8825 -3.6324,-4.61 -8.0412,-12.8025 -13.2224,-24.59 -1.055,-2.305 -2.06,-4.84375 -3.0075,-7.6175 -0.4838,-1.43 -0.6788,-2.485 -0.5863,-3.16375 0.1025,-0.37625 0.4588,-0.89875 1.0738,-1.5625 0.625,-0.67375 1.1775,-1.11375 1.66,-1.30875 z m -6.8938,158.26125 c 1.3375,-2.00125 3.4425,-4.70625 6.3088,-8.105 2.8762,-3.4075 4.6975,-5.645 5.4687,-6.69875 9.0088,-11.69 16.005,-22.47125 20.996299,-32.34375 5.9375,-12.07125 10.585,-27.35375 13.945,-45.86 2.1975,-11.7825 3.4962,-19.49625 3.8862,-23.14375 1.1425,-10.245 1.86,-22.2275 2.1488,-35.9375 0.4787,-20.9775 -0.1463,-44.4975 -1.875,-70.5675 -0.3813,-5.077502 -1.2401,-9.393752 -2.5788,-12.948752 -0.195,-0.47875 -0.7512,-1.435 -1.66,-2.87125 -0.9125,-1.43 -1.46,-2.52875 -1.64,-3.3 -0.3025,-1.1575 -0.1125,-2.59875 0.5663,-4.3175 1.1425,-2.875 4.165,-3.93 9.0625,-3.16375 8.8137,1.43625 15.2337,4.64375 19.2575,9.62875 1.9137,2.59375 2.7737,4.8925 2.5787,6.895 -0.092,0.87375 -0.4987,2.08 -1.2112,3.61375 -0.7175,1.5225 -1.1275,2.48 -1.23,2.87 -1.1475,4.210002 -1.915,8.086252 -2.305,11.641252 -0.9526,8.2425 -1.4263,23.2375 -1.4263,44.98 0,1.44625 -0.029,3.63375 -0.078,6.5625 -0.04,2.92 -0.059,5.09375 -0.059,6.52375 l 0,5.46875 c 0.5712,-1.25 1.6012,-2.94875 3.0862,-5.0975 1.4837,-2.15875 2.4113,-3.57875 2.7925,-4.2575 4.79,-8.61875 8.4375,-16.09375 10.9375,-22.4225 1.43,-3.91625 2.72,-7.7975 3.8675,-11.64 0.9612,-2.96875 1.7288,-4.6925 2.3038,-5.17625 0.4787,-0.37625 1.3487,-0.3225 2.5987,0.15625 1.235,0.66375 2.9588,2.0075 5.175,4.02375 0.2837,0.2875 0.9038,0.98625 1.8563,2.09 0.9612,1.09375 1.7275,1.885 2.3037,2.3625 0.2838,0.28875 0.9038,0.7425 1.8563,1.3675 0.9612,0.625 1.6837,1.1275 2.1674,1.50375 3.0713,2.77375 4.0288,6.27 2.8713,10.48875 -0.3812,1.445 -1.1912,2.67125 -2.4412,3.67125 -1.25,1.00625 -2.9301,1.9875 -5.0388,2.95 -2.1,0.95125 -3.4862,1.62125 -4.1612,2.01125 -2.8801,1.82625 -6.6888,4.62875 -11.425,8.4175 -4.7413,3.78 -7.9788,6.29 -9.7075,7.54 -2.2013,1.5375 -4.3113,2.925 -6.3275,4.16 -1.8113,0.77125 -2.7688,1.20625 -2.8713,1.30875 -0.093,0.185 -0.1375,0.8 -0.1375,1.855 0,0.39125 -0.029,0.99625 -0.077,1.81625 -0.054,0.81125 -0.079,1.40125 -0.079,1.7775 -0.3801,6.81125 -0.7126,11.74875 -0.995,14.805 -0.094,0.57625 -0.2888,2.53875 -0.5863,5.89875 -0.2887,3.35875 -0.4787,5.4975 -0.5662,6.40625 -0.094,0.8975 -0.3075,2.84125 -0.6451,5.82 -0.3412,2.96875 -0.6049,5.1075 -0.8012,6.40625 -0.185,1.28875 -0.4687,3.2025 -0.8587,5.7425 -0.3813,2.53875 -0.7376,4.6475 -1.0738,6.3275 -0.3425,1.67 -0.7525,3.555 -1.2312,5.66375 -0.4688,2.11 -0.9913,4.12125 -1.5625,6.035 0.9475,0.19625 1.9537,0.5375 3.0075,1.01625 1.055,0.48375 2.2275,1.1325 3.5162,1.9525 1.2988,0.81125 2.2363,1.3575 2.8125,1.64125 0.195,0.0925 2.5875,1.17125 7.1875,3.2425 4.595,2.06 7.9488,3.76 10.0588,5.0975 3.0712,2.00625 4.99,3.8225 5.7612,5.44875 2.485,5.07875 3.0125,10.5425 1.5825,16.3875 -0.5863,2.5 -1.025,3.94 -1.3087,4.31625 -1.1475,1.445 -3.4913,1.92875 -7.0313,1.445 -0.195,0 -0.5612,-0.025 -1.0937,-0.0788 -0.5225,-0.0488 -0.9276,-0.12125 -1.2113,-0.21375 -0.4825,-0.0888 -1.25,-0.80625 -2.305,-2.14875 -2.0062,-2.305 -3.73,-4.5125 -5.175,-6.62125 -1.1475,-1.62625 -2.8275,-4.30625 -5.0387,-8.0475 -2.2025,-3.735 -4.2875,-6.91875 -6.25,-9.55 -1.9538,-2.64125 -4.1313,-4.9225 -6.5238,-6.83625 0,0.28875 -0.7225,2.68625 -2.1687,7.1875 -2.5926,6.70875 -4.0325,10.4 -4.3163,11.07375 -6.5137,14.56125 -14.2275,26.44125 -23.1437,35.645 -3.921299,3.93625 -6.699999,6.51875 -8.339999,7.75375 -5.9375,4.41375 -10.7325,7.57875 -14.375,9.4925 -2.9688,1.73375 -5.3125,2.02125 -7.0313,0.85875 z m 108.671299,-139.14 c 0.1962,-1.3375 0.5762,-2.6075 1.1525,-3.80875 0.5712,-1.19625 1.4312,-2.705 2.5787,-4.53125 1.1575,-1.82125 1.88,-2.97375 2.1675,-3.4575 4.0238,-7.275 7.3288,-13.65125 9.9225,-19.12 6.8987,-15.235 13.4612,-34.3025 19.6875,-57.207502 2.1963,-7.95375 3.3,-15 3.3,-21.1325 0,-4.79 0.7675,-7.6175 2.305,-8.4775 1.7188,-1.05375 4.4,-0.42875 8.0463,1.875 4.8837,3.0625 8.8574,6.84625 11.9337,11.34875 1.6262,2.685 2.4413,4.795 2.4413,6.3275 0,0.77125 -0.3613,1.61125 -1.0738,2.52 -0.7175,0.9125 -1.1275,1.46 -1.23,1.64 -0.665,1.445 -1.5037,3.51125 -2.52,6.19125 -1.0062,2.68625 -1.7475,4.600002 -2.2262,5.742502 -1.045,2.3975 -2.53,5.99125 -4.4538,10.78125 -1.9138,4.795 -3.3975,8.34 -4.4525,10.645 -0.86,1.91375 -2.4712,5.15125 -4.825,9.70625 -2.3437,4.54625 -4.0912,8.06625 -5.2337,10.56625 1.4312,-0.2825 3.515,-0.615 6.25,-0.995 2.7337,-0.39125 4.6287,-0.68375 5.6837,-0.88 1.6263,-0.2825 4.1113,-0.85875 7.4613,-1.71875 3.3587,-0.86875 5.9025,-1.49375 7.6362,-1.875 l 20.6838,-4.745 c 5.7512,-1.71875 10.595,-3.39875 14.5312,-5.04 0.4788,-0.18 1.2688,-0.53125 2.3625,-1.05375 1.1037,-0.5325 2.09,-0.9675 2.95,-1.30875 0.8588,-0.3375 1.67,-0.50875 2.4413,-0.50875 0.39,0 1.4937,0.5275 3.32,1.5825 4.595,2.3975 7.3687,3.93625 8.32,4.61 0.8699,0.57625 2.0712,1.63 3.5937,3.16375 0.1025,0.0925 0.415,0.405 0.9375,0.9375 0.5325,0.5225 0.8887,0.87875 1.075,1.07375 0.195,0.18625 0.5325,0.5175 1.015,0.99625 0.4787,0.48375 0.8112,0.86875 0.9963,1.1525 0.195,0.2875 0.4587,0.69875 0.8012,1.23 0.3363,0.5225 0.5762,0.9775 0.7225,1.3675 0.1412,0.38125 0.2838,0.81125 0.43,1.28875 0.1413,0.48375 0.215,0.9575 0.215,1.42625 0,0.87375 -0.1712,1.7925 -0.5087,2.75375 -0.3413,0.9525 -0.8201,1.95375 -1.4451,3.0075 -0.6149,1.055 -1.0149,1.87 -1.2112,2.44125 -1.435,3.36 -2.675,7.91125 -3.73,13.6525 -0.7713,3.84375 -1.68,11.12875 -2.735,21.85625 -2.1087,20.42 -5.0875,36.7575 -8.925,49.0225 -2.295,7.47625 -4.8337,13.51125 -7.6175,18.10625 -1.8112,2.96875 -3.4862,4.98 -5.02,6.035 -1.7325,1.25 -3.725,2.11875 -5.9762,2.5975 -2.255,0.46875 -4.2863,0.23 -6.0938,-0.7225 -1.1612,-0.76625 -2.7437,-3.2125 -4.7462,-7.34375 -2.1088,-3.82875 -4.3651,-7.46625 -6.7576,-10.9175 l -6.0349,-7.755 c -1.5388,-1.82125 -2.3538,-2.92875 -2.4413,-3.32 0,-0.18 0.2825,-1.47 0.8588,-3.8675 0.4687,0.0937 2.335,0.81125 5.6062,2.14875 2.1975,0.86 5.5075,2.06125 9.9213,3.59375 3.4475,0.9675 5.7475,1.065 6.895,0.29375 1.25,-0.87 2.49,-2.74 3.73,-5.60625 1.445,-3.6425 2.6412,-7.86125 3.5937,-12.65625 2.9688,-13.4075 5.415,-30.42 7.3438,-51.035 0.4687,-5.0775 0.7037,-9.6725 0.7037,-13.78875 0,-3.555 -0.9087,-6.09375 -2.715,-7.6175 -1.6412,-1.25 -3.945,-1.875 -6.9137,-1.875 -2.8813,0 -7.9113,1.055 -15.0988,3.16375 -11.21,3.165 -17.2937,4.9375 -18.2412,5.3125 -0.7713,0.28875 -1.8263,0.69875 -3.165,1.23125 -1.3426,0.5225 -2.5676,0.99625 -3.6713,1.425 -1.1088,0.43 -2.1387,0.84 -3.0862,1.23125 -4.0238,1.82625 -7.0463,2.7825 -9.0625,2.87125 -2.7738,0.0925 -6.845,-0.9625 -12.2063,-3.165 -0.3913,0.9675 -0.8987,1.905 -1.5237,2.8125 -0.625,0.91375 -1.5625,2.04125 -2.8125,3.37875 -1.24,1.34375 -1.9538,2.15875 -2.1488,2.4425 -2.295,2.7725 -6.1225,6.5575 -11.4837,11.3475 -4.0388,3.74 -6.5338,5.9475 -7.4813,6.62125 -0.5762,0.2875 -1.44,0.67375 -2.5975,1.15125 -1.1475,0.46875 -1.865,0.7575 -2.1487,0.86 z m 18.535,-167.753752 c -1.2401,0.185 -3.08,0.3025 -5.5263,0.35125 -2.4512,0.0538 -4.1512,0.1275 -5.0987,0.215 -9.2088,0.85875 -16.635,1.91375 -22.285,3.16375 -28.0763,5.7575 -53.4175,17.88125 -76.034999,36.3675 -22.905,18.88125 -40.3463,39.81875 -52.3238,62.812502 -13.2325,25.69375 -20.0875,53.49125 -20.5662,83.39875 -0.4838,29.8975 5.5512,57.87125 18.1049,83.925 12.2663,25.21 29.9463,47.3975 53.0476,66.56245 17.928699,15.1425 37.674999,26.0651 59.237499,32.7738 24.8149,7.6663 51.075,10.1613 78.77,7.48 30.3762,-3.075 58.76,-13.955 85.1562,-32.6363 26.4063,-18.6812 46.8938,-41.87495 61.465,-69.56995 15.0488,-28.4625 21.9038,-58.69625 20.5663,-90.70375 -1.0551,-25.2975 -5.7575,-47.8175 -14.1013,-67.55875 -9.8737,-23.48625 -25.015,-44.716252 -45.43,-63.691252 -8.9062,-8.4375 -17.5787,-15.57625 -26.0162,-21.425 -18.3975,-12.6425 -38.3301,-21.50375 -59.785,-26.5825 -9.78,-2.305 -21.045,-3.8375 -33.7888,-4.60875 -7.9588,-0.46875 -13.0862,-0.5575 -15.3912,-0.27375 z m -0.4288,-16.1137498 c 2.5,-0.2825 8.0125,-0.185 16.5425,0.29375 14.18,0.57625 28.2663,2.685 42.2663,6.3275 29.0325,7.6712498 55.5512,21.7874998 79.55,42.3437498 24.0087,20.5475 42.3437,44.62375 55,72.226252 11.0162,24.05375 16.905,50.40625 17.6762,79.0625 0.7662,32.1 -5.2738,62.09 -18.125,89.98125 -9.1012,19.93625 -21.7975,38.335 -38.0863,55.19495 -17.2562,18.0175 -35.8499,32.2513 -55.7812,42.6951 -19.8337,10.5475 -41.5375,17.4025 -65.1175,20.5662 -37.5675,4.8838 -72.5925,0.5663 -105.0775,-12.9487 -23.96,-10.1563 -46.049999,-25.4888 -66.269999,-45.9963 -21.1712,-21.455 -36.5525,-44.40375 -46.1325,-68.8475 C 3.4428515,254.5087 -1.1133485,227.1012 0.22915147,198.82995 1.4791515,168.93745 7.6616515,142.1987 18.784151,118.61495 c 9.19,-19.453752 22.4125,-38.188752 39.6688,-56.211252 24.4375,-25.58625 52.187499,-43.31 83.241199,-53.1837498 12.4463,-3.93 24.81,-6.51375 37.09,-7.75375 2.6813,-0.2975 6.705,-0.635 12.07,-1.015 0.4787,0 1.485,-0.02 3.0088,-0.0588 1.5325,-0.0488 2.7337,-0.1275 3.5937,-0.235 z"
     inkscape:connector-curvature="0" /></svg>