<?xml version="1.0" encoding="UTF-8" standalone="no"?>
<!-- Created with Inkscape (http://www.inkscape.org/) -->

<svg
   xmlns:dc="http://purl.org/dc/elements/1.1/"
   xmlns:cc="http://creativecommons.org/ns#"
   xmlns:rdf="http://www.w3.org/1999/02/22-rdf-syntax-ns#"
   xmlns:svg="http://www.w3.org/2000/svg"
   xmlns="http://www.w3.org/2000/svg"
   xmlns:sodipodi="http://sodipodi.sourceforge.net/DTD/sodipodi-0.dtd"
   xmlns:inkscape="http://www.inkscape.org/namespaces/inkscape"
   version="1.1"
   width="408.51947"
   height="408.80426"
   id="svg2"
   xml:space="preserve"
   inkscape:version="0.48.4 r9939"
   sodipodi:docname="red_pawn.svg"><sodipodi:namedview
     pagecolor="#ffffff"
     bordercolor="#666666"
     borderopacity="1"
     objecttolerance="10"
     gridtolerance="10"
     guidetolerance="10"
     inkscape:pageopacity="0"
     inkscape:pageshadow="2"
     inkscape:window-width="1920"
     inkscape:window-height="1024"
     id="namedview9"
     showgrid="false"
     inkscape:zoom="0.21106688"
     inkscape:cx="-1969.2234"
     inkscape:cy="-287.83925"
     inkscape:window-x="0"
     inkscape:window-y="0"
     inkscape:window-maximized="1"
     inkscape:current-layer="svg2"
     fit-margin-top="0"
     fit-margin-left="0"
     fit-margin-right="0"
     fit-margin-bottom="0" /><metadata
     id="metadata8"><rdf:RDF><cc:Work
         rdf:about=""><dc:format>image/svg+xml</dc:format><dc:type
           rdf:resource="http://purl.org/dc/dcmitype/StillImage" /><dc:title></dc:title></cc:Work></rdf:RDF></metadata><defs
     id="defs6" /><path
     transform="translate(-494.24764,-132.57718)"
     d="m 891.14124,336.97931 a 192.63391,192.63391 0 1 1 -385.26783,0 192.63391,192.63391 0 1 1 385.26783,0 z"
     sodipodi:ry="192.63391"
     sodipodi:rx="192.63391"
     sodipodi:cy="336.97931"
     sodipodi:cx="698.50732"
     id="path3965"
     style="color:#000000;fill:#ffffff;fill-opacity:1;fill-rule:nonzero;stroke:none;stroke-width:0;marker:none;visibility:visible;display:inline;overflow:visible;enable-background:accumulate"
     sodipodi:type="arc" /><path
     id="path16"
     style="fill:#000000;fill-opacity:1;fill-rule:nonzero;stroke:none"
     d="m 221.00856,265.8212 c 0.7663,-0.1025 1.3375,-0.12625 1.7188,-0.0775 0.39,0.0537 1.04,0.225 1.9525,0.5075 0.9087,0.28875 1.465,0.43 1.66,0.43 3.8287,1.1475 8.4775,2.92 13.9462,5.3125 0.5713,0.2875 2.0988,0.9575 4.5901,2.01125 2.5,1.055 4.1499,1.75375 4.9599,2.09 0.8213,0.3425 2.33,0.99125 4.5313,1.95375 2.1975,0.95125 3.8287,1.69375 4.8838,2.22625 1.0537,0.5225 2.5387,1.265 4.4524,2.22625 1.9238,0.9525 3.5063,1.7875 4.7463,2.5 1.25,0.7175 2.6612,1.5825 4.2388,2.5975 1.5862,1.00625 3.0512,1.9875 4.3937,2.95 6.7975,4.795 11.5875,9.43375 14.375,13.925 1.915,2.98375 3.3987,6.3675 4.4537,10.15625 1.0538,3.78 1.3863,7.295 0.9963,10.5475 -0.094,0.48375 -0.21,0.96625 -0.3525,1.445 -0.1463,0.48375 -0.3125,1.01125 -0.5075,1.5825 -0.185,0.57625 -0.3275,1.005 -0.43,1.28875 -0.092,0.195 -0.21,0.5075 -0.3513,0.9375 -0.1462,0.43 -0.2437,0.7175 -0.2925,0.85875 -0.054,0.1475 -0.1512,0.43 -0.2937,0.86 -0.1463,0.43 -0.2637,0.7175 -0.3513,0.85875 -0.093,0.1475 -0.21,0.38625 -0.3512,0.72375 -0.1463,0.34125 -0.2925,0.605 -0.45,0.8 -0.1463,0.18625 -0.3313,0.425 -0.5663,0.7225 -0.2337,0.28875 -0.4775,0.50375 -0.7225,0.645 -0.2337,0.14625 -0.4975,0.3125 -0.7812,0.5075 -0.2875,0.18625 -0.5762,0.3225 -0.8588,0.41 -2.0212,0.7725 -4.5612,0.245 -7.6175,-1.58125 -5.3812,-2.96875 -9.2675,-5.65 -11.66,-8.0475 -1.3425,-1.3375 -2.8075,-2.915 -4.395,-4.72625 -1.5762,-1.82125 -2.7487,-3.18875 -3.515,-4.10125 -0.7575,-0.90875 -2.1687,-2.705 -4.2387,-5.39125 -2.06,-2.68 -3.2325,-4.21875 -3.515,-4.60875 -9.2975,-12.07125 -17.3437,-21.02625 -24.1413,-26.875 -5.4687,-4.8925 -9.0187,-8.38875 -10.6437,-10.48875 -0.665,-0.86875 -1.075,-1.7825 -1.2313,-2.73375 -0.1462,-0.9625 0.3125,-1.7775 1.3675,-2.4425 z M 85.324863,339.41495 c 0.3762,-0.4775 1.86,-1.63 4.4525,-3.45625 0.86,-0.66375 2.1737,-1.69 3.9462,-3.08625 1.7675,-1.39125 3.135,-2.42125 4.1013,-3.08625 7.563697,-6.04 15.609997,-12.75375 24.139997,-20.13625 8.0575,-6.7975 15.1575,-13.59875 21.29,-20.41 4.595,-4.97125 7.5637,-8.565 8.9062,-10.78125 1.43,-2.68125 2.2463,-5.9375 2.4413,-9.76625 0,-3.35875 0.2387,-5.32125 0.7225,-5.8975 1.4312,-1.82125 4.4975,-1.68 9.1987,0.42875 2.7738,1.055 6.0263,2.495 9.7663,4.31625 4.2187,1.915 6.9525,3.4475 8.2025,4.59 2.8762,2.69625 4.0287,5.1475 3.4575,7.34375 -0.39,1.915 -2.4563,3.92625 -6.1913,6.035 -5.85,3.4525 -10.7375,6.8075 -14.6687,10.05875 -0.6638,0.48375 -2.865,2.28125 -6.6013,5.39125 -3.74,3.115 -6.0887,5.05375 -7.0499,5.82 -0.9526,0.77125 -3.0813,2.495 -6.3876,5.17625 -3.31,2.685 -5.7324,4.53125 -7.265,5.54625 -1.5387,1.00625 -3.8187,2.535 -6.8362,4.59 -3.0075,2.06125 -5.5475,3.6675 -7.6175,4.82375 -2.06,1.1475 -4.4825,2.4175 -7.265,3.80875 -2.7738,1.3825 -5.5037,2.5975 -8.1838,3.6525 -4.6,1.92875 -9.628697,3.565 -15.097497,4.9025 -3.2575,0.86 -5.7425,0.90875 -7.4612,0.13625 z M 223.17606,161.01745 c -0.195,0 -4.99,0.86875 -14.375,2.5975 -3.6475,0.66375 -8.92,1.65 -15.82,2.94875 -6.9037,1.28875 -10.7812,2.03125 -11.6412,2.22625 -0.9663,0.18625 -2.4012,0.51875 -4.3163,0.99625 -1.9137,0.48375 -3.6662,0.87 -5.2537,1.1525 -1.5763,0.28875 -3.0363,0.43 -4.375,0.43 -1.25,0.0925 -4.4138,-0.23875 -9.4925,-0.99625 l 1.3087,10.625 2.2863,18.69125 2.7337,22.4225 1.2888,10.78125 14.1025,-0.99625 29.0225,-1.73875 13.6725,-0.85875 c 0.7662,-6.41625 1.8212,-16.045 3.1637,-28.8875 1.055,-9.10125 1.5288,-15.42 1.4263,-18.965 -0.094,-3.55375 -0.9088,-7.5825 -2.4425,-12.08875 -0.195,-0.47875 -0.58,-1.27 -1.1512,-2.36375 -0.5763,-1.10375 -0.9138,-1.9925 -1.0163,-2.65625 -0.092,-0.67375 0.2,-1.7825 0.8787,-3.32 z m -75.4687,73.16375 c -0.5762,-2.29 -1.1525,-5.9275 -1.7375,-10.9175 -0.2888,-2.1975 -0.7913,-5.41125 -1.505,-9.63 -0.7175,-4.21875 -1.2638,-7.42625 -1.64,-9.62875 -1.3425,-7.75875 -3.2612,-19.4525 -5.7612,-35.0775 -2.4913,-15.625 -4.3563,-27.36375 -5.6063,-35.215 -0.195,-1.1575 -0.4638,-3.09625 -0.8,-5.82 -0.3275,-2.735 -0.6838,-5.1025 -1.075,-7.11 -0.38,-2.01625 -0.8538,-3.89125 -1.425,-5.625 -0.7725,-2.10875 -1.2988,-3.34875 -1.5825,-3.73 -0.195,-0.195 -0.5075,-0.5075 -0.9375,-0.9375 -0.43,-0.43 -0.7913,-0.83 -1.0737,-1.21125 -0.2888,-0.39 -0.4838,-0.77125 -0.5863,-1.1525 -0.6637,-2.21125 -0.1375,-4.41875 1.5825,-6.62125 1.625,-1.821252 4.165,-2.446252 7.6162,-1.875002 3.8388,0.483752 9.0138,2.402502 15.5275,5.762502 1.6263,0.85875 2.9688,1.675 4.0238,2.44125 0.9612,0.77125 1.6312,1.055 2.0112,0.85875 0.9625,-0.375 4.2676,-1.90375 9.9225,-4.59 14.9463,-6.898752 28.75,-14.423752 41.4063,-22.577502 6.1325,-3.82875 11.02,-7.13375 14.6675,-9.9225 0.3762,-0.2825 1.04,-0.81 1.9925,-1.58125 0.9612,-0.76625 1.7575,-1.3675 2.3825,-1.7975 0.625,-0.42875 1.3912,-0.87875 2.305,-1.3475 0.9075,-0.47875 1.7475,-0.82 2.52,-1.015 1.9137,-0.28375 4.4963,0.42875 7.7538,2.1475 3.5399,1.73375 8.955,5.855 16.25,12.36375 3.3437,2.68625 5.2587,5.17625 5.7412,7.48 0.2837,2.2025 -0.5275,3.975 -2.4413,5.3125 -1.9137,1.34375 -4.1699,2.35375 -6.7575,3.0275 -1.5375,0.38125 -3.77,0.7375 -6.6987,1.075 -2.92,0.34125 -4.995,0.65375 -6.2313,0.9375 -6.9912,1.3425 -15.4287,3.353752 -25.3125,6.035002 -2.5775,0.77125 -6.9875,2.13875 -13.2225,4.10125 -6.225,1.9675 -11.0637,3.4275 -14.5112,4.375 -3.0763,0.77125 -7.6763,1.82625 -13.8088,3.16375 -2.11,0.48375 -6.035,1.25 -11.7775,2.305 -0.195,0.0925 -0.635,0.16625 -1.3087,0.215 -0.6638,0.0537 -1.2838,0.15125 -1.855,0.2925 -0.5763,0.1475 -0.9575,0.36125 -1.1525,0.645 -0.195,0.185 -0.3225,0.425 -0.3713,0.7225 -0.039,0.28875 -0.088,0.645 -0.1362,1.07375 -0.04,0.43 -0.059,0.69375 -0.059,0.78125 -0.3912,2.3975 -0.6837,4.89375 -0.8787,7.48125 0,1.25 0.067,2.5725 0.215,3.965 0.155,1.38125 0.3512,2.91 0.585,4.59 0.235,1.67875 0.4012,2.9975 0.5075,3.945 1.2362,11.49875 2.0512,18.2125 2.4425,20.13625 3.3438,-0.86875 8.1537,-1.88 14.4325,-3.0275 6.29,-1.1425 10.2937,-1.91375 12.0125,-2.30375 17.8225,-3.73625 33.3988,-7.27625 46.7187,-10.625 9.385,-2.3925 16.6213,-4.45875 21.6988,-6.1925 0.3912,-0.0875 1.5875,-0.53625 3.5937,-1.3475 2.0175,-0.82 3.6963,-1.39625 5.0388,-1.7375 1.3387,-0.3375 2.6375,-0.50875 3.8875,-0.50875 0.8587,0 3.1538,0.625 6.895,1.875 6.22,2.305 10.5313,4.415 12.9287,6.32875 4.0338,2.96875 5.2838,5.0775 3.75,6.3275 -1.0537,0.86 -2.3237,1.53375 -3.8087,2.0125 -1.4838,0.46875 -2.7538,0.75625 -3.8075,0.85875 -1.055,0.0937 -2.5688,0.16625 -4.5325,0.215 -1.9675,0.0538 -3.29,0.1275 -3.9637,0.215 -7.7638,0.86 -15.9088,1.865 -24.4338,3.0075 -0.2888,0 -2.0413,0.29375 -5.2537,0.87875 -3.2038,0.57625 -5.6201,0.90875 -7.2463,0.99625 l 0,0.1375 c 0.9612,0.1075 3.0175,1.015 6.1712,2.73375 4.4138,2.305 7.9588,4.8 10.645,7.48125 2.1975,2.20125 3.35,4.4525 3.4563,6.7575 0,0.66375 -0.815,1.9625 -2.4413,3.88625 -1.7325,2.57875 -2.9287,5.06875 -3.5937,7.46125 -0.8738,2.7875 -1.9088,6.7725 -3.105,11.9525 -1.2013,5.17125 -1.9925,8.4775 -2.3825,9.9225 -0.3813,1.435 -0.9275,3.565 -1.6413,6.38625 -0.7175,2.8275 -1.2637,4.95625 -1.64,6.3875 -0.1075,0.4825 -0.3512,1.39625 -0.7425,2.73375 -0.3812,1.3425 -0.615,2.3975 -0.7037,3.16375 2.8762,-0.39 7.6662,-0.96125 14.375,-1.71875 6.705,-0.76625 12.5,-1.50875 17.3837,-2.22625 4.8925,-0.7275 9.6388,-1.52375 14.2375,-2.3825 0.7675,-0.0875 2.8038,-0.5175 6.1138,-1.28875 3.3062,-0.7675 5.8688,-1.25 7.695,-1.44625 0.7675,-0.0875 1.865,-0.15625 3.3012,-0.195 1.43,-0.0488 2.3875,-0.0775 2.8713,-0.0775 0.4787,0 1.3912,-0.0688 2.7337,-0.215 1.3388,-0.15625 2.295,-0.25375 2.8713,-0.29375 0.5712,-0.0488 1.485,0.02 2.735,0.215 11.1175,2.77375 18.735,6.27 22.8512,10.48875 1.9238,1.91375 3.0763,3.98 3.4563,6.19125 0.3762,1.52375 0.089,2.57375 -0.8588,3.145 -1.055,0.67875 -2.8812,1.1125 -5.4687,1.30875 -1.5375,0.185 -3.6913,0.2725 -6.465,0.2725 -2.7738,0 -4.7413,0.0538 -5.8988,0.15625 -2.3975,0.19625 -5.8737,0.29375 -10.4287,0.29375 -4.5463,0 -7.3437,0 -8.3988,0 -6.4212,0.0925 -16.0062,0.13625 -28.75,0.13625 -18.4912,0 -43.8862,1.10375 -76.1912,3.30125 -2.49,0.195 -7.5925,0.46375 -15.3125,0.8 -7.71,0.3275 -13.6725,0.68375 -17.8913,1.075 -12.4612,1.25 -25.595,3.07625 -39.3937,5.46875 -2.5788,0.38 -6.505,1.1225 -11.7775,2.22625 -5.2738,1.09375 -9.2537,1.885 -11.9338,2.36375 -0.2887,0 -1.611197,0.2875 -3.964997,0.85875 -2.3437,0.57625 -4.0912,0.815 -5.2337,0.7225 -1.25,-0.0875 -2.5738,-0.37625 -3.965,-0.85875 -1.3825,-0.47875 -2.51,-0.90875 -3.38,-1.29 -0.8588,-0.39 -2.1288,-0.98625 -3.8075,-1.79625 -1.67,-0.82 -2.7888,-1.3725 -3.36,-1.66 -0.7713,-0.37625 -2.1388,-0.80625 -4.1013,-1.28875 -1.9675,-0.47875 -3.6237,-1.08 -4.9612,-1.7975 -1.3425,-0.7125 -2.2025,-1.84125 -2.5775,-3.37875 -0.4838,-2.2125 0.7125,-3.60375 3.5938,-4.18 1.2349,-0.18 6.1174,-0.415 14.6474,-0.7025 11.0263,-0.47875 25.454997,-1.68 43.281297,-3.59375 1.055,-0.1025 4.0925,-0.5125 9.1212,-1.23125 5.025,-0.7125 8.9313,-1.1225 11.7188,-1.23 z m 50.3125,-217.910002 c -1.25,0.185 -3.1,0.3025 -5.5463,0.35125 -2.4362,0.0538 -4.1362,0.1275 -5.0974,0.215 -10.25,1.055 -18.4375,2.25625 -24.5713,3.59375 -29.2325,6.42125 -55.6388,19.795 -79.218797,40.1175 -24.9112,21.5625 -42.9687,46.093752 -54.1787,73.593752 -8.2425,20.11625 -12.705,41.44 -13.38,63.965 -0.6638,22.52875 2.5,44.09125 9.4925,64.6875 8.9062,26.06875 24.1412,50.41 45.7037,73.02625 17.5388,18.3062 37.372497,32.3437 59.511297,42.11 28.75,12.6563 60.615,17.1138 95.605,13.3787 19.5412,-2.1087 38.345,-7.6462 56.4075,-16.6012 18.0712,-8.96 34.535,-20.5375 49.3937,-34.72625 16.5725,-16.00125 29.795,-33.10625 39.6688,-51.30875 7.275,-13.42375 12.685,-27.92 16.23,-43.49625 3.555,-15.57125 5,-31.075 4.3363,-46.50375 -1.0551,-24.33625 -5.5625,-46.08375 -13.5163,-65.25375 -10.1563,-23.955 -25.4,-45.420002 -45.7225,-64.395002 -25.195,-23.47625 -52.265,-39.00375 -81.2113,-46.5825 -12.8412,-3.34375 -25.6837,-5.3125 -38.535,-5.8975 -7.9587,-0.46875 -13.0812,-0.5575 -15.3712,-0.27375 z m -0.43,-16.1137498 c 2.4862,-0.2825 7.95,-0.185 16.3875,0.29375 14.7512,0.57625 29.3162,2.82625 43.6912,6.7575 33.54,9.0137498 63.8725,27.0799998 90.9963,54.1987498 18.97,18.975 33.4425,39.668752 43.4175,62.090002 10.3525,23.19375 15.8112,48.2525 16.3875,75.17625 0.5712,27.31875 -3.79,52.95875 -13.0863,76.91375 -10.1562,26.06875 -25.4,49.54625 -45.7225,70.42995 -20.3125,20.8976 -43.36,36.7626 -69.1412,47.5976 -16.005,6.6012 -32.92,11.0987 -50.7425,13.4962 -18.0075,2.3038 -36.0688,2.255 -54.1788,-0.1375 -18.115,-2.3975 -35.3225,-7.1875 -51.6212,-14.375 C 99.641063,381.7637 77.844863,366.29 58.586063,346.1737 39.602363,326.32995 25.314863,305.29495 15.734863,283.06745 4.0410631,255.46495 -1.1351369,226.81245 0.20736305,197.1112 1.4573631,168.16495 7.0148631,142.95995 16.887363,121.4862 c 10.1562,-21.938752 24.6287,-42.305002 43.4175,-61.093752 24.5312,-24.53125 51.651197,-41.5875 81.367497,-51.1724998 12.93,-4.02375 25.7662,-6.66 38.5163,-7.91 7.0937,-0.57125 10.7412,-0.85875 10.9375,-0.85875 0.4687,0 1.4449,-0.02 2.9287,-0.0588 1.485,-0.0488 2.6612,-0.1275 3.535,-0.235 z"
     inkscape:connector-curvature="0" /></svg>