<?xml version="1.0" encoding="UTF-8" standalone="no"?>
<!-- Created with Inkscape (http://www.inkscape.org/) -->

<svg
   xmlns:dc="http://purl.org/dc/elements/1.1/"
   xmlns:cc="http://creativecommons.org/ns#"
   xmlns:rdf="http://www.w3.org/1999/02/22-rdf-syntax-ns#"
   xmlns:svg="http://www.w3.org/2000/svg"
   xmlns="http://www.w3.org/2000/svg"
   xmlns:sodipodi="http://sodipodi.sourceforge.net/DTD/sodipodi-0.dtd"
   xmlns:inkscape="http://www.inkscape.org/namespaces/inkscape"
   version="1.1"
   width="408.50012"
   height="408.92923"
   id="svg2"
   xml:space="preserve"
   inkscape:version="0.48.4 r9939"
   sodipodi:docname="red_elephant.svg"><sodipodi:namedview
     pagecolor="#ffffff"
     bordercolor="#666666"
     borderopacity="1"
     objecttolerance="10"
     gridtolerance="10"
     guidetolerance="10"
     inkscape:pageopacity="0"
     inkscape:pageshadow="2"
     inkscape:window-width="1920"
     inkscape:window-height="1024"
     id="namedview9"
     showgrid="false"
     inkscape:zoom="0.21106688"
     inkscape:cx="666.0606"
     inkscape:cy="195.98445"
     inkscape:window-x="0"
     inkscape:window-y="0"
     inkscape:window-maximized="1"
     inkscape:current-layer="svg2"
     fit-margin-top="0"
     fit-margin-left="0"
     fit-margin-right="0"
     fit-margin-bottom="0" /><metadata
     id="metadata8"><rdf:RDF><cc:Work
         rdf:about=""><dc:format>image/svg+xml</dc:format><dc:type
           rdf:resource="http://purl.org/dc/dcmitype/StillImage" /><dc:title></dc:title></cc:Work></rdf:RDF></metadata><defs
     id="defs6" /><path
     transform="translate(-494.25723,-132.51469)"
     d="m 891.14124,336.97931 a 192.63391,192.63391 0 1 1 -385.26783,0 192.63391,192.63391 0 1 1 385.26783,0 z"
     sodipodi:ry="192.63391"
     sodipodi:rx="192.63391"
     sodipodi:cy="336.97931"
     sodipodi:cx="698.50732"
     id="path3973"
     style="color:#000000;fill:#ffffff;fill-opacity:1;fill-rule:nonzero;stroke:none;stroke-width:0;marker:none;visibility:visible;display:inline;overflow:visible;enable-background:accumulate"
     sodipodi:type="arc" /><path
     id="path3117"
     style="fill:#000000;fill-opacity:1;fill-rule:nonzero;stroke:none"
     d="m 304.52547,239.5137 c -0.6787,0.185 -1.7388,0.56625 -3.1838,1.15125 -1.4362,0.57625 -2.5787,0.9525 -3.4375,1.13375 -0.5762,0.1075 -1.5137,0.0875 -2.8125,-0.0588 -1.2887,-0.14125 -2.1775,-0.215 -2.6562,-0.215 -0.4688,0 -2.91,0.38625 -7.3237,1.1525 -0.6788,0.0925 -1.6413,0.16625 -2.8913,0.215 -1.24,0.0388 -2.0463,0.0588 -2.4212,0.0588 -3.165,0.585 -7.4325,1.49875 -12.7938,2.73375 -3.0762,0.9675 -4.995,1.49375 -5.7612,1.5825 -6.3288,0.85875 -11.9825,1.1475 -16.9538,0.85875 -1.1612,-0.0875 -2.8225,-0.22375 -4.98,-0.41 -2.1487,-0.195 -3.75,-0.34125 -4.805,-0.44875 l -0.2737,16.67875 -0.8788,23.4375 c 0.9625,0 5.1375,-0.38 12.52,-1.15125 3.1638,-0.28375 8.6713,-1.00125 16.5238,-2.14875 7.8612,-1.1575 13.95,-1.88 18.2612,-2.16875 0.86,0 2.1,-0.0438 3.73,-0.13625 1.6263,-0.1025 2.8225,-0.15625 3.5938,-0.15625 l 6.1925,-0.43 c 2.0012,0.19625 4.8287,1.065 8.4762,2.5975 l 0.8587,-5.33125 0.5663,-12.36375 0.45,-26.58125 z m -0.1563,-49.88375 c -0.4837,0.0937 -1.3237,0.38125 -2.52,0.86 -1.2012,0.48375 -2.1287,0.77125 -2.7925,0.85875 -0.86,0.0937 -2.4899,0.0688 -4.8824,-0.0775 -2.3975,-0.14125 -4.0338,-0.0688 -4.9025,0.215 -1.3438,0.3025 -3.3788,0.76125 -6.1138,1.38625 -2.725,0.615 -4.7563,1.065 -6.0937,1.3475 -1.5376,0.195 -3.8863,0.44 -7.0513,0.7225 -3.1638,0.28875 -5.5613,0.57625 -7.1875,0.86 -0.6638,0.1075 -1.5762,0.37125 -2.7338,0.8 -1.1474,0.43 -1.9624,0.69375 -2.4412,0.78125 -2.8813,0.9675 -5.7038,1.495 -8.4762,1.5825 -1.7338,0.1075 -4.1801,-0.01 -7.3438,-0.35125 -3.155,-0.3375 -5.21,-0.5075 -6.1725,-0.5075 l -0.8587,38.67125 c 2.1962,0 7.705,-0.81 16.5225,-2.44125 11.885,-2.305 20.04,-3.8375 24.4537,-4.61 0.7513,-0.0875 2.285,-0.44875 4.59,-1.07375 2.3038,-0.625 4.0713,-0.98125 5.3125,-1.07375 2.3925,-0.1025 5.8,0.44375 10.215,1.64 4.4138,1.20125 7.29,1.895 8.6325,2.09 l -0.1562,-41.68 z m -0.1374,-9.19875 c 0,-3.2525 -0.072,-8.18875 -0.2138,-14.805 -0.1475,-6.61125 -0.215,-11.60125 -0.215,-14.96125 0,-0.375 0.019,-1.21 0.059,-2.5 0.049,-1.29875 0.049,-2.285 0,-2.94875 -0.04,-0.67375 -0.1125,-1.5625 -0.215,-2.65625 -0.094,-1.10375 -0.3076,-2.04125 -0.645,-2.8125 -0.3276,-0.76625 -0.7813,-1.48875 -1.3676,-2.1675 -1.1475,-1.33875 -2.5337,-2.1 -4.16,-2.285 -1.6312,-0.19625 -3.2124,-0.1475 -4.7462,0.13625 0,0.0925 -1.2013,0.13625 -3.5938,0.13625 l -3.73,-0.13625 c -7.7637,0 -20.41,1.63125 -37.9487,4.8825 -0.9675,0.195 -2.6712,0.77625 -5.1175,1.73875 -2.4363,0.9525 -4.375,1.47875 -5.82,1.58125 l -0.5675,44.12125 c 0.4788,-0.0875 1.1525,-0.13625 2.0125,-0.13625 0.8587,0 1.5275,0 2.0112,0 0.8601,-0.195 10.01,-2.34875 27.4613,-6.465 1.1425,-0.2975 3.1537,-0.825 6.035,-1.5825 2.8762,-0.76625 5.3913,-1.36625 7.5387,-1.79625 2.1588,-0.44 4.2438,-0.66375 6.25,-0.66375 2.2125,0 5.7138,0.625 10.5088,1.875 0.6637,0.195 1.7087,0.43875 3.1437,0.7225 1.445,0.2875 2.5488,0.5275 3.32,0.7225 z m -2.4413,-64.55125 c 1.8213,-0.2825 4.6488,0.9575 8.4775,3.73125 0.375,0.3025 1.0938,0.87875 2.1475,1.7375 1.055,0.86 1.865,1.48 2.4413,1.85625 0.5862,0.3025 1.9537,0.95125 4.1025,1.9525 2.1575,1.00625 3.715,1.7925 4.6675,2.36375 0.9624,0.57625 2.0162,1.5375 3.1637,2.89 1.1575,1.34375 1.8262,2.8275 2.0125,4.45375 0.1025,1.055 0.013,2.1575 -0.2738,3.3 -0.2887,1.1475 -0.815,2.6125 -1.5825,4.395 -0.7712,1.7725 -1.2062,2.8025 -1.3087,3.08625 -0.2875,0.85875 -0.5225,3.06125 -0.7025,6.60125 -0.3913,4.99 -0.6588,10.26375 -0.8013,15.82 -0.1462,5.5625 -0.2687,11.91 -0.3712,19.04375 -0.093,7.13875 -0.185,12.43125 -0.2725,15.87875 -0.1963,6.70875 -0.245,11.7875 -0.1375,15.23375 0.2837,4.8975 1.7237,19.56625 4.3162,44.00375 0.1813,1.34375 0.6738,4.86375 1.485,10.5675 0.82,5.6925 1.2788,10.0725 1.3863,13.14375 0.2837,6.22625 -0.9663,12.88625 -3.75,19.98125 -1.0538,3.35875 -2.06,5.7125 -3.0075,7.05 -0.195,0.28875 -1.3963,1.3875 -3.5938,3.30125 -3.2562,2.685 -6.035,4.17 -8.34,4.4525 -2.305,0.28875 -4.2725,-0.86375 -5.8987,-3.45625 -0.38,-0.57125 -2.7238,-5.215 -7.0313,-13.92625 -0.6787,-1.3375 -1.445,-2.73375 -2.3037,-4.18 -0.4838,-0.85875 -0.9138,-1.3325 -1.29,-1.425 -0.4825,-0.1025 -1.6788,-0.01 -3.5938,0.2725 -1.0537,0.1075 -2.665,0.255 -4.8237,0.45 -2.1625,0.185 -3.77,0.3225 -4.8238,0.41 -3.4525,0.195 -8.6287,0.56125 -15.5275,1.09375 -6.89,0.5225 -12.0612,0.9275 -15.5075,1.21125 -2.0225,0.195 -5.9962,0.0538 -11.9337,-0.43 -0.2888,0 -0.9575,-0.0688 -2.0125,-0.215 -1.0538,-0.14125 -1.8263,-0.23375 -2.3038,-0.27375 -0.4837,-0.0487 -1.1525,-0.0287 -2.0125,0.0588 -0.5762,0.195 -0.8587,1.495 -0.8587,3.8875 -0.1075,1.435 -0.2537,2.74875 -0.45,3.945 -0.185,1.20125 -0.7125,2.3775 -1.5812,3.535 -0.8601,1.1475 -1.9638,1.5775 -3.3013,1.28875 -2.49,-0.57125 -4.6875,-2.68 -6.6013,-6.3275 -3.5449,-6.32875 -5.2687,-12.8425 -5.1762,-19.55125 0.087,-2.68 0.5912,-6.5325 1.5037,-11.5625 0.9088,-5.03875 1.465,-8.6575 1.66,-10.85875 1.7188,-26.065 2.5788,-47.8225 2.5788,-65.27375 l 0,-25.7225 c 0,-11.40625 -0.6737,-19.8875 -2.0112,-25.45 -1.1475,-4.21875 -2.2025,-7.32875 -3.165,-9.335 -0.185,-0.39125 -0.585,-1.01625 -1.21,-1.875 -0.625,-0.86 -1.0363,-1.52875 -1.2313,-2.0125 -0.8587,-2.305 -0.7612,-4.0725 0.2938,-5.3125 0.8587,-1.055 2.4412,-1.58125 4.745,-1.58125 3.6425,0 6.9,0.7175 9.7662,2.1475 0.2825,0.0937 0.7863,0.43 1.5038,1.01625 0.7275,0.57625 1.3325,0.9075 1.8162,0.99625 0.3763,0.1075 1.5725,0.01 3.5938,-0.29375 13.8912,-2.29 27.3537,-5.215 40.3912,-8.76875 1.625,-0.46875 4.38,-1.32875 8.2613,-2.57875 3.8775,-1.25 7.2312,-2.25125 10.0587,-3.0075 2.8225,-0.76625 5.63,-1.3475 8.4175,-1.73875 z m -157.9875,36.3675 c 0,-17.8225 -0.245,-30.185 -0.7225,-37.09 -0.86,-11.9775 -1.6212,-19.595002 -2.2862,-22.851252 -0.39,-1.91375 -1.7376,-6.465 -4.0425,-13.6525 -0.092,-0.2825 -0.3513,-0.81 -0.7813,-1.5825 -0.43,-0.76625 -0.6987,-1.3375 -0.8012,-1.71875 -0.3801,-2.30375 0.1025,-4.2225 1.4462,-5.76125 1.8213,-2.485 4.8438,-2.725 9.0625,-0.7225 0.4775,0.2875 4.2625,2.5925 11.3475,6.91375 4.6975,2.68625 7.5237,5.3125 8.4763,7.89125 0.2974,0.67875 0.4937,1.30375 0.5862,1.875 0.087,0.57625 0.087,1.245 0,2.01125 -0.092,0.77125 -0.1663,1.3675 -0.215,1.7975 -0.054,0.42875 -0.225,1.1275 -0.5075,2.08875 -0.2887,0.9675 -0.4787,1.5925 -0.5662,1.875 -0.9675,3.82875 -1.6363,7.281252 -2.0125,10.352502 -0.6788,5.26375 -1.2063,13.16375 -1.5813,23.71 -0.1075,2.305 -0.3037,5.81125 -0.5863,10.50875 -0.2887,4.6875 -0.4787,8.2325 -0.5662,10.625 0.7663,-0.28375 4.5013,-1.19625 11.21,-2.735 6.1338,-1.62625 10.1563,-2.3925 12.0713,-2.305 2.485,0.1075 5.9375,0.83125 10.3512,2.16875 1.7187,0.46875 3.2025,0.9275 4.4525,1.3675 1.25,0.42875 2.545,1.245 3.8875,2.44125 1.3375,1.20125 1.8162,2.55875 1.425,4.08125 -0.185,0.67875 -0.995,1.64125 -2.4413,2.89125 -2.295,1.63125 -4.8775,2.72875 -7.7537,3.3 -5.7562,1.34375 -13.3738,2.54 -22.8513,3.59375 -0.8737,0.0937 -2.0512,0.26375 -3.535,0.50875 -1.485,0.23375 -2.8512,0.425 -4.1012,0.56625 -1.2412,0.14625 -2.4325,0.215 -3.575,0.215 0,2.5 -0.1712,6.19125 -0.5075,11.07375 -0.3425,4.8825 -0.5075,8.57375 -0.5075,11.07375 0,2.295 -0.049,3.965 -0.1375,5.02 l 0,2.44125 c 0.1813,0.195 0.4588,0.39125 0.84,0.58625 0.3913,0.185 0.845,0.37125 1.3675,0.56625 0.5325,0.195 0.8988,0.3425 1.0938,0.43 1.1425,0.48375 4.0675,1.68 8.77,3.59375 10.3512,4.13125 17.3475,7.675 20.995,10.64375 2.9687,2.3975 5.025,4.45375 6.1725,6.1725 1.8212,3.16375 2.1087,7.285 0.8587,12.36375 -0.092,0.195 -0.19,0.605 -0.2925,1.23 -0.092,0.625 -0.21,1.1525 -0.3512,1.5825 -0.1463,0.42875 -0.3125,0.79 -0.5075,1.07375 -1.6313,1.63125 -4.1163,2.25625 -7.4613,1.875 -0.195,0 -0.7525,0 -1.66,0 -0.9137,0 -1.5137,-0.0975 -1.7975,-0.2925 -0.195,-0.0888 -1.2987,-1.00125 -3.3,-2.735 -2.0225,-1.82125 -3.9412,-3.735 -5.7625,-5.7425 -0.8587,-0.96125 -3.6125,-4.17 -8.2612,-9.62875 -4.6488,-5.46875 -8.4138,-9.49625 -11.2888,-12.09 l -0.43,26.73875 c -0.195,18.0225 -0.2937,45.0975 -0.2937,81.23 0,5.7425 -0.049,8.955 -0.1363,9.62875 -0.5762,3.74125 -2.1587,8.38875 -4.7462,13.94625 -0.6638,1.5375 -1.67,3.04625 -3.0075,4.53125 -1.3425,1.4837 -2.735,2.085 -4.18,1.7962 -0.2875,0 -0.8588,-0.4787 -1.7188,-1.44495 -1.435,-1.43125 -2.675,-2.87125 -3.73,-4.31625 -1.055,-1.52375 -2.305,-4.20375 -3.75,-8.0475 -2.6862,-6.89875 -3.74,-12.46 -3.1637,-16.67875 0.39,-2.77375 1.2,-7.2275 2.4412,-13.36 1.25,-6.1325 2.1138,-10.87875 2.5975,-14.23875 0.5713,-4.79 1.0738,-9.745 1.5038,-14.8625 0.43,-5.1275 0.8587,-11.24 1.2887,-18.34 0.44,-7.095 0.7525,-12.075 0.9375,-14.94125 1.055,-14.57 1.5825,-26.50375 1.5825,-35.80125 l -0.1375,0 c -0.195,0.67875 -1.3962,2.93 -3.5937,6.7575 -0.5763,0.9675 -1.3863,2.305 -2.4413,4.02375 -1.0537,1.71875 -2.0212,3.27625 -2.89,4.66875 -0.86,1.39625 -1.675,2.665 -2.4412,3.8075 -10.0538,15.05375 -19.2538,26.12375 -27.5975,33.20375 -4.023797,3.35875 -8.862497,6.62125 -14.512497,9.785 -9.0138,5.17125 -17.0113,9.15 -24.0038,11.93375 -0.39,0.0925 -0.9962,0.3325 -1.8162,0.7225 -0.8113,0.38125 -1.5725,0.69375 -2.285,0.9375 -0.7175,0.235 -1.3625,0.35125 -1.9338,0.35125 -1.445,-0.39 -2.1675,-0.86875 -2.1675,-1.445 0,-0.195 0.625,-0.9075 1.875,-2.14875 0.195,-0.195 1.035,-0.9075 2.5188,-2.1475 1.485,-1.25 2.6075,-2.2125 3.3787,-2.89125 10.1563,-9.18875 17.725,-16.235 22.715,-21.1325 1.235,-1.235 3.125,-3.07625 5.6638,-5.5275 2.54,-2.44625 4.4337,-4.2875 5.6837,-5.5275 0.3763,-0.39 0.9038,-0.89875 1.582497,-1.52375 0.6738,-0.625 1.2988,-1.22 1.875,-1.79625 0.5713,-0.57125 1.045,-1.09875 1.4263,-1.5825 0.7662,-1.055 1.8212,-2.68 3.1637,-4.8825 1.3375,-2.1975 2.1525,-3.49625 2.4413,-3.88625 1.25,-2.0025 3.1637,-5.045 5.7425,-9.12125 2.5875,-4.0725 4.555,-7.115 5.8975,-9.12125 0.87,-1.3375 2.2125,-3.4475 4.0237,-6.32875 1.8213,-2.875 3.1688,-4.985 4.0438,-6.3275 1.9137,-2.77375 3.1537,-4.73625 3.73,-5.89875 0.9612,-2.00125 2.0162,-4.97 3.1637,-8.90625 1.1425,-3.93 2.0025,-6.61125 2.5788,-8.04625 -2.8663,0.185 -7.8475,0.78125 -14.9413,1.79625 -7.1,1.00625 -12.5587,1.60125 -16.3875,1.7975 -3.545,0.0925 -7.807497,-0.1025 -12.792497,-0.58625 -3.4525,-0.18125 -5.8937,-0.70875 -7.325,-1.5825 -0.9662,-0.46875 -2.07,-1.5675 -3.32,-3.3 -1.5375,-1.82125 -2.2062,-3.0675 -2.0112,-3.73125 0.2825,-0.86875 1.4837,-1.45 3.5937,-1.7375 1.3375,-0.18125 3.305,-0.37125 5.8988,-0.5675 2.5875,-0.195 4.36,-0.33625 5.3125,-0.42875 3.3587,-0.47875 8.437497,-1.19625 15.233697,-2.14875 6.8063,-0.9625 11.895,-1.685 15.2538,-2.1675 0.6637,-0.0888 3.1062,-0.5175 7.325,-1.29 4.2187,-0.76625 7.4262,-1.25 9.6287,-1.445 z m 54.335,-135.976252 c -1.25,0.185 -3.1,0.3025 -5.5462,0.35125 -2.4363,0.0538 -4.1313,0.1275 -5.0788,0.215 -8.725,0.77125 -16.44,1.87 -23.1438,3.30125 -29.2337,6.24 -55.5862,19.2275 -79.062497,38.96375 -25.6937,21.75875 -44.3312,46.718752 -55.9187,74.883752 -8.4375,20.5225 -12.9,42.35375 -13.3787,65.4875 -0.4825,23.14 3.0125,45.15625 10.4887,66.055 9.3988,26.445 25.0238,50.59625 46.875,72.44125 16.0013,16.00125 33.007497,28.36495 51.014997,37.08995 30.6738,14.8538 64.6975,20.2738 102.0713,16.25 21.3662,-2.3049 41.845,-8.6812 61.4449,-19.1212 19.6088,-10.4438 37.0313,-23.8625 52.265,-40.25375 17.3438,-18.59375 30.04,-37.52 38.0863,-56.7775 10.44,-25.1025 15.0875,-51.93875 13.945,-80.5075 -1.0538,-24.9075 -6.9037,-48.38375 -17.5388,-70.43 -8.8187,-18.0175 -21.0837,-34.887502 -36.7962,-50.605002 -25.875,-25.86875 -54.8637,-43.0275 -86.9725,-51.465 -12.1637,-3.15 -24.62,-5.02 -37.3638,-5.605 -7.9587,-0.46875 -13.0862,-0.5575 -15.3912,-0.27375 z m -0.4287,-16.1137498 c 2.485,-0.2825 7.9487,-0.185 16.3862,0.29375 16.0012,0.77125 30.86,3.12 44.57,7.05 33.15,9.1012498 63.1888,27.1199998 90.1175,54.0437498 19.9312,19.93625 34.8875,41.737502 44.8638,65.410002 9.2962,22.22625 14.2275,46.08875 14.8037,71.58125 0.5713,27.32 -3.7887,53.00375 -13.085,77.05125 -9.9612,25.87375 -24.9812,49.18 -45.0588,69.92125 -20.0787,20.7525 -42.8662,36.5925 -68.36,47.52 -16.2887,6.9 -33.6324,11.5925 -52.0312,14.0825 -36.5138,4.6975 -70.8688,0.2925 -103.0663,-13.2225 -24.5462,-10.3525 -46.777497,-25.7325 -66.698697,-46.1338 -18.5063,-18.9687 -32.6912,-39.14495 -42.5588,-60.52745 C 4.6467728,258.8687 -1.1533272,228.7812 0.18927277,196.95495 1.4392728,168.1162 6.9954728,142.95995 16.869173,121.4862 c 10.0638,-21.758752 24.5363,-42.071252 43.4175,-60.937502 24.5313,-24.54125 51.172597,-41.465 79.922597,-50.7624998 12.6562,-4.20375 26.4549,-7.075 41.4062,-8.6125 1.1425,-0.1025 3.6125,-0.225 7.4025,-0.37125 3.7887,-0.14125 6.6838,-0.35625 8.6913,-0.645 z"
     inkscape:connector-curvature="0" /></svg>