<?xml version="1.0" encoding="UTF-8" standalone="no"?>
<!-- Created with Inkscape (http://www.inkscape.org/) -->

<svg
   xmlns:dc="http://purl.org/dc/elements/1.1/"
   xmlns:cc="http://creativecommons.org/ns#"
   xmlns:rdf="http://www.w3.org/1999/02/22-rdf-syntax-ns#"
   xmlns:svg="http://www.w3.org/2000/svg"
   xmlns="http://www.w3.org/2000/svg"
   xmlns:sodipodi="http://sodipodi.sourceforge.net/DTD/sodipodi-0.dtd"
   xmlns:inkscape="http://www.inkscape.org/namespaces/inkscape"
   version="1.1"
   width="408.54556"
   height="408.832"
   id="svg2"
   xml:space="preserve"
   inkscape:version="0.48.4 r9939"
   sodipodi:docname="red_chariot.svg"><sodipodi:namedview
     pagecolor="#ffffff"
     bordercolor="#666666"
     borderopacity="1"
     objecttolerance="10"
     gridtolerance="10"
     guidetolerance="10"
     inkscape:pageopacity="0"
     inkscape:pageshadow="2"
     inkscape:window-width="1920"
     inkscape:window-height="1024"
     id="namedview9"
     showgrid="false"
     fit-margin-top="0"
     fit-margin-left="0"
     fit-margin-right="0"
     fit-margin-bottom="0"
     inkscape:zoom="0.29849365"
     inkscape:cx="1896.8706"
     inkscape:cy="698.23735"
     inkscape:window-x="0"
     inkscape:window-y="0"
     inkscape:window-maximized="1"
     inkscape:current-layer="svg2" /><metadata
     id="metadata8"><rdf:RDF><cc:Work
         rdf:about=""><dc:format>image/svg+xml</dc:format><dc:type
           rdf:resource="http://purl.org/dc/dcmitype/StillImage" /><dc:title></dc:title></cc:Work></rdf:RDF></metadata><defs
     id="defs6" /><path
     transform="translate(-494.23454,-132.5633)"
     d="m 891.14124,336.97931 a 192.63391,192.63391 0 1 1 -385.26783,0 192.63391,192.63391 0 1 1 385.26783,0 z"
     sodipodi:ry="192.63391"
     sodipodi:rx="192.63391"
     sodipodi:cy="336.97931"
     sodipodi:cx="698.50732"
     id="path3977"
     style="color:#000000;fill:#ffffff;fill-opacity:1;fill-rule:nonzero;stroke:none;stroke-width:0;marker:none;visibility:visible;display:inline;overflow:visible;enable-background:accumulate"
     sodipodi:type="arc" /><path
     id="path3151"
     style="fill:#000000;fill-opacity:1;fill-rule:nonzero;stroke:none"
     d="m 187.52882,188.47745 c -2.5925,0.665 -6.865,1.29 -12.8125,1.875 -8.90625,1.055 -16.09375,1.53375 -21.5625,1.42625 -0.7575,0 -2.11875,-0.1175 -4.0825,-0.35125 -1.9675,-0.24375 -3.47625,-0.37125 -4.53125,-0.37125 0,0.1075 0.28375,2.74375 0.86,7.91 1.05375,9.2975 1.58125,15.625 1.58125,18.985 4.02375,0 8.2625,-0.1425 12.715,-0.43 4.46375,-0.28375 9.52125,-0.7125 15.17625,-1.28875 5.64875,-0.58625 9.8675,-0.9675 12.65625,-1.1525 l 0,-26.6025 z m 71.71875,-9.785 -8.61375,2.735 -9.92125,1.015 -13.37875,2.14875 -18.6925,1.01625 0,27.01125 c 1.64125,-0.18125 4.56125,-0.58625 8.77,-1.21125 4.21875,-0.625 7.48,-1.035 9.785,-1.23 4.8825,-0.66375 8.28125,-0.89875 10.195,-0.70375 1.925,0.18625 5.08875,0.99625 9.4925,2.44125 2.01625,0.86 3.16875,1.1925 3.4575,0.99625 0.0875,-0.0875 0.205,-0.25375 0.35125,-0.4875 0.14125,-0.245 0.25875,-0.5575 0.35125,-0.9375 0.1025,-0.39125 0.20125,-0.63 0.29375,-0.7225 0.96125,-2.68125 1.63,-4.6925 2.01125,-6.03625 1.92375,-6.43 3.89125,-15.10625 5.89875,-26.035 z M 187.52882,149.3762 c -1.445,0 -2.98375,0.1275 -4.61,0.37125 -1.63,0.235 -3.45125,0.5475 -5.46875,0.9375 -2.00625,0.38125 -3.535,0.65875 -4.59,0.84 -12.085,1.64 -22.91875,2.46125 -32.5,2.46125 0,3.25625 0.43,7.83125 1.29,13.73 0.86875,5.88875 1.3525,10.1275 1.445,12.715 3.26625,0 8.2525,-0.57625 14.96125,-1.73875 7.85125,-1.05375 13.98375,-2.01125 18.3975,-2.87125 0.86,-0.0875 2.1975,-0.25375 4.02375,-0.4875 1.82125,-0.24375 3.16375,-0.46875 4.02375,-0.66375 1.82125,-0.37625 2.77875,-0.61125 2.87125,-0.70375 0.1025,-0.1025 0.15625,-0.68375 0.15625,-1.73875 l 0,-22.85125 z m 72.87125,22.4225 c 0,-0.9475 0.38,-3.81875 1.1525,-8.61375 0.195,-1.3375 0.33625,-3.2075 0.42875,-5.605 0.0887,-2.3925 0.18625,-3.975 0.29375,-4.74625 0.2825,-4.41375 -0.0538,-7.24625 -1.01625,-8.49625 -0.57625,-0.86 -1.87,-1.38625 -3.88625,-1.5825 -2.68625,-0.2825 -5.89375,-0.13625 -9.62875,0.45 -5.56125,0.75625 -14.375,1.71375 -26.44625,2.87125 -0.66375,0.0925 -2.53375,0.23375 -5.605,0.42875 -3.06125,0.19625 -5.36125,0.44 -6.895,0.7225 l -0.15625,23.575 c 0.7675,-0.195 1.63125,-0.36125 2.59875,-0.5075 0.96125,-0.1425 2.01625,-0.28375 3.16375,-0.43 1.1425,-0.14125 2.00125,-0.26375 2.5775,-0.37125 5.9475,-1.055 10.9375,-1.67 14.96125,-1.855 4.8825,-0.28375 7.36875,-0.43 7.46125,-0.43 3.16375,0.2875 8.72,1.38625 16.68,3.3 0.4775,0.0937 1.19625,0.30875 2.1475,0.645 0.9625,0.3425 1.685,0.55625 2.16875,0.645 z m -73.165,-75.040002 c 0,-9.18875 -1.58125,-18.86625 -4.745,-29.0225 -0.28875,-0.9625 -0.7425,-2.4275 -1.3675,-4.395 -0.625,-1.9625 -1.08375,-3.4225 -1.3675,-4.375 -0.66375,-2.5 -0.76125,-4.365 -0.2925,-5.605 0.195,-0.39125 0.39,-0.7275 0.585,-1.01625 0.19625,-0.2825 0.455,-0.5275 0.78125,-0.7225 0.3375,-0.195 0.625,-0.33625 0.86,-0.43 0.24375,-0.0875 0.605,-0.16125 1.07375,-0.215 0.47875,-0.0488 0.84,-0.0775 1.075,-0.0775 0.24375,0 0.63,0 1.1525,0 0.53125,0 0.8975,0 1.09375,0 3.54,0.1075 7.705,1.015 12.5,2.73375 0.195,0.1075 0.9375,0.46875 2.22625,1.09375 1.29875,0.61625 2.33375,1.01625 3.105,1.21125 0.28375,0.0925 0.80625,0.19125 1.5625,0.29375 0.7675,0.0925 1.3675,0.19 1.7975,0.2925 0.43875,0.0925 0.99625,0.23375 1.66,0.43 0.67375,0.185 1.23,0.4 1.66,0.64375 0.43,0.235 0.85875,0.5475 1.28875,0.9375 0.43,0.38125 0.78625,0.81125 1.075,1.29 0.39,0.77125 0.39,2.10875 0,4.0225 -0.7725,4.21875 -1.20125,6.5625 -1.29,7.03125 -1.63,6.61625 -2.44125,14 -2.44125,22.14875 1.43125,-0.0875 4.83,-0.615 10.195,-1.5825 2.305,-0.39 4.77125,-0.8 7.4025,-1.23 2.6425,-0.43 5.5475,-0.90375 8.71125,-1.42625 3.16375,-0.53125 5.65,-0.94125 7.46125,-1.23 9.00875,-1.71875 15.625,-2.24625 19.84375,-1.5825 4.595,0.67875 8.67125,1.73375 12.22625,3.165 2.485,1.1475 3.97,2.53875 4.45375,4.17875 0.76625,2.77375 -0.245,4.7375 -3.0275,5.88 -1.055,0.4825 -2.28125,0.868752 -3.6725,1.151252 -1.38125,0.28875 -2.95875,0.5575 -4.72625,0.80125 -1.7725,0.235 -3.0425,0.4 -3.80875,0.48875 -16.7725,2.88 -29.6625,4.84375 -38.67125,5.8975 -9.01375,1.1625 -14.57125,1.7875 -16.68,1.875 l -0.1375,26.30875 c 9.01,-1.15625 20.41125,-3.6025 34.2,-7.34375 6.3275,-1.71875 11.07375,-2.8175 14.2375,-3.3 3.4475,-0.665 5.80125,-0.90375 7.05125,-0.7225 0.86,0.1075 2.725,0.77625 5.605,2.01125 2.68125,1.1625 6.6075,3.08125 11.7775,5.76125 0.87,0.48375 2.31,1.1525 4.31625,2.0125 2.0175,0.85875 3.77,1.69875 5.255,2.51875 1.48375,0.81125 2.85125,1.64125 4.10125,2.5 2.485,1.73375 3.91625,3.555 4.29625,5.46875 0.1025,0.67875 0.03,1.3575 -0.215,2.03125 -0.23375,0.665 -0.4975,1.1675 -0.78125,1.50375 -0.2875,0.3275 -0.795,0.83125 -1.5225,1.505 -0.71875,0.66375 -1.1675,1.1425 -1.3475,1.425 -1.53875,1.82625 -2.735,3.745 -3.59375,5.7625 -0.875,1.82625 -2.315,6.23 -4.3175,13.2225 -0.575,1.91375 -1.225,3.97875 -1.9525,6.19125 -0.7175,2.2025 -1.53375,4.6675 -2.44125,7.4025 -0.91375,2.72375 -1.60125,4.80375 -2.07,6.25 -2.3975,7.1875 -5.035,15.33125 -7.91125,24.43375 -0.10625,0.38 -0.42375,1.40625 -0.95625,3.085 -0.5225,1.68 -0.9275,2.90625 -1.21125,3.6725 -0.2875,0.77125 -0.77125,1.70875 -1.445,2.8125 -0.66375,1.09375 -1.3825,2.02625 -2.14875,2.7925 -1.91375,1.71875 -4.23875,2.92 -6.9725,3.59375 -2.725,0.66375 -5.19,0.3275 -7.4025,-1.015 -1.1475,-0.86 -2.10375,-1.95875 -2.87125,-3.30125 -0.0925,-0.0875 -0.21,-0.3025 -0.35125,-0.645 -0.14625,-0.33625 -0.28875,-0.595 -0.43,-0.78125 -0.14625,-0.195 -0.36125,-0.2925 -0.64375,-0.2925 -0.58625,-0.1025 -3.60875,-0.01 -9.0625,0.27375 -1.34375,0 -3.2375,0 -5.68375,0 -2.43625,0 -4.66375,0.0288 -6.68,0.0775 -2.02125,0.0538 -3.935,0.17125 -5.7425,0.3525 -1.92875,0.195 -5.19,0.39 -9.785,0.585 -2.10875,0 -3.26125,0.1475 -3.4575,0.43 -0.0925,0.195 -0.13625,0.82 -0.13625,1.875 l 0,22.12875 c 0.195,0 4.41375,-0.2825 12.65625,-0.85875 2.485,-0.19625 10.2925,-0.5325 23.4175,-1.01625 20.61125,-0.85875 34.5125,-1.62125 41.7,-2.285 3.54,-0.2975 8.6175,-1.02 15.23375,-2.1675 6.61125,-1.1425 10.68875,-1.81625 12.2275,-2.0125 7.1875,-1.1425 10.825,-1.71875 10.9175,-1.71875 1.43,0 4.11125,0.81625 8.04625,2.44125 7.38375,2.68625 12.98875,5.36625 16.8175,8.0475 3.8375,2.685 5.7075,5.1275 5.605,7.32375 -0.0925,1.53875 -0.835,2.69125 -2.22625,3.4575 -1.39625,0.77125 -2.99875,1.20125 -4.805,1.28875 -7.86625,0.39125 -13.71125,0.58625 -17.53875,0.58625 -4.5075,0 -7.1875,-0.0488 -8.0475,-0.15625 -11.40625,-1.43125 -26.93375,-1.71875 -46.58125,-0.86 -16.10875,0.67875 -30.625,1.44625 -43.555,2.305 -14.4825,1.055 -22.43625,1.5825 -23.8675,1.5825 -0.195,2.10875 -0.24875,5.15625 -0.15625,9.14 0.1025,3.975 0.1075,7.0125 0.02,9.12125 -0.1075,1.24 -0.23,4.01875 -0.37125,8.34 -0.14625,4.31125 -0.26375,7.305 -0.35125,8.985 -0.0937,1.67 -0.235,4.37 -0.43,8.105 -0.195,3.74 -0.42,6.7575 -0.66375,9.0625 -0.235,2.305 -0.5675,5.015 -0.99625,8.125 -0.43,3.115 -0.88875,6.01125 -1.3675,8.69125 -1.63125,7.8662 -3.39875,13.325 -5.3125,16.3862 -1.73375,2.8763 -3.27125,4.3175 -4.61,4.3175 -0.2875,0 -0.64375,-0.1962 -1.07375,-0.5862 -0.43,-0.3813 -0.77125,-0.7125 -1.015,-0.9963 -0.235,-0.2875 -0.5225,-0.7175 -0.86,-1.2887 -0.3275,-0.5763 -0.5425,-0.9138 -0.645,-1.0163 -0.75625,-1.1475 -1.3275,-3.3 -1.71875,-6.465 -0.66375,-5.165 -0.995,-8.51995 -0.995,-10.0587 0,-0.85875 -0.0738,-2.19625 -0.215,-4.0225 -0.14625,-1.82125 -0.215,-3.21375 -0.215,-4.18 l 0,-60.07875 c -2.2175,0 -10.41,0.7725 -24.59,2.305 -16.00625,1.52375 -31.245,3.72625 -45.7225,6.60125 -2.77375,0.57625 -6.655,1.46 -11.64125,2.65625 -4.975,1.20125 -9.526246,2.2075 -13.652496,3.0275 -4.115,0.82125 -8.04125,1.42125 -11.77625,1.7975 -2.11,0.195 -4.8925,-0.615 -8.34,-2.44125 -4.61,-2.1975 -9.31125,-5.16625 -14.1025,-8.90625 -0.95125,-0.67375 -2.3825,-1.7825 -4.29625,-3.32125 -1.055,-0.85875 -1.63625,-1.62 -1.73875,-2.285 -0.0925,-0.67375 0.0787,-1.255 0.50875,-1.7375 0.42875,-0.47875 1.0975,-0.84 2.01125,-1.075 0.90875,-0.23375 1.60625,-0.375 2.09,-0.42875 0.47875,-0.0488 1.1525,-0.1225 2.01125,-0.215 1.1425,0 2.8425,0 5.0975,0 2.25125,0 3.95,-0.0488 5.0975,-0.15625 1.64125,-0.0888 4.0875,-0.25375 7.34375,-0.48875 3.2525,-0.24375 5.69375,-0.415 7.325,-0.5075 4.02375,-0.195 8.2125,-0.5525 12.5775,-1.075 4.361246,-0.53125 9.482496,-1.23 15.371246,-2.08875 5.89875,-0.86 10.04375,-1.43125 12.44125,-1.71875 5.46875,-0.67375 13.42375,-1.41625 23.8675,-2.2275 10.44,-0.82 16.52875,-1.3275 18.26125,-1.5225 1.43125,-0.0888 3.70125,-0.3525 6.8175,-0.78125 3.125,-0.43 5.88375,-0.7425 8.28125,-0.9375 2.3925,-0.19625 4.6475,-0.29375 6.7575,-0.29375 l 0,-24.29625 c -1.73375,0 -4.25375,0.17 -7.55875,0.5075 -3.31,0.34125 -5.2925,0.5075 -5.9575,0.5075 -1.05375,0.0925 -2.5675,0.19125 -4.53125,0.29375 -1.9675,0.0925 -3.745,0.19 -5.33125,0.2925 -1.5775,0.0925 -3.08125,0.185 -4.5125,0.27375 -0.87375,0.1075 -2.1775,0.205 -3.90625,0.2925 -1.71875,0.0925 -3.0075,0.19 -3.86625,0.2925 -2.88125,0.18625 -4.74625,0.18625 -5.60625,0 -0.2875,2.0075 -1.20125,3.41875 -2.73375,4.23875 -1.52375,0.81125 -3.19875,0.7375 -5.02,-0.215 -3.07625,-1.72875 -5.38125,-4.75125 -6.91375,-9.0625 -0.38125,-0.96125 -0.66375,-2.7825 -0.86,-5.46875 -0.38,-2.5775 -0.85375,-5.97625 -1.425,-10.195 -0.39125,-2.5 -0.89875,-6.07375 -1.52375,-10.7225 -0.615,-4.64875 -1.21125,-8.8375 -1.7975,-12.57875 -0.575,-3.735 -1.19125,-7.275 -1.855,-10.625 -1.055,-5.94625 -2.01125,-10.165 -2.87125,-12.65625 -1.16125,-3.54 -3.51,-7.42125 -7.05,-11.64 -0.19625,-0.28375 -0.70375,-0.7125 -1.52375,-1.28875 -0.81125,-0.57125 -1.3575,-1.09875 -1.64125,-1.5825 -0.77125,-1.25 -0.58125,-2.685 0.56625,-4.31625 0.87,-1.25 2.74,-1.7775 5.60625,-1.5825 2.3925,0.195 4.64875,0.625 6.7575,1.28875 0.39125,0.1075 0.98625,0.3475 1.7975,0.72375 0.82,0.38 1.46875,0.62 1.9525,0.7225 0.28375,0.0925 0.78625,0.0925 1.50375,0 0.71375,-0.1025 1.1725,-0.15625 1.3675,-0.15625 10.35125,-0.18125 24.2425,-1.3775 41.68,-3.59375 8.24125,-1.1425 13.325,-1.81625 15.25375,-2.0125 l 0,-27.5975 c -1.82625,0 -4.39,0.17125 -7.695,0.5075 -3.31125,0.3425 -5.445,0.5575 -6.40625,0.645 -9.96125,0.57625 -17.24125,0.9575 -21.83625,1.1525 -7.1,0.39 -12.4175,0.39 -15.9575,0 -0.58625,-0.0875 -1.59625,-0.18125 -3.0275,-0.27375 -1.435,-0.1025 -2.675,-0.24375 -3.73,-0.43 -1.055,-0.195 -2.02125,-0.4875 -2.89125,-0.87875 -0.46875,-0.195 -1.57125,-1.05375 -3.3,-2.5775 -1.71875,-1.72875 -2.535,-3.125 -2.44125,-4.18 0.0875,-0.9475 1.3325,-1.5675 3.73,-1.855 1.53375,-0.29875 3.6425,-0.46875 6.32875,-0.50875 2.68,-0.0488 4.55,-0.12125 5.605,-0.21375 1.72875,-0.19625 4.18,-0.41125 7.34375,-0.645 3.16375,-0.24375 6.06,-0.48875 8.69125,-0.7225 2.6275,-0.24375 5.0975,-0.5125 7.4025,-0.80125 2.1975,-0.2825 5.47875,-0.7325 9.84375,-1.347502 4.36,-0.625 7.64125,-1.08375 9.84375,-1.38625 0.57125,-0.0888 1.43,-0.225 2.5775,-0.41 1.1575,-0.19625 2.1925,-0.36125 3.10625,-0.50875 0.9075,-0.14125 1.7475,-0.26375 2.51875,-0.37125 z m 10.78125,-80.4875 c -1.445,0.185 -3.55375,0.3275 -6.3275,0.43 -2.77375,0.0925 -4.74125,0.185 -5.89875,0.2725 -8.14,0.7725 -15.5175,1.875 -22.12875,3.32125 -28.37375,6.03 -54.155,18.68125 -77.343746,37.94875 -25.67875,21.3675 -44.4625,46.093752 -56.3475,74.180002 -9.10125,21.85 -13.75,45.0675 -13.945,69.6475 -0.19625,24.57125 4.0675,47.8325 12.7925,69.78625 8.72125,22.045 22.13875,42.5975 40.25375,61.66 18.39875,19.16495 38.281246,33.68125 59.648746,43.55375 29.22875,13.4238 61.81625,18.17 97.75375,14.2388 19.73625,-2.1088 38.6375,-7.7151 56.69875,-16.8163 18.0725,-9.1012 34.67875,-20.8938 49.825,-35.37125 16.28875,-15.5175 29.32125,-32.5775 39.10125,-51.17125 14.85375,-27.89125 21.61125,-57.6475 20.27375,-89.2775 -1.1625,-24.62 -5.62,-46.275 -13.37875,-64.96125 -9.20875,-21.84625 -23.0575,-42.021252 -41.54375,-60.527502 -25.585,-25.58625 -54.2375,-42.54375 -85.95625,-50.87875 -12.085,-3.2525 -24.73625,-5.17625 -37.95,-5.76125 -8.06125,-0.46875 -13.23625,-0.5575 -15.5275,-0.27375 z M 197.58757,0.1574482 c 2.485,-0.2825 7.94875,-0.185 16.38625,0.29375 13.51625,0.57625 26.9775,2.53875 40.39125,5.8975 34.79,8.6237498 66.17625,26.9237498 94.16,54.9024998 18.97,18.985 33.535,39.833752 43.69125,62.538752 10.25875,22.99875 15.67375,47.96 16.25,74.88375 0.76625,28.56875 -4.02375,55.3075 -14.375,80.215 -13.99875,33.74 -35.7575,62.3437 -65.27375,85.82 -29.50625,23.4762 -62.13875,37.5637 -97.89,42.265 -34.4925,4.415 -66.885,0.9625 -97.16875,-10.3513 -26.64,-10.1562 -50.839996,-26.1137 -72.597496,-47.8712 -22.04625,-22.03125 -38.2425,-46.5625 -48.59375,-73.59375 -7.0850002,-18.97 -11.2062502,-40.67375 -12.36375017,-65.1175 -1.43500003,-32.485 4.70749997,-63.2025 18.41875017,-92.1475 8.4225,-18.111252 20.83,-35.742502 37.22625,-52.891252 25.78125,-27.03125 54.101246,-45.5275 84.961246,-55.4874998 12.54875,-3.93125 25.24375,-6.61125 38.08625,-8.0475 2.68,-0.2975 6.70375,-0.635 12.07,-1.015 0.47875,0 1.48375,-0.02 3.0075,-0.0588 1.53375,-0.0488 2.73875,-0.1275 3.61375,-0.235 z"
     inkscape:connector-curvature="0" /></svg>