<?xml version="1.0" encoding="UTF-8" standalone="no"?>
<!-- Created with Inkscape (http://www.inkscape.org/) -->

<svg
   xmlns:dc="http://purl.org/dc/elements/1.1/"
   xmlns:cc="http://creativecommons.org/ns#"
   xmlns:rdf="http://www.w3.org/1999/02/22-rdf-syntax-ns#"
   xmlns:svg="http://www.w3.org/2000/svg"
   xmlns="http://www.w3.org/2000/svg"
   xmlns:sodipodi="http://sodipodi.sourceforge.net/DTD/sodipodi-0.dtd"
   xmlns:inkscape="http://www.inkscape.org/namespaces/inkscape"
   version="1.1"
   width="408.28397"
   height="408.50217"
   id="svg2"
   xml:space="preserve"
   inkscape:version="0.48.4 r9939"
   sodipodi:docname="black_king.svg"><sodipodi:namedview
     pagecolor="#ffffff"
     bordercolor="#666666"
     borderopacity="1"
     objecttolerance="10"
     gridtolerance="10"
     guidetolerance="10"
     inkscape:pageopacity="0"
     inkscape:pageshadow="2"
     inkscape:window-width="1920"
     inkscape:window-height="1024"
     id="namedview9"
     showgrid="false"
     inkscape:zoom="0.84426751"
     inkscape:cx="280.01114"
     inkscape:cy="186.56017"
     inkscape:window-x="0"
     inkscape:window-y="0"
     inkscape:window-maximized="1"
     inkscape:current-layer="svg2"
     fit-margin-top="0"
     fit-margin-left="0"
     fit-margin-right="0"
     fit-margin-bottom="0" /><metadata
     id="metadata8"><rdf:RDF><cc:Work
         rdf:about=""><dc:format>image/svg+xml</dc:format><dc:type
           rdf:resource="http://purl.org/dc/dcmitype/StillImage" /><dc:title /></cc:Work></rdf:RDF></metadata><defs
     id="defs6" /><path
     sodipodi:type="arc"
     style="color:#000000;fill:#ffffff;fill-opacity:1;fill-rule:nonzero;stroke:none;stroke-width:1;marker:none;visibility:visible;display:inline;overflow:visible;enable-background:accumulate"
     id="path2982"
     sodipodi:cx="197.80461"
     sodipodi:cy="196.95726"
     sodipodi:rx="197.80461"
     sodipodi:ry="197.80461"
     d="m 395.60922,196.95726 a 197.80461,197.80461 0 1 1 -395.60922,0 197.80461,197.80461 0 1 1 395.60922,0 z"
     transform="translate(6.3373718,7.2938232)" /><path
     id="path3009"
     style="fill:#000000;fill-opacity:1;fill-rule:nonzero;stroke:none"
     d="m 247.99146,179.08257 c 0.8688,-0.195 1.64,0.19 2.3038,1.1525 3.0712,4.795 5.4687,7.1875 7.1875,7.1875 l 0.43,0 0,12.07 -5.3125,0 c -8.4375,0 -15.5813,0.0488 -21.425,0.1375 l -16.0938,0 0,-7.03125 9.4913,0 4.8837,-2.16875 c 2.9688,-1.3375 7.4213,-3.4475 13.3588,-6.3275 l 3.0275,-1.42625 0,-0.7225 c 0.195,-1.43125 0.9087,-2.3875 2.1487,-2.87125 z m -13.9262,-68.4175 -0.2925,-0.7225 42.4025,0 0,10.35125 -1.29,1.58125 c -1.9138,2.3975 -3.925,4.3125 -6.035,5.7425 -0.7713,0.57625 -1.7338,1.1475 -2.89,1.71875 l -1.5825,0.7225 -3.3013,0.1375 -3.1637,0 0,1.7375 c -0.2875,3.4525 -1.1038,6.94875 -2.4413,10.48875 l -0.5662,1.875 -2.1675,2.01125 c -2.11,2.11 -3.8826,3.4525 -5.3125,4.02375 -0.86,0.38125 -1.3438,0.47875 -1.4463,0.2925 0,-0.1025 0,-0.585 0,-1.445 l 0,-1.875 2.8913,-3.3 3.0075,-3.4575 0,-17.24625 -0.8588,0 c -2.4912,0 -4.9812,-0.38125 -7.4812,-1.1525 -1.7188,-0.46875 -3.0075,-1.1375 -3.8675,-2.01125 -0.6788,-0.66375 -1.6688,-2.095 -2.9688,-4.2975 -1.2887,-2.21125 -2.1675,-3.935 -2.6362,-5.175 z m 20.2537,-37.383754 -3.8675,-5.3125 -16.835,0 -0.1375,1.13375 c -0.7713,5.0925 -7.045,17.3625 -18.8275,36.816254 l -2.4412,4.02375 -2.305,1.28875 c -5.4588,3.16375 -9.58,4.8925 -12.3638,5.175 l -0.8587,0 0,7.05125 -2.8713,7.03125 c -0.5762,1.25 -1.1037,2.45625 -1.5825,3.61375 -0.4825,1.1475 -0.8487,2.03125 -1.0937,2.65625 -0.2338,0.615 -0.3026,0.9175 -0.195,0.9175 0.1812,0.195 4.4925,-1.52875 12.93,-5.17625 l 5.175,-2.1475 12.3637,0 2.0113,2.01125 c 2.4862,2.305 4.4974,3.88625 6.0362,4.74625 l 1.015,0.56625 3.3013,6.895 c 2.29,4.8975 3.8712,7.92 4.7462,9.0625 0.4688,0.4825 0.7025,0.795 0.7025,0.9375 0,0.14625 -0.2337,0.45875 -0.7025,0.9375 -1.6312,1.435 -3.0225,3.87625 -4.18,7.32375 l -0.5662,1.73875 -0.1563,3.73 0,3.73 -6.035,0 -5.88,-0.13625 c 0,-0.0875 2.0125,-3.0125 6.0363,-8.77 l 6.035,-8.47625 0,-3.75 -18.3988,0 c -6.8112,0.1075 -15.0537,0.15625 -24.7262,0.15625 l -6.1913,0 0,21.1325 0.7225,0 c 3.6425,0 7.0938,0.81625 10.3513,2.4425 0.7662,0.38 1.1962,0.81 1.2887,1.28875 0.195,1.1475 0.5525,1.9875 1.075,2.51875 0.5313,0.5225 1.1813,0.69375 1.9525,0.50875 1.055,-0.19625 2.0563,-1.1575 3.0075,-2.89125 0.5863,-0.9475 1.1138,-2.14875 1.5825,-3.59375 0.1025,-0.18 1.88,-0.27375 5.3325,-0.27375 l 5.175,0 0,13.36 -1.1525,0.13625 c -2.685,0.67875 -7.045,2.35875 -13.085,5.04 l -3.5937,1.58125 -3.165,0.1375 c -2.1088,0 -3.1638,0.0538 -3.1638,0.15625 0.1025,0.2875 0.2438,0.67375 0.43,1.15125 0.6738,1.71875 1.9238,3.92125 3.75,6.6025 l 1.7188,2.5975 0,3.4375 -3.0275,0 c -4.795,0 -8.8626,-0.0438 -12.2075,-0.1375 l -9.0625,0 0,-113.847504 3.165,-1.58125 3.1637,-1.44625 0,-3.73 -1.445,-1.71875 c -0.2888,-0.2975 -0.675,-0.7075 -1.1525,-1.23 -0.4687,-0.5175 -1.07,-1.19125 -1.7975,-2.0125 -0.7175,-0.82 -1.3175,-1.465 -1.7962,-1.93375 l -3.3013,-3.59375 -21.5625,0 0,6.895 6.3288,13.51625 0,55.331254 -30.625,0 0,-13.2225 1.3075,-2.14875 c 2.4862,-4.69625 3.9162,-7.52375 4.2975,-8.47625 l 0.7225,-1.73875 0,-5.175 -6.6013,-8.18375 c -2.8812,-3.4475 -6.24,-7.525 -10.0787,-12.226254 l -3.3,-4.16 -10.644997,0 0,6.757504 3.027497,7.03125 2.8712,6.91375 0,11.055 -1.4262,6.035 c -1.5375,6.90375 -2.7875,12.08 -3.749997,15.5275 l -0.7225,2.305 0,23.86625 4.609997,5.3125 4.6087,5.17625 1.5625,0.13625 1.7388,0 5.7412,-5.175 5.8988,-5.3125 11.7775,-3.30125 c 1.8212,-0.47875 3.7887,-1.00625 5.8987,-1.5825 2.1088,-0.57125 3.6913,-1 4.7463,-1.28875 1.0537,-0.2825 1.625,-0.43 1.7187,-0.43 l 0.1563,-0.15625 c 0.195,-0.0875 0.3362,-0.205 0.4287,-0.35125 0.089,-0.14125 0.1863,-0.26375 0.2938,-0.37125 1.055,-1.3375 2.68,-2.1525 4.8825,-2.44125 l 0.86,0 0,34.21875 -8.9063,0 -9.3562,3.30125 -9.3363,3.45625 -39.531197,0 0,10.78125 2.5787,2.87125 c 6.3275,6.9925 9.8725,10.78125 10.644997,11.3675 3.3588,2.0075 6.9038,3.0075 10.6438,3.0075 0.3762,0 0.5662,0.0537 0.5662,0.15625 0,0.0937 -0.815,2.1975 -2.4412,6.30875 -5.2738,13.51625 -9.393797,20.56125 -12.362497,21.1325 -0.2888,0.1075 -0.4788,0.30375 -0.5675,0.58625 -0.3026,0.57625 -1.455,4.0725 -3.4563,10.48875 -1.4362,5.27375 -2.3437,8.2425 -2.735,8.90625 -0.093,0.39 -3.6863,4.6575 -10.7812,12.7925 l -10.6438,12.09 0,3.4375 15.39,0 2.735,-1.71875 c 15.999997,-10.635 28.983797,-25.395 38.944997,-44.2775 l 1.1525,-2.14875 2.4413,-8.6325 c 0.2837,-1.25 1.8212,-6.47 4.6087,-15.66375 l 2.0125,-7.1875 0,-10.215 18.3988,0 0,4.31625 c -0.3813,16.5775 -1.6213,29.8975 -3.7313,39.96125 -1.3425,6.1325 -2.1575,11.06875 -2.4412,14.805 -0.1075,0.67875 -0.1563,6.67 -0.1563,17.96875 l 0,16.38625 4.7463,5.17625 4.8825,5.175 1.3087,0.1375 c 1.04,0 1.855,-0.1425 2.4413,-0.43 2.1975,-0.7525 4.6387,-2.56875 7.325,-5.44875 l 0.7225,-1.01625 3.3,0 0,-97.03125 24.2975,0 0,1.875 c 0,4.99 0.2825,9.97125 0.8587,14.94125 0.9625,11.03 1.7775,16.875 2.4413,17.53875 l 8.4775,10.645 8.34,10.48875 16.9725,0 0,-34.9225 -9.3563,0 -2.8712,-0.58625 c -6.7088,-1.3375 -12.5,-3.15375 -17.3825,-5.44875 l -1.445,-0.7225 0,-13.80875 55.3512,0 0,82.8125 -3.1637,0 -3.1638,-3.32 -3.0275,-3.4375 -10.7812,0 c -7.085,0 -10.625,0.0925 -10.625,0.27375 0.088,0.1075 1.1912,2.3575 3.3,6.7575 l 3.0087,6.62125 0,7.32375 0.4488,0 c 0.7525,0 1.47,0.0537 2.1487,0.15625 3.2513,0.28875 6.035,1.05 8.34,2.285 l 1.425,0.7225 6.7588,7.91 c 3.8375,4.6 6.3325,7.47625 7.48,8.63375 l 0.7225,0.7025 0.7225,-0.56625 c 7.9537,-6.235 14.2287,-15.77125 18.8287,-28.61375 0.6638,-1.71875 1.0938,-3.0075 1.2888,-3.86625 l 0.43,-1.30875 0,-18.2425 c -0.094,-12.275 -0.235,-19.13125 -0.43,-20.56625 -0.3813,-2.96875 -1.0063,-5.98625 -1.875,-9.0625 -0.7713,-2.11 -1.6313,-7.715 -2.5788,-16.81625 -0.6787,-5.845 -1.015,-11.88 -1.015,-18.10625 0,-0.195 9.1988,-0.2925 27.5975,-0.2925 l 27.4613,0 0,-3.4375 3.1637,-3.59375 3.1638,-3.75 0,-10.05875 -1.1525,-0.13625 c -3.935,-0.67375 -11.5038,-2.5975 -22.7138,-5.7625 l -4.0237,-1.15125 -9.6288,0 -1.5825,0.42875 c -3.74,1.055 -8.6275,2.97875 -14.6675,5.7625 l -1.8562,0.85875 -5.7613,0 0,-3.59375 3.0275,-3.45625 2.8713,-3.30125 0,-17.11 -18.2625,0 0,-3.4375 4.7462,-4.90125 c 7.5788,-8.0475 13.4763,-14.61 17.695,-19.6875 9.4775,-11.29875 17.7638,-22.8525 24.8638,-34.64875 l 1.875,-3.0075 0,-10.645004 -0.8788,0 c -2.3975,0 -4.7412,-0.38125 -7.0312,-1.1525 -1.8263,-0.57125 -3.98,-1.67 -6.465,-3.30125 -2.7875,-2.01625 -5.4788,-4.84375 -8.0663,-8.47625 l -0.43,-0.7225 -4.0237,0 -11.0738,6.7575 -11.2112,6.895 -12.07,0 0,-3.16375 3.1637,-3.59375 3.0275,-3.59375 0,-6.895 -3.75,-5.17625 z M 196.25276,0.11756612 c 4.985,-0.195 11.5037,-0.14625 19.5512,0.1375 17.8225,1.14749998 34.9262,4.35499998 51.3088,9.62874998 24.8287,8.2412499 47.7337,21.4199999 68.71,39.5312499 9.8687,8.53 18.78,17.5875 26.7387,27.1675 30.4788,36.513754 45.7225,78.780004 45.7225,126.797504 0,48.86625 -16.1037,92.42125 -48.3012,130.66375 -8.2413,9.6725 -17.2013,18.6325 -26.875,26.875 -33.5438,27.7975 -70.9175,43.4225 -112.1288,46.875 -5.0775,0.37625 -10.1562,0.61 -15.2337,0.7025 -14.9613,0.1025 -28.96,-1.1425 -41.9925,-3.73 -37.8513,-7.3825 -71.679997,-25.68375 -101.483797,-54.9025 -37.085,-36.61125 -57.6374998,-79.30625 -61.66119975,-128.08625 -0.4825,-5.84375 -0.6788,-12.03125 -0.585,-18.55375 0,-9.2975 0.38,-17.34375 1.15249995,-24.14125 3.4462,-31.055 13.6561998,-59.375 30.6249998,-84.961254 8.2412,-12.1725 18.6812,-24.4375 31.3275,-36.79625 2.695,-2.5875 5.6687,-5.37125 8.9262,-8.34 29.227497,-25.9625 62.674997,-41.5824999 100.331297,-46.8549999 7.0949,-1.055 15.0487,-1.72374998 23.8675,-2.01249998 z"
     inkscape:connector-curvature="0" /></svg>