<?xml version="1.0" encoding="UTF-8" standalone="no"?>
<!-- Created with Inkscape (http://www.inkscape.org/) -->

<svg
   xmlns:dc="http://purl.org/dc/elements/1.1/"
   xmlns:cc="http://creativecommons.org/ns#"
   xmlns:rdf="http://www.w3.org/1999/02/22-rdf-syntax-ns#"
   xmlns:svg="http://www.w3.org/2000/svg"
   xmlns="http://www.w3.org/2000/svg"
   xmlns:sodipodi="http://sodipodi.sourceforge.net/DTD/sodipodi-0.dtd"
   xmlns:inkscape="http://www.inkscape.org/namespaces/inkscape"
   version="1.1"
   width="406.5675"
   height="406.68103"
   id="svg2"
   xml:space="preserve"
   inkscape:version="0.48.4 r9939"
   sodipodi:docname="black_cannon.svg"><sodipodi:namedview
     pagecolor="#ffffff"
     bordercolor="#666666"
     borderopacity="1"
     objecttolerance="10"
     gridtolerance="10"
     guidetolerance="10"
     inkscape:pageopacity="0"
     inkscape:pageshadow="2"
     inkscape:window-width="1920"
     inkscape:window-height="1024"
     id="namedview9"
     showgrid="false"
     inkscape:zoom="0.59698728"
     inkscape:cx="91.463526"
     inkscape:cy="176.80016"
     inkscape:window-x="0"
     inkscape:window-y="0"
     inkscape:window-maximized="1"
     inkscape:current-layer="svg2"
     fit-margin-top="0"
     fit-margin-left="0"
     fit-margin-right="0"
     fit-margin-bottom="0" /><metadata
     id="metadata8"><rdf:RDF><cc:Work
         rdf:about=""><dc:format>image/svg+xml</dc:format><dc:type
           rdf:resource="http://purl.org/dc/dcmitype/StillImage" /><dc:title /></cc:Work></rdf:RDF></metadata><defs
     id="defs6" /><path
     sodipodi:type="arc"
     style="color:#000000;fill:#ffffff;fill-opacity:1;fill-rule:nonzero;stroke:none;stroke-width:1;marker:none;visibility:visible;display:inline;overflow:visible;enable-background:accumulate"
     id="path2982"
     sodipodi:cx="197.80461"
     sodipodi:cy="196.95726"
     sodipodi:rx="197.80461"
     sodipodi:ry="197.80461"
     d="m 395.60922,196.95726 a 197.80461,197.80461 0 1 1 -395.60922,0 197.80461,197.80461 0 1 1 395.60922,0 z"
     transform="translate(5.4791412,6.383255)" /><path
     id="path2999"
     style="fill:#000000;fill-opacity:1;fill-rule:nonzero;stroke:none"
     d="m 205.1362,202.26727 6.0363,-3.30125 c 0.088,0 0.1362,5.46375 0.1362,16.38625 l 0,16.3875 -1.5825,0.43 c -2.0062,0.4825 -5.9862,1.92375 -11.9337,4.31625 l -4.2963,1.71875 -5.8987,0 0,-0.58625 c 0,-1.62625 0.6687,-3.2525 2.0125,-4.8825 l 0.7225,-0.86 0.1362,-1.58125 c 0.7663,-7.095 3.2613,-14.47375 7.48,-22.13 l 1.29,-2.5975 5.8975,-3.3 z m -118.75,-37.95 -4.2962,-4.74625 -9.1988,0 0,19.6875 0.4288,1.73875 c 1.2362,5.26375 3.2475,10.24375 6.035,14.94125 4.2187,6.70875 9.63,11.83625 16.2312,15.39125 l 1.445,0.7025 1.445,0 1.4263,-0.13625 4.4525,-4.74625 4.61,-4.74625 0,-20.1175 -0.5663,-0.85875 c -1.9287,-3.16375 -6.9137,-6.80625 -14.9612,-10.9375 l -2.7338,-1.42625 -4.3175,-4.74625 z m 53.0475,-88.261253 0,-1.875 -30.605,0 0,6.465 6.035,13.2225 6.035,13.086253 0,83.67125 -0.86,3.59375 c -4.3262,17.6325 -6.9137,29.5125 -7.7725,35.645 l -0.2737,2.01125 -3.0275,6.62125 -2.8713,6.60125 -6.1912,19.55125 c -4.0238,13.125 -6.1813,19.83375 -6.465,20.1175 -1.055,1.82625 -3.1638,3.55 -6.3275,5.175 l -2.1488,1.01625 -6.1912,0 0,1.58125 c -0.2888,3.0625 -1.05,6.27 -2.285,9.63 l -0.7238,1.875 -4.6087,5.01875 -4.59,5.03875 0,4.88375 c 0,3.16375 0.044,4.74625 0.1362,4.74625 4.595,-2.48625 9.6738,-5.215 15.235,-8.18375 l 15.0975,-8.20375 0.7225,-1.015 c 1.055,-2.095 2.0563,-3.965 3.0075,-5.60625 11.0263,-20.5075 19.3663,-33.58375 25.02,-39.2375 2.305,-2.29 3.9313,-3.29125 4.8825,-3.00875 1.3388,0.28875 3.2625,2.49125 5.7625,6.6025 2.68,4.21875 5.6925,9.92125 9.0425,17.10875 l 1.0163,2.0125 16.9525,0 0,-30.89875 c -0.093,0 -0.3275,0.0925 -0.7025,0.27375 -1.5388,1.25 -2.8813,0.96625 -4.0238,-0.86 -1.055,-1.71875 -1.5825,-3.105 -1.5825,-4.16 0,-0.195 -1.1525,-0.5325 -3.4562,-1.01625 -5.85,-1.3375 -11.7925,-2.1525 -17.8325,-2.44125 l -2.8713,0 0,-0.42875 c 0,-0.86 0.044,-1.62625 0.1363,-2.305 0.2987,-4.11125 1.1625,-9.14625 2.5987,-15.0975 0.375,-1.915 1,-6.08 1.875,-12.5 2.8613,-22.13375 4.2963,-33.30125 4.2963,-33.49625 0.1025,-1.3375 0.3962,-2.44125 0.8787,-3.30125 2.1975,-3.8275 5.1225,-6.79625 8.77,-8.90625 3.345,-1.92375 6.9388,-2.89 10.7813,-2.89 l 1.1325,0 0,-13.2225 17.695,0 0,-16.52375 -3.0275,-3.16375 -3.0075,-3.165 -8.925,-4.8825 c -1.3438,-0.76625 -2.8088,-1.5825 -4.395,-2.44125 -1.5775,-0.86 -2.7488,-1.52875 -3.5163,-2.01125 l -1.1325,-0.58625 c -0.1075,0 -2.1675,5.46375 -6.1912,16.38625 l -5.8988,16.3875 0,6.62 -5.605,0 0,-52.61625 0.7225,-0.99625 c 0.86,-1.1575 2.1975,-3.125 4.0238,-5.89875 l 1.015,-1.718753 0,-3.16375 c 0,-2.5875 -0.2438,-4.365 -0.7225,-5.3325 -0.39,-0.76625 -1.0638,-1.5275 -2.0113,-2.285 -0.2887,-0.195 -0.625,-0.77125 -1.0162,-1.73875 -0.9513,-2.68 -1.6213,-5.9375 -2.0113,-9.765 z m 95.1763,-0.43 -6.6213,-8.2025 -16.68,0 0,33.202503 -2.0112,3.4575 c -14.5613,23.8675 -26.5388,50.03375 -35.9375,78.49625 l -0.9963,3.4375 -0.7225,0.2925 c -0.86,0.48375 -1.6312,1.3425 -2.305,2.57875 -0.093,0.2875 -0.19,1.7275 -0.2937,4.31625 l 0,3.75 0.7237,1.28875 c 0.9613,1.5375 2.3038,3.50625 4.0225,5.89875 l 1.1525,1.425 0,60.665 -0.43,1.15125 c -0.7712,2.88125 -2.255,6.28 -4.4525,10.19625 l -1.0162,1.58125 0,5.04 0.7237,2.01125 c 3.1638,10.35125 4.8875,17.96875 5.175,22.85125 l 0,1.5825 12.52,0 0,13.08625 5.7425,0 2.87,1.15125 c 14.7663,5.9375 25.4013,8.90625 31.915,8.90625 1.1425,0 2.3875,0.19625 3.73,0.58625 3.0713,0.86 5.61,1.43625 7.6175,1.71875 2.695,0.48375 7.485,0.77125 14.375,0.86 l 9.4925,0 3.4563,-0.43 c 10.1562,-1.62625 19.2087,-3.30625 27.1687,-5.03875 0.4775,-0.0888 1.4638,-0.27875 2.9488,-0.56625 1.4837,-0.28375 2.9687,-0.5475 4.4525,-0.78125 1.485,-0.245 2.7987,-0.46875 3.9462,-0.665 4.2188,-0.57125 7.285,-1.09875 9.1988,-1.58125 1.9237,-0.57125 3.5062,-0.86 4.7462,-0.86 0.195,0 3.3588,-2.96875 9.4925,-8.90625 l 9.0625,-8.90625 0,-15.0975 -5.8987,-5.605 -5.8988,-5.7625 0,-37.65625 -12.3625,0 c 0,0.86 -0.7725,5.60625 -2.305,14.23875 -0.1862,0.9525 -0.5862,3.32 -1.2112,7.10875 -0.625,3.79 -1.035,6.4025 -1.23,7.8325 l -1.1525,6.7575 -2.8713,8.20375 -3.0075,8.04625 -12.09,6.6025 -12.07,6.62 -69.2775,0 -4.3162,-4.745 c -0.86,-1.055 -2.6863,-3.0375 -5.4688,-5.9575 -2.7737,-2.93 -4.405,-4.6775 -4.8837,-5.25375 l -6.035,-6.7575 0,-26.44625 2.305,-2.5975 c 0.3762,-0.46875 0.8062,-0.96125 1.2887,-1.48375 0.4788,-0.5325 0.865,-0.9675 1.1525,-1.30875 0.2838,-0.3375 0.4738,-0.5525 0.5663,-0.645 l 0.5862,-0.58625 11.7775,-3.16375 c 8.4375,-2.29 12.895,-3.57875 13.3788,-3.8675 3.1637,-1.5325 6.2737,-2.3525 9.3362,-2.46 l 1.7188,0 0,-3.00875 c 0.39,-7.3825 1.2012,-14.57 2.4412,-21.5625 0.5863,-3.735 1.7825,-7.47 3.5938,-11.21 2.5875,-5.46875 6.2787,-10.02 11.0737,-13.6525 l 0.43,-0.29375 -2.0112,-2.1475 c -0.1863,-0.19625 -2.6713,-2.93 -7.4613,-8.20375 l -5.4687,-6.035 -8.9063,0 -5.7625,2.44125 c -5.2725,2.3975 -10.2537,4.605 -14.9412,6.62125 l -9.355,4.16 -5.7425,0 0,-10.05875 1.4262,-1.58125 c 0.5863,-0.57125 2.8363,-3.0125 6.7575,-7.325 3.9313,-4.32125 6.0938,-6.72375 6.485,-7.20625 0.4688,-0.28375 1.04,-1.86125 1.7188,-4.7275 0.5712,-2.10875 0.9562,-4.31625 1.1512,-6.62 l 0,-1.875 3.165,0 0.4288,0.87875 c 0.86,1.71875 2.0025,3.2025 3.4375,4.4525 0.9625,0.9525 1.7825,1.42625 2.4612,1.42625 0.3763,0 8.76,-2.15375 25.1563,-6.465 l 25,-6.465 6.465,-0.13625 6.485,-0.15625 -0.1563,19.98 0,19.98 -1.4262,4.45375 c -3.4525,11.03 -5.8988,19.7075 -7.3438,26.035 l -0.43,1.855 -5.175,6.62125 -5.02,6.465 -2.8912,0 -1.2888,-1.28875 c -1.435,-1.445 -2.4362,-2.88125 -3.0075,-4.31625 l -0.5862,-1.1525 -9.1988,0 0,10.05875 4.4525,4.9025 4.61,4.8825 0.7225,2.14875 c 3.1638,8.725 6.6113,14.42875 10.3513,17.10875 l 0.86,0.56625 15.5275,0 0.1362,-2.715 c 0.2838,-4.21875 1.0013,-9.0625 2.1488,-14.53125 0.39,-1.71875 0.6737,-2.675 0.8587,-2.87 0.195,-0.19625 1.25,-1.34875 3.1638,-3.4575 l 2.8912,-2.87125 5.7425,-19.2575 1.2888,-7.91 c 2.7837,-18.11125 5.1362,-30.86 7.0512,-38.2425 l 0.8588,-3.73 0,-32.6375 -6.895,-8.18375 -6.7575,-8.34 -0.5863,0 c -2.0062,0 -3.6325,0.245 -4.8825,0.72375 -1.8262,0.57625 -3.2612,1.245 -4.3162,2.01125 -0.6638,0.48375 -4.0913,1.875 -10.2738,4.18 -6.1862,2.295 -10.4775,3.76875 -12.8712,4.43375 -12.9288,3.74 -22.705,6.27875 -29.3163,7.61625 -1.63,0.39125 -3.4962,0.58625 -5.605,0.58625 l -3.0275,0 0,-3.0275 4.61,-5.01875 c 3.0563,-3.4475 4.5888,-5.225 4.5888,-5.3325 0.1037,-0.18125 1.88,-7.895 5.3325,-23.145 l 0.5662,-2.44125 1.445,-1.581253 c 1.1438,-1.43125 2.6275,-3.10625 4.4538,-5.02 l 3.0275,-3.4575 0,-6.7575 -6.7575,-8.18375 z m -38.1063,-75.46874956 2.305,-0.15625 c 1.43,0 2.725,0 3.8863,0 29.1262,-0.0875 56.3925,5.46874996 81.7975,16.67999956 3.9162,1.73375 8.7112,4.13125 14.375,7.1875 14.2675,7.86625 27.5875,17.495 39.9612,28.88625 6.3125,5.7575 12.9725,12.56875 19.98,20.43 25.8688,30.381253 41.2013,64.780003 45.9963,103.203753 4.5012,36.225 0.3812,70.24875 -12.3638,102.07 -9.1012,22.33375 -22.1825,42.7875 -39.2375,61.3675 -19.3662,21.09375 -41.2212,37.33375 -65.5675,48.73 -26.0537,12.08 -54.1787,18.125 -84.375,18.125 -49.6375,0 -93.0462,-16.00625 -130.2337,-48.0075 -17.1488,-14.76625 -31.3813,-31.06 -42.695,-48.8875 C 10.1075,278.06727 0,242.55977 0,203.26352 0,178.06727 4.1212,154.40602 12.3637,132.26727 20.605,110.40602 33.0125,90.133517 49.59,71.446017 c 6.5237,-7.3675 14.4775,-15.2725 23.8675,-23.71 20.7912,-18.11125 43.8912,-31.09875 69.2962,-38.9649996 16.665,-5.16625 34.58,-8.03749996 53.75,-8.61374996 z"
     inkscape:connector-curvature="0" /></svg>