<?xml version="1.0" encoding="UTF-8" standalone="no"?>
<!-- Created with Inkscape (http://www.inkscape.org/) -->

<svg
   xmlns:dc="http://purl.org/dc/elements/1.1/"
   xmlns:cc="http://creativecommons.org/ns#"
   xmlns:rdf="http://www.w3.org/1999/02/22-rdf-syntax-ns#"
   xmlns:svg="http://www.w3.org/2000/svg"
   xmlns="http://www.w3.org/2000/svg"
   xmlns:sodipodi="http://sodipodi.sourceforge.net/DTD/sodipodi-0.dtd"
   xmlns:inkscape="http://www.inkscape.org/namespaces/inkscape"
   version="1.1"
   width="408.34741"
   height="408.48059"
   id="svg2"
   xml:space="preserve"
   inkscape:version="0.48.4 r9939"
   sodipodi:docname="black_elephant.svg"><sodipodi:namedview
     pagecolor="#ffffff"
     bordercolor="#666666"
     borderopacity="1"
     objecttolerance="10"
     gridtolerance="10"
     guidetolerance="10"
     inkscape:pageopacity="0"
     inkscape:pageshadow="2"
     inkscape:window-width="1920"
     inkscape:window-height="1024"
     id="namedview9"
     showgrid="false"
     inkscape:zoom="0.84426751"
     inkscape:cx="297.09261"
     inkscape:cy="194.44445"
     inkscape:window-x="0"
     inkscape:window-y="0"
     inkscape:window-maximized="1"
     inkscape:current-layer="svg2"
     fit-margin-top="0"
     fit-margin-left="0"
     fit-margin-right="0"
     fit-margin-bottom="0" /><metadata
     id="metadata8"><rdf:RDF><cc:Work
         rdf:about=""><dc:format>image/svg+xml</dc:format><dc:type
           rdf:resource="http://purl.org/dc/dcmitype/StillImage" /><dc:title /></cc:Work></rdf:RDF></metadata><defs
     id="defs6" /><path
     sodipodi:type="arc"
     style="color:#000000;fill:#ffffff;fill-opacity:1;fill-rule:nonzero;stroke:none;stroke-width:1;marker:none;visibility:visible;display:inline;overflow:visible;enable-background:accumulate"
     id="path2982"
     sodipodi:cx="197.80461"
     sodipodi:cy="196.95726"
     sodipodi:rx="197.80461"
     sodipodi:ry="197.80461"
     d="m 395.60922,196.95726 a 197.80461,197.80461 0 1 1 -395.60922,0 197.80461,197.80461 0 1 1 395.60922,0 z"
     transform="translate(6.3690948,7.2830353)" /><path
     id="path3021"
     style="fill:#000000;fill-opacity:1;fill-rule:nonzero;stroke:none"
     d="m 188.7441,170.72685 0,-3.59375 32.7725,0 10.9188,3.59375 10.7812,3.59375 10.9375,0 0,2.0125 c -0.1075,1.82625 -0.4012,3.69125 -0.8787,5.605 -1.7188,7.1 -5.8888,12.75375 -12.5,16.9725 -0.5763,0.38125 -4.9813,2.3925 -13.2225,6.035 -7.96,3.6325 -12.0813,5.45 -12.3638,5.45 -2.5925,-2.3925 -5.4687,-5.025 -8.6325,-7.89125 -6.1337,-5.9475 -9.2925,-9.01375 -9.4725,-9.19875 -0.875,-0.7675 -2.0275,-1.44625 -3.4575,-2.03125 -3.6475,-1.43125 -7.1437,-2.29 -10.4887,-2.57875 l -1.5813,0 3.5938,-7.1875 3.5937,-7.05 0,-3.73125 z m -53.4775,-34.64875 4.59,-5.3125 34.2188,0 0,17.96875 -4.4525,5.46875 -4.4538,5.3125 -34.355,0 0,-17.96875 4.4525,-5.46875 z m 60.8013,1.875 0,-14.375 50.8987,0 -0.1562,0.72375 c -0.2888,3.06125 -2.3,9.14 -6.035,18.24125 l -1.1525,2.735 0,3.59375 c 0,2.305 -0.049,3.45625 -0.1375,3.45625 -0.6788,0 -1.875,-0.42875 -3.5938,-1.28875 -1.63,-0.86875 -3.3975,-2.21125 -5.3125,-4.02375 l -1.875,-1.875 -2.0112,0 c -1.445,0 -2.695,0.1475 -3.75,0.43 -3.6325,1.055 -8.4275,2.68625 -14.375,4.8825 l -4.8825,1.73875 -3.8875,0.13625 -3.73,0 0,-14.375 z m -40.0975,-49.159997 3.73,-1.7375 28.8875,0 0,3.59375 -0.5663,0.44875 c -2.3975,1.63125 -4.4637,4.74125 -6.1925,9.336247 l -0.4287,1.1525 -2.5788,0.99625 c -14.2875,6.1325 -30.43,10.4975 -48.4375,13.085 -2.0212,0.28875 -4.8975,0.43 -8.6325,0.43 l -5.4687,0 0,-7.03125 0.7225,0 c 3.4475,0 7.525,-1.00625 12.2262,-3.0275 l 1.4263,-0.7225 0.2925,-0.7225 c 1.1425,-3.6325 9.4825,-8.896247 25.02,-15.801247 z m 34.6287,-47.30375 -5.605,-5.45 -18.1062,0 -1.2888,0.99625 c -1.5375,1.1625 -4.0775,2.8425 -7.6175,5.03875 l -2.0112,1.29 -0.1563,1.15125 c -0.9525,7.28125 -4.16,13.8 -9.6287,19.55125 -0.7713,0.77125 -1.3875,1.20125 -1.8563,1.28875 -1.445,0.57625 -2.885,1.34375 -4.3162,2.305 -0.8738,0.57625 -2.05,1.60125 -3.535,3.08625 -1.4838,1.48375 -2.6563,2.8075 -3.515,3.965 -2.5938,3.25625 -5.3713,7.71 -8.34,13.35875 l -1.2888,2.57875 -2.1487,0.87875 c -4.7025,1.71875 -8.535,2.5775 -11.5038,2.5775 l -0.86,0 0,7.617497 -7.1875,14.375 0,7.48 3.8675,12.2275 c 2.5875,8.04625 3.9838,12.5975 4.18,13.6525 0.375,1.24 0.9025,3.05625 1.5813,5.44875 0.1812,0.67875 0.3712,1.3775 0.5662,2.09 0.1963,0.7175 0.3375,1.26875 0.43,1.66 l 0.1563,0.56625 3.7312,7.77375 3.73,7.46125 5.4688,7.1875 2.7337,0 1.7188,-1.71875 c 0.3912,-0.37625 1.4462,-1.5725 3.165,-3.59375 l 1.445,-2.0125 17.9687,0 0,7.1875 -3.8862,2.14875 c -0.2888,0.195 -11.1675,6.24 -32.6375,18.125 l -28.593801,15.9575 -7.3437,0 -0.1363,3.73 0,3.73 29.180001,0 3.0263,-1.28875 c 10.9237,-4.985 18.3987,-9.00875 22.4225,-12.07 2.3925,-2.01625 3.5937,-3.555 3.5937,-4.61 0,-0.18 3.5938,-1.46875 10.7813,-3.86625 7.3675,-2.5 11.1962,-3.8925 11.4837,-4.18 2.0175,-1.71875 3.9363,-2.72 5.7625,-3.0075 l 0.8588,-0.15625 -5.4688,8.2025 c -0.7712,1.1475 -1.7287,2.6125 -2.8712,4.395 -1.1475,1.7725 -2.085,3.2125 -2.8125,4.31625 -0.7175,1.09375 -1.22,1.83125 -1.5038,2.20625 l -1.855,2.735 -1.3087,0.7225 c -2.295,1.25 -4.975,3.0225 -8.0463,5.3125 -6.905,5.18625 -13.0812,11.1725 -18.5362,17.96875 l -1.015,1.28875 -6.6013,2.735 c -5.2737,2.02125 -14.0437,5.5225 -26.308701,10.5075 l -3.4575,1.42625 -3.73,3.59375 -3.5938,3.59375 0,11.07375 14.6675,0 16.231301,-8.90625 c 2.3037,-1.25 7.89,-4.31625 16.7575,-9.19875 8.8675,-4.8925 15.3562,-8.48625 19.4725,-10.78125 l 19.98,-11.075 10.7812,-8.925 10.7813,-9.04375 c 0.089,0 -0.054,0.67375 -0.4288,2.0125 -0.3812,1.3425 -0.86,3.0175 -1.4462,5.01875 -3.92,13.80375 -7.9,20.99125 -11.9338,21.5625 -0.092,0 -0.3312,0.0788 -0.7225,0.235 -0.38,0.14625 -0.8787,0.33125 -1.5037,0.56625 -0.615,0.23375 -1.2113,0.44875 -1.7963,0.645 -10.445,3.6475 -16.2412,5.56125 -17.3837,5.74125 l -0.8588,0.15625 0,0.99625 c -0.4837,3.74 -2.6462,9.01375 -6.485,15.82 l -0.7025,1.44625 -1.3087,0.7025 c -0.7563,0.39125 -2.07,1.07 -3.945,2.03125 -1.865,0.9525 -3.975,2.05125 -6.3288,3.30125 -2.3437,1.24 -3.9987,2.1 -4.96,2.5775 -12.6475,6.9925 -19.21,11.30875 -19.6875,12.95 -0.1962,0.185 -3.8387,1.47375 -10.918701,3.86625 l -10.9375,3.59375 -3.5938,3.75 -3.73,3.73125 0,5.46875 0.1363,5.3125 3.4575,0.13625 3.5937,0 16.386301,-6.3275 c 33.4475,-13.0175 51.5625,-20.25375 54.3362,-21.7 12.8363,-6.79625 24.1013,-16.47375 33.7888,-29.0425 l 0.86,-1.1325 10.9175,0 0,14.375 -7.3238,14.6475 -7.3437,14.66875 0,7.05 -14.375,0 -7.325,-3.59375 -7.3238,-3.75 -7.1875,0 0,11.075 16.3863,16.38625 16.2312,16.3875 9.1988,0 c 6.3287,0 9.6337,-0.0487 9.9225,-0.1375 2.3925,-0.57625 5.3162,-2.53875 8.7687,-5.89875 l 1.445,-1.28875 5.4688,-10.78125 5.45,-10.9375 0,-36.3675 0.1562,-36.36625 2.0113,1.28875 c 13.125,7.77375 31.8062,27.66625 56.055,59.6675 l 3.4575,4.45375 40.2337,0 1.3088,-0.43 c 1.43,-0.2825 6.6062,-2.01125 15.5275,-5.17625 l 4.8825,-1.71875 7.1875,0 -3.1638,-1.3075 c -17.8275,-7.47125 -33.8287,-15.47375 -48.0075,-24.005 -27.125,-16.28875 -47.2025,-34.30125 -60.235,-54.0425 -2.5,-3.735 -4.0825,-6.27375 -4.7462,-7.6175 0,-0.195 1.1525,-0.2925 3.4575,-0.2925 l 3.5937,0 2.0113,-2.01125 c 3.54,-3.54 7.7537,-6.5625 12.6375,-9.0625 5.9462,-2.96875 12.5625,-5.22 19.8437,-6.75875 2.9688,-0.57125 5.605,-2.055 7.91,-4.4525 l 1.2888,-1.28875 0,-12.79375 -7.3238,0 -7.3437,-3.73 -7.325,-3.59375 -14.375,0 0.1375,-0.43 0,-1.875 c 0.39,-3.35875 1.2987,-6.7625 2.7337,-10.215 0.9625,-2.485 3.1688,-6.41125 6.6213,-11.7775 7.47,-11.78125 13.6525,-19.165 18.535,-22.1475 l 1.0162,-0.70375 0,-18.125 -7.3437,0 -15.3713,-7.48 -15.3912,-7.324997 -1.2888,0 c -2.9687,0.19625 -6.8512,1.44125 -11.6412,3.73125 -10.6388,5.379997 -18.5488,8.881247 -23.73,10.507497 -0.9525,0.38125 -2.0513,0.56625 -3.3013,0.56625 l -1.875,0 0,-0.43 c 0,-0.76625 0.3375,-1.82125 1.0163,-3.16375 2.7737,-5.556247 11.5425,-12.504997 26.3087,-20.839997 4.8825,-2.77375 9.77,-4.30625 14.6675,-4.60875 l 1.7188,0 0,-11.055 -3.73,-3.59375 -3.5938,-3.75 -1.5825,-0.70375 c -6.1325,-2.5875 -11.3625,-5.7075 -15.6837,-9.355 -0.6638,-0.47875 -1.05,-0.7225 -1.1525,-0.7225 -0.38,0 -1.24,0.86875 -2.5775,2.5975 l -0.7225,0.86 -11.075,5.605 -11.0538,5.46875 -7.1875,0 0,-3.59375 3.73,-3.59375 3.5938,-3.59375 0,-7.48 -5.4688,-5.46875 z m 5.7613,-41.38750037 c 1.3387,-0.10250000219 4.4237,-0.12625 9.2587,-0.0775 4.8438,0.0538 7.9338,0.12625 9.2775,0.215 16.4838,0.96624997 31.6688,3.45624997 45.5663,7.47999997 21.1812,6.0300004 41.02,15.7025004 59.5112,29.0237504 9.9713,7.1875 19.365,15.24375 28.1838,24.16 4.8825,4.8825 9.0475,9.29125 12.5,13.2225 28.5637,33.349997 44.2825,71.439997 47.1487,114.277497 1.3375,19.365 0.195,38.0025 -3.4375,55.9175 -7.4762,36.70875 -25.4012,70.205 -53.77,100.48875 -7.8512,8.2425 -16.7137,16.00125 -26.5825,23.28125 -35.8488,26.92375 -76.1025,40.39 -120.7612,40.39 -43.125,0 -81.5575,-12.31375 -115.292501,-36.93375 -8.6238,-6.1325 -17.535,-13.75 -26.7388,-22.85125 -3.9212,-4.02375 -7.9887,-8.4275 -12.2075,-13.2225 -28.1787,-32.7825 -44.1786999,-69.92125 -48.0074999,-111.40625 -2.2162,-23.67125 -0.78119999,-46.3375 4.2975,-68.0075 C 12.776599,123.2856 28.690399,93.866853 53.040399,67.796853 c 6.2212,-6.70375 12.5975,-12.9775 19.1212,-18.8275 C 106.1854,18.788103 146.1466,2.5431026 192.0441,0.23935263 c 1.1425,-0.0888 2.5838,-0.1375 4.3163,-0.1375 z"
     inkscape:connector-curvature="0" /></svg>