<?xml version="1.0" encoding="UTF-8" standalone="no"?>
<!-- Created with Inkscape (http://www.inkscape.org/) -->

<svg
   xmlns:dc="http://purl.org/dc/elements/1.1/"
   xmlns:cc="http://creativecommons.org/ns#"
   xmlns:rdf="http://www.w3.org/1999/02/22-rdf-syntax-ns#"
   xmlns:svg="http://www.w3.org/2000/svg"
   xmlns="http://www.w3.org/2000/svg"
   xmlns:sodipodi="http://sodipodi.sourceforge.net/DTD/sodipodi-0.dtd"
   xmlns:inkscape="http://www.inkscape.org/namespaces/inkscape"
   version="1.1"
   width="408.34503"
   height="408.48578"
   id="svg2"
   xml:space="preserve"
   inkscape:version="0.48.4 r9939"
   sodipodi:docname="black_pawn.svg"><sodipodi:namedview
     pagecolor="#ffffff"
     bordercolor="#666666"
     borderopacity="1"
     objecttolerance="10"
     gridtolerance="10"
     guidetolerance="10"
     inkscape:pageopacity="0"
     inkscape:pageshadow="2"
     inkscape:window-width="1920"
     inkscape:window-height="1024"
     id="namedview9"
     showgrid="false"
     inkscape:zoom="0.59698728"
     inkscape:cx="283.06011"
     inkscape:cy="219.82008"
     inkscape:window-x="0"
     inkscape:window-y="0"
     inkscape:window-maximized="1"
     inkscape:current-layer="svg2"
     fit-margin-top="0"
     fit-margin-left="0"
     fit-margin-right="0"
     fit-margin-bottom="0" /><metadata
     id="metadata8"><rdf:RDF><cc:Work
         rdf:about=""><dc:format>image/svg+xml</dc:format><dc:type
           rdf:resource="http://purl.org/dc/dcmitype/StillImage" /><dc:title /></cc:Work></rdf:RDF></metadata><defs
     id="defs6" /><path
     sodipodi:type="arc"
     style="color:#000000;fill:#ffffff;fill-opacity:1;fill-rule:nonzero;stroke:none;stroke-width:1;marker:none;visibility:visible;display:inline;overflow:visible;enable-background:accumulate"
     id="path2982"
     sodipodi:cx="197.80461"
     sodipodi:cy="196.95726"
     sodipodi:rx="197.80461"
     sodipodi:ry="197.80461"
     d="m 395.60922,196.95726 a 197.80461,197.80461 0 1 1 -395.60922,0 197.80461,197.80461 0 1 1 395.60922,0 z"
     transform="translate(6.3679047,7.2856293)" /><path
     id="path14"
     style="fill:#000000;fill-opacity:1;fill-rule:nonzero;stroke:none"
     d="m 162.4418,114.25882 -4.61,-5.46875 -27.3038,0 0,7.32375 -1.5824,4.02375 c -9.2963,22.8125 -15.4788,35.65875 -18.535,38.535 -0.1951,0.2875 -1.7338,1.1475 -4.6088,2.5775 l -4.0238,2.0125 -7.3249,7.34375 -7.3438,7.1875 0,9.19875 c 0,6.03 0.049,9.04375 0.1563,9.04375 5.3612,-2.68125 11.3525,-5.69375 17.9687,-9.04375 l 18.1062,-8.925 5.4688,-5.45 c 3.54,-3.735 5.4538,-5.45875 5.7425,-5.175 l 1.2887,1.425 c 0.8688,0.9675 2.1388,2.35875 3.8088,4.18 1.6788,1.82625 3.2863,3.55 4.8238,5.17625 l 9.7662,10.625 20.1362,0 0,-29.18 -1.4449,-0.27375 c -2.7738,-0.58625 -8.6675,-2.54875 -17.6763,-5.89875 l -2.735,-1.015 -7.1875,0 0.7238,-0.7225 c 1.25,-1.23625 3.0712,-3.965 5.4687,-8.18375 0.4688,-1.055 0.8438,-1.72375 1.1325,-2.0125 0.1025,0 0.9225,-0.2825 2.4613,-0.85875 3.1487,-1.445 6.5912,-2.31 10.3312,-2.5975 l 1.5825,0 0,-18.39875 -4.59,-5.44875 z m 108.965,-7.34375 -4.4537,-5.46875 -27.46,0 0,11.07375 -1.1526,2.44125 c -9.0137,18.70125 -14.5212,32.98375 -16.5237,42.85125 -0.195,1.055 -0.44,1.72875 -0.7225,2.0125 l -0.2925,0.27375 c -0.1962,0.1075 -0.44,0.2825 -0.7237,0.52625 -0.2876,0.235 -0.5763,0.445 -0.8588,0.625 -2.305,1.63125 -4.175,3.49625 -5.605,5.60625 -1.3437,1.82625 -2.2562,3.745 -2.735,5.76125 -0.2875,0.86 -0.43,2.535 -0.43,5.02 l 0,3.75 -0.7225,0 c -1.9138,-0.28375 -8.1937,-2.3925 -18.8275,-6.32875 l -2.1488,-0.85875 -7.3437,0 0,21.69875 -0.1375,21.7 -2.5775,0 c -12.9437,0 -29.385,1.01 -49.3163,3.02625 -20.1324,2.11 -46.1475,3.49625 -78.0474,4.16125 -3.7401,0 -5.8975,0.0538 -6.4838,0.15625 l -1.4262,0 0,14.6475 7.325,0 2.8712,1.1525 c 3.6425,1.25 8.105,2.8325 13.3788,4.74625 l 4.1599,1.445 22.4213,0 6.485,-0.85875 c 15.3225,-2.01625 28.2075,-3.985 38.6525,-5.89875 1.7275,-0.39 2.9775,-0.5325 3.75,-0.43 0.7662,0.0937 2.055,0.16625 3.8663,0.215 1.8212,0.0538 3.1162,0.03 3.8874,-0.0775 2.1088,-0.28375 3.9738,-0.71375 5.6051,-1.29 1.0549,-0.2825 1.865,-0.42875 2.4412,-0.42875 2.7837,0 5.5175,-0.66875 8.2037,-2.0125 4.79,-2.19625 9.3401,-3.49625 13.6526,-3.88625 l 1.1512,0 0,105.66375 3.7312,10.91875 3.5938,10.9175 0,10.9375 7.3437,0 0,-7.34375 7.3238,-14.51125 7.1875,-14.5125 0,-102.07 138.0075,0 0,-3.59375 3.595,-3.73 3.73,-3.75 -9.2,-9.04375 -9.1987,-9.0625 -8.6326,0 c -6.1324,0 -9.7749,0.0488 -10.9187,0.1375 -0.38,0 -1.025,0.0538 -1.9325,0.15625 -0.9137,0.0925 -2.0225,0.19 -3.3212,0.2925 -1.2888,0.0925 -2.3626,0.185 -3.2225,0.27375 -9.4913,0.67875 -22.8663,1.92875 -40.1163,3.75 l -26.4462,2.715 -25.0188,0 0,-25.43 0.585,-0.87875 c 1.4312,-2.1975 4.21,-4.595 8.34,-7.1875 3.0575,-1.915 6.5525,-3.63375 10.4887,-5.15625 l 2.3051,-1.01625 5.4687,-5.46875 5.3125,-5.44875 0.8588,1.425 c 3.735,6.13375 8.7699,11.30875 15.0975,15.5275 2.1974,1.53875 4.8337,3.07625 7.91,4.61 6.4162,3.06125 14.1312,5.5025 23.145,7.32375 l 0.4299,0.1375 0,-25.43 -1.0162,-0.87875 c -6.225,-4.88375 -12.5,-8.76 -18.8275,-11.64125 -7.1,-3.25125 -14.5262,-5.16625 -22.285,-5.7425 l -1.5825,0 0,-7.05 0.7225,0 c 3.54,0 7.6175,-0.9575 12.2263,-2.87125 l 1.5825,-0.7225 3.5937,-3.73125 3.73,-3.59375 0,-14.80375 -4.4525,-5.46875 z m -64.5512,-63.535004 -7.1875,-7.325 -32.7738,0 0,18.2425 10.7825,10.9375 10.9175,10.9175 0,1.875 -0.1375,1.71875 c -4.115,0 -8.5687,0.19625 -13.3587,0.58625 -7.7738,0.38125 -16.9825,1.28375 -27.6175,2.715 -1.7188,0.2875 -6.5575,0.815 -14.5113,1.5825 -14.7562,1.3425 -28.2175,2.1575 -40.3912,2.44125 l -5.4688,0 0,14.531254 1.29,0 c 6.235,0 14.2425,0.95625 24.0225,2.87125 l 3.7312,0.7225 0,1.58125 c 0.088,1.63125 0.4201,2.49125 0.9963,2.57875 0.2975,0 0.4925,-0.0437 0.585,-0.1375 0.1963,-0.195 0.4787,-0.33625 0.86,-0.42875 0.7663,-0.1025 1.9188,-0.87 3.4575,-2.305 l 1.425,-1.28875 10.645,-0.86 c 1.6263,-0.1025 7.6363,-0.61 18.0275,-1.52375 10.4,-0.9075 18.9113,-1.60125 25.5275,-2.07 l 32.91,-2.733754 24.8825,-3.59375 c 13.8913,-1.915 23.3788,-3.2525 28.4575,-4.02375 11.6012,-1.82125 21.665,-2.87625 30.195,-3.16375 l 3.5937,0 0,-21.9925 -24.2974,0 c -13.1388,0 -20.7613,0.0288 -22.8713,0.0775 -2.0987,0.04 -3.915,0.30375 -5.4487,0.78125 -2.1088,0.86 -3.7401,1.63125 -4.8826,2.305 -0.4837,0.38125 -1.7337,0.81125 -3.75,1.28875 -6.5137,1.53875 -12.2174,2.45125 -17.1099,2.735 l -1.5813,0.13625 0,-1.28875 c 0,-3.6425 -1.0062,-9.775 -3.0087,-18.39875 l -0.585,-2.1675 -7.325,-7.32375 z M 194.4931,0.11756612 c 5.7512,-0.195 12.5587,-0.14625 20.4099,0.1375 0.4788,0.0925 1.3913,0.19 2.7338,0.2925 1.3388,0.0925 2.2513,0.13625 2.735,0.13625 44.375,3.25749998 83.6613,20.22499988 117.8713,50.89874988 34.3062,30.56125 56.015,65.917504 65.1162,106.073754 2.305,9.585 3.8875,20.70375 4.7463,33.36 0.089,1.71875 0.1612,5.0975 0.215,10.13625 0.049,5.03 0.025,8.55 -0.078,10.56625 -0.5763,14.375 -2.5888,28.2725 -6.0363,41.68 -8.0462,31.91375 -24.1937,61.24 -48.4375,87.96875 -3.3587,3.6425 -7.8125,8.10625 -13.3587,13.37875 -36.045,32.48625 -76.7725,50.215 -122.1875,53.18375 -12.5688,0.9625 -25.6538,0.67375 -39.2576,-0.85875 -20.5087,-2.305 -39.6774,-7.57875 -57.5,-15.82125 -7.5687,-3.45125 -14.6099,-7.23625 -21.1337,-11.3475 -11.875,-7.295 -23.3737,-16.21 -34.4913,-26.7575 C 54.7163,342.61257 44.8926,331.30882 36.3676,319.23882 12.1188,285.02007 0,246.34882 0,203.22382 0,158.38007 12.8901,118.90257 38.6713,84.786316 c 3.4475,-4.61 7.525,-9.4975 12.2275,-14.66875 2.485,-2.68 7.3675,-7.715 14.6475,-15.0975 20.1275,-19.2575 42.12,-33.38875 65.9775,-42.4025 19.165,-7.3824999 40.1563,-11.5474999 62.9688,-12.49999988 z"
     inkscape:connector-curvature="0" /></svg>