<?xml version="1.0" encoding="UTF-8" standalone="no"?>
<!-- Created with Inkscape (http://www.inkscape.org/) -->

<svg
   xmlns:dc="http://purl.org/dc/elements/1.1/"
   xmlns:cc="http://creativecommons.org/ns#"
   xmlns:rdf="http://www.w3.org/1999/02/22-rdf-syntax-ns#"
   xmlns:svg="http://www.w3.org/2000/svg"
   xmlns="http://www.w3.org/2000/svg"
   xmlns:sodipodi="http://sodipodi.sourceforge.net/DTD/sodipodi-0.dtd"
   xmlns:inkscape="http://www.inkscape.org/namespaces/inkscape"
   version="1.1"
   width="408.45892"
   height="408.34436"
   id="svg2"
   xml:space="preserve"
   inkscape:version="0.48.4 r9939"
   sodipodi:docname="red_pawn.svg"><sodipodi:namedview
     pagecolor="#ffffff"
     bordercolor="#666666"
     borderopacity="1"
     objecttolerance="10"
     gridtolerance="10"
     guidetolerance="10"
     inkscape:pageopacity="0"
     inkscape:pageshadow="2"
     inkscape:window-width="1920"
     inkscape:window-height="1024"
     id="namedview9"
     showgrid="false"
     inkscape:zoom="0.84426751"
     inkscape:cx="338.6423"
     inkscape:cy="143.2449"
     inkscape:window-x="0"
     inkscape:window-y="0"
     inkscape:window-maximized="1"
     inkscape:current-layer="svg2"
     fit-margin-top="0"
     fit-margin-left="0"
     fit-margin-right="0"
     fit-margin-bottom="0" /><metadata
     id="metadata8"><rdf:RDF><cc:Work
         rdf:about=""><dc:format>image/svg+xml</dc:format><dc:type
           rdf:resource="http://purl.org/dc/dcmitype/StillImage" /><dc:title /></cc:Work></rdf:RDF></metadata><defs
     id="defs6" /><path
     sodipodi:type="arc"
     style="color:#000000;fill:#ffffff;fill-opacity:1;fill-rule:nonzero;stroke:none;stroke-width:1;marker:none;visibility:visible;display:inline;overflow:visible;enable-background:accumulate"
     id="path2982"
     sodipodi:cx="197.80461"
     sodipodi:cy="196.95726"
     sodipodi:rx="197.80461"
     sodipodi:ry="197.80461"
     d="m 395.60922,196.95726 a 197.80461,197.80461 0 1 1 -395.60922,0 197.80461,197.80461 0 1 1 395.60922,0 z"
     transform="translate(6.4248505,7.21492)" /><path
     id="path16"
     style="fill:#000000;fill-opacity:1;fill-rule:nonzero;stroke:none"
     d="m 220.43142,266.03935 c 0.3762,-0.39 0.8587,-0.5325 1.445,-0.43 2.095,0.18625 4.7262,0.855 7.89,2.0125 2.8762,0.9525 8.9362,3.46625 18.1837,7.53875 9.2588,4.0775 15.4688,6.9725 18.6338,8.69125 13.5,7.295 22.1725,14.82 26.015,22.57875 2.5788,5.17 4.0087,10.585 4.2975,16.25 0,2.00625 -0.2888,3.8225 -0.86,5.44875 -0.4688,1.1625 -0.7563,2.07 -0.8587,2.735 -0.4838,1.63 -1.25,2.96875 -2.3051,4.0225 -1.24,1.25 -2.5787,1.92375 -4.0237,2.0125 -1.8263,0 -4.0775,-0.7675 -6.7575,-2.305 -1.24,-0.7525 -2.1438,-1.27875 -2.715,-1.5825 -2.8812,-1.625 -5.9475,-4.0675 -9.1987,-7.32375 -4.2188,-4.21875 -8.585,-9.43875 -13.0863,-15.66375 -0.9675,-1.33875 -3.315,-4.3075 -7.0513,-8.90625 -8.9062,-10.5475 -15.7125,-17.735 -20.41,-21.5625 -1.9137,-1.53375 -3.955,-3.4575 -6.1137,-5.7625 -2.1475,-2.30375 -3.4175,-3.93 -3.8075,-4.8825 -0.2888,-1.1425 -0.049,-2.1 0.7225,-2.87125 z m -63.3988,-4.4525 c 1.25,-0.29875 2.6413,-0.205 4.18,0.2725 1.9138,0.57625 5.7413,2.11 11.4838,4.61 5.1812,2.3975 8.7313,4.50625 10.645,6.3275 1.43,1.52375 2.2462,2.91125 2.4412,4.16125 0.4788,1.7325 0,3.35875 -1.4262,4.8825 -1.0537,1.055 -2.7338,2.305 -5.0388,3.75 -5.3662,3.16375 -10.015,6.37625 -13.945,9.62875 -1.4362,1.055 -3.35,2.685 -5.7425,4.8825 -12.4612,10.5475 -24.2525,19.31625 -35.3712,26.30875 -5.6538,3.2575 -12.1675,6.28 -19.55,9.0625 -5.273796,1.71875 -9.682496,3.0075 -13.222496,3.8675 -1.055,0.195 -2.2812,0.2925 -3.6725,0.2925 -1.3813,0 -2.1675,-0.14125 -2.3638,-0.43 -0.092,0 -0.049,-0.0975 0.1375,-0.2925 0.195,-0.195 0.5075,-0.435 0.9375,-0.7225 0.4288,-0.28375 0.8838,-0.615 1.3663,-0.99625 9.8687,-7.3825 20.459996,-15.96125 31.777496,-25.7425 7.3687,-6.3125 13.4475,-11.91875 18.2425,-16.81625 5.4687,-5.45375 10.0687,-10.67375 13.8087,-15.66375 1.7188,-2.3925 2.72,-6.66 3.0075,-12.7925 0,-1.53375 0.097,-2.58875 0.2938,-3.165 0.39,-0.66375 1.0588,-1.1375 2.0112,-1.425 z m 65.84,-100.19625 c 0.195,-0.39 0.195,-0.585 0,-0.585 -0.1949,0 -0.7712,0.0975 -1.7187,0.2925 -0.5763,0.0925 -3.355,0.62 -8.34,1.5825 -6.3275,1.05375 -17.3538,3.115 -33.0663,6.17125 -6.9049,1.25 -10.9087,1.94875 -12.0112,2.09 -1.095,0.14625 -2.7938,0.0738 -5.0988,-0.215 -1.3425,-0.2825 -2.5387,-0.43 -3.5937,-0.43 l -1.1525,-0.13625 0,0.70375 c 0.1037,0.2875 1.3975,10.54125 3.8875,30.76125 l 3.73,30.625 0,0.43 0.8787,0 c 2.7738,-0.37625 17.7638,-1.33375 44.9813,-2.87125 6.7037,-0.47875 10.3512,-0.7225 10.9375,-0.7225 l 0.43,-4.59 c 0.375,-3.16375 0.78,-6.72875 1.21,-10.70375 0.43,-3.98375 0.7425,-6.78625 0.9375,-8.4175 0.089,-0.67375 0.235,-1.91875 0.43,-3.73 0.195,-1.82125 0.3375,-3.07125 0.43,-3.75 0.8687,-7.66625 1.255,-13.0575 1.1525,-16.1725 -0.094,-3.11 -0.7625,-6.72875 -2.0125,-10.85875 -0.195,-0.7675 -0.7225,-2.25125 -1.5812,-4.45375 l -0.9963,-2.305 0.1362,-0.99625 c 0,-0.0875 0.02,-0.23375 0.059,-0.42875 0.049,-0.19625 0.1025,-0.36125 0.1562,-0.50875 0.049,-0.14125 0.097,-0.2825 0.1363,-0.42875 0.049,-0.1425 0.079,-0.25875 0.079,-0.3525 z m 5.3125,-95.018747 c 1.1575,-0.47875 1.9775,-0.7225 2.4613,-0.7225 1.8062,0 4.0525,0.67375 6.7375,2.01125 3.36,1.63125 8.2037,5.225 14.5312,10.78125 4.4,3.74 6.9388,6.70875 7.6175,8.90625 0.2838,1.445 -0.195,2.98375 -1.445,4.61 -1.8262,2.295 -5.2737,3.77875 -10.3512,4.4525 -13.3213,1.43625 -32.7738,6.269997 -58.36,14.511247 -3.6325,1.1625 -8.14,2.315 -13.515,3.4575 -6.1338,1.43625 -12.0713,2.67625 -17.8125,3.73 l -3.595,0.86 c -0.2875,0.2875 -0.7225,3.50625 -1.3075,9.64875 l -0.1375,1.71875 1.875,15.66375 2.0125,15.66375 c 0.195,0.195 6.7087,-1.045 19.55,-3.73 19.5412,-4.02375 38.5162,-8.33 56.915,-12.93 7.47,-1.82125 13.1288,-3.40375 16.9725,-4.74625 7.7587,-2.7825 12.3525,-4.18 13.7887,-4.18 1.1575,0 3.9351,0.81625 8.34,2.4425 4.4138,1.63 7.3875,2.92375 8.925,3.88625 2.11,1.25 3.8525,2.57375 5.235,3.965 1.3913,1.38125 2.09,2.45625 2.09,3.2225 0,0.2875 -0.5087,0.77125 -1.5237,1.445 -1.0062,0.66375 -1.9338,1.19125 -2.7925,1.5825 -0.9525,0.2875 -2.9638,0.5225 -6.035,0.7025 -10.9287,0.875 -24.4337,2.55375 -40.5275,5.04 l -3.0275,0.42875 1.445,0.58625 c 2.9687,1.1475 6.3675,2.96375 10.195,5.44875 1.7287,1.1625 3.36,2.5 4.8825,4.02375 1.925,2.305 3.0762,4.22875 3.4575,5.7625 0.2837,1.24 0.1412,2.09875 -0.43,2.5775 -0.39,0.39125 -0.6788,0.77625 -0.8588,1.1525 0,0.0925 -0.074,0.23375 -0.215,0.43 -0.1462,0.195 -0.3125,0.43875 -0.5075,0.7225 -0.1962,0.2875 -0.3424,0.5275 -0.43,0.7225 -1.9137,2.88125 -3.2125,5.89375 -3.8862,9.0425 0,0.39125 -1.6313,7.0075 -4.8838,19.84375 l -4.7462,18.555 c 0.2837,0.28875 7.2325,-0.435 20.84,-2.1675 9.9712,-1.25 21.28,-3.165 33.9262,-5.7425 l 5.3326,-1.01625 5.1562,-0.2725 c 0.7662,0 1.65,-0.0438 2.6563,-0.1375 1.0149,-0.1025 1.8549,-0.18 2.5187,-0.23375 0.6738,-0.0487 1.1137,-0.0788 1.3087,-0.0788 0.7663,-0.0875 1.5288,-0.0387 2.285,0.15625 0.7675,0.19625 4.3163,1.29875 10.645,3.30125 3.3588,1.1475 5.9963,2.34375 7.91,3.59375 5.4538,3.545 8.1838,7.23625 8.1838,11.07375 0,0.57625 -0.1463,1.00625 -0.43,1.29 -0.7713,0.96625 -2.7288,1.59125 -5.8788,1.875 -0.195,0 -0.4637,0.0287 -0.8012,0.0775 -0.3413,0.0387 -0.625,0.0875 -0.8588,0.13625 -0.235,0.04 -0.405,0.0587 -0.5074,0.0587 -2.5938,0.19625 -18.1651,0.39125 -46.7188,0.58625 l -26.875,0.2925 c -0.4838,0 -3.0225,0.0937 -7.6175,0.27375 -14.375,0.39125 -32.2025,1.30375 -53.4762,2.735 -10.3526,0.67875 -16.2013,1.015 -17.5401,1.015 -21.4737,0.77125 -44.4725,3.83875 -69.0037,9.2 -1.435,0.2875 -3.6863,0.7175 -6.7575,1.28875 -4.403796,0.85875 -6.894996,1.3425 -7.479996,1.445 -2.6863,0.46875 -4.9813,0.46875 -6.895,0 -3.2563,-0.86875 -6.7525,-2.36375 -10.4888,-4.4725 -0.9662,-0.46875 -2.065,-0.845 -3.3,-1.1325 -6.4212,-1.53375 -9.6287,-3.83875 -9.6287,-6.915 -0.1075,-1.1425 0.37,-1.9575 1.425,-2.44125 0.9625,-0.57125 3.36,-0.9025 7.1875,-0.99625 13.0325,-0.39 25.01,-1.15625 35.937496,-2.30375 0.6738,-0.1025 1.9437,-0.245 3.8087,-0.43 1.875,-0.195 3.0476,-0.3375 3.5163,-0.43 6.43,-0.57125 13.0462,-1.29375 19.8438,-2.1675 2.5874,-0.37625 4.8874,-0.66375 6.8937,-0.86 0.5862,0 1.1825,-0.0187 1.7975,-0.0587 0.625,-0.0488 1.0787,-0.12625 1.3675,-0.23375 l 0.585,0 c -0.7713,-4.595 -1.5812,-9.61875 -2.4413,-15.07875 -10.3512,-64.0225 -15.5275,-96.46375 -15.5275,-97.32375 -0.39,-2.7825 -1.1612,-5.61 -2.3037,-8.47625 -0.5762,-1.25 -1.1037,-2.15875 -1.5825,-2.735 -0.5763,-0.57125 -1.055,-1.1525 -1.445,-1.7375 l -0.5675,-0.70375 0,-1.30875 c 0.2837,-3.25125 1.4362,-5.45375 3.4575,-6.60125 1.055,-0.478747 2.5387,-0.722497 4.4538,-0.722497 3.9299,0.0925 8.4375,1.434997 13.5149,4.023747 4.1113,2.20125 6.7976,3.8275 8.0476,4.8825 l 0.7224,0.7225 1.425,-0.7225 c 0.2838,-0.0875 1.0013,-0.395 2.1488,-0.9175 1.1575,-0.5325 1.9775,-0.89875 2.4612,-1.09375 2.68,-1.33875 4.4525,-2.1975 5.3125,-2.57875 10.7275,-4.697497 19.355,-9.062497 25.8788,-13.086247 13.6962,-8.24125 23.95,-14.9025 30.7612,-19.98 2.7738,-2.11 4.83,-3.49625 6.1725,-4.16 z m -17.2462,-50.17625 c -5.2738,-0.195 -10.4975,-0.195 -15.6638,0 -21.475,0.86 -41.5037,5.07875 -60.0974,12.65625 -10.9288,4.31125 -21.7976,10.015 -32.6176,17.11 -19.272496,12.92875 -35.898696,28.69125 -49.882396,47.285 -20.9913,27.787497 -32.9251,58.837497 -35.8013,93.143747 -0.3812,4.3125 -0.5663,9.97125 -0.5663,16.97375 0,6.90375 0.1851,12.31375 0.5663,16.23 3.2525,41.015 19.355,77.53375 48.3013,109.55125 30.1949,33.53995 65.556196,53.75875 106.093696,60.66375 10.3512,1.6262 21.035,2.4413 32.05,2.4413 8.7212,0 16.1037,-0.3863 22.1487,-1.1526 32.6663,-3.74 62.2751,-15.7612 88.8288,-36.0737 13.9937,-10.64 26.5475,-22.955 37.655,-36.95375 22.9012,-28.26625 36.08,-60.3225 39.5325,-96.17125 1.0537,-11.11875 1.1512,-22.04125 0.2925,-32.77375 -2.11,-31.235 -11.7388,-59.74625 -28.8875,-85.5275 -7.1875,-10.727497 -15.815,-21.073747 -25.8788,-31.034997 -10.0675,-9.97125 -20.7025,-18.6525 -31.9137,-26.035 -28.1788,-18.78875 -59.565,-28.89625 -94.16,-30.3325 z M 196.42772,0.10185263 c 1.3374,-0.10250000219 4.4237,-0.12625 9.2574,-0.0775 4.8438,0.0538 7.935,0.12625 9.2775,0.215 13.6038,0.85874997 26.64,2.77249997 39.1013,5.74124997 29.2287,7.4912504 55.9663,21.4362504 80.215,41.8362504 9.2037,7.86625 18.0175,16.63625 26.445,26.30875 31.8212,37.187497 47.735,80.268747 47.735,129.238747 0,50.6925 -17.3,95.63375 -51.895,134.82375 -6.8113,7.66625 -13.8575,14.56995 -21.1325,20.70255 -32.295,27.6962 -68.4725,43.7949 -108.535,48.3012 -7.3838,0.7663 -15.2888,1.1525 -23.7113,1.1525 -9.1012,0 -16.7187,-0.3862 -22.8512,-1.1525 -16.2012,-1.7187 -31.6313,-5.3125 -46.29,-10.7812 -21.1863,-7.8513 -41.024996,-19.6875 -59.511296,-35.5076 -7.5787,-6.5137 -14.6237,-13.3149 -21.1325,-20.41 -31.6312,-34.78995 -49.1699999,-74.8487 -52.61749988,-120.1762 -1.3425,-15.23375 -0.9575,-30.5175 1.15249998,-45.85875 5.0775,-38.135 20.5512999,-71.96375 46.4262999,-101.484997 6.9912,-8.135 14.8037,-15.99625 23.4375,-23.57375 5.6487,-5.16625 12.2112,-10.3425 19.6875,-15.5275 23.187496,-16.19625 48.914996,-26.5925004 77.187496,-31.1912504 9.1113,-1.43125 18.3637,-2.28999997 27.7538,-2.57874997 z"
     inkscape:connector-curvature="0" /></svg>