<?xml version="1.0" encoding="UTF-8" standalone="no"?>
<!-- Created with Inkscape (http://www.inkscape.org/) -->

<svg
   xmlns:dc="http://purl.org/dc/elements/1.1/"
   xmlns:cc="http://creativecommons.org/ns#"
   xmlns:rdf="http://www.w3.org/1999/02/22-rdf-syntax-ns#"
   xmlns:svg="http://www.w3.org/2000/svg"
   xmlns="http://www.w3.org/2000/svg"
   xmlns:sodipodi="http://sodipodi.sourceforge.net/DTD/sodipodi-0.dtd"
   xmlns:inkscape="http://www.inkscape.org/namespaces/inkscape"
   version="1.1"
   width="408.31546"
   height="408.54102"
   id="svg2"
   xml:space="preserve"
   inkscape:version="0.48.4 r9939"
   sodipodi:docname="red_elephant.svg"><sodipodi:namedview
     pagecolor="#ffffff"
     bordercolor="#666666"
     borderopacity="1"
     objecttolerance="10"
     gridtolerance="10"
     guidetolerance="10"
     inkscape:pageopacity="0"
     inkscape:pageshadow="2"
     inkscape:window-width="1920"
     inkscape:window-height="1024"
     id="namedview9"
     showgrid="false"
     inkscape:zoom="0.59698728"
     inkscape:cx="401.70533"
     inkscape:cy="103.34944"
     inkscape:window-x="0"
     inkscape:window-y="0"
     inkscape:window-maximized="1"
     inkscape:current-layer="svg2"
     fit-margin-top="0"
     fit-margin-left="0"
     fit-margin-right="0"
     fit-margin-bottom="0" /><metadata
     id="metadata8"><rdf:RDF><cc:Work
         rdf:about=""><dc:format>image/svg+xml</dc:format><dc:type
           rdf:resource="http://purl.org/dc/dcmitype/StillImage" /><dc:title /></cc:Work></rdf:RDF></metadata><defs
     id="defs6" /><path
     sodipodi:type="arc"
     style="color:#000000;fill:#ffffff;fill-opacity:1;fill-rule:nonzero;stroke:none;stroke-width:1;marker:none;visibility:visible;display:inline;overflow:visible;enable-background:accumulate"
     id="path2982"
     sodipodi:cx="197.80461"
     sodipodi:cy="196.95726"
     sodipodi:rx="197.80461"
     sodipodi:ry="197.80461"
     d="m 395.60922,196.95726 a 197.80461,197.80461 0 1 1 -395.60922,0 197.80461,197.80461 0 1 1 395.60922,0 z"
     transform="translate(6.3531189,7.3132477)" /><path
     id="path3116"
     style="fill:#000000;fill-opacity:1;fill-rule:nonzero;stroke:none"
     d="m 304.43248,244.06257 c 0,-3.16375 -0.054,-4.745 -0.1563,-4.745 -0.2887,0.0925 -0.5762,0.23375 -0.86,0.42875 -0.092,0 -0.5225,0.1475 -1.2887,0.43 -0.7713,0.28875 -1.3963,0.5275 -1.875,0.7225 l -2.305,0.70375 -2.715,-0.1375 c -4.0375,-0.195 -7.1575,0.0937 -9.355,0.86 -0.092,0 -0.43,0.0288 -1.015,0.0775 -0.5763,0.0538 -1.0938,0.0788 -1.5625,0.0788 -3.7413,0.0925 -10.02,1.3375 -18.8488,3.73 l -3.1437,0.86 -5.1763,0.2925 c -7.295,0.57625 -13.6225,0.57625 -18.9837,0 -1.055,-0.0875 -1.71,-0.13625 -1.9538,-0.13625 -0.2337,0 -0.4975,0 -0.7812,0 -0.185,0 -0.2738,3.59375 -0.2738,10.78125 0,6.88875 -0.2925,15.9475 -0.8787,27.1675 l 0,2.01125 1.4462,0 c 0.5713,0 3.2275,-0.23875 7.9688,-0.7225 4.75,-0.4775 7.895,-0.82 9.4325,-1.015 8.995,-1.235 15.6062,-2.1925 19.825,-2.87125 2.9687,-0.47875 7.1875,-0.86375 12.6562,-1.1525 3.345,0 5.7863,-0.0975 7.3238,-0.2925 1.3375,-0.0888 2.4462,-0.0888 3.32,0 1.7187,0.3025 3.585,0.87875 5.6062,1.7375 l 1.5813,0.56625 c 0.089,0 0.1562,-0.0875 0.1962,-0.2725 0.049,-0.19625 0.1213,-0.5325 0.215,-1.01625 0.1025,-0.47875 0.2,-1.10375 0.2925,-1.875 0.1025,-0.76625 0.2438,-1.72375 0.43,-2.87125 0.2825,-2.00125 0.4288,-6.60125 0.4288,-13.78875 0,-5.55625 0.049,-9.10625 0.1562,-10.645 0,-2.30375 0.099,-5.2725 0.2938,-8.90625 z m -0.1563,-50.3125 -0.1375,-4.31625 c -0.7712,0.28875 -1.635,0.57625 -2.5975,0.86 l -2.4412,0.85875 -2.1488,-0.13625 c -4.0225,-0.28375 -7.475,0 -10.3512,0.85875 -3.8275,1.25 -10.6838,2.4025 -20.5662,3.4575 -2.2951,0.18625 -4.1113,0.5175 -5.4488,0.99625 -3.8437,1.25 -7.2463,2.0025 -10.215,2.24625 -2.9688,0.23375 -6.9487,0.1125 -11.9338,-0.37125 -0.2887,0 -0.5562,-0.025 -0.8012,-0.0788 -0.2338,-0.0488 -0.4488,-0.0775 -0.6438,-0.0775 -0.1862,0 -0.3712,-0.02 -0.5662,-0.0588 -0.1863,-0.0488 -0.3275,-0.0775 -0.43,-0.0775 -0.092,0 -0.1913,0 -0.2938,0 l -0.1362,0 c 0,2.30375 -0.049,4.79875 -0.1362,7.48 -0.2888,13.2175 -0.5276,22.4175 -0.7225,27.5975 l 0,3.59375 1.7187,0 c 1.1562,0 8.8275,-1.3375 23.0075,-4.02375 11.4937,-2.10875 19.355,-3.6425 23.5737,-4.60875 1.8213,-0.47875 3.6913,-0.5275 5.6063,-0.1375 2.0162,0.28875 4.745,0.81625 8.1825,1.5825 2.6962,0.66375 4.375,1.05 5.04,1.1525 0.195,0.0925 0.4337,0.16625 0.7225,0.215 0.2825,0.0388 0.5175,0.0875 0.7025,0.13625 0.1962,0.0538 0.3912,0.1275 0.5862,0.215 l 0.5863,0 0,-16.52375 c 0,-12.265 -0.054,-19.20875 -0.1563,-20.84 z m -5.45,-58.2225 c -0.8737,-0.4775 -1.7862,-0.67375 -2.7337,-0.585 -0.1075,0 -0.4987,0.0287 -1.1725,0.0775 -0.6638,0.0538 -1.67,0.1075 -3.0075,0.15625 -1.3425,0.0387 -2.49,0.0588 -3.4375,0.0588 -4.5062,0 -7.4312,0.0975 -8.7688,0.2925 -6.4212,0.48375 -14.5225,1.5825 -24.2975,3.30125 -5.85,0.96625 -9.4437,1.68 -10.7812,2.14875 -3.8425,1.445 -6.24,2.21625 -7.1875,2.30375 l -1.015,0.15625 0,7.1875 c 0,0.46875 -0.074,4.54125 -0.215,12.2075 -0.1475,7.67125 -0.2638,13.80375 -0.3525,18.39875 l 0,6.19125 1.875,0 c 1.4312,0 4.6387,-0.625 9.63,-1.875 6.1325,-1.3375 15.1362,-3.4475 27.0112,-6.32875 5.3613,-1.235 9.58,-2.00125 12.6563,-2.30375 1.7187,-0.18125 5.3562,0.4975 10.9175,2.03125 2.5887,0.46875 4.0825,0.75625 4.4725,0.85875 l 1.7187,0.43 0,-8.0475 c 0,-2.21125 -0.195,-10.98125 -0.585,-26.3075 -0.1862,-3.165 -0.2737,-4.84375 -0.2737,-5.04 -0.6788,-2.3925 -2.1638,-4.165 -4.4538,-5.3125 z m 2.5788,-19.70625 c 1.25,-0.18125 2.2075,-0.1275 2.8712,0.15625 1.9138,0.77125 4.7901,2.63625 8.6326,5.605 1.235,0.9525 2.1924,1.5775 2.8712,1.875 1.9137,0.66375 4.2087,1.81125 6.895,3.4375 4.5012,2.88125 6.4688,5.9475 5.8975,9.19875 -0.2875,1.44625 -1.0537,3.8975 -2.3037,7.34375 -0.665,1.63125 -1.0938,4.3125 -1.29,8.0475 -0.5763,7.95875 -1.0538,21.465 -1.445,40.5275 0,8.81875 -0.093,15.33125 -0.2738,19.55 0,4.3125 0.044,7.04625 0.1375,8.20375 0.8587,12.93 2.92,32.3825 6.1912,58.35875 0.5713,4.99125 0.8588,8.34 0.8588,10.05875 -0.2875,7.1 -2.2063,14.57125 -5.7612,22.4225 -0.5763,1.3425 -1.2888,2.3975 -2.1488,3.16375 -4.5062,4.5075 -8.4863,6.7575 -11.9338,6.7575 -1.1474,0 -2.1575,-0.42875 -3.0275,-1.28875 -0.7562,-0.76625 -2.4312,-3.735 -5.0187,-8.90625 -3.9363,-8.05625 -6.1863,-12.275 -6.7575,-12.65625 -0.2888,-0.2825 -2.54,-0.14125 -6.7588,0.43 -1.0537,0 -7.8125,0.5275 -20.2725,1.58125 -11.5925,0.86 -18.3937,1.29 -20.4112,1.29 -7.475,-0.37625 -11.7375,-0.615 -12.7925,-0.7225 -0.6638,-0.0888 -1.48,-0.1375 -2.4413,-0.1375 -0.5762,0 -0.86,0.0975 -0.86,0.29375 0,0.0925 -0.029,0.33125 -0.078,0.7225 -0.054,0.38 -0.1275,0.9275 -0.2149,1.64 -0.093,0.7175 -0.19,1.3675 -0.2925,1.95375 0,1.045 -0.2351,2.52875 -0.7038,4.4525 -0.9663,3.4525 -2.9837,4.41 -6.055,2.87125 -1.24,-0.57125 -2.5775,-1.81625 -4.0225,-3.73 -2.6863,-4.32125 -4.6,-9.165 -5.7425,-14.53125 -0.195,-1.1425 -0.2925,-2.915 -0.2925,-5.3125 0,-2.87625 0.4337,-6.8075 1.3075,-11.7975 0.86,-4.595 1.475,-9.71625 1.8562,-15.37125 1.055,-13.89125 1.7238,-27.5 2.0113,-40.82 0,-1.5325 0.025,-4.21875 0.079,-8.04625 0.049,-3.83875 0.1213,-6.43125 0.215,-7.77375 0.088,-2.77375 0.1363,-11.1575 0.1363,-25.15625 -0.093,-12.65625 -0.1863,-19.55625 -0.2738,-20.70375 -0.9662,-7.75875 -2.26,-13.70125 -3.8862,-17.83125 -0.9675,-2.29 -1.69,-3.6775 -2.1688,-4.16 -1.7187,-1.915 -2.2412,-3.97 -1.5625,-6.1725 0.2838,-1.055 1.1425,-1.875 2.5788,-2.46125 0.5713,-0.18 1.645,-0.2725 3.2225,-0.2725 1.5875,0 2.91,0.0925 3.965,0.2725 2.7738,0.67875 5.215,1.73375 7.3237,3.165 l 1.1525,0.87875 0.8601,0 c 3.0712,-0.39125 9.7312,-1.5875 19.98,-3.59375 11.69,-2.305 23.1937,-5.27875 34.5112,-8.92625 6.6112,-2.1975 11.69,-3.49625 15.235,-3.88625 z m -162.735,-48.008754 c 1.4463,-0.4775 3.17,-0.42875 5.1763,0.15625 3.0712,1.24125 6.5725,3.19875 10.5075,5.88 0.3762,0.2875 1.0212,0.6975 1.9337,1.23 0.9088,0.5225 1.465,0.87875 1.66,1.07375 4.5025,2.305 7.1388,5.3275 7.91,9.0625 0.2838,1.055 0.1863,2.58875 -0.2925,4.59 -1.1625,4.7025 -1.885,7.91 -2.1675,9.62875 -0.9525,5.186254 -1.67,12.950004 -2.1487,23.301254 -0.092,1.5375 -0.3075,5.89875 -0.645,13.08625 -0.3413,7.1875 -0.5075,11.015 -0.5075,11.48375 l 0,0.86 0.1362,0 8.6338,-2.14875 c 5.7512,-1.43125 9.6875,-2.26625 11.7962,-2.5 2.11,-0.24375 4.2087,-0.18125 6.3088,0.195 5.5562,1.1625 9.5899,2.35875 12.0899,3.59375 0.8588,0.39125 1.7188,1.01625 2.5775,1.875 0.6738,0.67875 1.1575,1.30375 1.4463,1.875 0.4775,1.24 0.4775,2.1975 0,2.87125 -0.7725,1.3425 -2.6913,2.78375 -5.7625,4.31625 -0.9513,0.57625 -2.2413,1.00625 -3.8663,1.28875 -6.3287,1.34375 -16.25,2.8275 -29.7662,4.45375 l -4.59,0.43 c -0.1075,0.195 -0.3713,5.185 -0.8,14.96 -0.43,9.76625 -0.6013,14.7025 -0.5088,14.805 0.87,0.28875 1.7825,0.67375 2.735,1.1525 4.4138,1.91375 9.6875,4.01875 15.82,6.30875 4.79,1.5375 9.7263,4.31625 14.805,8.34 2.3925,1.91375 4.165,3.59375 5.3125,5.03875 1.25,1.71875 2.0163,4.21375 2.305,7.48 l 0.1363,2.0125 -0.86,3.73 c -0.6638,2.49 -1.0488,3.785 -1.1513,3.8875 -0.7725,0.85875 -2.11,1.57625 -4.0237,2.1475 -0.5763,0.0937 -1.485,0.0937 -2.735,0 -1.3425,-0.195 -2.3,-0.2925 -2.8713,-0.2925 l -1.1512,0 -1.7188,-1.42625 c -2.305,-1.82125 -5.66,-5.175 -10.0587,-10.05875 -1.6313,-1.82125 -3.2575,-3.78875 -4.8838,-5.8975 -4.4137,-5.46875 -7.8662,-9.3025 -10.3512,-11.50375 -0.9663,-0.9625 -1.5425,-1.44625 -1.7375,-1.44625 -0.1863,0.30375 -0.3275,20.62 -0.43,60.9575 0,8.6225 -0.03,17.51 -0.079,26.66 -0.039,9.155 -0.088,16.1275 -0.1362,20.9175 -0.054,4.795 -0.079,7.28625 -0.079,7.48125 -0.093,2.2025 -0.9512,5.5075 -2.5775,9.92125 -1.8262,4.795 -3.5062,8.00375 -5.0387,9.62875 -1.1475,1.1475 -2.3925,1.86625 -3.7313,2.14875 l -0.8587,0.1563 -1.2888,-1.3088 c -1.8262,-1.71875 -3.3162,-3.4425 -4.4737,-5.175 -0.9513,-1.43125 -2.1238,-4.01375 -3.515,-7.75375 -1.3963,-3.73625 -2.3238,-6.8025 -2.7925,-9.2 -0.5863,-2.77375 -0.3038,-6.70375 0.8587,-11.79625 0.087,-0.28375 0.1613,-0.59125 0.215,-0.91875 0.049,-0.33625 0.1225,-0.7225 0.215,-1.1525 0.088,-0.42875 0.1363,-0.6925 0.1363,-0.8 0,-0.18125 0.097,-0.70375 0.2937,-1.5625 0.195,-0.86875 0.3363,-1.5925 0.4288,-2.16875 2.8762,-12.93875 5.1275,-35.94125 6.7587,-69.00375 0.8588,-14.8525 1.2888,-25.00875 1.2888,-30.46875 l 0,-0.7225 -1.7188,3.0275 c -2.8812,5.26375 -6.285,10.86875 -10.215,16.81625 -2.8662,4.31125 -7.1775,10.15625 -12.93,17.53875 -4.795,6.22625 -10.21,11.7775 -16.25,16.66125 -3.163698,2.5 -7.089998,5.0925 -11.777498,7.7725 -10.7412,6.13375 -19.7062,10.49875 -26.8937,13.08625 -2.4913,0.9525 -3.975,1.32875 -4.4538,1.1325 l -1.2887,-0.85875 -0.43,-0.43 1.2887,-1.28875 c 0.6738,-0.86 1.49,-1.5725 2.4425,-2.14875 3.1638,-2.695 10.0188,-8.975 20.5663,-18.8475 7.665,-7.275 13.4612,-12.88125 17.3825,-16.81625 l 5.176198,-5.02 5.7613,-9.19875 c 1.5237,-2.3925 4.6087,-7.2125 9.2575,-14.45375 4.6487,-7.23625 7.9787,-12.44125 10,-15.605 2.6812,-4.20375 4.36,-7.1725 5.0387,-8.90625 1.6263,-3.93125 2.725,-7.04125 3.3013,-9.33625 0.2837,-0.76625 0.5475,-1.58125 0.7812,-2.44125 0.2438,-0.86875 0.415,-1.5425 0.5075,-2.01125 0.089,-0.47875 0.089,-0.7225 0,-0.7225 -1.8262,0.185 -3.8375,0.46875 -6.035,0.85875 -9.2087,1.1475 -15.9125,1.91375 -20.1175,2.305 -1.7325,0.185 -4.37,0.27375 -7.91,0.27375 -7.294998,0 -12.709998,-0.57125 -16.249998,-1.71875 -0.7712,-0.19625 -1.7287,-0.865 -2.8712,-2.0125 -1.9138,-2.10875 -3.0175,-3.6425 -3.3,-4.60875 -0.1075,-0.46875 -0.1075,-0.80125 0,-0.99625 0.4687,-0.67375 1.425,-1.10375 2.8712,-1.28875 1.7188,-0.39125 3.6813,-0.58625 5.8975,-0.58625 0.5713,0 6.7975,-0.81125 18.672498,-2.44125 11.6013,-1.53375 21.8063,-3.06625 30.625,-4.59 0.5713,-0.1025 1.1913,-0.2 1.855,-0.29375 0.6738,-0.0875 1.2113,-0.185 1.6025,-0.2925 l 0.5663,0 c 0.088,0 0.088,-4.14 0,-12.42125 -0.094,-8.29125 -0.1913,-13.63875 -0.2938,-16.03625 -0.38,-9.6725 -0.9075,-17.52875 -1.5812,-23.57375 -0.094,-0.571254 -0.21,-1.386254 -0.3525,-2.441254 -0.1463,-1.055 -0.2138,-1.68 -0.2138,-1.875 -0.4837,-3.93125 -1.3975,-7.715 -2.735,-11.3475 -0.4837,-1.445 -1.055,-3.2225 -1.7187,-5.3325 -0.39,-1.235 -0.7763,-2.14875 -1.1525,-2.73375 l -0.5863,-1.29 0,-1.15125 c 0.2988,-3.345 1.495,-5.3575 3.5938,-6.03625 z m 72.325,-51.60125 c -6.6162,-0.2825 -13.5163,-0.185 -20.7038,0.29375 -37.9587,2.5775 -71.7375,15.75625 -101.347498,39.53125 -13.0375,10.44375 -24.7749,22.3725 -35.215,35.78125 -22.1387,28.750004 -34.5012,61.093754 -37.09,97.031254 -1.0537,14.765 -0.58,28.8575 1.4263,42.265 4.6975,33.16375 18.5012,63.69125 41.4063,91.5825 10.0637,12.07 20.7037,22.46505 31.9137,31.19125 26.352498,20.8838 56.113698,33.2913 89.277498,37.2263 20.5075,2.3925 40.3913,1.6262 59.6487,-2.305 35.8451,-6.9913 68.1451,-25.0088 96.8951,-54.04255 31.6112,-32.3925 49.58,-69.2875 53.9062,-110.68375 2.485,-23.29125 0.995,-45.625 -4.4737,-66.9925 -7.1875,-28.17375 -21.4638,-53.955 -42.8313,-77.343754 -6.03,-6.415 -10.5812,-10.9225 -13.6525,-13.515 -10.2637,-9.385 -21.0888,-17.53 -32.48,-24.43375 -26.1725,-15.80625 -55.0687,-24.33625 -86.68,-25.58625 z M 194.88118,0.11756612 c 5.6501,-0.195 12.3638,-0.14625 20.1375,0.1375 14.0863,0.85874998 27.0213,2.77249998 38.8075,5.74124998 27.2125,6.8124999 52.4125,19.5124999 75.6063,38.1062499 13.32,10.7325 25.395,22.75375 36.23,36.07375 25.3912,31.913754 39.4237,67.998754 42.11,108.242504 0.7662,10.835 0.7225,21.3275 -0.1375,31.48375 -2.9688,40.3525 -17.6313,76.915 -43.9838,109.6875 -10.7325,13.5162 -22.9987,25.635 -36.7975,36.3675 -31.8262,24.7263 -67.1437,38.6725 -105.9562,41.8363 -27.8813,2.29 -54.5225,-0.6838 -79.9225,-8.9263 -28.2713,-9.1937 -53.901298,-25 -76.893798,-47.4213 -13.8037,-13.32995 -25.3525,-27.4712 -34.6487,-42.42245 -17.1638,-27.5 -26.7925001,-57.73375 -28.88750007,-90.7025 -0.7713,-11.01625 -0.7225,-21.74375 0.1375,-32.1875 C 1.7374819,172.22757 4.0311819,159.00007 7.5761819,146.44632 15.726182,118.17882 30.242482,92.637566 51.131182,69.825066 c 7.29,-7.95375 14.2875,-14.9025 20.9963,-20.84 14.0875,-12.35375 28.559998,-22.12875 43.417498,-29.31625 8.135,-4.02375 15.845,-7.23125 23.125,-9.62875 17.3537,-5.7524999 36.0937,-9.06249988 56.2112,-9.92249988 z"
     inkscape:connector-curvature="0" /></svg>