<?xml version="1.0" encoding="UTF-8" standalone="no"?>
<!-- Created with Inkscape (http://www.inkscape.org/) -->

<svg
   xmlns:dc="http://purl.org/dc/elements/1.1/"
   xmlns:cc="http://creativecommons.org/ns#"
   xmlns:rdf="http://www.w3.org/1999/02/22-rdf-syntax-ns#"
   xmlns:svg="http://www.w3.org/2000/svg"
   xmlns="http://www.w3.org/2000/svg"
   xmlns:sodipodi="http://sodipodi.sourceforge.net/DTD/sodipodi-0.dtd"
   xmlns:inkscape="http://www.inkscape.org/namespaces/inkscape"
   width="56.568542"
   height="56.568542"
   id="svg2"
   version="1.1"
   inkscape:version="0.48.5 r10040"
   sodipodi:docname="black_pawn.svg">
  <defs
     id="defs4" />
  <sodipodi:namedview
     id="base"
     pagecolor="#ffffff"
     bordercolor="#666666"
     borderopacity="1.0"
     inkscape:pageopacity="0.0"
     inkscape:pageshadow="2"
     inkscape:zoom="1"
     inkscape:cx="28.284271"
     inkscape:cy="28.284271"
     inkscape:document-units="px"
     inkscape:current-layer="layer1"
     showgrid="false"
     inkscape:window-width="1920"
     inkscape:window-height="1024"
     inkscape:window-x="0"
     inkscape:window-y="0"
     inkscape:window-maximized="1"
     fit-margin-top="0"
     fit-margin-left="0"
     fit-margin-right="0"
     fit-margin-bottom="0" />
  <metadata
     id="metadata7">
    <rdf:RDF>
      <cc:Work
         rdf:about="">
        <dc:format>image/svg+xml</dc:format>
        <dc:type
           rdf:resource="http://purl.org/dc/dcmitype/StillImage" />
        <dc:title />
      </cc:Work>
    </rdf:RDF>
  </metadata>
  <g
     inkscape:label="Layer 1"
     inkscape:groupmode="layer"
     id="layer1"
     transform="translate(-771.66703,-31.191184)">
    <g
       id="g4020">
      <path
         sodipodi:type="arc"
         style="color:#000000;fill:#000000;fill-opacity:1;fill-rule:nonzero;stroke:none;stroke-width:2;marker:none;visibility:visible;display:inline;overflow:visible;enable-background:accumulate"
         id="path4010"
         sodipodi:cx="354.05847"
         sodipodi:cy="330.60818"
         sodipodi:rx="28.284271"
         sodipodi:ry="28.284271"
         d="m 382.34274,330.60818 c 0,15.62098 -12.6633,28.28428 -28.28427,28.28428 -15.62097,0 -28.28427,-12.6633 -28.28427,-28.28428 0,-15.62097 12.6633,-28.28427 28.28427,-28.28427 15.62097,0 28.28427,12.6633 28.28427,28.28427 z"
         transform="translate(445.89283,-271.13273)" />
      <path
         d="m 816.5513,46.835455 -14.12,0 0.32,-0.12 c -0.36,-1.24 -1.4,-3.2 -2.32,-4.68 l -3.56,1.12 c 0.64,1.12 1.32,2.52 1.8,3.68 l -15.44,0 0,3.52 33.32,0 0,-3.52 m -17.92,12.4 c -1.16,-1.08 -3.36,-2.64 -5.2,-3.92 0.56,-1.16 1.08,-2.4 1.48,-3.72 l -3.68,-0.8 c -1.52,4.95999 -4.64,9.2 -8.72,11.72 0.84,0.56 2.36,1.8 2.96,2.44 2.4,-1.76 4.6,-4.04 6.36,-6.84 1.72,1.24 3.56,2.76 4.56,3.76 l 2.24,-2.64 m 19.08,6.92 -16.04,0 0,-2.64 -0.12,0 c 1.84,-1.32 3.56,-3.04 5.04,-5 2.8,2 5.96,4.48 7.56,6.08 l 2.48,-2.64 c -1.84,-1.72 -5.32,-4.28 -8.2,-6.2 0.68,-1.24 1.32,-2.6 1.8,-4.04 l -3.68,-0.8 c -1.48,4.51999 -4.6,8.32 -8.6,10.56 0.72,0.48 1.76,1.36 2.48,2.04 l -2.6,0 0,2.64 -15.64,0 0,3.56 15.64,0 0,9.2 3.84,0 0,-9.2 16.04,0 0,-3.56"
         style="font-size:40px;font-style:normal;font-variant:normal;font-weight:500;font-stretch:normal;text-align:start;line-height:125%;letter-spacing:0px;word-spacing:0px;writing-mode:lr-tb;text-anchor:start;fill:#ffffff;fill-opacity:1;stroke:none;font-family:Noto Sans T Chinese;-inkscape-font-specification:Noto Sans T Chinese Medium"
         id="path3920"
         inkscape:connector-curvature="0" />
    </g>
  </g>
</svg>
