<?xml version="1.0" encoding="UTF-8" standalone="no"?>
<!-- Created with Inkscape (http://www.inkscape.org/) -->

<svg
   xmlns:dc="http://purl.org/dc/elements/1.1/"
   xmlns:cc="http://creativecommons.org/ns#"
   xmlns:rdf="http://www.w3.org/1999/02/22-rdf-syntax-ns#"
   xmlns:svg="http://www.w3.org/2000/svg"
   xmlns="http://www.w3.org/2000/svg"
   xmlns:sodipodi="http://sodipodi.sourceforge.net/DTD/sodipodi-0.dtd"
   xmlns:inkscape="http://www.inkscape.org/namespaces/inkscape"
   width="56.568542"
   height="56.568542"
   id="svg2"
   version="1.1"
   inkscape:version="0.48.5 r10040"
   sodipodi:docname="black_elephant.svg">
  <defs
     id="defs4" />
  <sodipodi:namedview
     id="base"
     pagecolor="#ffffff"
     bordercolor="#666666"
     borderopacity="1.0"
     inkscape:pageopacity="0.0"
     inkscape:pageshadow="2"
     inkscape:zoom="14.919953"
     inkscape:cx="28.284271"
     inkscape:cy="28.284271"
     inkscape:document-units="px"
     inkscape:current-layer="layer1"
     showgrid="false"
     inkscape:window-width="1920"
     inkscape:window-height="1024"
     inkscape:window-x="0"
     inkscape:window-y="0"
     inkscape:window-maximized="1"
     fit-margin-top="0"
     fit-margin-left="0"
     fit-margin-right="0"
     fit-margin-bottom="0" />
  <metadata
     id="metadata7">
    <rdf:RDF>
      <cc:Work
         rdf:about="">
        <dc:format>image/svg+xml</dc:format>
        <dc:type
           rdf:resource="http://purl.org/dc/dcmitype/StillImage" />
        <dc:title />
      </cc:Work>
    </rdf:RDF>
  </metadata>
  <g
     inkscape:label="Layer 1"
     inkscape:groupmode="layer"
     id="layer1"
     transform="translate(-543.63135,-31.191184)">
    <g
       id="g4036">
      <path
         sodipodi:type="arc"
         style="color:#000000;fill:#000000;fill-opacity:1;fill-rule:nonzero;stroke:none;stroke-width:2;marker:none;visibility:visible;display:inline;overflow:visible;enable-background:accumulate"
         id="path4002"
         sodipodi:cx="354.05847"
         sodipodi:cy="330.60818"
         sodipodi:rx="28.284271"
         sodipodi:ry="28.284271"
         d="m 382.34274,330.60818 c 0,15.62098 -12.6633,28.28428 -28.28427,28.28428 -15.62097,0 -28.28427,-12.6633 -28.28427,-28.28428 0,-15.62097 12.6633,-28.28427 28.28427,-28.28427 15.62097,0 28.28427,12.6633 28.28427,28.28427 z"
         transform="translate(217.85715,-271.13273)" />
      <path
         d="m 562.99692,51.216109 8.20001,0 0,3.72 -8.20001,0 0,-3.72 m 11.64001,-5.44 c -0.64,0.92 -1.32001,1.88 -2.08001,2.68 l -9.15999,0 c 0.99999,-0.84 2,-1.76 2.83999,-2.68 l 8.40001,0 m 8.71999,9.16 -8.83999,0 0,-3.72 8.83999,0 0,3.72 m 1.48,3.2 c -2.23999,1.4 -5.76,3.2 -8.75999,4.48 -1.16,-1.44 -2.64001,-2.84 -4.48001,-4.12 0.44,-0.24 0.84001,-0.52 1.24,-0.76 l 14.2,0 0,-9.28 -10.16,0 c 1.16,-1.28 2.16001,-2.72 2.96,-4.04 l -2.52,-1.64 -0.6,0.16 -8,0 c 0.56,-0.68 1.04001,-1.28 1.48001,-1.96 l -3.88001,-0.8 c -2.11999,3.24 -5.96,7.08001 -11.2,9.84 0.8,0.52 1.92001,1.8 2.48,2.6 0.68,-0.4 1.28001,-0.76 1.92001,-1.2 l 0,6.32 8.03999,0 c -3.31999,1.32 -7.4,2.48 -10.88,3.08 0.68,0.64 1.56001,1.84 2,2.52 3,-0.68 6.68001,-1.92 9.84001,-3.32 0.71999,0.44 1.36,0.92 1.91999,1.4 -3.67999,2.12 -9.52,3.96 -14.35999,4.84 0.63999,0.68 1.56,1.84 2.03999,2.64 4.6,-1.08 10.24001,-3.2 14.24,-5.64 0.44,0.48 0.84001,1 1.16001,1.44 -4.16,3.24 -11.76001,6.2 -18.08001,7.6 0.72,0.64 1.64001,1.96 2.12,2.76 5.76,-1.52 12.64001,-4.44 17.28,-7.84 1,2.64 0.48,4.88 -0.96,5.8 -0.79999,0.6 -1.68,0.68 -2.76,0.68 -0.95999,0 -2.4,-0.04 -3.84,-0.2 0.64,1 0.96001,2.4 1,3.36 1.32,0.08 2.52001,0.12 3.48001,0.12 1.83999,-0.04 3,-0.28 4.47999,-1.24 2.84,-1.79999 3.68,-6.2 1.36,-10.72 0.52,-0.2 1.12001,-0.4 1.72,-0.64 1.72,3.92 4.88001,8.56001 9.48,10.96 0.52,-0.96 1.68001,-2.52 2.48,-3.16 -4.35999,-1.79999 -7.32,-5.6 -8.96,-9.04 1.96,-0.84 3.88001,-1.8 5.6,-2.72 l -3.08,-2.28"
         style="font-size:40px;font-style:normal;font-variant:normal;font-weight:500;font-stretch:normal;text-align:start;line-height:125%;letter-spacing:0px;word-spacing:0px;writing-mode:lr-tb;text-anchor:start;fill:#ffffff;fill-opacity:1;stroke:none;font-family:Noto Sans T Chinese;-inkscape-font-specification:Noto Sans T Chinese Medium"
         id="path3856"
         inkscape:connector-curvature="0" />
    </g>
  </g>
</svg>
