<?xml version="1.0" encoding="UTF-8" standalone="no"?>
<!-- Created with Inkscape (http://www.inkscape.org/) -->

<svg
   xmlns:dc="http://purl.org/dc/elements/1.1/"
   xmlns:cc="http://creativecommons.org/ns#"
   xmlns:rdf="http://www.w3.org/1999/02/22-rdf-syntax-ns#"
   xmlns:svg="http://www.w3.org/2000/svg"
   xmlns="http://www.w3.org/2000/svg"
   xmlns:sodipodi="http://sodipodi.sourceforge.net/DTD/sodipodi-0.dtd"
   xmlns:inkscape="http://www.inkscape.org/namespaces/inkscape"
   width="56.568542"
   height="56.568542"
   id="svg2"
   version="1.1"
   inkscape:version="0.48.5 r10040"
   sodipodi:docname="black_chariot.svg">
  <defs
     id="defs4" />
  <sodipodi:namedview
     id="base"
     pagecolor="#ffffff"
     bordercolor="#666666"
     borderopacity="1.0"
     inkscape:pageopacity="0.0"
     inkscape:pageshadow="2"
     inkscape:zoom="14.919953"
     inkscape:cx="28.284271"
     inkscape:cy="28.284271"
     inkscape:document-units="px"
     inkscape:current-layer="layer1"
     showgrid="false"
     inkscape:window-width="1920"
     inkscape:window-height="1024"
     inkscape:window-x="0"
     inkscape:window-y="0"
     inkscape:window-maximized="1"
     fit-margin-top="0"
     fit-margin-left="0"
     fit-margin-right="0"
     fit-margin-bottom="0" />
  <metadata
     id="metadata7">
    <rdf:RDF>
      <cc:Work
         rdf:about="">
        <dc:format>image/svg+xml</dc:format>
        <dc:type
           rdf:resource="http://purl.org/dc/dcmitype/StillImage" />
        <dc:title />
      </cc:Work>
    </rdf:RDF>
  </metadata>
  <g
     inkscape:label="Layer 1"
     inkscape:groupmode="layer"
     id="layer1"
     transform="translate(-429.70275,-31.191184)">
    <g
       id="g4044">
      <path
         sodipodi:type="arc"
         style="color:#000000;fill:#000000;fill-opacity:1;fill-rule:nonzero;stroke:none;stroke-width:2;marker:none;visibility:visible;display:inline;overflow:visible;enable-background:accumulate"
         id="path3998"
         sodipodi:cx="354.05847"
         sodipodi:cy="330.60818"
         sodipodi:rx="28.284271"
         sodipodi:ry="28.284271"
         d="m 382.34274,330.60818 c 0,15.62098 -12.6633,28.28428 -28.28427,28.28428 -15.62097,0 -28.28427,-12.6633 -28.28427,-28.28428 0,-15.62097 12.6633,-28.28427 28.28427,-28.28427 15.62097,0 28.28427,12.6633 28.28427,28.28427 z"
         transform="translate(103.92855,-271.13273)" />
      <path
         inkscape:connector-curvature="0"
         id="path4014"
         style="font-size:40px;font-style:normal;font-variant:normal;font-weight:500;font-stretch:normal;text-align:start;line-height:125%;letter-spacing:0px;word-spacing:0px;writing-mode:lr-tb;text-anchor:start;fill:#ffffff;fill-opacity:1;stroke:none;font-family:Noto Sans T Chinese;-inkscape-font-specification:Noto Sans T Chinese Medium"
         d="m 475.60702,67.075455 -13.68,0 0,-5.28 10.36001,0 0,-3.56 -10.36001,0 0,-5.64 -3.95999,0 0,5.64 -9.20001,0 c 1.56,-2.27999 3.12001,-4.88 4.6,-7.72 l 21.48001,0 0,-3.56 -19.72001,0 c 0.8,-1.6 1.52001,-3.2 2.16001,-4.84 l -4.28001,-1.12 c -0.67999,2 -1.48,4.04001 -2.32,5.96 l -9.64,0 0,3.56 7.96,0 c -1.19999,2.36 -2.24,4.16 -2.8,4.92 -1.07999,1.76 -1.88,2.84 -2.88,3.12 0.52,1.04 1.20001,3 1.4,3.84 0.4,-0.4 2.12001,-0.6 4.44,-0.6 l 8.80001,0 0,5.28 -17.60001,0 0,3.64 17.60001,0 0,7.24 3.95999,0 0,-7.24 13.68,0 0,-3.64" />
    </g>
  </g>
</svg>
