<?xml version="1.0" encoding="UTF-8" standalone="no"?>
<!-- Created with Inkscape (http://www.inkscape.org/) -->

<svg
   xmlns:dc="http://purl.org/dc/elements/1.1/"
   xmlns:cc="http://creativecommons.org/ns#"
   xmlns:rdf="http://www.w3.org/1999/02/22-rdf-syntax-ns#"
   xmlns:svg="http://www.w3.org/2000/svg"
   xmlns="http://www.w3.org/2000/svg"
   xmlns:sodipodi="http://sodipodi.sourceforge.net/DTD/sodipodi-0.dtd"
   xmlns:inkscape="http://www.inkscape.org/namespaces/inkscape"
   width="56.568542"
   height="56.568542"
   id="svg2"
   version="1.1"
   inkscape:version="0.48.5 r10040"
   sodipodi:docname="red_pawn.svg">
  <defs
     id="defs4" />
  <sodipodi:namedview
     id="base"
     pagecolor="#ffffff"
     bordercolor="#666666"
     borderopacity="1.0"
     inkscape:pageopacity="0.0"
     inkscape:pageshadow="2"
     inkscape:zoom="14.919953"
     inkscape:cx="28.28427"
     inkscape:cy="28.284272"
     inkscape:document-units="px"
     inkscape:current-layer="layer1"
     showgrid="false"
     inkscape:window-width="1920"
     inkscape:window-height="1024"
     inkscape:window-x="0"
     inkscape:window-y="0"
     inkscape:window-maximized="1"
     fit-margin-top="0"
     fit-margin-left="0"
     fit-margin-right="0"
     fit-margin-bottom="0" />
  <metadata
     id="metadata7">
    <rdf:RDF>
      <cc:Work
         rdf:about="">
        <dc:format>image/svg+xml</dc:format>
        <dc:type
           rdf:resource="http://purl.org/dc/dcmitype/StillImage" />
        <dc:title />
      </cc:Work>
    </rdf:RDF>
  </metadata>
  <g
     inkscape:label="Layer 1"
     inkscape:groupmode="layer"
     id="layer1"
     transform="translate(-372.73848,-31.191184)">
    <g
       id="g4072">
      <path
         transform="translate(46.964278,-271.13273)"
         d="m 382.34274,330.60818 c 0,15.62098 -12.6633,28.28428 -28.28427,28.28428 -15.62097,0 -28.28427,-12.6633 -28.28427,-28.28428 0,-15.62097 12.6633,-28.28427 28.28427,-28.28427 15.62097,0 28.28427,12.6633 28.28427,28.28427 z"
         sodipodi:ry="28.284271"
         sodipodi:rx="28.284271"
         sodipodi:cy="330.60818"
         sodipodi:cx="354.05847"
         id="path3996"
         style="color:#000000;fill:#ff0000;fill-opacity:1;fill-rule:nonzero;stroke:none;stroke-width:2;marker:none;visibility:visible;display:inline;overflow:visible;enable-background:accumulate"
         sodipodi:type="arc" />
      <path
         d="m 394.64813,68.324568 c -2.47999,2.4 -7.36,5.48 -11.36,7.16 0.88,0.76 2.04001,2.04 2.64,2.8 4,-1.88 8.88001,-4.92 12.12,-7.68 l -3.4,-2.28 m 9.6,2.52 c 3.84,2.08 8.96001,5.28 11.44,7.28 l 2.96,-2.84 c -2.67999,-2 -7.96,-4.96 -11.63999,-6.88 l -2.76001,2.44 m -10.52,-15.12 12.56,0 0,8.32 -12.56,0 0,-8.32 m 16.36,8.32 0,-8.32 6.8,0 0,-3.48 -23.16,0 0,-5.04 c 7.32,-0.32 15.40001,-1.04 21.28001,-2.16 l -1.96001,-3.4 c -5.79999,1.2 -15.12,2 -23.12,2.4 l 0,20 -6.8,0 0,3.48 35.92,0 0,-3.48 -8.96,0"
         style="font-size:40px;font-style:normal;font-variant:normal;font-weight:500;font-stretch:normal;text-align:start;line-height:125%;letter-spacing:0px;word-spacing:0px;writing-mode:lr-tb;text-anchor:start;fill:#ffffff;fill-opacity:1;stroke:none;font-family:Noto Sans T Chinese;-inkscape-font-specification:Noto Sans T Chinese Medium"
         id="path3918"
         inkscape:connector-curvature="0" />
    </g>
  </g>
</svg>
