<?xml version="1.0" encoding="UTF-8" standalone="no"?>
<!-- Created with Inkscape (http://www.inkscape.org/) -->

<svg
   xmlns:dc="http://purl.org/dc/elements/1.1/"
   xmlns:cc="http://creativecommons.org/ns#"
   xmlns:rdf="http://www.w3.org/1999/02/22-rdf-syntax-ns#"
   xmlns:svg="http://www.w3.org/2000/svg"
   xmlns="http://www.w3.org/2000/svg"
   xmlns:xlink="http://www.w3.org/1999/xlink"
   xmlns:sodipodi="http://sodipodi.sourceforge.net/DTD/sodipodi-0.dtd"
   xmlns:inkscape="http://www.inkscape.org/namespaces/inkscape"
   version="1.0"
   width="100.04163"
   height="99.995232"
   id="svg2"
   sodipodi:version="0.32"
   inkscape:version="0.48.4 r9939"
   sodipodi:docname="black_king.svg"
   inkscape:output_extension="org.inkscape.output.svg.inkscape">
  <metadata
     id="metadata11">
    <rdf:RDF>
      <cc:Work
         rdf:about="">
        <dc:format>image/svg+xml</dc:format>
        <dc:type
           rdf:resource="http://purl.org/dc/dcmitype/StillImage" />
        <dc:title></dc:title>
      </cc:Work>
    </rdf:RDF>
  </metadata>
  <sodipodi:namedview
     inkscape:window-height="979"
     inkscape:window-width="1679"
     inkscape:pageshadow="2"
     inkscape:pageopacity="0.0"
     guidetolerance="10.0"
     gridtolerance="10.0"
     objecttolerance="10.0"
     borderopacity="1.0"
     bordercolor="#666666"
     pagecolor="#ffffff"
     id="base"
     inkscape:zoom="0.49"
     inkscape:cx="-24.952466"
     inkscape:cy="-419.88177"
     inkscape:window-x="0"
     inkscape:window-y="42"
     inkscape:current-layer="layer3"
     showgrid="false"
     height="1052.36px"
     width="744px"
     units="mm"
     inkscape:window-maximized="0"
     fit-margin-top="0"
     fit-margin-left="0"
     fit-margin-right="0"
     fit-margin-bottom="0" />
  <defs
     id="defs3">
    <inkscape:perspective
       sodipodi:type="inkscape:persp3d"
       inkscape:vp_x="0 : 526.18109 : 1"
       inkscape:vp_y="0 : 1000 : 0"
       inkscape:vp_z="744.09448 : 526.18109 : 1"
       inkscape:persp3d-origin="372.04724 : 350.78739 : 1"
       id="perspective153" />
    <linearGradient
       id="linearGradient6462">
      <stop
         style="stop-color:black;stop-opacity:1;"
         offset="0"
         id="stop6464" />
      <stop
         style="stop-color:black;stop-opacity:0;"
         offset="1"
         id="stop6466" />
    </linearGradient>
    <linearGradient
       inkscape:collect="always"
       xlink:href="#linearGradient6462"
       id="linearGradient6468"
       x1="24"
       y1="229.36218"
       x2="90"
       y2="229.36218"
       gradientUnits="userSpaceOnUse" />
    <linearGradient
       inkscape:collect="always"
       xlink:href="#linearGradient6462"
       id="linearGradient3442"
       gradientUnits="userSpaceOnUse"
       x1="24"
       y1="229.36218"
       x2="90"
       y2="229.36218" />
  </defs>
  <g
     inkscape:groupmode="layer"
     id="layer1"
     inkscape:label="stones"
     style="display:inline"
     transform="translate(-393.94702,-45.074893)" />
  <g
     inkscape:groupmode="layer"
     id="layer3"
     inkscape:label="pieces"
     style="display:inline"
     transform="translate(-393.94702,-45.074893)">
    <path
       transform="matrix(1.484848,0,0,1.484848,359.3315,-245.4913)"
       sodipodi:type="arc"
       style="fill:#ffeda2;fill-opacity:1;stroke:#000000;stroke-width:3.36734796;stroke-miterlimit:4;stroke-opacity:1;stroke-dasharray:none;display:inline"
       id="path17600"
       sodipodi:cx="57"
       sodipodi:cy="229.36218"
       sodipodi:rx="32"
       sodipodi:ry="32"
       d="m 89,229.36218 c 0,17.67311 -14.326888,32 -32,32 -17.673112,0 -32,-14.32689 -32,-32 0,-17.67311 14.326888,-32 32,-32 17.673112,0 32,14.32689 32,32 z" />
    <path
       style="font-size:64px;font-style:normal;font-variant:normal;font-weight:normal;font-stretch:normal;line-height:100%;writing-mode:lr-tb;text-anchor:start;fill:#000000;fill-opacity:1;stroke:none;display:inline;font-family:AR PL ZenKai Uni"
       d="m 423.65533,97.670433 c 0.24999,0.25002 0.33333,0.958352 0.25,2.125 -0.62501,4.500017 -3,9.750007 -7.125,15.749997 -0.16667,0.16667 -0.25,0.39584 -0.25,0.6875 0.0417,0.16667 0.16667,0.25 0.375,0.25 2.75,-1.12499 6.02083,-5.64582 9.8125,-13.5625 -10e-6,-0.37498 0.45832,-1.37498 1.375,-2.999997 0.16665,-0.416648 0.0833,-0.874981 -0.25,-1.375 -0.66668,-0.791647 -1.31251,-1.374979 -1.9375,-1.75 3.79165,-1.374978 6.24998,-2.229144 7.375,-2.5625 -0.16668,6.750017 -0.45835,11.250017 -0.875,13.499997 -0.75002,3.75001 -0.83335,6.39584 -0.25,7.9375 0.12498,0.29167 0.27082,0.66667 0.4375,1.125 0.29165,0.75 0.60415,1.1875 0.9375,1.3125 0.24998,0.29167 0.52082,0.25 0.8125,-0.125 0.29165,-0.16666 0.64581,-0.66666 1.0625,-1.5 0.24998,-0.625 0.43748,-3.89583 0.5625,-9.8125 -2e-5,-9.416643 0.0833,-14.229138 0.25,-14.437497 -0.0417,-0.04164 -0.0833,-0.06247 -0.125,-0.0625 0.0417,-3.166638 0.10415,-6.687468 0.1875,-10.5625 0.0417,-3.916627 0.43748,-7.187457 1.1875,-9.8125 0.37498,-0.624953 0.47915,-1.208286 0.3125,-1.75 -0.25002,-0.416619 -1.52085,-1.312451 -3.8125,-2.6875 -0.91668,-0.666616 -1.81252,-0.687449 -2.6875,-0.0625 -0.16668,0.166717 -0.12501,0.583383 0.125,1.25 1.29165,1.916714 1.95832,3.875045 2,5.875 0.0417,2.625041 0.0833,5.458371 0.125,8.5 -4.50001,0.875034 -6.79168,1.270867 -6.875,1.1875 -0.37501,-0.374966 -0.25001,-2.895797 0.375,-7.5625 0.37499,-0.874958 -0.58334,-1.874957 -2.875,-3 -0.75001,-0.374955 -1.31251,-0.479122 -1.6875,-0.3125 -0.50001,0.250044 -0.54167,0.687544 -0.125,1.3125 1.04166,1.666708 1.52083,3.687539 1.4375,6.0625 -10e-6,1.916702 -0.27084,3.375034 -0.8125,4.375 -0.37501,0.791699 -0.33334,1.625031 0.125,2.5 0.62499,1.000029 1.27083,1.250029 1.9375,0.75 1.79166,-0.87497 4.62499,-2.020802 8.5,-3.4375 -0.0417,2.50003 -0.10418,5.083361 -0.1875,7.75 -9.62501,2.125023 -15.1875,3.125022 -16.6875,3 -0.5,0.04169 -0.79167,0.250022 -0.875,0.625 -0.125,0.500021 -0.0208,0.916687 0.3125,1.25 0.79167,0.666686 1.79167,1.395852 3,2.1875 0.375,0.166685 0.79166,0.104185 1.25,-0.1875 1.04166,-0.666648 2.14583,-1.24998 3.3125,-1.75 m 18.5,-15.625 c 2.12497,2.250033 3.6458,3.375032 4.5625,3.375 0.54164,0.0417 0.91664,-0.333301 1.125,-1.125 -3e-5,-0.541633 -0.20836,-1.187465 -0.625,-1.9375 -0.7917,-1.04163 -2.41669,-1.708296 -4.875,-2 -0.41669,-0.04163 -0.60419,0.187537 -0.5625,0.6875 -0.0417,0.291703 0.0833,0.625036 0.375,1 m 7.1875,-3.75 c 0.41663,0.625039 0.91663,1.229205 1.5,1.8125 0.62497,0.541704 1.2083,0.791703 1.75,0.75 0.49996,0.0417 0.8333,-0.270796 1,-0.9375 0.0416,-0.416628 -0.12504,-0.979128 -0.5,-1.6875 -0.75004,-0.87496 -1.95837,-1.312459 -3.625,-1.3125 -0.2917,-0.04163 -0.45837,0.145874 -0.5,0.5625 -0.0417,0.291707 0.0833,0.56254 0.375,0.8125 m 1.875,-4.25 c 0.91663,0.916709 3.18746,1.041709 6.8125,0.375 0.74996,-0.374956 1.29162,-0.291623 1.625,0.25 0.12496,0.250043 -0.0625,0.666709 -0.5625,1.25 -3.62504,5.166703 -10.2292,10.583365 -19.8125,16.25 -0.62502,0.375025 -0.66669,0.625025 -0.125,0.75 3.16664,2.5e-5 8.5208,-2.833306 16.0625,-8.5 0.12496,-0.166633 0.27079,-0.291633 0.4375,-0.375 2.24996,-1.874964 4.49996,-3.958296 6.75,-6.25 0.91662,-0.999959 2.10412,-1.937458 3.5625,-2.8125 0.62495,-0.374957 0.85412,-0.749957 0.6875,-1.125 -0.0417,-0.374956 -1.16672,-1.166622 -3.375,-2.375 -0.66671,-0.499953 -1.39588,-0.520787 -2.1875,-0.0625 -0.91671,0.416713 -2.02088,0.750046 -3.3125,1 -1.91671,0.291712 -3.75004,0.520878 -5.5,0.6875 0.62496,-0.541622 1.29163,-1.166621 2,-1.875 0.66663,-0.791619 1.31246,-1.374952 1.9375,-1.75 0.37496,-0.291618 0.52079,-0.708284 0.4375,-1.25 -0.0417,-0.416617 -0.50004,-1.124949 -1.375,-2.125 -0.7917,-0.791614 -1.52087,-1.249947 -2.1875,-1.375 -0.6667,-0.04161 -0.9167,0.333386 -0.75,1.125 0.29163,1.250051 -0.9167,3.520882 -3.625,6.8125 -1.2917,1.500044 -2.7917,3.062542 -4.5,4.6875 -0.41669,0.291707 -0.68753,0.541706 -0.8125,0.75 -0.16669,0.375039 -3e-5,0.562539 0.5,0.5625 0.87497,3.9e-5 3.31247,-1.541626 7.3125,-4.625 m 4.625,21.3125 c 0.49996,11.166677 0.22913,17.229167 -0.8125,18.187497 -0.4167,0.29167 -0.9167,0.35417 -1.5,0.1875 -1.2917,-0.16666 -2.5417,-0.35416 -3.75,-0.5625 -0.5417,-0.0417 -0.7917,0.0833 -0.75,0.375 0.0416,0.29167 0.29163,0.60417 0.75,0.9375 2.99996,2.54167 4.97913,4.54167 5.9375,6 0.66663,0.66667 1.33329,0.70833 2,0.125 1.29162,-1.375 1.95829,-3.8125 2,-7.3125 -0.37504,-3.99999 -0.56254,-10.10415 -0.5625,-18.312497 2.62495,-0.249977 5.64579,-0.416644 9.0625,-0.5 2.29161,2.3e-5 3.58328,-0.20831 3.875,-0.625 0.16661,-0.416642 -0.0626,-0.874975 -0.6875,-1.375 -2.29172,-1.54164 -4.64588,-1.895806 -7.0625,-1.0625 -1.50005,0.250026 -3.14588,0.625026 -4.9375,1.125 0.0416,-0.749974 0.20829,-1.395807 0.5,-1.9375 0.37496,-0.791639 0.18746,-1.479138 -0.5625,-2.0625 -1.12504,-0.916637 -2.33337,-1.604136 -3.625,-2.0625 -0.79171,-0.291635 -1.37504,-0.249969 -1.75,0.125 -0.25004,0.291697 -0.14587,0.770864 0.3125,1.4375 0.99996,1.625028 1.49996,3.354193 1.5,5.1875 -0.54171,0.04169 -1.08337,0.125024 -1.625,0.25 -4.5417,0.750023 -9.52086,1.562523 -14.9375,2.4375 -0.75002,0.04169 -0.83336,0.395855 -0.25,1.0625 0.54164,0.50002 1.14581,0.833353 1.8125,1 0.79164,0.166686 1.49997,0.166686 2.125,0 3.99997,-1.249979 8.31247,-2.124978 12.9375,-2.625 m -12.5,8.624997 c 0.99997,1.12502 1.99997,2.33335 3,3.625 0.49997,0.62501 1.06247,0.95835 1.6875,1 0.41663,0.0417 0.79163,-0.20832 1.125,-0.75 0.29163,-0.54165 0.3333,-1.47915 0.125,-2.8125 -0.2917,-1.37498 -2.2292,-2.72915 -5.8125,-4.0625 -0.62503,-0.24998 -1.08336,-0.33331 -1.375,-0.25 -0.25003,0.12502 -0.35419,0.45835 -0.3125,1 0.0416,0.50002 0.56247,1.25002 1.5625,2.25"
       id="text17608"
       inkscape:connector-curvature="0" />
  </g>
</svg>
