<?xml version="1.0" encoding="UTF-8" standalone="no"?>
<!-- Created with Inkscape (http://www.inkscape.org/) -->

<svg
   xmlns:dc="http://purl.org/dc/elements/1.1/"
   xmlns:cc="http://creativecommons.org/ns#"
   xmlns:rdf="http://www.w3.org/1999/02/22-rdf-syntax-ns#"
   xmlns:svg="http://www.w3.org/2000/svg"
   xmlns="http://www.w3.org/2000/svg"
   xmlns:xlink="http://www.w3.org/1999/xlink"
   xmlns:sodipodi="http://sodipodi.sourceforge.net/DTD/sodipodi-0.dtd"
   xmlns:inkscape="http://www.inkscape.org/namespaces/inkscape"
   version="1.0"
   width="100.04163"
   height="99.995232"
   id="svg2"
   sodipodi:version="0.32"
   inkscape:version="0.48.4 r9939"
   sodipodi:docname="red_king.svg"
   inkscape:output_extension="org.inkscape.output.svg.inkscape">
  <metadata
     id="metadata11">
    <rdf:RDF>
      <cc:Work
         rdf:about="">
        <dc:format>image/svg+xml</dc:format>
        <dc:type
           rdf:resource="http://purl.org/dc/dcmitype/StillImage" />
        <dc:title></dc:title>
      </cc:Work>
    </rdf:RDF>
  </metadata>
  <sodipodi:namedview
     inkscape:window-height="979"
     inkscape:window-width="1679"
     inkscape:pageshadow="2"
     inkscape:pageopacity="0.0"
     guidetolerance="10.0"
     gridtolerance="10.0"
     objecttolerance="10.0"
     borderopacity="1.0"
     bordercolor="#666666"
     pagecolor="#ffffff"
     id="base"
     inkscape:zoom="0.49"
     inkscape:cx="368.99455"
     inkscape:cy="-232.97375"
     inkscape:window-x="0"
     inkscape:window-y="42"
     inkscape:current-layer="layer3"
     showgrid="false"
     height="1052.36px"
     width="744px"
     units="mm"
     fit-margin-top="0"
     fit-margin-left="0"
     fit-margin-right="0"
     fit-margin-bottom="0"
     inkscape:window-maximized="0" />
  <defs
     id="defs3">
    <inkscape:perspective
       sodipodi:type="inkscape:persp3d"
       inkscape:vp_x="0 : 526.18109 : 1"
       inkscape:vp_y="0 : 1000 : 0"
       inkscape:vp_z="744.09448 : 526.18109 : 1"
       inkscape:persp3d-origin="372.04724 : 350.78739 : 1"
       id="perspective153" />
    <linearGradient
       id="linearGradient6462">
      <stop
         style="stop-color:black;stop-opacity:1;"
         offset="0"
         id="stop6464" />
      <stop
         style="stop-color:black;stop-opacity:0;"
         offset="1"
         id="stop6466" />
    </linearGradient>
    <linearGradient
       inkscape:collect="always"
       xlink:href="#linearGradient6462"
       id="linearGradient6468"
       x1="24"
       y1="229.36218"
       x2="90"
       y2="229.36218"
       gradientUnits="userSpaceOnUse" />
    <linearGradient
       inkscape:collect="always"
       xlink:href="#linearGradient6462"
       id="linearGradient3442"
       gradientUnits="userSpaceOnUse"
       x1="24"
       y1="229.36218"
       x2="90"
       y2="229.36218" />
  </defs>
  <g
     inkscape:groupmode="layer"
     id="layer1"
     inkscape:label="stones"
     style="display:inline"
     transform="translate(-107.94702,-45.074943)" />
  <g
     inkscape:groupmode="layer"
     id="layer3"
     inkscape:label="pieces"
     style="display:inline"
     transform="translate(-107.94702,-45.074943)">
    <path
       d="m 89,229.36218 c 0,17.67311 -14.326888,32 -32,32 -17.673112,0 -32,-14.32689 -32,-32 0,-17.67311 14.326888,-32 32,-32 17.673112,0 32,14.32689 32,32 z"
       sodipodi:ry="32"
       sodipodi:rx="32"
       sodipodi:cy="229.36218"
       sodipodi:cx="57"
       id="path17604"
       style="fill:#ffeda2;fill-opacity:1;stroke:#cc0000;stroke-width:3.36734796;stroke-miterlimit:4;stroke-opacity:1;stroke-dasharray:none;display:inline"
       sodipodi:type="arc"
       transform="matrix(1.484848,0,0,1.484848,73.331497,-245.49125)" />
    <path
       style="font-size:64px;font-style:normal;font-variant:normal;font-weight:normal;font-stretch:normal;text-align:start;line-height:100%;writing-mode:lr-tb;text-anchor:start;fill:#cc0000;fill-opacity:1;stroke:none;display:inline;font-family:AR PL UKai TW;-inkscape-font-specification:AR PL UKai TW"
       d="m 138.09232,110.60748 c 0.41666,0.12501 0.91666,0.10418 1.5,-0.0625 2.29165,-0.54165 5.97915,-1.04165 11.0625,-1.5 0.41664,-0.0416 0.66664,-0.24999 0.75,-0.625 -2e-5,-0.37499 -0.54169,-0.89582 -1.625,-1.5625 0.99998,-2.79165 2.08331,-4.70831 3.25,-5.75 0.66664,-0.74998 0.68747,-1.45831 0.0625,-2.124997 -3.00002,-2.249977 -5.58335,-2.729143 -7.75,-1.4375 -3.00001,1.000021 -5.35418,1.68752 -7.0625,2.0625 -1e-5,-2.291644 0.0417,-4.291642 0.125,-6 0.66666,0.166692 1.33332,0.187526 2,0.0625 2.16665,-0.624974 5.62498,-1.249973 10.375,-1.875 0.41664,-0.04164 0.64581,-0.270805 0.6875,-0.6875 -2e-5,-0.291638 -0.54169,-0.749971 -1.625,-1.375 0.99998,-2.916634 2.08331,-4.729132 3.25,-5.4375 0.62497,-0.666631 0.64581,-1.333297 0.0625,-2 -2.75002,-2.249961 -5.16669,-2.68746 -7.25,-1.3125 -1.25002,0.500038 -3.50001,1.291704 -6.75,2.375 1.74999,-2.041628 3.12499,-3.74996 4.125,-5.125 2.04165,-3.041622 3.54165,-4.958287 4.5,-5.75 0.74998,-0.666619 0.79165,-1.291618 0.125,-1.875 -0.79169,-0.541617 -1.79169,-0.93745 -3,-1.1875 -1.12502,-0.24995 -1.93752,-0.24995 -2.4375,0 -0.50001,0.25005 -0.58335,0.604216 -0.25,1.0625 0.62498,1.291714 -0.77085,5.520877 -4.1875,12.6875 -0.0417,3.6e-5 -0.0625,0.02087 -0.0625,0.0625 -0.62501,-0.624963 -1.39584,-1.083296 -2.3125,-1.375 -0.41667,-0.166629 -0.87501,-0.187462 -1.375,-0.0625 -0.29167,0.250037 -0.31251,0.625037 -0.0625,1.125 0.79166,2.9167 1.22916,4.854198 1.3125,5.8125 0.49999,8.500022 0.10416,15.291687 -1.1875,20.374997 -0.62501,2.29168 -0.16667,4.41668 1.375,6.375 0.41666,0.54167 0.87499,0.56251 1.375,0.0625 0.41666,-0.62499 0.74999,-2.27082 1,-4.9375 m 8.5,-3.9375 c -3.12502,0.79168 -5.93751,1.43751 -8.4375,1.9375 -1e-5,-3.49998 0.0208,-5.91665 0.0625,-7.25 0.37499,0.0417 3.14582,-0.45831 8.3125,-1.499997 0.41665,-0.04165 0.74998,2e-5 1,0.125 0.29165,0.291687 0.41665,0.770857 0.375,1.437497 -0.37502,1.91669 -0.77085,3.66668 -1.1875,5.25 l -0.125,0 m 0,-17.062497 c -3.00002,1.000029 -5.70835,1.750028 -8.125,2.25 -1e-5,-4.124968 0.0833,-6.291633 0.25,-6.5 0.41666,-0.04163 0.91665,-0.187466 1.5,-0.4375 2.24999,-0.541632 4.43748,-1.124964 6.5625,-1.75 0.54165,-0.16663 0.93748,-0.145797 1.1875,0.0625 0.29165,0.291703 0.39581,0.791702 0.3125,1.5 -0.41669,1.7917 -0.85419,3.395865 -1.3125,4.8125 -0.16669,3e-5 -0.29169,0.02086 -0.375,0.0625 m 18.3125,-1.9375 c -4e-5,11.50002 -0.1042,19.062517 -0.3125,22.687497 -0.12504,7.91667 0.22913,12.5 1.0625,13.75 0.62496,0.66666 1.12496,0.54166 1.5,-0.375 0.79163,-1.875 1.16663,-10.16666 1.125,-24.874997 -4e-5,-4.541641 0.0416,-8.520804 0.125,-11.9375 4.24996,-0.874967 6.64579,-1.041633 7.1875,-0.5 0.66662,0.541699 0.95828,1.770865 0.875,3.6875 -0.12505,1.875028 -0.22922,3.979192 -0.3125,6.3125 -5e-5,1.666688 -0.29171,2.833354 -0.875,3.5 -0.25005,0.500017 -0.87505,0.625017 -1.875,0.374997 -0.79171,-0.12498 -1.62504,-0.24998 -2.5,-0.374997 -0.66671,-0.166647 -1.10421,-0.12498 -1.3125,0.124997 -0.16671,0.16669 0.0625,0.47919 0.6875,0.9375 2.16662,1.66669 3.87495,3.22918 5.125,4.6875 0.66662,0.62502 1.41662,0.77085 2.25,0.4375 0.54162,-0.24998 1.02078,-0.99998 1.4375,-2.25 0.91661,-1.91665 1.31245,-4.104144 1.1875,-6.562497 -0.37505,-5.291639 -0.31255,-8.833302 0.1875,-10.625 0.29161,-0.666633 0.31245,-1.187466 0.0625,-1.5625 -0.91672,-0.624965 -2.10422,-1.229131 -3.5625,-1.8125 -0.79172,-0.29163 -1.50005,-0.312463 -2.125,-0.0625 -1.41671,0.666702 -3.54171,1.250035 -6.375,1.75 0.0416,-3.874962 0.16663,-6.958292 0.375,-9.25 0.0416,-1.416621 0.45829,-2.749953 1.25,-4 0.29162,-0.666618 -4e-5,-1.354118 -0.875,-2.0625 -1.04171,-0.791616 -2.50004,-1.458282 -4.375,-2 -0.87504,-0.166615 -1.58337,0.04172 -2.125,0.625 -0.4167,0.291718 -0.3542,0.729217 0.1875,1.3125 1.29163,1.041716 1.97913,2.333381 2.0625,3.875 -4e-5,3.04171 -0.0209,7.125039 -0.0625,12.25 -1.9167,0.2917 -4.0417,0.562533 -6.375,0.8125 -0.75003,-0.749966 -1.77086,-1.062466 -3.0625,-0.9375 -0.54169,0.1667 -0.68753,0.4792 -0.4375,0.9375 1.49997,3.00003 1.62497,6.812526 0.375,11.4375 -1.00003,1.75002 -0.79169,3.583347 0.625,5.499997 l 0.125,0.125 c 0.29164,0.54169 0.62497,0.68752 1,0.4375 1.16664,-0.87498 1.7708,-2.95831 1.8125,-6.249997 0.0416,-4.874973 0.12497,-7.916637 0.25,-9.125 0.29163,3.1e-5 0.62497,-0.0208 1,-0.0625 1.66663,-0.374969 3.22913,-0.687468 4.6875,-0.9375"
       id="text17612"
       inkscape:connector-curvature="0" />
  </g>
</svg>
